<?xml version="1.0" encoding="UTF-8" standalone="no"?>
<svg
   xmlns:dc="http://purl.org/dc/elements/1.1/"
   xmlns:cc="http://creativecommons.org/ns#"
   xmlns:rdf="http://www.w3.org/1999/02/22-rdf-syntax-ns#"
   xmlns:svg="http://www.w3.org/2000/svg"
   xmlns="http://www.w3.org/2000/svg"
   xmlns:sodipodi="http://sodipodi.sourceforge.net/DTD/sodipodi-0.dtd"
   xmlns:inkscape="http://www.inkscape.org/namespaces/inkscape"
   version="1.1"
   id="svg2"
   xml:space="preserve"
   width="400"
   height="400"
   viewBox="0 0 400 400"
   sodipodi:docname="egypt-flag-round.ai"><metadata
     id="metadata8"><rdf:RDF><cc:Work
         rdf:about=""><dc:format>image/svg+xml</dc:format><dc:type
           rdf:resource="http://purl.org/dc/dcmitype/StillImage" /></cc:Work></rdf:RDF></metadata><defs
     id="defs6"><clipPath
       clipPathUnits="userSpaceOnUse"
       id="clipPath18"><path
         d="M 150,300 C 67.157,300 0,232.843 0,150 v 0 C 0,67.157 67.157,0 150,0 v 0 c 82.843,0 150,67.157 150,150 v 0 c 0,82.843 -67.157,150 -150,150 z"
         id="path16" /></clipPath><clipPath
       clipPathUnits="userSpaceOnUse"
       id="clipPath272"><path
         d="m 136.813,165.971 c -0.143,0 -0.284,0.017 -0.424,0.043 v 0 c -0.007,-0.696 0.029,-1.417 0.072,-2.072 v 0 c 0.162,-2.45 0.591,-4.909 1.243,-7.275 v 0 c 2.055,-7.447 6.259,-13.776 12.286,-18.576 v 0 c 6.033,4.804 10.241,11.139 12.3,18.592 v 0 c 0.654,2.365 1.085,4.825 1.248,7.274 v 0 c 0.042,0.642 0.078,1.346 0.074,2.027 v 0 h -0.001 c -0.14,-0.009 -0.282,-0.013 -0.424,-0.013 v 0 c -3.102,0 -10.309,1.592 -13.087,3.978 v 0 c -2.909,-2.204 -10.235,-3.978 -13.287,-3.978"
         id="path270" /></clipPath><clipPath
       clipPathUnits="userSpaceOnUse"
       id="clipPath284"><path
         d="M 150,300 C 67.157,300 0,232.843 0,150 v 0 C 0,67.157 67.157,0 150,0 v 0 c 82.843,0 150,67.157 150,150 v 0 c 0,82.843 -67.157,150 -150,150 z"
         id="path282" /></clipPath></defs><sodipodi:namedview
     pagecolor="#ffffff"
     bordercolor="#666666"
     borderopacity="1"
     objecttolerance="10"
     gridtolerance="10"
     guidetolerance="10"
     inkscape:pageopacity="0"
     inkscape:pageshadow="2"
     inkscape:window-width="640"
     inkscape:window-height="480"
     id="namedview4" /><g
     id="g10"
     inkscape:groupmode="layer"
     inkscape:label="egypt-flag-round"
     transform="matrix(1.3333333,0,0,-1.3333333,0,400)"><g
       id="g12"><g
         id="g14"
         clip-path="url(#clipPath18)"><path
           d="M -75,150 H 375 V 0 H -75 Z"
           style="fill:#000000;fill-opacity:1;fill-rule:nonzero;stroke:none"
           id="path20" /><path
           d="M -75,300 H 375 V 150 H -75 Z"
           style="fill:#ce1126;fill-opacity:1;fill-rule:nonzero;stroke:none"
           id="path22" /><path
           d="M -75,200 H 375 V 100 H -75 Z"
           style="fill:#ffffff;fill-opacity:1;fill-rule:nonzero;stroke:none"
           id="path24" /><g
           id="g26"
           transform="translate(150,103.0948)"><path
             d="m 0,0 c 9.971,0 19.512,0.789 25.106,2.367 2.368,0.429 2.368,1.649 2.368,3.228 2.368,0.789 1.148,3.585 2.797,3.585 -1.649,-0.431 -2.008,2.797 -4.016,2.366 0,2.798 -2.798,3.156 -5.165,2.369 -4.735,-1.579 -13.128,-1.938 -21.091,-1.938 -7.961,0.359 -16.283,0.359 -21.089,1.938 -2.367,0.787 -5.163,0.429 -5.163,-2.369 -2.01,0.431 -2.368,-2.798 -4.017,-2.366 1.649,0 0.429,-2.796 2.797,-3.585 0,-1.579 0,-2.799 2.439,-3.228 C -19.512,0.789 -9.97,0 -0.001,0 Z"
             style="fill:#ffffff;fill-opacity:1;fill-rule:nonzero;stroke:none"
             id="path28" /></g><g
           id="g30"
           transform="translate(150,103.0948)"><path
             d="m 0,0 c 9.971,0 19.512,0.789 25.106,2.367 2.368,0.429 2.368,1.649 2.368,3.228 2.368,0.789 1.148,3.585 2.797,3.585 -1.649,-0.431 -2.008,2.797 -4.016,2.366 0,2.798 -2.798,3.156 -5.165,2.369 -4.735,-1.579 -13.128,-1.938 -21.091,-1.938 -7.961,0.359 -16.283,0.359 -21.089,1.938 -2.367,0.787 -5.163,0.429 -5.163,-2.369 -2.01,0.431 -2.368,-2.798 -4.017,-2.366 1.649,0 0.429,-2.796 2.797,-3.585 0,-1.579 0,-2.799 2.439,-3.228 C -19.512,0.789 -9.97,0 -0.001,0 Z"
             style="fill:none;stroke:#c09300;stroke-width:1.189;stroke-linecap:round;stroke-linejoin:round;stroke-miterlimit:4;stroke-dasharray:none;stroke-opacity:1"
             id="path32" /></g><g
           id="g34"
           transform="translate(150.4048,148.7998)"><path
             d="m 0,0 34.244,-31.79 -2.438,57.735 c -0.358,8.75 -7.962,6.743 -13.486,3.587 -5.595,-3.587 -11.979,-3.587 -18.722,-1.219 -6.743,-2.368 -13.127,-2.368 -18.723,1.219 -5.523,3.156 -13.126,5.164 -13.484,-3.587 l -2.44,-57.735 z"
             style="fill:#ffffff;fill-opacity:1;fill-rule:nonzero;stroke:none"
             id="path36" /></g><g
           id="g38"
           transform="translate(150.4048,148.7998)"><path
             d="m 0,0 34.244,-31.79 -2.438,57.735 c -0.358,8.75 -7.962,6.743 -13.486,3.587 -5.595,-3.587 -11.979,-3.587 -18.722,-1.219 -6.743,-2.368 -13.127,-2.368 -18.723,1.219 -5.523,3.156 -13.126,5.164 -13.484,-3.587 l -2.44,-57.735 z"
             style="fill:none;stroke:#c09300;stroke-width:0.635;stroke-linecap:round;stroke-linejoin:round;stroke-miterlimit:4;stroke-dasharray:none;stroke-opacity:1"
             id="path40" /></g><g
           id="g42"
           transform="translate(159.9697,167.1396)"><path
             d="m 0,0 1.149,-27.828 3.227,-3.157 -1.22,30.626 C 2.368,-0.358 0.359,-0.358 0,0.001 Z"
             style="fill:#c09300;fill-opacity:1;fill-rule:nonzero;stroke:none"
             id="path44" /></g><g
           id="g46"
           transform="translate(151.5796,142.4697)"><path
             d="m 0,0 4.807,-21.877 -1.579,-1.578 -1.65,1.22 -2.726,19.508 1.148,-19.508 -1.579,-2.009 -1.578,2.009 1.148,19.508 -2.725,-19.508 -1.651,-1.22 -1.577,1.578 L -3.157,0 Z"
             style="fill:#c09300;fill-opacity:1;fill-rule:nonzero;stroke:none"
             id="path48" /></g><g
           id="g50"
           transform="translate(151.5796,142.4697)"><path
             d="m 0,0 4.807,-21.877 -1.579,-1.578 -1.65,1.22 -2.726,19.508 1.148,-19.508 -1.579,-2.009 -1.578,2.009 1.148,19.508 -2.725,-19.508 -1.651,-1.22 -1.577,1.578 L -3.157,0 Z"
             style="fill:none;stroke:#c09300;stroke-width:0.537;stroke-linecap:square;stroke-linejoin:miter;stroke-miterlimit:4;stroke-dasharray:none;stroke-opacity:1"
             id="path52" /></g><g
           id="g54"
           transform="translate(121.7348,176.7549)"><path
             d="m 0,0 -2.367,-56.16 -4.018,-3.584 2.44,57.735 c 1.147,0.789 3.156,2.008 3.945,2.008 z"
             style="fill:#c09300;fill-opacity:1;fill-rule:nonzero;stroke:none"
             id="path56" /></g><g
           id="g58"
           transform="translate(126.5449,172.7348)"><path
             d="m 0,0 -2.009,-46.978 -4.016,-4.11 2.439,54.245 C -2.797,2.369 -0.429,0.433 0,0.002 Z"
             style="fill:#c09300;fill-opacity:1;fill-rule:nonzero;stroke:none"
             id="path60" /></g><g
           id="g62"
           transform="translate(130.9199,169.1499)"><path
             d="m 0,0 -1.578,-39.181 -3.227,-3.154 2.009,44.702 C -2.009,1.578 -0.431,0.43 0,0"
             style="fill:#c09300;fill-opacity:1;fill-rule:nonzero;stroke:none"
             id="path64" /></g><g
           id="g66"
           transform="translate(135.6548,167.1396)"><path
             d="m 0,0 -1.578,-33.393 -3.157,-2.56 1.578,37.172 C -2.367,0.861 -0.789,0.001 0,0.001 Z"
             style="fill:#c09300;fill-opacity:1;fill-rule:nonzero;stroke:none"
             id="path68" /></g><g
           id="g70"
           transform="translate(140.0298,167.1396)"><path
             d="m 0,0 -1.149,-27.828 -3.227,-3.157 1.22,30.626 c 0.788,0.001 2.797,0.001 3.156,0.36 z"
             style="fill:#c09300;fill-opacity:1;fill-rule:nonzero;stroke:none"
             id="path72" /></g><g
           id="g74"
           transform="translate(178.2646,176.7549)"><path
             d="m 0,0 2.367,-56.16 4.018,-3.584 -2.44,57.735 C 2.798,-1.22 0.789,-0.001 0,-0.001 Z"
             style="fill:#c09300;fill-opacity:1;fill-rule:nonzero;stroke:none"
             id="path76" /></g><g
           id="g78"
           transform="translate(173.4546,172.7348)"><path
             d="M 0,0 2.009,-46.978 6.025,-51.088 3.586,3.157 C 2.797,2.369 0.429,0.433 0,0.002 Z"
             style="fill:#c09300;fill-opacity:1;fill-rule:nonzero;stroke:none"
             id="path80" /></g><g
           id="g82"
           transform="translate(169.0796,169.1499)"><path
             d="M 0,0 1.578,-39.181 4.805,-42.335 2.796,2.367 C 2.009,1.578 0.431,0.43 0,0"
             style="fill:#c09300;fill-opacity:1;fill-rule:nonzero;stroke:none"
             id="path84" /></g><g
           id="g86"
           transform="translate(164.3447,167.1396)"><path
             d="M 0,0 1.578,-33.393 4.735,-35.953 3.157,1.219 C 2.367,0.861 0.789,0.001 0,0.001 Z"
             style="fill:#c09300;fill-opacity:1;fill-rule:nonzero;stroke:none"
             id="path88" /></g><g
           id="g90"
           transform="translate(139.2397,152.0801)"><path
             d="m 0,0 -9.54,-33.853 13.127,-2.008 5.595,25.462 z"
             style="fill:#ffffff;fill-opacity:1;fill-rule:nonzero;stroke:none"
             id="path92" /></g><g
           id="g94"
           transform="translate(139.2397,152.0801)"><path
             d="m 0,0 -9.54,-33.853 13.127,-2.008 5.595,25.462 z"
             style="fill:none;stroke:#c09300;stroke-width:0.594;stroke-linecap:round;stroke-linejoin:round;stroke-miterlimit:4;stroke-dasharray:none;stroke-opacity:1"
             id="path96" /></g><g
           id="g98"
           transform="translate(160.7598,152.0801)"><path
             d="m 0,0 9.54,-33.853 -13.126,-2.008 -5.596,25.462 z"
             style="fill:#ffffff;fill-opacity:1;fill-rule:nonzero;stroke:none"
             id="path100" /></g><g
           id="g102"
           transform="translate(160.7598,152.0801)"><path
             d="m 0,0 9.54,-33.853 -13.126,-2.008 -5.596,25.462 z"
             style="fill:none;stroke:#c09300;stroke-width:0.594;stroke-linecap:round;stroke-linejoin:round;stroke-miterlimit:4;stroke-dasharray:none;stroke-opacity:1"
             id="path104" /></g><g
           id="g106"
           transform="translate(163.9146,140.5298)"><path
             d="M 0,0 -1.147,-2.796 -7.35,3.127"
             style="fill:none;stroke:#c09300;stroke-width:0.635;stroke-linecap:round;stroke-linejoin:round;stroke-miterlimit:4;stroke-dasharray:none;stroke-opacity:1"
             id="path108" /></g><g
           id="g110"
           transform="translate(155.8491,120.5913)"><path
             d="m 0,0 1.395,6.599 1.218,6.712 2.92,-3.955 1.281,4.56 L 10.901,9.723 8.822,2.098 5.954,6.815 4.376,2.009 1.431,6.59 m -4.43,6.639 4.358,-6.621"
             style="fill:none;stroke:#c09300;stroke-width:0.635;stroke-linecap:round;stroke-linejoin:round;stroke-miterlimit:4;stroke-dasharray:none;stroke-opacity:1"
             id="path112" /></g><g
           id="g114"
           transform="translate(136.0849,140.5298)"><path
             d="M 0,0 1.147,-2.796 7.35,3.127"
             style="fill:none;stroke:#c09300;stroke-width:0.635;stroke-linecap:round;stroke-linejoin:round;stroke-miterlimit:4;stroke-dasharray:none;stroke-opacity:1"
             id="path116" /></g><g
           id="g118"
           transform="translate(140.3799,147.54)"><path
             d="m 0,0 1.298,-12.173 3.945,5.164"
             style="fill:none;stroke:#c09300;stroke-width:0.635;stroke-linecap:round;stroke-linejoin:round;stroke-miterlimit:4;stroke-dasharray:none;stroke-opacity:1"
             id="path120" /></g><g
           id="g122"
           transform="translate(144.0449,138.5249)"><path
             d="M 0,0 2.155,-7.437"
             style="fill:none;stroke:#c09300;stroke-width:0.635;stroke-linecap:round;stroke-linejoin:round;stroke-miterlimit:4;stroke-dasharray:none;stroke-opacity:1"
             id="path124" /></g><g
           id="g126"
           transform="translate(144.0454,120.5913)"><path
             d="m 0,0 -1.395,6.599 -1.218,6.712 -2.92,-3.955 -1.281,4.56 -4.087,-4.193 2.078,-7.625 2.869,4.717 1.578,-4.806 2.945,4.581 m 4.43,6.639 -4.358,-6.621"
             style="fill:none;stroke:#c09300;stroke-width:0.635;stroke-linecap:round;stroke-linejoin:round;stroke-miterlimit:4;stroke-dasharray:none;stroke-opacity:1"
             id="path128" /></g><g
           id="g130"
           transform="translate(132.4946,119.0146)"><path
             d="M 0,0 2.65,3.722 4.376,-2.006 6.744,2.01 8.322,-2.797"
             style="fill:none;stroke:#c09300;stroke-width:0.635;stroke-linecap:round;stroke-linejoin:round;stroke-miterlimit:4;stroke-dasharray:none;stroke-opacity:1"
             id="path132" /></g><g
           id="g134"
           transform="translate(167.6098,119.0146)"><path
             d="M 0,0 -2.65,3.722 -4.376,-2.006 -6.744,2.01 -8.322,-2.797"
             style="fill:none;stroke:#c09300;stroke-width:0.635;stroke-linecap:round;stroke-linejoin:round;stroke-miterlimit:4;stroke-dasharray:none;stroke-opacity:1"
             id="path136" /></g><g
           id="g138"
           transform="translate(136.4448,118.23)"><path
             d="m 0,0 c 3.227,-0.431 6.814,-0.789 9.612,-0.431 1.577,0 2.725,-2.725 -0.431,-3.156 -2.796,-0.358 -7.172,0 -9.54,0.431 -2.008,0.359 -6.384,1.147 -9.182,1.938 C -12.338,0 -10.329,2.366 -8.752,2.008 -6.313,1.219 -3.156,0.43 0.001,0 Z"
             style="fill:#ffffff;fill-opacity:1;fill-rule:nonzero;stroke:none"
             id="path140" /></g><g
           id="g142"
           transform="translate(136.4448,118.23)"><path
             d="m 0,0 c 3.227,-0.431 6.814,-0.789 9.612,-0.431 1.577,0 2.725,-2.725 -0.431,-3.156 -2.796,-0.358 -7.172,0 -9.54,0.431 -2.008,0.359 -6.384,1.147 -9.182,1.938 C -12.338,0 -10.329,2.366 -8.752,2.008 -6.313,1.219 -3.156,0.43 0.001,0 Z"
             style="fill:none;stroke:#c09300;stroke-width:0.635;stroke-linecap:round;stroke-linejoin:round;stroke-miterlimit:4;stroke-dasharray:none;stroke-opacity:1"
             id="path144" /></g><g
           id="g146"
           transform="translate(163.5595,118.23)"><path
             d="m 0,0 c -3.229,-0.431 -6.814,-0.789 -9.54,-0.431 -1.65,0 -2.798,-2.725 0.358,-3.156 2.798,-0.358 7.174,0 9.539,0.431 2.01,0.359 6.385,1.147 9.182,1.938 C 12.337,0 10.33,2.366 8.751,2.008 6.312,1.219 3.156,0.43 0,0"
             style="fill:#ffffff;fill-opacity:1;fill-rule:nonzero;stroke:none"
             id="path148" /></g><g
           id="g150"
           transform="translate(163.5595,118.23)"><path
             d="m 0,0 c -3.229,-0.431 -6.814,-0.789 -9.54,-0.431 -1.65,0 -2.798,-2.725 0.358,-3.156 2.798,-0.358 7.174,0 9.539,0.431 2.01,0.359 6.385,1.147 9.182,1.938 C 12.337,0 10.33,2.366 8.751,2.008 6.312,1.219 3.156,0.43 0,0 Z"
             style="fill:none;stroke:#c09300;stroke-width:0.635;stroke-linecap:round;stroke-linejoin:round;stroke-miterlimit:4;stroke-dasharray:none;stroke-opacity:1"
             id="path152" /></g><g
           id="g154"
           transform="translate(126.5449,119.8047)"><path
             d="m 0,0 c -2.438,0.431 -3.586,-2.366 -2.796,-3.943 0.358,0.789 2.007,0.789 2.367,1.577 C 0,-1.147 -0.789,-1.147 0,0"
             style="fill:#ffffff;fill-opacity:1;fill-rule:nonzero;stroke:none"
             id="path156" /></g><g
           id="g158"
           transform="translate(126.5449,119.8047)"><path
             d="m 0,0 c -2.438,0.431 -3.586,-2.366 -2.796,-3.943 0.358,0.789 2.007,0.789 2.367,1.577 C 0,-1.147 -0.789,-1.147 0,0 Z"
             style="fill:none;stroke:#c09300;stroke-width:0.635;stroke-linecap:round;stroke-linejoin:round;stroke-miterlimit:4;stroke-dasharray:none;stroke-opacity:1"
             id="path160" /></g><g
           id="g162"
           transform="translate(136.0849,112.4698)"><path
             d="m 0,0 c 0,1.577 1.577,1.383 1.577,2.961 0,0.788 -0.43,2.008 -1.218,2.008 -0.79,0 -1.579,-0.788 -1.579,-1.577 C -1.579,1.813 0,1.576 0,0"
             style="fill:#ffffff;fill-opacity:1;fill-rule:nonzero;stroke:none"
             id="path164" /></g><g
           id="g166"
           transform="translate(136.0849,112.4698)"><path
             d="m 0,0 c 0,1.577 1.577,1.383 1.577,2.961 0,0.788 -0.43,2.008 -1.218,2.008 -0.79,0 -1.579,-0.788 -1.579,-1.577 C -1.579,1.813 0,1.576 0,0 Z"
             style="fill:none;stroke:#c09300;stroke-width:0.635;stroke-linecap:round;stroke-linejoin:round;stroke-miterlimit:4;stroke-dasharray:none;stroke-opacity:1"
             id="path168" /></g><g
           id="g170"
           transform="translate(147.4399,117.0098)"><path
             d="m 0,0 c 2.365,0 2.131,-3.157 0.982,-4.735 0,1.148 -2.007,1.578 -2.007,2.366 0,1.221 1.813,1.221 1.025,2.369"
             style="fill:#ffffff;fill-opacity:1;fill-rule:nonzero;stroke:none"
             id="path172" /></g><g
           id="g174"
           transform="translate(147.4399,117.0098)"><path
             d="m 0,0 c 2.365,0 2.131,-3.157 0.982,-4.735 0,1.148 -2.007,1.578 -2.007,2.366 0,1.221 1.813,1.221 1.025,2.369 z"
             style="fill:none;stroke:#c09300;stroke-width:0.635;stroke-linecap:round;stroke-linejoin:round;stroke-miterlimit:4;stroke-dasharray:none;stroke-opacity:1"
             id="path176" /></g><g
           id="g178"
           transform="translate(173.4546,119.8047)"><path
             d="M 0,0 C 2.439,0.431 3.587,-2.366 2.798,-3.943 2.439,-3.154 0.79,-3.154 0.431,-2.366 0,-1.147 0.79,-1.147 0,0"
             style="fill:#ffffff;fill-opacity:1;fill-rule:nonzero;stroke:none"
             id="path180" /></g><g
           id="g182"
           transform="translate(173.4546,119.8047)"><path
             d="M 0,0 C 2.439,0.431 3.587,-2.366 2.798,-3.943 2.439,-3.154 0.79,-3.154 0.431,-2.366 0,-1.147 0.79,-1.147 0,0 Z"
             style="fill:none;stroke:#c09300;stroke-width:0.635;stroke-linecap:round;stroke-linejoin:round;stroke-miterlimit:4;stroke-dasharray:none;stroke-opacity:1"
             id="path184" /></g><g
           id="g186"
           transform="translate(163.9146,112.4698)"><path
             d="m 0,0 c 0,1.577 -1.576,1.383 -1.576,2.961 0,0.788 0.43,2.008 1.219,2.008 0.788,0 1.578,-0.788 1.578,-1.577 C 1.58,1.813 0,1.576 0,0 Z"
             style="fill:#ffffff;fill-opacity:1;fill-rule:nonzero;stroke:none"
             id="path188" /></g><g
           id="g190"
           transform="translate(163.9146,112.4698)"><path
             d="m 0,0 c 0,1.577 -1.576,1.383 -1.576,2.961 0,0.788 0.43,2.008 1.219,2.008 0.788,0 1.578,-0.788 1.578,-1.577 C 1.58,1.813 0,1.576 0,0 Z"
             style="fill:none;stroke:#c09300;stroke-width:0.635;stroke-linecap:round;stroke-linejoin:round;stroke-miterlimit:4;stroke-dasharray:none;stroke-opacity:1"
             id="path192" /></g><g
           id="g194"
           transform="translate(152.5595,117.0098)"><path
             d="m 0,0 c -2.366,0 -2.131,-3.157 -0.983,-4.735 0,1.148 2.007,1.578 2.007,2.366 C 1.025,-1.148 -0.789,-1.148 0,0"
             style="fill:#ffffff;fill-opacity:1;fill-rule:nonzero;stroke:none"
             id="path196" /></g><g
           id="g198"
           transform="translate(152.5595,117.0098)"><path
             d="m 0,0 c -2.366,0 -2.131,-3.157 -0.983,-4.735 0,1.148 2.007,1.578 2.007,2.366 C 1.025,-1.148 -0.789,-1.148 0,0 Z"
             style="fill:none;stroke:#c09300;stroke-width:0.635;stroke-linecap:round;stroke-linejoin:round;stroke-miterlimit:4;stroke-dasharray:none;stroke-opacity:1"
             id="path200" /></g><g
           id="g202"
           transform="translate(127.3349,119.0146)"><path
             d="M 0,0 C 0.79,0 2.009,-0.358 2.368,-0.788 Z"
             style="fill:none;stroke:#c09300;stroke-width:0.446;stroke-linecap:round;stroke-linejoin:round;stroke-miterlimit:4;stroke-dasharray:none;stroke-opacity:1"
             id="path204" /></g><g
           id="g206"
           transform="translate(131.2749,117.7949)"><path
             d="M 0,0 C 0.431,0 2.009,-0.358 2.798,-0.788 Z"
             style="fill:none;stroke:#c09300;stroke-width:0.446;stroke-linecap:round;stroke-linejoin:round;stroke-miterlimit:4;stroke-dasharray:none;stroke-opacity:1"
             id="path208" /></g><g
           id="g210"
           transform="translate(145.625,116.2198)"><path
             d="M 0,0 C -0.789,0 -2.367,0 -2.797,-0.357 Z"
             style="fill:none;stroke:#c09300;stroke-width:0.446;stroke-linecap:round;stroke-linejoin:round;stroke-miterlimit:4;stroke-dasharray:none;stroke-opacity:1"
             id="path212" /></g><g
           id="g214"
           transform="translate(141.25,116.2198)"><path
             d="M 0,0 C -0.43,0.431 -2.008,0.431 -2.797,0 Z"
             style="fill:none;stroke:#c09300;stroke-width:0.446;stroke-linecap:round;stroke-linejoin:round;stroke-miterlimit:4;stroke-dasharray:none;stroke-opacity:1"
             id="path216" /></g><g
           id="g218"
           transform="translate(172.6699,119.0146)"><path
             d="M 0,0 C -0.789,0 -1.937,-0.358 -2.368,-0.788 Z"
             style="fill:#ffffff;fill-opacity:1;fill-rule:nonzero;stroke:none"
             id="path220" /></g><g
           id="g222"
           transform="translate(172.6699,119.0146)"><path
             d="M 0,0 C -0.789,0 -1.937,-0.358 -2.368,-0.788 Z"
             style="fill:none;stroke:#c09300;stroke-width:0.446;stroke-linecap:round;stroke-linejoin:round;stroke-miterlimit:4;stroke-dasharray:none;stroke-opacity:1"
             id="path224" /></g><g
           id="g226"
           transform="translate(168.7246,117.7949)"><path
             d="M 0,0 C -0.43,0 -2.008,-0.358 -2.797,-0.788 Z"
             style="fill:#ffffff;fill-opacity:1;fill-rule:nonzero;stroke:none"
             id="path228" /></g><g
           id="g230"
           transform="translate(168.7246,117.7949)"><path
             d="M 0,0 C -0.43,0 -2.008,-0.358 -2.797,-0.788 Z"
             style="fill:none;stroke:#c09300;stroke-width:0.446;stroke-linecap:round;stroke-linejoin:round;stroke-miterlimit:4;stroke-dasharray:none;stroke-opacity:1"
             id="path232" /></g><g
           id="g234"
           transform="translate(154.375,116.2198)"><path
             d="M 0,0 C 0.79,0 2.367,0 2.797,-0.357 Z"
             style="fill:#ffffff;fill-opacity:1;fill-rule:nonzero;stroke:none"
             id="path236" /></g><g
           id="g238"
           transform="translate(154.375,116.2198)"><path
             d="M 0,0 C 0.79,0 2.367,0 2.797,-0.357 Z"
             style="fill:none;stroke:#c09300;stroke-width:0.446;stroke-linecap:round;stroke-linejoin:round;stroke-miterlimit:4;stroke-dasharray:none;stroke-opacity:1"
             id="path240" /></g><g
           id="g242"
           transform="translate(158.75,116.2198)"><path
             d="M 0,0 C 0.43,0.431 2.009,0.431 2.797,0 Z"
             style="fill:#ffffff;fill-opacity:1;fill-rule:nonzero;stroke:none"
             id="path244" /></g><g
           id="g246"
           transform="translate(158.75,116.2198)"><path
             d="M 0,0 C 0.43,0.431 2.009,0.431 2.797,0 Z"
             style="fill:none;stroke:#c09300;stroke-width:0.446;stroke-linecap:round;stroke-linejoin:round;stroke-miterlimit:4;stroke-dasharray:none;stroke-opacity:1"
             id="path248" /></g><g
           id="g250"
           transform="translate(159.6948,147.54)"><path
             d="m 0,0 -1.298,-12.173 -3.945,5.164"
             style="fill:none;stroke:#c09300;stroke-width:0.635;stroke-linecap:round;stroke-linejoin:round;stroke-miterlimit:4;stroke-dasharray:none;stroke-opacity:1"
             id="path252" /></g><g
           id="g254"
           transform="translate(149.9897,136.3848)"><path
             d="m 0,0 c 16.321,12.553 14.921,30.941 14.921,30.941 -0.43,-0.086 -0.839,-0.129 -1.27,-0.129 -3.423,0 -11.589,1.959 -13.494,4.447 -2.04,-2.252 -10.385,-4.447 -13.787,-4.447 -0.431,0 -0.861,0.043 -1.27,0.129 0,0 -1.421,-18.387 14.899,-30.941 z"
             style="fill:#ffffff;fill-opacity:1;fill-rule:nonzero;stroke:none"
             id="path256" /></g><g
           id="g258"
           transform="translate(149.9897,136.3848)"><path
             d="m 0,0 c 16.321,12.553 14.921,30.941 14.921,30.941 -0.43,-0.086 -0.839,-0.129 -1.27,-0.129 -3.423,0 -11.589,1.959 -13.494,4.447 -2.04,-2.252 -10.385,-4.447 -13.787,-4.447 -0.431,0 -0.861,0.043 -1.27,0.129 0,0 -1.421,-18.387 14.899,-30.941 z"
             style="fill:none;stroke:#c09300;stroke-width:0.575;stroke-linecap:butt;stroke-linejoin:miter;stroke-miterlimit:4;stroke-dasharray:none;stroke-opacity:1"
             id="path260" /></g><g
           id="g262"
           transform="translate(163.6098,165.98)"><path
             d="m 0,0 c -0.141,-0.009 -0.282,-0.013 -0.424,-0.013 -3.103,0 -10.309,1.592 -13.087,3.978 -2.91,-2.204 -10.236,-3.978 -13.288,-3.978 -0.143,0 -0.285,0.017 -0.425,0.043 -0.007,-0.696 0.029,-1.416 0.072,-2.072 0.161,-2.45 0.591,-4.909 1.244,-7.276 2.054,-7.447 6.258,-13.776 12.286,-18.578 6.033,4.806 10.242,11.141 12.3,18.594 0.654,2.365 1.085,4.824 1.248,7.275 C -0.031,-1.385 0.004,-0.682 0,0"
             style="fill:#ffffff;fill-opacity:1;fill-rule:nonzero;stroke:none"
             id="path264" /></g></g></g><g
       id="g266"><g
         id="g268"
         clip-path="url(#clipPath272)"><path
           d="m 132.9,174.296 h 11.786 V 133.652 H 132.9 Z"
           style="fill:#c09300;fill-opacity:1;fill-rule:nonzero;stroke:none"
           id="path274" /><path
           d="m 154.993,174.296 h 12.413 v -40.644 h -12.413 z"
           style="fill:#c09300;fill-opacity:1;fill-rule:nonzero;stroke:none"
           id="path276" /></g></g><g
       id="g278"><g
         id="g280"
         clip-path="url(#clipPath284)"><g
           id="g286"
           transform="translate(155.7998,138.5249)"><path
             d="M 0,0 -2.155,-7.437"
             style="fill:none;stroke:#c09300;stroke-width:0.635;stroke-linecap:round;stroke-linejoin:round;stroke-miterlimit:4;stroke-dasharray:none;stroke-opacity:1"
             id="path288" /></g><g
           id="g290"
           transform="translate(149.1367,105.3365)"><path
             d="m 0,0 c 0,0.018 -0.094,0.074 -0.208,0.126 -0.221,0.101 -0.41,0.255 -0.526,0.426 -0.08,0.119 -0.175,0.422 -0.178,0.567 0,0.072 -0.024,0.104 -0.086,0.117 -0.254,0.056 -0.902,0.127 -1.379,0.151 -0.3,0.015 -0.86,0.059 -1.246,0.097 C -4.46,1.567 -4.78,1.555 -4.892,1.437 -4.935,1.393 -4.987,1.304 -5.009,1.24 -5.032,1.176 -5.113,1.039 -5.191,0.935 -5.269,0.831 -5.333,0.729 -5.333,0.708 -5.332,0.687 -5.349,0.67 -5.37,0.67 -5.39,0.67 -5.437,0.641 -5.475,0.606 -5.57,0.516 -5.763,0.383 -5.862,0.339 -5.909,0.318 -5.989,0.277 -6.04,0.248 -6.174,0.172 -7.112,0.163 -7.264,0.237 -7.323,0.266 -7.423,0.289 -7.486,0.289 -7.549,0.288 -7.634,0.31 -7.673,0.337 c -0.06,0.041 -0.067,0.067 -0.036,0.152 0.042,0.123 0.168,0.154 0.652,0.162 0.27,0.004 0.348,0.02 0.506,0.101 0.188,0.098 0.509,0.333 0.534,0.392 0.007,0.017 0.045,0.058 0.083,0.09 0.038,0.033 0.08,0.116 0.093,0.186 0.012,0.07 0.054,0.191 0.094,0.269 0.084,0.163 0.074,0.263 -0.068,0.668 -0.146,0.418 -0.198,0.511 -0.364,0.651 -0.21,0.177 -0.205,0.261 0.03,0.499 0.102,0.104 0.246,0.279 0.319,0.387 0.119,0.176 0.145,0.195 0.25,0.187 0.1,-0.008 0.133,-0.039 0.224,-0.207 0.141,-0.259 0.334,-0.708 0.335,-0.777 0,-0.03 0.025,-0.105 0.055,-0.167 0.029,-0.063 0.074,-0.173 0.098,-0.245 0.06,-0.179 0.094,-0.197 0.404,-0.223 0.326,-0.028 0.33,-0.023 0.359,0.414 0.01,0.167 0.036,0.321 0.057,0.341 0.021,0.02 0.037,0.069 0.037,0.108 -10e-4,0.087 -0.188,0.602 -0.236,0.649 -0.063,0.062 -0.037,0.245 0.058,0.404 0.051,0.086 0.107,0.157 0.124,0.157 0.017,0 0.094,0.043 0.172,0.095 0.196,0.13 0.489,0.162 0.614,0.067 0.081,-0.062 0.094,-0.106 0.112,-0.387 0.019,-0.287 0.031,-0.325 0.12,-0.399 0.055,-0.045 0.14,-0.082 0.19,-0.082 C -2.807,3.828 -2.735,3.802 -2.698,3.77 -2.642,3.722 -2.509,3.711 -1.907,3.707 -1.074,3.701 -0.608,3.678 -0.549,3.642 -0.526,3.628 -0.381,3.618 -0.227,3.619 -0.072,3.62 0.265,3.608 0.523,3.593 0.975,3.567 0.996,3.563 1.105,3.459 L 1.22,3.352 1.228,2.873 C 1.238,2.32 1.27,2.249 1.512,2.251 1.724,2.253 1.784,2.318 1.8,2.564 1.809,2.681 1.836,2.793 1.863,2.814 1.89,2.835 1.936,2.911 1.967,2.983 2.03,3.133 2.291,3.396 2.412,3.433 2.457,3.446 2.527,3.486 2.568,3.522 2.609,3.557 2.692,3.596 2.754,3.607 3.024,3.658 3.321,3.758 3.391,3.821 3.44,3.865 3.53,3.893 3.642,3.898 3.786,3.905 3.831,3.891 3.893,3.82 3.983,3.719 3.999,3.641 4.034,3.147 4.049,2.943 4.08,2.733 4.103,2.68 4.125,2.627 4.154,2.373 4.166,2.116 L 4.188,1.648 4.071,1.495 3.955,1.341 2.742,1.33 C 2.074,1.324 1.47,1.309 1.399,1.295 1.258,1.268 1.225,1.194 1.228,0.917 1.229,0.831 1.204,0.761 1.158,0.721 1.119,0.686 1.077,0.619 1.065,0.572 1.043,0.481 0.794,0.293 0.635,0.245 0.583,0.229 0.516,0.197 0.485,0.173 0.397,0.103 0.116,-0.031 0.055,-0.031 0.025,-0.032 0,-0.018 0,0 M 0.317,1.152 C 0.4,1.215 0.402,1.232 0.399,1.894 L 0.396,2.57 0.294,2.659 C 0.198,2.743 0.163,2.748 -0.528,2.775 -0.925,2.79 -1.314,2.824 -1.394,2.849 -1.498,2.881 -1.591,2.884 -1.728,2.858 -1.852,2.836 -1.999,2.836 -2.149,2.86 -2.71,2.948 -3.084,2.878 -3.219,2.659 -3.283,2.556 -3.283,2.544 -3.222,2.448 -3.187,2.392 -3.115,2.338 -3.063,2.33 -3.011,2.321 -2.89,2.29 -2.794,2.262 -2.688,2.23 -2.461,2.21 -2.212,2.211 -1.988,2.211 -1.611,2.2 -1.374,2.185 -1.136,2.17 -0.806,2.154 -0.64,2.15 -0.424,2.145 -0.308,2.124 -0.232,2.077 L -0.125,2.012 -0.147,1.664 C -0.168,1.33 -0.165,1.312 -0.082,1.241 0.02,1.155 0.14,1.088 0.194,1.088 c 0.021,0 0.077,0.029 0.123,0.064 M 3.213,2.241 C 3.296,2.272 3.313,2.297 3.295,2.356 3.283,2.397 3.253,2.508 3.23,2.602 3.194,2.748 3.176,2.772 3.097,2.771 3.011,2.771 2.852,2.681 2.707,2.551 2.636,2.487 2.591,2.331 2.63,2.279 2.715,2.164 2.966,2.147 3.213,2.241 M 6.368,0.293 C 6.246,0.418 6.22,0.471 6.219,0.593 6.217,0.717 6.241,0.766 6.36,0.886 6.579,1.107 6.686,1.113 7.064,0.921 7.426,0.738 7.548,0.722 7.581,0.852 7.612,0.977 7.82,1.091 8.018,1.092 8.143,1.093 8.213,1.068 8.313,0.99 8.439,0.892 8.445,0.877 8.448,0.65 8.451,0.419 8.447,0.41 8.303,0.282 8.165,0.16 8.143,0.153 7.971,0.17 7.752,0.192 7.621,0.292 7.585,0.464 7.56,0.589 7.516,0.619 7.482,0.534 7.472,0.507 7.418,0.473 7.363,0.459 7.261,0.434 7.089,0.325 6.966,0.209 6.92,0.165 6.838,0.145 6.707,0.144 6.529,0.142 6.504,0.153 6.368,0.293 M 9.791,0.517 9.705,0.575 9.78,0.678 c 0.042,0.057 0.138,0.124 0.215,0.15 0.261,0.085 0.438,0.192 0.651,0.395 0.118,0.111 0.213,0.23 0.213,0.263 -10e-4,0.034 0.045,0.115 0.101,0.18 0.098,0.114 0.102,0.135 0.094,0.499 -0.007,0.372 -0.027,0.45 -0.165,0.665 -0.067,0.103 -0.29,0.265 -0.518,0.376 -0.152,0.073 -0.206,0.223 -0.128,0.351 0.033,0.053 0.136,0.252 0.231,0.441 0.093,0.188 0.191,0.384 0.215,0.434 0.068,0.136 0.236,0.143 0.35,0.015 0.107,-0.121 0.28,-0.427 0.28,-0.497 10e-4,-0.027 0.034,-0.078 0.073,-0.113 0.086,-0.076 0.271,-0.393 0.271,-0.465 10e-4,-0.029 0.045,-0.123 0.1,-0.21 0.067,-0.108 0.1,-0.212 0.102,-0.33 0.003,-0.094 0.03,-0.231 0.06,-0.305 C 12.016,2.313 11.987,1.594 11.879,1.393 11.834,1.308 11.785,1.238 11.77,1.238 11.755,1.237 11.693,1.17 11.632,1.089 11.516,0.935 11.119,0.656 11.014,0.655 10.979,0.654 10.927,0.618 10.897,0.573 10.845,0.496 10.812,0.49 10.359,0.475 9.959,0.461 9.862,0.469 9.791,0.517 m 2.975,0.323 c -0.043,0.041 -0.03,0.218 0.019,0.256 0.026,0.02 0.089,0.049 0.14,0.064 0.052,0.015 0.118,0.048 0.149,0.074 0.031,0.027 0.14,0.06 0.243,0.075 0.37,0.055 0.693,0.348 0.694,0.631 C 14.012,2.019 14,2.1 13.985,2.122 13.943,2.186 13.295,2.146 12.944,2.059 12.861,2.038 12.82,2.055 12.719,2.15 l -0.125,0.117 -0.018,0.529 -0.017,0.53 0.162,0.179 c 0.089,0.099 0.201,0.243 0.25,0.322 0.049,0.078 0.1,0.147 0.113,0.153 0.014,0.006 0.09,0.068 0.169,0.139 0.157,0.139 0.415,0.281 0.59,0.323 0.061,0.015 0.128,0.051 0.15,0.08 0.021,0.029 0.088,0.057 0.148,0.062 0.091,0.008 0.124,-0.015 0.213,-0.151 0.059,-0.089 0.109,-0.21 0.112,-0.269 0.002,-0.06 0.031,-0.173 0.062,-0.252 0.031,-0.079 0.068,-0.236 0.083,-0.35 0.014,-0.114 0.045,-0.229 0.068,-0.256 0.057,-0.067 0.51,-0.098 0.589,-0.041 0.044,0.032 0.064,0.129 0.076,0.372 0.009,0.189 0.04,0.377 0.072,0.442 0.032,0.061 0.068,0.165 0.082,0.23 0.036,0.177 0.332,0.586 0.509,0.704 0.086,0.057 0.177,0.123 0.202,0.147 0.026,0.024 0.085,0.054 0.131,0.069 0.112,0.035 0.139,0.081 0.138,0.241 -0.001,0.137 -0.116,0.295 -0.352,0.486 -0.058,0.046 -0.105,0.112 -0.105,0.147 -0.001,0.102 0.109,0.295 0.282,0.497 0.088,0.103 0.161,0.201 0.162,0.217 0,0.017 0.059,0.067 0.131,0.112 0.101,0.064 0.149,0.074 0.223,0.048 0.1,-0.036 0.128,-0.085 0.221,-0.394 0.123,-0.407 0.151,-0.526 0.181,-0.757 0.017,-0.13 0.043,-0.254 0.056,-0.275 0.014,-0.022 0.181,-0.072 0.369,-0.113 0.188,-0.04 0.378,-0.095 0.423,-0.121 0.044,-0.026 0.122,-0.059 0.173,-0.073 0.129,-0.036 0.302,-0.161 0.303,-0.218 0,-0.026 0.015,-0.047 0.032,-0.047 0.041,0 0.23,-0.274 0.403,-0.587 0.196,-0.352 0.184,-0.343 0.497,-0.34 0.251,0.001 0.28,0.01 0.35,0.098 0.042,0.053 0.076,0.14 0.076,0.194 -0.002,0.113 0.095,0.245 0.33,0.453 0.09,0.08 0.201,0.179 0.245,0.219 0.146,0.132 0.311,0.237 0.375,0.238 0.034,0 0.219,-0.064 0.412,-0.143 0.284,-0.116 0.369,-0.169 0.454,-0.285 0.186,-0.251 0.582,-0.355 0.779,-0.204 0.051,0.041 0.112,0.073 0.135,0.074 0.022,0 0.04,0.025 0.04,0.055 0,0.076 -0.153,0.492 -0.2,0.545 C 22.452,5.32 22.417,5.465 22.396,5.619 22.374,5.772 22.322,5.971 22.279,6.06 22.228,6.168 22.194,6.333 22.179,6.562 22.166,6.749 22.122,7.023 22.081,7.17 22.04,7.317 22.006,7.482 22.005,7.538 22.002,7.804 21.777,8.153 21.547,8.248 21.496,8.27 21.411,8.31 21.359,8.338 21.224,8.411 21.045,8.401 20.966,8.315 20.929,8.275 20.863,8.242 20.82,8.241 20.74,8.241 20.5,8.047 20.5,7.984 20.5,7.966 20.445,7.95 20.377,7.949 c -0.1,-10e-4 -0.145,0.027 -0.245,0.148 -0.067,0.082 -0.122,0.167 -0.123,0.188 0,0.021 -0.068,0.094 -0.151,0.163 -0.123,0.101 -0.151,0.148 -0.152,0.254 -0.002,0.103 0.017,0.137 0.091,0.171 0.051,0.022 0.093,0.057 0.093,0.077 0,0.019 0.063,0.046 0.14,0.06 0.077,0.013 0.275,0.059 0.439,0.102 0.415,0.107 1.16,0.113 1.342,0.011 0.066,-0.038 0.165,-0.078 0.218,-0.09 0.122,-0.026 0.448,-0.326 0.514,-0.475 0.028,-0.062 0.067,-0.123 0.086,-0.134 0.019,-0.011 0.048,-0.089 0.063,-0.173 0.015,-0.084 0.051,-0.201 0.079,-0.26 0.042,-0.088 0.098,-0.458 0.156,-1.024 0.01,-0.102 0.086,-0.448 0.145,-0.665 0.022,-0.079 0.064,-0.262 0.094,-0.407 0.03,-0.146 0.082,-0.292 0.115,-0.326 0.032,-0.034 0.059,-0.09 0.06,-0.126 10e-4,-0.14 0.389,-0.376 0.615,-0.374 0.196,0.001 0.49,0.135 0.674,0.304 0.105,0.097 0.231,0.186 0.28,0.198 0.102,0.026 0.266,-0.052 0.325,-0.153 C 25.306,5.295 25.424,5.186 25.581,5.099 25.75,5.005 25.812,4.881 25.748,4.762 25.726,4.723 25.68,4.69 25.645,4.689 25.609,4.689 25.49,4.647 25.38,4.597 25.271,4.546 25.149,4.505 25.111,4.504 25.073,4.504 24.86,4.445 24.638,4.374 24.416,4.302 24.024,4.2 23.767,4.147 23.312,4.053 22.702,3.884 22.627,3.831 22.606,3.816 22.522,3.793 22.44,3.778 22.185,3.734 22.163,3.72 22.139,3.589 22.109,3.428 21.766,3.069 21.512,2.934 21.336,2.84 21.299,2.834 20.861,2.835 20.606,2.836 20.366,2.844 20.329,2.855 20.292,2.866 20.25,2.923 20.236,2.981 20.222,3.039 20.16,3.12 20.097,3.162 19.978,3.242 19.841,3.24 19.535,3.153 L 19.399,3.114 19.376,2.758 C 19.364,2.563 19.332,2.365 19.304,2.317 19.276,2.27 19.238,2.199 19.218,2.159 19.198,2.12 19.096,2.013 18.991,1.923 18.886,1.833 18.733,1.698 18.651,1.623 18.482,1.467 18.337,1.444 18.235,1.555 18.198,1.596 18.124,1.626 18.062,1.625 17.936,1.624 17.644,1.744 17.46,1.872 c -0.112,0.079 -0.348,0.463 -0.349,0.57 0,0.021 -0.035,0.07 -0.076,0.109 -0.06,0.057 -0.124,0.071 -0.31,0.068 C 16.596,2.617 16.415,2.598 16.322,2.577 16.229,2.557 16.004,2.522 15.821,2.5 15.638,2.479 15.434,2.438 15.368,2.411 15.302,2.384 15.176,2.349 15.089,2.334 14.858,2.294 14.789,2.21 14.791,1.975 14.792,1.851 14.774,1.766 14.74,1.738 14.71,1.714 14.677,1.649 14.665,1.593 14.633,1.448 14.326,1.15 14.107,1.053 14.005,1.007 13.859,0.937 13.783,0.897 13.669,0.838 13.57,0.825 13.218,0.821 12.983,0.819 12.78,0.827 12.766,0.84 m 5.814,1.736 c 0.105,0.081 0.114,0.195 0.021,0.276 C 18.492,2.948 18.293,2.946 18.089,2.849 17.967,2.79 17.933,2.754 17.934,2.684 c 0,-0.06 0.029,-0.101 0.085,-0.122 0.127,-0.047 0.493,-0.039 0.561,0.014 M 13.84,3.004 C 13.969,3.07 14,3.142 13.967,3.3 13.917,3.54 13.616,3.611 13.47,3.417 13.426,3.358 13.389,3.295 13.39,3.276 13.39,3.258 13.365,3.223 13.335,3.199 13.291,3.164 13.289,3.138 13.323,3.077 13.347,3.035 13.385,2.989 13.408,2.975 13.479,2.93 13.729,2.947 13.84,3.004 m 2.978,0.557 C 16.832,3.623 16.83,3.762 16.814,3.872 16.792,4.029 16.763,4.091 16.673,4.168 16.537,4.285 16.467,4.274 16.307,4.111 16.203,4.007 16.188,3.965 16.184,3.777 16.178,3.481 16.219,3.443 16.539,3.446 c 0.255,0.002 0.255,0.002 0.279,0.115 m 1.334,0.127 c 0.16,0.074 0.179,0.095 0.179,0.201 0.001,0.163 -0.148,0.356 -0.367,0.477 -0.233,0.128 -0.316,0.126 -0.42,-0.012 -0.081,-0.107 -0.081,-0.116 -0.023,-0.276 0.034,-0.092 0.062,-0.19 0.062,-0.22 0,-0.072 0.228,-0.252 0.318,-0.253 0.039,0 0.152,0.037 0.251,0.083 m 2.993,0.027 c 0.232,0.1 0.298,0.223 0.207,0.387 C 21.273,4.244 21.159,4.3 20.973,4.288 20.757,4.273 20.58,4.131 20.582,3.974 20.583,3.871 20.609,3.835 20.744,3.746 20.832,3.688 20.917,3.639 20.932,3.638 20.947,3.636 21.043,3.671 21.145,3.715 M -10.406,0.878 c -0.056,0.019 -0.103,0.047 -0.103,0.061 -10e-4,0.035 -0.356,0.252 -0.411,0.251 -0.022,0 -0.051,0.044 -0.063,0.099 -0.012,0.054 -0.057,0.205 -0.1,0.335 -0.076,0.228 -0.074,0.402 0.003,0.449 0.056,0.034 0.036,0.146 -0.039,0.209 -0.045,0.038 -0.162,0.066 -0.329,0.076 -0.352,0.023 -0.392,0.034 -0.516,0.138 -0.089,0.074 -0.114,0.131 -0.141,0.325 -0.02,0.137 -0.061,0.263 -0.1,0.303 -0.068,0.072 -0.185,0.09 -0.219,0.036 -0.011,-0.017 -0.071,-0.042 -0.134,-0.055 -0.076,-0.015 -0.125,-0.053 -0.15,-0.116 -0.019,-0.051 -0.079,-0.15 -0.132,-0.219 -0.093,-0.118 -0.107,-0.124 -0.337,-0.126 -0.133,-0.002 -0.297,0.019 -0.366,0.046 -0.147,0.058 -0.31,0.082 -0.718,0.11 -0.584,0.04 -0.855,-0.004 -0.9,-0.145 -0.063,-0.197 -0.535,-0.601 -0.741,-0.634 -0.082,-0.014 -0.223,-0.048 -0.312,-0.078 -0.089,-0.028 -0.178,-0.043 -0.198,-0.031 -0.019,0.011 -0.217,0.043 -0.438,0.07 -0.418,0.052 -0.572,0.122 -0.573,0.262 -0.001,0.085 0.255,0.213 0.354,0.178 0.106,-0.039 0.281,-0.037 0.281,0.003 0,0.019 0.091,0.053 0.203,0.076 0.111,0.024 0.222,0.066 0.247,0.095 0.024,0.029 0.093,0.053 0.153,0.054 0.089,0 0.129,0.033 0.219,0.171 0.06,0.094 0.109,0.193 0.109,0.22 0,0.028 0.032,0.092 0.073,0.143 0.044,0.055 0.074,0.147 0.073,0.227 -10e-4,0.074 0.023,0.206 0.054,0.293 0.053,0.148 0.052,0.172 -0.03,0.409 -0.047,0.138 -0.107,0.263 -0.133,0.278 -0.026,0.015 -0.067,0.084 -0.092,0.153 -0.065,0.183 0.005,0.348 0.271,0.631 0.028,0.031 0.062,0.108 0.076,0.173 0.026,0.122 0.11,0.189 0.237,0.191 0.094,0.001 0.27,-0.194 0.272,-0.298 0,-0.044 0.028,-0.117 0.061,-0.161 0.037,-0.05 0.075,-0.212 0.097,-0.412 0.036,-0.342 0.097,-0.694 0.142,-0.828 0.038,-0.115 0.243,-0.273 0.353,-0.274 0.053,0 0.198,-0.022 0.322,-0.05 0.124,-0.027 0.323,-0.049 0.442,-0.048 0.216,0.002 0.217,0.002 0.438,0.224 0.122,0.122 0.221,0.24 0.22,0.263 -0.006,0.144 -0.489,0.403 -0.877,0.472 -0.136,0.023 -0.231,0.19 -0.202,0.351 0.025,0.137 0.206,0.374 0.383,0.502 0.068,0.049 0.292,0.135 0.498,0.193 l 0.375,0.105 0.104,0.202 c 0.198,0.386 0.613,0.691 0.946,0.695 0.166,0.001 0.201,-0.018 0.334,-0.184 0.036,-0.045 0.106,-0.131 0.153,-0.189 0.147,-0.182 0.23,-0.397 0.208,-0.538 -0.021,-0.132 0.036,-0.342 0.092,-0.342 0.051,10e-4 0.598,-0.531 0.624,-0.607 0.013,-0.039 0.039,-0.07 0.057,-0.07 0.047,0 0.115,-0.24 0.117,-0.414 0.002,-0.257 -0.055,-0.296 -0.455,-0.302 C -10.815,3.825 -11.048,3.8 -11.14,3.772 l -0.169,-0.05 -0.008,-0.2 c -0.013,-0.27 0.055,-0.345 0.35,-0.388 0.122,-0.017 0.239,-0.048 0.261,-0.068 0.021,-0.02 0.083,-0.036 0.137,-0.036 0.053,0.001 0.131,-0.022 0.171,-0.049 0.066,-0.046 0.074,-0.097 0.078,-0.512 l 0.005,-0.462 0.123,-0.037 c 0.067,-0.02 0.142,-0.055 0.167,-0.079 0.089,-0.083 0.206,-0.048 0.254,0.076 0.024,0.065 0.058,0.15 0.076,0.19 0.017,0.04 0.047,0.283 0.066,0.541 0.018,0.258 0.057,0.533 0.085,0.613 0.028,0.079 0.068,0.338 0.088,0.575 0.021,0.236 0.057,0.452 0.08,0.479 0.023,0.028 0.048,0.254 0.058,0.512 0.013,0.37 0.03,0.477 0.082,0.533 0.054,0.059 0.064,0.141 0.059,0.517 l -0.005,0.447 -0.151,0.124 c -0.1,0.083 -0.15,0.155 -0.151,0.215 -10e-4,0.13 0.034,0.168 0.222,0.237 0.092,0.033 0.235,0.086 0.317,0.115 0.082,0.031 0.166,0.075 0.187,0.099 0.065,0.075 0.273,0.207 0.327,0.208 0.029,0 0.08,-0.029 0.115,-0.065 C -8.235,7.223 -8.228,6.881 -8.304,6.738 -8.336,6.677 -8.357,6.537 -8.356,6.396 -8.355,6.265 -8.379,6.086 -8.411,5.999 -8.443,5.909 -8.484,5.581 -8.507,5.229 -8.529,4.892 -8.566,4.581 -8.591,4.538 -8.615,4.494 -8.634,4.348 -8.633,4.213 -8.632,4.078 -8.656,3.83 -8.686,3.661 -8.716,3.493 -8.756,3.209 -8.775,3.032 -8.794,2.854 -8.833,2.653 -8.862,2.585 -8.891,2.517 -8.924,2.346 -8.936,2.205 -8.947,2.064 -8.987,1.892 -9.025,1.822 -9.062,1.753 -9.092,1.667 -9.092,1.633 -9.091,1.542 -9.285,1.208 -9.339,1.207 -9.364,1.207 -9.401,1.176 -9.421,1.139 -9.442,1.102 -9.509,1.061 -9.572,1.048 -9.635,1.035 -9.732,0.993 -9.788,0.955 -9.908,0.872 -10.258,0.829 -10.406,0.878 m -1.162,3.566 c 0.098,0.068 0.107,0.161 0.015,0.184 -0.115,0.029 -0.209,0.189 -0.217,0.371 -0.015,0.327 -0.168,0.346 -0.453,0.055 C -12.305,4.97 -12.43,4.857 -12.5,4.803 l -0.129,-0.098 0.093,-0.095 c 0.157,-0.157 0.332,-0.22 0.621,-0.222 0.184,-0.001 0.289,0.016 0.347,0.056 M 5.319,1.472 C 5.241,1.581 5.237,1.605 5.273,1.804 5.295,1.923 5.315,2.125 5.317,2.253 5.319,2.382 5.342,2.523 5.366,2.567 5.39,2.61 5.409,2.7 5.408,2.767 5.406,2.86 5.44,2.92 5.555,3.03 c 0.082,0.078 0.148,0.159 0.148,0.181 0,0.047 0.292,0.273 0.354,0.274 0.024,0 0.074,0.033 0.111,0.073 0.037,0.04 0.112,0.073 0.168,0.074 0.055,0 0.145,0.038 0.199,0.084 C 6.628,3.794 6.634,3.818 6.631,4.112 6.629,4.3 6.604,4.49 6.567,4.589 6.534,4.68 6.51,4.79 6.515,4.833 6.519,4.876 6.507,5.081 6.489,5.29 6.459,5.626 6.445,5.678 6.358,5.765 6.304,5.819 6.239,5.863 6.213,5.862 6.166,5.862 5.989,6.068 6.014,6.095 6.272,6.371 6.732,6.805 6.784,6.821 6.89,6.854 7.049,6.783 7.089,6.684 7.109,6.635 7.137,6.42 7.151,6.206 7.166,5.993 7.194,5.721 7.216,5.602 7.237,5.484 7.274,5.112 7.298,4.775 7.322,4.439 7.359,4.107 7.379,4.038 7.4,3.969 7.43,3.662 7.447,3.355 7.463,3.048 7.494,2.735 7.515,2.658 7.587,2.395 7.889,2.238 8.104,2.351 8.139,2.37 8.299,2.406 8.46,2.432 8.833,2.492 8.84,2.503 8.807,3.036 8.784,3.405 8.771,3.456 8.682,3.567 8.626,3.634 8.54,3.699 8.488,3.711 8.386,3.735 8.321,3.822 8.32,3.939 8.32,4.022 8.513,4.216 8.634,4.254 8.676,4.267 8.788,4.341 8.882,4.418 9.095,4.592 9.234,4.604 9.366,4.463 9.45,4.373 9.459,4.326 9.488,3.843 9.51,3.471 9.536,3.291 9.58,3.214 9.625,3.136 9.642,3.008 9.646,2.742 9.647,2.494 9.668,2.335 9.709,2.244 9.762,2.126 9.763,2.097 9.716,1.997 9.688,1.934 9.652,1.847 9.639,1.804 9.609,1.703 9.552,1.686 9.207,1.677 9.053,1.673 8.859,1.651 8.776,1.628 8.694,1.605 8.475,1.583 8.29,1.579 7.498,1.559 6.416,1.467 6.357,1.415 6.313,1.376 6.187,1.362 5.852,1.359 L 5.404,1.354 Z M 6.458,2.249 6.654,2.307 6.641,2.494 6.627,2.681 6.472,2.69 C 6.341,2.698 6.299,2.683 6.218,2.598 6.074,2.446 6.058,2.337 6.167,2.258 6.217,2.222 6.259,2.192 6.26,2.192 6.262,2.191 6.351,2.217 6.458,2.249 m -14.525,-0.332 -0.141,0.121 0.02,0.301 c 0.01,0.165 0.043,0.366 0.073,0.446 0.031,0.079 0.055,0.261 0.054,0.404 -10e-4,0.142 0.023,0.329 0.052,0.415 0.029,0.084 0.076,0.402 0.106,0.705 0.029,0.303 0.069,0.592 0.089,0.642 0.019,0.05 0.034,0.184 0.032,0.297 -0.001,0.112 0.029,0.31 0.066,0.44 0.043,0.15 0.067,0.36 0.067,0.577 -0.001,0.187 0.016,0.397 0.037,0.466 0.021,0.07 0.037,0.164 0.037,0.211 -10e-4,0.089 0.128,0.295 0.185,0.296 0.018,0 0.094,-0.087 0.169,-0.193 C -7.146,6.939 -6.996,6.77 -6.887,6.67 -6.406,6.226 -6.428,6.265 -6.584,6.119 -6.641,6.065 -6.705,6.02 -6.726,6.02 -6.747,6.02 -6.809,5.974 -6.863,5.918 -6.946,5.833 -6.963,5.783 -6.962,5.62 -6.962,5.512 -6.988,5.359 -7.02,5.279 -7.071,5.148 -7.125,4.662 -7.144,4.144 -7.148,4.035 -7.167,3.922 -7.187,3.892 -7.206,3.862 -7.229,3.602 -7.237,3.314 -7.246,3.026 -7.269,2.766 -7.288,2.737 -7.307,2.708 -7.324,2.62 -7.325,2.54 -7.331,2.248 -7.395,1.982 -7.483,1.891 -7.552,1.818 -7.606,1.8 -7.749,1.798 c -0.15,-0.001 -0.2,0.017 -0.318,0.119 m -10.959,0.492 c -0.183,0.048 -0.277,0.185 -0.279,0.403 -0.002,0.167 0.01,0.193 0.127,0.285 0.075,0.059 0.195,0.109 0.289,0.123 0.134,0.018 0.182,0.006 0.289,-0.069 0.276,-0.194 0.334,-0.385 0.175,-0.571 -0.17,-0.198 -0.331,-0.244 -0.601,-0.171 M 23.502,2.983 C 23.389,3.078 23.366,3.12 23.365,3.24 23.363,3.446 23.481,3.596 23.738,3.712 24.079,3.867 24.218,3.846 24.346,3.62 24.517,3.319 24.509,3.196 24.304,2.994 24.191,2.881 24.17,2.875 23.912,2.873 23.658,2.871 23.629,2.878 23.502,2.983 m -44.553,0.039 c -0.242,0.059 -0.382,0.304 -0.311,0.544 0.064,0.217 0.101,0.238 0.42,0.242 0.358,0.003 0.427,-0.057 0.43,-0.372 0.002,-0.177 -0.011,-0.218 -0.1,-0.3 -0.103,-0.096 -0.303,-0.148 -0.439,-0.114 m -1.524,0.463 c -0.248,0.233 -0.208,0.403 0.159,0.677 0.157,0.117 0.252,0.104 0.431,-0.06 0.277,-0.252 0.288,-0.412 0.044,-0.627 -0.121,-0.107 -0.173,-0.129 -0.314,-0.131 -0.146,-10e-4 -0.188,0.017 -0.32,0.141 m 4.839,0.019 c -0.114,0.038 -0.393,0.105 -0.621,0.149 -0.525,0.101 -1.341,0.285 -1.561,0.352 -0.093,0.028 -0.262,0.072 -0.376,0.097 -0.209,0.047 -0.316,0.078 -0.659,0.193 -0.103,0.035 -0.357,0.105 -0.564,0.156 -0.207,0.051 -0.448,0.122 -0.537,0.159 -0.089,0.037 -0.193,0.067 -0.233,0.066 -0.039,0 -0.128,0.03 -0.196,0.066 -0.069,0.037 -0.233,0.077 -0.366,0.089 -0.277,0.025 -0.484,0.123 -0.601,0.284 -0.1,0.136 -0.102,0.243 -0.01,0.431 0.039,0.08 0.071,0.174 0.072,0.208 0,0.035 0.034,0.092 0.075,0.126 0.041,0.035 0.074,0.078 0.073,0.097 0,0.043 0.174,0.296 0.277,0.402 0.135,0.14 0.415,0.274 0.573,0.276 0.093,0.002 0.175,0.026 0.215,0.065 0.045,0.044 0.146,0.07 0.326,0.085 l 0.262,0.02 0.102,0.181 c 0.056,0.1 0.103,0.23 0.104,0.289 0.001,0.06 0.027,0.157 0.059,0.217 0.031,0.059 0.079,0.205 0.107,0.325 0.105,0.451 0.18,0.702 0.225,0.745 0.065,0.064 0.059,0.092 -0.054,0.231 -0.06,0.075 -0.132,0.122 -0.183,0.122 -0.125,-0.001 -0.33,-0.076 -0.395,-0.143 -0.128,-0.135 -0.298,-0.224 -0.427,-0.226 -0.179,-0.001 -0.407,0.126 -0.493,0.274 -0.067,0.117 -0.067,0.124 0.011,0.282 0.051,0.104 0.117,0.177 0.183,0.202 0.155,0.059 0.552,0.029 0.644,-0.049 0.065,-0.055 0.113,-0.061 0.321,-0.037 0.134,0.015 0.253,0.041 0.262,0.056 0.011,0.017 0.094,0.041 0.184,0.056 0.092,0.013 0.175,0.047 0.186,0.075 0.011,0.028 0.079,0.062 0.151,0.076 0.072,0.014 0.151,0.048 0.174,0.076 0.024,0.027 0.092,0.051 0.15,0.051 0.083,10e-4 0.122,-0.025 0.171,-0.114 0.056,-0.101 0.058,-0.143 0.018,-0.35 C -20.112,9.034 -20.163,8.868 -20.2,8.793 -20.238,8.72 -20.268,8.597 -20.268,8.52 -20.266,8.431 -20.293,8.349 -20.34,8.296 -20.381,8.25 -20.414,8.175 -20.413,8.13 c 0,-0.045 -0.025,-0.107 -0.057,-0.138 -0.031,-0.031 -0.074,-0.158 -0.096,-0.283 -0.021,-0.124 -0.059,-0.258 -0.084,-0.298 -0.026,-0.04 -0.057,-0.148 -0.069,-0.241 -0.012,-0.092 -0.047,-0.188 -0.077,-0.212 -0.03,-0.024 -0.053,-0.095 -0.053,-0.158 0.001,-0.063 -0.029,-0.174 -0.067,-0.246 -0.038,-0.073 -0.079,-0.219 -0.092,-0.324 -0.013,-0.105 -0.046,-0.224 -0.072,-0.264 -0.026,-0.039 -0.059,-0.153 -0.073,-0.252 -0.014,-0.1 -0.05,-0.218 -0.079,-0.263 -0.049,-0.075 -0.047,-0.093 0.022,-0.183 0.111,-0.147 0.437,-0.252 0.769,-0.249 0.258,10e-4 0.272,0.007 0.364,0.121 0.056,0.068 0.107,0.19 0.121,0.289 0.014,0.094 0.049,0.216 0.078,0.271 0.029,0.054 0.051,0.191 0.05,0.303 -0.002,0.191 -0.011,0.212 -0.136,0.308 -0.124,0.097 -0.131,0.112 -0.09,0.2 0.042,0.091 0.213,0.169 0.373,0.171 0.034,10e-4 0.101,0.031 0.15,0.069 0.049,0.037 0.125,0.079 0.17,0.093 0.044,0.014 0.144,0.083 0.222,0.153 0.164,0.147 0.265,0.15 0.348,0.012 0.052,-0.087 0.051,-0.114 -0.005,-0.27 -0.035,-0.096 -0.062,-0.246 -0.061,-0.333 10e-4,-0.088 -0.021,-0.185 -0.05,-0.217 -0.028,-0.031 -0.068,-0.13 -0.088,-0.22 -0.021,-0.089 -0.062,-0.227 -0.093,-0.306 -0.031,-0.08 -0.056,-0.21 -0.056,-0.29 0,-0.081 -0.033,-0.21 -0.073,-0.288 -0.107,-0.205 -0.093,-0.331 0.041,-0.391 0.031,-0.013 0.099,-0.048 0.151,-0.076 0.052,-0.028 0.162,-0.051 0.244,-0.051 0.083,0 0.223,-0.03 0.313,-0.069 0.089,-0.037 0.269,-0.078 0.4,-0.089 0.232,-0.021 0.239,-0.018 0.342,0.095 0.065,0.072 0.124,0.196 0.153,0.322 0.025,0.112 0.055,0.24 0.067,0.285 0.036,0.137 -0.024,0.318 -0.141,0.426 -0.206,0.19 -0.12,0.445 0.15,0.447 0.117,0.002 0.433,0.128 0.517,0.207 0.225,0.213 0.366,0.269 0.504,0.2 0.109,-0.055 0.144,-0.204 0.076,-0.324 -0.028,-0.049 -0.074,-0.188 -0.102,-0.307 -0.028,-0.119 -0.084,-0.331 -0.125,-0.471 -0.04,-0.141 -0.1,-0.385 -0.132,-0.542 -0.032,-0.157 -0.089,-0.382 -0.127,-0.499 -0.039,-0.118 -0.07,-0.245 -0.069,-0.282 0,-0.038 -0.035,-0.15 -0.078,-0.249 -0.126,-0.289 -0.312,-0.345 -0.703,-0.213 m -4.216,2.201 c 0.128,0.111 0.131,0.224 0.006,0.277 -0.079,0.034 -0.125,0.026 -0.281,-0.048 -0.156,-0.075 -0.184,-0.103 -0.176,-0.179 0.01,-0.086 0.077,-0.115 0.311,-0.135 0.021,-0.001 0.084,0.036 0.14,0.085 M 5.178,4.172 C 4.968,4.243 4.891,4.346 4.874,4.579 4.856,4.821 4.879,4.859 5.136,4.999 l 0.183,0.1 0.173,-0.078 C 5.732,4.915 5.839,4.799 5.847,4.638 5.856,4.464 5.728,4.286 5.527,4.196 5.351,4.118 5.341,4.117 5.178,4.172 M 4.996,5.412 C 4.896,5.449 4.738,5.671 4.739,5.774 4.74,5.967 5.026,6.283 5.203,6.285 5.291,6.285 5.53,6.161 5.62,6.067 5.783,5.898 5.747,5.621 5.543,5.463 5.442,5.386 5.143,5.357 4.996,5.412 m -27.463,1.961 c -0.267,0.051 -0.407,0.263 -0.34,0.513 0.082,0.304 0.326,0.478 0.557,0.397 0.146,-0.052 0.414,-0.323 0.415,-0.419 0.002,-0.112 -0.14,-0.377 -0.201,-0.377 -0.026,-0.001 -0.067,-0.024 -0.091,-0.052 -0.05,-0.059 -0.206,-0.087 -0.34,-0.062"
             style="fill:#c09300;fill-opacity:1;fill-rule:nonzero;stroke:none"
             id="path292" /></g><g
           id="g294"
           transform="translate(156.1552,173.4527)"><path
             d="M 0,0 C 0.333,-0.02 -0.451,1.784 -0.451,1.784 0.432,0.882 3.764,0.666 3.764,0.666 1.765,1.549 -0.235,8.214 0,13.527 c 0.216,5.332 -0.764,7.43 -1.548,8.214 -1,1 -4.215,1.882 -6.332,1.999 -1.196,0.059 -1,-0.902 -1,-0.902 -2.215,0.569 -4.43,0.785 -5.431,0.118 -0.94,-0.627 -1.137,-3.764 -0.451,-3.215 1.667,1.333 3.117,0.118 4.117,-1.333 0.882,-1.274 0.824,-4.881 -0.451,-9.096 -1.333,-4.43 -4.979,-8.861 -4.979,-8.861 1.98,0 4.764,1.764 4.764,1.764 l -0.666,-2.764 c 2.097,1 3.763,2.548 3.763,2.548 l 2,-2.097 c 0.666,0.882 1.999,2.097 1.999,2.097 0,0 1.667,-1.764 4.215,-1.999"
             style="fill:#ffffff;fill-opacity:1;fill-rule:nonzero;stroke:none"
             id="path296" /></g><g
           id="g298"
           transform="translate(156.1552,173.4527)"><path
             d="M 0,0 C 0.333,-0.02 -0.451,1.784 -0.451,1.784 0.432,0.882 3.764,0.666 3.764,0.666 1.765,1.549 -0.235,8.214 0,13.527 c 0.216,5.332 -0.764,7.43 -1.548,8.214 -1,1 -4.215,1.882 -6.332,1.999 -1.196,0.059 -1,-0.902 -1,-0.902 -2.215,0.569 -4.43,0.785 -5.431,0.118 -0.94,-0.627 -1.137,-3.764 -0.451,-3.215 1.667,1.333 3.117,0.118 4.117,-1.333 0.882,-1.274 0.824,-4.881 -0.451,-9.096 -1.333,-4.43 -4.979,-8.861 -4.979,-8.861 1.98,0 4.764,1.764 4.764,1.764 l -0.666,-2.764 c 2.097,1 3.763,2.548 3.763,2.548 l 2,-2.097 c 0.666,0.882 1.999,2.097 1.999,2.097 0,0 1.667,-1.764 4.215,-1.999 z"
             style="fill:none;stroke:#c09300;stroke-width:0.635;stroke-linecap:butt;stroke-linejoin:miter;stroke-miterlimit:4;stroke-dasharray:none;stroke-opacity:1"
             id="path300" /></g><g
           id="g302"
           transform="translate(148.0591,186.2148)"><path
             d="M 0,0 C 0,0 -1.118,-8.214 -3.215,-10.547"
             style="fill:none;stroke:#c09300;stroke-width:0.635;stroke-linecap:butt;stroke-linejoin:miter;stroke-miterlimit:4;stroke-dasharray:none;stroke-opacity:1"
             id="path304" /></g><g
           id="g306"
           transform="translate(149.8237,186.4306)"><path
             d="M 0,0 C 0,0 -0.431,-8.312 -1.882,-10.978"
             style="fill:none;stroke:#c09300;stroke-width:0.635;stroke-linecap:butt;stroke-linejoin:miter;stroke-miterlimit:4;stroke-dasharray:none;stroke-opacity:1"
             id="path308" /></g><g
           id="g310"
           transform="translate(151.3916,186.0971)"><path
             d="M 0,0 C 0,0 0,-9.096 0.549,-10.644"
             style="fill:none;stroke:#c09300;stroke-width:0.635;stroke-linecap:butt;stroke-linejoin:miter;stroke-miterlimit:4;stroke-dasharray:none;stroke-opacity:1"
             id="path312" /></g><g
           id="g314"
           transform="translate(153.372,185.646)"><path
             d="M 0,0 C 0,0 0.451,-7.645 2.333,-10.41"
             style="fill:none;stroke:#c09300;stroke-width:0.635;stroke-linecap:butt;stroke-linejoin:miter;stroke-miterlimit:4;stroke-dasharray:none;stroke-opacity:1"
             id="path316" /></g><g
           id="g318"
           transform="translate(146.04,190.1938)"><path
             d="m 0,0 c -0.098,0.726 -0.274,1.294 -0.529,1.667 -1,1.45 -2.451,2.665 -4.117,1.332 0,0 0.568,1.765 1.784,1.824 0.941,0.058 3.078,-0.706 4.96,-3.921 0,0 -1.392,0.314 -1.725,0.019 C -0.255,0.373 0,0 0,0"
             style="fill:#c09300;fill-opacity:1;fill-rule:nonzero;stroke:none"
             id="path320" /></g><g
           id="g322"
           transform="translate(146.04,190.1938)"><path
             d="m 0,0 c -0.098,0.726 -0.274,1.294 -0.529,1.667 -1,1.45 -2.451,2.665 -4.117,1.332 0,0 0.568,1.765 1.784,1.824 0.941,0.058 3.078,-0.706 4.96,-3.921 0,0 -1.392,0.314 -1.725,0.019 C -0.255,0.373 0,0 0,0 Z"
             style="fill:none;stroke:#c09300;stroke-width:0.635;stroke-linecap:butt;stroke-linejoin:miter;stroke-miterlimit:4;stroke-dasharray:none;stroke-opacity:1"
             id="path324" /></g><g
           id="g326"
           transform="translate(141.2177,195.3696)"><path
             d="m 0,0 c 0.137,0.451 0.353,0.863 0.627,1.039 1,0.667 3.215,0.451 5.43,-0.118 0,0 -0.196,0.961 1,0.902 2.117,-0.117 5.333,-1 6.332,-1.999 0.235,-0.255 0.51,-0.628 0.745,-1.196 h -0.039 c -0.49,0.686 -1.882,0.646 -2.216,0.607 C 11.35,-0.823 11.017,-0.804 10.311,-0.98 9.978,-1.059 9.468,-1.157 9.194,-1.372 8.978,-1.549 8.802,-2.196 8.468,-2.196 c -0.529,0 -0.49,0.137 -0.627,0.295 C 7.665,-1.686 7.566,-1.372 7.39,-1.392 6.841,-1.49 5.959,-1.059 4.842,-0.176 3.725,0.706 3.293,0.921 1.842,0.823 0.411,0.706 -0.04,-0.098 -0.04,-0.098 Z"
             style="fill:#c09300;fill-opacity:1;fill-rule:nonzero;stroke:none"
             id="path328" /></g><g
           id="g330"
           transform="translate(141.2177,195.3696)"><path
             d="m 0,0 c 0.137,0.451 0.353,0.863 0.627,1.039 1,0.667 3.215,0.451 5.43,-0.118 0,0 -0.196,0.961 1,0.902 2.117,-0.117 5.333,-1 6.332,-1.999 0.235,-0.255 0.51,-0.628 0.745,-1.196 h -0.039 c -0.49,0.686 -1.882,0.646 -2.216,0.607 C 11.35,-0.823 11.017,-0.804 10.311,-0.98 9.978,-1.059 9.468,-1.157 9.194,-1.372 8.978,-1.549 8.802,-2.196 8.468,-2.196 c -0.529,0 -0.49,0.137 -0.627,0.295 C 7.665,-1.686 7.566,-1.372 7.39,-1.392 6.841,-1.49 5.959,-1.059 4.842,-0.176 3.725,0.706 3.293,0.921 1.842,0.823 0.411,0.706 -0.04,-0.098 -0.04,-0.098 L 0,0 Z"
             style="fill:none;stroke:#c09300;stroke-width:0.635;stroke-linecap:butt;stroke-linejoin:miter;stroke-miterlimit:4;stroke-dasharray:none;stroke-opacity:1"
             id="path332" /></g><g
           id="g334"
           transform="translate(149.4116,194.0757)"><path
             d="M 0,0 C 0.334,0 0.588,0.255 0.588,0.588 0.588,0.921 0.334,1.176 0,1.176 -0.313,1.176 -0.588,0.921 -0.588,0.588 -0.588,0.255 -0.313,0 0,0"
             style="fill:#ffffff;fill-opacity:1;fill-rule:nonzero;stroke:none"
             id="path336" /></g><g
           id="g338"
           transform="translate(163.6098,165.98)"><path
             d="m 0,0 c -0.141,-0.009 -0.282,-0.013 -0.424,-0.013 -3.103,0 -10.309,1.592 -13.087,3.978 -2.91,-2.204 -10.236,-3.978 -13.288,-3.978 -0.143,0 -0.285,0.017 -0.425,0.043 -0.007,-0.696 0.029,-1.416 0.072,-2.072 0.161,-2.45 0.591,-4.909 1.244,-7.276 2.054,-7.447 6.258,-13.776 12.286,-18.578 6.033,4.806 10.242,11.141 12.3,18.594 0.654,2.365 1.085,4.824 1.248,7.275 C -0.031,-1.385 0.004,-0.682 0,0 Z"
             style="fill:none;stroke:#c09300;stroke-width:0.458;stroke-linecap:butt;stroke-linejoin:miter;stroke-miterlimit:4;stroke-dasharray:none;stroke-opacity:1"
             id="path340" /></g></g></g></g></svg>
