<?xml version="1.0" encoding="UTF-8" standalone="no"?>
<svg
   xmlns:dc="http://purl.org/dc/elements/1.1/"
   xmlns:cc="http://creativecommons.org/ns#"
   xmlns:rdf="http://www.w3.org/1999/02/22-rdf-syntax-ns#"
   xmlns:svg="http://www.w3.org/2000/svg"
   xmlns="http://www.w3.org/2000/svg"
   xmlns:sodipodi="http://sodipodi.sourceforge.net/DTD/sodipodi-0.dtd"
   xmlns:inkscape="http://www.inkscape.org/namespaces/inkscape"
   version="1.1"
   id="svg2"
   xml:space="preserve"
   width="400"
   height="400"
   viewBox="0 0 400 400"
   sodipodi:docname="saudi-arabia-flag-round.eps"><metadata
     id="metadata8"><rdf:RDF><cc:Work
         rdf:about=""><dc:format>image/svg+xml</dc:format><dc:type
           rdf:resource="http://purl.org/dc/dcmitype/StillImage" /></cc:Work></rdf:RDF></metadata><defs
     id="defs6"><clipPath
       clipPathUnits="userSpaceOnUse"
       id="clipPath20"><path
         d="M 3000,1500 C 3000,671.57 2328.43,0 1500,0 671.574,0 0,671.57 0,1500 c 0,828.43 671.574,1500 1500,1500 828.43,0 1500,-671.57 1500,-1500 z"
         id="path18" /></clipPath></defs><sodipodi:namedview
     pagecolor="#ffffff"
     bordercolor="#666666"
     borderopacity="1"
     objecttolerance="10"
     gridtolerance="10"
     guidetolerance="10"
     inkscape:pageopacity="0"
     inkscape:pageshadow="2"
     inkscape:window-width="640"
     inkscape:window-height="480"
     id="namedview4" /><g
     id="g10"
     inkscape:groupmode="layer"
     inkscape:label="ink_ext_XXXXXX"
     transform="matrix(1.3333333,0,0,-1.3333333,0,400)"><g
       id="g12"
       transform="scale(0.1)"><g
         id="g14"><g
           id="g16"
           clip-path="url(#clipPath20)"><path
             d="M -750,3000 H 3750 V 0 H -750 v 3000"
             style="fill:#206a33;fill-opacity:1;fill-rule:nonzero;stroke:none"
             id="path22" /><path
             d="m 2081.2,802.988 c 0.07,0.032 0.13,-0.039 0.19,0 54.79,-2.679 106.27,-0.519 161.07,-3.187 8.68,-7.379 4.33,-24.289 -1.31,-27.379 -0.26,-0.133 -0.69,-0.313 -0.94,-0.371 -0.21,-0.051 -0.55,0 -0.75,0 -0.21,0 -0.55,-0.051 -0.75,0 -17.82,0.437 -28.13,0.859 -45.94,1.308 -0.03,0.891 -0.13,1.84 -0.37,2.629 -4.23,12.512 -34.81,11.672 -42,1.871 -0.1,-0.14 -0.29,-0.418 -0.38,-0.558 -0.12,-0.199 -0.28,-0.551 -0.37,-0.75 -0.12,-0.262 -0.3,-0.68 -0.38,-0.942 -0.12,-0.371 -0.14,-0.918 -0.19,-1.308 -0.05,-0.449 -0.22,-1.031 -0.18,-1.5 -24.06,-2.903 -45.7,0.801 -69.75,1.687 -7.06,8.782 -6.24,24.684 2.06,28.5 z m -25.5,135.563 c -0.04,-0.02 -0.14,-0.16 -0.18,-0.192 -35.57,-9.129 -34.46,-46.05 -11.63,-62.25 -375.56,0 -951.9,6.379 -1075.495,6.379 -69.153,0 -287.922,8.25 -292.129,8.25 46.918,-68.629 114.882,-82.597 203.812,-84 166.812,0 939.722,2.063 1159.682,2.063 -15.64,-27.77 1.42,-72.449 13.69,-80.629 0.26,-0.172 0.68,-0.434 0.93,-0.563 0.46,-0.23 1.07,-0.449 1.51,-0.558 0.14,-0.039 0.41,0.019 0.56,0 14.56,-3.442 20.97,7.109 25.87,14.808 23.62,-2.078 156.58,-4.007 168.75,0.192 0.04,0.019 0.15,0.168 0.19,0.179 8.23,-12.109 16.4,-23.55 32.06,-21.558 27.41,5.879 49,8.859 49.69,64.5 0,0 -2.81,94.808 -65.07,88.867 -14.73,-2.219 -56.06,-6.367 -56.06,-6.367 -47.83,5.687 -82.91,6.269 -136.68,8.25 4.96,6.297 13.72,31.816 3,41.058 -2.8,2.329 -6.98,3.622 -12.75,3.192 -0.05,-0.012 -0.15,0 -0.19,0 -0.08,0 -0.3,-0.012 -0.38,0 -0.04,0.008 -0.15,0.168 -0.18,0.187 -0.16,0.051 -0.42,0.09 -0.57,0.18 -0.29,0.199 -0.67,0.621 -0.93,0.941 -0.07,0.079 -0.31,0.282 -0.38,0.379 -2.72,3.961 -4.21,13.661 -6,16.121 -0.02,0.02 -0.17,0.161 -0.19,0.192 -0.02,0.019 -0.16,0.168 -0.18,0.187 -0.07,0.039 -0.31,0.161 -0.38,0.18 -0.02,0 -0.16,0 -0.18,0 -0.03,0 -0.17,0.012 -0.19,0 z m 321.24,650.399 c -4.45,-0.14 -9.14,-0.76 -15.93,-1.32 -7.35,-1.56 -9.91,-4.77 -11.25,-13.68 0.52,-13.51 8.78,-12.84 17.25,-18.19 4.89,-6.24 8.08,-11.88 -0.38,-22.12 -8.02,-7.35 -13.73,-11.4 -21.75,-18.75 -3.78,-6.46 -6.14,-16.38 5.44,-19.5 21.39,-6.01 70.87,26.14 70.87,26.81 8.02,6.01 5.36,17.44 4.69,17.44 -4.67,5.34 -15.22,2.13 -22.31,3 -3.38,0 -14.46,1.63 -9.19,11.43 4.4,6.1 6.02,9.74 9,17.25 3.34,7.35 0.41,12.3 -11.62,16.32 -6.13,1.11 -10.36,1.45 -14.82,1.31 z m -768.96,28.68 c -2.62,0.14 -5.41,-0.27 -8.25,-1.68 -0.55,0 -25.23,-16.69 -33.18,-28.32 -4.85,-3.68 -4.3,-6.89 -2.81,-13.31 3.78,-8.69 10.43,-5.96 18,-1.87 10.03,1.37 14.88,-5.21 14.06,-17.25 -4.63,-15.02 2.06,-20.62 2.06,-21.57 0,-0.94 9.66,-9.23 21,-2.62 23.94,9.14 38.85,18.03 72.37,25.31 8.8,0.18 8.29,23.72 -5.62,24.56 -18.15,-0.91 -34.91,-1.84 -53.07,-16.12 -11.16,-2.58 -13.08,4.22 -15.56,10.31 -2.83,15.13 6.39,25.79 4.5,37.13 0.51,-0.5 -5.63,5.01 -13.5,5.43 z m -1200.953,73.74 c -1.496,-0.04 -4.476,-4.5 -8.437,-9.56 -35.25,-56.16 -38.387,-139.99 -18.938,-165 10.336,-11.81 27.375,-17.01 39.938,-13.31 22.148,9.6 31.883,54.46 26.625,70.87 -7.391,11.57 -13.246,13.4 -20.625,3.57 -15.586,-31.65 -22.074,-10 -23.438,7.68 -2.39,33.54 0.86,64.42 4.5,88.87 1.942,12.54 1.868,16.92 0.375,16.88 z m 935.633,40.69 c 0.71,0.05 1.33,0 2.07,0 0.12,0 0.25,0 0.37,0 23.88,-6.49 59.08,-7.16 89.63,-10.31 24.89,-1.58 37.19,-21.06 13.88,-29.25 -23,-7.88 -45.09,-14.02 -45.19,-47.25 3.02,-16.46 2.38,-25.1 -0.19,-29.06 -0.2,-0.3 -0.52,-0.7 -0.75,-0.94 -0.03,-0.04 -0.16,-0.15 -0.19,-0.19 -0.03,-0.03 -0.15,-0.15 -0.18,-0.19 -0.04,-0.03 -0.15,-0.16 -0.19,-0.18 l -0.19,-0.19 c -0.06,-0.03 -0.31,-0.15 -0.37,-0.19 -0.34,-0.2 -0.76,-0.43 -1.13,-0.56 -0.32,-0.11 -0.78,-0.13 -1.12,-0.18 -5.47,-0.81 -13.41,4.4 -19.32,7.5 -14.17,10.17 -53.95,34.82 -59.62,87.75 -0.81,11.93 8.13,22.23 22.5,23.25 z m -383.058,52.31 c -9.309,-0.65 -17.618,-5.62 -13.875,-18.75 -0.563,-9.51 26.316,-21.09 27.937,-43.12 3.844,-9.08 -5.742,-38.17 2.25,-40.88 7.344,-3.02 17.531,20.11 21.375,41.63 2.125,11.79 -9.219,53.01 -28.5,60.37 -2.961,0.64 -6.082,0.97 -9.187,0.75 z m 1279.858,57.75 c -10.54,-1.29 -20.55,-11.26 -15.94,-27.18 -2.89,-9.36 14.3,-42.07 18.75,-59.44 4.02,-12.36 -5.16,-47.32 3.19,-51 7.69,-4.12 27.9,20.76 27.19,51.94 2.22,16.03 -5.72,75.1 -25.88,85.13 -2.31,0.64 -4.88,0.86 -7.31,0.56 z m -1506.956,23.59 c 5.809,-0.07 11.934,-2.94 15.187,-11.07 2.922,-7.45 0.133,-15.25 -3.375,-19.12 -0.015,-0.04 0.02,-0.16 0,-0.19 -0.058,-0.09 -0.128,-0.3 -0.187,-0.37 -2.492,-3.21 -11.223,-1.88 -17.438,-1.88 -7.523,0.33 -11.23,1.57 -15.75,7.69 -2.164,6.8 4.414,13.49 7.313,18.56 0.027,0.05 0.156,0.14 0.187,0.19 0.313,0.47 0.825,1.04 1.313,1.5 2.25,2.06 6.141,3.98 10.312,4.5 0.809,0.1 1.606,0.19 2.438,0.19 z m -192,26.62 c -59.258,-1.08 -146.027,-77.67 -148.313,-120.19 62.528,30.03 123.938,58.93 187.5,90 -10.257,15.32 -0.628,29.11 -39.187,30.19 z m 1001.456,20.63 c 4.67,0.49 10.79,-1.09 16.69,-4.5 8.53,-4.94 13.8,-12.4 13.12,-17.82 -0.02,-0.14 0.03,-0.42 0,-0.56 -0.03,-0.14 -0.33,-0.43 -0.37,-0.56 -0.05,-0.14 -0.13,-0.43 -0.19,-0.56 -0.04,-0.09 -0.14,-0.29 -0.19,-0.38 -0.04,-0.09 -0.13,-0.29 -0.18,-0.37 -0.28,-0.46 -0.74,-0.94 -1.13,-1.32 -4.1,-3.83 -13.57,-3.28 -22.5,1.88 -8.46,4.89 -13.68,12.4 -13.12,17.81 0.02,0.15 0.16,0.42 0.18,0.56 0.15,0.67 0.41,1.29 0.75,1.88 0.12,0.21 0.24,0.56 0.38,0.75 0.03,0.03 0.15,0.15 0.18,0.19 0.26,0.29 0.64,0.68 0.94,0.93 1.37,1.07 3.29,1.84 5.44,2.07 z m 719.76,12.06 c -0.62,0.11 -1.33,0.07 -2.06,-0.19 0,0 -114.36,-81.35 -117.19,-84.19 -11.34,-10.08 -5.66,-45.53 0,-41.44 8.2,-3.15 123.33,74.87 121.13,84 5.02,-0.29 7.43,40.14 -1.88,41.82 z m -827.82,33.93 c -4.45,-0.77 -8.75,-4.44 -10.31,-10.5 -0.98,-3.96 1.9,-10.57 -1.69,-12.56 -2.06,-2.08 -10.08,-0.87 -9.75,10.13 0,3.49 -2.57,7.34 -4.12,9.56 -1.56,1.02 -2.43,1.31 -5.25,1.31 -3.44,-0.14 -3.56,-1.05 -5.44,-3.94 -0.8,-2.94 -1.88,-5.84 -1.88,-9.18 -0.42,-3.92 -1.81,-5.24 -4.68,-5.82 -3.22,0 -2.46,-0.35 -5.07,1.32 -1.54,1.69 -3.56,2.36 -3.56,5.25 0,2.99 -0.6,7.77 -1.5,9.75 -1.36,1.79 -3.71,2.55 -6.19,3.18 -13.48,-0.04 -14.27,-15.35 -13.5,-21.18 -1,-1.11 -1.7,-28.75 16.69,-36.38 24.68,-11.77 83.5,-4.84 69.19,33.19 0,3.52 -0.96,15.34 -1.31,18.56 -2.52,5.87 -7.18,8.09 -11.63,7.31 z m -205.12,32.25 c -0.33,-0.11 -0.65,-0.39 -0.94,-0.56 -0.15,-0.09 -0.42,-0.27 -0.56,-0.37 -2.42,-1.81 -5.27,-6 -11.63,-10.5 -10.73,-12.22 -12.66,-20.72 -12,-45.19 0.61,-2.59 20.38,-57.55 37.13,-96.19 11.29,-40.15 21.73,-86.13 14.06,-129.56 -26.44,-57.41 -79.58,-108.9 -130.88,-136.88 -26.13,-8.36 -48.7,-5.52 -54.75,0.19 -0.04,0.05 -0.14,0.15 -0.18,0.19 -15.01,10.09 -15.36,28.05 -14.44,31.12 0,0.02 0,0.17 0,0.19 0.04,0.04 0.16,0.16 0.19,0.19 43.28,30.14 92.72,54.55 131.43,135.94 11.43,31.1 14.92,49.78 3.57,97.86 -4.43,17.93 -9.9,32.68 -22.13,45.38 0.03,0.04 0.16,0.16 0.19,0.19 7.36,3.52 26.48,-10.56 29.44,-1.69 -4.53,22.96 -20.08,53.79 -37.69,69.57 -15.42,14 -32.2,15.63 -46.31,2.81 -15.91,-8.85 -19.29,-40.63 -11.63,-68.44 8.5,-20.93 31.46,-24.61 47.81,-66.75 0,-0.04 0,-0.17 0,-0.18 0.34,-2.65 5.62,-31.46 -2.62,-43.13 -6.69,-20.85 -92.55,-88.55 -98.63,-92.63 -0.07,-0.06 -0.5,-0.31 -0.56,-0.38 -0.04,-0.03 -0.16,-0.15 -0.19,-0.18 -0.01,-0.01 -0.15,-0.15 -0.18,-0.18 -0.02,-0.03 -0.17,-0.17 -0.19,-0.19 -0.02,0 -0.17,-0.01 -0.19,0 0,0 -0.15,0 -0.19,0 -0.03,0.03 -0.15,0.15 -0.18,0.19 0,0.01 0,0.17 0,0.18 -0.04,0.07 -0.16,0.31 -0.19,0.38 -0.26,1.69 0.19,5.99 0,12.93 -0.56,12.69 4.69,41.39 4.31,46.32 0,0.02 0,0.16 0,0.18 -0.04,0.04 -0.15,0.16 -0.19,0.19 0,0.02 0,0.17 0,0.18 -0.04,0 -0.18,0 -0.18,0 -28.38,-18.32 -37.76,-74.49 -42.94,-91.12 -71.852,-49.65 -153.442,-86.58 -200.434,-136.88 -24.472,-38.22 168.621,43.9 191.063,53.82 0.191,-0.14 0.386,-0.38 0.562,-0.57 4.269,-4.69 4.629,-21.05 17.439,-35.81 20.07,-27.18 62.73,-43.93 104.25,-33.56 69.61,25.17 109.72,72.61 150.56,125.25 5.84,8.49 14.98,15.18 23.44,8.63 28.06,-62.82 108.97,-107.53 213.56,-112.13 24.21,29.43 12.63,43.9 2.81,50.06 -3.02,2.01 -52.02,21.11 -59.62,40.13 -4.79,17.69 6.85,33.38 30.19,45.18 67.16,8.13 133.17,17.15 197.06,37.69 0.65,21.47 13.29,53.56 21.75,67.5 5.88,9.68 9.65,10.63 11.06,12 0.05,0.05 0.15,0.14 0.19,0.19 0.02,0.02 0.17,0.16 0.19,0.19 0.03,0.03 0.15,0.15 0.18,0.18 0,0.07 0,0.31 0,0.38 0.04,0.42 0,1.15 -0.18,1.87 l -10.88,6.38 -214.31,0.94 c -2.65,1.02 -4.62,2.04 -5.81,3 -0.1,0.07 -0.3,0.3 -0.38,0.37 -0.03,0.04 -0.15,0.15 -0.19,0.19 -0.03,0.03 -0.15,0.15 -0.18,0.19 -0.03,0.06 -0.16,0.3 -0.19,0.37 -0.02,0.02 -0.17,0.17 -0.19,0.19 0,0.02 0,0.16 0,0.18 -0.02,0.02 -0.16,0.17 -0.19,0.19 0,0.02 0,0.17 0,0.19 0,0.01 0,0.17 0,0.18 0,0.02 0,0.17 0,0.19 0,0.03 0,0.16 0,0.19 0,0 0,0.15 0,0.19 0,0.01 0,0.17 0,0.18 0,0.02 0,0.17 0,0.19 0,0.02 0,0.17 0,0.19 0.04,0.03 0.16,0.15 0.19,0.19 0.05,0.1 0.12,0.27 0.19,0.37 1.05,1.41 3.58,2.74 6.75,3.94 51.17,6.97 142.09,21.88 148.13,109.31 -0.94,45.55 -19.49,75.37 -75.38,83.63 -41.06,-3.17 -70.34,-42.89 -65.62,-86.63 -1.97,-11.77 3.98,-34.88 -8.07,-37.5 -78.77,-7.19 -164.74,-56.55 -167.62,-91.87 -0.02,0 -0.17,0 -0.19,0 -0.03,-0.03 -0.15,-0.15 -0.19,-0.19 -0.06,-0.02 -0.27,-0.14 -0.37,-0.18 -0.07,0 -0.31,-0.01 -0.38,0 -0.12,-0.04 -0.43,-0.16 -0.56,-0.19 -0.04,-0.01 -0.14,0 -0.19,0 -0.1,0 -0.3,0 -0.37,0 -0.04,0 -0.14,0 -0.19,0 -0.08,0 -0.31,-0.01 -0.38,0 -0.2,0.04 -0.57,0.14 -0.75,0.19 -5.12,1.42 -11.71,9.88 -10.68,21.75 -3,61.06 -22.87,130.16 -54,183.37 -11.11,11.11 -15.95,15.61 -19.13,16.12 -0.1,0.01 -0.27,0 -0.37,0 -0.13,0 -0.4,0 -0.57,0 -0.03,0 -0.15,0.01 -0.18,0 -0.02,0 -0.17,0 -0.19,0 -0.02,0 -0.17,0.01 -0.18,0 z m 969.72,80.82 c -12.12,0.59 -25.02,-7.26 -28.32,-23.82 0.05,-9.76 4.41,-15.13 3.56,-24 -1.26,-5.06 -6.48,-8.4 -18.93,-2.43 1.94,1.79 -8.07,15.93 -8.07,15.93 -9.71,5.91 -22.68,-0.32 -31.13,-5.81 -4.64,-8.44 -8.07,-22.91 -2.81,-37.69 13.94,-25.75 61.76,-69.71 84.57,-70.12 0.42,23.22 2.68,54.1 3.94,73.31 0.54,7.25 2.24,15.24 9.19,17.06 6.93,1.81 18.99,-6.98 19.12,0.57 -1.26,14.77 -4.22,36.57 -12.56,46.87 -4.28,6.34 -11.3,9.77 -18.56,10.13 z m -1171.5,5.43 c -3.05,0.31 -7.04,-0.81 -11.63,-3.56 -21.823,-11.8 -30.272,-46.82 -16.686,-67.31 12.686,-18.05 32.766,-11.44 35.436,-11.44 21.38,-2.67 34.13,40.13 34.13,40.13 0,0 0.63,12.03 -24.75,-10.69 -10.69,-2.01 -12.14,1.86 -14.82,7.87 -2.22,11.14 -1.75,22.43 3.38,33.57 2.36,6.68 0.01,10.92 -5.06,11.43 z m 828.71,8.25 c -4.45,-0.77 -8.75,-4.63 -10.31,-10.68 -0.98,-3.97 1.9,-10.38 -1.69,-12.38 -2.06,-2.08 -10.07,-0.87 -9.75,10.13 0,3.5 -2.57,7.34 -4.12,9.56 -1.56,1.03 -2.62,1.31 -5.44,1.31 -3.44,-0.14 -3.36,-1.04 -5.25,-3.94 -0.8,-2.94 -1.88,-5.84 -1.88,-9.18 -0.42,-3.92 -1.8,-5.24 -4.68,-5.82 -3.22,0 -2.65,-0.35 -5.25,1.32 -1.55,1.69 -3.38,2.36 -3.38,5.25 0,2.99 -0.78,7.77 -1.69,9.75 -1.36,1.8 -3.52,2.55 -6,3.18 -13.47,-0.04 -14.27,-15.35 -13.5,-21.18 -1,-1.11 -1.69,-28.75 16.69,-36.38 24.68,-11.76 71.15,-6.6 69.19,33.19 0,3.52 -0.96,15.34 -1.31,18.56 -2.52,5.87 -7.18,8.09 -11.63,7.31 z m -181.5,89.25 c 1.06,-4.7 2.11,-9.43 2.81,-14.25 2.37,-10.39 4.4,-20.71 6.57,-30.93 -9.1,12.53 -16.64,22.66 -19.88,26.25 -20.59,24.47 0.47,16.07 10.5,18.93 z m 787.86,19.5 c -11.53,0.41 -24.09,-8.34 -19.12,-25.5 -2.9,-9.36 24.6,-41.13 29.06,-58.5 4.01,-12.36 -6.1,-52.19 2.25,-55.87 7.69,-4.12 18.49,27.52 22.5,56.81 2.23,16.03 -9.65,72.29 -29.81,82.31 -1.55,0.44 -3.23,0.7 -4.88,0.75 z m -1425,36.94 c 5.76,0.59 12.72,-4.7 16.13,-12.19 3.63,-7.98 1.81,-15.61 -4.13,-17.06 -5.93,-1.45 -13.61,3.83 -17.25,11.81 -3.63,7.98 -1.81,15.8 4.13,17.25 0.37,0.1 0.74,0.15 1.12,0.19 z m 768.19,27 c -12.65,0.38 -26.65,-7.59 -21.19,-23.44 -3.18,-8.64 27.17,-37.95 32.06,-54 8.8,-24.65 -6.73,-48.16 2.44,-51.56 8.42,-3.8 20.15,25.45 24.56,52.5 5.09,21.87 -10.52,66.68 -32.62,75.94 -1.7,0.4 -3.45,0.51 -5.25,0.56 z m -986.041,0.56 c -3.578,-0.45 -7.531,-2.48 -12.192,-3.56 -15.312,-4.87 -29.644,-18.11 -25.125,-43.87 18.102,-110 29.899,-193.95 48,-303.94 2.782,-12.88 -8.015,-29.86 -21.933,-28.13 -23.672,16.02 -29.551,48.45 -69.942,47.07 -29.238,-0.36 -62.582,-32.17 -66.75,-62.82 -4.875,-24.35 -6.605,-50.76 0,-72 20.551,-24.71 45.164,-22.08 66.75,-16.5 17.75,7.31 32.36,24.8 38.625,20.63 0.02,-0.02 0.172,0.02 0.192,0 0.015,-0.03 -0.02,-0.17 0,-0.19 3.871,-6.77 -0.364,-63.98 -83.633,-108.19 -51.164,-22.97 -91.895,-28.46 -113.813,13.32 -13.578,26.1 0.989,125.54 -32.437,102.56 -98.848,-254.8 231.594,-290.37 268.5,-10.5 2.391,7.9 9.676,15.82 14.812,13.88 2.254,-0.96 4.325,-4.03 5.063,-9.75 -7.656,-253.41 -255.633,-270.78 -297.75,-191.07 -10.438,18.79 -13.574,60.62 -14.625,85.69 -1.91,15.16 -5.715,23.91 -10.125,27.37 -10.043,7.56 -23.551,-12.13 -26.438,-46.31 -4.175,-27.5 -3,-35.04 -3,-61.5 13.231,-200.16 332.332,-114.16 384.188,51.19 25.672,85.47 -0.523,149.96 8.062,157.87 0.079,0.06 0.297,0.13 0.375,0.18 0.082,0.06 0.29,0.15 0.375,0.19 0.09,0.04 0.282,0.16 0.375,0.19 0.293,0.08 0.786,0.19 1.125,0.19 31.676,-34.12 76.129,-4.34 85.875,7.5 4.176,5.92 14.629,9.72 21.938,2.06 24.709,-17.76 68.019,-9.39 77.059,21.94 5.22,30.63 9.64,62.16 10.69,94.87 -16.1,-5 -29.08,-8.74 -34.32,-14.25 -1.24,-1.36 -2.16,-2.87 -2.43,-4.5 -1.4,-9.05 -2.73,-18.13 -4.12,-27.19 -0.16,-0.75 -0.4,-1.44 -0.75,-2.06 -0.69,-1.11 -1.83,-2.14 -3,-2.81 -5.69,-3.11 -15.62,-1.33 -16.13,6.94 -7.66,34.81 -39.167,39.33 -58.312,-14.63 -12.886,-10.44 -36.371,-12.47 -38.812,3.19 3.129,36.2 -11.453,41.06 -40.688,24 -9.398,71.71 -18.718,140.16 -28.125,211.87 12.18,0.35 23.356,-8.49 34.5,5.44 -12.058,37.49 -37.562,113.77 -51.937,120.93 -0.117,0.06 -0.266,0.15 -0.375,0.19 -0.656,0.79 -1.426,1.51 -2.063,2.06 -0.269,0.23 -0.671,0.56 -0.937,0.75 -0.266,0.19 -0.68,0.41 -0.938,0.57 -0.582,0.31 -1.3,0.57 -1.875,0.75 -1.312,0.37 -2.585,0.54 -3.937,0.37 z m -252.942,0.38 c -6.968,-0.82 -13.535,-6.49 -16.683,-14.06 -1.168,-26.77 -1.328,-53.52 1.683,-78.19 12.176,-43.27 16.036,-81.32 21.942,-125.63 1.64,-59.35 -34.274,-25.67 -32.625,3.75 8.289,38.22 6.051,98.37 -1.317,113.63 -5.839,15.24 -12.605,19.01 -26.808,16.5 -11.281,0.69 -40.418,-31.06 -48.567,-83.63 0,0 -6.785,-26.98 -9.75,-51 -3.98,-27.15 -21.968,-46.37 -34.5,3.75 -10.832,36.43 -17.488,126.19 -35.625,105.19 -5.195,-70.09 -11.367,-193.41 48.192,-206.07 72.027,-6.92 32.234,121.77 58.308,145.13 4.93,11.55 14.067,11.75 14.817,-2.81 v -109.32 c -0.664,-35.53 22.719,-46.09 40.875,-53.44 18.883,1.46 31.402,0.95 38.808,-17.43 2.957,-63.01 6.047,-126.18 9,-189.18 0,0 43.664,-12.56 45.75,106.31 2.094,69.79 -13.894,128.35 -4.5,141.94 0.336,13.34 17.434,13.99 29.25,7.5 18.828,-13.29 27.176,-29.63 56.442,-23.07 44.519,12.27 71.336,33.88 72,68.07 -2.606,32.49 -6.36,65 -20.442,97.5 1.965,5.9 -8.523,21.28 -6.558,27.18 7.996,-12.53 20.101,-11.49 22.875,0 -7.582,24.98 -19.379,48.9 -38.442,59.25 -15.754,13.89 -38.804,10.95 -47.25,-18 -3.914,-33.35 12.09,-72.88 36.375,-105.18 5.161,-12.63 12.375,-33.61 9.192,-52.5 -12.926,-7.38 -25.742,-4.31 -36.567,7.12 0,0 -35.433,26.53 -35.433,32.44 9.402,60.21 2.019,67.11 -3.192,83.81 -3.64,23.07 -14.57,30.38 -23.433,46.13 -8.867,9.39 -20.899,9.39 -26.625,0 -15.664,-27.16 -8.317,-85.45 3,-111.57 8.172,-24.01 20.711,-39 14.808,-39 -4.859,-13.57 -15,-10.41 -22.308,5.25 -10.446,32.38 -12.567,80.63 -12.567,102.38 -3.132,26.96 -6.625,84.56 -24.375,99.18 -4.73,6.45 -10.324,8.7 -15.75,8.06 z m 1340.823,5.1 c -2.48,-0.25 -5.5,-4.07 -10.13,-13.88 -11.12,-18.22 -18.69,-49.97 -17.81,-79.68 24.11,-166.89 31.49,-312.93 47.25,-479.82 1.28,-16.14 -1.08,-39.59 -11.81,-48.94 -39.69,-41.43 -96.91,-92.54 -159.19,-116.06 -6.7,-7.52 16.66,-39.59 46.88,-39.56 50.52,5.86 94.93,34.22 136.13,108.94 11.01,17.42 30.37,54.71 30.93,83.62 3.85,169.48 -8.55,301.25 -33.93,423.75 -1.63,11.94 -0.53,26.05 1.5,29.63 3.27,3.91 14.36,-0.09 20.25,9.56 8.63,8.82 -23.07,81.93 -41.07,110.07 -3.59,7.07 -5.81,12.69 -9,12.37 z m -865.5,0.37 c -8.53,-0.43 -16.06,-2.87 -22.5,-6.19 -16.36,-15.66 -20.194,-40.77 -7.31,-56.43 12.53,-5.92 25.04,-18.54 16.68,-25.5 -35.447,-37.87 -127.72,-101.14 -132.365,-112.68 -0.042,-0.1 -0.171,-0.3 -0.187,-0.38 -0.016,-0.08 0,-0.3 0,-0.37 0,-0.04 -0.008,-0.16 0,-0.19 0.027,-0.1 0.121,-0.3 0.187,-0.38 0.024,-0.02 0.157,-0.16 0.18,-0.19 0.035,-0.01 0.156,0.02 0.188,0 0.039,-0.01 0.144,-0.17 0.187,-0.18 0.039,-0.01 0.141,0.01 0.188,0 0.011,-0.01 0.175,-0.18 0.175,-0.18 4.7,-3.16 62.438,-3.08 68.825,-0.2 0.05,0.03 0.152,0.16 0.187,0.19 0.02,0.01 0.176,-0.01 0.188,0 0.011,0.01 -0.012,0.18 0,0.19 19.843,7.31 113.997,114.94 113.997,114.94 -4.88,4.17 -9.37,7.25 -14.25,11.43 -5.22,4.53 -4.7,8.97 0,13.5 23.32,13.57 15.93,43.43 3.75,57 -10.09,4.53 -19.59,6.06 -28.12,5.63 z m -331.127,0.38 c -4.461,-0.77 -8.758,-4.45 -10.313,-10.5 -0.984,-3.97 1.719,-10.57 -1.875,-12.57 -2.062,-2.08 -9.89,-0.68 -9.562,10.32 0,3.5 -2.575,7.16 -4.125,9.37 -1.567,1.02 -2.614,1.31 -5.438,1.31 -3.445,-0.13 -3.363,-1.04 -5.25,-3.93 -0.844,-2.94 -1.922,-5.82 -1.922,-9.18 -0.425,-3.91 -2,-5.24 -4.875,-5.81 -3.218,0 -2.457,-0.35 -5.062,1.31 -1.547,1.69 -3.375,2.36 -3.375,5.25 0,2.99 -0.785,7.77 -1.688,9.75 -1.363,1.8 -3.527,2.74 -6,3.38 -13.48,-0.06 -14.461,-15.54 -13.687,-21.38 -1.008,-1.1 -1.512,-28.56 16.875,-36.19 24.679,-11.77 70.961,-6.79 69,33 0,3.52 -0.774,15.34 -1.125,18.57 -2.52,5.86 -7.172,8.08 -11.625,7.31 z m 1290.177,3.56 c -2.09,-0.36 -5.17,-3.53 -10.88,-11.06 -14.11,-46.15 -19.07,-83.84 -13.68,-112.5 36.25,-189.2 73.4,-361.58 67.5,-541.69 17.19,-0.11 37.07,39.33 45.56,78.37 4.65,53.79 -3.1,86.52 -4.5,118.13 -1.39,31.62 -35.79,288.09 -42.75,312.01 -8.4,45.21 33.44,5.94 28.87,32.25 -14.46,33.15 -50.57,81.43 -61.87,110.25 -4.24,7.71 -4.77,14.84 -8.25,14.24 z m 529.87,2.81 c -2.48,-0.25 -5.5,-4.25 -10.12,-14.06 -11.13,-18.22 -14.96,-50.86 -10.5,-79.68 26.79,-181.22 46.7,-356.7 50.81,-517.32 -2.31,-15.25 -2.98,-23.36 -10.12,-42.56 -15.82,-20.27 -33.26,-45.69 -49.69,-57.94 -16.43,-12.25 -51.39,-23.92 -62.81,-33 -36.27,-20.96 -36.45,-45.07 -7.13,-45.94 50.53,5.87 110.32,10.01 151.5,72.19 11.02,17.42 23.99,64.66 24.56,93.56 3.85,169.48 -2.17,335.2 -27.56,457.69 -1.63,11.94 -6.9,39.36 -4.87,42.94 3.27,8.39 19.8,-0.84 25.68,8.81 8.63,8.82 -42.75,74.62 -60.75,102.75 -3.59,7.06 -5.81,12.88 -9,12.56 z m -2081.457,0.24 c -10.875,0.31 -22.872,-6.43 -18.188,-19.5 -2.727,-7.12 21.285,-31.2 25.5,-44.43 3.777,-9.43 -3.75,-39.77 4.125,-42.57 7.242,-3.13 17.211,21.01 21,43.32 2.098,12.22 0.512,54.05 -27.937,62.62 -1.458,0.33 -2.95,0.52 -4.5,0.57 z m 1827.177,1.88 c -3.05,0.47 -6.38,-1.03 -10.13,-6.56 -7.16,-6.28 -14.86,-17.65 -14.62,-32.25 1.74,-25.73 6.32,-52.09 8.07,-77.82 0.61,-3.44 1.26,-6.86 1.87,-10.31 -2.76,3.53 -5.18,6.28 -6.57,7.69 -50.15,52.69 23.05,8.61 -9.56,49.31 -27.57,30.28 -35.64,39.91 -59.25,58.12 -11.84,7.66 -18.98,22.27 -22.87,-2.62 -1.55,-21.87 -3.16,-47.19 -1.69,-65.63 -0.08,-10.24 10.53,-29.53 19.69,-40.88 33.46,-41.11 67.64,-84.84 102,-130.5 7.23,-93.09 9.16,-178.43 16.5,-271.68 -1.04,-39.88 -13.31,-92.86 -24.94,-97.87 0,0 -17.76,-10.21 -29.63,1.12 -8.62,3.47 -43.12,57.56 -43.12,57.56 -17.66,16.19 -29.43,11.57 -42,0 -34.65,-33.45 -50.32,-96.13 -73.87,-139.31 -6.07,-9.63 -23.17,-17.83 -42.19,0.75 -48.29,65.98 -20.05,159.89 -26.06,135.75 -43.01,-48.47 -23.97,-128.79 -14.25,-146.06 14.18,-28.37 25.65,-46.54 53.25,-60.56 25.13,-18.51 44.71,-6.96 55.5,6 25.29,26.2 25.63,93.24 37.5,106.5 8.33,24.35 29.2,20.16 39.37,9.37 9.87,-14.18 21.51,-23.41 36,-31.12 23.59,-20.82 51.75,-24.6 79.5,-5.63 18.97,10.64 31.28,24.46 42.38,51.75 11.91,31.86 6.02,198.85 3.37,291.75 17.82,-25.1 35.41,-50.74 52.88,-76.69 7.67,-81.54 11.15,-161.86 8.62,-238.87 -1.81,-15.31 53.44,45.72 53.07,74.63 -0.26,25.29 0.04,48.22 0,69.56 26.79,-42.78 52.73,-86.28 77.25,-130.31 15.19,8.05 9.98,94.07 0.37,105.94 -25.67,43.06 -58.54,89.61 -84,125.62 -5.03,45.45 -11.88,99.07 -15,115.5 -4.86,25.62 -9.72,64.1 -17.06,94.5 -2.02,11.87 -8.09,49.79 -6.19,53.44 3,8.48 14.3,-0.27 19.88,9.56 8.33,9.09 -28.91,105.59 -47.82,133.13 -6.79,12.34 -19.09,8.07 -34.31,-12 -14.11,-13.21 -8.95,-43.34 -3.56,-72 14,-73.05 26.49,-147.43 36.37,-221.63 -18.29,27.21 -40.63,60.13 -62.63,91.88 -0.58,3.06 -2.81,14.28 -2.81,14.43 0,1.32 -3.03,59.76 -5.62,73.69 -0.46,5.65 -1.8,7.28 4.12,6.56 6.29,-5.29 7.14,-5.57 11.06,-7.31 6.35,-1.16 11.9,9.56 8.07,19.5 -19.63,36.19 -39.25,72.55 -58.88,108.75 -2.35,2.32 -5,4.77 -8.06,5.25 z m -708,7.31 c -6.27,-0.57 -11.26,-4.24 -13.13,-13.5 -2.49,-21.77 -1.22,-33.62 2.44,-51.75 2.81,-12.09 20.4,-32.33 29.07,-44.06 41.37,-55.62 81.18,-111.5 119.62,-169.31 6.05,-42.94 10.47,-84.93 13.32,-126.76 6.23,-91.7 8.12,-205.85 2.43,-302.43 17.18,-0.68 44.72,27.74 54.38,69.37 6.28,57.59 -2.24,175.08 -2.81,209.06 -0.41,14.11 -1.27,30.95 -2.25,48.57 44.72,-73.08 88.1,-150.5 130.68,-235.5 15.53,7.37 12.09,94.78 3,107.06 -34.08,73.36 -81.17,145.78 -96.18,173.63 -5.42,10.05 -23.88,38.13 -45.75,70.5 -4.03,46.19 -8.41,85.31 -11.25,97.12 -7.03,48.84 20.07,-5.5 16.31,22.88 -8.8,48.76 -35.71,81.9 -67.5,126.57 -10.25,14.52 -10.05,17.49 -25.88,-3.57 -9.45,-21.46 -9.32,-39.31 -6.56,-56.06 -4.16,6.05 -9.31,13.22 -16.69,22.13 -27.45,23.55 -29.15,24.84 -51.93,44.06 -7.19,5.1 -20.87,12.94 -31.32,12 z m -238.87,4.31 c -6.1,-0.53 -12.86,-7.64 -18.38,-21.37 -4.72,-10.44 -10.5,-65.06 -9.56,-65.06 -3.77,-16.26 16.99,-23.15 26.44,-2.25 14.17,38.3 14.24,54.62 15.19,70.87 -2.21,12.38 -7.59,18.34 -13.69,17.81 z m 64.68,5.05 c -3.92,-0.54 -8.72,-5.56 -15.37,-17.63 -4.78,-12.65 -25.36,-31.78 -10.5,-71.25 12.14,-25.02 17.13,-65.69 11.62,-111 -8.42,-12.88 -10.34,-17.32 -21.37,-30.19 -15.51,-16.67 -32.31,-12.41 -45.19,-6.18 -12.04,8.11 -21.51,12.28 -27,38.06 0.99,41.09 3.38,108.35 -4.13,122.62 -11.07,22.11 -29.32,14.18 -37.12,7.5 -37.48,-34.27 -56,-92.13 -67.31,-138.18 -10.4,-33.56 -21.48,-23.85 -29.25,-10.32 -18.94,17.75 -20.27,156.5 -43.13,133.69 -36.61,-104.64 21.01,-219.27 60.93,-208.12 28.81,-11.93 47.09,42.9 58.88,102.93 8.07,16.85 14.23,18.78 18.37,10.12 -1.06,-79.83 5.73,-97.64 26.25,-121.87 45.79,-35.32 83.66,-4.47 86.63,-1.5 2.97,2.97 35.63,35.63 35.63,35.63 7.93,8.34 18.41,8.85 29.62,1.5 10.9,-9.9 9.5,-26.95 32.82,-38.81 19.62,-7.86 61.53,-1.91 71.25,15 13.07,22.41 16.25,30.12 22.31,38.62 9.33,12.43 25.31,6.93 25.31,3 -1.49,-6.93 -10.87,-13.77 -4.5,-26.25 11.1,-8.32 13.68,-2.98 20.25,-1.12 23.23,11.1 40.69,61.5 40.69,61.5 1.02,18.79 -9.67,17.36 -16.5,13.5 -8.91,-5.45 -9.46,-7.3 -18.38,-12.75 -11.35,-1.69 -33.35,-9.19 -44.25,7.68 -11.12,20.28 -11.18,48.55 -19.68,69 0,1.49 -14.86,32.16 -1.13,34.13 6.93,-1.29 21.83,-5.14 24.19,7.31 7.27,12.14 -15.69,46.57 -31.31,63.94 -13.57,14.89 -32.3,16.7 -50.44,1.5 -12.71,-11.69 -10.82,-24.75 -13.31,-37.13 -3.24,-14.22 -2.62,-31.82 11.81,-50.62 12.68,-25.01 35.72,-57.1 28.12,-102.38 0,0 -13.39,-21.55 -36.93,-18.75 -9.82,2.15 -25.82,6.39 -34.32,69.19 -6.43,47.53 1.61,114.13 -18.56,145.31 -4.56,11.77 -8.47,23.19 -15,22.32 z m -204.37,1.12 c -2.33,0.06 -5.81,-1.23 -10.69,-4.12 -10.97,-7.36 -32.71,-30.01 -33.38,-56.07 -0.66,-14.7 -3.44,-14.64 6.19,-24 6.96,-10.03 13.91,-9.04 27.94,-1.68 8.06,5.93 10.79,9.72 13.5,19.68 3.34,16.7 -17.58,-7.9 -20.25,10.69 -4.68,17.26 8.68,24.36 21.37,41.06 0.3,7.87 0.44,14.29 -4.68,14.44 v 0"
             style="fill:#ffffff;fill-opacity:1;fill-rule:nonzero;stroke:none"
             id="path24" /></g></g></g></g></svg>
