<svg xmlns="http://www.w3.org/2000/svg" width="59.029" height="57.76" viewBox="0 0 59.029 57.76"><g transform="translate(0 -0.5)"><path d="M67.492,39.746A28.246,28.246,0,1,1,39.246,11.5,28.246,28.246,0,0,1,67.492,39.746Zm0,0" transform="translate(-9.732 -9.732)" fill="#cb3066"/><path d="M104.279,328.186a1.366,1.366,0,0,1-1.932,1.932l-2.155-2.155a1.366,1.366,0,0,1,1.932-1.932ZM97.8,331.276a1.366,1.366,0,1,0-2.476,1.155l.966,2.073a1.366,1.366,0,1,0,2.476-1.155Zm9.157-10.776h-1.822a1.366,1.366,0,0,0,0,2.732h1.822a1.366,1.366,0,0,0,0-2.732Zm-36.692,5.531-2.154,2.155a1.366,1.366,0,0,0,1.932,1.932l2.155-2.155a1.366,1.366,0,0,0-1.932-1.932Zm6.141,4.585a1.365,1.365,0,0,0-1.815.661l-.966,2.073A1.366,1.366,0,1,0,76.1,334.5l.966-2.073A1.366,1.366,0,0,0,76.4,330.616Zm-7.785-8.75a1.366,1.366,0,0,0-1.366-1.366H65.432a1.366,1.366,0,0,0,0,2.732h1.822A1.366,1.366,0,0,0,68.619,321.866Zm0,0" transform="translate(-56.68 -283.107)" fill="#ee7ea5"/><path d="M47.876,10.876H16.141V8.57A8.07,8.07,0,0,0,0,8.57V18.793A14.014,14.014,0,0,0,10.5,32.34a22.476,22.476,0,0,0,3.972.385c3.454,6.2,8.908,10.2,15.046,10.2,10.442,0,18.908-11.58,18.908-25.866a35.066,35.066,0,0,0-.545-6.185ZM8.119,26.491a9.675,9.675,0,0,1-3.815-7.7V8.645A3.828,3.828,0,0,1,8.136,4.8a3.77,3.77,0,0,1,3.7,3.765v2.306h-.684a35.066,35.066,0,0,0-.545,6.185,34.527,34.527,0,0,0,1.049,8.51,2.315,2.315,0,0,1-3.536.92Zm0,0" fill="#fdb44c"/><path d="M198.293,352.806a2.306,2.306,0,0,1-2.306,2.306h-.2a2.3,2.3,0,0,1-2,3.459V367.6a28.527,28.527,0,0,1-8.3,0V358.57a2.3,2.3,0,0,1-2-3.459h-.2a2.306,2.306,0,1,1,0-4.612h12.682A2.306,2.306,0,0,1,198.293,352.806Zm0,0" transform="translate(-160.133 -309.649)" fill="#fdc273"/><path d="M228.3,363.182v4.424a28.473,28.473,0,0,1-4.15.3c-.154,0-.308,0-.461,0v-4.723a2.306,2.306,0,1,1,4.612,0Zm2.191-12.682h-8.186a2.306,2.306,0,1,0,0,4.612h8.186a2.306,2.306,0,1,0,0-4.612Zm0,0" transform="translate(-194.636 -309.649)" fill="#fdd194"/><path d="M50.958.5a8.082,8.082,0,0,0-7.987,6.917H16.057A8.07,8.07,0,0,0,0,8.673v3.51a2.152,2.152,0,0,0,4.3,0V8.645A3.815,3.815,0,0,1,8,4.8a3.772,3.772,0,0,1,3.66,2.612h-.126a2.306,2.306,0,0,0-2.3,2.39,2.342,2.342,0,0,0,2.36,2.222h23a1.153,1.153,0,0,1,1.15,1.23,1.179,1.179,0,0,1-1.19,1.076H16.162a1.727,1.727,0,0,0-1.719,1.92c1.441,12.33,9.25,21.752,18.668,21.752A15.874,15.874,0,0,0,44.56,32.725a18.92,18.92,0,0,0,2.709-.122,14.011,14.011,0,0,0,11.76-13.811V8.57A8.079,8.079,0,0,0,50.958.5Zm3.766,18.293a9.674,9.674,0,0,1-3.815,7.7,2.315,2.315,0,0,1-3.536-.919,34.506,34.506,0,0,0,1.049-8.511,35.161,35.161,0,0,0-.371-5.1A2.3,2.3,0,0,0,49.8,9.68a2.34,2.34,0,0,0-2.357-2.263H47.4A3.754,3.754,0,0,1,54.725,8.57Zm0,0" transform="translate(0)" fill="#fdc273"/><path d="M292.167,8.571v5.918a2.152,2.152,0,0,1-4.3,0V8.571a3.753,3.753,0,0,0-7.329-1.153h.1a2.306,2.306,0,0,1,0,4.612H265.826a2.306,2.306,0,0,1,0-4.612h10.3a8.063,8.063,0,0,1,16.044,1.153Zm0,0" transform="translate(-233.139 0)" fill="#fdd194"/><path d="M205.551,92.884l-14.484,14.484a2.1,2.1,0,0,1-2.968,0l-6.09-6.09a2.8,2.8,0,0,1,3.957-3.957l3.123,3.123a.7.7,0,0,0,.989,0l11.517-11.516a2.8,2.8,0,0,1,3.957,3.957Zm0,0" transform="translate(-160.3 -77.507)" fill="#fdf7bd"/><path d="M218.766,111.924l-9.505,9.505h-.024a9.529,9.529,0,0,1-9.514-8.992,2.8,2.8,0,0,1,2.64.74l3.123,3.123a.7.7,0,0,0,.989,0l10.27-10.27a9.486,9.486,0,0,1,2.021,5.869Zm0,0" transform="translate(-176.697 -93.365)" fill="#fff5f5"/></g></svg>