<svg xmlns="http://www.w3.org/2000/svg" width="38.757" height="50.369" viewBox="0 0 38.757 50.369"><g transform="translate(96.978 126.036)"><g transform="translate(-96.978 -126.036)"><path d="M52.02,3.068h0L52.412,0H44.46l.392,3.068h0A19.384,19.384,0,0,0,29.058,22.115v19.06c4.668.871,8.681,4.325,11.135,9.193h3.958A49.02,49.02,0,0,0,42.73,35.923c-3.568-2.456-5.926-6.558-7.372-11.9a13.248,13.248,0,0,1,10.141.945l2.938,13.243,2.938-13.243a13.248,13.248,0,0,1,10.141-.945c-1.447,5.34-3.8,9.442-7.372,11.9a49.007,49.007,0,0,0-1.422,14.447H56.68c2.454-4.868,6.467-8.322,11.135-9.193V22.115A19.385,19.385,0,0,0,52.02,3.068Z" transform="translate(-29.058)" fill="#fff"/></g></g></svg>