<?xml version="1.0" encoding="iso-8859-1"?>
<!-- Generator: Adobe Illustrator 16.0.0, SVG Export Plug-In . SVG Version: 6.00 Build 0)  -->
<!DOCTYPE svg PUBLIC "-//W3C//DTD SVG 1.1//EN" "http://www.w3.org/Graphics/SVG/1.1/DTD/svg11.dtd">
<svg version="1.1" id="Layer_1" xmlns="http://www.w3.org/2000/svg" xmlns:xlink="http://www.w3.org/1999/xlink" x="0px" y="0px"
	 width="327px" height="266.5px" viewBox="12 0 327 266.5" style="enable-background:new 12 0 327 266.5;" xml:space="preserve">
<g>
	<path style="fill:#F0504C;stroke:#C6DDEA;stroke-width:6.0628;stroke-miterlimit:10;" d="M111.196,71.571l7.562,19.315
		c-23.486,4.239-47.771,29.208-47.771,29.208l1.593-29.208l-23.088-9.423c0,0,29.854-31.563,56.129-31.563"/>
	<path style="fill:#F0504C;stroke:#C6DDEA;stroke-width:6.0628;stroke-miterlimit:10;" d="M233.805,71.571l-7.562,19.315
		c23.484,4.239,47.77,29.208,47.77,29.208l-1.592-29.208l23.088-9.423c0,0-29.855-31.563-56.129-31.563"/>
	<g>
		<g>
			<g>
				<g>
					<g>
						<path style="fill:#C6DDEA;" d="M260.787,196.244c17.05,0.876,31.063-13.118,30.221-30.171
							c-0.726-14.604-12.578-26.482-27.18-27.237c-17.062-0.882-31.09,13.122-30.232,30.184
							C234.328,183.621,246.186,195.494,260.787,196.244z"/>
						<path style="fill:#C6DDEA;" d="M304.211,258.23c5.979,0.008,10.438-5.469,9.274-11.334
							c-4.953-24.941-25.282-47.272-49.643-47.299c-24.354-0.026-44.732,22.258-49.74,47.188c-1.178,5.862,3.271,11.349,9.25,11.354
							L304.211,258.23z"/>
					</g>
				</g>
			</g>
		</g>
		<g>
			<g>
				<g>
					<g>
						<path style="fill:#C6DDEA;" d="M179.186,132.066c17.049,0.876,31.062-13.118,30.221-30.171
							c-0.727-14.604-12.578-26.481-27.18-27.237c-17.062-0.882-31.09,13.122-30.233,30.184
							C152.726,119.443,164.584,131.316,179.186,132.066z"/>
						<path style="fill:#C6DDEA;" d="M222.61,194.053c5.979,0.008,10.438-5.469,9.273-11.334
							c-4.953-24.941-25.281-47.272-49.643-47.299c-24.354-0.026-44.732,22.258-49.74,47.188c-1.178,5.862,3.271,11.349,9.25,11.354
							L222.61,194.053z"/>
					</g>
				</g>
			</g>
		</g>
		<g>
			<g>
				<g>
					<g>
						<path style="fill:#C6DDEA;" d="M95.755,194.014c17.049,0.876,31.062-13.118,30.221-30.171
							c-0.727-14.604-12.578-26.481-27.18-27.237c-17.062-0.882-31.09,13.122-30.233,30.184
							C69.296,181.391,81.153,193.264,95.755,194.014z"/>
						<path style="fill:#C6DDEA;" d="M139.179,256c5.979,0.008,10.438-5.469,9.273-11.334
							c-4.953-24.941-25.281-47.272-49.643-47.299c-24.354-0.026-44.732,22.258-49.74,47.188c-1.178,5.862,3.271,11.349,9.25,11.354
							L139.179,256z"/>
					</g>
				</g>
			</g>
		</g>
	</g>
	<g>
		<path style="fill:#FFFFFF;stroke:#C6DDEA;stroke-width:6;stroke-miterlimit:10;" d="M270.403,41.119
			c-6.025,13.665-12.049,27.332-18.076,40.996c-51.881-37.138-108.568-37.129-160.45,0C85.85,68.45,79.826,54.785,73.802,41.119
			C136.671-4.522,207.535-4.533,270.403,41.119z"/>
	</g>
	<path style="fill:#FDC345;" d="M284.838,101.737l20.246,8.871c0.943,0.414,2.037,0.299,2.875-0.305l17.938-12.912l-8.871,20.244
		c-0.414,0.945-0.298,2.038,0.306,2.875l12.912,17.939L310,129.579c-0.945-0.414-2.039-0.299-2.877,0.304l-17.938,12.913
		l8.871-20.244c0.414-0.945,0.298-2.038-0.305-2.876L284.838,101.737z"/>
	<path style="fill:#FDC345;" d="M18.135,104.999l20.246,8.871c0.943,0.414,2.037,0.299,2.875-0.305l17.938-12.912l-8.871,20.244
		c-0.414,0.945-0.298,2.038,0.306,2.875l12.913,17.939l-20.244-8.87c-0.945-0.414-2.039-0.299-2.876,0.304l-17.938,12.913
		l8.871-20.244c0.414-0.945,0.298-2.038-0.305-2.876L18.135,104.999z"/>
	<g>
		<path style="fill:#F0504C;stroke:#C6DDEA;stroke-width:5.4807;stroke-miterlimit:10;" d="M256.324,43.873
			c-5.367,9.622-4.604,11.353-9.971,20.975c-52.471-29.13-97.406-28.723-149.531,1.001c-3.685-9.622-4.702-11.354-10.388-20.976
			C143.985,10.787,198.492,10.132,256.324,43.873z"/>
	</g>
</g>
</svg>
