<?xml version="1.0" encoding="iso-8859-1"?>
<!-- Generator: Adobe Illustrator 24.0.1, SVG Export Plug-In . SVG Version: 6.00 Build 0)  -->
<svg version="1.1" id="Layer_1" xmlns="http://www.w3.org/2000/svg" xmlns:xlink="http://www.w3.org/1999/xlink" x="0px" y="0px"
	 viewBox="0 0 141 176" style="enable-background:new 0 0 141 176;" xml:space="preserve">
<g>
	<g>
		<g>
			<g>
				<g>
					<g>
						<path style="fill:#C6DDEA;" d="M62.873,80.538c20.971,1.077,38.206-16.135,37.171-37.109
							c-0.893-17.962-15.471-32.572-33.43-33.501c-20.986-1.085-38.24,16.14-37.184,37.125
							C30.33,65.012,44.914,79.616,62.873,80.538z"/>
						<path style="fill:#C6DDEA;" d="M116.283,156.779c7.354,0.01,12.838-6.727,11.407-13.94
							c-6.092-30.677-31.096-58.143-61.059-58.176c-29.955-0.032-55.019,27.377-61.178,58.04
							c-1.449,7.21,4.023,13.959,11.377,13.965L116.283,156.779z"/>
					</g>
				</g>
			</g>
		</g>
	</g>
	<circle style="fill:#25AE88;" cx="100.088" cy="133.745" r="36.635"/>
	
		<polyline style="fill:none;stroke:#FFFFFF;stroke-width:4;stroke-linecap:round;stroke-linejoin:round;stroke-miterlimit:10;" points="
		119.138,122.623 95.692,149 81.038,137.277 	"/>
</g>
</svg>
