<svg xmlns="http://www.w3.org/2000/svg" width="30.25" height="30.25" viewBox="0 0 30.25 30.25">
    <path data-name="brand linkedin" d="M28.089 32H2.154A2.17 2.17 0 0 0 0 34.181v25.888a2.17 2.17 0 0 0 2.154 2.181h25.935a2.176 2.176 0 0 0 2.161-2.181V34.181A2.176 2.176 0 0 0 28.089 32zM9.142 57.928H4.659V43.492h4.49v14.436zM6.9 41.52a2.6 2.6 0 1 1 2.6-2.6 2.6 2.6 0 0 1-2.6 2.6zm19.048 16.408h-4.483v-7.022c0-1.675-.034-3.828-2.329-3.828-2.336 0-2.694 1.823-2.694 3.707v7.144h-4.484V43.492h4.3v1.972h.061a4.722 4.722 0 0 1 4.247-2.329c4.537 0 5.381 2.991 5.381 6.88z" transform="translate(0 -32)" style="fill:#0c074a"/>
</svg>
