<svg xmlns="http://www.w3.org/2000/svg" width="27.104" height="30.977" viewBox="0 0 27.104 30.977">
    <path data-name="brand discord" d="M17.982 14.714a1.585 1.585 0 1 1-1.58-1.719 1.65 1.65 0 0 1 1.58 1.719zm-7.233-1.719a1.725 1.725 0 0 0 0 3.438 1.65 1.65 0 0 0 1.58-1.719 1.64 1.64 0 0 0-1.58-1.719zM27.1 3.191v27.786c-3.9-3.448-2.654-2.307-7.187-6.521l.821 2.865H3.175A3.183 3.183 0 0 1 0 24.131V3.191A3.183 3.183 0 0 1 3.175 0h20.754A3.183 3.183 0 0 1 27.1 3.191zm-4.41 14.682a20.741 20.741 0 0 0-2.23-9.03 7.659 7.659 0 0 0-4.352-1.626l-.217.248a10.308 10.308 0 0 1 3.857 1.967 13.16 13.16 0 0 0-11.57-.449c-.573.263-.914.449-.914.449A10.449 10.449 0 0 1 11.337 7.4l-.155-.186a7.659 7.659 0 0 0-4.352 1.63 20.741 20.741 0 0 0-2.23 9.03 5.616 5.616 0 0 0 4.724 2.354s.573-.7 1.038-1.286a4.817 4.817 0 0 1-2.71-1.828c.228.159.6.366.635.387a11.29 11.29 0 0 0 9.665.542 8.863 8.863 0 0 0 1.781-.914 4.887 4.887 0 0 1-2.8 1.843c.465.589 1.022 1.255 1.022 1.255a5.662 5.662 0 0 0 4.739-2.354z" style="fill:#0c074a"/>
</svg>
