<svg xmlns="http://www.w3.org/2000/svg" width="30.247" height="30.247" viewBox="0 0 30.247 30.247">
    <path data-name="brand twitter-square" d="M27.006 32H3.241A3.242 3.242 0 0 0 0 35.241v23.765a3.242 3.242 0 0 0 3.241 3.241h23.765a3.242 3.242 0 0 0 3.241-3.241V35.241A3.242 3.242 0 0 0 27.006 32zM23.7 42.722c.014.189.014.385.014.574a12.513 12.513 0 0 1-12.6 12.6 12.54 12.54 0 0 1-6.8-1.985 9.332 9.332 0 0 0 1.067.054 8.878 8.878 0 0 0 5.5-1.89A4.434 4.434 0 0 1 6.745 49a4.772 4.772 0 0 0 2-.081A4.428 4.428 0 0 1 5.2 44.571v-.054a4.425 4.425 0 0 0 2 .56 4.419 4.419 0 0 1-1.971-3.686 4.373 4.373 0 0 1 .6-2.235 12.573 12.573 0 0 0 9.128 4.632 4.437 4.437 0 0 1 7.555-4.044 8.677 8.677 0 0 0 2.809-1.067 4.417 4.417 0 0 1-1.944 2.437 8.812 8.812 0 0 0 2.552-.689 9.321 9.321 0 0 1-2.229 2.297z" transform="translate(0 -32)" style="fill:#0c074a"/>
</svg>
