<svg xmlns="http://www.w3.org/2000/svg" width="30.585" height="30.578" viewBox="0 0 30.585 30.578">
    <path data-name="brand instagram" d="M15.221 39.274a7.84 7.84 0 1 0 7.84 7.84 7.827 7.827 0 0 0-7.84-7.84zm0 12.937a5.1 5.1 0 1 1 5.1-5.1 5.106 5.106 0 0 1-5.1 5.1zm9.989-13.258a1.829 1.829 0 1 1-1.829-1.829 1.824 1.824 0 0 1 1.829 1.829zm5.19 1.856a9.049 9.049 0 0 0-2.47-6.407 9.109 9.109 0 0 0-6.407-2.47c-2.525-.143-10.091-.143-12.616 0A9.1 9.1 0 0 0 2.5 34.4a9.079 9.079 0 0 0-2.468 6.4c-.143 2.525-.143 10.091 0 12.616A9.049 9.049 0 0 0 2.5 59.825 9.12 9.12 0 0 0 8.909 62.3c2.525.143 10.091.143 12.616 0a9.049 9.049 0 0 0 6.407-2.47 9.109 9.109 0 0 0 2.47-6.407c.143-2.529.143-10.089-.002-12.614zm-3.259 15.318a5.16 5.16 0 0 1-2.907 2.907c-2.013.8-6.789.614-9.013.614s-7.007.177-9.013-.614A5.16 5.16 0 0 1 3.3 56.127c-.8-2.013-.614-6.789-.614-9.013s-.177-7.007.614-9.014a5.16 5.16 0 0 1 2.907-2.907c2.013-.8 6.789-.614 9.013-.614s7.007-.177 9.013.614a5.16 5.16 0 0 1 2.908 2.907c.8 2.013.614 6.789.614 9.013s.184 7.008-.614 9.014z" transform="translate(.075 -31.825)" style="fill:#0c074a"/>
</svg>
