<svg xmlns="http://www.w3.org/2000/svg" width="30.329" height="30.329" viewBox="0 0 30.329 30.329">
    <path d="M30.718 4H7.611A3.615 3.615 0 0 0 4 7.611v23.107a3.615 3.615 0 0 0 3.611 3.611h23.107a3.615 3.615 0 0 0 3.611-3.611V7.611A3.615 3.615 0 0 0 30.718 4m-2.884 13.231q-.248.024-.5.025a5.41 5.41 0 0 1-4.527-2.447v8.332a6.157 6.157 0 1 1-6.157-6.157c.129 0 .254.012.381.019v3.034a3.136 3.136 0 1 0-.381 6.247 3.22 3.22 0 0 0 3.269-3.1l.03-14.149h2.9a5.407 5.407 0 0 0 4.983 4.827v3.372" transform="translate(-4 -4)" style="fill:#0c074a"/>
</svg>
