<svg xmlns="http://www.w3.org/2000/svg" width="30.499" height="30.499" viewBox="0 0 30.499 30.499">
    <path data-name="brand facebook-square" d="M27.231 32H3.268A3.268 3.268 0 0 0 0 35.268v23.963A3.268 3.268 0 0 0 3.268 62.5h9.344V52.13H8.323v-4.88h4.289v-3.72c0-4.231 2.519-6.568 6.377-6.568a25.982 25.982 0 0 1 3.78.33v4.153h-2.13a2.44 2.44 0 0 0-2.752 2.637v3.168h4.683l-.749 4.881h-3.933V62.5h9.344a3.268 3.268 0 0 0 3.268-3.269V35.268A3.268 3.268 0 0 0 27.231 32z" transform="translate(0 -32)" style="fill:#0c074a"/>
</svg>
