<svg xmlns="http://www.w3.org/2000/svg" viewBox="0 0 24 24">
  <g fill="none" fill-rule="evenodd">
    <g>
      <g>
        <g>
          <g>
            <g>
              <g>
                <path d="M0 0L24 0 24 24 0 24z" transform="translate(-43 -730) translate(0 94) translate(0 636) translate(14) translate(29)"/>
                <g fill="#FFF" fill-rule="nonzero">
                  <path d="M12.001 18.518c-.775 0-1.406.63-1.406 1.406v3.424c.463.016.933.024 1.406.024.474 0 .943-.008 1.407-.024v-3.424c0-.776-.631-1.406-1.407-1.406zM11.297 13.135c-2.039-.035-3.983-.222-5.671-.543v10.234c1.094.207 2.296.358 3.562.448v-3.35c0-1.308.898-2.41 2.109-2.723v-4.066zM18.377 12.592c-1.69.32-3.634.508-5.674.543V17.2c1.213.312 2.111 1.415 2.111 2.724v3.35c1.281-.091 2.497-.245 3.602-.456-.025-.072-.04-.15-.04-.23v-9.996zM23.984 9.454c-.08.592-.478 1.13-1.186 1.605-.631.423-1.514.798-2.624 1.113-.128.037-.258.072-.39.106v10.235l.31-.083c2.503-.697 3.816-1.657 3.904-2.853l.002-.052s-.006-10.023-.016-10.071zM1.202 11.059C.49 10.582.092 10.04.015 9.445c-.008.044-.013 3.456-.014 5.073L0 19.458c0 .682.403 1.299 1.199 1.834.63.423 1.512.798 2.621 1.113.13.037.264.073.4.108V12.28c-.134-.035-.265-.07-.394-.107-1.11-.315-1.993-.69-2.624-1.113zM1.758 9.723C3.846 8.633 7.676 7.97 12.001 7.97c4.303 0 8.154.665 10.242 1.752.244-.2.35-.374.35-.495 0-.283-.584-.853-2.142-1.386.023-.069.036-2.86.036-2.86h1.3c.175 0 .338-.094.44-.252.102-.159.13-.362.075-.547l-.304-1.022.303-1.022c.055-.185.028-.388-.074-.546-.102-.159-.265-.252-.44-.252h-2.165c-.3 0-.542.271-.542.606V7.45c-1.978-.473-4.457-.73-7.079-.731V3.64h1.313c.174 0 .337-.094.439-.252.102-.158.13-.362.074-.547l-.304-1.021.304-1.022c.055-.185.028-.389-.074-.547C13.65.094 13.488 0 13.313 0h-2.166c-.299 0-.541.272-.541.607l-.011 6.137c-2.413.086-4.642.395-6.384.89-.251.072-.482.145-.695.218V6.016h1.301c.174 0 .338-.093.44-.252.101-.158.129-.361.074-.547l-.304-1.021.304-1.022c.055-.185.027-.389-.075-.547-.101-.158-.265-.252-.439-.252H2.651c-.299 0-.541.272-.541.607v5.502c-.496.304-.704.575-.704.743 0 .121.108.295.352.496z" transform="translate(-43 -730) translate(0 94) translate(0 636) translate(14) translate(29)"/>
                  <path d="M3.379 10.553c.25.09.526.18.832.267 2.077.59 4.843.915 7.789.915 2.946 0 5.712-.325 7.79-.915.307-.088.586-.178.837-.269-2.018-.729-5.195-1.175-8.626-1.175-3.394 0-6.602.453-8.622 1.177z" transform="translate(-43 -730) translate(0 94) translate(0 636) translate(14) translate(29)"/>
                </g>
              </g>
            </g>
          </g>
        </g>
      </g>
    </g>
  </g>
</svg>

