<svg xmlns="http://www.w3.org/2000/svg" width="19.947" height="19.946" viewBox="0 0 19.947 19.946"><g transform="translate(0)"><path d="M162.252,306.658l1.252,1.049-2.344,1.968-.553-.551a.7.7,0,0,0-.424-.212l-.164-.021Z" transform="translate(-153.852 -294.676)" fill="#fff"/><path d="M130.972,270.568l1.23,1.032-2.194,2.194-.021-.16a.7.7,0,0,0-.208-.419l-.559-.559Z" transform="translate(-124.274 -260.017)" fill="#fff"/><path d="M272.5,4.827l-.162,4.08a.312.312,0,0,1-.111.224l-6.372,5.346-1.318-1.571,4.121-4.121a.308.308,0,0,0-.436-.436l-4.082,4.082-1.343-1.6,5.079-6.054a.317.317,0,0,1,.224-.109l4.08-.162a.311.311,0,0,1,.23.09.3.3,0,0,1,.09.23Z" transform="translate(-252.55 -4.507)" fill="#fff"/><path d="M13.2,293.588a.312.312,0,0,1-.218.091.247.247,0,0,1-.039,0l-1.573-.2a.3.3,0,0,1-.181-.088L9.561,291.76l-2.57,2.57a1.453,1.453,0,0,1-2.054-2.054l2.57-2.57-1.631-1.633a.3.3,0,0,1-.088-.181l-.2-1.573a.307.307,0,0,1,.088-.257.314.314,0,0,1,.257-.088l1.573.2a.308.308,0,0,1,.181.088L9.725,288.3a.3.3,0,0,1,.088.179l.109.868.868.109a.3.3,0,0,1,.179.088l2.038,2.036a.309.309,0,0,1,.088.181l.2,1.573A.314.314,0,0,1,13.2,293.588Z" transform="translate(-4.51 -274.81)" fill="#fff"/><path d="M294.332,294.315a1.451,1.451,0,0,1-2.054,0l-2.57-2.57-1.633,1.631a.3.3,0,0,1-.181.088l-1.573.2a.247.247,0,0,1-.039,0,.309.309,0,0,1-.306-.345l.2-1.575a.308.308,0,0,1,.088-.181l2.038-2.036a.3.3,0,0,1,.179-.088l.868-.109.109-.868a.3.3,0,0,1,.088-.179l2.036-2.038a.309.309,0,0,1,.181-.088l1.575-.2a.3.3,0,0,1,.255.088.307.307,0,0,1,.088.257l-.2,1.573a.3.3,0,0,1-.088.181l-1.631,1.633,2.57,2.57A1.456,1.456,0,0,1,294.332,294.315Z" transform="translate(-274.811 -274.795)" fill="#fff"/><path d="M8.345,8.785a.308.308,0,1,1,.436-.436l9.936,9.936.021-.164a.707.707,0,0,1,.21-.424l.555-.555L9.127,4.778A.317.317,0,0,0,8.9,4.669l-4.08-.162a.308.308,0,0,0-.23.09.3.3,0,0,0-.09.23l.162,4.08a.317.317,0,0,0,.109.224L17.141,19.505l.559-.557a.7.7,0,0,1,.419-.208l.161-.02Z" transform="translate(-4.502 -4.507)" fill="#fff"/></g></svg>