<svg xmlns="http://www.w3.org/2000/svg" width="18.859" height="22.698" viewBox="0 0 18.859 22.698">
  <g id="Group_964" data-name="Group 964" transform="translate(-38.701 -608.539)">
    <path id="tournament-bracket-left-svgrepo-com" d="M30.991,33.11V30.642H27.906V28.174h3.085V25.706H25.438v2.468H22.97v-7.4h2.468v2.468h5.553V20.77H27.906V18.3h3.085V15.833H25.438V18.3H20.5v4.936H17.417v2.468H20.5v4.936h4.936V33.11Z" transform="translate(21.284 592.706)" fill="#fff"/>
    <g id="settings" transform="translate(66.596 629.272)">
      <g id="Group_963" data-name="Group 963" transform="translate(-18 -7)">
        <path id="Path_11690" data-name="Path 11690" d="M8.472,3.6,7.458,3.349a3.27,3.27,0,0,0-.213-.518l.518-.863a.253.253,0,0,0-.036-.31L7.006.938A.253.253,0,0,0,6.7.9l-.863.518a3.27,3.27,0,0,0-.518-.213L5.072.193A.261.261,0,0,0,4.823,0H3.808a.261.261,0,0,0-.249.193L3.315,1.207A3.27,3.27,0,0,0,2.8,1.42L1.934.9a.253.253,0,0,0-.31.036L.9,1.658a.253.253,0,0,0-.036.31l.518.863a3.27,3.27,0,0,0-.213.518L.193,3.6A.25.25,0,0,0,0,3.842V4.857A.25.25,0,0,0,.193,5.1l.98.249a3.27,3.27,0,0,0,.213.518L.868,6.73A.253.253,0,0,0,.9,7.04l.721.721a.253.253,0,0,0,.31.036L2.8,7.279a3.27,3.27,0,0,0,.518.213l.244.98a.261.261,0,0,0,.249.193H4.823a.261.261,0,0,0,.249-.193l.244-.98a3.269,3.269,0,0,0,.518-.213L6.7,7.8a.253.253,0,0,0,.31-.036l.721-.721a.253.253,0,0,0,.036-.31l-.518-.863a3.27,3.27,0,0,0,.213-.518L8.472,5.1a.25.25,0,0,0,.193-.244V3.842A.25.25,0,0,0,8.472,3.6ZM4.315,5.618A1.269,1.269,0,1,1,5.585,4.349,1.27,1.27,0,0,1,4.315,5.618Z" fill="#fff" stroke="#0c074a" stroke-width="0.6"/>
      </g>
    </g>
  </g>
</svg>
