<svg xmlns="http://www.w3.org/2000/svg" width="25" height="25" viewBox="0 0 25 25"><g transform="translate(-1134.5 -680.264)"><g transform="translate(1134.5 680.264)" fill="#8429f5" stroke="#8429f5" stroke-width="1"><circle cx="12.5" cy="12.5" r="12.5" stroke="none"/><circle cx="12.5" cy="12.5" r="12" fill="none"/></g><g transform="translate(1139.019 684.782)"><path d="M80.056,337.323l-.661.661,1.266,1.266,2.2-2.2-.661-.661-1.54,1.54Zm0,0" transform="translate(-76.919 -325.899)" fill="#fff"/><path d="M0,11.754a4.209,4.209,0,1,0,8.418,0c0-.118-.005-.235-.015-.351q.1.028.2.051a2.479,2.479,0,0,0,2.38-.519L12.3,9.612c.81-.81.808-2.229.028-3.623l2.814-2.2A2.119,2.119,0,1,0,12.172.817l-2.2,2.814c-1.394-.78-2.814-.782-3.623.028L5.029,4.982a2.462,2.462,0,0,0-.519,2.38c.015.066.033.132.051.2-.117-.01-.234-.015-.351-.015A4.214,4.214,0,0,0,0,11.754ZM12.91,1.392a1.184,1.184,0,1,1,1.66,1.662l-4.4,3.432a.858.858,0,0,1-.7-.7ZM9.391,4.379l-.879,1.1v.161A1.823,1.823,0,0,0,10.32,7.452h.161l1.1-.879a2.094,2.094,0,0,1,.058,2.378,1.3,1.3,0,0,1-.944.341A4.157,4.157,0,0,1,8,7.958,4.583,4.583,0,0,1,6.743,5.829a1.576,1.576,0,0,1,.269-1.508,2.094,2.094,0,0,1,2.378.058Zm-3.636,1.2A5.212,5.212,0,0,0,7.344,8.62a5.269,5.269,0,0,0,3.042,1.588c-.039.021-.423.6-1.573.335A4.582,4.582,0,0,1,6.682,9.281,4.583,4.583,0,0,1,5.421,7.152C5.154,6,5.735,5.617,5.755,5.578Zm.265,4.364a6.148,6.148,0,0,0,1.37,1.038A3.273,3.273,0,1,1,4.982,8.573a6.147,6.147,0,0,0,1.038,1.37Zm0,0" transform="translate(0 0)" fill="#fff"/></g></g></svg>