<svg xmlns="http://www.w3.org/2000/svg" width="20.152" height="20.152" viewBox="0 0 20.152 20.152"><path d="M19.533,30.5H12.722a.48.48,0,1,0,0,.96h6.811a.16.16,0,0,1,.16.16v8.317a.16.16,0,0,1-.16.16h-.8v-.407a3.443,3.443,0,0,0-1.812-3.04,2.4,2.4,0,1,0-3.1,0,3.45,3.45,0,0,0-1.81,3.042V40.1h-.96V32.9a.48.48,0,0,0-.96,0v7.2h-.96v-.407a3.443,3.443,0,0,0-1.812-3.04,2.4,2.4,0,1,0-3.1,0,3.45,3.45,0,0,0-1.81,3.042V40.1h-.8a.16.16,0,0,1-.16-.16V31.62a.16.16,0,0,1,.16-.16H8.43a.48.48,0,1,0,0-.96H1.62A1.121,1.121,0,0,0,.5,31.62v8.317a1.121,1.121,0,0,0,1.12,1.12H19.533a1.121,1.121,0,0,0,1.12-1.12V31.62a1.121,1.121,0,0,0-1.12-1.12ZM5.778,33.379a1.439,1.439,0,1,1-1.439,1.439A1.439,1.439,0,0,1,5.778,33.379Zm2.4,6.717h-4.8v-.407a2.443,2.443,0,0,1,2.385-2.472h.044a2.44,2.44,0,0,1,2.369,2.472Zm7.2-6.717a1.439,1.439,0,1,1-1.439,1.439A1.439,1.439,0,0,1,15.374,33.379Zm2.4,6.717h-4.8v-.407a2.443,2.443,0,0,1,2.385-2.472H15.4a2.44,2.44,0,0,1,2.369,2.472Z" transform="translate(-0.5 -20.904)" fill="#fff"/><path d="M24.936.5H16.62A1.121,1.121,0,0,0,15.5,1.62v6.4a1.121,1.121,0,0,0,1.12,1.12h2.9l.827,1.654a.48.48,0,0,0,.858,0l.827-1.654h2.9a1.121,1.121,0,0,0,1.12-1.12V1.62A1.121,1.121,0,0,0,24.936.5Zm-1.52,2.77L20.281,6.405a.48.48,0,0,1-.718-.045L18.1,4.48a.48.48,0,0,1,.757-.589l1.129,1.452,2.751-2.75a.48.48,0,1,1,.678.678Z" transform="translate(-10.702 -0.5)" fill="#fff"/></svg>