<svg xmlns="http://www.w3.org/2000/svg" width="24.5" height="24.5" viewBox="0 0 24.5 24.5">
  <path id="Icon_awesome-paint-brush" data-name="Icon awesome-paint-brush" d="M7.992,14.8a4.843,4.843,0,0,0-4.651,3.46.73.73,0,0,1-.7.478C2.111,18.74.468,17.416,0,17.1c0,3.941,1.815,7.4,6.125,7.4,3.63,0,6.125-2.094,6.125-5.751a4.146,4.146,0,0,0-.046-.437L7.992,14.8ZM21.911,0a2.922,2.922,0,0,0-1.924.787C10.205,9.525,9.187,9.73,9.187,12.3a4.43,4.43,0,0,0,.418,1.852L12.659,16.7a4.4,4.4,0,0,0,1.071.145c2.972,0,4.695-2.176,10.1-12.272a4.924,4.924,0,0,0,.665-2.2A2.492,2.492,0,0,0,21.911,0Z" transform="translate(0.001)" fill="#fff"/>
</svg>
