<svg xmlns="http://www.w3.org/2000/svg" width="16" height="12" viewBox="0 0 16 12">
  <g id="crown-4697" transform="translate(126.035 91.357)">
    <g id="Group_861" data-name="Group 861" transform="translate(-126.035 -91.357)">
      <path id="Path_4684" data-name="Path 4684" d="M13.959,46.679H2.042a.358.358,0,0,1-.348-.294L.008,37.836a.374.374,0,0,1,.143-.374.345.345,0,0,1,.389-.015l4.548,2.837,2.594-5.4a.355.355,0,0,1,.315-.2.364.364,0,0,1,.319.2L11,40.231l4.465-2.784a.345.345,0,0,1,.389.015.374.374,0,0,1,.143.374l-1.686,8.549A.359.359,0,0,1,13.959,46.679Z" transform="translate(-0.001 -34.679)" fill="#fff"/>
    </g>
  </g>
</svg>
