<svg xmlns="http://www.w3.org/2000/svg" width="28" height="31.026" viewBox="0 0 28 31.026">
    <path data-name="Icon simple-discord" d="M26.385 0a3.4 3.4 0 0 1 3.37 3.2v27.826l-3.461-2.938-1.9-1.73-2.074-1.807.866 2.851H5.039a3.208 3.208 0 0 1-3.284-3.2V3.206A3.273 3.273 0 0 1 5.045 0h21.331zm-7.909 7.347h-.039l-.261.259a10.414 10.414 0 0 1 3.977 1.987 14.063 14.063 0 0 0-4.84-1.47 13.291 13.291 0 0 0-3.2 0h-.259a11.526 11.526 0 0 0-3.633.95c-.6.262-.95.434-.95.434a9.224 9.224 0 0 1 4.15-1.987l-.175-.175a7.768 7.768 0 0 0-4.495 1.642 20.233 20.233 0 0 0-2.333 9.075 5.641 5.641 0 0 0 4.839 2.338s.517-.689 1.041-1.3a5.115 5.115 0 0 1-2.767-1.815 4.288 4.288 0 0 1 .433.259h.078a.1.1 0 0 1 .078.039v.008a.1.1 0 0 0 .078.039c.427.176.853.349 1.2.517a10.576 10.576 0 0 0 2.327.693 13.278 13.278 0 0 0 4.15 0 11.947 11.947 0 0 0 2.327-.692 18.648 18.648 0 0 0 1.806-.953 5.138 5.138 0 0 1-2.851 1.815c.427.6 1.028 1.293 1.028 1.293a6.748 6.748 0 0 0 5-2.231A20.191 20.191 0 0 0 22.843 9 7.775 7.775 0 0 0 18.4 7.369l.072-.026zm.217 5.7a1.731 1.731 0 1 1-1.642 1.734 1.686 1.686 0 0 1 1.642-1.734zm-5.873 0a7.151 7.151 0 1 1-.005 0z" transform="translate(-1.755)" style="fill:#5865f2"/>
</svg>
