<svg xmlns="http://www.w3.org/2000/svg" width="22.942" height="22.531" viewBox="0 0 22.942 22.531">
    <path data-name="Path 11701" d="M3.535 2.471a2.683 2.683 0 1 0 2.682 2.683 2.683 2.683 0 0 0-2.682-2.683z" transform="translate(-.781 -2.471)" style="fill:#fff"/>
    <path data-name="Path 11702" d="M108.059 2.471a2.683 2.683 0 1 0 2.683 2.683 2.683 2.683 0 0 0-2.683-2.683z" transform="translate(-96.623 -2.471)" style="fill:#fff"/>
    <path data-name="Path 11703" d="M214.262 7.836a2.683 2.683 0 1 0-2.683-2.683 2.683 2.683 0 0 0 2.683 2.683z" transform="translate(-194.003 -2.471)" style="fill:#fff"/>
    <path data-name="Path 11704" d="M2.683 111.315A2.683 2.683 0 1 0 0 108.632a2.683 2.683 0 0 0 2.683 2.683z" transform="translate(0 -97.353)" style="fill:#fff"/>
    <path data-name="Path 11705" d="M107.208 111.315a2.683 2.683 0 1 0-2.683-2.683 2.683 2.683 0 0 0 2.683 2.683z" transform="translate(-95.842 -97.353)" style="fill:#fff"/>
    <path data-name="Path 11706" d="M213.416 111.305a2.683 2.683 0 1 0-2.684-2.683 2.683 2.683 0 0 0 2.684 2.683z" transform="translate(-193.226 -97.344)" style="fill:#fff"/>
    <path data-name="Path 11707" d="M3.427 209.108a2.683 2.683 0 1 0 2.683 2.683 2.683 2.683 0 0 0-2.683-2.683z" transform="translate(-.682 -191.942)" style="fill:#fff"/>
    <path data-name="Path 11708" d="M107.952 209.108a2.683 2.683 0 1 0 2.683 2.683 2.683 2.683 0 0 0-2.683-2.683z" transform="translate(-96.524 -191.942)" style="fill:#fff"/>
    <path data-name="Path 11709" d="M214.16 209.108a2.683 2.683 0 1 0 2.683 2.683 2.683 2.683 0 0 0-2.683-2.683z" transform="translate(-193.909 -191.942)" style="fill:#fff"/>
</svg>
