<svg xmlns="http://www.w3.org/2000/svg" width="22.009" height="22.009" viewBox="0 0 22.009 22.009">
  <path id="Icon_awesome-pencil-alt" data-name="Icon awesome-pencil-alt" d="M21.4,6.111,19.422,8.092a.516.516,0,0,1-.731,0L13.92,3.321a.516.516,0,0,1,0-.731L15.9.608a2.068,2.068,0,0,1,2.919,0L21.4,3.192A2.06,2.06,0,0,1,21.4,6.111ZM12.218,4.292.929,15.581.018,20.8a1.033,1.033,0,0,0,1.2,1.2l5.223-.916L17.724,9.795a.516.516,0,0,0,0-.731L12.953,4.292a.522.522,0,0,0-.735,0ZM5.335,14.613a.6.6,0,0,1,0-.851l6.62-6.62a.6.6,0,0,1,.851.851l-6.62,6.62a.6.6,0,0,1-.851,0ZM3.784,18.229H5.847v1.56l-2.773.486L1.737,18.938l.486-2.773h1.56Z" transform="translate(-0.002 -0.005)" fill="#fff"/>
</svg>
