<svg xmlns="http://www.w3.org/2000/svg" width="22.847" height="20.304" viewBox="0 0 22.847 20.304"><path d="M15.969,3.3l3.578,3.578a.388.388,0,0,1,0,.547l-8.663,8.663L7.2,16.5a.771.771,0,0,1-.853-.853l.409-3.681L15.422,3.3A.388.388,0,0,1,15.969,3.3Zm6.426-.908L20.459.459a1.551,1.551,0,0,0-2.189,0l-1.4,1.4a.388.388,0,0,0,0,.547l3.578,3.578a.388.388,0,0,0,.547,0l1.4-1.4a1.551,1.551,0,0,0,0-2.189Zm-7.163,11.34v4.038H2.539V5.08h9.115a.488.488,0,0,0,.337-.139l1.587-1.587a.476.476,0,0,0-.337-.813H1.9A1.9,1.9,0,0,0,0,4.445V18.407a1.9,1.9,0,0,0,1.9,1.9H15.866a1.9,1.9,0,0,0,1.9-1.9V12.148a.477.477,0,0,0-.813-.337L15.37,13.4A.488.488,0,0,0,15.231,13.735Z" transform="translate(0 -0.007)" fill="#fff"/></svg>