<svg xmlns="http://www.w3.org/2000/svg" width="13.156" height="17.541" viewBox="0 0 13.156 17.541"><path d="M7.674,4.659V0H.822A.82.82,0,0,0,0,.822v15.9a.82.82,0,0,0,.822.822H12.334a.82.82,0,0,0,.822-.822V5.482H8.5A.825.825,0,0,1,7.674,4.659ZM9.733,8.308l-2.059,3.2,2.059,3.2a.412.412,0,0,1-.346.634h-1.2a.413.413,0,0,1-.363-.216c-.672-1.24-1.251-2.354-1.251-2.354-.219.507-.343.685-1.254,2.357a.407.407,0,0,1-.36.216h-1.2a.412.412,0,0,1-.346-.634l2.066-3.2-2.066-3.2a.411.411,0,0,1,.346-.634H4.961a.413.413,0,0,1,.363.216c.894,1.672.685,1.151,1.254,2.347,0,0,.209-.4,1.254-2.347A.413.413,0,0,1,8.2,7.678H9.387A.409.409,0,0,1,9.733,8.308Zm3.423-4.132v.209H8.771V0H8.98a.822.822,0,0,1,.582.24L12.916,3.6A.82.82,0,0,1,13.156,4.176Z" fill="#fff"/></svg>