<svg xmlns="http://www.w3.org/2000/svg" width="15.112" height="15.112" viewBox="0 0 15.112 15.112"><path d="M15.112,12.775v3.778a.808.808,0,0,1-.81.81H10.525a.811.811,0,0,1-.573-1.383l1.221-1.221L7.556,11.142l-3.617,3.62,1.222,1.218a.811.811,0,0,1-.573,1.383H.81a.808.808,0,0,1-.81-.81V12.775A.811.811,0,0,1,1.383,12.2L2.6,13.422,6.222,9.806,2.6,6.187,1.383,7.411A.811.811,0,0,1,0,6.838V3.06a.808.808,0,0,1,.81-.81H4.588a.811.811,0,0,1,.573,1.383L3.94,4.854,7.556,8.47l3.617-3.62L9.951,3.633a.811.811,0,0,1,.573-1.383H14.3a.808.808,0,0,1,.81.81V6.838a.811.811,0,0,1-1.383.573L12.508,6.19,8.89,9.806l3.619,3.62,1.22-1.221A.809.809,0,0,1,15.112,12.775Z" transform="translate(0 -2.25)" fill="#fff"/></svg>