<svg xmlns="http://www.w3.org/2000/svg" width="18.164" height="12.109" viewBox="0 0 18.164 12.109">
  <path id="Icon_awesome-eye" data-name="Icon awesome-eye" d="M18.054,10.094A10.114,10.114,0,0,0,9.082,4.5,10.116,10.116,0,0,0,.11,10.094a1.02,1.02,0,0,0,0,.92,10.114,10.114,0,0,0,8.972,5.594,10.116,10.116,0,0,0,8.972-5.594A1.02,1.02,0,0,0,18.054,10.094Zm-8.972,5a4.541,4.541,0,1,1,4.541-4.541A4.541,4.541,0,0,1,9.082,15.1Zm0-7.568a3.005,3.005,0,0,0-.8.12,1.509,1.509,0,0,1-2.11,2.11A3.02,3.02,0,1,0,9.082,7.527Z" transform="translate(0 -4.5)" fill="#fff"/>
</svg>
