<svg xmlns="http://www.w3.org/2000/svg" version="1.1" xmlns:xlink="http://www.w3.org/1999/xlink" xmlns:svgjs="http://svgjs.com/svgjs" width="512" height="512" x="0" y="0" viewBox="0 0 64 64" style="enable-background:new 0 0 512 512" xml:space="preserve" class=""><g><path d="M22 53h20v2H22zM42 49c0-5.514-4.486-10-10-10s-10 4.486-10 10v2h20zM21 15h2v2h-2zM51.416 33.996a10.716 10.716 0 0 1-7.337 3C44.566 40.384 47.48 43 51 43c3.519 0 6.432-2.614 6.92-6H56a5.006 5.006 0 0 1-4.584-3.004zM21 7h2v2h-2z" fill="#ffffff" data-original="#000000" class=""></path><path d="M44.081 34.996a8.707 8.707 0 0 0 6.038-2.528l1.175-1.175A.998.998 0 0 1 53 32c0 1.654 1.346 3 3 3h1.92c-.488-3.386-3.401-6-6.92-6-3.518 0-6.43 2.612-6.919 5.996z" fill="#ffffff" data-original="#000000" class=""></path><path d="M22 36c0 3.369-1.864 6.308-4.612 7.85a12.015 12.015 0 0 1 3.098 1.794 12.039 12.039 0 0 1 7.117-7.799C24.86 36.302 23 33.366 23 30c0-4.963 4.037-9 9-9s9 4.037 9 9c0 3.366-1.86 6.302-4.604 7.845a12.042 12.042 0 0 1 7.117 7.798 12 12 0 0 1 3.098-1.793C43.864 42.308 42 39.369 42 36c0-3.525 2.042-6.574 5-8.05V3H17v24.95c2.958 1.476 5 4.525 5 8.05zm5-31h18v2H27zm0 4h18v2H27zm0 4h18v2H27zm0 4h18v2H27zM19 6a1 1 0 0 1 1-1h4a1 1 0 0 1 1 1v4a1 1 0 0 1-1 1h-4a1 1 0 0 1-1-1zm0 8a1 1 0 0 1 1-1h4a1 1 0 0 1 1 1v4a1 1 0 0 1-1 1h-4a1 1 0 0 1-1-1zM20 56v-7c0-.361.023-.716.054-1.068A10.016 10.016 0 0 0 13 45C7.486 45 3 49.486 3 55v6h20v-4h-2a1 1 0 0 1-1-1zM51 45c-2.645 0-5.186 1.07-7.054 2.931.031.353.054.708.054 1.069v7a1 1 0 0 1-1 1h-2v4h20v-6c0-5.514-4.486-10-10-10z" fill="#ffffff" data-original="#000000" class=""></path><path d="M13 43c3.519 0 6.432-2.614 6.92-6H18a5.006 5.006 0 0 1-4.584-3.004 10.716 10.716 0 0 1-7.337 3C6.566 40.384 9.48 43 13 43zM33.383 25.076c.374.154.617.52.617.924 0 1.654 1.346 3 3 3h1.92c-.488-3.386-3.401-6-6.92-6-3.518 0-6.43 2.612-6.919 5.996a8.707 8.707 0 0 0 6.038-2.528l1.175-1.175a.998.998 0 0 1 1.089-.217z" fill="#ffffff" data-original="#000000" class=""></path><path d="M32 37c3.519 0 6.432-2.614 6.92-6H37a5.006 5.006 0 0 1-4.584-3.004 10.716 10.716 0 0 1-7.337 3C25.566 34.384 28.48 37 32 37zM13.293 31.293A.998.998 0 0 1 15 32c0 1.654 1.346 3 3 3h1.92c-.488-3.386-3.401-6-6.92-6-3.518 0-6.43 2.612-6.919 5.996a8.707 8.707 0 0 0 6.038-2.528z" fill="#ffffff" data-original="#000000" class=""></path></g></svg>