<svg xmlns="http://www.w3.org/2000/svg" width="15.997" height="13.997" viewBox="0 0 15.997 13.997">
  <path id="solid_sliders-h" data-name="solid sliders-h" d="M15.5,43H5v-.5a.5.5,0,0,0-.5-.5h-1a.5.5,0,0,0-.5.5V43H.5a.5.5,0,0,0-.5.5v1a.5.5,0,0,0,.5.5H3v.5a.5.5,0,0,0,.5.5h1a.5.5,0,0,0,.5-.5V45H15.5a.5.5,0,0,0,.5-.5v-1A.5.5,0,0,0,15.5,43Zm0-5H13v-.5a.5.5,0,0,0-.5-.5h-1a.5.5,0,0,0-.5.5V38H.5a.5.5,0,0,0-.5.5v1a.5.5,0,0,0,.5.5H11v.5a.5.5,0,0,0,.5.5h1a.5.5,0,0,0,.5-.5V40h2.5a.5.5,0,0,0,.5-.5v-1A.5.5,0,0,0,15.5,38Zm0-5H9v-.5a.5.5,0,0,0-.5-.5h-1a.5.5,0,0,0-.5.5V33H.5a.5.5,0,0,0-.5.5v1a.5.5,0,0,0,.5.5H7v.5a.5.5,0,0,0,.5.5h1a.5.5,0,0,0,.5-.5V35h6.5a.5.5,0,0,0,.5-.5v-1A.5.5,0,0,0,15.5,33Z" transform="translate(0 -32)" fill="#fff"/>
</svg>
