<svg xmlns="http://www.w3.org/2000/svg" width="50" height="50" viewBox="0 0 50 50"><circle cx="25" cy="25" r="25" fill="#fda60e"/><path d="M25.019,12.216,20.2,2.2a.955.955,0,0,0-1.2-.474,8.8,8.8,0,0,1-1.774.464,7.4,7.4,0,0,1-4.549-.9,9.558,9.558,0,0,0-10.65.762L1.77,1.524a.332.332,0,0,0-.053-.084.877.877,0,0,0,.06-.323A.889.889,0,1,0,.66,1.974a.545.545,0,0,0,.028.067L11.471,24.46a.594.594,0,0,0,.538.337.574.574,0,0,0,.26-.06.6.6,0,0,0,.281-.8L7.674,13.814a8.308,8.308,0,0,1,9.494-.8,8.512,8.512,0,0,0,3.614,1.1c.19.014.376.018.566.018a8.462,8.462,0,0,0,3.161-.611.961.961,0,0,0,.534-.541.949.949,0,0,0-.024-.759Zm-3.808.72L19.676,9.711c.084,0,.169,0,.253,0a7.959,7.959,0,0,0,2.385-.369L23.831,12.5a7.26,7.26,0,0,1-2.62.439Zm-7.344-2.2L12.332,7.52a8.914,8.914,0,0,1,3.681,1.152l.07.039L17.6,11.882a9.5,9.5,0,0,0-3.73-1.141ZM6.947,4.481a8.913,8.913,0,0,1,3.628-.474l1.637,3.432a9.011,9.011,0,0,0-3.625.485Zm5.135-2.153a0,0,0,0,1,0,0l0,0a9.005,9.005,0,0,0,1.215.558L14.355,5.1a8.942,8.942,0,0,0-3.734-1.159l-1.24-2.6a8.45,8.45,0,0,1,2.7.99Zm2.434,2.936a7.88,7.88,0,0,0,3.193.92l.214.011,1.64,3.442a7.8,7.8,0,0,1-3.428-.983Zm2.862-1.893a9.487,9.487,0,0,0,1.837-.46l1.377,2.862a7.692,7.692,0,0,1-2.62.362l-1.289-2.7q.353-.016.7-.063ZM5.479,1.563,6.852,4.439a8.986,8.986,0,0,0-2.873,1.69L2.55,3.154A8.411,8.411,0,0,1,5.479,1.563ZM5.693,9.7A8.873,8.873,0,0,1,8.552,8.011l1.5,3.151A9.4,9.4,0,0,0,7.14,12.708Zm0,0" transform="translate(12.445 12.592)" fill="#fff"/></svg>