<svg xmlns="http://www.w3.org/2000/svg" width="20" height="20" viewBox="0 0 20 20"><path d="M14.117,3.859C11.99,3.859,10.234,2.5,7.56,2.5a7.822,7.822,0,0,0-2.7.469A2.154,2.154,0,0,0,5,2.049a2.224,2.224,0,0,0-4.44.139,2.175,2.175,0,0,0,.952,1.795v15.08A.945.945,0,0,0,2.467,20H3.1a.945.945,0,0,0,.952-.938V15.375A11.239,11.239,0,0,1,8.6,14.511c2.127,0,3.883,1.359,6.556,1.359a8.394,8.394,0,0,0,4.861-1.6,1.242,1.242,0,0,0,.549-1.03v-9.5a1.269,1.269,0,0,0-1.8-1.133,11.7,11.7,0,0,1-4.641,1.244Z" transform="translate(-0.563 0)" fill="#fff"/></svg>