<svg xmlns="http://www.w3.org/2000/svg" width="18" height="11.25" viewBox="0 0 18 11.25"><g transform="translate(0 -3.012)"><path d="M11.383,4.137h1.555a5.062,5.062,0,1,1-3.177,9H8.239a5.061,5.061,0,1,1-3.177-9H6.617l.252-.5a1.125,1.125,0,0,1,1.006-.622h2.25a1.125,1.125,0,0,1,1.006.622ZM5.625,9.762H6.75V8.637H5.625V7.512H4.5V8.637H3.375V9.762H4.5v1.125H5.625Zm7.313-2.25a.563.563,0,1,1-.562.562A.562.562,0,0,1,12.938,7.512ZM11.25,9.2a.563.563,0,1,0,.563-.562A.563.563,0,0,0,11.25,9.2Zm1.688,1.687a.562.562,0,1,1,.563-.562A.563.563,0,0,1,12.938,10.887ZM13.5,9.2a.563.563,0,1,0,.563-.562A.562.562,0,0,0,13.5,9.2Z" fill="#fff" fill-rule="evenodd"/></g></svg>