<svg xmlns="http://www.w3.org/2000/svg" width="25.272" height="18.044" viewBox="0 0 25.272 18.044">
  <path id="Path_3940" data-name="Path 3940" d="M26.746,15.376c-1.2-4.992-2.459-7.643-4.992-8.393a5.031,5.031,0,0,0-1.45-.226c-1.557,0-2.645.829-5.42.829s-3.864-.829-5.42-.829a4.975,4.975,0,0,0-1.45.226c-2.533.75-3.8,3.407-4.992,8.393s-.976,8.6.434,9.267a1.645,1.645,0,0,0,.705.158c1.224,0,2.544-1.342,3.819-2.933,1.45-1.811,1.811-1.861,6.221-1.861h1.371c4.405,0,4.772.045,6.221,1.861,1.269,1.591,2.595,2.933,3.819,2.933a1.664,1.664,0,0,0,.705-.158C27.721,23.966,27.936,20.362,26.746,15.376ZM8.07,16.2a2.234,2.234,0,1,1,2.211-2.234A2.227,2.227,0,0,1,8.07,16.2Zm9.752-1.1a1.134,1.134,0,1,1,1.134-1.134A1.134,1.134,0,0,1,17.822,15.1ZM20.3,17.581a1.131,1.131,0,1,1,1.134-1.128A1.133,1.133,0,0,1,20.3,17.581Zm0-4.952a1.134,1.134,0,1,1,1.134-1.134A1.134,1.134,0,0,1,20.3,12.629ZM22.775,15.1a1.134,1.134,0,1,1,1.134-1.134A1.134,1.134,0,0,1,22.775,15.1Z" transform="translate(-2.247 -6.757)" fill="#fff"/>
</svg>
