<?xml version="1.0" encoding="iso-8859-1"?>
<!-- Generator: Adobe Illustrator 24.0.1, SVG Export Plug-In . SVG Version: 6.00 Build 0)  -->
<svg version="1.1" id="Layer_1" xmlns="http://www.w3.org/2000/svg" xmlns:xlink="http://www.w3.org/1999/xlink" x="0px" y="0px"
	 viewBox="0 0 16.235 21.099" style="enable-background:new 0 0 16.235 21.099;" xml:space="preserve">
<g transform="translate(96.978 126.036)">
	<g transform="translate(-96.978 -126.036)">
		<path style="fill:#3D396E;" d="M9.619,1.285L9.619,1.285L9.783,0H6.452l0.164,1.285l0,0C2.779,2.008,0,5.36,0,9.264v7.984
			c2.07,0.487,3.795,1.911,4.665,3.852h1.658c0.101-2.036-0.101-4.075-0.6-6.051c-1.589-1.241-2.682-3.01-3.081-4.986
			c1.413-0.438,2.942-0.294,4.248,0.4l1.231,5.547l1.231-5.547c1.306-0.694,2.835-0.838,4.248-0.4
			c-0.402,1.976-1.497,3.744-3.088,4.984c-0.499,1.976-0.702,4.016-0.6,6.052h1.658c0.87-1.94,2.594-3.364,4.664-3.851V9.264
			C16.234,5.36,13.455,2.009,9.619,1.285z"/>
	</g>
</g>
</svg>
