<svg xmlns="http://www.w3.org/2000/svg" width="20.028" height="15.115" viewBox="0 0 20.028 15.115"><path d="M14.682,3.536h4.694a.652.652,0,0,1,.652.652v9.976a.652.652,0,0,1-.652.652H14.682a.652.652,0,0,1-.652-.652V4.179a.652.652,0,0,1,.652-.644ZM.489,0H17.361a.5.5,0,0,1,.489.489V1.768H17.2V1.141A.438.438,0,0,0,16.759.7H1.087a.438.438,0,0,0-.435.438v8.94a.44.44,0,0,0,.437.438H12.4v1.89H.489A.489.489,0,0,1,0,11.92V.489A.5.5,0,0,1,.489,0ZM6.68,13.093h4.5a2.3,2.3,0,0,0,1.2,2.022H5.481A2.442,2.442,0,0,0,6.68,13.093ZM18.612,6.2h.468v.267h-.468ZM17.028,12.14a.7.7,0,1,1-.7.7A.7.7,0,0,1,17.028,12.14ZM14.91,5.594h4.236a.134.134,0,0,1,.134.134v.728a.135.135,0,0,1-.134.135H14.91a.134.134,0,0,1-.134-.134v-.73A.134.134,0,0,1,14.91,5.594Z" fill="#fff" fill-rule="evenodd"/></svg>