<svg xmlns="http://www.w3.org/2000/svg" width="22.369" height="17.326" viewBox="0 0 22.369 17.326"><g transform="translate(0)"><path d="M.454,12.631c-.839.559-.559,1.62,1.229,2.124a12.027,12.027,0,0,0,5.812.448,2.481,2.481,0,0,0,.28-.056v-1.9l-1.9.615a4.114,4.114,0,0,1-2.179.111c-.559-.167-.448-.5.224-.783l3.856-1.342V9.781L2.409,11.625A7.207,7.207,0,0,0,.454,12.631ZM13.418,4.247V9.668c2.292,1.118,4.079,0,4.079-2.905,0-2.962-1.061-4.3-4.136-5.365A38.293,38.293,0,0,0,8.389,0V16.152L12.3,17.326V3.744c0-.615,0-1.061.448-.894.615.167.67.783.67,1.4Zm7.267,7.1a11.9,11.9,0,0,0-5.03-.615,9.233,9.233,0,0,0-2.516.559l-.167.056v2.181l3.633-1.342a4.114,4.114,0,0,1,2.179-.111c.559.167.448.5-.224.783l-5.588,2.068v2.124L20.685,14.2a4.31,4.31,0,0,0,1.509-.95c.391-.561.224-1.343-1.509-1.9Z" transform="translate(-0.001)" fill="#fff"/></g></svg>