<svg xmlns="http://www.w3.org/2000/svg" width="22.009" height="22.009" viewBox="0 0 22.009 22.009">
  <g id="work-in-progress" transform="translate(-60 -60)">
    <path id="Path_11689" data-name="Path 11689" d="M69.019,74.379,66.24,71.6a.842.842,0,1,1,1.191-1.191l2.184,2.184,4.963-4.963a.842.842,0,0,1,1.191,1.191L70.21,74.379A.842.842,0,0,1,69.019,74.379ZM82.009,71A11.017,11.017,0,0,0,71,60a.842.842,0,0,0,0,1.684A9.32,9.32,0,1,1,61.684,71,.842.842,0,0,0,60,71a11,11,0,0,0,22.009,0ZM67.116,60.774a.842.842,0,1,0,.842.842A.842.842,0,0,0,67.116,60.774Zm-3.3,2.2a.842.842,0,1,0,.842.842.842.842,0,0,0-.842-.842Zm-2.2,3.3a.842.842,0,1,0,.842.842A.842.842,0,0,0,61.616,66.273Z" transform="translate(0 0)" fill="#fff"/>
  </g>
</svg>
