<svg xmlns="http://www.w3.org/2000/svg" width="25" height="25" viewBox="0 0 25 25"><g transform="translate(-1134 -609.521)"><g transform="translate(1134 609.521)" fill="#fff" stroke="#8429f5" stroke-width="1"><circle cx="12.5" cy="12.5" r="12.5" stroke="none"/><circle cx="12.5" cy="12.5" r="12" fill="none"/></g><g transform="translate(1132.041 612.675)"><path d="M8,7.462a6.459,6.459,0,0,0,3.384,5.681,1.934,1.934,0,0,1,.845.88L13.695,17.2a.84.84,0,0,0,1.526,0l1.466-3.175a1.934,1.934,0,0,1,.846-.881A6.458,6.458,0,1,0,8,7.462Z" transform="translate(0 0)" fill="#8429f5"/><path d="M23.109,8.92a6.448,6.448,0,0,0-2.755-5.289A6.846,6.846,0,0,0,17.458,3,6.234,6.234,0,0,0,11,9.189,6.378,6.378,0,0,0,14.395,14.5a2.3,2.3,0,0,1,.834.986l1.466,3.175a.839.839,0,0,0,.36.384.838.838,0,0,0,.36-.383l1.466-3.175a1.934,1.934,0,0,1,.846-.881A6.458,6.458,0,0,0,23.109,8.92Z" transform="translate(-2.193 -1.458)" fill="#8429f5"/><circle cx="5.303" cy="5.303" r="5.303" transform="translate(9.061 2.066)" fill="#fff"/><path d="M20.112,8a5.108,5.108,0,0,0-3.871,8.446,5.108,5.108,0,0,0,7.2-7.2A5.087,5.087,0,0,0,20.112,8Z" transform="translate(-5.116 -5.113)" fill="#fff"/><path d="M29.666,19.026,25,23.689l-2.194-2.195,1.1-1.1,1.1,1.1,3.567-3.566Z" transform="translate(-11.873 -13.079)" fill="#8429f5"/><path d="M30.531,19.892l-.549-.549-4.115,4.114-1.1-1.1-.549.549,1.646,1.646Z" transform="translate(-12.739 -13.944)" fill="#8429f5"/></g></g></svg>