<svg xmlns="http://www.w3.org/2000/svg" width="33.654" height="38.484" viewBox="0 0 33.654 38.484"><g transform="translate(0 -0.001)"><path d="M17.71,15.3v1.935a2.939,2.939,0,0,0,.365,1.532,1.733,1.733,0,0,0,1.505.872,2.583,2.583,0,0,0,1.8-.883l6.391-6.391a3.6,3.6,0,0,0,0-5.089L21.382.883A2.582,2.582,0,0,0,19.58,0c-.931,0-1.87.743-1.87,2.4V4.162A18.983,18.983,0,0,0,.009,20.777a1.127,1.127,0,0,0,2.029.8A15.907,15.907,0,0,1,17.71,15.3Zm0,0" transform="translate(0)" fill="#fff"/><path d="M92.364,218.844a1.127,1.127,0,0,0-1.325.383,15.907,15.907,0,0,1-15.671,6.281v-1.935c0-1.66-.94-2.4-1.87-2.4a2.584,2.584,0,0,0-1.8.883l-6.391,6.39a3.6,3.6,0,0,0,0,5.09l6.39,6.39a2.583,2.583,0,0,0,1.8.883c.931,0,1.87-.743,1.87-2.4v-1.757a18.982,18.982,0,0,0,17.7-16.615,1.127,1.127,0,0,0-.7-1.186Zm0,0" transform="translate(-59.422 -202.321)" fill="#fff"/></g></svg>