<svg xmlns="http://www.w3.org/2000/svg" width="22.016" height="22.016" viewBox="0 0 22.016 22.016">
    <path d="M2.518 13.742H0v-.916a6.994 6.994 0 0 1 3.721-6.258 10.054 10.054 0 0 1 3.573-1Q6.48 6.577 5.661 7.711a37.178 37.178 0 0 0-3.143 6.031zm11.755 2.577a37.178 37.178 0 0 1-6.031 3.148v2.52h.916a6.994 6.994 0 0 0 6.258-3.724 10.054 10.054 0 0 0 1-3.573q-1.004.81-2.143 1.629zM21.984 2.74c-.122 3.988-2.993 7.943-8.778 12.093a32.059 32.059 0 0 1-4.963 2.631v-.516a3.222 3.222 0 0 0-3.206-3.206H4.52a31.983 31.983 0 0 1 2.635-4.963C11.295 3 15.243.132 19.225 0c1.984 0 2.759.811 2.759 2.74zm-5.5 5.047a2.29 2.29 0 1 0-2.29 2.29 2.29 2.29 0 0 0 2.293-2.29zm-15.231 14c1.032-.183 3.519-.694 4.35-1.524a2.749 2.749 0 0 0-3.887-3.887C.889 17.209.377 19.7.194 20.728l-.226 1.288z" transform="translate(.032)" style="fill:#fff"/>
</svg>
