<svg xmlns="http://www.w3.org/2000/svg" width="15.75" height="15.75" viewBox="0 0 15.75 15.75">
    <path data-name="Icon awesome-save" d="m15.256 5.693-2.949-2.949a1.688 1.688 0 0 0-1.193-.494H1.688A1.687 1.687 0 0 0 0 3.938v12.375A1.687 1.687 0 0 0 1.688 18h12.375a1.687 1.687 0 0 0 1.688-1.687V6.886a1.687 1.687 0 0 0-.494-1.193zM7.875 15.75a2.25 2.25 0 1 1 2.25-2.25 2.25 2.25 0 0 1-2.25 2.25zM11.25 5.044v3.534a.422.422 0 0 1-.422.422H2.672a.422.422 0 0 1-.422-.422V4.922a.422.422 0 0 1 .422-.422h8.034a.422.422 0 0 1 .3.124l.122.122a.422.422 0 0 1 .124.3z" transform="translate(0 -2.25)" style="fill:#8429f5"/>
</svg>
