<svg xmlns="http://www.w3.org/2000/svg" width="15.096" height="19.625" viewBox="0 0 15.096 19.625">
  <path id="Icon_ionic-ios-lock" data-name="Icon ionic-ios-lock" d="M19.959,10.168H18.826v-2.2A4.529,4.529,0,1,0,9.769,7.9v2.264H8.637A1.892,1.892,0,0,0,6.75,12.055v9.057A1.892,1.892,0,0,0,8.637,23H19.959a1.892,1.892,0,0,0,1.887-1.887V12.055A1.892,1.892,0,0,0,19.959,10.168Zm-5,5.887V19.3a.676.676,0,0,1-.627.679.661.661,0,0,1-.693-.66V16.055a1.51,1.51,0,1,1,1.321,0Zm2.547-5.887H11.09V7.9a3.208,3.208,0,0,1,6.416,0Z" transform="translate(-6.75 -3.374)" fill="#fff"/>
</svg>
