<svg xmlns="http://www.w3.org/2000/svg" width="17.046" height="13.592" viewBox="0 0 17.046 13.592"><path d="M13.631,5.2l-.218.381a.329.329,0,0,1-.4.144,2.943,2.943,0,0,1-.855-.5.331.331,0,0,1-.075-.418l.218-.381a2.3,2.3,0,0,1-.424-.73h-.44a.329.329,0,0,1-.325-.274,3,3,0,0,1,0-.988.331.331,0,0,1,.325-.277h.44a2.3,2.3,0,0,1,.424-.73l-.218-.381a.328.328,0,0,1,.075-.418,2.979,2.979,0,0,1,.855-.5.329.329,0,0,1,.4.144l.218.381a2.367,2.367,0,0,1,.844,0l.218-.381a.329.329,0,0,1,.4-.144,2.943,2.943,0,0,1,.855.5.331.331,0,0,1,.075.418l-.218.381a2.3,2.3,0,0,1,.424.73h.44A.329.329,0,0,1,17,2.432a3,3,0,0,1,0,.988.331.331,0,0,1-.325.277h-.44a2.3,2.3,0,0,1-.424.73l.218.381a.328.328,0,0,1-.075.418,2.979,2.979,0,0,1-.855.5.329.329,0,0,1-.4-.144L14.476,5.2A2.367,2.367,0,0,1,13.631,5.2Zm-.28-1.566a1,1,0,0,0,1.406-1.406A1,1,0,0,0,13.352,3.631Zm-3.071,4.1.9.447a.641.641,0,0,1,.28.775,6.288,6.288,0,0,1-1.135,1.753.637.637,0,0,1-.807.141L8.741,10.4a4.576,4.576,0,0,1-1.462.844v.895a.637.637,0,0,1-.525.629,5.99,5.99,0,0,1-2.022,0,.64.64,0,0,1-.533-.629v-.895A4.626,4.626,0,0,1,2.737,10.4l-.775.445a.637.637,0,0,1-.807-.141A6.279,6.279,0,0,1,.031,8.953a.643.643,0,0,1,.28-.775L1.2,7.73a4.614,4.614,0,0,1,0-1.689L.31,5.591a.635.635,0,0,1-.28-.772A6.254,6.254,0,0,1,1.155,3.066a.637.637,0,0,1,.807-.141l.775.447A4.576,4.576,0,0,1,4.2,2.528v-.9A.634.634,0,0,1,4.722,1,6.075,6.075,0,0,1,6.746,1a.64.64,0,0,1,.533.629v.895a4.626,4.626,0,0,1,1.462.844l.775-.447a.637.637,0,0,1,.807.141,6.245,6.245,0,0,1,1.121,1.753.637.637,0,0,1-.266.775l-.9.447A4.629,4.629,0,0,1,10.281,7.73Zm-3.132.562A1.992,1.992,0,0,0,4.333,5.477,1.992,1.992,0,0,0,7.148,8.292Zm6.483,4.867-.218.381a.329.329,0,0,1-.4.144,2.943,2.943,0,0,1-.855-.5.331.331,0,0,1-.075-.418l.218-.381a2.3,2.3,0,0,1-.424-.73h-.44a.329.329,0,0,1-.325-.274,3,3,0,0,1,0-.988.331.331,0,0,1,.325-.277h.44a2.3,2.3,0,0,1,.424-.73l-.218-.381a.328.328,0,0,1,.075-.418,2.979,2.979,0,0,1,.855-.5.329.329,0,0,1,.4.144l.218.381a2.367,2.367,0,0,1,.844,0l.218-.381a.329.329,0,0,1,.4-.144,2.943,2.943,0,0,1,.855.5.331.331,0,0,1,.075.418l-.218.381a2.3,2.3,0,0,1,.424.73h.44a.329.329,0,0,1,.325.274,3,3,0,0,1,0,.988.331.331,0,0,1-.325.277h-.44a2.3,2.3,0,0,1-.424.73l.218.381a.328.328,0,0,1-.075.418,2.979,2.979,0,0,1-.855.5.329.329,0,0,1-.4-.144l-.218-.381A2.367,2.367,0,0,1,13.631,13.159Zm-.28-1.569a1,1,0,0,0,1.406-1.406,1,1,0,0,0-1.406,1.406Z" transform="translate(0.009 -0.112)" fill="#fff"/></svg>