<svg xmlns="http://www.w3.org/2000/svg" width="161.349" height="79" viewBox="0 0 161.349 79">
  <g id="Layer_2" data-name="Layer 2" transform="translate(-0.005 -1.065)">
    <path id="Path_4686" data-name="Path 4686" d="M1.979,73.193a1.7,1.7,0,0,1-1.4-1.044A5.279,5.279,0,0,1,0,69.63V10.636A5.278,5.278,0,0,1,.582,8.119a1.7,1.7,0,0,1,1.4-1.044H4.732v.943H1.979a1.252,1.252,0,0,0-1.027.767,3.879,3.879,0,0,0-.424,1.851v59a3.881,3.881,0,0,0,.424,1.852,1.252,1.252,0,0,0,1.027.767H25.215a1.252,1.252,0,0,0,1.027-.767,3.88,3.88,0,0,0,.424-1.851v-59a3.881,3.881,0,0,0-.424-1.852,1.252,1.252,0,0,0-1.027-.767H21.988V7.075h3.227a1.7,1.7,0,0,1,1.4,1.044,5.279,5.279,0,0,1,.577,2.518V69.631a5.278,5.278,0,0,1-.577,2.517,1.7,1.7,0,0,1-1.4,1.044H1.979Z" transform="translate(0 -5.201)" fill="#fff"/>
    <path id="Ellipse_2" data-name="Ellipse 2" d="M.329-.375c.388,0,.7.569.7,1.268S.717,2.16.329,2.16s-.7-.569-.7-1.268S-.059-.375.329-.375Zm0,1.593c.1,0,.181-.146.181-.325S.429.567.329.567.148.713.148.893.229,1.218.329,1.218Z" transform="translate(4.856 1.44)" fill="#fff"/>
    <path id="Ellipse_3" data-name="Ellipse 3" d="M.329-.375c.388,0,.7.569.7,1.268S.717,2.16.329,2.16s-.7-.569-.7-1.268S-.059-.375.329-.375Zm0,1.593c.1,0,.181-.146.181-.325S.429.567.329.567.148.713.148.893.229,1.218.329,1.218Z" transform="translate(21.217 1.44)" fill="#fff"/>
    <path id="Path_4687" data-name="Path 4687" d="M404.389,73.193h-23.24c-1.089,0-1.974-1.6-1.974-3.561v-59c0-1.96.885-3.557,1.974-3.561h2.764v.943h-2.763c-.8,0-1.451,1.178-1.451,2.619v59c0,1.441.651,2.616,1.451,2.619h23.239c.8,0,1.451-1.178,1.451-2.619v-59c0-1.441-.651-2.616-1.451-2.619h-3.23V7.075h3.23c1.089,0,1.974,1.6,1.974,3.561v59C406.363,71.591,405.478,73.189,404.389,73.193Z" transform="translate(-245.009 -5.201)" fill="#fff"/>
    <path id="Path_4688" data-name="Path 4688" d="M392.529,5.8c.388,0,.7.569.7,1.268s-.316,1.268-.7,1.268-.7-.569-.7-1.268S392.141,5.8,392.529,5.8Zm0,1.593c.1,0,.181-.146.181-.325s-.081-.325-.181-.325-.181.146-.181.325S392.43,7.4,392.529,7.4Z" transform="translate(-253.183 -4.74)" fill="#fff"/>
    <path id="Ellipse_4" data-name="Ellipse 4" d="M.329-.375c.388,0,.7.569.7,1.268S.717,2.16.329,2.16s-.7-.569-.7-1.268S-.059-.375.329-.375Zm0,1.593c.1,0,.181-.146.181-.325S.429.567.329.567.148.713.148.893.229,1.218.329,1.218Z" transform="translate(155.378 1.44)" fill="#fff"/>
    <path id="Path_4690" data-name="Path 4690" d="M211.2,75.71H178.687a1.276,1.276,0,0,1-1.028-.776,3.953,3.953,0,0,1-.419-1.859V68.848h.475v4.23A2.664,2.664,0,0,0,178,74.333a.858.858,0,0,0,.692.522H211.2c.538,0,.976-.789.976-1.758V68.58h.475V73.1C212.655,74.538,212,75.71,211.2,75.71Z" transform="translate(-114.512 -27.289)" fill="#fff"/>
    <path id="Line_74" data-name="Line 74" d="M.135,7.779H-.34V0H.135Z" transform="translate(80.54 47.993)" fill="#fff"/>
    <ellipse id="Ellipse_5" data-name="Ellipse 5" cx="0.51" cy="0.917" rx="0.51" ry="0.917" transform="translate(79.928 47.076)" fill="#fff"/>
    <path id="Ellipse_5_-_Outline" data-name="Ellipse 5 - Outline" d="M.407-.34c.412,0,.747.6.747,1.345S.819,2.349.407,2.349-.34,1.746-.34,1,0-.34.407-.34Zm0,1.835c.15,0,.272-.22.272-.49S.557.515.407.515.135.734.135,1,.257,1.495.407,1.495Z" transform="translate(80.03 46.988)" fill="#fff"/>
    <path id="Path_4691" data-name="Path 4691" d="M23.385,28.953H5.34l1.974-9.11c.264-1.225.919-2.032,1.649-2.032H27.008l-1.974,9.111c-.264,1.225-.919,2.032-1.649,2.032Z" transform="translate(-3.318 -8.865)" fill="#fff"/>
    <path id="Path_4692" data-name="Path 4692" d="M23.385,51.293H5.34L7.3,42.182c.264-1.225.919-2.032,1.649-2.032H27l-1.964,9.1c-.263,1.227-.918,2.037-1.649,2.039Z" transform="translate(-3.318 -16.972)" fill="#fff"/>
    <path id="Path_4693" data-name="Path 4693" d="M23.385,73.656H5.34l1.964-9.1c.264-1.225.919-2.032,1.649-2.032H27l-1.964,9.085C24.773,72.838,24.118,73.653,23.385,73.656Z" transform="translate(-3.318 -25.09)" fill="#fff"/>
    <path id="Path_4694" data-name="Path 4694" d="M23.385,95.959H5.34l1.974-9.117c.264-1.225.919-2.032,1.649-2.032H27.008l-1.974,9.117c-.264,1.225-.919,2.032-1.649,2.032Z" transform="translate(-3.318 -33.179)" fill="#fff"/>
    <path id="Path_4695" data-name="Path 4695" d="M63.737,41.5H61.77v-.855h1.967c.65,0,1.178-.952,1.178-2.121V29.746c0-1.17-.528-2.121-1.178-2.121H61.77V26.77h1.967c.911,0,1.653,1.335,1.653,2.976v8.779C65.39,40.166,64.649,41.5,63.737,41.5Z" transform="translate(-39.782 -12.327)" fill="#fff"/>
    <path id="Path_4696" data-name="Path 4696" d="M137.771,66.91H136.55v-.855h1.221c.65,0,1.178-.952,1.178-2.121v-23.3c0-1.17-.528-2.121-1.178-2.121H136.55V37.66h1.221c.911,0,1.653,1.335,1.653,2.976v23.3C139.423,65.575,138.682,66.91,137.771,66.91Z" transform="translate(-88.102 -16.279)" fill="#fff"/>
    <path id="Path_4697" data-name="Path 4697" d="M63.737,85.614H61.77V84.76h1.967c.65,0,1.178-.952,1.178-2.121V73.866c0-1.17-.528-2.121-1.178-2.121H61.77V70.89h1.967c.911,0,1.653,1.335,1.653,2.976v8.773C65.39,84.279,64.649,85.614,63.737,85.614Z" transform="translate(-39.782 -28.338)" fill="#fff"/>
    <path id="Line_75" data-name="Line 75" d="M2.618.515H0V-.34H2.618Z" transform="translate(51.083 35.922)" fill="#fff"/>
    <path id="Line_76" data-name="Line 76" d="M4.61.515H0V-.34H4.61Z" transform="translate(25.371 21.422)" fill="#fff"/>
    <path id="Line_77" data-name="Line 77" d="M5.039.515H0V-.34H5.039Z" transform="translate(25.371 49.836)" fill="#fff"/>
    <path id="Path_4698" data-name="Path 4698" d="M70.909,37.007c0,.507-.228.917-.51.917s-.51-.411-.51-.917.228-.917.51-.917a.437.437,0,0,1,.361.267A1.364,1.364,0,0,1,70.909,37.007Z" transform="translate(-45.029 -15.499)" fill="#fff"/>
    <path id="Path_4698_-_Outline" data-name="Path 4698 - Outline" d="M70.3,38.439c-.412,0-.747-.6-.747-1.345s.335-1.345.747-1.345h0a.641.641,0,0,1,.526.392,2.017,2.017,0,0,1,.218.956,1.991,1.991,0,0,1-.219.948A.644.644,0,0,1,70.3,38.439Zm0-1.835h0c-.15,0-.272.22-.272.49s.122.49.272.49.272-.22.272-.49a.733.733,0,0,0-.079-.348A.232.232,0,0,0,70.3,36.6Z" transform="translate(-44.926 -15.586)" fill="#fff"/>
    <path id="Path_4699" data-name="Path 4699" d="M70.909,81.607c0,.507-.228.917-.51.917s-.51-.411-.51-.917.228-.917.51-.917a.437.437,0,0,1,.361.267A1.364,1.364,0,0,1,70.909,81.607Z" transform="translate(-45.029 -31.684)" fill="#fff"/>
    <path id="Path_4699_-_Outline" data-name="Path 4699 - Outline" d="M70.3,83.039c-.412,0-.747-.6-.747-1.345s.335-1.345.747-1.345h0a.641.641,0,0,1,.526.392,2.017,2.017,0,0,1,.218.956,1.991,1.991,0,0,1-.219.948A.644.644,0,0,1,70.3,83.039Zm0-1.835h0c-.15,0-.272.22-.272.49s.122.49.272.49.272-.22.272-.49a.733.733,0,0,0-.079-.348A.232.232,0,0,0,70.3,81.2Z" transform="translate(-44.926 -31.771)" fill="#fff"/>
    <ellipse id="Ellipse_6" data-name="Ellipse 6" cx="0.51" cy="0.917" rx="0.51" ry="0.917" transform="translate(50.574 35.092)" fill="#fff"/>
    <path id="Ellipse_6_-_Outline" data-name="Ellipse 6 - Outline" d="M.407-.34c.412,0,.747.6.747,1.345S.819,2.349.407,2.349-.34,1.746-.34,1,0-.34.407-.34Zm0,1.835c.15,0,.272-.22.272-.49S.557.515.407.515.135.734.135,1,.257,1.495.407,1.495Z" transform="translate(50.677 35.005)" fill="#fff"/>
    <path id="Path_4700" data-name="Path 4700" d="M150.83,52.8h17.062l.272-1.274H150.118c-.731,0-1.386.811-1.649,2.039l-1.95,9.091h.97l1.677-7.824C149.433,53.6,150.095,52.794,150.83,52.8Z" transform="translate(-94.545 -21.102)" fill="#fff"/>
    <path id="Path_4701" data-name="Path 4701" d="M153.2,54c-.729,0-1.384.807-1.649,2.032l-1.624,7.525h16.839c.73,0,1.384-.807,1.649-2.032L170.045,54Z" transform="translate(-96.748 -21.998)" fill="#fff"/>
    <path id="Path_4702" data-name="Path 4702" d="M83.653,75.084h17.062l.272-1.274H82.942c-.727.006-1.379.812-1.642,2.032l-1.96,9.117h.973L82,77.117C82.269,75.892,82.923,75.084,83.653,75.084Z" transform="translate(-51.135 -29.187)" fill="#fff"/>
    <path id="Path_4703" data-name="Path 4703" d="M86.023,76.29c-.729,0-1.384.807-1.649,2.032L82.75,85.859H99.592c.729,0,1.382-.81,1.645-2.032l1.624-7.537Z" transform="translate(-53.338 -30.087)" fill="#fff"/>
    <path id="Path_4704" data-name="Path 4704" d="M83.653,30.034h17.062l.272-1.274H82.942c-.732.011-1.384.831-1.642,2.064l-1.96,9.091h.973L82,32.1C82.263,30.861,82.919,30.04,83.653,30.034Z" transform="translate(-51.135 -12.839)" fill="#fff"/>
    <path id="Path_4705" data-name="Path 4705" d="M86.023,31.24c-.729,0-1.384.807-1.649,2.032L82.75,40.816H99.592c.729,0,1.382-.81,1.645-2.032l1.624-7.543Z" transform="translate(-53.338 -13.739)" fill="#fff"/>
    <path id="Path_4706" data-name="Path 4706" d="M393.616,84.83h18.045l-1.96,9.1c-.264,1.225-.919,2.032-1.649,2.032H390l1.967-9.117C392.234,85.63,392.888,84.828,393.616,84.83Z" transform="translate(-251.874 -33.186)" fill="#fff"/>
    <path id="Path_4707" data-name="Path 4707" d="M393.616,62.49h18.045l-1.96,9.1c-.262,1.237-.921,2.053-1.656,2.051H390l1.964-9.1C392.225,63.307,392.882,62.491,393.616,62.49Z" transform="translate(-251.874 -25.079)" fill="#fff"/>
    <path id="Path_4708" data-name="Path 4708" d="M393.616,40.15h18.045l-1.96,9.1c-.263,1.227-.918,2.037-1.649,2.039H390l1.964-9.111C392.228,40.955,392.885,40.148,393.616,40.15Z" transform="translate(-251.874 -16.972)" fill="#fff"/>
    <path id="Path_4709" data-name="Path 4709" d="M393.616,17.82h18.045l-1.96,9.1c-.265,1.229-.923,2.037-1.656,2.032H390l1.967-9.11C392.233,18.624,392.887,17.819,393.616,17.82Z" transform="translate(-251.874 -8.868)" fill="#fff"/>
    <path id="Path_4710" data-name="Path 4710" d="M388.513,85.614h-1.971c-.911,0-1.653-1.335-1.653-2.976V73.866c0-1.641.741-2.976,1.653-2.976h1.971v.855h-1.971c-.65,0-1.178.952-1.178,2.121v8.773c0,1.17.529,2.121,1.178,2.121h1.971Z" transform="translate(-248.69 -28.338)" fill="#fff"/>
    <path id="Path_4711" data-name="Path 4711" d="M313.42,66.466H312.2c-.911,0-1.653-1.335-1.653-2.976V40.186c0-1.641.741-2.976,1.653-2.976h1.217v.855H312.2c-.65,0-1.178.952-1.178,2.121V63.491c0,1.17.528,2.121,1.178,2.121h1.217Z" transform="translate(-200.654 -16.116)" fill="#fff"/>
    <path id="Path_4712" data-name="Path 4712" d="M388.513,41.5h-1.971c-.911,0-1.653-1.335-1.653-2.976V29.746c0-1.641.741-2.976,1.653-2.976h1.971v.855h-1.971c-.65,0-1.178.952-1.178,2.121v8.779c0,1.17.529,2.121,1.178,2.121h1.971Z" transform="translate(-248.69 -12.327)" fill="#fff"/>
    <path id="Line_78" data-name="Line 78" d="M2.622.515H0V-.34H2.622Z" transform="translate(107.512 35.635)" fill="#fff"/>
    <path id="Line_79" data-name="Line 79" d="M5.2.515H0V-.34H5.2Z" transform="translate(131.233 50.136)" fill="#fff"/>
    <path id="Line_80" data-name="Line 80" d="M5.633.515H0V-.34H5.633Z" transform="translate(130.805 21.721)" fill="#fff"/>
    <path id="Path_4713" data-name="Path 4713" d="M383.8,82.063a1.118,1.118,0,0,1,.305-.866c.19-.15.412-.076.56.185a1.49,1.49,0,0,1,.115,1c-.079.346-.267.571-.474.568C384.031,82.952,383.807,82.557,383.8,82.063Z" transform="translate(-247.868 -31.84)" fill="#fff"/>
    <path id="Path_4713_-_Outline" data-name="Path 4713 - Outline" d="M384.206,83.469h0c-.4,0-.73-.579-.742-1.307a1.631,1.631,0,0,1,.448-1.27.479.479,0,0,1,.3-.112.639.639,0,0,1,.523.384,2.173,2.173,0,0,1,.168,1.473C384.781,83.143,384.51,83.469,384.206,83.469Z" transform="translate(-247.765 -31.927)" fill="#fff"/>
    <ellipse id="Ellipse_7" data-name="Ellipse 7" cx="0.51" cy="0.917" rx="0.51" ry="0.917" transform="translate(135.928 20.891)" fill="#fff"/>
    <path id="Ellipse_7_-_Outline" data-name="Ellipse 7 - Outline" d="M.407-.34c.412,0,.747.6.747,1.345S.819,2.349.407,2.349-.34,1.746-.34,1,0-.34.407-.34Zm0,1.835c.15,0,.272-.22.272-.49S.557.515.407.515.135.734.135,1,.257,1.495.407,1.495Z" transform="translate(136.031 20.804)" fill="#fff"/>
    <ellipse id="Ellipse_8" data-name="Ellipse 8" cx="0.51" cy="0.917" rx="0.51" ry="0.917" transform="translate(109.624 34.805)" fill="#fff"/>
    <path id="Ellipse_8_-_Outline" data-name="Ellipse 8 - Outline" d="M.407-.34c.412,0,.747.6.747,1.345S.819,2.349.407,2.349-.34,1.746-.34,1,0-.34.407-.34Zm0,1.835c.15,0,.272-.22.272-.49S.557.515.407.515.135.734.135,1,.257,1.495.407,1.495Z" transform="translate(109.727 34.718)" fill="#fff"/>
    <path id="Path_4714" data-name="Path 4714" d="M251.49,52.354h17.062l.272-1.274H250.779c-.729,0-1.384.807-1.649,2.032l-1.96,9.1h.973l1.688-7.843C250.1,53.147,250.758,52.344,251.49,52.354Z" transform="translate(-159.582 -20.939)" fill="#fff"/>
    <path id="Path_4715" data-name="Path 4715" d="M253.873,53.55c-.731,0-1.386.811-1.649,2.039L250.6,63.126h16.842c.729,0,1.384-.807,1.649-2.032l1.624-7.544Z" transform="translate(-161.798 -21.835)" fill="#fff"/>
    <path id="Path_4716" data-name="Path 4716" d="M180.66,92.534h31.218l.269-1.274h-32.2c-.729,0-1.384.807-1.649,2.032l-1.96,9.1h.973L179,94.554c.268-1.226.928-2.029,1.659-2.02Z" transform="translate(-113.814 -35.52)" fill="#fff"/>
    <path id="Path_4717" data-name="Path 4717" d="M183.023,93.73c-.731,0-1.386.811-1.649,2.039l-1.624,7.537h30.992c.731,0,1.388-.805,1.652-2.032l1.624-7.543Z" transform="translate(-116.017 -36.416)" fill="#fff"/>
    <path id="Path_4718" data-name="Path 4718" d="M318.673,30.064h17.062l.272-1.274H317.962c-.728.01-1.378.822-1.638,2.045l-1.964,9.1h.973l1.691-7.83C317.286,30.879,317.942,30.066,318.673,30.064Z" transform="translate(-202.998 -12.849)" fill="#fff"/>
    <path id="Path_4719" data-name="Path 4719" d="M321.017,31.27c-.73,0-1.384.807-1.649,2.032l-1.628,7.537h16.842c.729,0,1.384-.807,1.649-2.032l1.624-7.537Z" transform="translate(-205.182 -13.749)" fill="#fff"/>
    <path id="Path_4720" data-name="Path 4720" d="M318.654,75.114h17.062l.272-1.274H317.943c-.73,0-1.384.807-1.649,2.032l-1.964,9.1h.973l1.7-7.849C317.273,75.91,317.927,75.111,318.654,75.114Z" transform="translate(-202.979 -29.198)" fill="#fff"/>
    <path id="Path_4721" data-name="Path 4721" d="M321.017,76.31c-.731,0-1.386.811-1.649,2.039l-1.628,7.537h16.842c.729,0,1.384-.807,1.649-2.032l1.624-7.544Z" transform="translate(-205.182 -30.095)" fill="#fff"/>
    <path id="Line_88" data-name="Line 88" d="M.135,13.175H-.34V0H.135Z" transform="translate(80.54 66.889)" fill="#fff"/>
  </g>
</svg>
