<svg xmlns="http://www.w3.org/2000/svg" width="17.33" height="20.796" viewBox="0 0 17.33 20.796"><path d="M0,18.847A1.905,1.905,0,0,0,1.857,20.8H15.474a1.905,1.905,0,0,0,1.857-1.95V7.8H0Zm12.379-7.961a.478.478,0,0,1,.464-.487H14.39a.478.478,0,0,1,.464.487V12.51A.478.478,0,0,1,14.39,13H12.843a.478.478,0,0,1-.464-.487Zm0,5.2a.478.478,0,0,1,.464-.487H14.39a.478.478,0,0,1,.464.487v1.625a.478.478,0,0,1-.464.487H12.843a.478.478,0,0,1-.464-.487Zm-4.952-5.2a.478.478,0,0,1,.464-.487H9.439a.478.478,0,0,1,.464.487V12.51A.478.478,0,0,1,9.439,13H7.891a.478.478,0,0,1-.464-.487Zm0,5.2a.478.478,0,0,1,.464-.487H9.439a.478.478,0,0,1,.464.487v1.625a.478.478,0,0,1-.464.487H7.891a.478.478,0,0,1-.464-.487Zm-4.952-5.2A.478.478,0,0,1,2.94,10.4H4.487a.478.478,0,0,1,.464.487V12.51A.478.478,0,0,1,4.487,13H2.94a.478.478,0,0,1-.464-.487Zm0,5.2A.478.478,0,0,1,2.94,15.6H4.487a.478.478,0,0,1,.464.487v1.625a.478.478,0,0,1-.464.487H2.94a.478.478,0,0,1-.464-.487Zm13-13.485H13.617V.65A.637.637,0,0,0,13,0H11.76a.637.637,0,0,0-.619.65V2.6H6.189V.65A.637.637,0,0,0,5.57,0H4.333a.637.637,0,0,0-.619.65V2.6H1.857A1.905,1.905,0,0,0,0,4.549V6.5H17.33V4.549A1.905,1.905,0,0,0,15.474,2.6Z" fill="#fff"/></svg>