<svg xmlns="http://www.w3.org/2000/svg" width="33.902" height="28.182" viewBox="0 0 33.902 28.182">
  <path id="Icon_awesome-store" data-name="Icon awesome-store" d="M33.136,6.528,29.564.826A1.762,1.762,0,0,0,28.072,0H5.835A1.762,1.762,0,0,0,4.344.826L.771,6.528c-1.844,2.945-.209,7.04,3.236,7.508a5.72,5.72,0,0,0,.754.05,5.435,5.435,0,0,0,4.062-1.822,5.439,5.439,0,0,0,8.124,0,5.439,5.439,0,0,0,8.124,0,5.453,5.453,0,0,0,4.062,1.822,5.659,5.659,0,0,0,.754-.05C33.345,13.573,34.986,9.478,33.136,6.528Zm-3.991,9.324a6.984,6.984,0,0,1-1.624-.209v5.493H6.386V15.643a7.292,7.292,0,0,1-1.624.209,7.427,7.427,0,0,1-.991-.066,6.922,6.922,0,0,1-.9-.2V26.42A1.759,1.759,0,0,0,4.63,28.182H29.289A1.759,1.759,0,0,0,31.05,26.42V15.588a5.62,5.62,0,0,1-.9.2A7.654,7.654,0,0,1,29.146,15.852Z" transform="translate(-0.004)" fill="#a5a3e5"/>
</svg>
