<svg xmlns="http://www.w3.org/2000/svg" width="70.805" height="50.195" viewBox="0 0 70.805 50.195">
    <path data-name="Path 11711" d="M70.63 101.22c-.017-.24-.01-.533-.312-.6-.339-.081-.492.214-.657.429a3.8 3.8 0 0 1-4.688 1.27 53.526 53.526 0 0 1-5.541-2.543 22.46 22.46 0 0 0-14.1-2.166 8.885 8.885 0 0 1 3.153-3c1.689-.275 1.228-2.47 0-2.971a12.51 12.51 0 0 0-5.031-.9 5.776 5.776 0 0 0-1.379.261c-1.447.388-.879.9-.931-.569a11.515 11.515 0 0 0-4.848-8.5 1.483 1.483 0 0 0-1.785 0c-2.338 1.783-4.666 4.685-4.814 7.772-.037.776-.1 1.315-.1 1.315s-1.078-.118-1.83-.231a10.516 10.516 0 0 0-5.44.847c-1.228.5-1.688 2.7 0 2.971a8.862 8.862 0 0 1 3.158 3.014 21.583 21.583 0 0 0-6.045-.252 26.681 26.681 0 0 0-9.062 2.915 35.625 35.625 0 0 1-4.494 2.053 3.813 3.813 0 0 1-4.691-1.287c-.165-.215-.323-.52-.657-.427s-.289.438-.32.708a40.192 40.192 0 0 0 .029 8.5 30.57 30.57 0 0 0 3.965 12.853c5.387 9.1 17.92 11.785 25.757 6.333 3.566-2.482 7.3-2.378 10.941-.024a16.1 16.1 0 0 0 7.946 2.74c6.6.39 12.148-1.76 16.239-6.934 5.488-6.94 6.119-15.145 5.537-23.577zm-42.953 18.116c-.8.024-1.61.005-2.053.005-2.631-.059-4.883.269-7.172.054a11.023 11.023 0 0 1-8.852-5.772c-.374-.627-.383-1.272.3-1.64 3.662-1.966 7.5-3.2 11.69-2.129 3.392.868 5.293 3.357 6.519 6.466a17.519 17.519 0 0 1 .554 1.7c.268.948.02 1.286-.986 1.316zm33.475-5.55a11.045 11.045 0 0 1-9.056 5.642c-3.06.257-6.082-.24-9.124-.11-.61.026-1.088-.273-.9-.961a12.4 12.4 0 0 1 4.252-7.068 8.612 8.612 0 0 1 5.576-1.809 18.308 18.308 0 0 1 8.757 2.326c.943.488 1.062 1.04.495 1.979z" transform="translate(0 -81.628)" style="fill:#fff"/>
</svg>
