<svg xmlns="http://www.w3.org/2000/svg" width="26.182" height="21.818" viewBox="0 0 26.182 21.818">
    <path d="M326.182 166.583a10.492 10.492 0 0 1-3.084.867 5.5 5.5 0 0 0 2.362-3.046 10.579 10.579 0 0 1-3.413 1.335 5.3 5.3 0 0 0-3.92-1.738 5.441 5.441 0 0 0-5.369 5.508 5.622 5.622 0 0 0 .138 1.254 15.123 15.123 0 0 1-11.072-5.757 5.608 5.608 0 0 0-.727 2.772 5.544 5.544 0 0 0 2.39 4.584 5.274 5.274 0 0 1-2.434-.687v.068a5.476 5.476 0 0 0 4.311 5.4 5.122 5.122 0 0 1-1.415.194 5.216 5.216 0 0 1-1.011-.1 5.392 5.392 0 0 0 5.018 3.823 10.606 10.606 0 0 1-6.671 2.359 10.753 10.753 0 0 1-1.282-.076 14.956 14.956 0 0 0 8.234 2.473c9.881 0 15.283-8.392 15.283-15.671 0-.24 0-.479-.014-.714a11.026 11.026 0 0 0 2.679-2.851" transform="translate(-300 -164)" style="fill:#00aaec;fill-rule:evenodd"/>
</svg>
