<svg xmlns="http://www.w3.org/2000/svg" width="17.747" height="12.423" viewBox="0 0 17.747 12.423"><path d="M14.907,7.646a2.665,2.665,0,0,0-2.485-3.621,2.648,2.648,0,0,0-1.478.449A4.437,4.437,0,0,0,2.662,6.687c0,.075,0,.15.006.225a3.994,3.994,0,0,0,1.325,7.761H14.2a3.549,3.549,0,0,0,.71-7.027Zm-4,1.7H9.1v3.106a.445.445,0,0,1-.444.444H7.32a.445.445,0,0,1-.444-.444V9.349H5.063a.443.443,0,0,1-.313-.757L7.673,5.669a.445.445,0,0,1,.627,0l2.923,2.923A.443.443,0,0,1,10.909,9.349Z" transform="translate(0 -2.25)" fill="#fff"/></svg>