<svg xmlns="http://www.w3.org/2000/svg" width="23.649" height="18.922" viewBox="0 0 23.649 18.922">
  <path id="Icon_awesome-user-cog" data-name="Icon awesome-user-cog" d="M22.562,13.8a4.335,4.335,0,0,0,0-1.574l.953-.551a.268.268,0,0,0,.122-.314A5.546,5.546,0,0,0,22.41,9.235a.27.27,0,0,0-.333-.052l-.953.551a4.339,4.339,0,0,0-1.364-.787v-1.1a.269.269,0,0,0-.211-.262,5.576,5.576,0,0,0-2.446,0,.269.269,0,0,0-.211.262v1.1a4.339,4.339,0,0,0-1.364.787l-.953-.551a.27.27,0,0,0-.333.052,5.546,5.546,0,0,0-1.227,2.121.272.272,0,0,0,.122.314l.953.551a4.335,4.335,0,0,0,0,1.574l-.953.551a.268.268,0,0,0-.122.314,5.574,5.574,0,0,0,1.227,2.121.27.27,0,0,0,.333.052l.953-.551a4.339,4.339,0,0,0,1.364.787v1.1a.269.269,0,0,0,.211.262,5.576,5.576,0,0,0,2.446,0,.269.269,0,0,0,.211-.262v-1.1a4.339,4.339,0,0,0,1.364-.787l.953.551a.27.27,0,0,0,.333-.052,5.546,5.546,0,0,0,1.227-2.121.272.272,0,0,0-.122-.314l-.953-.551ZM18.33,14.8a1.792,1.792,0,1,1,1.792-1.792A1.794,1.794,0,0,1,18.33,14.8ZM8.278,9.461a4.73,4.73,0,1,0-4.73-4.73A4.73,4.73,0,0,0,8.278,9.461Zm7.436,8.371c-.085-.044-.17-.1-.251-.144l-.292.17a1.45,1.45,0,0,1-1.792-.27,6.739,6.739,0,0,1-1.486-2.572,1.446,1.446,0,0,1,.662-1.689l.292-.17q-.006-.144,0-.288l-.292-.17a1.444,1.444,0,0,1-.662-1.689c.033-.107.081-.214.118-.322-.14-.011-.277-.044-.421-.044h-.617a6.433,6.433,0,0,1-5.388,0H4.967A4.968,4.968,0,0,0,0,15.61v1.537a1.774,1.774,0,0,0,1.774,1.774H14.782a1.772,1.772,0,0,0,1.005-.314,1.439,1.439,0,0,1-.074-.436Z" fill="#fff"/>
</svg>
