<svg xmlns="http://www.w3.org/2000/svg" width="24.997" height="24.997" viewBox="0 0 24.997 24.997">
    <path data-name="Path 11694" d="m0 25 2.15-6.449A12.281 12.281 0 1 1 7 23.155z" style="fill:#2cb742"/>
    <path data-name="Path 11695" d="M27.379 22.061a8.9 8.9 0 0 0-2.659-2.3c-.473-.27-1.044-.3-1.314.181a10.833 10.833 0 0 1-.852.932 1.589 1.589 0 0 1-2.259-.224l-1.716-1.716-1.716-1.716a1.589 1.589 0 0 1-.224-2.259 10.833 10.833 0 0 1 .932-.852c.481-.27.451-.841.181-1.314a8.9 8.9 0 0 0-2.3-2.659 1.175 1.175 0 0 0-1.38.208l-.758.758c-2.4 2.4-1.22 5.117 1.183 7.521l2.2 2.2 2.2 2.2c2.4 2.4 5.117 3.587 7.521 1.183l.758-.758a1.176 1.176 0 0 0 .203-1.385z" transform="translate(-6.828 -5.69)" style="fill:#fff"/>
</svg>
