<svg id="winner-lg-white" xmlns="http://www.w3.org/2000/svg" width="24" height="24" viewBox="0 0 24 24">
  <path id="Shape" d="M0,0H24V24H0Z" fill="none"/>
  <g id="podium">
    <path id="Path" d="M8.361,2.752,6.091,2.424,5.077.376a.678.678,0,0,0-1.213,0L2.849,2.424.579,2.752A.673.673,0,0,0,.2,3.9L1.846,5.5,1.459,7.747a.676.676,0,0,0,.982.71L4.47,7.395,6.5,8.458a.676.676,0,0,0,.982-.71L7.094,5.5,8.736,3.9a.673.673,0,0,0-.375-1.149Z" transform="translate(7.53 0.5)" fill="#fff"/>
    <path id="Path-2" data-name="Path" d="M1.3,4.181,1.043,5.687a.676.676,0,0,0,.982.71l1.357-.711L4.74,6.4a.676.676,0,0,0,.982-.71L5.462,4.181l1.1-1.066a.673.673,0,0,0-.375-1.149l-1.518-.22L3.989.376a.678.678,0,0,0-1.213,0L2.1,1.746l-1.518.22A.673.673,0,0,0,.2,3.115Z" transform="translate(16.735 4.807)" fill="#fff"/>
    <path id="Path-3" data-name="Path" d="M1.077,3.636l-.206,1.2a.676.676,0,0,0,.982.71l1.079-.565,1.079.565a.676.676,0,0,0,.981-.71l-.206-1.2.873-.847a.673.673,0,0,0-.375-1.149L4.077,1.464,3.538.376a.678.678,0,0,0-1.213,0L1.785,1.464.579,1.639A.673.673,0,0,0,.2,2.788Z" transform="translate(0.952 7.009)" fill="#fff"/>
    <path id="Shape-2" data-name="Shape" d="M15.382,23.5H8.618V11.147a.676.676,0,0,1,.677-.674h5.412a.676.676,0,0,1,.676.674V23.5Zm-4.267-9.545a.561.561,0,1,0,0,1.122h.3v3.482a.564.564,0,0,0,1.128,0V14.515a.563.563,0,0,0-.564-.561Z" fill="#fff"/>
    <path id="Shape-3" data-name="Shape" d="M22.824,23.5H16.736V12.27h6.089a.676.676,0,0,1,.676.674v9.882A.676.676,0,0,1,22.824,23.5Zm-2.8-7.075a.454.454,0,0,1,.454.424l-.01.08a2.067,2.067,0,0,1-.33.641c-.619.881-.994,1.371-1.2,1.635l-.01.014c-.257.335-.4.52-.3.824a.579.579,0,0,0,.377.382,3.154,3.154,0,0,0,.914.045c.338,0,.775,0,1.3-.01a.563.563,0,0,0,.4-.17.555.555,0,0,0,.16-.4.564.564,0,0,0-.563-.554H21.2c-.334,0-.658.007-.957.008.227-.305.5-.685.814-1.129a3.134,3.134,0,0,0,.51-1.056c0-.019.007-.037.01-.056l.02-.154a.61.61,0,0,0,0-.071,1.583,1.583,0,0,0-3.136-.305.562.562,0,0,0,.445.66.573.573,0,0,0,.109.011.565.565,0,0,0,.553-.453A.454.454,0,0,1,20.024,16.425Z" fill="#fff"/>
    <path id="Shape-4" data-name="Shape" d="M7.265,23.5H1.176A.676.676,0,0,1,.5,22.826V14.74a.676.676,0,0,1,.676-.674H7.265V23.5Zm-4.4-4.268a.563.563,0,0,0-.563.562,1.483,1.483,0,0,0,.015.219A1.578,1.578,0,1,0,5.09,18.783a1.576,1.576,0,1,0-2.757-1.315.556.556,0,0,0,.084.42.562.562,0,0,0,.361.24.564.564,0,0,0,.661-.443.451.451,0,1,1,.443.536.562.562,0,1,0,0,1.123.449.449,0,1,1-.447.513.5.5,0,0,1,0-.064A.564.564,0,0,0,2.867,19.232Z" fill="#fff"/>
  </g>
</svg>
