<svg xmlns="http://www.w3.org/2000/svg" width="18.53" height="18.554" viewBox="0 0 18.53 18.554"><path d="M9.265,7.43h0c2.8,2.126,7.532,7.347,6.1,8.826a9.276,9.276,0,0,1-12.2,0c-1.456-1.479,3.3-6.7,6.077-8.8A.023.023,0,0,1,9.265,7.43Zm4.829-6.077A9.019,9.019,0,0,0,9.265-.01,9.019,9.019,0,0,0,4.436,1.353c-.023,0-.023.023-.023.046s.023.023.046.023c1.8-.393,4.529,1.155,4.783,1.317h.046c.254-.162,2.981-1.71,4.783-1.317.023,0,.046,0,.046-.023s0-.046-.023-.046ZM2.773,2.647c-.023,0-.023.023-.046.023a9.293,9.293,0,0,0-.832,12.2c0,.023.023.023.046.023s.023-.023,0-.046c-.716-2.195,2.911-7.486,4.783-9.7l.023-.023c0-.023,0-.023-.023-.023C3.882,2.277,2.934,2.578,2.773,2.647Zm9.034,2.426-.023.023a.023.023,0,0,0,.023.023c1.872,2.218,5.476,7.509,4.783,9.7v.046c.023,0,.046,0,.046-.023a9.263,9.263,0,0,0-.855-12.2c-.023-.023-.023-.023-.046-.023-.139-.046-1.086-.347-3.928,2.449Z" transform="translate(0 0.01)" fill="#fff"/></svg>