<svg xmlns="http://www.w3.org/2000/svg" xmlns:xlink="http://www.w3.org/1999/xlink" width="181" height="51" viewBox="0 0 181 51">
  <defs>
    <linearGradient id="linear-gradient" x1="0.908" y1="1.032" x2="-0.383" y2="0.36" gradientUnits="objectBoundingBox">
      <stop offset="0" stop-color="#00a0ff"/>
      <stop offset="0.007" stop-color="#00a1ff"/>
      <stop offset="0.26" stop-color="#00beff"/>
      <stop offset="0.512" stop-color="#00d2ff"/>
      <stop offset="0.76" stop-color="#00dfff"/>
      <stop offset="1" stop-color="#00e3ff"/>
    </linearGradient>
    <linearGradient id="linear-gradient-2" x1="1.077" y1="0.729" x2="-1.307" y2="0.729" gradientUnits="objectBoundingBox">
      <stop offset="0" stop-color="#ffe000"/>
      <stop offset="0.409" stop-color="#ffbd00"/>
      <stop offset="0.775" stop-color="orange"/>
      <stop offset="1" stop-color="#ff9c00"/>
    </linearGradient>
    <linearGradient id="linear-gradient-3" x1="0.864" y1="-0.023" x2="-0.499" y2="-1.789" gradientUnits="objectBoundingBox">
      <stop offset="0" stop-color="#ff3a44"/>
      <stop offset="1" stop-color="#c31162"/>
    </linearGradient>
    <linearGradient id="linear-gradient-4" x1="-0.186" y1="2.701" x2="0.423" y2="1.909" gradientUnits="objectBoundingBox">
      <stop offset="0" stop-color="#32a071"/>
      <stop offset="0.069" stop-color="#2da771"/>
      <stop offset="0.476" stop-color="#15cf74"/>
      <stop offset="0.801" stop-color="#06e775"/>
      <stop offset="1" stop-color="#00f076"/>
    </linearGradient>
  </defs>
  <g id="Group_3208" data-name="Group 3208" transform="translate(-924.499 -1131.629)">
    <path id="Path_15295" data-name="Path 15295" d="M190.681,55.668A5.1,5.1,0,0,1,185.5,60.68H15.871a5.1,5.1,0,0,1-5.19-5.012V15.7a5.11,5.11,0,0,1,5.19-5.019H185.5A5.1,5.1,0,0,1,190.68,15.7V55.668Z" transform="translate(914.318 1121.449)" stroke="#fff" stroke-width="1"/>
    <path id="Path_496" data-name="Path 496" d="M49.005,11.083a3.453,3.453,0,0,1-.887,2.535A3.93,3.93,0,0,1,41.4,10.83,3.9,3.9,0,0,1,45.329,6.9a3.375,3.375,0,0,1,1.521.38,2.76,2.76,0,0,1,1.141.887l-.634.634a2.364,2.364,0,0,0-2.028-.887A2.522,2.522,0,0,0,43.3,8.8a2.611,2.611,0,0,0-.887,2.155,2.611,2.611,0,0,0,.887,2.155A3.264,3.264,0,0,0,45.329,14a2.78,2.78,0,0,0,2.155-.887,2.1,2.1,0,0,0,.634-1.521H45.329V10.576h3.676Zm5.831-3.169H51.414v2.408h3.169v.887H51.414v2.408h3.422v1.014H50.4V7.027h4.437Zm4.183,6.718H58.005V7.914H55.85V7.027h5.324v.887H59.019Zm5.831,0V7.027h1.014v7.606Zm5.324,0H69.16V7.914H67.005V7.027h5.2v.887H70.047v6.718Zm12.042-1.014A3.93,3.93,0,0,1,75.5,10.83a3.93,3.93,0,1,1,7.859,0A3.727,3.727,0,0,1,82.216,13.618ZM77.4,12.984a2.991,2.991,0,0,0,2.028.887,2.522,2.522,0,0,0,2.028-.887,3.058,3.058,0,0,0,.887-2.155,2.611,2.611,0,0,0-.887-2.155,2.991,2.991,0,0,0-2.028-.887,2.522,2.522,0,0,0-2.028.887,3.058,3.058,0,0,0-.887,2.155A2.611,2.611,0,0,0,77.4,12.984Zm7.352,1.648V7.027h1.141l3.676,5.958V7.027h1.014v7.606H89.568L85.638,8.421v6.211Z" transform="translate(940.133 1132.143)" fill="#fff" stroke="#fff" stroke-width="0.2"/>
    <path id="Path_497" data-name="Path 497" d="M75.325,23.058a5.333,5.333,0,0,0-5.451,5.451,5.41,5.41,0,0,0,5.451,5.451,5.333,5.333,0,0,0,5.451-5.451A5.259,5.259,0,0,0,75.325,23.058Zm0,8.62a3.146,3.146,0,0,1-3.042-3.3,3.146,3.146,0,0,1,3.042-3.3,3.071,3.071,0,0,1,3.042,3.3A3.146,3.146,0,0,1,75.325,31.677Zm-11.788-8.62a5.333,5.333,0,0,0-5.451,5.451,5.41,5.41,0,0,0,5.451,5.451,5.333,5.333,0,0,0,5.451-5.451A5.259,5.259,0,0,0,63.536,23.058Zm0,8.62a3.146,3.146,0,0,1-3.042-3.3,3.146,3.146,0,0,1,3.042-3.3,3.071,3.071,0,0,1,3.042,3.3A3.146,3.146,0,0,1,63.536,31.677Zm-14.07-6.972v2.282h5.451A4.793,4.793,0,0,1,53.649,29.9a5.611,5.611,0,0,1-4.183,1.648,5.9,5.9,0,0,1-5.958-6.084,5.979,5.979,0,0,1,5.958-6.084,6.285,6.285,0,0,1,4.183,1.648L55.3,19.382a8.123,8.123,0,0,0-5.7-2.282A8.551,8.551,0,0,0,41.1,25.466a8.551,8.551,0,0,0,8.493,8.366,7.3,7.3,0,0,0,5.831-2.408A7.631,7.631,0,0,0,57.452,26.1a4.752,4.752,0,0,0-.127-1.394Zm57.548,1.775a4.925,4.925,0,0,0-4.563-3.422,5.105,5.105,0,0,0-5.07,5.451,5.3,5.3,0,0,0,5.324,5.451,5.2,5.2,0,0,0,4.437-2.408l-1.775-1.268A3.09,3.09,0,0,1,102.7,31.8a2.75,2.75,0,0,1-2.662-1.648l7.225-3.042Zm-7.352,1.775a3.079,3.079,0,0,1,2.789-3.169,2.242,2.242,0,0,1,2.028,1.141Zm-5.958,5.2h2.408V17.607H93.7ZM89.9,24.2a4.174,4.174,0,0,0-2.915-1.268,5.447,5.447,0,0,0-5.2,5.451,5.249,5.249,0,0,0,5.2,5.324,3.64,3.64,0,0,0,2.789-1.268H89.9V33.2c0,2.028-1.141,3.169-2.915,3.169a2.816,2.816,0,0,1-2.662-1.9l-2.028.887a5.229,5.229,0,0,0,4.817,3.169c2.789,0,5.07-1.648,5.07-5.577V23.311H89.9Zm-2.789,7.479a3.146,3.146,0,0,1-3.042-3.3,3.146,3.146,0,0,1,3.042-3.3,3.05,3.05,0,0,1,2.915,3.3A3.05,3.05,0,0,1,87.113,31.677Zm30.929-14.07h-5.7V33.452h2.408V27.494h3.3a4.95,4.95,0,1,0,0-9.887Zm.127,7.606h-3.422V19.762h3.422a2.784,2.784,0,0,1,2.789,2.662A2.9,2.9,0,0,1,118.169,25.213Zm14.577-2.282a4.261,4.261,0,0,0-4.183,2.408l2.155.887a2.239,2.239,0,0,1,2.155-1.141,2.382,2.382,0,0,1,2.535,2.028v.127A5.028,5.028,0,0,0,133,26.607c-2.282,0-4.563,1.268-4.563,3.549a3.714,3.714,0,0,0,3.929,3.549,3.567,3.567,0,0,0,3.042-1.521h.127v1.268h2.282V27.367A4.8,4.8,0,0,0,132.746,22.931Zm-.253,8.746c-.761,0-1.9-.38-1.9-1.394,0-1.268,1.394-1.648,2.535-1.648a4.9,4.9,0,0,1,2.155.507A2.952,2.952,0,0,1,132.492,31.677Zm13.31-8.366-2.662,6.845h-.127l-2.789-6.845h-2.535l4.183,9.634-2.408,5.324h2.408l6.465-14.957Zm-21.3,10.141h2.408V17.607h-2.408Z" transform="translate(940.053 1136.873)" fill="#fff"/>
    <g id="Group_3150" data-name="Group 3150" transform="translate(-5 -1)">
      <path id="Path_498" data-name="Path 498" d="M10.507,7.5A2.478,2.478,0,0,0,10,9.275V37.288a2.508,2.508,0,0,0,.634,1.775l.127.127L26.478,23.472v-.254Z" transform="translate(936.73 1133.303)" fill="url(#linear-gradient)"/>
      <path id="Path_499" data-name="Path 499" d="M28.1,26.574l-5.2-5.2V21l5.2-5.2.127.127,6.211,3.549c1.775,1.014,1.775,2.662,0,3.676Z" transform="translate(940.182 1135.523)" fill="url(#linear-gradient-2)"/>
      <path id="Path_500" data-name="Path 500" d="M31.569,25.324,26.245,20,10.4,35.845c.634.634,1.521.634,2.662.127Z" transform="translate(936.838 1136.648)" fill="url(#linear-gradient-3)"/>
      <path id="Path_501" data-name="Path 501" d="M31.569,18.109,13.062,7.588a2.055,2.055,0,0,0-2.662.127L26.245,23.433Z" transform="translate(936.838 1133.215)" fill="url(#linear-gradient-4)"/>
      <path id="Path_503" data-name="Path 503" d="M10.507,35.591A2.478,2.478,0,0,1,10,33.817v.127a2.508,2.508,0,0,0,.634,1.775v-.127Zm27.38-13.943L31.549,25.2l.127.127,6.211-3.549A2.107,2.107,0,0,0,39.154,20C39.154,20.634,38.647,21.141,37.887,21.648Z" transform="translate(936.73 1138.648)" opacity="0.12"/>
      <path id="Path_504" data-name="Path 504" d="M13.169,7.721l24.718,14.07c.761.507,1.268,1.014,1.268,1.648a2.107,2.107,0,0,0-1.268-1.775L13.169,7.594C11.394,6.58,10,7.341,10,9.369V9.5C10,7.594,11.394,6.707,13.169,7.721Z" transform="translate(936.73 1133.209)" fill="#fff" opacity="0.25"/>
    </g>
  </g>
</svg>
