<svg xmlns="http://www.w3.org/2000/svg" width="20.044" height="20.044" viewBox="0 0 20.044 20.044">
  <path id="brand_facebook-square" data-name="brand facebook-square" d="M17.9,32H2.148A2.148,2.148,0,0,0,0,34.148V49.9a2.148,2.148,0,0,0,2.148,2.148H8.288V45.23H5.47V42.022H8.288V39.577c0-2.781,1.655-4.317,4.191-4.317a17.076,17.076,0,0,1,2.484.217v2.729h-1.4a1.6,1.6,0,0,0-1.808,1.733v2.083h3.077l-.492,3.208H11.756v6.815H17.9A2.148,2.148,0,0,0,20.044,49.9V34.148A2.148,2.148,0,0,0,17.9,32Z" transform="translate(0 -32)" fill="#fff"/>
</svg>
