<svg xmlns="http://www.w3.org/2000/svg" width="20.101" height="20.096" viewBox="0 0 20.101 20.096">
  <path id="brand_instagram" data-name="brand instagram" d="M9.978,36.721a5.152,5.152,0,1,0,5.152,5.152A5.144,5.144,0,0,0,9.978,36.721Zm0,8.5a3.35,3.35,0,1,1,3.35-3.35A3.356,3.356,0,0,1,9.978,45.223Zm6.565-8.713a1.2,1.2,0,1,1-1.2-1.2A1.2,1.2,0,0,1,16.542,36.51Zm3.413,1.22a5.947,5.947,0,0,0-1.623-4.211A5.986,5.986,0,0,0,14.121,31.9c-1.659-.094-6.632-.094-8.291,0a5.978,5.978,0,0,0-4.211,1.619A5.967,5.967,0,0,0,0,37.725C-.1,39.384-.1,44.357,0,46.016a5.947,5.947,0,0,0,1.623,4.211A5.994,5.994,0,0,0,5.83,51.85c1.659.094,6.632.094,8.291,0a5.947,5.947,0,0,0,4.211-1.623,5.986,5.986,0,0,0,1.623-4.211C20.049,44.357,20.049,39.389,19.955,37.73ZM17.811,47.8a3.391,3.391,0,0,1-1.91,1.91c-1.323.525-4.462.4-5.924.4s-4.605.117-5.924-.4a3.391,3.391,0,0,1-1.91-1.91c-.525-1.323-.4-4.462-.4-5.924s-.117-4.605.4-5.924a3.391,3.391,0,0,1,1.91-1.91c1.323-.525,4.462-.4,5.924-.4s4.605-.117,5.924.4a3.391,3.391,0,0,1,1.91,1.91c.525,1.323.4,4.462.4,5.924S18.336,46.478,17.811,47.8Z" transform="translate(0.075 -31.825)" fill="#fff"/>
</svg>
