<svg xmlns="http://www.w3.org/2000/svg" viewBox="0 0 18 15">
  <g fill="none" fill-rule="evenodd" opacity=".74">
    <g>
      <g>
        <g>
          <g>
            <g>
              <g>
                <g>
                  <g>
                    <path d="M0 0L18 0 18 18 0 18z" transform="translate(-1074 -561) translate(110 541) translate(881 17) translate(83 1)"/>
                    <g fill="#FFF" fill-rule="nonzero">
                      <path d="M18 1.731c-.67.294-1.383.489-2.126.583.765-.457 1.349-1.174 1.623-2.04-.713.426-1.5.726-2.34.894C14.48.447 13.515 0 12.462 0c-2.043 0-3.688 1.658-3.688 3.691 0 .293.025.574.085.842-3.067-.15-5.782-1.62-7.606-3.86-.318.552-.505 1.184-.505 1.865 0 1.278.658 2.41 1.64 3.067C1.793 5.593 1.212 5.42.72 5.15v.04C.72 6.985 2 8.474 3.677 8.818c-.3.082-.628.121-.968.121-.236 0-.475-.013-.699-.063.479 1.461 1.835 2.536 3.449 2.57-1.256.983-2.85 1.575-4.576 1.575-.302 0-.593-.014-.883-.051 1.635 1.054 3.572 1.656 5.661 1.656 6.79 0 10.503-5.625 10.503-10.5 0-.164-.006-.321-.014-.478.733-.52 1.348-1.169 1.85-1.916z" transform="translate(-1074 -561) translate(110 541) translate(881 17) translate(83 1) translate(0 2)"/>
                    </g>
                  </g>
                </g>
              </g>
            </g>
          </g>
        </g>
      </g>
    </g>
  </g>
</svg>
