<svg xmlns="http://www.w3.org/2000/svg" width="23.998" height="23.998" viewBox="0 0 23.998 23.998">
  <path id="Icon_awesome-link" data-name="Icon awesome-link" d="M15.309,8.69a7.121,7.121,0,0,1,.017,10.058l-.017.017-3.15,3.15A7.124,7.124,0,0,1,2.084,11.839L3.823,10.1a.749.749,0,0,1,1.279.5,8.637,8.637,0,0,0,.454,2.471.754.754,0,0,1-.177.779l-.613.613a3.375,3.375,0,1,0,4.742,4.8l3.15-3.149a3.374,3.374,0,0,0,0-4.773,3.511,3.511,0,0,0-.485-.4.752.752,0,0,1-.326-.591,1.867,1.867,0,0,1,.548-1.4l.987-.987a.753.753,0,0,1,.965-.081,7.147,7.147,0,0,1,.962.806Zm6.606-6.606a7.132,7.132,0,0,0-10.075,0l-3.15,3.15-.017.017a7.126,7.126,0,0,0,.979,10.864.753.753,0,0,0,.965-.081l.987-.987a1.867,1.867,0,0,0,.548-1.4.752.752,0,0,0-.326-.591,3.511,3.511,0,0,1-.485-.4,3.374,3.374,0,0,1,0-4.773l3.15-3.149a3.375,3.375,0,1,1,4.742,4.8l-.613.613a.754.754,0,0,0-.177.779A8.637,8.637,0,0,1,18.9,13.4a.749.749,0,0,0,1.279.5l1.739-1.739a7.132,7.132,0,0,0,0-10.075Z" transform="translate(0 0)" fill="#fff"/>
</svg>
