<svg xmlns="http://www.w3.org/2000/svg" width="25.509" height="17.936" viewBox="0 0 25.509 17.936">
  <path id="Icon_awesome-youtube" data-name="Icon awesome-youtube" d="M26.026,7.306a3.205,3.205,0,0,0-2.255-2.27C21.781,4.5,13.8,4.5,13.8,4.5s-7.977,0-9.966.536a3.205,3.205,0,0,0-2.255,2.27,33.623,33.623,0,0,0-.533,6.18,33.623,33.623,0,0,0,.533,6.18A3.157,3.157,0,0,0,3.838,21.9c1.989.536,9.966.536,9.966.536s7.977,0,9.966-.536a3.157,3.157,0,0,0,2.255-2.234,33.623,33.623,0,0,0,.533-6.18,33.623,33.623,0,0,0-.533-6.18ZM11.2,17.279V9.693l6.667,3.793L11.2,17.279Z" transform="translate(-1.05 -4.5)" fill="#fff"/>
</svg>
