<svg id="cup-bar-white" xmlns="http://www.w3.org/2000/svg" width="16" height="16" viewBox="0 0 16 16">
  <path id="Shape" d="M0,0H16V16H0Z" fill="none"/>
  <g id="cup">
    <path id="Shape-2" data-name="Shape" d="M12.268,16H3.732a.469.469,0,1,1,0-.938h.034v-.786A1.726,1.726,0,0,1,5.49,12.552h.786V10.469a4.846,4.846,0,0,1-1.015-.853A4.906,4.906,0,0,1,1.546,7.2,10.158,10.158,0,0,1,0,1.623a.469.469,0,0,1,.469-.469H2.522C2.514.909,2.51.678,2.51.469A.469.469,0,0,1,2.979,0H13.021a.469.469,0,0,1,.469.469c0,.22,0,.451-.011.686h2.053A.469.469,0,0,1,16,1.623,10.158,10.158,0,0,1,14.454,7.2a4.906,4.906,0,0,1-3.715,2.413,4.846,4.846,0,0,1-1.015.853v2.083h.786a1.726,1.726,0,0,1,1.724,1.724v.786h.034a.469.469,0,0,1,0,.938ZM13.426,2.092h0A15.63,15.63,0,0,1,11.97,7.779c-.121.241-.252.479-.391.708a4.537,4.537,0,0,0,2.1-1.8,9.077,9.077,0,0,0,1.379-4.592H13.426Zm-12.478,0A9.077,9.077,0,0,0,2.326,6.684a4.536,4.536,0,0,0,2.1,1.8c-.143-.234-.274-.473-.391-.708A15.63,15.63,0,0,1,2.574,2.092Z" fill="#fff"/>
  </g>
</svg>
