<svg xmlns="http://www.w3.org/2000/svg" width="23.997" height="21.177" viewBox="0 0 23.997 21.177">
  <g id="shuffle" transform="translate(-0.003 -1.414)">
    <path id="Path_11635" data-name="Path 11635" d="M18.414,7.9V9.586a1,1,0,0,0,1.707.707l3.586-3.586a1,1,0,0,0,0-1.414L20.121,1.707a1,1,0,0,0-1.707.707v2.4c-3.35.732-5.6,2.781-7.51,4.911C8.718,7.316,6.08,5.021,1.83,4.586c-.046-.01-.311-.039-.33-.039a1.5,1.5,0,0,0-.131,2.994h0c3.464.3,5.5,2.159,7.549,4.458-2.046,2.3-4.087,4.166-7.552,4.462h0A1.5,1.5,0,0,0,1.5,19.453a.519.519,0,0,0,.111-.008h0C6.84,19,9.649,15.753,12.148,12.86,14.059,10.65,15.792,8.7,18.414,7.9Z" fill="#fff"/>
    <path id="Path_11636" data-name="Path 11636" d="M20.121,13.707a1,1,0,0,0-1.707.707v1.7a9.186,9.186,0,0,1-3.452-2,1.466,1.466,0,0,0-2.062.157l-.025.028a1.49,1.49,0,0,0,.165,2.111,11.977,11.977,0,0,0,5.374,2.79v2.391a1,1,0,0,0,1.707.707l3.586-3.586a1,1,0,0,0,0-1.414Z" fill="#fff"/>
  </g>
</svg>
