<?xml version="1.0" encoding="UTF-8"?>
<svg id="Layer_2" data-name="Layer 2" xmlns="http://www.w3.org/2000/svg" viewBox="0 0 374.35 425.1">
  <defs>
    <style>
      .cls-1, .cls-2 {
        stroke: #280659;
      }

      .cls-1, .cls-2, .cls-3, .cls-4, .cls-5 {
        fill: #fff;
      }

      .cls-1, .cls-2, .cls-3, .cls-5 {
        stroke-miterlimit: 10;
      }

      .cls-2, .cls-6, .cls-3, .cls-7 {
        opacity: .2;
      }

      .cls-6, .cls-8, .cls-7, .cls-9, .cls-10, .cls-4, .cls-11, .cls-12, .cls-13, .cls-14, .cls-15 {
        stroke-width: 0px;
      }

      .cls-6, .cls-8, .cls-9 {
        fill: #dcf200;
      }

      .cls-3, .cls-5 {
        stroke: #fff;
      }

      .cls-8 {
        opacity: .4;
      }

      .cls-10 {
        fill: #918ef4;
      }

      .cls-11 {
        fill: #dbdbdb;
      }

      .cls-12 {
        fill: #ebebeb;
      }

      .cls-13 {
        opacity: .1;
      }

      .cls-14 {
        fill: #280659;
      }

      .cls-15 {
        fill: #8429f5;
      }
    </style>
  </defs>
  <g id="Background_Complete" data-name="Background Complete">
    <g>
      <path class="cls-12" d="m355.45,138.18l5.89-9.49-2.91-1.8c-.85-.53-1.32-1.5-1.23-2.5.05-.55.07-1.11.05-1.67-.02-1,.5-1.94,1.39-2.41l3.01-1.62-5.28-9.85-3.01,1.62c-.88.47-1.95.39-2.77-.18-.46-.32-.93-.61-1.42-.88-.88-.48-1.43-1.4-1.4-2.41l.11-3.42-11.16-.35-.1,3.43c-.03,1.01-.65,1.88-1.56,2.31-.25.12-.49.24-.73.37-.24.13-.48.27-.71.41-.86.52-1.92.55-2.77.02l-2.93-1.81-5.89,9.49,2.91,1.81c.85.53,1.32,1.5,1.23,2.5-.05.55-.07,1.11-.05,1.66.02,1-.5,1.93-1.39,2.41l-3.01,1.62,5.28,9.85,3.01-1.62c.88-.47,1.95-.39,2.77.18.46.32.93.61,1.42.87.88.48,1.43,1.4,1.4,2.41l-.11,3.43,11.16.35.11-3.43c.03-1,.65-1.87,1.55-2.3.25-.12.49-.24.74-.37.24-.13.48-.27.71-.41.86-.52,1.93-.55,2.79-.02l2.91,1.8Zm-9.45-7.05c-4.45,2.39-9.99.72-12.38-3.74-2.39-4.45-.72-10,3.73-12.39,4.45-2.39,10-.71,12.39,3.74,2.39,4.45.71,10-3.74,12.38Z"/>
      <path class="cls-12" d="m33.75,245.72l5.89-9.49-2.91-1.8c-.85-.53-1.32-1.5-1.23-2.5.05-.55.07-1.11.05-1.67-.02-1,.5-1.94,1.39-2.41l3.01-1.62-5.28-9.85-3.01,1.62c-.88.47-1.95.39-2.77-.18-.46-.32-.93-.61-1.42-.88-.88-.48-1.43-1.4-1.4-2.41l.11-3.42-11.16-.35-.1,3.43c-.03,1.01-.65,1.88-1.56,2.31-.25.12-.49.24-.73.37-.24.13-.48.27-.71.41-.86.52-1.92.55-2.77.02l-2.93-1.81-5.89,9.49,2.91,1.81c.85.53,1.32,1.5,1.23,2.5-.05.55-.07,1.11-.05,1.66.02,1-.5,1.93-1.39,2.41l-3.01,1.62,5.28,9.85,3.01-1.62c.88-.47,1.95-.39,2.77.18.46.32.93.61,1.42.87.88.48,1.43,1.4,1.4,2.41l-.11,3.43,11.16.35.11-3.43c.03-1,.65-1.87,1.55-2.3.25-.12.49-.24.74-.37.24-.13.48-.27.71-.41.86-.52,1.93-.55,2.79-.02l2.91,1.8Zm-9.45-7.05c-4.45,2.39-9.99.72-12.38-3.74-2.39-4.45-.72-10,3.73-12.39,4.45-2.39,10-.71,12.39,3.74,2.39,4.45.71,10-3.74,12.38Z"/>
      <path class="cls-12" d="m148.09,63.94l-3.91-6.78-2.07,1.2c-.61.35-1.36.32-1.95-.07-.33-.21-.66-.41-1.01-.59-.63-.32-1.03-.95-1.03-1.65v-2.4h-7.83v2.4c0,.7-.4,1.33-1.03,1.65-.35.18-.69.37-1.01.59-.59.38-1.34.42-1.95.07l-2.07-1.2-3.91,6.78,2.08,1.2c.61.35.95,1.02.91,1.73,0,.19-.01.38-.01.58s0,.38.01.58c.04.7-.3,1.37-.91,1.72l-2.09,1.21,3.91,6.78,2.08-1.2c.61-.35,1.36-.32,1.95.07.32.21.66.41,1.01.58.63.32,1.03.95,1.03,1.65v2.4h7.83v-2.4c0-.7.4-1.33,1.03-1.65.35-.18.68-.37,1.01-.58.59-.39,1.34-.42,1.95-.07l2.08,1.2,3.91-6.78-2.08-1.2c-.61-.35-.94-1.02-.91-1.72,0-.19.01-.39.01-.58s0-.38-.01-.58c-.04-.7.3-1.37.91-1.73l2.08-1.2Zm-7.48,3.5c0,3.54-2.87,6.41-6.41,6.41s-6.41-2.87-6.41-6.41,2.87-6.41,6.41-6.41,6.41,2.87,6.41,6.41Z"/>
    </g>
  </g>
  <g id="Shadow">
    <ellipse class="cls-15" cx="179.47" cy="404.02" rx="149.06" ry="21.08"/>
  </g>
  <g id="_404_Error" data-name="404 Error">
    <g>
      <g>
        <path class="cls-5" d="m89.79,184.88l-6.21-24.43-49.04,12.46-6.48-25.5,39.19-89.31,19.44-4.94,18.9,74.36,15.69-3.99,6.53,25.68-15.69,3.99,6.21,24.43-28.53,7.25Zm-33.6-44.81l24.25-6.16-8.02-31.56-16.23,37.73Z"/>
        <path class="cls-5" d="m230.24,103.32c0,8.1-1.23,15.55-3.68,22.35-2.46,6.81-5.83,12.7-10.12,17.66-4.29,4.97-9.35,8.83-15.18,11.59-5.83,2.76-12.18,4.14-19.04,4.14s-13.25-1.38-19.13-4.14c-5.89-2.76-10.98-6.62-15.27-11.59-4.29-4.97-7.64-10.86-10.03-17.66-2.39-6.81-3.59-14.26-3.59-22.35s1.2-15.55,3.59-22.35c2.39-6.81,5.73-12.7,10.03-17.66,4.29-4.97,9.38-8.86,15.27-11.68,5.89-2.82,12.26-4.23,19.13-4.23s13.22,1.41,19.04,4.23c5.82,2.82,10.88,6.72,15.18,11.68,4.29,4.97,7.67,10.86,10.12,17.66,2.45,6.81,3.68,14.26,3.68,22.35Zm-29.62,0c0-8.58-1.72-15.55-5.15-20.88-3.44-5.34-7.85-8-13.25-8s-10.15,2.67-13.52,8c-3.37,5.34-5.06,12.3-5.06,20.88s1.68,15.52,5.06,20.79c3.37,5.28,7.88,7.91,13.52,7.91s9.81-2.64,13.25-7.91c3.43-5.27,5.15-12.2,5.15-20.79Z"/>
        <path class="cls-5" d="m283.06,180.17l4.03-24.88-49.95-8.09,4.21-25.97,71.51-66.33,19.8,3.21-12.27,75.74,15.98,2.59-4.24,26.15-15.98-2.59-4.03,24.88-29.06-4.71Zm-12.98-54.48l24.7,4,5.21-32.15-29.91,28.15Z"/>
      </g>
      <g>
        <path class="cls-5" d="m140.89,29.67c-2.1,0-4.01-.41-5.72-1.23-1.71-.82-3.18-1.91-4.4-3.27-1.23-1.36-2.18-2.91-2.85-4.67-.67-1.75-1.01-3.54-1.01-5.37s.36-3.74,1.07-5.49c.71-1.75,1.7-3.3,2.95-4.65,1.25-1.35,2.74-2.42,4.46-3.21,1.72-.79,3.6-1.19,5.62-1.19s3.97.42,5.68,1.27c1.71.85,3.17,1.96,4.38,3.33,1.21,1.37,2.15,2.94,2.83,4.69.67,1.75,1.01,3.53,1.01,5.33,0,1.91-.35,3.74-1.05,5.47-.7,1.74-1.67,3.27-2.91,4.6-1.24,1.33-2.72,2.4-4.44,3.19-1.72.8-3.6,1.19-5.62,1.19Zm-8.32-14.54c0,1.24.19,2.44.57,3.6.38,1.16.92,2.18,1.64,3.07.71.89,1.59,1.6,2.63,2.14,1.04.54,2.21.81,3.53.81s2.54-.28,3.57-.83c1.04-.55,1.91-1.29,2.63-2.2.71-.91,1.25-1.95,1.62-3.09.36-1.14.55-2.31.55-3.49s-.2-2.44-.59-3.6c-.39-1.16-.94-2.18-1.66-3.07-.71-.89-1.59-1.6-2.63-2.12-1.04-.52-2.2-.79-3.49-.79s-2.54.28-3.6.83c-1.05.55-1.93,1.28-2.63,2.18-.7.9-1.23,1.93-1.6,3.07-.36,1.15-.55,2.31-.55,3.49Z"/>
        <path class="cls-5" d="m168.45,29.87c-1.72,0-3.27-.3-4.65-.89-1.37-.59-2.54-1.39-3.49-2.4-.96-1.01-1.69-2.17-2.2-3.49-.51-1.32-.77-2.71-.77-4.16s.26-2.88.77-4.2c.51-1.32,1.25-2.48,2.2-3.49.96-1.01,2.12-1.81,3.49-2.4,1.37-.59,2.92-.89,4.65-.89s3.27.3,4.63.89c1.36.59,2.52,1.39,3.47,2.4.96,1.01,1.69,2.17,2.2,3.49.51,1.32.77,2.72.77,4.2s-.26,2.84-.77,4.16c-.51,1.32-1.24,2.48-2.18,3.49-.94,1.01-2.1,1.81-3.47,2.4-1.37.59-2.92.89-4.65.89Zm-5.53-10.95c0,.94.14,1.8.42,2.57.28.77.67,1.43,1.17,2,.5.57,1.08,1,1.76,1.31.67.31,1.4.46,2.18.46s1.51-.15,2.18-.46c.67-.31,1.26-.75,1.76-1.31.5-.57.89-1.24,1.17-2.02.28-.78.42-1.64.42-2.59s-.14-1.76-.42-2.54c-.28-.78-.67-1.45-1.17-2.02-.5-.57-1.08-1-1.76-1.31-.67-.31-1.4-.46-2.18-.46s-1.51.16-2.18.48c-.67.32-1.26.77-1.76,1.33-.5.57-.89,1.24-1.17,2.02-.28.78-.42,1.63-.42,2.54Z"/>
        <path class="cls-5" d="m195.83,29.87c-1.67,0-3.12-.37-4.36-1.11-1.24-.74-2.21-1.74-2.91-3.01v12.32h-5.41V8.3h4.73v3.64c.78-1.24,1.79-2.21,3.03-2.93,1.24-.71,2.67-1.07,4.28-1.07,1.43,0,2.75.29,3.96.87s2.26,1.36,3.13,2.34c.87.98,1.56,2.14,2.06,3.47.5,1.33.75,2.74.75,4.22s-.23,2.98-.69,4.32c-.46,1.35-1.1,2.52-1.92,3.51-.82,1-1.8,1.78-2.93,2.34-1.13.57-2.37.85-3.72.85Zm-1.82-4.6c.81,0,1.55-.17,2.24-.53.69-.35,1.27-.82,1.76-1.41.48-.59.86-1.28,1.13-2.06.27-.78.4-1.59.4-2.42,0-.89-.15-1.72-.44-2.48-.3-.77-.71-1.43-1.23-2-.53-.57-1.14-1.01-1.86-1.33-.71-.32-1.49-.48-2.32-.48-.51,0-1.04.09-1.58.26-.54.18-1.04.42-1.5.75-.46.32-.87.7-1.23,1.13-.36.43-.64.9-.83,1.41v4.97c.49,1.21,1.23,2.22,2.22,3.01,1,.79,2.07,1.19,3.23,1.19Z"/>
        <path class="cls-5" d="m216.76,29.87c-1.78,0-3.51-.28-5.21-.85-1.7-.57-3.15-1.37-4.36-2.42l2.02-3.39c1.29.92,2.55,1.61,3.78,2.08,1.23.47,2.44.71,3.66.71,1.08,0,1.92-.2,2.54-.61.62-.4.93-.98.93-1.74s-.36-1.31-1.09-1.66c-.73-.35-1.91-.75-3.55-1.21-1.37-.38-2.54-.74-3.51-1.09-.97-.35-1.75-.75-2.34-1.19-.59-.44-1.02-.96-1.29-1.53s-.4-1.27-.4-2.08c0-1.08.21-2.05.63-2.91.42-.86,1-1.6,1.76-2.2.75-.61,1.64-1.07,2.65-1.39,1.01-.32,2.11-.48,3.29-.48,1.59,0,3.08.23,4.46.69,1.39.46,2.66,1.2,3.82,2.22l-2.18,3.27c-1.08-.81-2.12-1.4-3.13-1.78-1.01-.38-2.01-.57-3.01-.57-.92,0-1.68.19-2.3.57-.62.38-.93.98-.93,1.82,0,.38.07.69.22.93.15.24.38.46.71.65.32.19.75.37,1.27.55.53.18,1.18.36,1.96.55,1.45.38,2.7.75,3.74,1.13,1.04.38,1.88.81,2.54,1.29.66.48,1.14,1.04,1.46,1.68.31.63.46,1.39.46,2.28,0,2.07-.77,3.71-2.3,4.91-1.53,1.2-3.62,1.8-6.26,1.8Z"/>
        <path class="cls-5" d="m229.89,18.68V.5h5.41v18.18h-5.41Zm0,10.79v-6.1h5.41v6.1h-5.41Z"/>
      </g>
    </g>
  </g>
  <g id="Robot">
    <g>
      <g>
        <rect class="cls-4" x="167.31" y="271.05" width="35.51" height="2.91"/>
        <rect class="cls-4" x="167.31" y="274.84" width="35.51" height="2.91"/>
        <rect class="cls-4" x="167.31" y="278.63" width="35.51" height="2.91"/>
        <rect class="cls-4" x="167.31" y="282.42" width="35.51" height="2.91"/>
        <rect class="cls-4" x="167.31" y="286.21" width="35.51" height="2.91"/>
      </g>
      <g>
        <rect class="cls-4" x="150.68" y="361.8" width="67.52" height="2.91"/>
        <rect class="cls-4" x="150.68" y="365.59" width="67.52" height="2.91"/>
        <rect class="cls-4" x="150.68" y="369.38" width="67.52" height="2.91"/>
        <rect class="cls-4" x="150.68" y="373.17" width="67.52" height="2.91"/>
        <rect class="cls-4" x="150.68" y="376.96" width="67.52" height="2.91"/>
      </g>
      <g>
        <g>
          <path class="cls-5" d="m121.05,247c.03-.39-14.78-5.35-14.78-5.35l.87-50.89,19.64-4.21-5.74,60.45Z"/>
          <path class="cls-3" d="m121.05,247c.03-.39-14.78-5.35-14.78-5.35l.87-50.89,19.64-4.21-5.74,60.45Z"/>
        </g>
        <g>
          <path class="cls-5" d="m256.71,266.98c.1-.38,15.72.06,15.72.06l16.69-48.08-16.99-10.72-15.42,58.74Z"/>
          <path class="cls-3" d="m256.71,266.98c.1-.38,15.72.06,15.72.06l16.69-48.08-16.99-10.72-15.42,58.74Z"/>
        </g>
        <path class="cls-10" d="m118.2,265.74s5.49-82.3,10.31-109.37c0,0,99.42,7.52,153.09,28.03,0,0-27.67,96.13-29.1,100.9,0,0-70.01-13.79-134.29-19.56Z"/>
        <g>
          <path class="cls-13" d="m206.94,167.36c-1.62,9.91-3.25,19.82-4.94,29.71l-5.12,29.68-.28-.42,33.31,7.91,16.64,4.03,16.62,4.11-16.71-3.74-16.69-3.82-33.34-7.79-.34-.08.06-.34,5.31-29.65c1.78-9.88,3.62-19.75,5.48-29.62Z"/>
          <path class="cls-13" d="m203.29,173.01c.02.91-.71,1.84-1.75,1.93-.5.05-1.05-.11-1.46-.47-.41-.36-.66-.91-.66-1.46,0-.56.25-1.11.66-1.46.41-.36.96-.52,1.46-.47,1.04.09,1.76,1.03,1.75,1.93Zm0,0c0-.46-.21-.91-.55-1.2-.34-.29-.79-.41-1.2-.36-.84.1-1.38.85-1.37,1.56-.01.71.53,1.46,1.37,1.56.41.05.86-.07,1.2-.36.34-.29.54-.74.55-1.2Z"/>
          <path class="cls-13" d="m201.54,185.25c.02.91-.71,1.84-1.75,1.93-.5.05-1.05-.11-1.46-.47-.41-.36-.66-.91-.66-1.46,0-.56.25-1.11.66-1.46.41-.36.96-.52,1.46-.47,1.04.09,1.76,1.03,1.75,1.93Zm0,0c0-.46-.21-.91-.55-1.2-.34-.29-.79-.41-1.2-.36-.84.1-1.38.85-1.37,1.56-.01.71.53,1.46,1.37,1.56.41.05.86-.07,1.2-.36.34-.29.54-.74.55-1.2Z"/>
          <path class="cls-13" d="m199.39,198.19c.02.91-.71,1.84-1.75,1.93-.5.05-1.05-.11-1.46-.47-.41-.36-.66-.91-.66-1.46,0-.55.25-1.11.66-1.46.41-.36.96-.52,1.46-.47,1.04.09,1.76,1.03,1.75,1.93Zm0,0c0-.46-.21-.91-.55-1.2-.34-.29-.79-.41-1.2-.36-.84.1-1.38.85-1.37,1.56-.01.71.53,1.46,1.37,1.56.41.05.86-.07,1.2-.36.34-.29.54-.74.55-1.2Z"/>
          <path class="cls-13" d="m197.24,211.13c.02.91-.71,1.84-1.75,1.93-.5.05-1.05-.11-1.46-.47-.41-.36-.66-.91-.66-1.46,0-.56.25-1.11.66-1.46.41-.36.96-.52,1.46-.47,1.04.09,1.76,1.03,1.75,1.93Zm0,0c0-.46-.21-.91-.55-1.2-.34-.29-.79-.41-1.2-.36-.84.1-1.38.85-1.37,1.56-.01.71.53,1.46,1.37,1.56.41.05.86-.07,1.2-.36.34-.29.54-.74.55-1.2Z"/>
          <path class="cls-13" d="m204.57,231.77c.02.91-.71,1.84-1.75,1.93-.5.05-1.05-.11-1.46-.47-.41-.36-.66-.91-.66-1.46,0-.56.25-1.11.66-1.46.41-.36.96-.52,1.46-.47,1.04.09,1.76,1.03,1.75,1.93Zm0,0c0-.46-.21-.91-.55-1.2-.34-.29-.79-.41-1.2-.36-.84.1-1.38.85-1.37,1.56-.01.71.53,1.46,1.37,1.56.41.05.86-.07,1.2-.36.34-.29.54-.74.55-1.2Z"/>
          <path class="cls-13" d="m216.78,234.75c.02.91-.71,1.84-1.75,1.93-.5.05-1.05-.11-1.46-.47-.41-.36-.66-.91-.66-1.46,0-.56.25-1.11.66-1.46.41-.36.96-.52,1.46-.47,1.04.09,1.76,1.03,1.75,1.93Zm0,0c0-.46-.21-.91-.55-1.2-.34-.29-.79-.41-1.2-.36-.84.1-1.38.85-1.37,1.56-.01.71.53,1.46,1.37,1.56.41.05.86-.07,1.2-.36.34-.29.54-.74.55-1.2Z"/>
          <path class="cls-13" d="m228.99,237.73c.02.91-.71,1.84-1.75,1.93-.5.05-1.05-.11-1.46-.47-.41-.36-.66-.91-.66-1.46,0-.56.25-1.11.66-1.46.41-.36.96-.52,1.46-.47,1.04.09,1.76,1.03,1.75,1.93Zm0,0c0-.46-.21-.91-.55-1.2-.34-.29-.79-.41-1.2-.36-.84.1-1.38.85-1.37,1.56-.01.71.53,1.46,1.37,1.56.41.05.86-.07,1.2-.36.34-.29.54-.74.55-1.2Z"/>
          <path class="cls-13" d="m241.21,240.7c.02.91-.71,1.84-1.75,1.93-.5.05-1.05-.11-1.46-.47-.41-.36-.66-.91-.66-1.46,0-.56.25-1.11.66-1.46.41-.36.96-.52,1.46-.47,1.04.09,1.76,1.03,1.75,1.93Zm0,0c0-.46-.21-.91-.55-1.2-.34-.29-.79-.41-1.2-.36-.84.1-1.38.85-1.37,1.56-.01.71.53,1.46,1.37,1.56.41.05.86-.07,1.2-.36.34-.29.54-.74.55-1.2Z"/>
          <path class="cls-13" d="m253.42,243.82c-.05.91-.85,1.78-1.89,1.79-.51,0-1.04-.19-1.42-.58-.38-.39-.58-.95-.54-1.51.05-.55.33-1.08.77-1.41.44-.33,1-.44,1.5-.36,1.03.17,1.68,1.16,1.59,2.06Zm0,0c.03-.46-.14-.92-.45-1.24-.32-.31-.76-.47-1.17-.45-.84.03-1.44.74-1.49,1.45-.07.7.42,1.5,1.25,1.66.4.08.86,0,1.22-.27.36-.26.6-.7.64-1.15Z"/>
          <path class="cls-13" d="m195.09,224.07c.02.91-.71,1.84-1.75,1.93-.5.05-1.05-.11-1.46-.47-.41-.36-.66-.91-.66-1.46,0-.56.25-1.11.66-1.46.41-.36.96-.52,1.46-.47,1.04.09,1.76,1.03,1.75,1.93Zm0,0c0-.46-.21-.91-.55-1.2-.34-.29-.79-.41-1.2-.36-.84.1-1.38.85-1.37,1.56-.01.71.53,1.46,1.37,1.56.41.05.86-.07,1.2-.36.34-.29.54-.74.55-1.2Z"/>
        </g>
        <g>
          <g>
            <circle class="cls-7" cx="155.65" cy="224.51" r="28.23" transform="translate(-110.21 161.64) rotate(-41.96)"/>
            <circle class="cls-14" cx="155.65" cy="224.51" r="22.64" transform="translate(-109.43 290.61) rotate(-69.27)"/>
            <g>
              <rect class="cls-9" x="148.53" y="215.74" width="5.36" height="5.36" transform="translate(36.88 -21.37) rotate(9.2)"/>
              <rect class="cls-9" x="144.09" y="209.59" width="5.36" height="5.36" transform="translate(35.84 -20.74) rotate(9.2)"/>
              <rect class="cls-9" x="165.26" y="213.02" width="5.36" height="5.36" transform="translate(36.66 -24.08) rotate(9.2)"/>
              <rect class="cls-9" x="140.68" y="230.64" width="5.36" height="5.36" transform="translate(39.16 -19.92) rotate(9.2)"/>
              <rect class="cls-9" x="161.85" y="234.07" width="5.36" height="5.36" transform="translate(39.98 -23.27) rotate(9.2)"/>
              <rect class="cls-9" x="146.83" y="226.21" width="5.36" height="5.36" transform="translate(38.53 -20.96) rotate(9.2)"/>
              <rect class="cls-9" x="152.97" y="221.83" width="5.36" height="5.36" transform="translate(37.91 -22) rotate(9.2)"/>
              <rect class="cls-9" x="159.11" y="217.46" width="5.36" height="5.36" transform="translate(37.29 -23.04) rotate(9.2)"/>
              <rect class="cls-9" x="157.42" y="227.92" width="5.36" height="5.36" transform="translate(38.94 -22.64) rotate(9.2)"/>
            </g>
          </g>
          <g>
            <g>
              <circle class="cls-9" cx="231.41" cy="236.35" r="28.23" transform="translate(-98.07 265.54) rotate(-50.67)"/>
              <circle class="cls-6" cx="231.41" cy="236.35" r="28.23" transform="translate(-98.07 265.54) rotate(-50.67)"/>
              <path class="cls-6" d="m258.88,242.88c-.13.56-.28,1.09-.44,1.63l-55.03-11.74c.13-.98.31-1.96.54-2.96,3.6-15.17,18.82-24.54,34-20.94,15.17,3.6,24.54,18.82,20.94,34Z"/>
            </g>
            <circle class="cls-14" cx="231.41" cy="236.35" r="22.64" transform="translate(-73.23 107.48) rotate(-22.68)"/>
            <rect class="cls-9" x="228.73" y="223" width="5.36" height="26.69" transform="translate(60.92 -47.1) rotate(13.37)"/>
            <g>
              <path class="cls-9" d="m260.52,242.35l-57.8-13.74c3.79-15.96,19.81-25.82,35.77-22.03,15.96,3.79,25.83,19.8,22.03,35.76Z"/>
              <path class="cls-6" d="m260.52,242.35l-57.8-13.74c3.79-15.96,19.81-25.82,35.77-22.03,15.96,3.79,25.83,19.8,22.03,35.76Z"/>
            </g>
          </g>
          <path class="cls-13" d="m182.29,253.13c.15-2.26.98-4.55,2.61-6.36.81-.91,1.88-1.63,3.07-2.06,1.19-.44,2.48-.52,3.7-.41,1.24.15,2.51.58,3.55,1.37,1.02.8,1.79,1.84,2.25,2.97.94,2.24,1.05,4.63.59,6.85-.38-2.22-.95-4.37-1.99-6.14-1.03-1.78-2.67-2.89-4.61-3.06-1.99-.25-3.92.29-5.48,1.6-1.56,1.32-2.75,3.2-3.68,5.24Z"/>
        </g>
        <g>
          <path class="cls-4" d="m125.94,195.55c.23-3.02.57-6.02.86-9.03.32-3,.65-6.01,1.02-9,.35-3,.74-5.99,1.12-8.99.38-3,.81-5.98,1.21-8.98l.11-.8.81.05c6.51.41,13.01.94,19.5,1.6,3.25.33,6.49.71,9.72,1.13,3.23.46,6.47.89,9.68,1.48l-19.52-1.21-19.5-1.26.92-.75c-.44,2.99-.85,5.98-1.32,8.96-.46,2.98-.92,5.97-1.41,8.95-.48,2.98-.99,5.96-1.52,8.93-.56,2.97-1.07,5.95-1.68,8.91Z"/>
          <path class="cls-4" d="m130.63,218.36c.66-3.63,2.3-7.08,4.52-10.09.55-.76,1.18-1.46,1.78-2.18.65-.67,1.33-1.33,2-1.99.73-.59,1.47-1.18,2.22-1.75.8-.51,1.58-1.03,2.39-1.52.85-.41,1.7-.83,2.56-1.22l2.68-.93,2.78-.57c.93-.14,1.88-.16,2.81-.24,3.76-.1,7.47.71,10.87,2.08-3.62-.68-7.23-1.05-10.78-.71-3.55.33-6.99,1.39-10.07,3.13-3.11,1.69-5.85,4.03-8.18,6.75-2.31,2.73-4.23,5.82-5.59,9.24Z"/>
          <path class="cls-4" d="m208.51,225.99c1.15-3.5,3.26-6.7,5.87-9.37.65-.67,1.37-1.28,2.06-1.91.74-.58,1.5-1.13,2.26-1.69.81-.49,1.62-.97,2.44-1.43.86-.39,1.71-.8,2.58-1.17.9-.29,1.8-.59,2.71-.86l2.78-.55,2.83-.18c.94,0,1.88.1,2.82.16,3.74.42,7.3,1.73,10.48,3.56-3.49-1.17-7.01-2.04-10.58-2.2-3.56-.16-7.12.41-10.41,1.71-3.31,1.25-6.36,3.19-9.03,5.55-2.67,2.38-4.99,5.18-6.81,8.38Z"/>
        </g>
      </g>
      <g>
        <g>
          <g>
            <path class="cls-9" d="m122.35,317.82c-7.23,0-23.06-1.63-33.25-14.72-13.03-16.76-8.32-48.91-8.12-50.28l5.66.86c-.05.31-4.54,31.09,6.98,45.9,11.26,14.48,31.69,12.4,31.9,12.38l.64,5.69c-.22.03-1.62.17-3.81.17Z"/>
            <path class="cls-8" d="m122.35,317.82c-7.23,0-23.06-1.63-33.25-14.72-13.03-16.76-8.32-48.91-8.12-50.28l5.66.86c-.05.31-4.54,31.09,6.98,45.9,11.26,14.48,31.69,12.4,31.9,12.38l.64,5.69c-.22.03-1.62.17-3.81.17Z"/>
          </g>
          <path class="cls-10" d="m87.32,256.21c-1.03,0-2.09-.09-3.16-.26-9.55-1.55-13.77-7.26-15.64-11.78-1.87-4.53-2.3-10.01-1.28-16.29l12.11,1.96c-.63,3.89-.45,7.31.52,9.65.69,1.66,2.02,3.66,6.26,4.35,1.94.31,4.03.15,6.23-3.16,1.69-2.55,2.71-6.03,3.07-8.23l12.11,1.96c-.28,1.73-1.47,7.79-4.95,13.05-3.79,5.72-9.13,8.75-15.25,8.75Z"/>
          <g>
            <path class="cls-5" d="m133.32,332.84c-.02-.26-10.26-1.9-10.26-1.9l-4.97-33.41,12.4-4.9,2.83,40.2Z"/>
            <path class="cls-3" d="m133.32,332.84c-.02-.26-10.26-1.9-10.26-1.9l-4.97-33.41,12.4-4.9,2.83,40.2Z"/>
          </g>
        </g>
        <g>
          <path class="cls-1" d="m234.52,332.9c.03-.26,10.3-1.67,10.3-1.67l5.71-33.29-12.29-5.17-3.72,40.13Z"/>
          <path class="cls-2" d="m234.52,332.9c.03-.26,10.3-1.67,10.3-1.67l5.71-33.29-12.29-5.17-3.72,40.13Z"/>
        </g>
        <path class="cls-10" d="m129.06,285.16s82.79-3.54,110.75,1.12c0,0-8.21,80.11-8.66,81.66,0,0-82.35-.22-95.22,0,0,0-6.98-53.27-6.87-82.78Z"/>
        <g>
          <path class="cls-7" d="m154.21,307.11s45.19-1.78,60.46.57c0,0-4.48,40.39-4.73,41.18,0,0-44.96-.11-51.98,0,0,0-3.09-27.65-3.75-41.74Z"/>
          <path class="cls-7" d="m160.38,348.84c-1.03,0-1.86.01-2.43.02,0,0-3.08-27.65-3.75-41.75,0,0,1.03-.04,2.82-.1l3.36,41.83Z"/>
          <g>
            <path class="cls-9" d="m173.71,317.08c-2.53-.8-5.23.61-6.03,3.14-.8,2.54.61,5.23,3.14,6.03,2.53.8,5.23-.61,6.02-3.14.8-2.53-.61-5.23-3.14-6.03Zm2.58,5.85c-.7,2.23-3.07,3.46-5.29,2.76-2.22-.7-3.46-3.07-2.76-5.3.7-2.22,3.07-3.46,5.3-2.76,2.22.7,3.45,3.07,2.75,5.29Zm-2.58-5.85c-2.53-.8-5.23.61-6.03,3.14-.8,2.54.61,5.23,3.14,6.03,2.53.8,5.23-.61,6.02-3.14.8-2.53-.61-5.23-3.14-6.03Zm2.58,5.85c-.7,2.23-3.07,3.46-5.29,2.76-2.22-.7-3.46-3.07-2.76-5.3.7-2.22,3.07-3.46,5.3-2.76,2.22.7,3.45,3.07,2.75,5.29Zm-2.58-5.85c-2.53-.8-5.23.61-6.03,3.14-.8,2.54.61,5.23,3.14,6.03,2.53.8,5.23-.61,6.02-3.14.8-2.53-.61-5.23-3.14-6.03Zm2.58,5.85c-.7,2.23-3.07,3.46-5.29,2.76-2.22-.7-3.46-3.07-2.76-5.3.7-2.22,3.07-3.46,5.3-2.76,2.22.7,3.45,3.07,2.75,5.29Zm-.98-10.93c-5.34-1.68-11.03,1.29-12.71,6.62-1.68,5.34,1.28,11.03,6.62,12.71,5.33,1.68,11.02-1.28,12.71-6.62,1.68-5.33-1.28-11.03-6.61-12.71Zm2.25,11.33c-.92,2.92-4.04,4.55-6.97,3.63-2.92-.92-4.55-4.04-3.63-6.97.92-2.92,4.05-4.55,6.97-3.63,2.92.92,4.55,4.04,3.63,6.96Zm-.71-.22c.8-2.53-.61-5.23-3.14-6.03-2.53-.8-5.23.61-6.03,3.14-.8,2.54.61,5.23,3.14,6.03,2.53.8,5.23-.61,6.02-3.14Zm-.56-.18c-.7,2.23-3.07,3.46-5.29,2.76-2.22-.7-3.46-3.07-2.76-5.3.7-2.22,3.07-3.46,5.3-2.76,2.22.7,3.45,3.07,2.75,5.29Zm-2.58-5.85c-2.53-.8-5.23.61-6.03,3.14-.8,2.54.61,5.23,3.14,6.03,2.53.8,5.23-.61,6.02-3.14.8-2.53-.61-5.23-3.14-6.03Zm2.58,5.85c-.7,2.23-3.07,3.46-5.29,2.76-2.22-.7-3.46-3.07-2.76-5.3.7-2.22,3.07-3.46,5.3-2.76,2.22.7,3.45,3.07,2.75,5.29Zm-2.58-5.85c-2.53-.8-5.23.61-6.03,3.14-.8,2.54.61,5.23,3.14,6.03,2.53.8,5.23-.61,6.02-3.14.8-2.53-.61-5.23-3.14-6.03Zm2.58,5.85c-.7,2.23-3.07,3.46-5.29,2.76-2.22-.7-3.46-3.07-2.76-5.3.7-2.22,3.07-3.46,5.3-2.76,2.22.7,3.45,3.07,2.75,5.29Z"/>
            <g>
              <polygon class="cls-9" points="171.21 331.51 167.49 330.34 166.87 333.03 170.17 334.08 171.21 331.51"/>
              <polygon class="cls-9" points="164.53 328.03 162.73 324.58 160.38 326.04 161.99 329.11 164.53 328.03"/>
              <polygon class="cls-9" points="162.27 320.85 163.44 317.13 160.75 316.51 159.7 319.81 162.27 320.85"/>
              <polygon class="cls-9" points="165.75 314.17 169.2 312.37 167.74 310.03 164.67 311.63 165.75 314.17"/>
              <polygon class="cls-9" points="172.93 311.91 176.65 313.08 177.27 310.39 173.97 309.34 172.93 311.91"/>
              <polygon class="cls-9" points="179.61 315.39 181.41 318.85 183.76 317.38 182.15 314.31 179.61 315.39"/>
              <polygon class="cls-9" points="181.87 322.57 180.7 326.29 183.39 326.91 184.44 323.61 181.87 322.57"/>
              <polygon class="cls-9" points="178.39 329.25 174.94 331.05 176.4 333.4 179.47 331.8 178.39 329.25"/>
            </g>
          </g>
          <g>
            <path class="cls-11" d="m190.05,331.22c-1.5-.98-3.5-.55-4.48.95-.98,1.5-.55,3.5.95,4.48,1.5.98,3.5.55,4.48-.95.97-1.5.55-3.5-.94-4.48Zm.61,4.26c-.86,1.32-2.62,1.69-3.93.83-1.32-.86-1.69-2.62-.83-3.93.86-1.32,2.62-1.69,3.93-.83,1.31.86,1.69,2.61.83,3.93Zm-.61-4.26c-1.5-.98-3.5-.55-4.48.95-.98,1.5-.55,3.5.95,4.48,1.5.98,3.5.55,4.48-.95.97-1.5.55-3.5-.94-4.48Zm.61,4.26c-.86,1.32-2.62,1.69-3.93.83-1.32-.86-1.69-2.62-.83-3.93.86-1.32,2.62-1.69,3.93-.83,1.31.86,1.69,2.61.83,3.93Zm-.61-4.26c-1.5-.98-3.5-.55-4.48.95-.98,1.5-.55,3.5.95,4.48,1.5.98,3.5.55,4.48-.95.97-1.5.55-3.5-.94-4.48Zm.61,4.26c-.86,1.32-2.62,1.69-3.93.83-1.32-.86-1.69-2.62-.83-3.93.86-1.32,2.62-1.69,3.93-.83,1.31.86,1.69,2.61.83,3.93Zm1.34-7.27c-3.16-2.06-7.38-1.16-9.44,1.99-2.05,3.16-1.16,7.38,1.99,9.44,3.16,2.05,7.38,1.16,9.44-2,2.06-3.15,1.16-7.38-1.99-9.44Zm-.59,7.76c-1.13,1.73-3.45,2.22-5.17,1.09-1.73-1.12-2.22-3.45-1.09-5.17,1.13-1.73,3.45-2.22,5.17-1.09,1.73,1.12,2.22,3.44,1.09,5.17Zm-.42-.27c.97-1.5.55-3.5-.94-4.48-1.5-.98-3.5-.55-4.48.95-.98,1.5-.55,3.5.95,4.48,1.5.98,3.5.55,4.48-.95Zm-.33-.22c-.86,1.32-2.62,1.69-3.93.83-1.32-.86-1.69-2.62-.83-3.93.86-1.32,2.62-1.69,3.93-.83,1.31.86,1.69,2.61.83,3.93Zm-.61-4.26c-1.5-.98-3.5-.55-4.48.95-.98,1.5-.55,3.5.95,4.48,1.5.98,3.5.55,4.48-.95.97-1.5.55-3.5-.94-4.48Zm.61,4.26c-.86,1.32-2.62,1.69-3.93.83-1.32-.86-1.69-2.62-.83-3.93.86-1.32,2.62-1.69,3.93-.83,1.31.86,1.69,2.61.83,3.93Zm-.61-4.26c-1.5-.98-3.5-.55-4.48.95-.98,1.5-.55,3.5.95,4.48,1.5.98,3.5.55,4.48-.95.97-1.5.55-3.5-.94-4.48Zm.61,4.26c-.86,1.32-2.62,1.69-3.93.83-1.32-.86-1.69-2.62-.83-3.93.86-1.32,2.62-1.69,3.93-.83,1.31.86,1.69,2.61.83,3.93Z"/>
            <g>
              <polygon class="cls-11" points="185.82 340.12 183.62 338.69 182.73 340.33 184.69 341.6 185.82 340.12"/>
              <polygon class="cls-11" points="182.12 336.66 181.58 334.09 179.79 334.62 180.27 336.9 182.12 336.66"/>
              <polygon class="cls-11" points="181.95 331.59 183.38 329.39 181.75 328.5 180.47 330.46 181.95 331.59"/>
              <polygon class="cls-11" points="185.42 327.89 187.98 327.35 187.46 325.56 185.17 326.05 185.42 327.89"/>
              <polygon class="cls-11" points="190.48 327.72 192.68 329.16 193.57 327.52 191.62 326.25 190.48 327.72"/>
              <polygon class="cls-11" points="194.18 331.19 194.73 333.75 196.51 333.23 196.03 330.95 194.18 331.19"/>
              <polygon class="cls-11" points="194.35 336.26 192.92 338.45 194.55 339.34 195.83 337.39 194.35 336.26"/>
              <polygon class="cls-11" points="190.89 339.96 188.32 340.5 188.85 342.29 191.13 341.8 190.89 339.96"/>
            </g>
          </g>
        </g>
        <g>
          <polygon class="cls-10" points="237.81 358.62 241 359.21 250.1 297.58 246.47 296.92 237.81 358.62"/>
          <g>
            <path class="cls-9" d="m209.94,348.85l4.73-41.18,31.8-10.76s-8.66,62.37-8.66,61.7l-27.87-9.77Z"/>
            <path class="cls-8" d="m209.94,348.85l4.73-41.18,31.8-10.76s-8.66,62.37-8.66,61.7l-27.87-9.77Z"/>
          </g>
        </g>
        <path class="cls-4" d="m132.86,309.34c-.52-3.41-.8-6.85-1.01-10.29-.1-1.72-.14-3.45-.18-5.17-.03-1.72-.06-3.45-.01-5.17v-.45s.45-.02.45-.02c6.32-.34,12.63-.75,18.95-1.03,6.32-.31,12.64-.6,18.96-.79-6.3.57-12.61,1.06-18.92,1.51-6.31.49-12.62.85-18.93,1.28l.45-.48-.03,5.15.06,5.15c0,1.72.04,3.44.09,5.16l.11,5.16Z"/>
        <path class="cls-4" d="m219.1,308.28c1.97-.94,3.97-1.81,6-2.61,2.02-.82,4.06-1.6,6.12-2.31,2.06-.7,4.13-1.39,6.24-1.98,2.1-.59,4.22-1.14,6.39-1.49l.53-.09-.1.51c-.5,2.67-1.02,5.33-1.64,7.98.23-2.71.56-5.4.91-8.09l.44.42c-2.1.5-4.18,1.09-6.26,1.7-2.08.62-4.15,1.27-6.21,1.95l-12.42,4.02Z"/>
        <g>
          <polygon class="cls-13" points="146.62 285.33 147.16 295.63 147.62 305.93 148.41 326.54 149.03 347.15 149.28 357.46 149.45 367.77 148.91 357.47 148.45 347.17 147.66 326.56 147.04 305.95 146.79 295.64 146.62 285.33"/>
          <path class="cls-13" d="m143.67,291.54c.2.89-.33,1.94-1.33,2.24-.48.15-1.05.1-1.53-.17-.47-.27-.82-.76-.93-1.3-.11-.54.02-1.13.35-1.56.33-.43.84-.7,1.34-.75,1.04-.12,1.93.66,2.09,1.55Zm0,0c-.09-.45-.38-.85-.77-1.07-.39-.22-.86-.24-1.24-.12-.8.26-1.19,1.11-1.04,1.8.13.7.81,1.33,1.65,1.26.41-.03.83-.24,1.1-.59.28-.35.39-.83.3-1.28Z"/>
          <path class="cls-13" d="m144.38,303.89c.2.89-.33,1.94-1.33,2.24-.48.15-1.05.1-1.53-.17-.47-.27-.82-.76-.93-1.3-.11-.54.02-1.13.35-1.56.33-.43.84-.7,1.34-.75,1.04-.12,1.93.66,2.09,1.55Zm0,0c-.09-.45-.38-.85-.77-1.07-.39-.22-.86-.24-1.24-.12-.8.26-1.19,1.11-1.04,1.8.13.7.81,1.33,1.65,1.26.41-.03.83-.24,1.1-.59.28-.35.39-.83.3-1.28Z"/>
          <path class="cls-13" d="m144.83,316.99c.2.89-.33,1.94-1.33,2.24-.48.15-1.05.1-1.53-.17-.47-.27-.82-.76-.93-1.3-.11-.54.02-1.13.36-1.56.33-.43.84-.7,1.34-.75,1.04-.12,1.93.66,2.09,1.55Zm0,0c-.09-.45-.38-.85-.77-1.07-.39-.22-.86-.24-1.24-.12-.8.26-1.19,1.11-1.04,1.8.13.7.81,1.33,1.65,1.26.41-.03.83-.24,1.1-.59.28-.35.39-.83.3-1.28Z"/>
          <path class="cls-13" d="m145.28,330.1c.2.89-.33,1.94-1.33,2.24-.48.15-1.05.1-1.53-.17-.47-.27-.82-.76-.93-1.3-.11-.54.02-1.13.35-1.56.33-.43.84-.7,1.34-.75,1.04-.12,1.93.66,2.09,1.55Zm0,0c-.09-.45-.38-.85-.77-1.07-.39-.22-.86-.24-1.24-.12-.8.26-1.19,1.11-1.04,1.8.13.7.81,1.33,1.65,1.26.41-.03.83-.24,1.1-.59.28-.35.39-.83.3-1.28Z"/>
          <path class="cls-13" d="m145.73,343.21c.2.89-.33,1.94-1.33,2.24-.48.15-1.05.1-1.53-.17-.47-.27-.82-.76-.93-1.3-.11-.54.02-1.13.35-1.56.33-.43.84-.7,1.34-.75,1.04-.12,1.93.66,2.09,1.55Zm0,0c-.09-.45-.38-.85-.77-1.07-.39-.22-.86-.24-1.24-.12-.8.26-1.19,1.11-1.04,1.8.13.7.81,1.33,1.65,1.26.41-.03.83-.24,1.1-.59.28-.35.39-.83.3-1.28Z"/>
          <path class="cls-13" d="m146.18,356.32c.2.89-.33,1.94-1.33,2.24-.48.15-1.05.1-1.53-.17-.47-.27-.82-.76-.93-1.3-.11-.54.02-1.13.35-1.56.33-.43.84-.7,1.34-.75,1.04-.12,1.93.66,2.09,1.55Zm0,0c-.09-.45-.38-.85-.77-1.07-.39-.22-.86-.24-1.24-.12-.8.26-1.19,1.11-1.04,1.8.13.7.81,1.33,1.65,1.26.41-.03.83-.24,1.1-.59.28-.35.39-.83.3-1.28Z"/>
        </g>
      </g>
      <g>
        <rect class="cls-9" x="107.62" y="381.63" width="48.98" height="5.72" transform="translate(-105.84 54.84) rotate(-16.86)"/>
        <rect class="cls-8" x="107.62" y="381.63" width="48.98" height="5.72" transform="translate(-105.84 54.84) rotate(-16.86)"/>
        <rect class="cls-10" x="123.49" y="381.95" width="5.72" height="8.5" transform="translate(-111.11 56.46) rotate(-17.64)"/>
        <g>
          <polygon class="cls-10" points="104.65 404.07 92.55 351.69 56.04 360.35 74.02 411.39 104.65 404.07"/>
          <g>
            <polygon class="cls-5" points="112.75 401.41 104.65 404.07 92.55 351.69 104.2 354.46 112.75 401.41"/>
            <polygon class="cls-3" points="112.75 401.41 104.65 404.07 92.55 351.69 104.2 354.46 112.75 401.41"/>
          </g>
        </g>
        <circle class="cls-10" cx="151.08" cy="379.1" r="6.21"/>
      </g>
      <g>
        <rect class="cls-9" x="236.95" y="361.71" width="5.72" height="48.98" transform="translate(-199.59 502.78) rotate(-73.02)"/>
        <rect class="cls-10" x="234.66" y="383.25" width="8.5" height="5.72" transform="translate(-201.7 495.77) rotate(-72.23)"/>
        <g>
          <polygon class="cls-10" points="260.58 404.02 272.78 351.67 309.28 360.4 291.19 411.41 260.58 404.02"/>
          <g>
            <polygon class="cls-5" points="252.48 401.34 260.58 404.02 272.78 351.67 261.13 354.42 252.48 401.34"/>
            <polygon class="cls-3" points="252.48 401.34 260.58 404.02 272.78 351.67 261.13 354.42 252.48 401.34"/>
          </g>
        </g>
        <path class="cls-10" d="m207.98,378.94c0,3.43,2.77,6.22,6.2,6.23,3.43,0,6.22-2.77,6.23-6.2,0-3.43-2.77-6.22-6.2-6.23-3.43,0-6.22,2.77-6.23,6.2Z"/>
      </g>
      <g>
        <g>
          <path class="cls-9" d="m254.88,314.34c.15-.14,15.2-14.1,32.91-9.33,18.11,4.89,33.07,32.17,33.21,32.44l5.03-2.72c-.65-1.21-16.25-29.72-36.76-35.25-20.86-5.62-37.64,10.03-38.35,10.7l3.94,4.15Z"/>
          <path class="cls-8" d="m254.88,314.34c.15-.14,15.2-14.1,32.91-9.33,18.11,4.89,33.07,32.17,33.21,32.44l5.03-2.72c-.65-1.21-16.25-29.72-36.76-35.25-20.86-5.62-37.64,10.03-38.35,10.7l3.94,4.15Z"/>
        </g>
        <path class="cls-10" d="m314.34,364.92l10.85-5.73c-1.04-1.97-2.32-5.36-2.51-8.42-.24-3.96,1.33-5.36,3.07-6.27,3.8-2.01,6.07-1.21,7.62-.3,2.17,1.28,4.38,3.91,6.22,7.39l10.85-5.73c-2.97-5.62-6.61-9.74-10.83-12.23-4.21-2.48-11.02-4.5-19.58.02-6.67,3.52-10.07,9.86-9.58,17.86.38,6.3,3.09,11.85,3.9,13.4Z"/>
      </g>
      <g>
        <path class="cls-10" d="m257.17,295.23c2.35-1.62,4.76-3.15,7.17-4.67,2.41-1.53,4.86-2.98,7.31-4.44,2.46-1.44,4.92-2.87,7.42-4.24l3.75-2.05c1.27-.65,2.52-1.33,3.81-1.96-1.17.82-2.37,1.59-3.56,2.38l-3.61,2.29c-2.41,1.52-4.86,2.98-7.31,4.44-2.46,1.44-4.92,2.87-7.43,4.24-2.5,1.38-5,2.74-7.56,4.01Z"/>
        <path class="cls-10" d="m250.94,318.63c3.37,1.92,6.56,4.08,9.7,6.31,3.13,2.25,6.22,4.56,9.12,7.12-3.37-1.92-6.56-4.08-9.7-6.31-3.13-2.25-6.21-4.56-9.12-7.12Z"/>
        <path class="cls-10" d="m256.47,315.75c2.6.79,5.16,1.68,7.71,2.59,2.56.9,5.08,1.87,7.61,2.84,2.52.99,5.04,1.99,7.53,3.05l3.73,1.6c1.23.57,2.48,1.1,3.7,1.7-1.3-.39-2.58-.83-3.87-1.24l-3.83-1.34c-2.56-.9-5.08-1.87-7.61-2.84-2.52-.99-5.04-1.99-7.53-3.05-2.49-1.06-4.98-2.13-7.43-3.3Z"/>
        <path class="cls-10" d="m263.85,297.42c2.49-.65,5-1.19,7.51-1.71,2.51-.53,5.03-.99,7.56-1.45,2.53-.43,5.06-.86,7.6-1.22l3.81-.53c1.28-.14,2.55-.31,3.83-.42-1.24.33-2.5.6-3.75.91l-3.76.8c-2.51.53-5.03.99-7.56,1.45-2.53.43-5.06.86-7.6,1.22-2.54.37-5.08.71-7.64.95Z"/>
      </g>
    </g>
  </g>
  <g id="Gears">
    <g>
      <path class="cls-4" d="m203.84,312.99c1.4-5.9,4.42-12.38,10.31-14.91,4.1-1.63,9.16.4,10.82,4.53.99,2.38,1.67,5.92-.63,7.79-2.01,1.26-3.4-.87-3.78-2.61-1.74-7.86.7-18.01,7.46-22.88,7.24-4.9,17.25-2.3,22.93,3.82,1.46,1.47,2.79,3.08,3.86,4.85-5.7-8.48-16.95-14.1-26.29-7.96-6.44,4.75-8.57,14.37-7.04,21.92.33,1.08.75,2.42,1.83,2.28,1.64-.39,1.72-2.58,1.62-4.02-.38-5.23-5.52-8.98-10.57-7.14-5.75,2.36-8.85,8.61-10.52,14.32h0Z"/>
      <path class="cls-4" d="m111.44,338.91c4.01-7.54,15.06-10.68,21.23-3.87,2.9,3.08,4.61,7.3,4.38,11.56-.11,2.51-1.79,4.87-4.57,3.49-2.19-1.22-1.74-4.23-1.08-6.19,1.39-4.01,4.2-7.38,7.59-9.86,9.43-6.95,21.7-2.69,25.68,8.12.78,1.91,1.35,3.91,1.63,5.95-1.51-7.84-6.96-15.89-15.49-16.55-8.12-.9-15.79,5.26-18.48,12.65-.52,1.58-1.05,4.08.59,5.06.7.36,1.72.47,2.3-.18,1.72-2.32.86-5.82-.02-8.4-4.23-11.43-17.45-11.37-23.76-1.77h0Z"/>
      <path class="cls-4" d="m65.17,97.41c-.26-5.94-1.78-12.75-6.8-16.42-4.47-3-10.35-.57-11.96,4.41-.44,1.37-.88,3.52.62,4.29,1.02.39,1.75-.81,2.32-1.78,3.28-6.97,3.51-16.82-1.61-22.96-7.61-8.19-19.88-5.42-27.43,1.46,1.46-1.47,3.13-2.71,4.9-3.79,6.98-4.58,17.31-4.72,23.18,1.76,5.41,6.39,5.35,16.73,1.79,24-.79,1.58-2.64,3.34-4.29,1.63-1.78-2.37-.29-5.64,1.25-7.72,2.59-3.62,8-4.38,11.58-1.82,5.12,3.86,6.49,10.88,6.45,16.94h0Z"/>
      <path class="cls-4" d="m285.99,149.58c-5.84-1.13-12.82-1.24-17.55,2.78-3.96,3.65-2.97,9.93,1.5,12.66,1.23.74,3.21,1.68,4.31.4.62-.9-.38-1.89-1.19-2.68-6.01-4.82-15.54-7.34-22.7-3.8-9.73,5.46-9.91,18.09-4.98,27.01-1.08-1.76-1.91-3.68-2.54-5.65-2.83-7.85-.55-17.94,7.12-22.13,7.48-3.77,17.52-1.3,23.76,3.86,1.35,1.13,2.63,3.34.58,4.56-2.72,1.18-5.55-1.04-7.21-3.02-2.92-3.36-2.39-8.8.94-11.69,4.95-4.08,12.09-3.78,17.98-2.32h0Z"/>
      <path class="cls-4" d="m224.08,84.88c-2.8-9.84,3.95-21.65,14.94-21.01,5.03.21,10.01,2.39,13.36,6.21,1.97,2.2,2.52,5.55-.95,6.67-2.85.76-4.93-2.15-6-4.35-2.15-4.58-2.58-9.8-1.75-14.74,2.3-13.84,16.2-20.39,28.69-14.54,2.27.98,4.44,2.2,6.39,3.7-4.06-2.75-8.73-4.72-13.59-5.2-9.96-1.3-19.24,6.38-20.59,16.19-.84,5.76-.25,12.54,3.7,17.04.81.79,1.88,1.31,2.88.99.94-.29,1.93-1.09,1.89-2.17-.48-3.48-4.16-5.76-7.11-7.26-13.32-6.23-24.53,4.85-21.87,18.46h0Z"/>
      <g>
        <path class="cls-4" d="m108.09,339.13c-2.24-.71-4.63.54-5.33,2.78-.71,2.24.54,4.63,2.78,5.33,2.24.71,4.62-.54,5.33-2.78.71-2.24-.54-4.63-2.77-5.33Zm2.28,5.18c-.62,1.97-2.72,3.06-4.68,2.44-1.97-.62-3.06-2.72-2.44-4.68.62-1.97,2.72-3.06,4.68-2.44,1.96.62,3.06,2.71,2.44,4.68Zm-2.28-5.18c-2.24-.71-4.63.54-5.33,2.78-.71,2.24.54,4.63,2.78,5.33,2.24.71,4.62-.54,5.33-2.78.71-2.24-.54-4.63-2.77-5.33Zm2.28,5.18c-.62,1.97-2.72,3.06-4.68,2.44-1.97-.62-3.06-2.72-2.44-4.68.62-1.97,2.72-3.06,4.68-2.44,1.96.62,3.06,2.71,2.44,4.68Zm-2.28-5.18c-2.24-.71-4.63.54-5.33,2.78-.71,2.24.54,4.63,2.78,5.33,2.24.71,4.62-.54,5.33-2.78.71-2.24-.54-4.63-2.77-5.33Zm2.28,5.18c-.62,1.97-2.72,3.06-4.68,2.44-1.97-.62-3.06-2.72-2.44-4.68.62-1.97,2.72-3.06,4.68-2.44,1.96.62,3.06,2.71,2.44,4.68Zm-.86-9.67c-4.72-1.49-9.76,1.14-11.24,5.85-1.49,4.72,1.13,9.75,5.86,11.24,4.72,1.49,9.75-1.14,11.24-5.86,1.49-4.72-1.13-9.75-5.85-11.24Zm1.99,10.02c-.81,2.59-3.58,4.03-6.16,3.21-2.58-.81-4.02-3.58-3.21-6.16.81-2.59,3.58-4.02,6.16-3.21,2.58.81,4.02,3.58,3.21,6.16Zm-.63-.2c.71-2.24-.54-4.63-2.77-5.33-2.24-.71-4.63.54-5.33,2.78-.71,2.24.54,4.63,2.78,5.33,2.24.71,4.62-.54,5.33-2.78Zm-.49-.16c-.62,1.97-2.72,3.06-4.68,2.44-1.97-.62-3.06-2.72-2.44-4.68.62-1.97,2.72-3.06,4.68-2.44,1.96.62,3.06,2.71,2.44,4.68Zm-2.28-5.18c-2.24-.71-4.63.54-5.33,2.78-.71,2.24.54,4.63,2.78,5.33,2.24.71,4.62-.54,5.33-2.78.71-2.24-.54-4.63-2.77-5.33Zm2.28,5.18c-.62,1.97-2.72,3.06-4.68,2.44-1.97-.62-3.06-2.72-2.44-4.68.62-1.97,2.72-3.06,4.68-2.44,1.96.62,3.06,2.71,2.44,4.68Zm-2.28-5.18c-2.24-.71-4.63.54-5.33,2.78-.71,2.24.54,4.63,2.78,5.33,2.24.71,4.62-.54,5.33-2.78.71-2.24-.54-4.63-2.77-5.33Zm2.28,5.18c-.62,1.97-2.72,3.06-4.68,2.44-1.97-.62-3.06-2.72-2.44-4.68.62-1.97,2.72-3.06,4.68-2.44,1.96.62,3.06,2.71,2.44,4.68Z"/>
        <g>
          <polygon class="cls-4" points="105.88 351.89 102.59 350.86 102.04 353.24 104.96 354.16 105.88 351.89"/>
          <polygon class="cls-4" points="99.97 348.82 98.38 345.76 96.3 347.05 97.72 349.77 99.97 348.82"/>
          <polygon class="cls-4" points="97.97 342.46 99.01 339.17 96.62 338.62 95.7 341.55 97.97 342.46"/>
          <polygon class="cls-4" points="101.05 336.55 104.1 334.96 102.81 332.89 100.09 334.3 101.05 336.55"/>
          <polygon class="cls-4" points="107.4 334.55 110.69 335.59 111.24 333.21 108.32 332.29 107.4 334.55"/>
          <polygon class="cls-4" points="113.31 337.63 114.9 340.69 116.98 339.39 115.56 336.68 113.31 337.63"/>
          <polygon class="cls-4" points="115.31 343.99 114.27 347.27 116.66 347.83 117.58 344.9 115.31 343.99"/>
          <polygon class="cls-4" points="112.23 349.89 109.17 351.49 110.47 353.56 113.19 352.15 112.23 349.89"/>
        </g>
      </g>
      <g>
        <g>
          <path class="cls-4" d="m273.89,310.55c4.51-6.07,3.24-14.65-2.84-19.16-6.08-4.51-14.66-3.24-19.16,2.83-4.51,6.08-3.24,14.66,2.84,19.17,6.07,4.51,14.65,3.24,19.16-2.84Zm-5.86-4.35c-2.11,2.84-6.11,3.43-8.95,1.33-2.84-2.11-3.43-6.11-1.32-8.95,2.11-2.84,6.11-3.43,8.95-1.32,2.84,2.11,3.43,6.11,1.32,8.95Z"/>
          <polygon class="cls-4" points="257.18 314.51 252.95 311.37 250.96 314.53 254.73 317.33 257.18 314.51"/>
          <polygon class="cls-4" points="250.19 307.1 249.42 301.89 245.77 302.73 246.46 307.36 250.19 307.1"/>
          <polygon class="cls-4" points="250.48 296.93 253.62 292.7 250.45 290.71 247.66 294.47 250.48 296.93"/>
          <polygon class="cls-4" points="257.88 289.93 263.09 289.16 262.25 285.52 257.62 286.2 257.88 289.93"/>
          <polygon class="cls-4" points="268.06 290.22 272.29 293.36 274.27 290.19 270.51 287.4 268.06 290.22"/>
          <polygon class="cls-4" points="275.05 297.62 275.82 302.83 279.47 302 278.78 297.36 275.05 297.62"/>
          <polygon class="cls-4" points="274.76 307.8 271.62 312.03 274.79 314.02 277.58 310.26 274.76 307.8"/>
          <polygon class="cls-4" points="267.36 314.79 262.15 315.56 262.98 319.21 267.62 318.52 267.36 314.79"/>
        </g>
        <path class="cls-4" d="m257.99,303.05l2.91,3.67,4.63-.69,1.72-4.35-2.91-3.67-4.63.68-1.72,4.36Zm5.52-1.88c.66.49.8,1.42.31,2.08-.49.66-1.42.8-2.08.31-.66-.49-.8-1.42-.31-2.08.49-.66,1.42-.8,2.08-.31Z"/>
      </g>
      <g>
        <path class="cls-4" d="m284.16,43.81c-1.96-.62-4.05.47-4.67,2.43-.62,1.96.47,4.05,2.43,4.67,1.96.62,4.05-.47,4.66-2.43.62-1.96-.47-4.05-2.43-4.67Zm2,4.53c-.54,1.72-2.38,2.68-4.1,2.14-1.72-.54-2.68-2.38-2.13-4.1.54-1.72,2.38-2.68,4.1-2.13,1.72.54,2.67,2.38,2.13,4.1Zm-2-4.53c-1.96-.62-4.05.47-4.67,2.43-.62,1.96.47,4.05,2.43,4.67,1.96.62,4.05-.47,4.66-2.43.62-1.96-.47-4.05-2.43-4.67Zm2,4.53c-.54,1.72-2.38,2.68-4.1,2.14-1.72-.54-2.68-2.38-2.13-4.1.54-1.72,2.38-2.68,4.1-2.13,1.72.54,2.67,2.38,2.13,4.1Zm-2-4.53c-1.96-.62-4.05.47-4.67,2.43-.62,1.96.47,4.05,2.43,4.67,1.96.62,4.05-.47,4.66-2.43.62-1.96-.47-4.05-2.43-4.67Zm2,4.53c-.54,1.72-2.38,2.68-4.1,2.14-1.72-.54-2.68-2.38-2.13-4.1.54-1.72,2.38-2.68,4.1-2.13,1.72.54,2.67,2.38,2.13,4.1Zm-.76-8.46c-4.13-1.3-8.54.99-9.84,5.12-1.3,4.13.99,8.54,5.12,9.84,4.13,1.3,8.53-.99,9.84-5.12,1.3-4.13-.99-8.54-5.12-9.84Zm1.74,8.77c-.71,2.26-3.13,3.52-5.39,2.81-2.26-.71-3.52-3.13-2.81-5.39.71-2.26,3.13-3.52,5.39-2.81,2.26.71,3.52,3.13,2.81,5.39Zm-.55-.17c.62-1.96-.47-4.05-2.43-4.67-1.96-.62-4.05.47-4.67,2.43-.62,1.96.47,4.05,2.43,4.67,1.96.62,4.05-.47,4.66-2.43Zm-.43-.14c-.54,1.72-2.38,2.68-4.1,2.14-1.72-.54-2.68-2.38-2.13-4.1.54-1.72,2.38-2.68,4.1-2.13,1.72.54,2.67,2.38,2.13,4.1Zm-2-4.53c-1.96-.62-4.05.47-4.67,2.43-.62,1.96.47,4.05,2.43,4.67,1.96.62,4.05-.47,4.66-2.43.62-1.96-.47-4.05-2.43-4.67Zm2,4.53c-.54,1.72-2.38,2.68-4.1,2.14-1.72-.54-2.68-2.38-2.13-4.1.54-1.72,2.38-2.68,4.1-2.13,1.72.54,2.67,2.38,2.13,4.1Zm-2-4.53c-1.96-.62-4.05.47-4.67,2.43-.62,1.96.47,4.05,2.43,4.67,1.96.62,4.05-.47,4.66-2.43.62-1.96-.47-4.05-2.43-4.67Zm2,4.53c-.54,1.72-2.38,2.68-4.1,2.14-1.72-.54-2.68-2.38-2.13-4.1.54-1.72,2.38-2.68,4.1-2.13,1.72.54,2.67,2.38,2.13,4.1Z"/>
        <g>
          <polygon class="cls-4" points="282.22 54.98 279.35 54.07 278.86 56.16 281.42 56.96 282.22 54.98"/>
          <polygon class="cls-4" points="277.05 52.28 275.66 49.61 273.85 50.74 275.08 53.12 277.05 52.28"/>
          <polygon class="cls-4" points="275.3 46.72 276.21 43.85 274.12 43.37 273.32 45.92 275.3 46.72"/>
          <polygon class="cls-4" points="278 41.55 280.67 40.16 279.54 38.35 277.16 39.58 278 41.55"/>
          <polygon class="cls-4" points="283.56 39.8 286.43 40.71 286.92 38.62 284.36 37.82 283.56 39.8"/>
          <polygon class="cls-4" points="288.73 42.5 290.12 45.17 291.94 44.04 290.7 41.66 288.73 42.5"/>
          <polygon class="cls-4" points="290.48 48.06 289.57 50.93 291.66 51.42 292.46 48.86 290.48 48.06"/>
          <polygon class="cls-4" points="287.78 53.23 285.11 54.62 286.24 56.44 288.62 55.2 287.78 53.23"/>
        </g>
      </g>
      <g>
        <path class="cls-4" d="m245.95,186.67c-1.96-.62-4.05.47-4.67,2.43-.62,1.96.47,4.05,2.43,4.67,1.96.62,4.05-.47,4.66-2.43.62-1.96-.47-4.05-2.43-4.67Zm2,4.53c-.54,1.72-2.38,2.68-4.1,2.14s-2.68-2.38-2.13-4.1c.54-1.72,2.38-2.68,4.1-2.13,1.72.54,2.67,2.38,2.13,4.1Zm-2-4.53c-1.96-.62-4.05.47-4.67,2.43-.62,1.96.47,4.05,2.43,4.67,1.96.62,4.05-.47,4.66-2.43.62-1.96-.47-4.05-2.43-4.67Zm2,4.53c-.54,1.72-2.38,2.68-4.1,2.14s-2.68-2.38-2.13-4.1c.54-1.72,2.38-2.68,4.1-2.13,1.72.54,2.67,2.38,2.13,4.1Zm-2-4.53c-1.96-.62-4.05.47-4.67,2.43-.62,1.96.47,4.05,2.43,4.67,1.96.62,4.05-.47,4.66-2.43.62-1.96-.47-4.05-2.43-4.67Zm2,4.53c-.54,1.72-2.38,2.68-4.1,2.14s-2.68-2.38-2.13-4.1c.54-1.72,2.38-2.68,4.1-2.13,1.72.54,2.67,2.38,2.13,4.1Zm-.76-8.46c-4.13-1.3-8.54.99-9.84,5.12-1.3,4.13.99,8.54,5.12,9.84,4.13,1.3,8.53-.99,9.84-5.12,1.3-4.13-.99-8.54-5.12-9.84Zm1.74,8.77c-.71,2.26-3.13,3.52-5.39,2.81s-3.52-3.13-2.81-5.39c.71-2.26,3.13-3.52,5.39-2.81,2.26.71,3.52,3.13,2.81,5.39Zm-.55-.17c.62-1.96-.47-4.05-2.43-4.67-1.96-.62-4.05.47-4.67,2.43-.62,1.96.47,4.05,2.43,4.67,1.96.62,4.05-.47,4.66-2.43Zm-.43-.14c-.54,1.72-2.38,2.68-4.1,2.14s-2.68-2.38-2.13-4.1c.54-1.72,2.38-2.68,4.1-2.13,1.72.54,2.67,2.38,2.13,4.1Zm-2-4.53c-1.96-.62-4.05.47-4.67,2.43-.62,1.96.47,4.05,2.43,4.67,1.96.62,4.05-.47,4.66-2.43.62-1.96-.47-4.05-2.43-4.67Zm2,4.53c-.54,1.72-2.38,2.68-4.1,2.14s-2.68-2.38-2.13-4.1c.54-1.72,2.38-2.68,4.1-2.13,1.72.54,2.67,2.38,2.13,4.1Zm-2-4.53c-1.96-.62-4.05.47-4.67,2.43-.62,1.96.47,4.05,2.43,4.67,1.96.62,4.05-.47,4.66-2.43.62-1.96-.47-4.05-2.43-4.67Zm2,4.53c-.54,1.72-2.38,2.68-4.1,2.14s-2.68-2.38-2.13-4.1c.54-1.72,2.38-2.68,4.1-2.13,1.72.54,2.67,2.38,2.13,4.1Z"/>
        <g>
          <polygon class="cls-4" points="244.01 197.84 241.13 196.94 240.65 199.02 243.21 199.83 244.01 197.84"/>
          <polygon class="cls-4" points="238.84 195.15 237.45 192.47 235.63 193.61 236.87 195.99 238.84 195.15"/>
          <polygon class="cls-4" points="237.09 189.59 237.99 186.71 235.91 186.23 235.1 188.79 237.09 189.59"/>
          <polygon class="cls-4" points="239.78 184.42 242.46 183.03 241.32 181.21 238.94 182.45 239.78 184.42"/>
          <polygon class="cls-4" points="245.34 182.67 248.22 183.58 248.7 181.49 246.14 180.68 245.34 182.67"/>
          <polygon class="cls-4" points="250.51 185.36 251.9 188.04 253.72 186.9 252.48 184.53 250.51 185.36"/>
          <polygon class="cls-4" points="252.26 190.92 251.35 193.8 253.44 194.28 254.25 191.72 252.26 190.92"/>
          <polygon class="cls-4" points="249.57 196.09 246.89 197.49 248.03 199.3 250.4 198.06 249.57 196.09"/>
        </g>
      </g>
      <g>
        <g>
          <path class="cls-4" d="m27.24,74.2c1.54-6.33-2.34-12.71-8.67-14.25-6.33-1.54-12.71,2.34-14.25,8.67-1.54,6.33,2.34,12.71,8.67,14.25,6.33,1.54,12.71-2.34,14.25-8.67Zm-6.11-1.49c-.72,2.96-3.7,4.77-6.65,4.05-2.96-.72-4.77-3.7-4.05-6.66.72-2.96,3.7-4.77,6.66-4.05,2.96.72,4.77,3.7,4.05,6.65Z"/>
          <polygon class="cls-4" points="15.31 82.93 10.9 81.86 10.38 85.03 14.3 85.99 15.31 82.93"/>
          <polygon class="cls-4" points="7.28 79.4 4.92 75.53 2.31 77.41 4.41 80.85 7.28 79.4"/>
          <polygon class="cls-4" points="4.1 71.23 5.17 66.82 2 66.31 1.04 70.23 4.1 71.23"/>
          <polygon class="cls-4" points="7.63 63.2 11.5 60.85 9.62 58.23 6.18 60.33 7.63 63.2"/>
          <polygon class="cls-4" points="15.8 60.02 20.21 61.1 20.72 57.92 16.8 56.96 15.8 60.02"/>
          <polygon class="cls-4" points="23.83 63.55 26.18 67.43 28.8 65.54 26.7 62.1 23.83 63.55"/>
          <polygon class="cls-4" points="27.01 71.72 25.93 76.13 29.11 76.65 30.07 72.73 27.01 71.72"/>
          <polygon class="cls-4" points="23.48 79.75 19.6 82.11 21.49 84.72 24.93 82.62 23.48 79.75"/>
        </g>
        <path class="cls-4" d="m12.11,73.57l3.54,1.94,3.45-2.1-.09-4.03-3.53-1.94-3.45,2.09.09,4.03Zm3.75-3.34c.69.17,1.11.86.94,1.54-.17.68-.86,1.11-1.54.94-.68-.17-1.11-.86-.94-1.54.17-.69.86-1.11,1.54-.94Z"/>
      </g>
    </g>
  </g>
  <g id="Speech_Bubble" data-name="Speech Bubble">
    <g>
      <g>
        <path class="cls-4" d="m293.81,196.14c-2.69-4.1-4.2-8.7-4.2-13.57,0-17.2,18.88-31.14,42.16-31.14s42.14,13.94,42.14,31.14-18.87,31.14-42.14,31.14c-11.29,0-21.52-3.27-29.08-8.62l-14.52,3.69,5.64-12.64Z"/>
        <path class="cls-14" d="m293.81,196.14c-8.56-12.59-3.58-27.72,8.33-36.06,11.23-8.09,25.93-10.5,39.42-8.22,9.01,1.55,17.9,5.42,24.45,11.92,10.96,10.67,11.18,26.38.32,37.22-16.18,16.21-45.93,17.05-63.58,4.3,0,0-14.55,3.58-14.55,3.58,0,0-.22.05-.22.05,0,0,.09-.2.09-.2l5.74-12.6h0Zm0,0s-5.54,12.69-5.54,12.69c0,0-.13-.15-.13-.15,0,0,14.49-3.81,14.49-3.81l.1-.03c7.5,5.2,16.55,7.91,25.61,8.39,9.01.45,18.24-1.1,26.38-5.06,12.14-5.69,22.12-18.59,17.62-32.42-2.7-8.67-10.02-15.15-18.05-18.97-12.27-5.77-26.83-6.38-39.71-2.26-17.99,5.48-32.24,23.51-20.78,41.62h0Z"/>
      </g>
      <g>
        <path class="cls-14" d="m310.08,187.67v2.32h-9.43v-13.59h9.26v2.32h-6.62v3.27h5.72v2.14h-5.72v3.54h6.79Z"/>
        <path class="cls-14" d="m312.15,189.98v-13.59h6.01c.62,0,1.2.13,1.73.39.53.26.99.61,1.37,1.03.38.43.68.91.9,1.45.22.54.33,1.09.33,1.64,0,.88-.22,1.68-.66,2.4-.44.72-1.04,1.24-1.79,1.56l3.1,5.11h-2.97l-2.77-4.55h-2.6v4.55h-2.64Zm2.64-6.87h3.31c.24,0,.47-.06.68-.17.21-.11.39-.27.55-.47.15-.2.27-.43.36-.7.09-.27.13-.56.13-.86s-.05-.61-.15-.88c-.1-.27-.24-.5-.41-.7-.17-.2-.37-.35-.59-.46-.22-.11-.45-.16-.68-.16h-3.2v4.4Z"/>
        <path class="cls-14" d="m324.87,189.98v-13.59h6.01c.62,0,1.2.13,1.73.39.53.26.99.61,1.37,1.03.38.43.68.91.9,1.45.22.54.33,1.09.33,1.64,0,.88-.22,1.68-.66,2.4-.44.72-1.04,1.24-1.79,1.56l3.1,5.11h-2.97l-2.77-4.55h-2.6v4.55h-2.64Zm2.64-6.87h3.31c.24,0,.47-.06.68-.17.21-.11.39-.27.55-.47.15-.2.27-.43.36-.7.09-.27.13-.56.13-.86s-.05-.61-.15-.88c-.1-.27-.24-.5-.41-.7-.17-.2-.37-.35-.59-.46-.22-.11-.45-.16-.68-.16h-3.2v4.4Z"/>
        <path class="cls-14" d="m343.4,190.08c-1,0-1.9-.19-2.71-.58-.81-.39-1.51-.91-2.09-1.55-.58-.64-1.03-1.38-1.35-2.21-.32-.83-.48-1.68-.48-2.55s.17-1.77.51-2.6c.34-.83.8-1.56,1.4-2.2.59-.64,1.3-1.14,2.12-1.52.82-.38,1.7-.57,2.66-.57s1.88.2,2.69.6c.81.4,1.5.93,2.08,1.58.57.65,1.02,1.39,1.34,2.22.32.83.48,1.67.48,2.53,0,.91-.17,1.77-.5,2.59-.33.82-.79,1.55-1.38,2.18-.59.63-1.29,1.14-2.11,1.51-.82.38-1.7.56-2.66.56Zm-3.94-6.89c0,.59.09,1.15.27,1.7.18.55.44,1.03.78,1.45s.75.76,1.24,1.01c.49.26,1.05.38,1.67.38s1.2-.13,1.69-.39c.49-.26.91-.61,1.24-1.04.34-.43.59-.92.77-1.46.17-.54.26-1.09.26-1.66s-.09-1.15-.28-1.7c-.19-.55-.45-1.03-.78-1.45-.34-.42-.75-.76-1.24-1-.49-.25-1.04-.37-1.66-.37s-1.21.13-1.7.39c-.5.26-.91.61-1.24,1.03-.33.43-.58.91-.76,1.45-.17.54-.26,1.09-.26,1.66Z"/>
        <path class="cls-14" d="m352.07,189.98v-13.59h6.01c.62,0,1.2.13,1.73.39.53.26.99.61,1.37,1.03.38.43.68.91.9,1.45.22.54.33,1.09.33,1.64,0,.88-.22,1.68-.66,2.4-.44.72-1.04,1.24-1.79,1.56l3.1,5.11h-2.97l-2.77-4.55h-2.6v4.55h-2.64Zm2.64-6.87h3.31c.24,0,.47-.06.68-.17.21-.11.39-.27.55-.47.15-.2.27-.43.36-.7.09-.27.13-.56.13-.86s-.05-.61-.15-.88c-.1-.27-.24-.5-.41-.7-.17-.2-.37-.35-.59-.46-.22-.11-.45-.16-.68-.16h-3.2v4.4Z"/>
      </g>
    </g>
  </g>
</svg>