<?xml version="1.0" encoding="iso-8859-1"?>
<!-- Generator: Adobe Illustrator 16.0.0, SVG Export Plug-In . SVG Version: 6.00 Build 0)  -->
<!DOCTYPE svg PUBLIC "-//W3C//DTD SVG 1.1//EN" "http://www.w3.org/Graphics/SVG/1.1/DTD/svg11.dtd">
<svg version="1.1" id="Layer_1" xmlns="http://www.w3.org/2000/svg" xmlns:xlink="http://www.w3.org/1999/xlink" x="0px" y="0px"
	 width="432px" height="407.291px" viewBox="0 0 432 407.291" style="enable-background:new 0 0 432 407.291;" xml:space="preserve"
	>
<g>
	<path style="fill-rule:evenodd;clip-rule:evenodd;fill:#F9F9F9;" d="M394.514,133.57c11.825,6.955,23.121,13.668,34.503,20.233
		c2.195,1.267,3.161,2.598,3.153,5.288c-0.106,36.354-0.114,72.707,0.006,109.061c0.01,3.053-0.807,3.686-3.748,3.678
		c-39.232-0.105-78.466-0.105-117.698,0c-2.878,0.008-3.524-0.791-3.506-3.559c0.124-17.996,0.117-35.994,0.004-53.988
		c-0.017-2.557,0.72-3.154,3.197-3.141c17.276,0.109,34.554,0.002,51.83,0.121c2.539,0.018,3.169-0.66,3.142-3.164
		c-0.136-12.236-0.086-24.475-0.035-36.712c0.008-1.796-0.145-3.001-2.207-3.787c-23.013-8.767-45.979-17.655-68.961-26.505
		c-0.21-0.081-0.452-0.076-0.76-0.124c-0.769,1.179-0.369,2.509-0.369,3.749c-0.025,40.553-0.021,81.105-0.022,121.658
		c0,3.705-2.045,6.033-5.76,6.045c-19.676,0.064-39.353,0.012-59.028,0.064c-1.647,0.006-2.13-0.582-1.949-2.084
		c0.07-0.59,0.011-1.197,0.011-1.797c0-88.064,0.018-176.128-0.07-264.193c-0.003-3.181,0.657-4.133,4.027-4.126
		c56.149,0.119,112.3,0.144,168.449,0.046c15.188-0.026,25.808,6.666,32.167,20.378c0.828,1.786,1.238,3.546,1.235,5.519
		c-0.038,25.196-0.063,50.391,0.038,75.586c0.009,2.349-0.821,3.695-2.588,5.031C418.013,115.58,406.52,124.402,394.514,133.57z
		 M293.189,124.187c0.627-0.173,1.094-0.229,1.493-0.423c22.896-11.147,45.774-22.332,68.701-33.416
		c1.78-0.861,1.991-1.981,1.978-3.652c-0.061-7.677-0.157-15.358,0.045-23.031c0.07-2.688-0.893-3.034-3.252-3.025
		c-21.952,0.089-43.906,0.107-65.859-0.017c-2.711-0.015-3.338,0.668-3.32,3.342c0.127,19.074,0.065,38.148,0.073,57.223
		C293.049,122.121,293.134,123.054,293.189,124.187z"/>
	<path style="fill-rule:evenodd;clip-rule:evenodd;fill:#F9F9F9;" d="M73.748,142.224c0.269-1.337,1.422-1.89,2.238-2.67
		c17.25-16.506,34.54-32.971,51.768-49.501c1.66-1.592,3.309-2.352,5.682-2.343c22.796,0.091,45.594,0.122,68.389-0.025
		c3.081-0.02,3.666,0.852,3.66,3.771c-0.094,53.152-0.131,106.304-0.002,159.457c0.02,8.236-4.031,13.494-10.686,17.277
		c-4.838,2.752-10.252,3.178-15.68,3.18c-49.432,0.02-98.865,0.021-148.298-0.014c-2.87-0.002-5.79-0.107-8.601-0.627
		C9.811,268.44,2.377,260.243,0.99,247.413c-0.361-3.332-0.541-6.701-0.543-10.053c-0.029-71.27-0.01-142.54-0.069-213.81
		c-0.002-2.759,0.649-5.126,2.028-7.456C8.588,5.65,17.543,0.108,29.84,0.114c57.592,0.028,115.184,0.009,172.775,0.035
		c0.882,0,2.114-0.552,2.61,0.474c0.636,1.317-0.78,1.861-1.515,2.511c-20.922,18.53-41.885,37.015-62.779,55.577
		c-1.357,1.207-2.73,1.231-4.281,1.23c-22.316-0.006-44.633,0.043-66.949-0.067c-2.615-0.013-3.371,0.513-3.365,3.28
		c0.098,48.353,0.092,96.706,0.012,145.06c-0.004,2.584,0.474,3.404,3.269,3.387c22.196-0.135,44.394-0.123,66.59-0.012
		c2.679,0.014,3.401-0.652,3.386-3.363c-0.12-20.756-0.138-41.514,0.012-62.27c0.022-3.039-1.053-3.442-3.682-3.429
		c-19.557,0.098-39.114,0.062-58.672,0.032C76.109,142.557,74.891,142.932,73.748,142.224z"/>
	<g>
		<path style="fill:#F9F9F9;" d="M2.018,289.391h68.254c5.794,1.547,8.55,5.501,8.265,11.866v83.47H53.457v-43.781l-26.361,12.82
			v44.325L2.018,384.453v-41.871l51.439-26.596v-6.685H27.096v15.822L2.018,338.217V289.391z"/>
		<path style="fill:#F9F9F9;" d="M114.315,352.129v31.779l-24.225,15.001V290.071l24.225,22.095v13.094l14.534,9.41l11.827-7.364
			v-16.094h-22.799l-24.651-21.959h64.977c5.889,2.912,8.835,7.912,8.835,15.003v35.733l-16.244,8.593l16.101,10.229v27.142
			l-21.943,13.094v-27.143L114.315,352.129z"/>
		<path style="fill:#F9F9F9;" d="M177.596,289.253h55.716l20.946,21.823H202.96v10.229h18.81l19.522,21.686H202.96v20.458h29.354
			l20.804,21.277h-75.521V289.253z"/>
		<path style="fill:#F9F9F9;" d="M265.387,289.391h23.369v18.548l28.642,24.276v-42.824h23.368v95.198h-23.653v-21.822
			l-28.356-23.458v45.28h-23.369V289.391z"/>
		<path style="fill:#F9F9F9;" d="M353.462,289.391h68.255c5.792,1.547,8.549,5.501,8.264,11.866v83.47h-25.078v-43.781
			l-26.362,12.82v44.325l-25.078-13.638v-41.871l51.44-26.596v-6.685H378.54v15.822l-25.078,13.093V289.391z"/>
	</g>
</g>
</svg>
