<svg xmlns="http://www.w3.org/2000/svg" width="181" height="51" viewBox="0 0 181 51">
  <g id="Group_3207" data-name="Group 3207" transform="translate(-729.628 -1131.629)">
    <path id="Path_507" data-name="Path 507" d="M190.681,55.668A5.1,5.1,0,0,1,185.5,60.68H15.871a5.1,5.1,0,0,1-5.19-5.012V15.7a5.11,5.11,0,0,1,5.19-5.019H185.5A5.1,5.1,0,0,1,190.68,15.7V55.668Z" transform="translate(719.447 1121.449)" fill="#fff" stroke="#fff" stroke-width="1"/>
    <path id="Path_508" data-name="Path 508" d="M175.492,91.812a7.352,7.352,0,0,1,3.5-6.169,7.53,7.53,0,0,0-5.931-3.206c-2.495-.263-4.915,1.493-6.186,1.493-1.3,0-3.253-1.467-5.363-1.424a7.9,7.9,0,0,0-6.646,4.054c-2.874,4.976-.731,12.288,2.023,16.31,1.377,1.971,2.987,4.169,5.094,4.092,2.061-.084,2.831-1.313,5.318-1.313,2.464,0,3.187,1.313,5.336,1.263,2.212-.034,3.6-1.979,4.934-3.966a16.261,16.261,0,0,0,2.256-4.6,7.113,7.113,0,0,1-4.338-6.537ZM171.434,79.79A7.237,7.237,0,0,0,173.09,74.6a7.372,7.372,0,0,0-4.767,2.466,6.887,6.887,0,0,0-1.7,4.995A6.089,6.089,0,0,0,171.434,79.79Z" transform="translate(592.721 1063.281)"/>
    <path id="Path_510" data-name="Path 510" d="M523.41,233.119h-2.88l-1.578-4.958h-5.484l-1.5,4.958h-2.8l5.435-16.879h3.356Zm-4.934-7.038-1.427-4.408q-.226-.675-.851-3.18h-.051q-.251,1.077-.8,3.18l-1.4,4.408Zm18.883.8a6.893,6.893,0,0,1-1.687,4.907,4.947,4.947,0,0,1-3.752,1.6,3.756,3.756,0,0,1-3.475-1.726v6.386h-2.7V224.948q0-1.95-.1-4h2.378l.151,1.929h.051a4.81,4.81,0,0,1,7.7-.478A6.731,6.731,0,0,1,537.359,226.884Zm-2.755.1a5.018,5.018,0,0,0-.8-2.931,2.77,2.77,0,0,0-2.354-1.2,2.812,2.812,0,0,0-1.815.663,3.077,3.077,0,0,0-1.064,1.741,3.532,3.532,0,0,0-.125.823v2.031a3.257,3.257,0,0,0,.814,2.243,2.7,2.7,0,0,0,2.116.914,2.771,2.771,0,0,0,2.378-1.177A5.181,5.181,0,0,0,534.6,226.983Zm16.754-.1a6.893,6.893,0,0,1-1.687,4.907,4.949,4.949,0,0,1-3.753,1.6,3.756,3.756,0,0,1-3.475-1.726v6.386h-2.7V224.948q0-1.95-.1-4h2.378l.151,1.929h.051a4.812,4.812,0,0,1,7.7-.478A6.737,6.737,0,0,1,551.358,226.884Zm-2.756.1a5.018,5.018,0,0,0-.8-2.931,2.766,2.766,0,0,0-2.352-1.2,2.823,2.823,0,0,0-1.818.663,3.075,3.075,0,0,0-1.063,1.741,3.609,3.609,0,0,0-.127.823v2.031a3.267,3.267,0,0,0,.813,2.243,2.709,2.709,0,0,0,2.118.914,2.768,2.768,0,0,0,2.378-1.177A5.181,5.181,0,0,0,548.6,226.983Zm18.407,1.4a4.509,4.509,0,0,1-1.5,3.507,6.651,6.651,0,0,1-4.6,1.478,8.025,8.025,0,0,1-4.371-1.051l.625-2.254a7.524,7.524,0,0,0,3.907,1.053,3.685,3.685,0,0,0,2.378-.689,2.25,2.25,0,0,0,.854-1.839,2.357,2.357,0,0,0-.7-1.729,6.512,6.512,0,0,0-2.328-1.3q-4.433-1.653-4.434-4.835a4.269,4.269,0,0,1,1.565-3.406,6.189,6.189,0,0,1,4.145-1.328,8.191,8.191,0,0,1,3.832.8L565.7,219a6.7,6.7,0,0,0-3.243-.776,3.3,3.3,0,0,0-2.237.7,2.008,2.008,0,0,0-.679,1.53,2.068,2.068,0,0,0,.777,1.653,8.763,8.763,0,0,0,2.453,1.3,8.317,8.317,0,0,1,3.205,2.052A4.276,4.276,0,0,1,567.009,228.384Zm8.964-5.407h-2.981v5.909q0,2.254,1.578,2.253a4.754,4.754,0,0,0,1.2-.126l.075,2.053a6.124,6.124,0,0,1-2.1.3,3.241,3.241,0,0,1-2.5-.978,4.8,4.8,0,0,1-.9-3.281v-6.135h-1.776v-2.029h1.776v-2.228l2.656-.8v3.03h2.981Zm13.421,3.956a6.676,6.676,0,0,1-1.6,4.608,5.714,5.714,0,0,1-4.457,1.853,5.448,5.448,0,0,1-4.271-1.776,6.474,6.474,0,0,1-1.59-4.482,6.622,6.622,0,0,1,1.64-4.632,5.685,5.685,0,0,1,4.421-1.8,5.562,5.562,0,0,1,4.306,1.778A6.389,6.389,0,0,1,589.395,226.933Zm-2.8.062a5.449,5.449,0,0,0-.724-2.872,2.677,2.677,0,0,0-2.43-1.45,2.715,2.715,0,0,0-2.48,1.45,5.54,5.54,0,0,0-.726,2.922,5.434,5.434,0,0,0,.726,2.873,2.773,2.773,0,0,0,4.887-.024A5.471,5.471,0,0,0,586.592,227Zm11.6-3.669a4.7,4.7,0,0,0-.852-.075,2.552,2.552,0,0,0-2.2,1.078,4.06,4.06,0,0,0-.675,2.4v6.386h-2.7v-8.338q0-2.1-.079-3.832h2.355l.1,2.329h.075a4.175,4.175,0,0,1,1.352-1.929,3.27,3.27,0,0,1,1.955-.652,4.327,4.327,0,0,1,.676.05Zm12.095,3.132a6.34,6.34,0,0,1-.1,1.227h-8.112a3.531,3.531,0,0,0,1.177,2.757,4.025,4.025,0,0,0,2.653.85,8.973,8.973,0,0,0,3.283-.575l.424,1.876a10.149,10.149,0,0,1-4.08.752,5.916,5.916,0,0,1-4.447-1.664,6.153,6.153,0,0,1-1.615-4.47,6.972,6.972,0,0,1,1.5-4.581,5.183,5.183,0,0,1,4.255-1.952,4.535,4.535,0,0,1,3.984,1.952A6.568,6.568,0,0,1,610.282,226.458Zm-2.579-.7a3.661,3.661,0,0,0-.525-2.079,2.361,2.361,0,0,0-2.154-1.129,2.564,2.564,0,0,0-2.152,1.1,4.04,4.04,0,0,0-.8,2.1Z" transform="translate(274.656 938.839)"/>
    <path id="Path_511" data-name="Path 511" d="M525.693,87.362h-1.417l-.775-2.437h-2.7l-.739,2.437h-1.379l2.671-8.3h1.649ZM523.268,83.9l-.7-2.166c-.073-.222-.209-.738-.419-1.563h-.025c-.086.356-.209.874-.395,1.563L521.04,83.9Zm9.1-2.523-2.265,5.982h-1.293l-2.192-5.982h1.428l1.022,3.163c.173.529.32,1.034.43,1.513h.037c.1-.43.246-.935.43-1.513l1.01-3.163Zm4.822,5.982-.1-.689h-.037a2.04,2.04,0,0,1-1.748.824,1.741,1.741,0,0,1-1.834-1.76c0-1.476,1.28-2.24,3.5-2.24v-.11c0-.788-.419-1.182-1.243-1.182a2.792,2.792,0,0,0-1.563.444l-.27-.874a3.829,3.829,0,0,1,2.056-.518c1.563,0,2.351.824,2.351,2.475v2.2a8.88,8.88,0,0,0,.086,1.428Zm-.185-2.979c-1.478,0-2.216.358-2.216,1.206a.847.847,0,0,0,.911.935,1.272,1.272,0,0,0,1.305-1.218Zm4.255-3.988a.795.795,0,1,1,.837-.8A.781.781,0,0,1,541.265,80.4Zm.69,6.967h-1.329V81.381h1.329Zm3.691,0h-1.329V78.636h1.329Zm5.649,0-.1-.689h-.037a2.04,2.04,0,0,1-1.748.824,1.741,1.741,0,0,1-1.834-1.76c0-1.476,1.28-2.24,3.5-2.24v-.11c0-.788-.419-1.182-1.243-1.182a2.793,2.793,0,0,0-1.563.444L548,81.774a3.83,3.83,0,0,1,2.056-.518c1.563,0,2.351.824,2.351,2.475v2.2a9.214,9.214,0,0,0,.085,1.428h-1.193Zm-.185-2.979c-1.478,0-2.216.358-2.216,1.206a.847.847,0,0,0,.911.935,1.272,1.272,0,0,0,1.305-1.218Zm6.679,3.115a2.03,2.03,0,0,1-1.881-1.059h-.026l-.076.923h-1.133c.037-.479.049-1.022.049-1.612V78.636h1.33v3.62h.025a2.052,2.052,0,0,1,1.908-1c1.441,0,2.451,1.232,2.451,3.028C560.436,86.143,559.315,87.5,557.789,87.5Zm-.27-5.2a1.529,1.529,0,0,0-1.465,1.588v1.046a1.465,1.465,0,0,0,1.442,1.5c1,0,1.588-.812,1.588-2.1C559.083,83.129,558.466,82.3,557.519,82.3Zm6.211,5.059H562.4V78.636h1.328Zm7.236-2.671h-3.99a1.717,1.717,0,0,0,1.883,1.772,4.487,4.487,0,0,0,1.612-.283l.207.923a4.987,4.987,0,0,1-2.005.369,2.777,2.777,0,0,1-2.979-3.015,2.921,2.921,0,0,1,2.83-3.213c1.526,0,2.487,1.133,2.487,2.844A2.512,2.512,0,0,1,570.965,84.691Zm-1.219-.947c0-.923-.468-1.575-1.318-1.575a1.579,1.579,0,0,0-1.454,1.575Zm9.276,3.754a2.847,2.847,0,0,1-2.88-3.077,2.914,2.914,0,0,1,2.981-3.163A2.825,2.825,0,0,1,582,84.323,2.931,2.931,0,0,1,579.023,87.5Zm.051-5.269c-.96,0-1.575.9-1.575,2.154,0,1.232.628,2.13,1.563,2.13s1.561-.96,1.561-2.155C580.623,83.14,580.008,82.229,579.073,82.229Zm10.075,5.133H587.82V83.928c0-1.058-.406-1.588-1.206-1.588a1.382,1.382,0,0,0-1.331,1.465v3.558h-1.328V83.09c0-.529-.014-1.1-.049-1.711h1.169l.062.923h.037a2.146,2.146,0,0,1,1.9-1.046c1.254,0,2.079.96,2.079,2.523v3.583Zm8.7-4.985h-1.462v2.9q0,1.109.774,1.109a2.629,2.629,0,0,0,.591-.062l.037,1.01a2.96,2.96,0,0,1-1.032.148c-1.048,0-1.673-.578-1.673-2.093V82.378h-.873v-1h.873v-1.1l1.3-.394v1.489h1.462Zm7.039,4.985h-1.331V83.953c0-1.071-.406-1.612-1.206-1.612a1.3,1.3,0,0,0-1.328,1.415v3.606h-1.33V78.636h1.33v3.593h.025a2.013,2.013,0,0,1,1.8-.973c1.267,0,2.042.984,2.042,2.548Zm6.792-2.671h-3.989a1.715,1.715,0,0,0,1.882,1.772,4.482,4.482,0,0,0,1.612-.283l.208.923a4.994,4.994,0,0,1-2.006.369,2.777,2.777,0,0,1-2.979-3.015,2.921,2.921,0,0,1,2.83-3.213c1.526,0,2.487,1.133,2.487,2.844A2.582,2.582,0,0,1,611.677,84.691Zm-1.219-.947c0-.923-.467-1.575-1.317-1.575a1.577,1.577,0,0,0-1.453,1.575Z" transform="translate(266.135 1059.676)"/>
  </g>
</svg>
