<svg xmlns="http://www.w3.org/2000/svg" width="30.008" height="29.224" viewBox="0 0 30.008 29.224">
  <g id="arena-lg-white" transform="translate(0 -0.001)">
    <path id="Path_5" data-name="Path 5" d="M12.353,18.518a1.76,1.76,0,0,0-1.759,1.758v4.282q.869.03,1.759.03t1.758-.03V20.276A1.76,1.76,0,0,0,12.353,18.518Z" transform="translate(2.652 4.637)" fill="#a5a3e5"/>
    <path id="Path_6" data-name="Path 6" d="M12.717,13.271a42.577,42.577,0,0,1-7.091-.679v12.8a39.16,39.16,0,0,0,4.455.561V21.759a3.523,3.523,0,0,1,2.636-3.405Z" transform="translate(1.408 3.154)" fill="#a5a3e5"/>
    <path id="Path_7" data-name="Path 7" d="M19.8,12.592a42.593,42.593,0,0,1-7.094.679v5.082a3.523,3.523,0,0,1,2.639,3.406v4.189a39.1,39.1,0,0,0,4.5-.57.877.877,0,0,1-.049-.288Z" transform="translate(3.18 3.153)" fill="#a5a3e5"/>
    <path id="Path_8" data-name="Path 8" d="M25.035,9.454a3,3,0,0,1-1.483,2.007,11.783,11.783,0,0,1-3.281,1.392c-.16.045-.323.09-.488.133v12.8c.131-.034.262-.069.389-.1,3.128-.871,4.771-2.071,4.881-3.567,0-.021,0-.043,0-.064C25.056,22.047,25.049,9.514,25.035,9.454Z" transform="translate(4.953 2.368)" fill="#a5a3e5"/>
    <path id="Path_9" data-name="Path 9" d="M1.5,11.463A2.988,2.988,0,0,1,.019,9.445C.008,9.5,0,13.766,0,15.788s0,4.044,0,6.177a2.828,2.828,0,0,0,1.5,2.293A11.725,11.725,0,0,0,4.776,25.65q.245.07.5.135v-12.8q-.25-.065-.492-.134A11.776,11.776,0,0,1,1.5,11.463Z" transform="translate(0 2.366)" fill="#a5a3e5"/>
    <path id="Path_10" data-name="Path 10" d="M1.846,12.157c2.61-1.362,7.4-2.192,12.807-2.192,5.38,0,10.194.832,12.805,2.191.3-.251.439-.468.439-.619,0-.353-.731-1.067-2.678-1.733.028-.086.044-3.577.044-3.577H26.89a.657.657,0,0,0,.549-.315.836.836,0,0,0,.093-.684l-.38-1.278.38-1.278a.835.835,0,0,0-.093-.684.657.657,0,0,0-.549-.315H24.182a.721.721,0,0,0-.677.759V9.315A39.322,39.322,0,0,0,14.654,8.4V4.553h1.641a.657.657,0,0,0,.549-.315.836.836,0,0,0,.093-.684l-.38-1.278L16.937,1a.836.836,0,0,0-.093-.684A.657.657,0,0,0,16.294,0H13.586a.721.721,0,0,0-.677.759L12.9,8.432A34.744,34.744,0,0,0,4.912,9.546q-.47.134-.868.272v-2.3H5.671a.657.657,0,0,0,.549-.315.836.836,0,0,0,.093-.684l-.38-1.278.38-1.278a.836.836,0,0,0-.093-.684.657.657,0,0,0-.549-.315H2.963a.721.721,0,0,0-.677.759v6.862c0,.006,0,.011,0,.017-.621.38-.88.718-.88.929C1.406,11.688,1.541,11.906,1.846,12.157Z" transform="translate(0.352 0.001)" fill="#a5a3e5"/>
    <path id="Path_11" data-name="Path 11" d="M3.379,10.848c.312.112.658.224,1.04.333a37.225,37.225,0,0,0,9.74,1.145,37.225,37.225,0,0,0,9.74-1.145c.385-.11.733-.222,1.047-.335A34.368,34.368,0,0,0,14.16,9.376,34.76,34.76,0,0,0,3.379,10.848Z" transform="translate(0.846 2.348)" fill="#a5a3e5"/>
  </g>
</svg>
