<svg xmlns="http://www.w3.org/2000/svg" width="16" height="12" viewBox="0 0 16 12"><path d="M.315,4.582,6.952,0l6.671,4.582Zm15.135,6.25c.421.228.441.588.549,1.014H9.824c.108-.426.129-.786.549-1.014.7-.38,1.418,0,1.751-.947a3.533,3.533,0,0,1-.284-.393l-.286-.444a.81.81,0,0,1-.163-.406.307.307,0,0,1,.029-.145.273.273,0,0,1,.1-.112.316.316,0,0,1,.069-.034,6.747,6.747,0,0,1-.013-.8,1.114,1.114,0,0,1,.035-.181,1.069,1.069,0,0,1,.484-.6A1.559,1.559,0,0,1,12.5,6.6c.091-.025-.077-.308.017-.318a2.358,2.358,0,0,1,1.509.694,1.074,1.074,0,0,1,.281.685l-.018.724a.2.2,0,0,1,.151.152.615.615,0,0,1-.079.382.032.032,0,0,1-.005.009l-.327.524a2.708,2.708,0,0,1-.4.538c.59.829,1.073.441,1.822.848ZM0,11.27H1.027v-.7h.15V10.24h.436V6.247H.721V5.291h12.46v.46a1.981,1.981,0,0,0-.861-.142c-.4.039-.539.237-.549.52-.047.024-.094.052-.141.08a1.84,1.84,0,0,0-.466.406,1.743,1.743,0,0,0-.346,1.3l0,.161a.819.819,0,0,0-.171.347V6.247H9.279v3.992h.436v.275c-.035.024-.07.051-.105.079a1.422,1.422,0,0,0-.24.242,1.761,1.761,0,0,0-.206.389,3.77,3.77,0,0,0-.134.4A.543.543,0,0,0,9,11.8a.532.532,0,0,0,.038.2H0v-.73Zm3.687-.7h.5V10.24h.436V6.247H3.253v3.992h.436v.333Zm3.013,0h.5V10.24h.435V6.247H6.266v3.992H6.7v.333Zm3.517-.294v-.039h.135c-.046.013-.091.025-.135.039Zm.436-.115V8.794a1.447,1.447,0,0,0,.065.236,1.7,1.7,0,0,0,.172.317l.3.464c.036.057.074.114.116.175a5.114,5.114,0,0,1-.6.165l-.056.013ZM4.717,3.427,6.962,1.75,9.22,3.427h-4.5Z" fill="#fff" fill-rule="evenodd"/></svg>