<svg xmlns="http://www.w3.org/2000/svg" width="16.973" height="16.973" viewBox="0 0 16.973 16.973">
    <g data-name="Group 929">
        <path data-name="Path 11595" d="m161.919 306.658 1.066.892-1.995 1.675-.471-.469a.594.594 0 0 0-.36-.18l-.14-.017z" transform="translate(-154.771 -296.462)" style="fill:#6f7070"/>
        <path data-name="Path 11596" d="m130.711 270.568 1.046.878-1.867 1.867-.017-.137a.6.6 0 0 0-.177-.357l-.476-.476z" transform="translate(-125.011 -261.59)" style="fill:#6f7070"/>
        <path data-name="Path 11597" d="m271.05 4.78-.138 3.472a.265.265 0 0 1-.095.191l-5.423 4.549-1.122-1.337 3.507-3.507a.262.262 0 0 0-.371-.371l-3.473 3.473-1.143-1.361 4.322-5.151a.27.27 0 0 1 .191-.093l3.472-.138a.265.265 0 0 1 .2.077.258.258 0 0 1 .077.2z" transform="translate(-254.077 -4.507)" style="fill:#6f7070"/>
        <path data-name="Path 11598" d="M11.908 292.452a.265.265 0 0 1-.185.077.209.209 0 0 1-.033 0l-1.339-.168a.257.257 0 0 1-.154-.075L8.808 290.9l-2.188 2.184a1.236 1.236 0 0 1-1.748-1.748l2.187-2.187-1.387-1.389a.258.258 0 0 1-.075-.154l-.168-1.339a.261.261 0 0 1 .075-.219.267.267 0 0 1 .219-.075l1.339.168a.262.262 0 0 1 .154.075l1.732 1.734a.253.253 0 0 1 .075.152l.093.738.738.093a.253.253 0 0 1 .152.075l1.734 1.732a.263.263 0 0 1 .075.154l.168 1.339a.267.267 0 0 1-.075.219z" transform="translate(-4.51 -276.473)" style="fill:#6f7070"/>
        <path data-name="Path 11599" d="M293.086 293.069a1.235 1.235 0 0 1-1.748 0l-2.187-2.187-1.389 1.388a.258.258 0 0 1-.154.075l-1.339.168a.209.209 0 0 1-.033 0 .263.263 0 0 1-.261-.294l.168-1.34a.262.262 0 0 1 .075-.154l1.734-1.732a.253.253 0 0 1 .152-.075l.738-.093.093-.738a.253.253 0 0 1 .075-.152l1.732-1.734a.263.263 0 0 1 .154-.075l1.34-.168a.258.258 0 0 1 .217.075.262.262 0 0 1 .075.219l-.168 1.339a.257.257 0 0 1-.075.154l-1.388 1.389 2.187 2.187a1.239 1.239 0 0 1 .002 1.748z" transform="translate(-276.475 -276.458)" style="fill:#6f7070"/>
        <path data-name="Path 11600" d="M7.773 8.148a.262.262 0 0 1 .371-.371l8.456 8.454.018-.14a.6.6 0 0 1 .178-.36l.472-.472-8.83-10.521a.27.27 0 0 0-.191-.093l-3.471-.138a.262.262 0 0 0-.2.077.258.258 0 0 0-.077.2l.138 3.472a.27.27 0 0 0 .093.191l10.523 8.828.476-.474a.6.6 0 0 1 .357-.177l.137-.017z" transform="translate(-4.502 -4.507)" style="fill:#6f7070"/>
    </g>
</svg>
