<svg xmlns="http://www.w3.org/2000/svg" width="17.058" height="17.058" viewBox="0 0 17.058 17.058"><g ><path d="M0,0H17.058V17.058H0Z" transform="translate(0)" fill="none"/><g transform="translate(0 0)"><path d="M0,4.718l1.407.2L2.23,4.1,4.1,2.23l.823-.823L4.718,0Z" transform="translate(9.121 9.258)" fill="#fff"/><path d="M0,0H2.017V1.137H0Z" transform="translate(12.008 13.574) rotate(-45)" fill="#fff"/><path d="M3.565,2.139,1.426,0,0,1.426,2.139,3.565a.318.318,0,0,0,.44,0l.986-.986A.312.312,0,0,0,3.565,2.139Z" transform="translate(13.255 13.392)" fill="#fff"/><path d="M2.269,1.413,0,4.3,3.385,8.608l3.4-2.674L8.2,0ZM3.646,4.867H.847V4.245h2.8ZM4.89,3.623H1.469V3H4.89Z" transform="translate(8.855)" fill="#fff"/><path d="M0,0,2.864,2.864H6.156v.622H3.486l.622.622h2.67V4.73H4.73l6.091,6.091,1.14-1.14-6.6-8.405Z" transform="translate(0.44 0.137)" fill="#fff"/><path d="M1.275,5.356l8.406,6.6,1.14-1.14L0,0Z" transform="translate(0 0.577)" fill="#fff"/><path d="M.265,0,0,.336l2.72,2.72.717-.564Z" transform="translate(4.52 9.481)" fill="#fff"/><path d="M3.512,4.919l1.407-.2L.2,0,0,1.407l.823.823L2.689,4.1Z" transform="translate(2.88 9.258)" fill="#fff"/><path d="M0,0H1.137V2.017H0Z" transform="translate(2.676 12.952) rotate(-45)" fill="#fff"/><path d="M1.078,3.565a.311.311,0,0,0,.44,0L3.657,1.426,2.23,0,.091,2.139a.311.311,0,0,0,0,.44Z" transform="translate(0.008 13.392)" fill="#fff"/></g></g></svg>
