<svg id="bell" xmlns="http://www.w3.org/2000/svg" width="20.082" height="24.098" viewBox="0 0 20.082 24.098">
  <path id="Path_14" data-name="Path 14" d="M19.458,16.982a6.726,6.726,0,0,1-2.389-5.146v-2.8a7.034,7.034,0,0,0-6.025-6.948V1A1,1,0,0,0,9.037,1V2.089A7.033,7.033,0,0,0,3.012,9.037v2.8a6.733,6.733,0,0,1-2.4,5.154,1.757,1.757,0,0,0,1.143,3.092H18.325a1.757,1.757,0,0,0,1.134-3.1Zm0,0" transform="translate(0)" fill="#fff"/>
  <path id="Path_15" data-name="Path 15" d="M138.642,451.012A3.771,3.771,0,0,0,142.331,448h-7.378A3.772,3.772,0,0,0,138.642,451.012Zm0,0" transform="translate(-128.601 -426.914)" fill="#fff"/>
</svg>
