<svg xmlns="http://www.w3.org/2000/svg" width="15.123" height="20.376" viewBox="0 0 15.123 20.376"><g transform="translate(-66)"><path d="M79.531,110H67.592A1.592,1.592,0,0,0,66,111.592v9.044a1.592,1.592,0,0,0,.742,1.346l5.97,3.77a1.592,1.592,0,0,0,1.7,0l5.97-3.77a1.592,1.592,0,0,0,.742-1.346v-9.044A1.592,1.592,0,0,0,79.531,110Zm-2.294,7.053-.733.714a1,1,0,0,0-.288.888l.173,1.008a1,1,0,0,1-1.455,1.057l-.906-.476a1,1,0,0,0-.934,0l-.906.476a1,1,0,0,1-1.455-1.057l.173-1.008a1,1,0,0,0-.288-.888l-.733-.714a1,1,0,0,1,.556-1.711l1.012-.147a1,1,0,0,0,.755-.549l.453-.917a1,1,0,0,1,1.8,0l.453.917a1,1,0,0,0,.755.549l1.012.147A1,1,0,0,1,77.237,117.053Z" transform="translate(0 -105.622)" fill="#f5b400"/><path d="M79.531,3.184H67.592a1.592,1.592,0,0,1,0-3.184H79.531a1.592,1.592,0,1,1,0,3.184Z" fill="#f5b400"/></g></svg>