<svg xmlns="http://www.w3.org/2000/svg" width="19.915" height="22.76" viewBox="0 0 19.915 22.76">
  <path id="Icon_awesome-building" data-name="Icon awesome-building" d="M19.381,21.337h-.889V1.067A1.067,1.067,0,0,0,17.425,0H2.489A1.067,1.067,0,0,0,1.422,1.067v20.27H.533A.533.533,0,0,0,0,21.871v.889H19.915v-.889A.533.533,0,0,0,19.381,21.337ZM5.69,3.378a.533.533,0,0,1,.533-.533H8a.533.533,0,0,1,.533.533V5.156A.533.533,0,0,1,8,5.69H6.223a.533.533,0,0,1-.533-.533Zm0,4.267a.533.533,0,0,1,.533-.533H8a.533.533,0,0,1,.533.533V9.424A.533.533,0,0,1,8,9.957H6.223a.533.533,0,0,1-.533-.533ZM8,14.225H6.223a.533.533,0,0,1-.533-.533V11.913a.533.533,0,0,1,.533-.533H8a.533.533,0,0,1,.533.533v1.778A.533.533,0,0,1,8,14.225Zm3.378,7.112H8.535V17.6a.533.533,0,0,1,.533-.533h1.778a.533.533,0,0,1,.533.533Zm2.845-7.646a.533.533,0,0,1-.533.533H11.913a.533.533,0,0,1-.533-.533V11.913a.533.533,0,0,1,.533-.533h1.778a.533.533,0,0,1,.533.533Zm0-4.267a.533.533,0,0,1-.533.533H11.913a.533.533,0,0,1-.533-.533V7.646a.533.533,0,0,1,.533-.533h1.778a.533.533,0,0,1,.533.533Zm0-4.267a.533.533,0,0,1-.533.533H11.913a.533.533,0,0,1-.533-.533V3.378a.533.533,0,0,1,.533-.533h1.778a.533.533,0,0,1,.533.533Z" fill="#fff"/>
</svg>
