<svg xmlns="http://www.w3.org/2000/svg" width="34.978" height="30.605" viewBox="0 0 34.978 30.605">
  <path id="Icon_awesome-camera" data-name="Icon awesome-camera" d="M34.978,9.9V29.576A3.28,3.28,0,0,1,31.7,32.855H3.279A3.28,3.28,0,0,1,0,29.576V9.9A3.28,3.28,0,0,1,3.279,6.622H9.291l.84-2.248A3.275,3.275,0,0,1,13.2,2.25h8.574A3.275,3.275,0,0,1,24.84,4.375l.847,2.248H31.7A3.28,3.28,0,0,1,34.978,9.9Zm-9.291,9.837a8.2,8.2,0,1,0-8.2,8.2A8.2,8.2,0,0,0,25.687,19.739Zm-2.186,0a6.012,6.012,0,1,1-6.012-6.012A6.021,6.021,0,0,1,23.5,19.739Z" transform="translate(0 -2.25)" fill="#fff"/>
</svg>
