<svg xmlns="http://www.w3.org/2000/svg" width="20.648" height="20.648" viewBox="0 0 20.648 20.648">
  <g id="chat" transform="translate(-100 -3)">
    <g id="Group_2" data-name="Group 2" transform="translate(100 3)">
      <path id="Path_13" data-name="Path 13" d="M10.324,0A10.336,10.336,0,0,0,0,10.324V20a.645.645,0,0,0,.645.645h9.679A10.324,10.324,0,1,0,10.324,0Zm.645,12.905H5.807a.645.645,0,1,1,0-1.291h5.162a.645.645,0,1,1,0,1.291Zm3.872-3.872H5.807a.645.645,0,1,1,0-1.291h9.034a.645.645,0,1,1,0,1.291Z" fill="#fff"/>
    </g>
  </g>
</svg>
