<svg xmlns="http://www.w3.org/2000/svg" width="22" height="22" viewBox="0 0 22 22">
  <path id="Icon_awesome-check-double" data-name="Icon awesome-check-double" d="M21.7,7.509,20,5.808a1.027,1.027,0,0,0-1.457,0L8.248,16.1l-4.787-4.79a1.027,1.027,0,0,0-1.457,0L.3,13.013a1.032,1.032,0,0,0,0,1.461L7.518,21.7a1.027,1.027,0,0,0,1.457,0L21.693,8.97A1.036,1.036,0,0,0,21.7,7.509ZM7.763,12.063a.682.682,0,0,0,.971,0l8.937-8.945a.69.69,0,0,0,0-.971L15.729.2a.682.682,0,0,0-.971,0L8.248,6.71,5.868,4.326a.682.682,0,0,0-.971,0L2.951,6.272a.69.69,0,0,0,0,.971Z" transform="translate(0.004 0.002)" fill="#fff" opacity="0.997"/>
</svg>
