<svg xmlns="http://www.w3.org/2000/svg" width="23.643" height="27.02" viewBox="0 0 23.643 27.02"><path d="M16.888,23.643v2.111a1.267,1.267,0,0,1-1.267,1.267H1.267A1.267,1.267,0,0,1,0,25.754V6.333A1.267,1.267,0,0,1,1.267,5.066h3.8V20.687a2.959,2.959,0,0,0,2.955,2.955Zm0-18.154V0H8.022A1.267,1.267,0,0,0,6.755,1.267V20.687a1.267,1.267,0,0,0,1.267,1.267H22.376a1.267,1.267,0,0,0,1.267-1.267V6.755H18.154A1.27,1.27,0,0,1,16.888,5.488Zm6.384-1.638L19.792.371A1.267,1.267,0,0,0,18.9,0h-.32V5.066h5.066v-.32a1.267,1.267,0,0,0-.371-.9Z" fill="#fff"/></svg>