<svg xmlns="http://www.w3.org/2000/svg" width="214.916" height="148.118" viewBox="0 0 214.916 148.118">
  <g id="OBJECTS" transform="matrix(0.995, -0.105, 0.105, 0.995, 0, 21.238)">
    <g id="Group_5094" data-name="Group 5094">
      <g id="Group_5092" data-name="Group 5092">
        <path id="Path_21865" data-name="Path 21865" d="M219.532,99.945l-40.118,35.389L121.459,78.62,79.806,148.192,32.02,124.147,51.968,175.2h0c2.535,6.393,38.663,7.1,82.15,1.483s78.251-15.468,79.078-22.3h0l6.328-54.449Z" transform="translate(-21.079 -51.756)" fill="#e1a000"/>
        <g id="Group_5067" data-name="Group 5067" transform="translate(129.974 55.823)">
          <path id="Path_21866" data-name="Path 21866" d="M380.38,163.37l4.473,65.9q5.761-.994,11.132-2.06l-1.835-50.362Z" transform="translate(-380.38 -163.37)" fill="#d47b12"/>
          <path id="Path_21867" data-name="Path 21867" d="M448.641,205.53l-7.651-7.487.837,42.336a220.071,220.071,0,0,0,27.192-7.4l2.611-47.728Z" transform="translate(-420.28 -177.774)" fill="#d47b12"/>
        </g>
        <path id="Path_21868" data-name="Path 21868" d="M106.09,43.5,62.11,117.764,11.02,87.606l17.85,45.688h0c2.747,6.926,41.9,7.688,89.015,1.606s84.788-16.76,85.69-24.158h0l5.662-48.726-41.758,42.145Z" transform="translate(-7.255 -28.636)" fill="#f0c11b"/>
        <path id="Path_21869" data-name="Path 21869" d="M159.712,61.454,96.915,0,51.784,75.385,0,49.337,3.765,58.97l51.09,30.161,43.98-74.267,61.392,60.664,41.762-42.145,1.193-10.275Z" fill="#f0c11b"/>
        <path id="Path_21870" data-name="Path 21870" d="M106.674,48.038l61.4,60.664,40.5-40.87.677-5.812-41.762,42.145L106.09,43.5,62.11,117.767,11.02,87.606l2.125,5.45L62.694,122.3Z" transform="translate(-7.255 -28.636)" fill="#d47b12"/>
        <path id="Path_21871" data-name="Path 21871" d="M172.164,117.444l-61.4-60.664-43.98,74.264L17.24,101.8l2.662,6.8,48.927,28.945,43.5-68.691,59.516,55.4,40.115-41.629.7-6.048Z" transform="translate(-11.349 -37.379)" fill="#e1a000"/>
        <path id="Path_21872" data-name="Path 21872" d="M196.681,0,151.55,75.385,198.1,1.391Z" transform="translate(-99.766)" fill="#fff"/>
        <path id="Path_21873" data-name="Path 21873" d="M467.41,105.975,510.88,67.63l-.239,2.057Z" transform="translate(-307.699 -44.521)" fill="#fff"/>
        <g id="Group_5069" data-name="Group 5069" transform="translate(7.121 73.505)">
          <path id="Path_21874" data-name="Path 21874" d="M20.84,215.557l2.32-.437L41.13,226.7l-5.792,19.576-2.324.434Z" transform="translate(-20.84 -215.12)" fill="#d47b12"/>
          <path id="Path_21875" data-name="Path 21875" d="M20.84,216.4l17.97,11.58-5.8,19.572Z" transform="translate(-20.84 -215.963)" fill="#f2d042"/>
          <path id="Path_21876" data-name="Path 21876" d="M24.99,227.01l13.429,8.84L34.257,250.72Z" transform="translate(-23.572 -222.947)" fill="#e1a000"/>
          <g id="Group_5068" data-name="Group 5068" transform="translate(1.227 5.737)">
            <path id="Path_21877" data-name="Path 21877" d="M24.43,258.736h0l8.829,8.228,3.8-12.834Z" transform="translate(-24.43 -246.538)" fill="#610e78"/>
            <path id="Path_21878" data-name="Path 21878" d="M37.059,239.5,25.274,231.91l-.844,12.2L37.059,239.5Z" transform="translate(-24.43 -231.91)" fill="#9135bc"/>
          </g>
        </g>
        <g id="Group_5071" data-name="Group 5071" transform="translate(185.745 48.719)">
          <path id="Path_21879" data-name="Path 21879" d="M560.4,142.58l-2.358.164L543.6,158.51l10.576,17.461,2.354-.167Z" transform="translate(-543.6 -142.58)" fill="#d47b12"/>
          <path id="Path_21880" data-name="Path 21880" d="M564.94,142.58,550.5,158.346,561.072,175.8Z" transform="translate(-548.142 -142.58)" fill="#f2d042"/>
          <path id="Path_21881" data-name="Path 21881" d="M570.743,153.9,560,165.859l7.8,13.326Z" transform="translate(-554.396 -150.032)" fill="#e1a000"/>
          <g id="Group_5070" data-name="Group 5070" transform="translate(6.67 5.652)">
            <path id="Path_21882" data-name="Path 21882" d="M576.508,190.617h0l-6.455,10.2-6.933-11.45Z" transform="translate(-563.12 -179.034)" fill="#610e78"/>
            <path id="Path_21883" data-name="Path 21883" d="M563.12,169.456l9.468-10.336,3.919,11.583-13.388-1.247Z" transform="translate(-563.12 -159.12)" fill="#9135bc"/>
          </g>
        </g>
        <g id="Group_5072" data-name="Group 5072" transform="translate(104.12 108.122)">
          <circle id="Ellipse_1053" data-name="Ellipse 1053" cx="6.844" cy="6.844" r="6.844" transform="translate(0 13.545) rotate(-81.69)" fill="#f2d042"/>
          <path id="Path_21884" data-name="Path 21884" d="M322.24,327.759a5.53,5.53,0,1,1-6.192-4.777A5.53,5.53,0,0,1,322.24,327.759Z" transform="translate(-309.001 -320.712)" fill="#9135bc"/>
          <path id="Path_21885" data-name="Path 21885" d="M321.667,327.34a6.034,6.034,0,0,1-8.737,6.492,5.528,5.528,0,1,0,8.737-6.489Z" transform="translate(-310.123 -323.611)" fill="#610e78"/>
          <path id="Path_21886" data-name="Path 21886" d="M314.85,328.022a1.366,1.366,0,0,0-.226,1.432.994.994,0,0,0,.755.41,2.394,2.394,0,0,0,.875-.126,7.972,7.972,0,0,0,2.812-1.5,2.455,2.455,0,0,0,.9-1.21,1.208,1.208,0,0,0-.376-1.206,1.185,1.185,0,0,0-.936-.109,5.457,5.457,0,0,0-2.675,1.1,5.182,5.182,0,0,0-1.128,1.206Z" transform="translate(-311.154 -322.51)" fill="#a48aff"/>
        </g>
        <g id="Group_5073" data-name="Group 5073" transform="translate(71.122 110.529)">
          <circle id="Ellipse_1054" data-name="Ellipse 1054" cx="6.236" cy="6.236" r="6.236" transform="matrix(0.567, -0.824, 0.824, 0.567, 0, 10.272)" fill="#f2d042"/>
          <path id="Path_21887" data-name="Path 21887" d="M228.817,338.493a5.041,5.041,0,1,1-5.645-4.353A5.043,5.043,0,0,1,228.817,338.493Z" transform="translate(-215.145 -330.468)" fill="#9135bc"/>
          <path id="Path_21888" data-name="Path 21888" d="M228.3,338.1a5.5,5.5,0,0,1-7.961,5.915A5.038,5.038,0,1,0,228.3,338.1Z" transform="translate(-216.173 -333.102)" fill="#610e78"/>
          <path id="Path_21889" data-name="Path 21889" d="M222.09,338.735a1.241,1.241,0,0,0-.205,1.305.907.907,0,0,0,.687.372,2.187,2.187,0,0,0,.8-.116,7.3,7.3,0,0,0,2.563-1.37,2.226,2.226,0,0,0,.817-1.1,1.1,1.1,0,0,0-.342-1.1,1.087,1.087,0,0,0-.854-.1,4.951,4.951,0,0,0-2.436,1.008,4.77,4.77,0,0,0-1.029,1.1Z" transform="translate(-217.113 -332.107)" fill="#a48aff"/>
        </g>
        <g id="Group_5075" data-name="Group 5075" transform="translate(47.28 113.983)">
          <path id="Path_21890" data-name="Path 21890" d="M147.8,338.009a4.743,4.743,0,1,1-5.341-4.391A4.893,4.893,0,0,1,147.8,338.009Z" transform="translate(-138.37 -333.581)" fill="#f2d042"/>
          <g id="Group_5074" data-name="Group 5074" transform="translate(0.466 1.019)">
            <path id="Path_21891" data-name="Path 21891" d="M147.36,340.143a3.834,3.834,0,1,1-4.316-3.55A3.96,3.96,0,0,1,147.36,340.143Z" transform="translate(-139.735 -336.563)" fill="#9135bc"/>
            <path id="Path_21892" data-name="Path 21892" d="M146.974,339.863a4.756,4.756,0,0,1-.3,2.751,4.222,4.222,0,0,1-2.98,2.433,4.089,4.089,0,0,1-2.73-.458,3.849,3.849,0,0,0,3.933,2.255,3.958,3.958,0,0,0,3.273-4.531,4.226,4.226,0,0,0-1.193-2.453Z" transform="translate(-140.541 -338.733)" fill="#610e78"/>
            <path id="Path_21893" data-name="Path 21893" d="M142.22,340.286a1.045,1.045,0,0,0-.147,1.052.69.69,0,0,0,.526.3,1.522,1.522,0,0,0,.6-.089,5.3,5.3,0,0,0,1.937-1.09,1.788,1.788,0,0,0,.615-.885.937.937,0,0,0-.267-.888.785.785,0,0,0-.649-.085,3.585,3.585,0,0,0-1.845.8,3.688,3.688,0,0,0-.776.882Z" transform="translate(-141.214 -337.888)" fill="#a48aff"/>
          </g>
        </g>
        <g id="Group_5077" data-name="Group 5077" transform="translate(28.982 112.373)">
          <path id="Path_21894" data-name="Path 21894" d="M92.314,333.412c.355,2.761-1.018,5.214-3.072,5.477s-4-1.76-4.36-4.517,1.018-5.214,3.072-5.477S91.959,330.654,92.314,333.412Z" transform="translate(-84.823 -328.871)" fill="#f2d042"/>
          <g id="Group_5076" data-name="Group 5076" transform="translate(0 1.057)">
            <path id="Path_21895" data-name="Path 21895" d="M90.867,335.636c.287,2.231-.823,4.213-2.481,4.428s-3.236-1.421-3.523-3.653.823-4.213,2.481-4.428S90.58,333.4,90.867,335.636Z" transform="translate(-84.818 -331.964)" fill="#9135bc"/>
            <path id="Path_21896" data-name="Path 21896" d="M90.594,335.46a5.778,5.778,0,0,1-.167,2.734,3.357,3.357,0,0,1-2.3,2.347,2.793,2.793,0,0,1-2.183-.53,3.248,3.248,0,0,0,3.185,2.351c1.657-.215,2.768-2.2,2.481-4.428a4.981,4.981,0,0,0-1.011-2.474Z" transform="translate(-85.557 -334.266)" fill="#610e78"/>
            <path id="Path_21897" data-name="Path 21897" d="M86.709,335.605a1.238,1.238,0,0,0-.089,1.046.579.579,0,0,0,.424.318.959.959,0,0,0,.478-.072,3.771,3.771,0,0,0,1.514-1.035,1.688,1.688,0,0,0,.465-.868,1.143,1.143,0,0,0-.236-.892c-.154-.167-.342-.123-.519-.1a2.436,2.436,0,0,0-1.445.745,3.24,3.24,0,0,0-.591.858Z" transform="translate(-85.95 -333.29)" fill="#a48aff"/>
          </g>
        </g>
        <g id="Group_5078" data-name="Group 5078" transform="translate(134.997 102.199)">
          <circle id="Ellipse_1055" data-name="Ellipse 1055" cx="6.236" cy="6.236" r="6.236" transform="translate(0 9.908) rotate(-52.6)" fill="#f2d042"/>
          <circle id="Ellipse_1056" data-name="Ellipse 1056" cx="5.04" cy="5.04" r="5.04" transform="translate(1.654 7.998) rotate(-39.04)" fill="#9135bc"/>
          <path id="Path_21898" data-name="Path 21898" d="M406.688,316.87a5.5,5.5,0,0,0,9.2,3.7,5.039,5.039,0,1,1-9.205-3.7Z" transform="translate(-402.216 -310.796)" fill="#610e78"/>
          <path id="Path_21899" data-name="Path 21899" d="M420.229,313.848a1.246,1.246,0,0,1,.53,1.21.909.909,0,0,1-.571.536,2.1,2.1,0,0,1-.8.089,7.293,7.293,0,0,1-2.826-.673,2.244,2.244,0,0,1-1.073-.858,1.1,1.1,0,0,1,.055-1.148,1.058,1.058,0,0,1,.8-.311,4.929,4.929,0,0,1,2.614.355,4.724,4.724,0,0,1,1.275.8Z" transform="translate(-408.427 -308.017)" fill="#a48aff"/>
        </g>
        <g id="Group_5080" data-name="Group 5080" transform="translate(165.228 98.098)">
          <ellipse id="Ellipse_1057" data-name="Ellipse 1057" cx="4.736" cy="5.04" rx="4.736" ry="5.04" transform="translate(0 1.213) rotate(-7.36)" fill="#f2d042"/>
          <g id="Group_5079" data-name="Group 5079" transform="translate(1.452 1.044)">
            <ellipse id="Ellipse_1058" data-name="Ellipse 1058" cx="3.827" cy="4.073" rx="3.827" ry="4.073" transform="translate(0 0.979) rotate(-7.35)" fill="#9135bc"/>
            <path id="Path_21900" data-name="Path 21900" d="M489.819,296.963a4.749,4.749,0,0,0,.991,2.583,4.216,4.216,0,0,0,3.5,1.6A4.068,4.068,0,0,0,496.838,300a3.854,3.854,0,0,1-3.232,3.181,3.956,3.956,0,0,1-4.316-3.55,4.223,4.223,0,0,1,.53-2.675Z" transform="translate(-488.758 -294.632)" fill="#610e78"/>
            <path id="Path_21901" data-name="Path 21901" d="M500.064,294.631a1.051,1.051,0,0,1,.41.981.7.7,0,0,1-.431.431,1.583,1.583,0,0,1-.608.068,5.367,5.367,0,0,1-2.153-.56,1.763,1.763,0,0,1-.82-.7.924.924,0,0,1,.034-.926c.14-.205.383-.215.6-.246a3.576,3.576,0,0,1,1.989.3,3.7,3.7,0,0,1,.974.656Z" transform="translate(-493.433 -292.45)" fill="#a48aff"/>
          </g>
        </g>
        <g id="Group_5082" data-name="Group 5082" transform="translate(185.009 92.234)">
          <path id="Path_21902" data-name="Path 21902" d="M541.5,275.432c.355,2.761,2.31,4.784,4.36,4.517s3.427-2.716,3.072-5.477-2.31-4.784-4.36-4.517S541.147,272.671,541.5,275.432Z" transform="translate(-541.446 -269.931)" fill="#f2d042"/>
          <g id="Group_5081" data-name="Group 5081" transform="translate(0.967 0.518)">
            <ellipse id="Ellipse_1059" data-name="Ellipse 1059" cx="3.027" cy="4.073" rx="3.027" ry="4.073" transform="translate(0 0.775) rotate(-7.35)" fill="#9135bc"/>
            <path id="Path_21903" data-name="Path 21903" d="M546.09,277.73a5.765,5.765,0,0,0,.858,2.6,3.355,3.355,0,0,0,2.826,1.685,2.775,2.775,0,0,0,1.975-1.066,3.253,3.253,0,0,1-2.484,3.086c-1.657.215-3.236-1.421-3.523-3.653a4.951,4.951,0,0,1,.352-2.652Z" transform="translate(-545.211 -275.583)" fill="#610e78"/>
            <path id="Path_21904" data-name="Path 21904" d="M554.109,275.694a1.248,1.248,0,0,1,.352.988.585.585,0,0,1-.331.417.958.958,0,0,1-.482.051,3.806,3.806,0,0,1-1.726-.615,1.7,1.7,0,0,1-.67-.721,1.14,1.14,0,0,1,0-.923c.106-.2.3-.205.475-.229a2.443,2.443,0,0,1,1.589.355,3.189,3.189,0,0,1,.789.68Z" transform="translate(-548.804 -273.55)" fill="#a48aff"/>
          </g>
        </g>
        <g id="Group_5084" data-name="Group 5084" transform="translate(31.094 34.238)">
          <g id="Group_5083" data-name="Group 5083">
            <path id="Path_21905" data-name="Path 21905" d="M102.915,100.654l-2.573-.454L91,130.939l4.592,2.313,7.323-32.6Z" transform="translate(-91 -100.2)" fill="#e1a000"/>
            <path id="Path_21906" data-name="Path 21906" d="M133.446,120.655,111.763,101.53l-7.323,32.6,16.1,8.095Z" transform="translate(-99.848 -101.076)" fill="#d47b12"/>
          </g>
          <path id="Path_21907" data-name="Path 21907" d="M135.784,161.465l-8.184-4.114,3.024-26.591L142.4,142.316l-9.294-5.587.219,11.05,12.134-2.47Z" transform="translate(-115.094 -120.318)" fill="#bd591b"/>
        </g>
        <g id="Group_5086" data-name="Group 5086" transform="translate(141.745 18.776)">
          <g id="Group_5085" data-name="Group 5085">
            <path id="Path_21908" data-name="Path 21908" d="M462,56.043l2.375-1.093L481.217,82.31l-3.858,3.4L462,56.043Z" transform="translate(-445.882 -54.95)" fill="#e1a000"/>
            <path id="Path_21909" data-name="Path 21909" d="M414.83,82.154l16.118-24,15.359,29.669L432.8,99.734Z" transform="translate(-414.83 -57.057)" fill="#d47b12"/>
          </g>
          <path id="Path_21910" data-name="Path 21910" d="M441.479,120.115l6.871-6.058L438.674,89.11l-8.453,14.163,7.572-7.763,2.593,10.743-12.366.694Z" transform="translate(-423.513 -77.438)" fill="#bd591b"/>
        </g>
        <g id="Group_5087" data-name="Group 5087" transform="translate(116.815 24.961)">
          <path id="Path_21911" data-name="Path 21911" d="M347.474,73.05l-5.6,7.671,8.594,8.491,5.641-7.715Z" transform="translate(-341.87 -73.05)" fill="#f2d042"/>
          <path id="Path_21912" data-name="Path 21912" d="M393.579,118.28l-5.669,7.76,14.959,14.782,5.727-7.842Z" transform="translate(-372.178 -102.825)" fill="#f2d042"/>
        </g>
        <g id="Group_5088" data-name="Group 5088" transform="translate(67.255 45.35)">
          <path id="Path_21913" data-name="Path 21913" d="M235.846,134.426l-38.212,52.293a4.159,4.159,0,0,0,3.2,6.612q2.265.082,4.527.113a4.148,4.148,0,0,0,3.407-1.708L245.26,141.8a4.158,4.158,0,0,0-.55-5.522l-2.7-2.47a4.16,4.16,0,0,0-6.164.615Z" transform="translate(-196.827 -132.722)" fill="#f2d042"/>
          <path id="Path_21914" data-name="Path 21914" d="M305.323,177.9,278.51,214.591a4.157,4.157,0,0,0,3.7,6.6q8.744-.779,17.413-2.238a4.174,4.174,0,0,0,2.665-1.65l19.015-26.02a4.158,4.158,0,0,0-.55-5.522l-9.267-8.477a4.16,4.16,0,0,0-6.164.615Z" transform="translate(-250.066 -161.338)" fill="#f2d042"/>
        </g>
        <g id="Group_5090" data-name="Group 5090" transform="translate(85.847 44.964)">
          <path id="Path_21915" data-name="Path 21915" d="M292.079,156.445,268.113,131.59,251.24,161.717l.3,2.283,1.695-.219,21.978,22.791,15.469-27.626,1.695-.219Z" transform="translate(-251.24 -131.59)" fill="#d47b12"/>
          <path id="Path_21916" data-name="Path 21916" d="M269.48,138.27l-16.61,32.147,24.23,26.874,16.606-32.147Z" transform="translate(-252.313 -135.987)" fill="#e1a000"/>
          <path id="Path_21917" data-name="Path 21917" d="M268.979,138.27,252.11,168.4l23.966,24.855,16.869-30.127Z" transform="translate(-251.813 -135.987)" fill="#f2d042"/>
          <path id="Path_21918" data-name="Path 21918" d="M280.518,159.92,268.19,181.939,285.705,200.1l12.332-22.015Z" transform="translate(-262.398 -150.24)" fill="#e1a000"/>
          <g id="Group_5089" data-name="Group 5089" transform="translate(7.364 11.471)">
            <path id="Path_21919" data-name="Path 21919" d="M272.79,220.4l15.933,16.524-2.358-18.274Z" transform="translate(-272.79 -200.373)" fill="#9135bc"/>
            <path id="Path_21920" data-name="Path 21920" d="M284,165.16,272.79,185.187l13.576-1.749Z" transform="translate(-272.79 -165.16)" fill="#a48aff"/>
            <path id="Path_21921" data-name="Path 21921" d="M314.878,233.547l11.214-20.027-13.572,1.753Z" transform="translate(-298.944 -196.996)" fill="#610e78"/>
            <path id="Path_21922" data-name="Path 21922" d="M307.971,183.437l13.572-1.753L305.61,165.16Z" transform="translate(-294.396 -165.16)" fill="#9135bc"/>
          </g>
        </g>
        <g id="Group_5091" data-name="Group 5091" transform="translate(5.945 54.459)">
          <path id="Path_21923" data-name="Path 21923" d="M21.64,159.38l-4.24,5.8,10.343,6.106,4.719-6.458Z" transform="translate(-17.4 -159.38)" fill="#f2d042"/>
          <path id="Path_21924" data-name="Path 21924" d="M77.912,188.54l-5.122,7.008,18,10.623,5.959-8.153Z" transform="translate(-53.864 -178.576)" fill="#f2d042"/>
        </g>
        <path id="Path_21925" data-name="Path 21925" d="M126.623,315.931c2.672-.072,5.337-.007,8-.113l4-.079,3.994-.116c5.327-.191,10.651-.393,15.967-.718,5.32-.29,10.637-.649,15.954-1.032,5.317-.4,10.634-.8,15.954-1.254-5.262.912-10.558,1.62-15.872,2.18s-10.637.984-15.971,1.3-10.678.454-16.019.454c-5.344.021-10.688-.215-16.012-.618Z" transform="translate(-83.355 -205.799)" fill="#fff"/>
      </g>
      <g id="Group_5093" data-name="Group 5093" transform="translate(13.558 14.21)">
        <path id="Path_21926" data-name="Path 21926" d="M189.815,299.917l-.9-2.177-.318,2.334a3.9,3.9,0,0,1-2.382,3.086l-2.177.9,2.334.318a3.9,3.9,0,0,1,3.085,2.382l.9,2.177.318-2.334a3.9,3.9,0,0,1,2.382-3.086l2.177-.9L192.9,302.3A3.9,3.9,0,0,1,189.815,299.917Z" transform="translate(-134.713 -210.214)" fill="#fff"/>
        <path id="Path_21927" data-name="Path 21927" d="M230.939,305.376l-.379-.916-.133.984a1.643,1.643,0,0,1-1,1.3l-.916.379.984.133a1.643,1.643,0,0,1,1.3,1l.379.916.133-.984a1.643,1.643,0,0,1,1-1.3l.916-.379-.984-.133A1.643,1.643,0,0,1,230.939,305.376Z" transform="translate(-163.988 -214.638)" fill="#fff"/>
        <path id="Path_21928" data-name="Path 21928" d="M240.682,54.259l-2.457-.331a4.119,4.119,0,0,1-3.249-2.5l-.947-2.293-.331,2.457a4.119,4.119,0,0,1-2.5,3.25l-2.293.946,2.457.331a4.119,4.119,0,0,1,3.25,2.5l.946,2.293.331-2.457a4.119,4.119,0,0,1,2.5-3.25l2.293-.946Z" transform="translate(-164.245 -46.553)" fill="#fff"/>
        <path id="Path_21929" data-name="Path 21929" d="M261.991,96.663l-.663-1.6-.232,1.719a2.875,2.875,0,0,1-1.753,2.272l-1.6.663,1.719.232a2.875,2.875,0,0,1,2.272,1.753l.663,1.6.232-1.719a2.875,2.875,0,0,1,1.753-2.272l1.6-.663-1.719-.232A2.875,2.875,0,0,1,261.991,96.663Z" transform="translate(-183.23 -76.789)" fill="#fff"/>
        <path id="Path_21930" data-name="Path 21930" d="M200.839,97.015l.331.8.116-.861a1.441,1.441,0,0,1,.878-1.138l.8-.331-.861-.116a1.441,1.441,0,0,1-1.138-.878l-.331-.8-.116.861a1.441,1.441,0,0,1-.878,1.138l-.8.331.861.116A1.441,1.441,0,0,1,200.839,97.015Z" transform="translate(-144.456 -75.887)" fill="#fff"/>
        <path id="Path_21931" data-name="Path 21931" d="M337.927,191.776l-.827-2.006-.29,2.149a3.594,3.594,0,0,1-2.194,2.843l-2.006.827,2.149.29a3.594,3.594,0,0,1,2.843,2.194l.827,2.006.29-2.149a3.6,3.6,0,0,1,2.194-2.843l2.006-.827-2.149-.29a3.594,3.594,0,0,1-2.843-2.194Z" transform="translate(-232.517 -139.137)" fill="#fff"/>
        <path id="Path_21932" data-name="Path 21932" d="M44.843,230.888l-.8-1.948-.284,2.088a3.494,3.494,0,0,1-2.129,2.761l-1.948.8,2.088.284A3.494,3.494,0,0,1,44.529,237l.8,1.948.284-2.088a3.494,3.494,0,0,1,2.129-2.761l1.948-.8-2.088-.284A3.494,3.494,0,0,1,44.843,230.888Z" transform="translate(-39.68 -164.923)" fill="#fff"/>
        <path id="Path_21933" data-name="Path 21933" d="M546.871,199.223l-.663-1.6-.232,1.719a2.875,2.875,0,0,1-1.753,2.272l-1.6.663,1.719.232a2.875,2.875,0,0,1,2.272,1.753l.663,1.6.232-1.719a2.875,2.875,0,0,1,1.753-2.272l1.6-.663-1.719-.232A2.875,2.875,0,0,1,546.871,199.223Z" transform="translate(-370.768 -144.304)" fill="#fff"/>
        <path id="Path_21934" data-name="Path 21934" d="M527.923,226.324l-.4-.974-.14,1.046a1.742,1.742,0,0,1-1.066,1.38l-.974.4,1.046.14a1.742,1.742,0,0,1,1.38,1.066l.4.974.14-1.046a1.742,1.742,0,0,1,1.066-1.38l.974-.4-1.046-.14A1.742,1.742,0,0,1,527.923,226.324Z" transform="translate(-359.393 -162.559)" fill="#fff"/>
        <path id="Path_21935" data-name="Path 21935" d="M65.512,145.511l-.519-1.261-.185,1.35a2.262,2.262,0,0,1-1.377,1.787l-1.261.519,1.35.185a2.262,2.262,0,0,1,1.787,1.377l.519,1.261.185-1.35a2.262,2.262,0,0,1,1.377-1.787l1.261-.519-1.35-.184A2.262,2.262,0,0,1,65.512,145.511Z" transform="translate(-54.485 -109.171)" fill="#fff"/>
        <path id="Path_21936" data-name="Path 21936" d="M538.044,95.236a3.494,3.494,0,0,1-2.761-2.129l-.8-1.948-.284,2.088a3.493,3.493,0,0,1-2.129,2.761l-1.948.8,2.088.284a3.493,3.493,0,0,1,2.761,2.129l.8,1.948.284-2.088a3.493,3.493,0,0,1,2.129-2.761l1.948-.8Z" transform="translate(-362.539 -74.221)" fill="#fff"/>
        <path id="Path_21937" data-name="Path 21937" d="M382.55,50.616c-3.007.39-2.409,5.064.6,4.674S385.563,50.226,382.55,50.616Z" transform="translate(-264.091 -47.516)" fill="#fff"/>
        <path id="Path_21938" data-name="Path 21938" d="M115.16,214.816c-3.007.39-2.409,5.064.6,4.674S118.173,214.426,115.16,214.816Z" transform="translate(-88.067 -155.609)" fill="#fff"/>
        <path id="Path_21939" data-name="Path 21939" d="M509.045,89.28c3.007-.39,2.409-5.064-.6-4.674S506.031,89.67,509.045,89.28Z" transform="translate(-346.965 -69.891)" fill="#fff"/>
        <path id="Path_21940" data-name="Path 21940" d="M140.92,79.466c-3.007.39-2.409,5.064.6,4.674S143.933,79.076,140.92,79.466Z" transform="translate(-105.025 -66.508)" fill="#fff"/>
        <path id="Path_21941" data-name="Path 21941" d="M104.63,278.1c-3.007.39-2.409,5.064.6,4.674S107.643,277.706,104.63,278.1Z" transform="translate(-81.135 -197.267)" fill="#fff"/>
        <path id="Path_21942" data-name="Path 21942" d="M578.7,257.8c-3.007.39-2.409,5.064.6,4.674S581.714,257.406,578.7,257.8Z" transform="translate(-393.218 -183.903)" fill="#fff"/>
        <path id="Path_21943" data-name="Path 21943" d="M595.858,271.2a1.486,1.486,0,0,0,.379,2.945A1.486,1.486,0,0,0,595.858,271.2Z" transform="translate(-404.994 -192.734)" fill="#fff"/>
        <path id="Path_21944" data-name="Path 21944" d="M521.188,72.882a1.486,1.486,0,0,0,.379,2.945A1.486,1.486,0,0,0,521.188,72.882Z" transform="translate(-355.839 -62.179)" fill="#fff"/>
        <path id="Path_21945" data-name="Path 21945" d="M401.478,41.6a1.486,1.486,0,0,0,.379,2.945A1.486,1.486,0,0,0,401.478,41.6Z" transform="translate(-277.033 -41.587)" fill="#fff"/>
        <path id="Path_21946" data-name="Path 21946" d="M163.427,79.987a1.486,1.486,0,0,0-.379-2.945A1.486,1.486,0,0,0,163.427,79.987Z" transform="translate(-120.073 -64.918)" fill="#fff"/>
        <path id="Path_21947" data-name="Path 21947" d="M90.158,73.6a1.486,1.486,0,0,0,.379,2.945A1.486,1.486,0,0,0,90.158,73.6Z" transform="translate(-72.089 -62.653)" fill="#fff"/>
        <path id="Path_21948" data-name="Path 21948" d="M83.388,283.612a1.486,1.486,0,0,0,.379,2.945A1.486,1.486,0,0,0,83.388,283.612Z" transform="translate(-67.632 -200.904)" fill="#fff"/>
        <path id="Path_21949" data-name="Path 21949" d="M47.1,337.362a1.486,1.486,0,0,0,.379,2.945A1.486,1.486,0,0,0,47.1,337.362Z" transform="translate(-43.743 -236.288)" fill="#fff"/>
        <path id="Path_21950" data-name="Path 21950" d="M131.678,372.592a1.486,1.486,0,0,0,.379,2.945A1.486,1.486,0,0,0,131.678,372.592Z" transform="translate(-99.422 -259.48)" fill="#fff"/>
        <path id="Path_21951" data-name="Path 21951" d="M481.718,337.342a1.486,1.486,0,0,0,.379,2.945A1.486,1.486,0,0,0,481.718,337.342Z" transform="translate(-329.855 -236.275)" fill="#fff"/>
      </g>
    </g>
  </g>
</svg>
