<svg xmlns="http://www.w3.org/2000/svg" width="17.813" height="20.358" viewBox="0 0 29.001 33.144">
  <path id="brand_discord" data-name="brand discord" d="M19.24,15.743A1.7,1.7,0,1,1,17.55,13.9,1.766,1.766,0,0,1,19.24,15.743ZM11.5,13.9a1.846,1.846,0,0,0,0,3.679,1.766,1.766,0,0,0,1.69-1.839A1.755,1.755,0,0,0,11.5,13.9ZM29,3.414v29.73c-4.175-3.689-2.84-2.468-7.689-6.977l.878,3.066H3.4A3.405,3.405,0,0,1,0,25.819V3.414A3.405,3.405,0,0,1,3.4,0H25.6A3.405,3.405,0,0,1,29,3.414Zm-4.723,15.71a22.192,22.192,0,0,0-2.386-9.661,8.2,8.2,0,0,0-4.657-1.74L17,7.988a11.029,11.029,0,0,1,4.126,2.1A14.081,14.081,0,0,0,8.75,9.612c-.613.282-.978.481-.978.481a11.18,11.18,0,0,1,4.358-2.171l-.166-.2a8.2,8.2,0,0,0-4.657,1.74,22.192,22.192,0,0,0-2.386,9.661,6.008,6.008,0,0,0,5.054,2.519s.613-.746,1.11-1.375a5.154,5.154,0,0,1-2.9-1.955c.244.171.646.392.679.414a12.08,12.08,0,0,0,10.341.58,9.483,9.483,0,0,0,1.906-.978,5.229,5.229,0,0,1-3,1.972c.5.63,1.094,1.342,1.094,1.342a6.058,6.058,0,0,0,5.071-2.519Z" fill="#fff"/>
</svg>
