<svg xmlns="http://www.w3.org/2000/svg" width="17.813" height="20.358" viewBox="0 0 17.813 20.358">
  <path id="brand_discord" data-name="brand discord" d="M11.818,9.67A1.042,1.042,0,1,1,10.78,8.54,1.084,1.084,0,0,1,11.818,9.67ZM7.064,8.54a1.134,1.134,0,0,0,0,2.26A1.084,1.084,0,0,0,8.1,9.67,1.078,1.078,0,0,0,7.064,8.54ZM17.813,2.1V20.358c-2.564-2.266-1.744-1.516-4.723-4.285l.539,1.883H2.087A2.092,2.092,0,0,1,0,15.859V2.1A2.092,2.092,0,0,1,2.087,0h13.64A2.092,2.092,0,0,1,17.813,2.1Zm-2.9,9.65a13.631,13.631,0,0,0-1.466-5.934,5.034,5.034,0,0,0-2.86-1.069l-.143.163A6.774,6.774,0,0,1,12.978,6.2a8.649,8.649,0,0,0-7.6-.3c-.377.173-.6.3-.6.3A6.867,6.867,0,0,1,7.451,4.866l-.1-.122a5.034,5.034,0,0,0-2.86,1.069,13.631,13.631,0,0,0-1.466,5.934,3.691,3.691,0,0,0,3.1,1.547s.377-.458.682-.845a3.166,3.166,0,0,1-1.781-1.2c.15.1.4.241.417.254a7.42,7.42,0,0,0,6.352.356,5.825,5.825,0,0,0,1.171-.6,3.212,3.212,0,0,1-1.842,1.211c.305.387.672.825.672.825A3.721,3.721,0,0,0,14.912,11.747Z" fill="#fff"/>
</svg>
