<svg xmlns="http://www.w3.org/2000/svg" width="13.759" height="24.466" viewBox="0 0 13.759 24.466">
  <path id="Icon_awesome-dollar-sign" data-name="Icon awesome-dollar-sign" d="M10,11.153,4.837,9.643a1.409,1.409,0,0,1,.4-2.762H8.4a2.917,2.917,0,0,1,1.634.5.745.745,0,0,0,.932-.1l1.663-1.625a.775.775,0,0,0-.086-1.171A6.757,6.757,0,0,0,8.411,3.058V.765A.767.767,0,0,0,7.647,0H6.117a.767.767,0,0,0-.765.765V3.058H5.233A5.236,5.236,0,0,0,.025,8.773a5.47,5.47,0,0,0,4,4.616l4.9,1.434a1.409,1.409,0,0,1-.4,2.762H5.362a2.917,2.917,0,0,1-1.634-.5.745.745,0,0,0-.932.1L1.133,18.8a.775.775,0,0,0,.086,1.171,6.757,6.757,0,0,0,4.133,1.434V23.7a.767.767,0,0,0,.765.765H7.647a.767.767,0,0,0,.765-.765V21.4a5.4,5.4,0,0,0,5.051-3.474A5.247,5.247,0,0,0,10,11.153Z" transform="translate(-0.003)" fill="#fff"/>
</svg>
