<svg xmlns="http://www.w3.org/2000/svg" width="22.942" height="22.531" viewBox="0 0 22.942 22.531">
  <g id="dots-menu" transform="translate(0 -2.471)">
    <path id="Path_11701" data-name="Path 11701" d="M3.535,2.471A2.683,2.683,0,1,0,6.217,5.154,2.683,2.683,0,0,0,3.535,2.471Z" transform="translate(-0.781 0)" fill="#fff"/>
    <path id="Path_11702" data-name="Path 11702" d="M108.059,2.471a2.683,2.683,0,1,0,2.683,2.683A2.683,2.683,0,0,0,108.059,2.471Z" transform="translate(-96.623 0)" fill="#fff"/>
    <path id="Path_11703" data-name="Path 11703" d="M214.262,7.836a2.683,2.683,0,1,0-2.683-2.683,2.683,2.683,0,0,0,2.683,2.683Z" transform="translate(-194.003 0)" fill="#fff"/>
    <path id="Path_11704" data-name="Path 11704" d="M2.683,111.315A2.683,2.683,0,1,0,0,108.632,2.683,2.683,0,0,0,2.683,111.315Z" transform="translate(0 -94.882)" fill="#fff"/>
    <path id="Path_11705" data-name="Path 11705" d="M107.208,111.315a2.683,2.683,0,1,0-2.683-2.683A2.683,2.683,0,0,0,107.208,111.315Z" transform="translate(-95.842 -94.882)" fill="#fff"/>
    <path id="Path_11706" data-name="Path 11706" d="M213.416,111.305a2.683,2.683,0,1,0-2.684-2.683A2.683,2.683,0,0,0,213.416,111.305Z" transform="translate(-193.226 -94.873)" fill="#fff"/>
    <path id="Path_11707" data-name="Path 11707" d="M3.427,209.108a2.683,2.683,0,1,0,2.683,2.683A2.683,2.683,0,0,0,3.427,209.108Z" transform="translate(-0.682 -189.471)" fill="#fff"/>
    <path id="Path_11708" data-name="Path 11708" d="M107.952,209.108a2.683,2.683,0,1,0,2.683,2.683A2.683,2.683,0,0,0,107.952,209.108Z" transform="translate(-96.524 -189.471)" fill="#fff"/>
    <path id="Path_11709" data-name="Path 11709" d="M214.16,209.108a2.683,2.683,0,1,0,2.683,2.683A2.683,2.683,0,0,0,214.16,209.108Z" transform="translate(-193.909 -189.471)" fill="#fff"/>
  </g>
</svg>
