<svg xmlns="http://www.w3.org/2000/svg" width="25.111" height="24.779" viewBox="0 0 25.111 24.779">
    <path d="M25.019 12.216 20.2 2.2a.955.955 0 0 0-1.2-.474 8.8 8.8 0 0 1-1.774.464 7.4 7.4 0 0 1-4.549-.9 9.558 9.558 0 0 0-10.65.762l-.257-.528a.332.332 0 0 0-.053-.084.877.877 0 0 0 .06-.323.889.889 0 1 0-1.117.857.545.545 0 0 0 .028.067L11.471 24.46a.594.594 0 0 0 .538.337.574.574 0 0 0 .26-.06.6.6 0 0 0 .281-.8L7.674 13.814a8.308 8.308 0 0 1 9.494-.8 8.512 8.512 0 0 0 3.614 1.1c.19.014.376.018.566.018a8.462 8.462 0 0 0 3.161-.611.961.961 0 0 0 .534-.541.949.949 0 0 0-.024-.759zm-3.808.72-1.535-3.225h.253a7.959 7.959 0 0 0 2.385-.369l1.517 3.158a7.26 7.26 0 0 1-2.62.439zm-7.344-2.2L12.332 7.52a8.914 8.914 0 0 1 3.681 1.152l.07.039 1.517 3.171a9.5 9.5 0 0 0-3.73-1.141zm-6.92-6.255a8.913 8.913 0 0 1 3.628-.474l1.637 3.432a9.011 9.011 0 0 0-3.625.485zm5.135-2.153a9.005 9.005 0 0 0 1.215.558L14.355 5.1a8.942 8.942 0 0 0-3.734-1.159l-1.24-2.6a8.45 8.45 0 0 1 2.7.99zm2.434 2.936a7.88 7.88 0 0 0 3.193.92l.214.011 1.64 3.442a7.8 7.8 0 0 1-3.428-.983zm2.862-1.893a9.487 9.487 0 0 0 1.837-.46l1.377 2.862a7.692 7.692 0 0 1-2.62.362l-1.289-2.7q.353-.016.7-.063zM5.479 1.563l1.373 2.876a8.986 8.986 0 0 0-2.873 1.69L2.55 3.154a8.411 8.411 0 0 1 2.929-1.591zM5.693 9.7a8.873 8.873 0 0 1 2.859-1.689l1.5 3.151a9.4 9.4 0 0 0-2.912 1.546zm0 0" transform="translate(0 -.018)" style="fill:#fff"/>
</svg>
