<?xml version="1.0" encoding="utf-8"?>
<!-- Generator: Adobe Illustrator 26.3.1, SVG Export Plug-In . SVG Version: 6.00 Build 0)  -->
<svg version="1.1" id="Layer_1" xmlns="http://www.w3.org/2000/svg" xmlns:xlink="http://www.w3.org/1999/xlink" x="0px" y="0px"
	 viewBox="0 0 1500 700" style="enable-background:new 0 0 1500 700;" xml:space="preserve">
<style type="text/css">
	.st0{display:none;}
	.st1{fill:#FFFFFF;}
	.st2{font-family:'HelveticaNeueLT-Bold';}
	.st3{font-size:107.8475px;}
	.st4{display:inline;}
	.st5{display:inline;fill:none;}
</style>
<rect y="0" class="st0" width="1500" height="700"/>
<g>
	<g>
		<g>
			<path class="st1" d="M1269.65,318.72h-146.63c-11.3,0-20.46-9.16-20.46-20.46V151.63c0-11.3,9.16-20.46,20.46-20.46h146.63
				c11.3,0,20.46,9.16,20.46,20.46v146.63C1290.11,309.56,1280.95,318.72,1269.65,318.72z"/>
		</g>
		<text transform="matrix(1 0 0 1 801.271 263.4451)" class="st1 st2 st3">2ND</text>
	</g>
	<g>
		<g>
			<path class="st1" d="M591.57,387.34l-99.89,173.02c-1.86,3.23,0.47,7.26,4.19,7.26h199.79c3.73,0,6.06-4.04,4.19-7.26
				l-99.89-173.02C598.09,384.11,593.43,384.11,591.57,387.34z"/>
		</g>
		<text transform="matrix(1 0 0 1 201.7017 514.0181)" class="st1 st2 st3">3RD</text>
	</g>
	<g>
		<g>
			<path class="st1" d="M1243.49,382.49h-84.66c-7.31,0-14.06,3.9-17.72,10.23l-42.33,73.32c-3.65,6.33-3.65,14.13,0,20.46
				l42.33,73.32c3.65,6.33,10.41,10.23,17.72,10.23h84.66c7.31,0,14.06-3.9,17.72-10.23l42.33-73.32c3.65-6.33,3.65-14.13,0-20.46
				l-42.33-73.32C1257.55,386.39,1250.8,382.49,1243.49,382.49z"/>
		</g>
		<text transform="matrix(1 0 0 1 808.1013 514.7654)" class="st1 st2 st3">4TH</text>
	</g>
	<g>
		<g>
			<path class="st1" d="M587.78,131.17c-51.79,0-93.77,41.98-93.77,93.77c0,51.8,41.98,93.78,93.77,93.78
				c51.79,0,93.78-41.98,93.78-93.78C681.56,173.15,639.57,131.17,587.78,131.17z M647.21,199.88l-19.46,52.84
				c-0.57,1.53-2.03,2.55-3.67,2.55h-73.29c-1.64,0-3.11-1.02-3.67-2.55l-19.46-52.84c-0.94-2.56,0.95-5.27,3.67-5.27h19.85
				c1.77,0,3.31,1.19,3.77,2.9l9.33,34.6h0.25l9.92-34.66c0.48-1.68,2.02-2.84,3.76-2.84h18.44c1.75,0,3.28,1.16,3.76,2.84
				l9.92,34.66h0.25l9.33-34.6c0.46-1.71,2.01-2.9,3.78-2.9h19.85C646.26,194.61,648.15,197.32,647.21,199.88z"/>
		</g>
		<text transform="matrix(1 0 0 1 193.7223 263.4411)" class="st1 st2 st3">1ST</text>
	</g>
</g>
<g class="st0">
	<g class="st4">
		<circle class="st1" cx="459.22" cy="574.06" r="93.77"/>
	</g>
	<g class="st4">
		<circle class="st1" cx="770.22" cy="208.07" r="93.77"/>
	</g>
	<g class="st4">
		<path class="st1" d="M1076.76,487.55l-99.89,173.02c-1.86,3.23,0.47,7.26,4.19,7.26h199.79c3.73,0,6.06-4.04,4.19-7.26
			l-99.89-173.02C1083.29,484.33,1078.63,484.33,1076.76,487.55z"/>
	</g>
	<g class="st4">
		<g>
			<path class="st1" d="M469.65,442.07c0-12.54,0-25.08,0-37.62c0-12.95-2.35-28.39,10.65-36.24c8.43-5.09,21.27-3.26,30.78-3.26
				c19.71,0,39.42,0,59.12,0c28.82,0,57.65,0,86.47,0c33.64,0,67.28,0,100.92,0c34,0,68,0,102,0c30.4,0,60.81,0,91.21,0
				c22.34,0,44.68,0,67.02,0c9.98,0,19.96-0.12,29.94,0c12.97,0.16,22.67,10.02,22.77,22.96c0.1,13.93,0,27.87,0,41.81
				c0,4.12,0,8.24,0,12.35c0,12.87,20,12.89,20,0c0-12.85,0-25.69,0-38.54c0-5.37,0.08-10.74,0-16.11
				c-0.19-11.84-4.88-23.47-13.81-31.43c-13.29-11.85-28.59-11.04-44.76-11.04c-19.47,0-38.94,0-58.41,0c-29.1,0-58.19,0-87.29,0
				c-34.39,0-68.79,0-103.18,0c-34.96,0-69.92,0-104.87,0c-30.78,0-61.55,0-92.33,0c-22.28,0-44.57,0-66.85,0
				c-9.01,0-18.03-0.15-27.04,0c-23.55,0.39-42,19.17-42.34,42.64c-0.2,13.9,0,27.81,0,41.71c0,4.26,0,8.52,0,12.78
				C449.65,454.94,469.65,454.96,469.65,442.07L469.65,442.07z"/>
		</g>
	</g>
	<g class="st4">
		<path class="st1" d="M716.01,498.17l8.45,63.32c2.05,14.92,4.1,44.56,6.15,59.69h0.51c1.54-18.33,3.58-36.46,5.38-54.58
			l8.19-68.44h27.15l-21.51,151.8h-40.97l-20.49-151.8H716.01z"/>
		<path class="st1" d="M807.43,625.44c0,7.67,2.82,9.38,8.45,9.38c5.38,0,8.19-1.71,8.19-9.38v-15.99
			c0-21.32-43.79-42.21-43.79-66.94v-21.75c0-19.83,18.69-25.58,35.34-25.58c16.9,0,35.59,5.76,35.59,25.58v31.98h-27.14v-30.06
			c0-7.67-2.82-9.38-8.19-9.38c-5.63,0-8.45,1.71-8.45,9.38v18.76c0,10.87,43.79,43.71,43.79,59.05v26.86
			c0,19.83-18.69,25.58-35.59,25.58c-16.64,0-35.34-5.76-35.34-25.58V592.4h27.14V625.44z"/>
	</g>
	<g class="st4">
		<path class="st1" d="M758.28,92.82h-26.23c-1.64,0-3.1-1.02-3.67-2.56l-19.46-52.84c-0.94-2.55,0.95-5.26,3.67-5.26h19.85
			c1.77,0,3.32,1.19,3.78,2.89l9.33,34.6h0.25L755.72,35c0.48-1.68,2.01-2.83,3.76-2.83h18.44c1.75,0,3.28,1.16,3.76,2.83
			l9.92,34.66h0.25l9.33-34.6c0.46-1.71,2.01-2.89,3.78-2.89h19.85c2.72,0,4.61,2.71,3.67,5.26l-19.46,52.84
			c-0.57,1.54-2.03,2.56-3.67,2.56h-26.23H758.28z"/>
	</g>
</g>
<g class="st0">
	<g class="st4">
		<path class="st1" d="M708.6,278.5l6.7,50.19c1.62,11.83,3.25,35.32,4.87,47.32h0.41c1.22-14.53,2.84-28.9,4.26-43.26l6.5-54.25
			h21.52L735.8,398.82h-32.48L687.08,278.5H708.6z"/>
		<path class="st1" d="M781.06,379.39c0,6.08,2.23,7.44,6.7,7.44c4.26,0,6.5-1.35,6.5-7.44v-12.67c0-16.9-34.71-33.46-34.71-53.06
			v-17.24c0-15.72,14.82-20.28,28.01-20.28c13.4,0,28.21,4.56,28.21,20.28v25.35h-21.52v-23.83c0-6.08-2.23-7.44-6.5-7.44
			c-4.47,0-6.7,1.35-6.7,7.44v14.87c0,8.62,34.71,34.64,34.71,46.81v21.29c0,15.72-14.82,20.28-28.21,20.28
			c-13.19,0-28.01-4.56-28.01-20.28v-27.72h21.52V379.39z"/>
	</g>
	<g class="st4">
		<g>
			<circle class="st1" cx="751.43" cy="131.04" r="45.98"/>
		</g>
		<g>
			<path class="st1" d="M745.57,74.53h-12.86c-0.8,0-1.52-0.5-1.8-1.25l-9.54-25.91c-0.46-1.25,0.47-2.58,1.8-2.58h9.73
				c0.87,0,1.63,0.58,1.85,1.42l4.57,16.97h0.12l4.86-16.99c0.24-0.82,0.99-1.39,1.84-1.39h9.04c0.86,0,1.61,0.57,1.84,1.39
				l4.86,16.99h0.12l4.57-16.97c0.23-0.84,0.98-1.42,1.85-1.42h9.73c1.33,0,2.26,1.33,1.8,2.58l-9.54,25.91
				c-0.28,0.75-1,1.25-1.8,1.25h-12.86H745.57z"/>
		</g>
	</g>
	<g class="st4">
		<circle class="st1" cx="294.23" cy="600.14" r="45.98"/>
	</g>
	<g class="st4">
		<path class="st1" d="M472,645.93h-55.57c-10.05,0-18.2-8.15-18.2-18.2v-55.57c0-10.05,8.15-18.2,18.2-18.2H472
			c10.05,0,18.2,8.15,18.2,18.2v55.57C490.2,637.78,482.05,645.93,472,645.93z"/>
	</g>
	<g class="st4">
		<path class="st1" d="M1217.51,553.96h-32.08c-6.5,0-12.51,3.47-15.76,9.1l-16.04,27.79c-3.25,5.63-3.25,12.57,0,18.2l16.04,27.79
			c3.25,5.63,9.26,9.1,15.76,9.1h32.08c6.5,0,12.51-3.47,15.76-9.1l16.04-27.79c3.25-5.63,3.25-12.57,0-18.2l-16.04-27.79
			C1230.02,557.43,1224.02,553.96,1217.51,553.96z"/>
	</g>
	<g class="st4">
		<path class="st1" d="M1048.13,560.59l-45.63,79.04c-1.66,2.87,0.41,6.46,3.73,6.46h91.27c3.32,0,5.39-3.59,3.73-6.46l-45.63-79.04
			C1053.93,557.71,1049.79,557.71,1048.13,560.59z"/>
	</g>
	<g class="st4">
		<g>
			<path class="st1" d="M299.13,524.13c0-17.06-0.09-34.12,0-51.18c0.04-8.05,4.91-12.75,12.86-12.78c6.67-0.03,13.35,0,20.03,0
				c22.29,0,44.58,0,66.87,0c8.1,0,16.21,0,24.31,0c7.57,0,15.63,1.24,16.12,10.92c0.88,17.59,0,35.43,0,53.04
				c0,6.31,9.81,6.32,9.81,0c0-17.53,0.56-35.14,0-52.66c-0.39-12.2-9.43-20.96-21.6-21.11c-6.38-0.08-12.76,0-19.13,0
				c-23.52,0-47.04,0-70.56,0c-8.13,0-16.26,0-24.38,0c-10.04,0-19.57,3.79-23.04,14.17c-1.3,3.9-1.07,8.02-1.07,12.07
				c0,6.01,0,12.02,0,18.03c0,9.83,0,19.67,0,29.5C289.33,530.44,299.13,530.45,299.13,524.13L299.13,524.13z"/>
		</g>
	</g>
	<g class="st4">
		<g>
			<path class="st1" d="M1056.61,524.13c0-17.06-0.09-34.12,0-51.18c0.04-8.05,4.91-12.75,12.86-12.78c6.67-0.03,13.35,0,20.03,0
				c22.29,0,44.58,0,66.87,0c8.1,0,16.21,0,24.31,0c7.57,0,15.63,1.24,16.12,10.92c0.88,17.59,0,35.43,0,53.04
				c0,6.31,9.81,6.32,9.81,0c0-17.53,0.56-35.14,0-52.66c-0.39-12.2-9.43-20.96-21.6-21.11c-6.38-0.08-12.76,0-19.13,0
				c-23.52,0-47.04,0-70.56,0c-8.13,0-16.26,0-24.38,0c-10.04,0-19.57,3.79-23.04,14.17c-1.3,3.9-1.07,8.02-1.07,12.07
				c0,6.01,0,12.02,0,18.03c0,9.83,0,19.67,0,29.5C1046.81,530.44,1056.61,530.45,1056.61,524.13L1056.61,524.13z"/>
		</g>
	</g>
	<g class="st4">
		<g>
			<circle class="st1" cx="371.85" cy="380.34" r="45.98"/>
		</g>
		<g>
			<path class="st1" d="M1123.31,340.82l-45.63,79.04c-1.66,2.87,0.41,6.46,3.73,6.46h91.27c3.32,0,5.39-3.59,3.73-6.46
				l-45.63-79.04C1129.11,337.94,1124.97,337.94,1123.31,340.82z"/>
		</g>
		<g>
			<g>
				<path class="st1" d="M376.96,275.79c0-15.4,0-30.8,0-46.2c0-8.01,0.37-17.19,10.92-17.77c0.58-0.03,1.16,0,1.74,0
					c12.77-0.06,25.55,0,38.32,0c26.27,0,52.53,0,78.8,0c35.6,0,71.19,0,106.79,0c40.31,0,80.62,0,120.93,0
					c40.83,0,81.66,0,122.49,0c37.04,0,74.07,0,111.11,0c28.92,0,57.85,0,86.77,0c16.49,0,32.98,0,49.48,0
					c2.62,0,5.46-0.29,8.07,0.06c9.96,1.32,9.55,10.9,9.55,18.42c0,9.57,0,19.14,0,28.71c0,5.59,0,11.19,0,16.78
					c0,6.31,9.81,6.32,9.81,0c0-15.73,0-31.47,0-47.2c0-8.66-0.82-16.9-8.5-22.54c-3.86-2.83-8.35-3.97-13.07-4.03
					c-11.95-0.15-23.91,0-35.85,0c-26.25,0-52.49,0-78.74,0c-35.96,0-71.92,0-107.88,0c-40.92,0-81.84,0-122.76,0
					c-41.64,0-83.27,0-124.91,0c-37.61,0-75.23,0-112.84,0c-29.01,0-58.02,0-87.02,0c-15.82,0-31.64,0-47.45,0
					c-6.51,0-12.6,0.28-18.04,4.8c-7.14,5.93-7.51,14-7.51,22.43c0,9.6,0,19.21,0,28.81c0,5.91,0,11.81,0,17.72
					C367.16,282.1,376.96,282.11,376.96,275.79L376.96,275.79z"/>
			</g>
		</g>
		<g>
			<path class="st1" d="M364.11,322.13h-12.86c-0.8,0-1.52-0.5-1.8-1.25l-9.54-25.91c-0.46-1.25,0.47-2.58,1.8-2.58h9.73
				c0.87,0,1.63,0.58,1.85,1.42l4.57,16.97h0.12l4.86-16.99c0.24-0.82,0.99-1.39,1.84-1.39h9.04c0.86,0,1.61,0.57,1.84,1.39
				l4.86,16.99h0.12l4.57-16.97c0.23-0.84,0.98-1.42,1.85-1.42h9.73c1.33,0,2.26,1.33,1.8,2.58l-9.54,25.91
				c-0.28,0.75-1,1.25-1.8,1.25h-12.86H364.11z"/>
		</g>
		<g>
			<path class="st1" d="M1121.89,322.13h-12.86c-0.8,0-1.52-0.5-1.8-1.25l-9.54-25.91c-0.46-1.25,0.47-2.58,1.8-2.58h9.73
				c0.87,0,1.63,0.58,1.85,1.42l4.57,16.97h0.12l4.86-16.99c0.24-0.82,0.99-1.39,1.84-1.39h9.04c0.86,0,1.61,0.57,1.84,1.39
				l4.86,16.99h0.12l4.57-16.97c0.23-0.84,0.98-1.42,1.85-1.42h9.73c1.33,0,2.26,1.33,1.8,2.58l-9.54,25.91
				c-0.28,0.75-1,1.25-1.8,1.25h-12.86H1121.89z"/>
		</g>
	</g>
</g>
<g class="st0">
	<g class="st4">
		<g>
			<circle class="st1" cx="412.24" cy="211.97" r="89.04"/>
		</g>
		<g>
			<path class="st1" d="M1117.18,122.94h-80.38c-6.94,0-13.35,3.7-16.82,9.71l-40.19,69.61c-3.47,6.01-3.47,13.42,0,19.43
				l40.19,69.61c3.47,6.01,9.88,9.71,16.82,9.71h80.38c6.94,0,13.35-3.7,16.82-9.71l40.19-69.61c3.47-6.01,3.47-13.42,0-19.43
				L1134,132.65C1130.53,126.64,1124.12,122.94,1117.18,122.94z"/>
		</g>
	</g>
	<g class="st4">
		<path class="st1" d="M482.03,553.43H342.81c-10.73,0-19.43-8.7-19.43-19.43V394.78c0-10.73,8.7-19.43,19.43-19.43h139.22
			c10.73,0,19.43,8.7,19.43,19.43V534C501.46,544.73,492.76,553.43,482.03,553.43z"/>
	</g>
	<g class="st4">
		<path class="st1" d="M1073.01,382.25l-94.85,164.28c-1.77,3.07,0.44,6.9,3.98,6.9h189.69c3.54,0,5.75-3.83,3.98-6.9l-94.85-164.28
			C1079.2,379.19,1074.78,379.19,1073.01,382.25z"/>
	</g>
	<g class="st4">
		<path class="st1" d="M704.8,286.51l7.07,52.97c1.71,12.48,3.43,37.27,5.14,49.93h0.43c1.29-15.34,3-30.5,4.5-45.66l6.85-57.25
			h22.71l-17.99,126.98h-34.27L682.1,286.51H704.8z"/>
		<path class="st1" d="M781.27,392.98c0,6.42,2.36,7.85,7.07,7.85c4.5,0,6.85-1.43,6.85-7.85v-13.38c0-17.83-36.63-35.31-36.63-56
			v-18.19c0-16.59,15.64-21.4,29.56-21.4c14.14,0,29.77,4.81,29.77,21.4v26.75H795.2v-25.15c0-6.42-2.36-7.85-6.85-7.85
			c-4.71,0-7.07,1.43-7.07,7.85v15.69c0,9.1,36.63,36.56,36.63,49.4v22.47c0,16.59-15.64,21.4-29.77,21.4
			c-13.92,0-29.56-4.81-29.56-21.4v-29.25h22.71V392.98z"/>
	</g>
	<g class="st4">
		<path class="st1" d="M1415.24,318.29l-55.22,74.95c-3.15,4.28-9.55,4.28-12.7,0l-55.22-74.95c-3.84-5.21-0.12-12.57,6.35-12.57
			l110.44,0C1415.35,305.72,1419.07,313.08,1415.24,318.29z"/>
	</g>
	<g class="st4">
		<path class="st1" d="M206.96,383.88l-55.22-74.95c-3.15-4.28-9.55-4.28-12.7,0l-55.22,74.95c-3.84,5.21-0.12,12.57,6.35,12.57
			l110.44,0C207.08,396.45,210.8,389.09,206.96,383.88z"/>
	</g>
	<g class="st4">
		<g>
			<path class="st1" d="M1295.4,606.59c-20,0-40,0-60,0c-51.61,0-103.23,0-154.84,0c-70.65,0-141.3,0-211.95,0
				c-77.1,0-154.2,0-231.31,0c-70.97,0-141.95,0-212.92,0c-52.27,0-104.53,0-156.8,0c-20.97,0-41.96,0.26-62.94,0
				c-21.88-0.27-41.25-14.89-46.79-36.21c-1.65-6.34-1.52-12.66-1.52-19.12c0-21.65,0-43.3,0-64.95c0-73.28,0-146.55,0-219.83
				c0-30.02,0-60.03,0-90.05c0-8.75,0-17.5,0-26.25c0-5.19-0.31-10.66,0.49-15.79c3.65-23.55,24.19-40.69,47.78-40.99
				c1.44-0.02,2.89,0,4.33,0c10.45,0,20.89,0,31.34,0c45.22,0,90.44,0,135.67,0c66.87,0,133.74,0,200.61,0
				c76.69,0,153.38,0,230.07,0c73.63,0,147.25,0,220.88,0c57.98,0,115.96,0,173.94,0c29.76,0,59.51,0,89.27,0
				c1.55,0,3.11-0.02,4.66,0c23.13,0.28,43.06,16.55,47.51,39.38c1.06,5.44,0.79,11.12,0.79,16.66c0,8.53,0,17.06,0,25.59
				c0,67.95,0,135.89,0,203.84c0,57.23,0,114.45,0,171.68c0,4.76,0.27,9.74-0.38,14.45C1340,588.85,1319.14,606.25,1295.4,606.59
				c-12.86,0.18-12.9,20.18,0,20c28.61-0.41,53.94-17.99,64.07-44.78c3.53-9.34,4.19-19.09,4.19-28.94c0-20.95,0-41.9,0-62.85
				c0-73.77,0-147.54,0-221.31c0-30.76,0-61.52,0-92.29c0-14.16,1.18-28.97-0.59-43.07c-4.5-35.82-35.22-59.95-70.47-59.95
				c-9.6,0-19.2,0-28.8,0c-44.48,0-88.96,0-133.45,0c-67.44,0-134.88,0-202.32,0c-77.42,0-154.84,0-232.26,0
				c-74.78,0-149.56,0-224.33,0c-58.34,0-116.68,0-175.02,0c-29.33,0-58.66,0-87.99,0c-2.4,0-4.81-0.04-7.2,0.1
				c-28.35,1.62-53.09,20.61-61.77,47.7c-5.01,15.63-3.13,34.21-3.13,50.44c0,68.28,0,136.55,0,204.83c0,58.02,0,116.05,0,174.07
				c0,6.87,0,13.53,1.2,20.37c4.75,27.05,27.36,49.79,54.47,54.47c8.75,1.51,17.54,1.2,26.37,1.2c36.84,0,73.68,0,110.52,0
				c63.36,0,126.72,0,190.08,0c76.2,0,152.4,0,228.6,0c76.33,0,152.67,0,229,0c63.63,0,127.25,0,190.88,0c37.64,0,75.29,0,112.93,0
				c5,0,10,0,15,0C1308.27,626.59,1308.29,606.59,1295.4,606.59z"/>
		</g>
	</g>
</g>
</svg>
