<svg xmlns="http://www.w3.org/2000/svg" width="35.245" height="25.846" viewBox="0 0 35.245 25.846">
  <path id="Path_3940" data-name="Path 3940" d="M36.413,19.1c-1.668-7.15-3.43-10.948-6.962-12.022a6.846,6.846,0,0,0-2.022-.323c-2.171,0-3.689,1.188-7.559,1.188s-5.388-1.188-7.559-1.188a6.77,6.77,0,0,0-2.022.323C6.758,8.155,5,11.96,3.328,19.1s-1.361,12.313.606,13.275a2.244,2.244,0,0,0,.983.226c1.707,0,3.548-1.923,5.325-4.2,2.022-2.594,2.525-2.666,8.676-2.666H20.83c6.143,0,6.655.065,8.676,2.666,1.77,2.278,3.618,4.2,5.325,4.2a2.269,2.269,0,0,0,.983-.226C37.774,31.408,38.073,26.245,36.413,19.1ZM10.368,20.29a3.2,3.2,0,0,1,0-6.4,3.2,3.2,0,0,1,0,6.4Zm13.6-1.576a1.625,1.625,0,1,1,1.581-1.624A1.6,1.6,0,0,1,23.969,18.715Zm3.453,3.547A1.62,1.62,0,1,1,29,20.646,1.6,1.6,0,0,1,27.422,22.262Zm0-7.094A1.625,1.625,0,1,1,29,13.544,1.6,1.6,0,0,1,27.422,15.168Zm3.453,3.547a1.625,1.625,0,1,1,1.581-1.624A1.6,1.6,0,0,1,30.875,18.715Z" transform="translate(-2.247 -6.757)" fill="white"/>
</svg>
