<?xml version="1.0" encoding="iso-8859-1"?>
<!-- Generator: Adobe Illustrator 24.0.1, SVG Export Plug-In . SVG Version: 6.00 Build 0)  -->
<svg version="1.1" id="Layer_1" xmlns="http://www.w3.org/2000/svg" xmlns:xlink="http://www.w3.org/1999/xlink" x="0px" y="0px"
	 viewBox="0 0 18 11.25" style="enable-background:new 0 0 18 11.25;" xml:space="preserve">
<g transform="translate(0 -3.012)">
	<path style="fill-rule:evenodd;clip-rule:evenodd;fill:#3D396E;" d="M11.383,4.137h1.555c2.796-0.002,5.064,2.263,5.066,5.058
		s-2.263,5.064-5.058,5.066c-1.159,0.001-2.283-0.396-3.184-1.124H8.239c-2.175,1.755-5.362,1.414-7.117-0.761
		s-1.414-5.362,0.761-7.117c0.9-0.726,2.022-1.122,3.178-1.122h1.555l0.252-0.5c0.19-0.381,0.58-0.622,1.006-0.622h2.25
		c0.426,0,0.816,0.241,1.006,0.622L11.383,4.137z M5.625,9.762H6.75V8.637H5.625V7.512H4.5v1.125H3.375v1.125H4.5v1.125h1.125V9.762
		z M12.938,7.512c0.311-0.001,0.563,0.251,0.564,0.562c0.001,0.311-0.251,0.563-0.562,0.564c-0.311,0.001-0.563-0.251-0.564-0.562
		c0-0.001,0-0.001,0-0.002C12.376,7.764,12.628,7.512,12.938,7.512C12.938,7.512,12.938,7.512,12.938,7.512z M11.25,9.2
		c-0.001,0.311,0.251,0.563,0.562,0.564s0.563-0.251,0.564-0.562s-0.251-0.563-0.562-0.564c0,0-0.001,0-0.001,0
		C11.502,8.638,11.251,8.889,11.25,9.2z M12.938,10.887c-0.31-0.001-0.562-0.253-0.561-0.563s0.253-0.562,0.563-0.561
		c0.31,0.001,0.561,0.252,0.561,0.562C13.5,10.636,13.249,10.887,12.938,10.887z M13.5,9.2c-0.001,0.311,0.251,0.563,0.562,0.564
		s0.563-0.251,0.564-0.562s-0.251-0.563-0.562-0.564c0,0-0.001,0-0.001,0c-0.31-0.001-0.562,0.251-0.563,0.561
		C13.5,9.199,13.5,9.2,13.5,9.2z"/>
</g>
</svg>
