<svg xmlns="http://www.w3.org/2000/svg" width="16.496" height="16.498" viewBox="0 0 16.496 16.498">
    <g data-name="GB_Coin-01 (2)">
        <path data-name="Path 11211" d="M123.132 136.379a7.968 7.968 0 0 1-.281-.792c-.058-.188-.1-.379-.147-.571a8.805 8.805 0 0 1-.081-.43c-.016-.1-.026-.195-.045-.291v-.053c0-.017-.007-.059-.011-.089s-.005-.047-.007-.071a.539.539 0 0 0-.013-.115.07.07 0 0 1 0-.018c0-.1-.015-.19-.018-.285a14.459 14.459 0 0 1 0-.833.319.319 0 0 1 0-.054 1.341 1.341 0 0 0 .015-.2c0-.024 0-.047.008-.071a.189.189 0 0 0 0-.026c0-.081.017-.16.023-.24 0-.059.013-.118.022-.177s.022-.117.029-.176c.009-.08.027-.159.042-.237.025-.131.055-.262.086-.393s.066-.254.1-.379.069-.222.106-.332a8.103 8.103 0 0 1 .472-1.101c.113-.214.233-.423.362-.628s.272-.407.421-.6c.066-.085.134-.168.2-.251.049-.06.1-.119.15-.178l.018-.02c.163-.179.326-.357.5-.52.081-.074.162-.15.245-.222s.192-.161.288-.241c.076-.063.155-.121.234-.179.142-.1.286-.205.434-.3s.3-.186.452-.272.337-.179.51-.261.358-.163.543-.232c.14-.052.279-.1.421-.15a8.52 8.52 0 0 1 1.091-.271c.094-.015.187-.034.282-.043.068-.007.135-.02.2-.029h.062l.08-.009a.353.353 0 0 1 .035-.005c.128 0 .255-.026.384-.023.036 0 .071-.006.107-.008s.054 0 .08 0h.4a.722.722 0 0 1 .134.009.574.574 0 0 0 .08 0 1.621 1.621 0 0 1 .259.016.353.353 0 0 0 .054 0 .521.521 0 0 1 .124.013.088.088 0 0 0 .027 0 1.884 1.884 0 0 1 .222.023c.062.006.123.021.185.028.077.009.153.026.229.038.13.021.257.05.385.079a8.109 8.109 0 0 1 .942.281c.078.028.155.061.233.091.052.043 0 .068-.02.093-.128.153-.272.291-.412.432-.264.266-.534.526-.792.8a.053.053 0 0 1-.023.013c-.168-.027-.33-.078-.5-.113a6.568 6.568 0 0 0-4.193.534 6.627 6.627 0 0 0-1.435.952 6.57 6.57 0 0 0-2.2 4.086c-.023.168-.036.338-.05.507a4.343 4.343 0 0 0 0 .624 7.287 7.287 0 0 0 .1.922c.034.185.082.366.122.549 0 .043.03.08.022.124q-.607.634-1.232 1.25c.001.018-.02.052-.06.025z" style="fill:#fdd462" transform="translate(-122.517 -124.991)"/>
        <path data-name="Path 11212" d="M823.382 809.455c.024.08.036.163.054.244s.035.181.051.272c.01.059.016.118.024.177l.029.2v.053c0 .017.007.065.011.1s0 .041.006.062c0 .057.005.113.014.169a1.324 1.324 0 0 1 .006.143 1.213 1.213 0 0 0 .012.2.265.265 0 0 1 0 .054v.376c0 .03 0 .059-.007.089s0 .048 0 .071v.179c0 .03-.005.059-.009.089v.026c0 .08-.009.16-.019.241s-.021.177-.034.266l-.02.141a6.636 6.636 0 0 1-.067.369c-.028.14-.06.28-.1.418q-.04.151-.085.3c-.03.1-.06.2-.094.3a8.697 8.697 0 0 1-.269.682q-.128.286-.277.562-.123.228-.261.448t-.3.453c-.089.123-.18.245-.278.362l-.241.288-.006.007c-.154.167-.306.335-.472.489-.116.108-.233.214-.353.317a8.562 8.562 0 0 1-.974.712q-.207.132-.425.248c-.082.043-.163.088-.245.13a7.855 7.855 0 0 1-.778.342 8.24 8.24 0 0 1-1.384.387c-.1.019-.2.039-.308.052-.059.007-.117.019-.176.028-.021 0-.042 0-.062.006l-.089.011-.071.007a.532.532 0 0 0-.115.012h-.018c-.1 0-.2.017-.3.019a17.25 17.25 0 0 1-.788 0 .758.758 0 0 1-.107-.009.959.959 0 0 0-.107-.007.768.768 0 0 1-.151-.013.292.292 0 0 0-.053 0 .529.529 0 0 1-.124-.014.142.142 0 0 0-.027 0c-.125-.011-.248-.031-.372-.051s-.223-.038-.334-.06a.517.517 0 0 1-.13-.033c-.011-.044.026-.063.049-.088.409-.434.835-.853 1.257-1.275a.714.714 0 0 1 .12-.119c.05 0 .1.009.15 0a6.774 6.774 0 0 0 2.376-.365 6.62 6.62 0 0 0 3.6-3.047 6.3 6.3 0 0 0 .634-1.65 5.961 5.961 0 0 0 .17-1.373V811.159a1.516 1.516 0 0 0-.009-.263.23.23 0 0 1 0-.116c.059-.046.039.027.062.04q.651-.651 1.306-1.3c.026-.036.047-.09.108-.065z" transform="translate(-807.099 -803.062)" style="fill:#fdd462"/>
        <path data-name="Path 11213" d="m213.959 1264.118-.074-.077a8.385 8.385 0 0 1-.456-.527c-.093-.116-.181-.236-.269-.356a7.504 7.504 0 0 1-.357-.545 6.539 6.539 0 0 1-.318-.589c-.022-.061.03-.085.061-.117q.527-.53 1.057-1.057a1.674 1.674 0 0 1 .12-.12c.021 0 .03.015.038.031a6.556 6.556 0 0 0 1.053 1.8c.1.117.2.23.3.342.017.024.048.039.046.074a.151.151 0 0 1-.042.056q-.523.524-1.048 1.047c-.029.027-.058.07-.111.038z" transform="translate(-211.642 -1250.132)" style="fill:#fdd462"/>
        <path data-name="Path 11214" d="M1261.858 216.483a1.016 1.016 0 0 1 .161.077c.09.047.178.1.266.147s.165.1.247.145a8.069 8.069 0 0 1 .901.645c.095.079.2.165.291.251.062.056.124.112.184.17l.029.033c.008.051-.035.073-.063.1q-.489.492-.981.982a1.047 1.047 0 0 1-.107.108c-.045 0-.067-.036-.094-.062a6.74 6.74 0 0 0-1.345-.973 7.735 7.735 0 0 0-.695-.329c-.026-.011-.058-.017-.072-.049.005-.039.037-.06.062-.085.249-.249.494-.5.748-.745.132-.126.263-.251.393-.378.017-.02.04-.046.075-.037z" transform="translate(-1249.96 -215.628)" style="fill:#fdd462"/>
        <path data-name="Path 11215" d="M594.39 1656.041a.058.058 0 0 1-.015.041l-.05.051-.891.892a.541.541 0 0 0-.094.107.241.241 0 0 1-.043.046l-.272.272a.207.207 0 0 0-.052.061.5.5 0 0 1-.062-.008c-.162-.041-.323-.082-.483-.129s-.313-.1-.467-.153c-.126-.045-.25-.1-.375-.146-.224-.09-.44-.2-.655-.31a.07.07 0 0 1-.035-.026c-.012-.033.013-.05.03-.068q.578-.58 1.158-1.157a.1.1 0 0 1 .03-.02c.056-.01.1.031.143.047a.337.337 0 0 0 .05.017l.027.008a6.62 6.62 0 0 0 1.7.425c.086.01.172.02.258.025.038.001.072-.003.098.025z" transform="translate(-586.524 -1641.211)" style="fill:#fee191"/>
        <path data-name="Path 11216" d="M1656.458 597.126a.093.093 0 0 0-.033.01c-.023.019-.044.041-.065.062l-1.264 1.265a1.874 1.874 0 0 1-.065.061h-.016c-.005 0 0-.005 0-.008v-.062a.078.078 0 0 0-.013-.023.2.2 0 0 1-.04-.134 6.556 6.556 0 0 0-.462-1.828.308.308 0 0 1-.019-.059.131.131 0 0 1 .043-.121q.568-.571 1.139-1.139a.091.091 0 0 1 .052-.032.266.266 0 0 1 .025.036c.05.1.106.2.148.306.005.014.013.027.02.04a8.226 8.226 0 0 1 .525 1.48.95.95 0 0 0 .025.146z" transform="translate(-1640.175 -590.733)" style="fill:#fee191"/>
        <path data-name="Path 11217" d="M1539.175 420.873a.3.3 0 0 1-.065.073l-1.058 1.054c-.023.023-.045.048-.07.069a.09.09 0 0 0-.027.073c-.071-.041-.081-.12-.111-.185a6.525 6.525 0 0 0-.9-1.415.46.46 0 0 1-.107-.152.116.116 0 0 1 .039-.058q.529-.53 1.059-1.058c.028-.028.057-.066.105-.034.161.179.313.366.457.559a7.73 7.73 0 0 1 .562.858 2.252 2.252 0 0 1 .116.216z" transform="translate(-1523.643 -416.486)" style="fill:#fdd462"/>
        <path data-name="Path 11218" d="M422.651 1543.724a.33.33 0 0 1-.066.073l-1.088 1.089a.265.265 0 0 0-.064.073.129.129 0 0 1-.058-.021c-.049-.027-.1-.054-.148-.083q-.153-.09-.306-.183a7.592 7.592 0 0 1-.748-.531c-.09-.073-.18-.146-.268-.221-.025-.021-.047-.045-.07-.068s.017-.055.038-.075c.357-.35.691-.723 1.051-1.07a.149.149 0 0 1 .064-.046c.043 0 .068.036.1.06a6.853 6.853 0 0 0 1.485.94c.027.014.066.024.078.063z" transform="translate(-417.059 -1529.432)" style="fill:#fdd462"/>
        <path data-name="Path 11219" d="M1203.548 188.406a.219.219 0 0 0-.061.052l-.241.24a.485.485 0 0 1-.087.076.341.341 0 0 0-.059.054l-.754.753a.285.285 0 0 1-.074.064.069.069 0 0 1-.068 0c-.143-.048-.285-.1-.43-.144a.079.079 0 0 1-.055-.042.1.1 0 0 1 .011-.033c.017-.021.036-.039.055-.058l.967-.967a.472.472 0 0 0 .088-.1.2.2 0 0 1 .036-.039l.076-.076c.026-.025.01-.032 0-.048a.119.119 0 0 1 .026 0l.139.061.236.107.162.075a.232.232 0 0 1 .033.025z" transform="translate(-1191.65 -187.551)" style="fill:#fee191"/>
        <path data-name="Path 11220" d="M372.42 1501.278a.243.243 0 0 1-.058.067l-.5.5a.612.612 0 0 0-.1.113.3.3 0 0 1-.049.052l-.386.386a.272.272 0 0 0-.058.067 1.1 1.1 0 0 1-.161-.141l-.165-.163c-.023-.023-.048-.045-.069-.07s-.049-.034-.064-.061a.066.066 0 0 0 .058-.016l.057-.057 1.009-1.009a.278.278 0 0 1 .073-.064c.044-.01.063.027.087.05.1.1.193.2.3.291.015.016.034.029.026.055z" transform="translate(-368.493 -1488.043)" style="fill:#fee191"/>
        <path data-name="Path 11221" d="M1498.413 374.444a.065.065 0 0 0-.058.016l-.057.056-1.009 1.009a.274.274 0 0 1-.073.064c-.006 0-.013.005-.017 0-.121-.118-.244-.235-.356-.362a.03.03 0 0 1 0-.034.064.064 0 0 1 .016-.041l.056-.057 1.012-1.013a.3.3 0 0 0 .065-.074c.014.012.028.023.04.035l.265.267a.489.489 0 0 1 .076.087c.009.021.033.025.04.047z" transform="translate(-1484.013 -371.687)" style="fill:#fee191"/>
        <path data-name="Path 11222" d="M189.946 1209.794a.063.063 0 0 1-.016.041l-.056.057-1.093 1.093-.056.057a.068.068 0 0 0-.015.041s-.005 0-.006-.006c-.059-.128-.119-.255-.177-.384-.017-.037-.031-.076-.046-.114a.1.1 0 0 0 .033-.01.449.449 0 0 0 .045-.043l.827-.828a.319.319 0 0 0 .063-.074.154.154 0 0 1 .029-.034l.252-.253a.074.074 0 0 1 .054-.028.13.13 0 0 1 .049.082c.037.109.072.219.111.327.009.026.022.051.002.076z" transform="translate(-187.865 -1199.193)" style="fill:#fee191"/>
        <path data-name="Path 11223" d="M299.734 372.631c0-.037-.02-.069-.021-.1-.035-.111-.051-.226-.082-.338 0-.048-.02-.093-.024-.14s-.016-.1-.025-.149c0-.02-.008-.041-.009-.061a.234.234 0 0 0-.011-.07.025.025 0 0 1 0-.008c0-.075-.023-.147-.023-.221a.331.331 0 0 0-.011-.1.238.238 0 0 1-.006-.062v-.107a.187.187 0 0 0 0-.053.447.447 0 0 1-.013-.142v-.519a.078.078 0 0 1 .015-.059c.046.063.016.133.015.2v.108a3.575 3.575 0 0 1 .106-.755 6.631 6.631 0 0 1 5.461-5.114c.247-.038.5-.055.747-.07.213-.013.423 0 .634.007a6.461 6.461 0 0 1 .9.11.058.058 0 0 1 .038.021c.007.022-.01.032-.022.044-.459.451-.911.91-1.367 1.364a.693.693 0 0 0-.113.126.094.094 0 0 1-.073.046 1.386 1.386 0 0 1-.161 0h-3.123a.8.8 0 0 0-.222.023.491.491 0 0 0-.372.487v3.186a1.166 1.166 0 0 1 0 .161.187.187 0 0 1-.067.1l-2.048 2.046c-.039.026-.062.097-.123.039z" transform="translate(-297.849 -362.621)" style="fill:#f7a219"/>
        <path data-name="Path 11224" d="M309.141 304.066a.049.049 0 0 0-.031-.015.338.338 0 0 1-.106-.013c-.033-.013-.071 0-.105-.017a.219.219 0 0 0-.062-.008.492.492 0 0 0-.1-.017.258.258 0 0 1-.088-.014.252.252 0 0 0-.053 0 .325.325 0 0 1-.1-.012.261.261 0 0 0-.071-.006.416.416 0 0 1-.133-.014.187.187 0 0 0-.062 0h-.215a.247.247 0 0 1-.088-.01.133.133 0 0 0-.044-.007h-.152a.094.094 0 0 0-.035 0 .267.267 0 0 1-.106.012h-.206a.2.2 0 0 0-.062 0 .321.321 0 0 1-.106.013.313.313 0 0 0-.124.014.1.1 0 0 1-.035 0 .255.255 0 0 0-.106.014.035.035 0 0 1-.018 0 1.73 1.73 0 0 0-.186.02c-.077.021-.157.029-.236.045s-.143.037-.217.046a.492.492 0 0 0-.095.024c-.059.02-.12.033-.181.049-.078.02-.154.045-.23.07a7.959 7.959 0 0 0-.73.288c-.065.029-.131.058-.194.09a.891.891 0 0 0-.148.082.121.121 0 0 1-.024.012 3.025 3.025 0 0 0-.264.149c-.114.07-.229.138-.339.216-.083.058-.166.115-.245.178l-.1.077c-.034.026-.062.046-.089.074-.059.03-.1.089-.154.122a.347.347 0 0 0-.058.055.356.356 0 0 1-.068.057.238.238 0 0 0-.047.041l-.367.367a.175.175 0 0 0-.03.033.638.638 0 0 1-.1.115c-.014.015-.027.032-.04.048a.164.164 0 0 1-.015.022 1.357 1.357 0 0 0-.115.136.98.98 0 0 0-.077.1c-.05.07-.1.138-.154.207s-.078.112-.115.17c-.074.115-.146.231-.219.347-.035.079-.085.15-.123.228l-.1.2c-.034.066-.063.135-.093.2s-.057.138-.086.206c-.086.2-.146.409-.216.615-.009.025-.014.052-.021.077-.018.066-.04.131-.053.2s-.035.144-.047.217-.03.145-.045.218a.282.282 0 0 0-.007.044.206.206 0 0 1-.014.088c0 .063-.027.122-.023.185a.107.107 0 0 1 0 .018.555.555 0 0 0-.017.1v.089s0 .005-.005.007-.009 0-.01-.007a.389.389 0 0 1 0-.045V309.454a1.033 1.033 0 0 1 .016-.151.681.681 0 0 1 .015-.151.052.052 0 0 0 0-.018c0-.066.019-.13.023-.2 0-.041.014-.082.019-.123.01-.071.025-.141.039-.211.03-.149.066-.3.106-.443q.079-.284.184-.56c.053-.14.111-.276.171-.413q.074-.168.16-.33c.077-.145.157-.288.246-.426.048-.075.094-.152.145-.225.087-.125.174-.249.271-.367l.171-.207a6.335 6.335 0 0 1 .446-.476c.045-.043.093-.084.139-.126s.092-.084.14-.125a4.19 4.19 0 0 1 .249-.2c.127-.1.257-.194.392-.282a7.195 7.195 0 0 1 .938-.52 6.139 6.139 0 0 1 .786-.3c.131-.039.262-.079.4-.108.108-.023.214-.049.323-.067.088-.014.177-.025.264-.046.069 0 .135-.024.2-.023a.129.129 0 0 0 .036 0 .764.764 0 0 1 .178-.016.2.2 0 0 0 .045 0 .6.6 0 0 1 .16-.013h.663a.421.421 0 0 1 .107.01.3.3 0 0 0 .062.006.76.76 0 0 1 .169.016.248.248 0 0 0 .053 0 .312.312 0 0 1 .088.011.1.1 0 0 0 .026 0c.1.006.194.027.292.041.071.01.14.028.21.042.114.023.226.053.339.08a.824.824 0 0 0 .129.034c.065.02.13.039.194.06.092.031.183.064.275.1l.084.027a.09.09 0 0 0 .039.019 6.223 6.223 0 0 1 1.022.511c.1.065.206.131.307.2s.18.128.267.2.188.147.278.225.173.146.251.229a.436.436 0 0 0 .041.034c.016.018.031.036.048.053l.213.218c.031.032.059.067.089.1a.351.351 0 0 0 .027.024c.031.039.061.08.095.118.108.123.2.255.3.386a5.9 5.9 0 0 1 .358.554c.077.134.153.269.219.409.043.091.083.184.124.277a.065.065 0 0 0 .011.013l.084.216q.107.279.19.566.052.18.093.362c.025.113.049.226.066.341l.047.308v.018l.023.23v.124c.022.089-.008.182.016.271v.161a.017.017 0 0 1-.024 0 .084.084 0 0 1-.014-.038.367.367 0 0 0-.014-.093 1.024 1.024 0 0 0-.018-.137c-.051-.293-.1-.586-.183-.874a7.56 7.56 0 0 0-.406-1.1 6.766 6.766 0 0 0-.77-1.23 7.074 7.074 0 0 0-.536-.6c-.129-.125-.258-.251-.4-.367a6.913 6.913 0 0 0-1.42-.91 7.129 7.129 0 0 0-.908-.352c-.166-.043-.331-.092-.5-.126a.108.108 0 0 1-.063-.028z" transform="translate(-299.572 -301.67)" style="fill:#f37e00"/>
        <path data-name="Path 11225" d="M324.473 969.708c.016.009.032.016.048 0l.057-.057 2.025-2.025a.279.279 0 0 1 .073-.065c.035.037.026.083.027.127 0 .214 0 .429.006.643a.084.084 0 0 1-.032.061c-.638.627-1.266 1.264-1.9 1.894-.024.024-.044.059-.088.052a.043.043 0 0 0-.018-.037.145.145 0 0 0-.006-.026 4.833 4.833 0 0 1-.156-.458.133.133 0 0 0-.02-.058.1.1 0 0 1-.016-.051z" transform="translate(-322.588 -959.698)" style="fill:#f9be5e"/>
        <path data-name="Path 11226" d="M988.577 981.094v.036c.024.046-.007.1.018.143v.25a.115.115 0 0 1 0 .036.414.414 0 0 0-.014.133.318.318 0 0 1-.013.115.047.047 0 0 0 0 .018 1.346 1.346 0 0 1-.018.177 2.5 2.5 0 0 1-.031.193.559.559 0 0 1-.021.123 2.9 2.9 0 0 1-.066.323 5.865 5.865 0 0 1-.194.668c-.036.1-.077.206-.118.309a7.229 7.229 0 0 1-.314.662c-.044.084-.094.166-.142.248-.064.107-.133.212-.2.315s-.149.215-.231.318a2.621 2.621 0 0 1-.212.254c-.04.06-.1.105-.141.161-.084.106-.185.195-.278.291a.79.79 0 0 1-.106.1.989.989 0 0 0-.091.086.4.4 0 0 1-.081.069.081.081 0 0 0-.021.017 2.007 2.007 0 0 1-.156.134c-.017.016-.039.028-.057.042q-.154.123-.316.233c-.044.03-.086.064-.132.092-.1.063-.2.127-.3.188a6.233 6.233 0 0 1-.441.237c-.1.047-.2.087-.293.132s-.21.086-.315.126-.191.066-.288.1c-.153.05-.309.088-.464.128-.1.026-.2.043-.3.067-.052.012-.107.011-.158.024s-.125.011-.184.03a.138.138 0 0 1-.036 0 .333.333 0 0 0-.1.012.187.187 0 0 1-.053.005.461.461 0 0 0-.133.014.183.183 0 0 1-.053 0h-.125a.188.188 0 0 0-.053 0 .415.415 0 0 1-.133.012h-.4c-.023-.024 0-.044.009-.063a.594.594 0 0 1 .062-.065l2.778-2.778a.254.254 0 0 1 .089-.073 3.241 3.241 0 0 1 .309.156c.021.009.039.028.065.026a1.273 1.273 0 0 0-.009-.452.518.518 0 0 1 .012-.107 4.626 4.626 0 0 1 .355-.371c.018-.02.05-.032.035-.069.041-.037.082-.069.139-.028.032.1 0 .207.026.309a.69.69 0 0 1 .005.094V984.627a.057.057 0 0 0 .063.049 2.518 2.518 0 0 0 .343-.006c.047-.032.016-.081.025-.121v-.212a.631.631 0 0 0-.005-.137.145.145 0 0 1 0-.032c.012-.226 0-.451.005-.677a1.135 1.135 0 0 1 0-.115.238.238 0 0 1 .088-.12l2.2-2.2a.594.594 0 0 0 .153-.2.053.053 0 0 1 .016.039v.1c.004.036-.021.072.001.099z" transform="translate(-973.761 -972.874)" style="fill:#f7a219"/>
        <path data-name="Path 11227" d="M747.96 1160.612a.22.22 0 0 1-.02.029c-.018.02-.038.038-.057.057l-2.786 2.786c-.021.021-.043.042-.062.065s-.007.022-.01.033h-.009a.414.414 0 0 1-.155-.017h-.125a.163.163 0 0 1-.053 0 .362.362 0 0 0-.123-.014.239.239 0 0 1-.079-.01.146.146 0 0 0-.044-.007.332.332 0 0 1-.115-.015.146.146 0 0 0-.044 0 .133.133 0 0 1-.044 0 .8.8 0 0 0-.123-.021.458.458 0 0 0-.113-.024 2.035 2.035 0 0 1-.227-.044 2.1 2.1 0 0 1-.216-.053l-.128-.037q-.2-.055-.391-.124c-.078-.028-.155-.059-.233-.089-.008 0-.013-.012-.019-.018-.007-.044.028-.064.052-.088l2.392-2.392a.186.186 0 0 1 .095-.064c.16-.013.32 0 .48-.006a.428.428 0 0 0 .1-.006c.059-.038.02-.1.031-.146a1.779 1.779 0 0 0-.02-.416.069.069 0 0 1 .021-.065c.069-.078.145-.149.218-.222.015-.015.034-.027.051 0a.854.854 0 0 1 .013.249c0 .059.024.088.085.087s.131 0 .2 0 .095-.029.095-.1v-.608a.281.281 0 0 1 .009-.1c.01-.026.023-.052.058-.024.013.085 0 .169 0 .254a1.423 1.423 0 0 0 .006.23 1.362 1.362 0 0 0 .231.207c.088.075.18.145.267.222l.018.02.008.011a.161.161 0 0 1 .022.081v.246a.087.087 0 0 0 .017.062 1.361 1.361 0 0 0 .336.012c.032 0 .044-.025.045-.055s0-.071 0-.107c0-.106-.006-.212 0-.318v-1.526c0-.05-.01-.1.035-.142a.305.305 0 0 1 .225 0 .216.216 0 0 1 .025.137c.005.2-.009.409.009.613a.324.324 0 0 1 0 .1 5.851 5.851 0 0 0 0 .812.932.932 0 0 1 0 .146v.257a.186.186 0 0 0 .052.142z" transform="translate(-736.998 -1148.737)" style="fill:#f9be5e"/>
        <path data-name="Path 11228" d="M1710.357 963.671a.048.048 0 0 1-.017-.039v-.232a.057.057 0 0 1 .015.04q.002.115.002.231z" transform="translate(-1695.524 -955.577)" style="fill:#f48506"/>
        <path data-name="Path 11229" d="M1710.338 1009.833a.046.046 0 0 1-.018-.038v-.105h.018v.143z" transform="translate(-1695.504 -1001.435)" style="fill:#f48506"/>
        <path data-name="Path 11230" d="M347.58 1055.871c.026-.024.053-.048.078-.073l1.821-1.821.064-.063a.055.055 0 0 1 .041-.015.094.094 0 0 1 .017.091 1.833 1.833 0 0 0 0 .4c.028.092.017.2.108.266a1.206 1.206 0 0 0 .258.007h.893a.275.275 0 0 1 .13.023.148.148 0 0 1 .026.017.2.2 0 0 1 .022.02l.01.011a.168.168 0 0 1 .025.037c.008.03.036.065-.016.084a.418.418 0 0 0-.328-.1c-.325.005-.65 0-.974 0-.119 0-.125.006-.125.127v.644c0 .089.01.094.093.055.113-.053.22-.119.337-.164a.135.135 0 0 0 .109-.019c.109-.058.216-.121.327-.176.038-.026.049-.053-.01-.057-.1-.006-.2 0-.3 0a.048.048 0 0 0-.052.057.236.236 0 0 1-.019.13.022.022 0 0 1-.028 0 .309.309 0 0 1-.015-.192c.005-.053.048-.063.092-.064h.348c.042 0 .086 0 .1.057a.114.114 0 0 1-.057.137c-.107.058-.214.117-.323.173-.172.089-.347.172-.516.267a.127.127 0 0 0-.082.116v.643c0 .033.015.064.016.1a.724.724 0 0 0-.018.235 1.029 1.029 0 0 0 .008.226c.029.047.082.056.125.083s.069.024.079.066c-.263.27-.532.534-.8.8-.028.028-.059.052-.1.028a.434.434 0 0 0-.071-.08.544.544 0 0 1-.081-.094.137.137 0 0 0-.023-.027c-.066-.065-.119-.14-.178-.211-.091-.11-.174-.226-.259-.34-.062-.083-.115-.173-.171-.26q-.055-.086-.108-.175c-.039-.066-.079-.133-.115-.2q-.108-.21-.212-.423a4.008 4.008 0 0 1-.146-.346z" transform="translate(-345.48 -1045.232)" style="fill:#f7a219"/>
        <path data-name="Path 11231" d="M493.35 1325.542a.074.074 0 0 0 .065-.022l.051-.05.682-.682.057-.056a.069.069 0 0 1 .041-.016c.061-.009.1.033.152.056.074.037.073.039.075-.051v-.241a.146.146 0 0 1 .009-.041c.142-.171.308-.318.465-.474.017-.017.043-.038.066 0a.336.336 0 0 1 .01.116v.415a.1.1 0 0 0 .059.107c.038.05-.006.077-.033.1-.133.137-.269.271-.4.406l-.771.771a.225.225 0 0 1-.091.07.114.114 0 0 1-.049-.037l-.264-.262a.3.3 0 0 0-.066-.058.072.072 0 0 0-.028-.031c-.013-.005-.021-.013-.03-.02z" transform="translate(-489.89 -1312.754)" style="fill:#f9be5e"/>
        <path data-name="Path 11232" d="M539.63 1162.8a.2.2 0 0 1 .052-.061l.341-.342.847-.848a.315.315 0 0 0 .065-.073.077.077 0 0 1 .05-.054c.1-.02.205 0 .307-.013.033-.008.03-.035.03-.059v-.186a.246.246 0 0 0-.01-.085.309.309 0 0 1-.007-.072.107.107 0 0 1 .018-.069c.045.027.045.027.024.094.051-.041.088-.089.133-.126s.076-.033.085.035a.76.76 0 0 0 .017.219.077.077 0 0 1 .021.035.506.506 0 0 0-.016.178v.23c0 .035 0 .075.055.039.1-.065.2-.13.31-.19a.088.088 0 0 0 .053-.085v-.259a.428.428 0 0 0-.016-.164.289.289 0 0 1 .035-.114.049.049 0 0 1 .058 0c.176.1.344.22.509.328.007.019.015 0 .006.009s-.005 0-.007 0a.314.314 0 0 1-.011-.105v-.177c0-.031 0-.064.026-.088.055.017.04.066.043.1a1.625 1.625 0 0 0 .014.282c.005.049-.025.094-.014.143s0 .079 0 .118v.143c0 .025-.011.053.016.084a2.346 2.346 0 0 0 .356-.225 1.452 1.452 0 0 0-.014-.463c.008-.142 0-.284.006-.426a.164.164 0 0 0-.088-.161 1.042 1.042 0 0 1-.149-.1c-.05-.043-.046-.064.015-.1a1.762 1.762 0 0 1 .166.115c.067.038.07.037.076-.037a1.193 1.193 0 0 0-.026-.2c.011-.222-.007-.444.01-.666a.321.321 0 0 1 .129-.145.108.108 0 0 1 .031-.008c.029 0 .056 0 .072.032a.359.359 0 0 1 .014.141v1.329a.992.992 0 0 0 .01.169.443.443 0 0 1 0 .083v.254a.806.806 0 0 0 0 .109c.021.051.067.043.107.043h.535c.041 0 .084-.006.117.028l-.067.071-2.37 2.371a.364.364 0 0 0-.071.079h-.017c-.011-.01-.026-.006-.037-.015l-.094-.039a.113.113 0 0 0-.048-.015l-.112-.056c-.109-.055-.219-.108-.328-.164a4.548 4.548 0 0 1-.394-.228c-.047-.031-.1-.059-.143-.09q-.2-.136-.4-.287c-.059-.046-.118-.089-.174-.139-.038-.033-.079-.063-.118-.094z" transform="translate(-535.738 -1149.599)" style="fill:#f7a219"/>
        <path data-name="Path 11233" d="M737.04 1662.505a.038.038 0 0 1 .037.015.035.035 0 0 1-.037-.015z" transform="translate(-731.306 -1648.158)" style="fill:#f9be5e"/>
        <path data-name="Path 11234" d="M560.5 551.8v-.088a.474.474 0 0 1-.018-.148v-4.101a.312.312 0 0 1 .042-.171.555.555 0 0 1 .376-.292.532.532 0 0 1 .132-.016h3.389a.037.037 0 0 1 .006.042 1.335 1.335 0 0 1-.245.233c-.305.271-.612.541-.916.814a.3.3 0 0 1-.21.081h-1.155c-.04 0-.086-.012-.114.033a3.221 3.221 0 0 0-.008.455v2.267c0 .1.012.11.107.111h1.136c.095 0 .114-.018.114-.109 0-.364.006-.727 0-1.091a.092.092 0 0 0-.007-.035.083.083 0 0 0-.037-.046.249.249 0 0 0-.106-.009h-.939a.315.315 0 0 1-.124-.011c-.036-.025-.023-.05 0-.073.15-.136.281-.291.436-.421.107-.09.2-.2.3-.293a3.389 3.389 0 0 1 .313-.277.248.248 0 0 1 .1-.015h1.223c.054 0 .118-.011.142.062a.236.236 0 0 1 0 .044v3.136a.407.407 0 0 1-.316.318.676.676 0 0 1-.2.024h-2.862a.89.89 0 0 1-.125-.007.492.492 0 0 1-.425-.31.227.227 0 0 1-.013-.041.347.347 0 0 1 0-.052l.004-.014z" transform="translate(-556.392 -543.044)" style="fill:#fdd462"/>
        <path data-name="Path 11235" d="M854.875 383.4v-.032c0-.01.013-.013.015-.021a.1.1 0 0 1 .031-.053l.038-.038 1.365-1.365.051-.05a.077.077 0 0 1 .041-.017c.121.022.241.052.36.083l.23.062c.046.031.014.059-.007.08q-.62.626-1.244 1.245a.154.154 0 0 1-.115.039h-.25c-.05 0-.08.02-.076.075a2.863 2.863 0 0 1-.008.33.54.54 0 0 1-.123.128c-.351.353-.7.7-1.054 1.058a.252.252 0 0 1-.228.092c-.077-.011-.16.03-.23-.031a.243.243 0 0 1 .1-.122c.339-.295.67-.6 1.01-.89a.265.265 0 0 0 .084-.1c.011-.122 0-.244 0-.365a.608.608 0 0 1 .01-.108z" transform="translate(-846.848 -379.424)" style="fill:#f9be5e"/>
        <path data-name="Path 11236" d="M1447.006 767.543c0 .083 0 .083-.06.14l-2.3 2.3a.216.216 0 0 1-.061.052.09.09 0 0 1-.024-.074c0-.237-.007-.474 0-.711a.132.132 0 0 1 .021-.046l.019-.027a.369.369 0 0 0 .008-.124v-1.738a.165.165 0 0 1 .06-.1l1.63-1.629c.026-.026.051-.086.106-.034.072.153.14.308.2.466.042.108.084.216.12.326.055.169.1.341.146.514.034.132.056.267.086.4 0 .057.022.11.023.168.008.042.027.074.026.117z" transform="translate(-1432.224 -759.557)" style="fill:#f9be5e"/>
        <path data-name="Path 11237" d="M1375.851 573.817c-.016-.008-.032-.015-.048 0l-.057.057-1.6 1.6c-.023.023-.048.045-.072.067-.058-.016-.041-.065-.042-.1-.005-.213 0-.426-.006-.638a.161.161 0 0 0-.09-.094c-.174-.1-.347-.206-.522-.307a.29.29 0 0 1-.052-.034c-.046-.042-.046-.074.02-.092.041.011.067.048.106.063s.046.03.07.043.065.04.1.061l.019.012a.235.235 0 0 0 .042.017.08.08 0 0 0 .083-.016c.064-.049.126-.1.191-.148s.043-.106.042-.165v-.244a.521.521 0 0 0-.008-.115.143.143 0 0 1 0-.045.869.869 0 0 0 .007-.187v-.946a.246.246 0 0 1 .082-.2c.146-.136.276-.287.427-.417a1.1 1.1 0 0 0 .1.111l.145.145a.285.285 0 0 1 .063.075.047.047 0 0 0 .01.014 2.116 2.116 0 0 1 .146.167c.036.039.069.081.1.124q.076.1.149.2c.025.033.046.069.069.1l.163.244c.032.05.063.1.093.151s.066.119.1.178c.043.075.081.152.121.228.01.018.023.035.033.053a.243.243 0 0 1 .016.038z" transform="translate(-1361.662 -567.819)" style="fill:#f7a219"/>
        <path data-name="Path 11238" d="M1027.01 398.842c.014-.051.033-.069.078-.069h.277c.064 0 .064 0 .109-.045l.423-.423.777-.777c.017-.017.033-.034.051-.05s.012-.031 0-.048a.057.057 0 0 1 .018 0 2.885 2.885 0 0 0 .286.1c.062.021.122.046.183.069l.166.065.016.007c.1.053.213.092.315.148.037.02.074.038.112.056.136.067.266.145.4.222.067.039.128.087.2.121a.308.308 0 0 1 .067.044 1.569 1.569 0 0 0 .13.093q.1.075.208.153c.08.061.159.124.235.189a1.307 1.307 0 0 1-.245.258.075.075 0 0 1-.07.019 1.069 1.069 0 0 0-.6-.125h-3.042a.163.163 0 0 1-.094-.007z" transform="translate(-1018.57 -394.888)" style="fill:#f7a219"/>
        <path data-name="Path 11239" d="M1433.511 533.774c.016-.013.033-.025.047-.039l.156-.156c.015-.014.032-.026.048-.039.067.058.135.116.2.176.05.046.1.1.147.143l.047.04a.06.06 0 0 1-.015.041l-.05.051-.347.347-.044.044a.079.079 0 0 0-.028.063v1.178a.045.045 0 0 1-.015.031.1.1 0 0 1-.028-.082c0-.475-.007-.951 0-1.426a.236.236 0 0 0-.044-.215c-.028-.048-.092-.084-.074-.157z" transform="translate(-1421.275 -529.728)" style="fill:#f9be5e"/>
        <path data-name="Path 11240" d="M1708.448 996.36a.045.045 0 0 1-.018-.038v-.052a.043.043 0 0 1 .018.038z" transform="translate(-1693.632 -988.14)" style="fill:#f48506"/>
        <path data-name="Path 11241" d="M1285.528 1140.18a.041.041 0 0 1-.017-.03v-.723a.118.118 0 0 1-.016-.025.227.227 0 0 1-.007-.075.111.111 0 0 1 .024-.076.126.126 0 0 1 .092-.029h1.188a.192.192 0 0 1 .2.19.309.309 0 0 0-.006.1v1.467a.2.2 0 0 1-.008.1v.016a.081.081 0 0 1-.063.027q-.168.007-.336 0a.1.1 0 0 1-.064-.027.139.139 0 0 1-.017-.075v-.245a.168.168 0 0 1-.026-.121V1140.37a.683.683 0 0 0 0-.074c-.127.074-.261.127-.39.19a.114.114 0 0 0-.061.119v.42a.425.425 0 0 1-.025.221v.069a.044.044 0 0 1-.018.037h-.013l-.025-.006-.352-.192a.144.144 0 0 1-.059-.053.147.147 0 0 1-.018-.068v-.671a.169.169 0 0 1 .018-.086l.017-.016a.153.153 0 0 1 .027-.024q.308-.172.625-.326c.078-.038.149-.086.227-.124.021-.01.043-.022.045-.05a.052.052 0 0 0-.02-.052 3.012 3.012 0 0 0-.371-.008c-.047 0-.06.026-.061.068a.992.992 0 0 1-.007.194.094.094 0 0 1-.045.053c-.125.068-.255.128-.378.2a.049.049 0 0 1-.06-.011z" transform="translate(-1274.634 -1129.757)" style="fill:#fdd462"/>
        <path data-name="Path 11242" d="M1289.917 1339.9a1.7 1.7 0 0 1 .188.1.169.169 0 0 0 .024.013c.074.037.147.077.218.12l.019.016a.294.294 0 0 1 .036.162V1340.648c0 .015-.013.016-.027.01a.025.025 0 0 1-.006-.006.658.658 0 0 1-.006-.128v-.112c.017-.089-.024-.138-.1-.178a3.353 3.353 0 0 1-.338-.191c-.008-.043-.008-.095-.008-.143z" transform="translate(-1279.024 -1328.564)" style="fill:#f69a13"/>
        <path data-name="Path 11243" d="M1395.52 1344.44v-.107c.006-.01.013-.024.023-.026a1.218 1.218 0 0 1 .417-.008c.04 0 .029.047.044.071v.233c-.038 0-.035-.033-.042-.057 0-.062-.038-.079-.094-.078h-.239a.152.152 0 0 1-.109-.028z" transform="translate(-1383.642 -1332.907)" style="fill:#f6950f"/>
        <path data-name="Path 11244" d="M1341.186 1291.3v.126a.435.435 0 0 0-.091.028.064.064 0 0 0-.035.025.636.636 0 0 1-.35.169c-.032-.031-.011-.071-.016-.107s.036-.038.059-.05c.116-.058.233-.118.35-.175.025-.016.051-.033.083-.016z" transform="translate(-1329.324 -1280.409)" style="fill:#f38103"/>
        <path data-name="Path 11245" d="M1290.288 1382.715v.088a.045.045 0 0 1-.018.038c-.028-.017-.054-.036-.083-.05-.1-.049-.2-.109-.295-.163a.1.1 0 0 1-.052-.029.052.052 0 0 1-.018-.038v-.06a.057.057 0 0 1 .066-.007 2.4 2.4 0 0 1 .4.221z" transform="translate(-1278.93 -1370.751)" style="fill:#f38102"/>
        <path data-name="Path 11246" d="M1339.946 1311.213c.016-.006.033-.011.049-.018l.291-.144a.047.047 0 0 1 .017 0s.008.01.006.013a.081.081 0 0 1-.016.021l-.342.341a.486.486 0 0 1-.042.034v-.234c.01-.01.027-.005.037-.013z" transform="translate(-1328.55 -1299.983)" style="fill:#f9bd5d"/>
        <path data-name="Path 11247" d="M1395.986 1369.079c0 .02 0 .041.018.054v.105a.045.045 0 0 1-.018.038.141.141 0 0 0-.136-.065 1.962 1.962 0 0 1-.329-.007v-.107c.008-.012.016-.029.031-.031a.923.923 0 0 1 .434.013z" transform="translate(-1383.642 -1357.438)" style="fill:#f48606"/>
        <path data-name="Path 11248" d="M1396 1361.11h-.38a.16.16 0 0 0-.085.018V1361h.415c.041 0 .049.01.05.054v.018z" transform="translate(-1383.652 -1349.469)" style="fill:#f58d0a"/>
        <path data-name="Path 11249" d="M1395.52 1384.038a.149.149 0 0 1 .059-.018h.382a.032.032 0 0 1 .023.024v.062h-.433c-.021 0-.03-.012-.032-.035s.001-.021.001-.033z" transform="translate(-1383.642 -1372.272)" style="fill:#f38001"/>
        <path data-name="Path 11250" d="M1396 1339.877s-.01-.008-.012-.013a.053.053 0 0 0-.058-.042h-.337a.151.151 0 0 0-.076.018v-.091h.464a.045.045 0 0 1 .019.038v.09z" transform="translate(-1383.642 -1328.415)" style="fill:#f69c14"/>
        <path data-name="Path 11251" d="M1445.42 1160.353V1158.686l.01-.006h.01a.016.016 0 0 1 0 .021v1.617a.042.042 0 0 1-.02.035z" transform="translate(-1433.076 -1149.035)" style="fill:#fbbf49"/>
        <path data-name="Path 11252" d="M1104.927 1140.033s-.01-.008-.015-.008-.014 0-.014.006a.283.283 0 0 0-.006.052v.689c0 .107 0 .1-.1.1h-.3a.035.035 0 0 1-.033-.036v-.339a.153.153 0 0 1-.028-.118v-1.235a.157.157 0 0 1 .019-.095.133.133 0 0 1 .1-.029h.258c.086 0 .109.016.12.114a.612.612 0 0 1 0 .076v.053a.216.216 0 0 0 .088.215c.129.1.255.211.379.321a.029.029 0 0 0 .032.009c.018-.2.005-.393.009-.589.006-.055-.015-.114.026-.163a1.326 1.326 0 0 1 .391-.011c.053 0 .06.049.063.093 0 .069-.017.135-.017.2v1.441c0 .109 0 .114-.117.115h-.286a.138.138 0 0 1-.033-.006.069.069 0 0 1-.027-.018.146.146 0 0 1-.017-.076v-.144a.272.272 0 0 0-.13-.294 3.626 3.626 0 0 1-.282-.229c-.03-.027-.07-.046-.08-.094z" transform="translate(-1095.27 -1129.558)" style="fill:#fdd462"/>
        <path data-name="Path 11253" d="M927.665 1053.484v1.447a.743.743 0 0 1-.089.1l-.158.159c-.017.017-.024.034-.006.054a.084.084 0 0 1 .02.057v.348a.018.018 0 0 1-.025-.005.079.079 0 0 1-.011-.026.686.686 0 0 1 0-.1v-.114a.627.627 0 0 0-.005-.07 2.069 2.069 0 0 0-.348-.371.15.15 0 0 0-.111-.025h-.385c-.046 0-.105 0-.081-.078a.068.068 0 0 1 .025-.015 4.819 4.819 0 0 1 .5-.005c.081 0 .119.071.183.119a1.651 1.651 0 0 0 .006-.223v-.106c0-.051-.03-.061-.068-.06a5.289 5.289 0 0 0-.634.012c-.038-.075.019-.079.065-.081.113-.006.227 0 .34 0a2.247 2.247 0 0 0 .252-.006 3.266 3.266 0 0 0-.3-.333.14.14 0 0 0-.1-.023h-.206c-.045 0-.085-.019-.06-.079a.864.864 0 0 1 .359-.012.1.1 0 0 1 .063.046l.017.022.017.02.009.01.018.019c.026.028.053.054.081.08l.019.018a.213.213 0 0 1 .017.02.284.284 0 0 0 .321.114c.074-.021.034-.084.044-.129s0-.109 0-.164a.576.576 0 0 0-.014-.177c-.067-.1-.175-.171-.247-.268a.364.364 0 0 0-.348-.145c-.238.01-.476 0-.714 0-.044 0-.09.009-.127-.027-.018-.06.022-.071.065-.075a1.184 1.184 0 0 1 .183 0h.029a.257.257 0 0 0 .041 0h.043c.149-.012.152-.015.158-.166v-.128a.445.445 0 0 1 0-.072.113.113 0 0 1 .008-.027 4.532 4.532 0 0 1 .33-.336c.029-.029.069-.059.1.006a2.363 2.363 0 0 1 .008.312c0 .127.006.132.13.133h.92a.214.214 0 0 1 .138.023c-.008.061-.059.047-.094.048H927.054c-.054 0-.1 0-.1.077 0 .127 0 .127.122.149a.594.594 0 0 1 .132.124c.033.032.056.075.1.093a.859.859 0 0 0 .314-.01c.021-.031.012-.066.015-.1s0-.047.028-.06z" transform="translate(-918.472 -1043.991)" style="fill:#f7a219"/>
        <path data-name="Path 11254" d="M927.95 1381.034h-.765a.031.031 0 0 1-.022-.025v-.044a.1.1 0 0 1 .1-.045h1.249a.144.144 0 0 1 .077.018.1.1 0 0 1 .006.1h-.187z" transform="translate(-919.652 -1369.195)" style="fill:#f38102"/>
        <path data-name="Path 11255" d="m1155.656 1247.57.177.15a1.181 1.181 0 0 0 .1.078c.055.037.1.088.153.123a.319.319 0 0 1 .047.042c.048.046.047.044.047.109v.107c-.161-.158-.349-.285-.506-.438 0 .026.024.065-.03.08v-.213a.046.046 0 0 1 .012-.038z" transform="translate(-1145.999 -1237.095)" style="fill:#f69a13"/>
        <path data-name="Path 11256" d="M1155.571 1264.832c0-.007.013-.014.014-.022s0-.041 0-.062v-.008h.016a.913.913 0 0 1 .129.106.328.328 0 0 0 .048.039.124.124 0 0 1 .022.015 1.129 1.129 0 0 0 .141.12c.037.033.077.063.116.094a.057.057 0 0 1 .024.045.04.04 0 0 0 .017.03v.161a3.691 3.691 0 0 0-.495-.454.569.569 0 0 0 0 .092c0 .033 0 .067-.024.094a.043.043 0 0 1-.018-.038c.009-.07.01-.144.01-.212z" transform="translate(-1145.93 -1254.105)" style="fill:#f5900d"/>
        <path data-name="Path 11257" d="M1215.428 1365.647v.15a.031.031 0 0 1-.029.028h-.362a.134.134 0 0 1-.035 0 .077.077 0 0 1-.02-.015c.052-.041.114-.023.172-.026a1.142 1.142 0 0 0 .187-.01 1.805 1.805 0 0 0-.231-.009.184.184 0 0 1-.128-.026v-.143a.2.2 0 0 1 .143-.027 1.2 1.2 0 0 1 .271.011c.033.01.016.046.032.067z" transform="translate(-1204.786 -1353.989)" style="fill:#f48807"/>
        <path data-name="Path 11258" d="M1107.558 1340.324a.1.1 0 0 1-.015-.021.069.069 0 0 1 0-.026v-.4a.216.216 0 0 1 0-.026.034.034 0 0 1 .03-.027h.382a.033.033 0 0 1 .03.027V1340.002c-.1-.014-.2-.007-.3-.011-.074 0-.113.021-.1.1v.134a.252.252 0 0 1-.008.074.122.122 0 0 1-.019.025z" transform="translate(-1098.349 -1328.487)" style="fill:#f69813"/>
        <path data-name="Path 11259" d="M1213.61 1339.167c-.02-.013-.016-.034-.017-.054-.025-.088-.087-.1-.17-.1a.458.458 0 0 1-.261-.024.144.144 0 0 0-.017-.072c0-.032-.007-.066.035-.079a4.284 4.284 0 0 1 .43.008v.321z" transform="translate(-1202.969 -1327.509)" style="fill:#f69913"/>
        <path data-name="Path 11260" d="M1289.9 1355.23a.116.116 0 0 1 .052.008l.016.008c.076.046.156.085.233.13.044.026.089.047.134.071a.056.056 0 0 1 .031.051v.09c-.042.027-.075 0-.107-.02-.121-.063-.244-.122-.359-.2z" transform="translate(-1279.007 -1343.751)" style="fill:#f5910d"/>
        <path data-name="Path 11261" d="M1109.49 1365.452v-.143a.813.813 0 0 1 .386-.017c.039 0 .03.046.043.07v.143a.852.852 0 0 0-.294-.027.194.194 0 0 1-.135-.026z" transform="translate(-1100.28 -1353.704)" style="fill:#f48807"/>
        <path data-name="Path 11262" d="M1158 1290.432v.034a.041.041 0 0 1-.017.037.131.131 0 0 0-.019-.017c-.05-.038-.1-.075-.145-.117s-.073-.061-.11-.09l-.152-.122c-.032-.026-.062-.055-.093-.082v-.108c.062 0 .093.046.134.077.108.084.212.174.317.262a.185.185 0 0 1 .069.109.053.053 0 0 0 .014.011.054.054 0 0 1 .002.006z" transform="translate(-1147.803 -1279.096)" style="fill:#f38103"/>
        <path data-name="Path 11263" d="M1290.928 1193a.05.05 0 0 1-.022.046l-.016.009c-.122.062-.24.131-.363.191-.067.033-.134.065-.2.1-.11.06-.22.118-.332.175l-.019.016h-.017v-.088a.357.357 0 0 0 .1-.047l.1-.056.26-.132h.012c.142-.048.261-.14.4-.2.034-.003.06-.039.097-.014z" transform="translate(-1279.066 -1183.026)" style="fill:#f7a119"/>
        <path data-name="Path 11264" d="M1289.9 1370.534a.122.122 0 0 1 .083.025.311.311 0 0 0 .07.036.392.392 0 0 1 .093.049.389.389 0 0 0 .115.063.665.665 0 0 1 .064.03.391.391 0 0 0 .042.013v.125a.1.1 0 0 1-.026-.005c-.058-.03-.117-.057-.173-.091s-.148-.077-.223-.113a.141.141 0 0 0-.044-.006l-.001-.126z" transform="translate(-1279.007 -1358.912)" style="fill:#f48807"/>
        <path data-name="Path 11265" d="M1109.939 1355.349a.026.026 0 0 1-.007-.006.154.154 0 0 0-.022-.038c-.017-.015-.04-.009-.06-.01h-.34v-.1a.03.03 0 0 1 .023-.025H1109.868a.072.072 0 0 1 .06.031l.007.005z" transform="translate(-1100.3 -1343.69)" style="fill:#f5900d"/>
        <path data-name="Path 11266" d="M1215 1355.23h.38c.04 0 .049.011.05.055V1355.355h-.43v-.125z" transform="translate(-1204.806 -1343.751)" style="fill:#f5900d"/>
        <path data-name="Path 11267" d="M1215.04 1140.817h-.448a.013.013 0 0 1 0-.011v-.006h.401a.032.032 0 0 0 .028-.03v-1.75a.029.029 0 0 0-.024-.023h-.401a.02.02 0 0 1 .008-.029 1.235 1.235 0 0 1 .433 0 .086.086 0 0 1 .03.072.549.549 0 0 1-.006.121.113.113 0 0 0-.018.059v.053z" transform="translate(-1204.397 -1129.481)" style="fill:#fcc64f"/>
        <path data-name="Path 11268" d="M1214.98 1384.02h.4a.032.032 0 0 1 .028.038.031.031 0 0 1-.028.029h-.4z" transform="translate(-1204.786 -1372.272)" style="fill:#f38102"/>
        <path data-name="Path 11269" d="M1109.49 1384.03h.376a.033.033 0 0 1 .034.023.075.075 0 0 0 .007.016.1.1 0 0 0 .012.013v.018a2.163 2.163 0 0 1-.429 0v-.07z" transform="translate(-1100.28 -1372.282)" style="fill:#f38102"/>
        <path data-name="Path 11270" d="M1109.5 1391.71h.429a.092.092 0 0 1-.02.016.072.072 0 0 1-.026 0h-.382l-.001-.016z" transform="translate(-1100.29 -1379.89)" style="fill:#f48807"/>
        <path data-name="Path 11271" d="M1263.078 1149.6a.047.047 0 0 1-.018-.039v-.071a.018.018 0 0 1 .025 0 .1.1 0 0 0 .106.062.126.126 0 0 1 .1.023v.018z" transform="translate(-1252.417 -1139.93)" style="fill:#f48909"/>
        <path data-name="Path 11272" d="M1078.745 1374.608v-.089a.064.064 0 0 1 0-.09h.016v.149a.034.034 0 0 1-.016.03z" transform="translate(-1069.804 -1362.772)" style="fill:#f58d0b"/>
        <path data-name="Path 11273" d="m1211.13 1345.71.019.017z" transform="translate(-1200.972 -1334.319)" style="fill:#f69913"/>
        <path data-name="Path 11274" d="M565.332 1144.11v-.127c-.038-.049-.019-.107-.023-.161v-.03a.193.193 0 0 1 0-.03V1143.462a.773.773 0 0 0 0-.12c-.134.053-.26.117-.387.18a.114.114 0 0 0-.064.117v.42a1.127 1.127 0 0 1-.017.323.037.037 0 0 1-.048.008 2.24 2.24 0 0 1-.406-.234l-.019-.019a.041.041 0 0 1-.017-.03V1143.364a.054.054 0 0 1 .033-.058c.09-.047.179-.1.268-.142s.2-.1.3-.154.225-.123.34-.178a.123.123 0 0 0 .023-.014.041.041 0 0 0 .017-.03v-.053c0-.038-.01-.048-.048-.048h-.42a.034.034 0 0 0-.031.027v.206a.052.052 0 0 1 .007.061l-.01.009a.2.2 0 0 0-.033.012c-.134.078-.275.143-.413.212a.028.028 0 0 1-.017 0c-.005 0-.013-.005-.013-.01a.3.3 0 0 1-.006-.053V1142.328a.035.035 0 0 1 .039-.038h1.207a.218.218 0 0 1 .2.106.217.217 0 0 0 .017.021.063.063 0 0 1 .02.029 1.722 1.722 0 0 1 .009.312v.716c.005.182 0 .364 0 .546 0 .1-.023.12-.123.122s-.2 0-.3 0a.129.129 0 0 1-.085-.032z" transform="translate(-560.224 -1132.792)" style="fill:#fdd462"/>
        <path data-name="Path 11275" d="M565.414 1080.449v.143c-.024-.025-.024-.025-.041.007a.423.423 0 0 1-.228.172h-.237c-.019 0-.026.01-.031.035a.1.1 0 0 0 0 .017c0 .02-.01.023-.026.017a.435.435 0 0 0-.3-.01.374.374 0 0 0-.181-.035h-1c-.034 0-.072-.011-.1.02s-.074.006-.106.029a1.616 1.616 0 0 0-.261-.022l-.016-.008a.216.216 0 0 0-.119-.029H561.588a.043.043 0 0 1-.03-.016.3.3 0 0 1 .211-.013.474.474 0 0 1-.306-.416.3.3 0 0 1 0-.086.022.022 0 0 1 .027-.007.074.074 0 0 1 .017.026.481.481 0 0 0 .507.38c.8.009 1.593.031 2.389.015a5.593 5.593 0 0 0 .642-.031.4.4 0 0 0 .267-.147c.03-.027.054-.065.102-.041z" transform="translate(-557.369 -1071.334)" style="fill:#f58e0b"/>
        <path data-name="Path 11276" d="M564.844 1353.994v.144c-.035.025-.062 0-.089-.016-.087-.046-.173-.093-.259-.141s-.094-.043-.094.061a.1.1 0 0 1-.024.078.048.048 0 0 1-.017-.039v-.212c.024-.148.025-.148.166-.069a1.368 1.368 0 0 1 .317.194z" transform="translate(-560.237 -1342.282)" style="fill:#f5910d"/>
        <path data-name="Path 11277" d="M564.854 1342.1a.1.1 0 0 1-.033-.01.489.489 0 0 0-.085-.049c-.048-.024-.09-.057-.139-.079a.672.672 0 0 1-.132-.073.157.157 0 0 0-.041-.018.028.028 0 0 0-.034.021c0 .021 0 .041-.006.062s-.01.014-.015.021v-.193a.038.038 0 0 1 .037-.041.161.161 0 0 1 .065.027l.093.053.258.14a.071.071 0 0 1 .013.012c.042.024.038.057.018.093l.001.034z" transform="translate(-560.247 -1330.387)" style="fill:#f69a14"/>
        <path data-name="Path 11278" d="m616.473 1190.567-.111.056a1.675 1.675 0 0 0-.109.061c-.053.032-.111.057-.166.085-.014.007-.018 0-.027-.023.023-.019 0-.051.019-.071v-.143a.709.709 0 0 1 .367-.017.033.033 0 0 1 .027.052z" transform="translate(-611.455 -1180.557)" style="fill:#f5930f"/>
        <path data-name="Path 11279" d="M566.25 1382.943v-.09a.036.036 0 0 1 .041-.008 2 2 0 0 1 .425.24v.089c0 .006-.015.015-.021.012a.213.213 0 0 1-.025-.01l-.2-.111a.378.378 0 0 0-.036-.024l-.143-.073a.293.293 0 0 1-.041-.025z" transform="translate(-562.11 -1371.105)" style="fill:#f38102"/>
        <path data-name="Path 11280" d="M561.342 1090.33c.005.007.014.013.015.021v.053a.072.072 0 0 0 .011.033.114.114 0 0 1 .025.064.059.059 0 0 0 .021.038l.125.125a.1.1 0 0 0 .046.025.132.132 0 0 1 .074.045.019.019 0 0 1 0 .016.018.018 0 0 1-.013.008h-.221a.316.316 0 0 1-.073-.166.473.473 0 0 1-.016-.1.322.322 0 0 1 .006-.162z" transform="translate(-557.237 -1081.323)" style="fill:#f48807"/>
        <path data-name="Path 11281" d="M716.01 1140.348a.04.04 0 0 1 .03-.017h.205c.022 0 .03.015.033.035a.168.168 0 0 1 .014.151.051.051 0 0 1-.022.023c-.074.008-.158.052-.207-.048a.1.1 0 0 1 0-.016.109.109 0 0 0-.008-.058.2.2 0 0 1-.008-.033l-.018-.018a.216.216 0 0 0-.018-.018z" transform="translate(-710.472 -1130.857)" style="fill:#f48505"/>
        <path data-name="Path 11282" d="M618.514 1186.432c0-.019-.011-.034-.033-.035h-.361v-.044a.032.032 0 0 1 .022-.025h.39a.069.069 0 0 1 .026 0 .037.037 0 0 1 .018.017.047.047 0 0 1-.012.056c-.013.012-.032.021-.05.031z" transform="translate(-613.496 -1176.422)" style="fill:#f69b14"/>
        <path data-name="Path 11283" d="M560.545 1063.572v.161a.1.1 0 0 1-.014-.022.078.078 0 0 1 0-.026v-.318a.054.054 0 0 1 .019-.047c.009.01.006.026.016.036v.047c0 .028.006.057-.018.079z" transform="translate(-556.44 -1054.564)" style="fill:#f69a14"/>
        <path data-name="Path 11284" d="M616.109 1209.33v.035a.04.04 0 0 1-.019.037v-.071z" transform="translate(-611.485 -1199.212)" style="fill:#f69b14"/>
        <path data-name="Path 11285" d="m717.92 1144.08.018.018z" transform="translate(-712.364 -1134.571)" style="fill:#f58e0b"/>
        <path data-name="Path 11286" d="m716 1142.15.018.018z" transform="translate(-710.462 -1132.659)" style="fill:#f58e0b"/>
        <path data-name="Path 11287" d="M669.92 1162.808h.445a.036.036 0 0 0 .038-.04v-.605c.017-.017.026-.041.045-.055a.373.373 0 0 0 .146-.366c-.009-.154 0-.308 0-.463a.165.165 0 0 1 .026-.119.022.022 0 0 1 .03.01.256.256 0 0 1 .017.123v1.646a.188.188 0 0 1-.028.137.046.046 0 0 1-.017-.039v-.222a.089.089 0 0 0-.006-.025.01.01 0 0 0-.008 0 .159.159 0 0 0-.029.019l-.135.129h-.016c-.005 0 0-.005 0-.008v-.044a.174.174 0 0 0 0-.035c0-.008-.01-.014-.015-.021-.059.041-.126.021-.189.025s-.118 0-.177 0c-.031 0-.068 0-.073.046s0 .081 0 .122v.12c0 .074-.016.155.08.189a.057.057 0 0 1-.033.034c-.007-.005-.013-.013-.021-.015a.4.4 0 0 0-.044-.006.029.029 0 0 1-.022-.025v-.071q-.014-.222-.014-.441z" transform="translate(-664.812 -1151.49)" style="fill:#f9be5d"/>
        <path data-name="Path 11288" d="M614.318 1304.865a.177.177 0 0 0-.018-.093.037.037 0 0 0 .017-.03v-.309a.223.223 0 0 1 .05-.036 3.67 3.67 0 0 1 .426-.207.041.041 0 0 1 .023.01v.177c-.022.02-.045.039-.066.06l-.367.367c-.02.021-.043.041-.065.061z" transform="translate(-609.711 -1293.187)" style="fill:#f7a219"/>
        <path data-name="Path 11289" d="M566.756 1371.728a.093.093 0 0 1-.033-.01.631.631 0 0 0-.1-.057 2.984 2.984 0 0 1-.124-.068c-.061-.036-.127-.064-.191-.095a.058.058 0 0 0-.017 0v-.106c0-.007.016-.015.021-.011a.436.436 0 0 0 .1.044c.041.019.076.047.114.069a.231.231 0 0 0 .038.021.446.446 0 0 1 .118.061.134.134 0 0 0 .073.03l.001.122z" transform="translate(-562.149 -1359.747)" style="fill:#f48706"/>
        <path data-name="Path 11290" d="M745.118 1141.292v-1.917c-.009-.048-.031-.113.01-.139s.079.033.108.063a3.476 3.476 0 0 1 .36.347.163.163 0 0 1 .011.055V1139.842c0 .075.073.089.119.121a.2.2 0 0 0 .309-.036.4.4 0 0 0 .01-.258.1.1 0 0 0-.076-.018h-.251a.165.165 0 0 1-.124-.041 15.463 15.463 0 0 1-.38-.343c-.028-.027-.063-.056 0-.087a1.264 1.264 0 0 1 .24-.008h.856a.274.274 0 0 1 .281.189c.008.042.025.084 0 .126V1140.144a.1.1 0 0 1-.021.057.429.429 0 0 1-.213.109.061.061 0 0 0-.04.016.026.026 0 0 0 0 .039l.089.058.149.1a.075.075 0 0 1 .035.068v.426a.131.131 0 0 1-.019.067 1.052 1.052 0 0 1-.358.214c-.019 0-.035-.008-.036-.03v-.316a.064.064 0 0 0-.015-.049.049.049 0 0 1-.016-.02.163.163 0 0 0-.1-.139c-.153-.092-.3-.193-.452-.288 0-.011-.015.008-.006 0 .033.035.012.079.02.119s0 .056 0 .084v.241a.087.087 0 0 1-.021.041v.043a.057.057 0 0 1-.023.052.067.067 0 0 0-.01.013.744.744 0 0 1-.224.158.369.369 0 0 1-.171.091z" transform="translate(-739.294 -1129.706)" style="fill:#fdd462"/>
        <path data-name="Path 11291" d="m922.358 1142.215.017-.02h.99c.063 0 .078-.01.126.061a.382.382 0 0 0 .048.053l.238.241a.328.328 0 0 1 .036.039.111.111 0 0 1 .01.033c-.036.036-.082.028-.126.029h-.639c-.1 0-.176 0-.2.117a.28.28 0 0 0 .005.035.019.019 0 0 0 .012.012.212.212 0 0 0 .044.006h.277a.069.069 0 0 1 .047.022l.006.006a1.375 1.375 0 0 0 .143.16c.028.031.053.064.081.1s.057.061.086.091a.017.017 0 0 1 0 .007.033.033 0 0 1 0 .017.019.019 0 0 1-.012.01H922.877a.028.028 0 0 0-.022.025.207.207 0 0 0 0 .027c.037.043.02.095.025.143s.011.1-.025.143a.279.279 0 0 0 0 .035.019.019 0 0 0 .011.012.306.306 0 0 0 .053.006h.466a.067.067 0 0 1 .048.02l.045.044.221.222a.576.576 0 0 1 .1.125.16.16 0 0 1-.118.03h-1.2a.16.16 0 0 1-.118-.03.126.126 0 0 1-.017-.059v-1.605a.127.127 0 0 1 .012-.157z" transform="translate(-914.867 -1132.704)" style="fill:#fdd462"/>
        <path data-name="Path 11292" d="M928.573 1344.467v.125a.164.164 0 0 1-.119.029h-1.2a.164.164 0 0 1-.119-.029v-.125a.162.162 0 0 1 .118-.029h1.2a.163.163 0 0 1 .12.029z" transform="translate(-919.632 -1333.059)" style="fill:#f69610"/>
        <path data-name="Path 11293" d="M927.15 1361h1.433v.107a.141.141 0 0 1-.1.028h-1.28a.107.107 0 0 1-.052-.012z" transform="translate(-919.642 -1349.467)" style="fill:#f58d0b"/>
        <path data-name="Path 11294" d="M927.15 1372.5a.134.134 0 0 1 .068-.018h1.362v.108h-1.365a.131.131 0 0 0-.068.018q.003-.053.003-.108z" transform="translate(-919.642 -1360.842)" style="fill:#f48605"/>
        <path data-name="Path 11295" d="M928.583 1339.843h-1.433v-.073h1.432l.001.073z" transform="translate(-919.642 -1328.435)" style="fill:#f69b14"/>
        <path data-name="Path 11296" d="M671.882 1371.416h-.078a.03.03 0 0 1-.027-.03v-.148a.112.112 0 0 1 .082-.027 1.589 1.589 0 0 1 .377.016c.031.033.01.074.016.111s.007.054-.009.079h-.273z" transform="translate(-666.651 -1359.575)" style="fill:#f48404"/>
        <path data-name="Path 11297" d="M753.868 1136.6a.265.265 0 0 0-.123-.158.106.106 0 0 0-.068-.02h-1.188c-.007.008-.013.008-.02 0s0-.012 0-.017a.046.046 0 0 1 .037-.034.172.172 0 0 1 .035 0h1.113a.168.168 0 0 1 .108.034l.029.02c.009.007.013 0 .017 0a.729.729 0 0 0 .2.18h-.017a.1.1 0 0 1-.123-.005z" transform="translate(-746.592 -1126.933)" style="fill:#f7a119"/>
        <path data-name="Path 11298" d="M746.584 1340.179a.708.708 0 0 1 .115-.081c.076-.05.155-.1.233-.144.015-.009.031-.016.047-.024s.033.011.033.032v.129c-.148.076-.285.168-.425.258-.012.008-.024.017-.04.011a.8.8 0 0 0 0-.1.1.1 0 0 1 .037-.081z" transform="translate(-740.723 -1328.594)" style="fill:#f69913"/>
        <path data-name="Path 11299" d="M746.72 1357.353a.426.426 0 0 1 .1-.079.64.64 0 0 0 .06-.037c.066-.044.137-.079.2-.127a.142.142 0 0 1 .1-.025v.143a1.832 1.832 0 0 0-.414.242c-.016.011-.025.035-.052.027z" transform="translate(-740.896 -1345.587)" style="fill:#f5900c"/>
        <path data-name="Path 11300" d="M796.64 1306.267v-.125c0-.042.025-.062.062-.039a3.173 3.173 0 0 1 .509.343v.09c-.038.03-.068 0-.1-.016-.119-.074-.232-.157-.352-.23a.139.139 0 0 0-.119-.023z" transform="translate(-790.35 -1295.074)" style="fill:#f48706"/>
        <path data-name="Path 11301" d="M796.65 1319.412a.145.145 0 0 0 .016-.02c.016-.031.02-.033.044-.02l.016.008.3.2a.941.941 0 0 0 .131.089.1.1 0 0 0 .058.016v.1a.014.014 0 0 1-.019.011c-.086-.054-.172-.106-.256-.162s-.179-.117-.27-.174a.086.086 0 0 0-.026-.006c.006-.018.006-.03.006-.042z" transform="translate(-790.36 -1308.22)" style="fill:#f38102"/>
        <path data-name="Path 11302" d="M671.79 1344.328v-.125a.1.1 0 0 1 .073-.026 1.054 1.054 0 0 1 .392.026v.071a.048.048 0 0 1-.006.063.945.945 0 0 1-.459-.009z" transform="translate(-666.665 -1332.795)" style="fill:#f69510"/>
        <path data-name="Path 11303" d="M859.97 1368.272v-.161a1.545 1.545 0 0 1 .383-.237.024.024 0 0 1 .036.012v.124a1.6 1.6 0 0 1-.306.2c-.032.028-.061.071-.113.062z" transform="translate(-853.089 -1356.273)" style="fill:#f48908"/>
        <path data-name="Path 11304" d="M860.382 1353.015c-.039.02-.077.041-.115.064s-.1.058-.152.087a1.184 1.184 0 0 1-.145.082v-.125a.244.244 0 0 1 .111-.1c.08-.047.158-.1.238-.141.051-.029.079-.018.072.046-.004.03.009.06-.009.087z" transform="translate(-853.089 -1341.411)" style="fill:#f5930f"/>
        <path data-name="Path 11305" d="M797.192 1296.274c-.016-.009-.032-.015-.047-.025-.125-.083-.254-.16-.377-.247-.031-.022-.065-.04-.1-.06-.009-.006-.019 0-.03.009l-.019.018v-.125a.068.068 0 0 1 .09 0c.145.1.295.187.439.285a.16.16 0 0 1 .043.055l.001.09z" transform="translate(-790.33 -1284.902)" style="fill:#f58e0b"/>
        <path data-name="Path 11306" d="M859.97 1384.291c.014-.011.028-.021.041-.033a.12.12 0 0 1 .066-.042.029.029 0 0 0 .016-.008 2.554 2.554 0 0 1 .223-.144.113.113 0 0 1 .065-.025.2.2 0 0 1 0 .125c-.066.039-.133.074-.2.115s-.121.072-.182.108a.021.021 0 0 1-.031-.018c.003-.025.002-.052.002-.078z" transform="translate(-853.089 -1372.292)" style="fill:#f38102"/>
        <path data-name="Path 11307" d="M746.72 1371.572a.3.3 0 0 1 .126-.107c.039-.021.075-.047.113-.07.053-.032.1-.066.16-.095a.062.062 0 0 1 .066 0v.143a.146.146 0 0 0-.13.028c-.11.071-.221.141-.336.2l.001-.099z" transform="translate(-740.896 -1359.663)" style="fill:#f48807"/>
        <path data-name="Path 11308" d="M746.718 1383.022a.273.273 0 0 1 .034-.04.626.626 0 0 1 .074-.05c.072-.042.144-.084.212-.131.032-.022.066-.04.1-.059a.02.02 0 0 1 .022.01c.006.013.008.029.022.037a.056.056 0 0 1-.028.06c-.048.028-.1.059-.143.088l-.068.042-.194.122a.021.021 0 0 1-.032-.017.173.173 0 0 1 0-.018l.001-.044z" transform="translate(-740.893 -1371.005)" style="fill:#f38102"/>
        <path data-name="Path 11309" d="M797.172 1285.945c-.086-.056-.17-.116-.26-.168a2.523 2.523 0 0 1-.221-.147.135.135 0 0 0-.091-.025v-.089c.022-.037.052-.025.077-.008.167.109.341.207.5.331a.06.06 0 0 1 0 .016q-.004.045-.005.09z" transform="translate(-790.31 -1274.663)" style="fill:#f5930f"/>
        <path data-name="Path 11310" d="M860.187 1344.2v-.384a.018.018 0 0 0-.027-.012h-.008l-.325.2c-.018.011-.034.023-.051.035a.247.247 0 0 0 0-.044.089.089 0 0 1 .036-.083.263.263 0 0 1 .081-.053c.092-.055.18-.115.277-.161a.162.162 0 0 1 .036.106v.365a.04.04 0 0 1-.019.031z" transform="translate(-852.894 -1332.328)" style="fill:#f69a14"/>
        <path data-name="Path 11311" d="M894.745 1138.574c-.007-.005-.014-.013-.021-.014a.37.37 0 0 0-.062 0 .048.048 0 0 1-.052-.039.38.38 0 0 0-.054-.1.11.11 0 0 0-.027-.022.057.057 0 0 1 .055-.035h.193c.022 0 .036.01.038.038v.176z" transform="translate(-887.326 -1128.904)" style="fill:#f48605"/>
        <path data-name="Path 11312" d="M879.16 1249.559a.106.106 0 0 1 .02-.017l.167-.085a.118.118 0 0 1 .026-.007.141.141 0 0 1 .037.1v.161c0 .021-.018.03-.038.019a1.382 1.382 0 0 1-.156-.1l-.042-.033a.045.045 0 0 1-.014-.038z" transform="translate(-872.1 -1238.958)" style="fill:#f69913"/>
        <path data-name="Path 11313" d="M672.276 1339.932h-.466v-.044a.032.032 0 0 1 .022-.025h.442c.002.022.002.045.002.069z" transform="translate(-666.685 -1328.524)" style="fill:#f69c14"/>
        <path data-name="Path 11314" d="M902.33 1161.24h.126a.431.431 0 0 1-.108.108.2.2 0 0 0-.014-.084.076.076 0 0 1-.004-.024z" transform="translate(-895.053 -1151.571)" style="fill:#f8b449"/>
        <path data-name="Path 11315" d="M719.522 1362.717v-.107a.089.089 0 0 1-.009-.1.018.018 0 0 1 .027 0v.215c-.006 0-.012 0-.018-.008z" transform="translate(-713.93 -1350.951)" style="fill:#f69510"/>
        <path data-name="Path 11316" d="M721.76 1385.94h.018v.035a.041.041 0 0 1-.018.037v-.072z" transform="translate(-716.168 -1374.174)" style="fill:#f58d0a"/>
        <path data-name="Path 11317" d="M721.229 1355.312h-.018s-.006-.008 0-.012 0-.006 0-.006v-.054a.042.042 0 0 1 .018.037v.035z" transform="translate(-715.62 -1343.761)" style="fill:#f69c14"/>
        <path data-name="Path 11318" d="M802.5 590.625a.045.045 0 0 0 .039.018h.17c.173 0 .117.023.239-.1q.534-.532 1.066-1.066l.057-.056a.053.053 0 0 1 .041-.014.135.135 0 0 1 .029.109v3.3a.393.393 0 0 1 0 .062.206.206 0 0 1-.057.108q-.134.141-.275.275c-.024.023-.054.066-.094.015v-2.451a.2.2 0 0 0-.008-.1.036.036 0 0 0-.035-.034h-1.312a.407.407 0 0 0-.122.02.052.052 0 0 1-.041 0c-.057-.024-.13.02-.178-.041a.04.04 0 0 1 .034-.027 2.472 2.472 0 0 1 .447-.018z" transform="translate(-795.67 -585.075)" style="fill:#f7a219"/>
        <path data-name="Path 11319" d="M698.255 844.36a.083.083 0 0 1 .013.023.243.243 0 0 1 0 .044v1.126a.284.284 0 0 1 0 .044.071.071 0 0 1-.055.052h-1.315a.047.047 0 0 1-.04-.042V845.027c.013-.016.017-.037.031-.052a1.242 1.242 0 0 1 .164-.157.1.1 0 0 1 .029 0h1.055a.118.118 0 0 0 .069-.012.074.074 0 0 0 .023-.061v-.221a1.057 1.057 0 0 1 0-.109.073.073 0 0 1 .026-.055z" transform="translate(-691.498 -837.648)" style="fill:#f7a219"/>
        <path data-name="Path 11320" d="M696.831 673.387v-1.436a.039.039 0 0 1 .017-.03.11.11 0 0 1 .024.085V672.313c0 .077.051.082.109.082h.659a.587.587 0 0 1 .124.006c.025.008.044.02.029.051a.215.215 0 0 1-.044.055l-.847.846a.181.181 0 0 1-.049.039.022.022 0 0 1-.022-.005z" transform="translate(-691.471 -666.817)" style="fill:#f7a219"/>
        <path data-name="Path 11321" d="M567.224 1071.178v.018a.045.045 0 0 0-.015.01.625.625 0 0 1-.564.218c-.928-.008-1.856 0-2.784 0h-.134a.45.45 0 0 1-.425-.347.106.106 0 0 1 0-.089.156.156 0 0 1 .016.021l.024.048a.434.434 0 0 0 .326.237.777.777 0 0 0 .088.016H566.77a.522.522 0 0 0 .166-.029.549.549 0 0 0 .163-.092.1.1 0 0 0 .019-.019.435.435 0 0 0 .087-.164.019.019 0 0 1 .027.007.186.186 0 0 1-.008.165z" transform="translate(-559.178 -1062.153)" style="fill:#f69a14"/>
        <path data-name="Path 11322" d="M697.67 726.092c.022-.024.043-.049.066-.072l.82-.821a.342.342 0 0 0 .065-.073.011.011 0 0 1 .016 0h.159a.043.043 0 0 1 .038.018 1.787 1.787 0 0 1-.286.291c-.242.237-.491.467-.732.7a.019.019 0 0 0 0 .024.04.04 0 0 0 .029.018H699a.043.043 0 0 1 .031.016c-.039.038-.089.028-.135.028h-.945c-.124 0-.131.008-.13.131 0 .1-.005.208 0 .312a.31.31 0 0 1 0 .032c0 .011 0 .025-.009.033a.972.972 0 0 1-.131.127c-.019 0-.027-.009-.027-.027.012-.24-.002-.489.016-.737z" transform="translate(-692.294 -719.521)" style="fill:#f9be5e"/>
        <path data-name="Path 11323" d="M698.74 551.95v-.089a.04.04 0 0 1 .03-.017h1.253a.15.15 0 0 1 .027 0 .174.174 0 0 0 .146-.052l.039-.037a.576.576 0 0 1 .095-.082.2.2 0 0 0 .033-.03 1.272 1.272 0 0 1 .14-.124.6.6 0 0 0 .065-.061.414.414 0 0 1 .082-.069.06.06 0 0 0 .014-.011c.065-.07.143-.126.212-.192a.528.528 0 0 1 .074-.064.4.4 0 0 0 .054-.047.886.886 0 0 1 .121-.106.3.3 0 0 0 .039-.036.88.88 0 0 1 .121-.106.389.389 0 0 0 .046-.042l.06-.053a.112.112 0 0 1 .014.022.083.083 0 0 1 0 .026v.409a.06.06 0 0 1-.016.049c-.027-.023-.025-.055-.026-.086v-.205c0-.049-.022-.038-.049-.018-.057.043-.108.094-.161.141-.288.258-.583.508-.866.771a.4.4 0 0 1-.295.118c-.4 0-.81-.01-1.214 0a.057.057 0 0 1-.038-.009z" transform="translate(-693.363 -546.758)" style="fill:#f69a14"/>
        <path data-name="Path 11324" d="M712.252 841.151a.1.1 0 0 1-.015-.021.076.076 0 0 1 0-.026V840.684a.033.033 0 0 1 .027-.03H713.469a.039.039 0 0 1 .019.035v.056a.192.192 0 0 1-.136.027h-.952c-.053 0-.112-.007-.12.071v.238a.1.1 0 0 1-.028.07z" transform="translate(-706.732 -833.972)" style="fill:#f69b14"/>
        <path data-name="Path 11325" d="M982.793 734.47h-.017V731.28a.044.044 0 0 1 .016.031v2.502a.04.04 0 0 0 .017.03 4.521 4.521 0 0 1 0 .581.062.062 0 0 1-.016.046z" transform="translate(-974.749 -725.623)" style="fill:#fbbe48"/>
        <path data-name="Path 11326" d="M712.7 728.579a.02.02 0 0 1-.009-.03.211.211 0 0 1 .029-.034l.229-.227a.407.407 0 0 1 .061-.052.442.442 0 0 0 .06-.053l.267-.265a.5.5 0 0 1 .094-.082.256.256 0 0 0 .046-.042l.2-.2c.015-.014.032-.026.048-.039l.019.018a1.219 1.219 0 0 1-.191.186.523.523 0 0 0-.052.048l-.273.27a.53.53 0 0 1-.087.076.343.343 0 0 0-.053.048l-.286.283c-.033.037-.067.065-.102.095z" transform="translate(-707.183 -721.937)" style="fill:#f7a723"/>
        <path data-name="Path 11327" d="M696.9 829.091v.741a.041.041 0 0 0 .017.03.07.07 0 0 1-.036.035v-.808z" transform="translate(-691.521 -822.52)" style="fill:#faba48"/>
        <path data-name="Path 11328" d="M562.518 1063.406a.036.036 0 0 1-.015-.036.035.035 0 0 1 .015.036z" transform="translate(-558.397 -1054.614)" style="fill:#f7a219"/>
        <path data-name="Path 11329" d="M1023.849 550.958v-3.89a.16.16 0 0 1 .069-.016h3.285a.662.662 0 0 1 .338.1l.068.043a.4.4 0 0 1 .182.3V549.072a.081.081 0 0 1-.039.057c-.191.14-.373.29-.565.428a.071.071 0 0 1-.041.016.063.063 0 0 0-.039.019.022.022 0 0 0 0 .031.8.8 0 0 0 .067.044c.1.052.189.111.283.168.053.032.109.06.162.093s.1.057.152.093a.054.054 0 0 1 .022.037.072.072 0 0 1 .007.034c0 .7.016 1.405.009 2.108a.215.215 0 0 1 0 .044c-.021.045-.062.042-.1.042h-2.2c-.1 0-.121-.022-.122-.123q-.005-.474 0-.948c0-.113.032-.143.146-.144h.805c.157 0 .157 0 .158-.16v-.089c.008-.143 0-.285 0-.428a.114.114 0 0 0-.082-.123q-.589-.221-1.175-.451c-.027-.01-.055-.028-.083 0a.238.238 0 0 0-.009.106v2.228a.245.245 0 0 1 0 .064.075.075 0 0 1-.074.065h-1.173c-.04 0-.05-.011-.051-.055v-.445a.17.17 0 0 1-.028-.118v-.56a.4.4 0 0 1 .028-.147z" transform="translate(-1015.41 -543.116)" style="fill:#fdd462"/>
        <path data-name="Path 11330" d="M701.38 594.047v.092a.439.439 0 0 1-.095.094 1.28 1.28 0 0 0-.1.088.514.514 0 0 1-.088.075.084.084 0 0 0-.014.011c-.05.046-.1.094-.153.136s-.1.1-.154.135c-.069.074-.152.132-.225.2a.836.836 0 0 1-.055.046l-.028.022-.25.228-.041.034a.137.137 0 0 1-.067.018h-.088a.121.121 0 0 0-.044 0 .3.3 0 0 1-.122.014h-.123a.05.05 0 0 0-.039.016h-.942a.029.029 0 0 1-.023-.024.256.256 0 0 1 0-.026v-.071c.046-.039.1-.026.154-.026h1.133a.215.215 0 0 0 .182-.074c.268-.226.528-.462.79-.7.1-.093.213-.181.314-.278.021-.008.043-.034.078-.01z" transform="translate(-693.352 -589.661)" style="fill:#f38203"/>
        <path data-name="Path 11331" d="M1448.325 871.678v-2.188a.045.045 0 0 1 .016.031V870.233a.042.042 0 0 0 .017.03v1.903a.038.038 0 0 1-.018.029c-.038-.053-.021-.115-.025-.173v-.26c-.001-.029.015-.056.01-.084z" transform="translate(-1435.944 -862.543)" style="fill:#f9b952"/>
        <path data-name="Path 11332" d="M1195.416 1131.477v.179h-.015a.014.014 0 0 1-.02 0 .214.214 0 0 0-.239-.189H1194a.293.293 0 0 0-.089.006.48.48 0 0 1-.131.01c-.044 0-.073.016-.081.062a.055.055 0 0 1-.017.022h-.017v-.07c0-.023-.024-.027-.044-.027a2.817 2.817 0 0 0-.417.009.407.407 0 0 1-.188 0 .044.044 0 0 1 .008-.048.169.169 0 0 1 .127-.031h2.137c.056 0 .119-.007.128.077z" transform="translate(-1183.019 -1122.005)" style="fill:#f48b09"/>
        <path data-name="Path 11333" d="M1447.25 1159.5h.02l-.02.018v-.018z" transform="translate(-1434.889 -1149.847)" style="fill:#f5910d"/>
        <path data-name="Path 11334" d="M1380.03 764.41a.428.428 0 0 1 .043-.044c.08-.061.164-.117.242-.18.1-.082.207-.159.311-.237l.048-.039a.045.045 0 0 1 .019.038v.071a3.727 3.727 0 0 1-.328.26 1.669 1.669 0 0 0-.245.205.16.16 0 0 1-.09-.074z" transform="translate(-1368.296 -757.948)" style="fill:#f69a14"/>
        <path data-name="Path 11335" d="M1397.407 787.948a.383.383 0 0 1-.108-.071c-.008-.048.029-.069.058-.092.118-.1.247-.177.364-.276.024-.02.051-.034.08-.009v.143c-.129.106-.261.206-.394.305z" transform="translate(-1385.403 -781.306)" style="fill:#f58c09"/>
        <path data-name="Path 11336" d="M1390.323 775.625a.078.078 0 0 0-.071.027.445.445 0 0 1-.11.088c-.042.027-.08.06-.121.089l-.114.084a.3.3 0 0 0-.086.088.065.065 0 0 1-.038-.013l-.033-.023a.108.108 0 0 1 .042-.075 1.865 1.865 0 0 1 .219-.164.09.09 0 0 0 .021-.017.908.908 0 0 1 .117-.094l.069-.055a.931.931 0 0 1 .088-.059.048.048 0 0 1 .017 0z" transform="translate(-1377.925 -769.43)" style="fill:#f5940f"/>
        <path data-name="Path 11337" d="M1408.97 804.614a.055.055 0 0 1 .022-.045c.059-.043.121-.083.176-.13.036-.03.075-.056.109-.088a.146.146 0 0 1 .086-.041v.088a.067.067 0 0 1-.02.047.208.208 0 0 1-.032.031 1.4 1.4 0 0 0-.166.13.367.367 0 0 0-.071.052.027.027 0 0 1-.033 0l-.036-.025c-.009-.011-.026-.007-.036-.018z" transform="translate(-1396.966 -797.971)" style="fill:#f38203"/>
        <path data-name="Path 11338" d="M1408.97 836.92a.037.037 0 0 1 .036.018.037.037 0 0 1-.036-.018z" transform="translate(-1396.966 -830.277)" style="fill:#f58c09"/>
        <path data-name="Path 11339" d="M1430.042 558.929a.132.132 0 0 0-.01-.052.72.72 0 0 0-.083-.137l-.088-.112.037-.038a.063.063 0 0 0 .016.041 1.04 1.04 0 0 1 .1.144.309.309 0 0 1 .043.116.036.036 0 0 1-.015.038z" transform="translate(-1417.661 -554.544)" style="fill:#f7a825"/>
        <path data-name="Path 11340" d="M1286.831 1136.381a.043.043 0 0 1 .03-.017h1.256a.144.144 0 0 1 .077.019c.013.007.027.013.039.021a.113.113 0 0 1 .033.029.217.217 0 0 1 .051.148h-.017a.136.136 0 0 0-.056-.107.268.268 0 0 0-.052-.035.125.125 0 0 0-.068-.018h-1.234a.1.1 0 0 0-.059.019.039.039 0 0 1 0-.059z" transform="translate(-1275.956 -1126.926)" style="fill:#f5910d"/>
        <path data-name="Path 11341" d="M1339.956 1251.683a.036.036 0 0 1-.036.016v-.438a.355.355 0 0 1 0-.054.041.041 0 0 1 .013-.022.137.137 0 0 1 .03-.019c.059-.027.117-.058.178-.083s.134-.065.2-.1l.057-.025c.007 0 .018.006.018.014v.08a1.61 1.61 0 0 1-.368.192c-.065.028-.106.064-.092.14v.086a.148.148 0 0 1-.025.1v.07a.045.045 0 0 0 .025.043z" transform="translate(-1328.56 -1240.454)" style="fill:#f69b14"/>
        <path data-name="Path 11342" d="M1341.83 1282.572v-.108a1.589 1.589 0 0 1 .484-.215v.089l-.418.209a.154.154 0 0 1-.066.025z" transform="translate(-1330.452 -1271.451)" style="fill:#f48807"/>
        <path data-name="Path 11343" d="M1342.294 1271.234a1.438 1.438 0 0 0-.209.1 1.807 1.807 0 0 1-.187.08c-.03.012-.059.026-.089.039v-.089a.162.162 0 0 1 .08-.066c.1-.053.211-.092.313-.146.028-.015.06-.029.091 0z" transform="translate(-1330.433 -1260.435)" style="fill:#f58e0b"/>
        <path data-name="Path 11344" d="M1342.224 1261.267a.118.118 0 0 0-.06.012l-.056.028a1.529 1.529 0 0 1-.169.077.944.944 0 0 0-.112.054l-.087.044v-.053a.057.057 0 0 1 .036-.064.853.853 0 0 1 .1-.047.384.384 0 0 0 .064-.029l.221-.11a.132.132 0 0 1 .058-.02q.005.055.005.108z" transform="translate(-1330.363 -1250.558)" style="fill:#f5940f"/>
        <path data-name="Path 11345" d="M1341.259 1185.3a.066.066 0 0 0-.045.018.064.064 0 0 1-.045.018 2.118 2.118 0 0 0-.284-.009c-.041 0-.084.006-.116-.03-.011-.055 0-.081.068-.078.141.009.282-.01.422.01z" transform="translate(-1329.397 -1175.328)" style="fill:#f69b14"/>
        <path data-name="Path 11346" d="M1264.98 1143.491v-.018a.162.162 0 0 1 .147-.041c.052 0 .057.041.068.077s0 .048 0 .072h-.183a.031.031 0 0 1-.03-.027l-.002-.063z" transform="translate(-1254.32 -1133.928)" style="fill:#f38203"/>
        <path data-name="Path 11347" d="M1265.195 1138.445s-.01-.008-.012-.012a.052.052 0 0 0-.057-.042.45.45 0 0 0-.146.019v-.052a.034.034 0 0 1 .039-.036h.174v.055l.002.068z" transform="translate(-1254.32 -1128.865)" style="fill:#f48909"/>
        <path data-name="Path 11348" d="M1340.233 1184.329h-.451c-.019 0-.03.012-.032.035s0 .023 0 .035a.171.171 0 0 1-.017.215v-.277a.03.03 0 0 1 .023-.024h.438a.041.041 0 0 1 .039.016z" transform="translate(-1328.372 -1174.425)" style="fill:#f7a119"/>
        <path data-name="Path 11349" d="m1291.71 1249.786.019-.016z" transform="translate(-1280.8 -1239.275)" style="fill:#f9be5e"/>
        <path data-name="Path 11350" d="m1336.039 1364.966-.019-.016z" transform="translate(-1324.697 -1353.38)" style="fill:#f7a219"/>
        <path data-name="Path 11351" d="M1155.938 898.691v.036a.091.091 0 0 1 .023.065c0 .095 0 .095.145.119a.034.034 0 0 1 .018.019v.224a.167.167 0 0 1-.061.15c-.058.047-.056.092 0 .137.024.018.05.036.054.068s.013.045-.024.043l-.054-.047a.488.488 0 0 0-.082-.069.191.191 0 0 1-.034-.029.5.5 0 0 0-.076-.063.336.336 0 0 1-.047-.042.472.472 0 0 0-.075-.063.257.257 0 0 1-.041-.035.6.6 0 0 0-.088-.075.051.051 0 0 1-.024-.046v-.161a.177.177 0 0 0 .064-.177v-.211a1.186 1.186 0 0 1 .008-.167v-.053a.2.2 0 0 0 .008-.1v-1.52a.247.247 0 0 1 .127-.236.115.115 0 0 1 .1 0c.375.146.753.284 1.126.436a.16.16 0 0 1 .04.037v.269a.037.037 0 0 1-.033.036h-1.038a.047.047 0 0 0-.036.035V898.371a.032.032 0 0 0 .024.023H1158.288a.045.045 0 0 0 .031-.016.034.034 0 0 1 .016.028v.042c-.745-.016-1.49 0-2.236-.007-.066 0-.138-.009-.137.092a.24.24 0 0 1-.024.158z" transform="translate(-1145.94 -889.254)" style="fill:#f7a219"/>
        <path data-name="Path 11352" d="M1028.26 1117.431v.233c-.043-.01-.041-.035-.021-.064-.056.036.01.126-.067.153v-.08a.029.029 0 0 0-.023-.024H1027.731a.3.3 0 0 0-.156-.026c-.145 0-.291.01-.435-.009h-.114a.047.047 0 0 1-.045-.045v-.1a.165.165 0 0 1 .118-.028h.454c.208.007.415-.018.623-.022.024-.003.055-.011.084.012z" transform="translate(-1018.53 -1108.155)" style="fill:#f5920d"/>
        <path data-name="Path 11353" d="M1158.01 1280.406a.2.2 0 0 1-.016-.02c-.006-.01-.009-.024-.017-.03-.048-.031-.078-.082-.13-.107a.147.147 0 0 1-.032-.03.225.225 0 0 0-.062-.05.039.039 0 0 1-.015-.01 1.336 1.336 0 0 0-.141-.121c-.033-.03-.07-.053-.106-.08v-.072c0-.024.016-.029.037-.017a.133.133 0 0 1 .022.015.347.347 0 0 0 .084.066c.045.052.107.084.155.134a.334.334 0 0 0 .042.033.31.31 0 0 1 .029.021.515.515 0 0 0 .076.061.106.106 0 0 1 .058.1.035.035 0 0 0 .016.03v.077z" transform="translate(-1147.833 -1269.088)" style="fill:#f48706"/>
        <path data-name="Path 11354" d="M1198.344 1161.52a.028.028 0 0 0 .016-.029.05.05 0 0 0-.016-.03.644.644 0 0 1-.106-.093c-.019-.019-.02-.035 0-.054l.069-.069.037-.038a.075.075 0 0 0 .022-.056v-.257c0-.007.009-.008.015 0v.627c0 .009-.012.017-.026.012s-.009-.012-.011-.013z" transform="translate(-1188.184 -1151.221)" style="fill:#f9bf5d"/>
        <path data-name="Path 11355" d="M1155.67 1136.108a.043.043 0 0 0 .016-.031v-.08a.067.067 0 0 1 .031-.052.011.011 0 0 1 .008 0s.011.006.012.01 0 .03.005.044.01.014.015.021 0 .042 0 .062a.13.13 0 0 1-.021.068.054.054 0 0 1-.05.031h-.018c.002-.026.002-.05.002-.073z" transform="translate(-1146.03 -1126.509)" style="fill:#f48605"/>
        <path data-name="Path 11356" d="M1210.532 1142.031h-.015a.2.2 0 0 1-.02-.146.076.076 0 0 1 .012-.028.02.02 0 0 1 .027 0 .176.176 0 0 0 0 .018q-.003.076-.004.156z" transform="translate(-1200.338 -1132.362)" style="fill:#f7a219"/>
        <path data-name="Path 11357" d="M1213.246 1337.852v.017a.024.024 0 0 1-.017-.019z" transform="translate(-1203.053 -1326.533)" style="fill:#f69913"/>
        <path data-name="Path 11358" d="M564.36 1080.73c.023.014.018.043.034.061a.226.226 0 0 1 .032.053.22.22 0 0 0 .043.057.787.787 0 0 0 .119.093.181.181 0 0 0 .116.041.473.473 0 0 0 .177.017h3.008a.362.362 0 0 0 .2-.058.108.108 0 0 0 .028-.022 1.417 1.417 0 0 0 .129-.136c.007-.009.014 0 .02.007a.116.116 0 0 0 .014.011v.072a.06.06 0 0 0-.047.021.42.42 0 0 0-.026.036.369.369 0 0 1-.158.127.569.569 0 0 1-.111.029.293.293 0 0 0-.044.007.216.216 0 0 1-.088.011h-.286a.23.23 0 0 0-.088.011.137.137 0 0 1-.044.007H565.744a.4.4 0 0 1-.132-.013.262.262 0 0 0-.08 0h-.644a.782.782 0 0 1-.185-.02.105.105 0 0 1-.033-.012l-.088-.043a.343.343 0 0 1-.079-.057.491.491 0 0 1-.138-.235.3.3 0 0 1-.005-.065z" transform="translate(-560.237 -1071.812)" style="fill:#f5940f"/>
        <path data-name="Path 11359" d="M985.064 965.48v.826a.1.1 0 0 0-.033.01.57.57 0 0 0-.052.049l-.253.253a.17.17 0 0 1-.055.045v-.72a.154.154 0 0 1 .018-.085c.02-.018.041-.034.059-.053l.227-.227c.03-.031.059-.065.089-.098z" transform="translate(-976.625 -957.637)" style="fill:#f9be5e"/>
        <path data-name="Path 11360" d="M979 1188.225v-.107c0-.036.013-.036.04-.037h.925a.046.046 0 0 1 .019.038v.142a.184.184 0 0 1-.128.027c-.142 0-.285-.008-.427.009a.071.071 0 0 1-.037-.036.064.064 0 0 0-.066-.035H979z" transform="translate(-971.006 -1178.16)" style="fill:#f69812"/>
        <path data-name="Path 11361" d="M1028.269 1102.021a.092.092 0 0 0-.027 0 .374.374 0 0 1-.14.016H1028a.156.156 0 0 0-.053 0 .3.3 0 0 1-.114.013h-.848v-.1a.029.029 0 0 1 .023-.024H1028.17a.041.041 0 0 0 .03-.017.111.111 0 0 1 .019-.017.1.1 0 0 0 .035-.036.046.046 0 0 1 .017.038c-.002.046-.002.086-.002.127z" transform="translate(-1018.54 -1092.745)" style="fill:#f69a13"/>
        <path data-name="Path 11362" d="M980.54 1271.5v.258a.016.016 0 0 1-.009.013.019.019 0 0 1-.016 0 .243.243 0 0 1-.026-.024c-.023-.023-.047-.045-.069-.069a.123.123 0 0 0-.116-.05.317.317 0 0 1-.044 0h-.435a.355.355 0 0 1-.006-.14.058.058 0 0 1 .025-.021 5.769 5.769 0 0 1 .623-.007.08.08 0 0 1 .073.04z" transform="translate(-971.814 -1260.753)" style="fill:#f58c0a"/>
        <path data-name="Path 11363" d="M980.818 1260.121a.148.148 0 0 0-.077-.018h-.64c-.019-.118-.009-.133.106-.135h.492c.045 0 .091 0 .119.046z" transform="translate(-972.092 -1249.376)" style="fill:#f59410"/>
        <path data-name="Path 11364" d="M1038.4 1217.836v.116a.029.029 0 0 1-.022.025h-.249a.055.055 0 0 1-.032-.012.343.343 0 0 1-.106-.129c-.006-.006-.011-.013-.018-.018-.019-.051.023-.056.052-.058a2.11 2.11 0 0 1 .309 0c.049.001.057.04.066.076z" transform="translate(-1029.424 -1207.556)" style="fill:#f48505"/>
        <path data-name="Path 11365" d="M1025.6 1207.625s-.01-.008-.012-.013a.052.052 0 0 0-.058-.042h-.327c-.022 0-.03.016-.033.035a.291.291 0 0 1-.089-.09l-.018-.018a.225.225 0 0 0-.018-.018c0-.019.011-.034.033-.035h.522v.181z" transform="translate(-1016.618 -1197.345)" style="fill:#f58e0b"/>
        <path data-name="Path 11366" d="M1044.21 1136.411c.007-.005.014-.013.021-.015a.334.334 0 0 1 .053 0h.482c.02 0 .029.01.034.034a.125.125 0 0 1 0 .018c-.02.014-.017.035-.018.055a.171.171 0 0 1-.119.027 3.185 3.185 0 0 0-.346.009c-.009-.007-.021-.012-.026-.021a.213.213 0 0 0-.068-.075c-.007-.007-.009-.021-.013-.032z" transform="translate(-1035.61 -1126.956)" style="fill:#f48a08"/>
        <path data-name="Path 11367" d="M1055.77 1147.953c0-.019.012-.033.033-.034h.432v.125a1.64 1.64 0 0 1-.376 0 .214.214 0 0 1-.068-.064z" transform="translate(-1047.062 -1138.372)" style="fill:#f38303"/>
        <path data-name="Path 11368" d="M979.744 1255.513a.163.163 0 0 0-.086-.018H979.056a.03.03 0 0 0-.023.024v.08c0 .017-.012.008-.017 0v-.143l.019-.018a.044.044 0 0 1 .03-.016h.659a.031.031 0 0 1 .023.024.312.312 0 0 0-.003.067z" transform="translate(-971.018 -1244.876)" style="fill:#f69a13"/>
        <path data-name="Path 11369" d="M955.94 1113.158a.119.119 0 0 1 .064-.055.265.265 0 0 0 .134-.107c.01-.017.023-.034.035-.05s.012-.008.017.006a.048.048 0 0 0 .019.028.41.41 0 0 1-.022.146.041.041 0 0 1-.038.031h-.1a.154.154 0 0 0-.076.017l-.018-.017h-.018z" transform="translate(-948.163 -1103.721)" style="fill:#f48706"/>
        <path data-name="Path 11370" d="M1065.35 1161.35h.376a.045.045 0 0 1-.038.018h-.308a.041.041 0 0 1-.03-.018z" transform="translate(-1056.552 -1151.68)" style="fill:#f48a08"/>
        <path data-name="Path 11371" d="M979 1274.616h.017v.143H979v-.143z" transform="translate(-971.008 -1263.889)" style="fill:#f59410"/>
        <path data-name="Path 11372" d="m957.85 1136.4.018.017z" transform="translate(-950.055 -1126.963)" style="fill:#f58e0b"/>
        <path data-name="Path 11373" d="m1026.96 1213.18.018.018z" transform="translate(-1018.521 -1203.026)" style="fill:#f69812"/>
        <path data-name="Path 11374" d="m1025.05 1211.26.018.018z" transform="translate(-1016.629 -1201.124)" style="fill:#f69812"/>
        <path data-name="Path 11375" d="m1038.47 1224.71.018.018z" transform="translate(-1029.923 -1214.449)" style="fill:#f58e0b"/>
        <path data-name="Path 11376" d="M1339.94 1194.2a.05.05 0 0 0 .017-.039v-.176h.361c.021 0 .029.016.033.035-.052.027-.1.052-.154.084a1.483 1.483 0 0 1-.133.069q-.043.022-.084.048c-.028.013-.036.005-.04-.021z" transform="translate(-1328.58 -1184.005)" style="fill:#f5940f"/>
        <path data-name="Path 11377" d="M1212.363 1136.454h-.018a.025.025 0 0 1 0-.036.151.151 0 0 1 .059-.018h.366a.034.034 0 0 1 .017 0 .043.043 0 0 1 .018.017.16.16 0 0 1 0 .035z" transform="translate(-1202.167 -1126.962)" style="fill:#f5910d"/>
        <path data-name="Path 11378" d="M722 1157.546v.788a.06.06 0 0 1-.016.041c-.055.055-.109.11-.165.164-.007.007-.022.007-.033.01v-1.038a.093.093 0 0 1 .013.011.052.052 0 0 0 .044.024z" transform="translate(-716.198 -1147.876)" style="fill:#f7a21a"/>
        <path data-name="Path 11379" d="M616.242 1251.711c-.012.021-.033.018-.052.018v-.483a.04.04 0 0 1 .021-.036l.055-.029c.059-.029.117-.059.176-.087s.146-.068.219-.1c.016-.007.027 0 .028.021v.125a.151.151 0 0 0-.11.015c-.087.046-.178.083-.267.125a.118.118 0 0 0-.082.139v.181a.407.407 0 0 0 .012.111z" transform="translate(-611.582 -1240.482)" style="fill:#f69b15"/>
        <path data-name="Path 11380" d="M618.156 1292.894a.035.035 0 0 1-.036-.039v-.068a.156.156 0 0 1 .089-.069c.1-.039.188-.087.282-.132s.093-.038.111.058v.018a.1.1 0 0 1-.017.017z" transform="translate(-613.496 -1281.666)" style="fill:#f38102"/>
        <path data-name="Path 11381" d="M618.593 1281.177a.047.047 0 0 1-.018-.038c0-.028-.02-.032-.044-.019l-.032.015-.087.043a1.821 1.821 0 0 1-.176.081 1.168 1.168 0 0 0-.127.062v-.107c.022-.043.066-.058.1-.078.087-.045.179-.079.267-.123s.093-.038.111.058c.006.035.006.07.006.106z" transform="translate(-613.486 -1270.2)" style="fill:#f48807"/>
        <path data-name="Path 11382" d="M618.05 1262.1v-.053a.064.064 0 0 1 .044-.068c.064-.031.126-.064.19-.094.037-.018.076-.032.113-.049a.4.4 0 0 0 .084-.048c.013-.01.024-.006.033.014a.057.057 0 0 0 .019.029v.107a.165.165 0 0 0-.135.013c-.086.041-.17.086-.256.126-.029.011-.056.035-.092.023z" transform="translate(-613.426 -1251.173)" style="fill:#f59410"/>
        <path data-name="Path 11383" d="m618.12 1273.557.182-.091a2.369 2.369 0 0 1 .24-.111c.028-.01.028-.012.045.02a.142.142 0 0 0 .016.021v.108a.046.046 0 0 1-.018-.038c0-.028-.021-.032-.043-.02l-.024.011-.039.02c-.053.026-.105.052-.16.073s-.106.051-.158.078l-.039.02z" transform="translate(-613.496 -1262.632)" style="fill:#f58f0c"/>
        <path data-name="Path 11384" d="m668.01 1303.447.017-.017a.039.039 0 0 1 0 .017h-.017z" transform="translate(-662.92 -1292.434)" style="fill:#f48807"/>
        <path data-name="Path 11385" d="M744.891 1141.481h.019a.041.041 0 0 0 .013.032l.1.089a.779.779 0 0 0 .074.063.676.676 0 0 1 .072.065.865.865 0 0 0 .119.1.184.184 0 0 1 .034.04c0 .021 0 .042-.019.056l-.117-.11a1.294 1.294 0 0 0-.068-.058 1.158 1.158 0 0 1-.111-.1c-.045-.048-.1-.084-.149-.127h-.008a.01.01 0 0 0-.01.012v.116h-.017v-.161a.157.157 0 0 0 .017-.017c.009-.012.018-.008.027 0s.009.008.014.008.006-.005.01-.008z" transform="translate(-739.013 -1131.99)" style="fill:#f7a41c"/>
        <path data-name="Path 11386" d="M562.457 1071.24v.089h-.018v-.06a.036.036 0 0 1 .018-.029z" transform="translate(-558.335 -1062.411)" style="fill:#f5940f"/>
        <path data-name="Path 11387" d="M672.246 1360.98v.127h-.466v-.125z" transform="translate(-666.655 -1349.447)" style="fill:#f58d0a"/>
        <path data-name="Path 11388" d="M796.5 1184.446c0-.02 0-.042.019-.056a.226.226 0 0 1 .022.014.085.085 0 0 0 .057.021h.375a.029.029 0 0 1 .025.022 2.094 2.094 0 0 1 0 .258.046.046 0 0 1-.025.036c-.053.033-.1.071-.159.1a.135.135 0 0 0-.022.015.034.034 0 0 1-.042 0l-.166-.1-.052-.035a.072.072 0 0 1-.034-.077c.014-.011.026 0 .037.005l.025.016a.355.355 0 0 1 .033.022l.026.016.026.018.027.017.026.018.026.017.024.016a.055.055 0 0 0 .024.011.048.048 0 0 0 .017 0 .227.227 0 0 0 .025-.018c.033-.025.068-.048.1-.071a.1.1 0 0 0 .04-.1c0-.051-.034-.063-.078-.064h-.231a.239.239 0 0 1-.151-.043c.006-.024.006-.041.006-.058z" transform="translate(-790.211 -1174.505)" style="fill:#f69b14"/>
        <path data-name="Path 11389" d="M797.174 1274.672a.157.157 0 0 1-.08-.035l-.132-.089c-.1-.067-.2-.122-.3-.192l-.016-.008a.047.047 0 0 0-.05 0v-.116a.015.015 0 0 1 .019-.012l.023.014.278.178.18.116.052.035a.049.049 0 0 1 .022.045c.005.023.004.044.004.064z" transform="translate(-790.31 -1263.498)" style="fill:#f69a13"/>
        <path data-name="Path 11390" d="m796.827 1204.993-.036-.018c-.005-.007-.012-.011-.018-.018l-.036-.018c-.005-.007-.013-.011-.018-.018l-.036-.018c-.005-.007-.013-.011-.018-.018l-.036-.018v-.036a.041.041 0 0 1 .044-.024 2.252 2.252 0 0 0 .365.016.111.111 0 0 1 .074.026v.044a.045.045 0 0 1-.021.037 1.606 1.606 0 0 1-.156.1c-.006.006-.013.011-.018.018h-.017c-.005-.007-.013-.011-.018-.018l-.036-.018c-.007-.012-.014-.012-.019-.019z" transform="translate(-790.34 -1194.732)" style="fill:#f58d0b"/>
        <path data-name="Path 11391" d="M797.083 1195.182h-.329a.214.214 0 0 1-.111-.023c-.015-.009-.029 0-.042 0v-.107c.014 0 .027-.014.041 0a.092.092 0 0 0 .065.021H797c.085 0 .085 0 .086.081l-.003.028z" transform="translate(-790.31 -1185.064)" style="fill:#f5940f"/>
        <path data-name="Path 11392" d="M714.15 870.452v-.125a.126.126 0 0 1 .091-.028h1.043a.1.1 0 0 1 .1.045v.107a.263.263 0 0 1-.146.028h-.97a.163.163 0 0 1-.118-.027z" transform="translate(-708.629 -863.343)" style="fill:#f48605"/>
        <path data-name="Path 11393" d="M715.375 858.932a.125.125 0 0 0-.068-.018h-1.167v-.107a.161.161 0 0 1 .118-.029h1a.159.159 0 0 1 .118.029z" transform="translate(-708.62 -851.931)" style="fill:#f58d0b"/>
        <path data-name="Path 11394" d="M715.375 850.468h-1.235v-.071a.033.033 0 0 1 .032-.035h1.2c.003.038.003.07.003.106z" transform="translate(-708.62 -843.592)" style="fill:#f69510"/>
        <path data-name="Path 11395" d="M714.1 886h1.041a.725.725 0 0 0 .168-.008c.007 0 .017 0 .025.008v.071a.078.078 0 0 1-.052.009h-1.1a.085.085 0 0 1-.052-.008H714.094c.006-.029.006-.052.006-.072z" transform="translate(-708.58 -878.887)" style="fill:#f38002"/>
        <path data-name="Path 11396" d="M717.93 894.471h1.2a.04.04 0 0 1-.03.017h-1.14a.042.042 0 0 1-.03-.017z" transform="translate(-712.374 -887.29)" style="fill:#f69b14"/>
        <path data-name="Path 11397" d="M698.75 565.2a.421.421 0 0 1 .141-.019h1.227a.082.082 0 0 0 .057-.02c.027-.023.057-.043.084-.066s.047-.046.07-.069a.157.157 0 0 1 .033-.03.505.505 0 0 0 .108-.093.462.462 0 0 1 .081-.069.386.386 0 0 0 .06-.054.63.63 0 0 1 .108-.094.4.4 0 0 0 .065-.061.367.367 0 0 1 .068-.057.312.312 0 0 0 .054-.047.789.789 0 0 1 .121-.106.464.464 0 0 0 .071-.068.424.424 0 0 1 .082-.069.3.3 0 0 0 .053-.048.44.44 0 0 1 .1-.081.275.275 0 0 0 .04-.036c.006-.005.016-.012.023-.01s.01.018.011.029v.063a5.137 5.137 0 0 1-.434.4c-.238.211-.477.422-.714.634a.3.3 0 0 1-.216.086h-.67c-.126 0-.249.023-.374.018a.625.625 0 0 1-.243-.041c-.006-.031-.006-.061-.006-.092z" transform="translate(-693.373 -560.009)" style="fill:#f59410"/>
        <path data-name="Path 11398" d="M701.42 584.73a.061.061 0 0 0-.041.015l-.057.056a.51.51 0 0 1-.094.081.346.346 0 0 0-.059.054.511.511 0 0 1-.081.069.453.453 0 0 0-.066.06.634.634 0 0 1-.1.087.475.475 0 0 0-.071.067.423.423 0 0 1-.088.075.238.238 0 0 0-.046.041.585.585 0 0 1-.1.087.4.4 0 0 0-.065.061.717.717 0 0 1-.094.081.576.576 0 0 0-.09.086.276.276 0 0 1-.094.066.431.431 0 0 1-.349.093h-.8a3.192 3.192 0 0 1-.353-.018v-.054a.175.175 0 0 1 .128-.024h1.143a.3.3 0 0 0 .214-.086c.235-.209.47-.419.708-.626.121-.105.24-.213.36-.319.027-.024.05-.063.1-.039z" transform="translate(-693.393 -580.344)" style="fill:#f48807"/>
        <path data-name="Path 11399" d="M698.76 575.063h.09a.124.124 0 0 1 .044.006.226.226 0 0 0 .088.012h.108a.158.158 0 0 0 .053-.005.279.279 0 0 1 .106-.012h.851a.147.147 0 0 0 .113-.046l.057-.057a.154.154 0 0 1 .033-.03.49.49 0 0 0 .108-.093.435.435 0 0 1 .082-.069.3.3 0 0 0 .053-.048.631.631 0 0 1 .114-.1.321.321 0 0 0 .052-.049.533.533 0 0 1 .108-.093.237.237 0 0 0 .046-.042.593.593 0 0 1 .094-.081.49.49 0 0 0 .072-.067.453.453 0 0 1 .088-.075.286.286 0 0 0 .053-.048.772.772 0 0 1 .114-.1.5.5 0 0 0 .078-.074.067.067 0 0 1 .048-.021v.054a2.62 2.62 0 0 1-.313.291c-.293.257-.583.518-.877.775a.175.175 0 0 1-.12.05h-1.315a.063.063 0 0 1-.026-.008q-.002-.033-.002-.07z" transform="translate(-693.383 -569.781)" style="fill:#f58e0b"/>
        <path data-name="Path 11400" d="M698.75 580.83a.134.134 0 0 1 .068-.018h1.281a.1.1 0 0 0 .1-.038.071.071 0 0 1 .019-.018.625.625 0 0 0 .128-.111.368.368 0 0 1 .062-.051.427.427 0 0 0 .06-.053.593.593 0 0 1 .114-.1.213.213 0 0 0 .039-.036.583.583 0 0 1 .1-.087.4.4 0 0 0 .065-.061.587.587 0 0 1 .094-.081.486.486 0 0 0 .072-.067.475.475 0 0 1 .088-.075.366.366 0 0 0 .059-.054.407.407 0 0 1 .081-.069.239.239 0 0 0 .047-.041c.028-.027.054-.056.083-.081s.062-.046.093-.068v.054a.06.06 0 0 0-.041.015l-.064.063a.369.369 0 0 1-.062.051.4.4 0 0 0-.06.053.585.585 0 0 1-.114.1.219.219 0 0 0-.039.036.58.58 0 0 1-.1.087.4.4 0 0 0-.065.061.585.585 0 0 1-.094.081.488.488 0 0 0-.072.067.426.426 0 0 1-.088.075.243.243 0 0 0-.046.042.562.562 0 0 1-.1.087.368.368 0 0 0-.059.055.494.494 0 0 1-.1.087.236.236 0 0 0-.046.042c-.017.017-.033.034-.051.05a.143.143 0 0 1-.105.041h-1.347v-.038z" transform="translate(-693.373 -575.477)" style="fill:#f58d0a"/>
        <path data-name="Path 11401" d="M698.77 700.711a.378.378 0 0 1 .149-.018.079.079 0 0 1 .026 0 .384.384 0 0 0 .15.015h.241a.2.2 0 0 1 .062 0 .819.819 0 0 0 .23.013.049.049 0 0 0 .018 0 .746.746 0 0 1 .248-.012.566.566 0 0 0 .061 0h.116a.193.193 0 0 0 .138-.05.08.08 0 0 1 .066-.021.264.264 0 0 1-.072.078.125.125 0 0 1-.082.029h-1.351z" transform="translate(-693.393 -695.269)" style="fill:#f48706"/>
        <path data-name="Path 11402" d="M1164.755 675.928a.066.066 0 0 1-.033.06.37.37 0 0 1-.047.026c-.107.053-.212.109-.32.158-.234.105-.459.227-.69.336-.083.039-.167.077-.25.118l-.017.006a.021.021 0 0 1-.023-.009.207.207 0 0 1-.014-.042.506.506 0 0 1 0-.062v-1.028a.047.047 0 0 1 .015-.031.1.1 0 0 1 .026.073V675.766a.642.642 0 0 0 0 .106c.027.041.069.028.106.028h.974a.541.541 0 0 1 .133.008c.049.022.035.043-.005.053a.591.591 0 0 1-.178.005.218.218 0 0 0-.189.077c-.065.073-.137.139-.21.212.189-.106.384-.187.573-.28a.342.342 0 0 0 .082-.053.046.046 0 0 1 .061 0z" transform="translate(-1153.648 -670.324)" style="fill:#f7a219"/>
        <path data-name="Path 11403" d="M1165.508 838.058a.036.036 0 0 1-.035-.017.519.519 0 0 1-.006-.113v-.2c.008-.066-.037-.085-.087-.1-.415-.154-.823-.325-1.241-.47a.03.03 0 0 1-.017-.018c0-.038-.011-.078.01-.115l.425.162.349.136.341.131.167.062c.017.006.032.016.049.023a.068.068 0 0 1 .046.069l-.001.45z" transform="translate(-1154.402 -830.376)" style="fill:#f69a13"/>
        <path data-name="Path 11404" d="M1165.072 671.9v-.074a.035.035 0 0 1 .035-.033h1.304a.048.048 0 0 1 .037.034.2.2 0 0 1 0 .027v.438h-.017a.123.123 0 0 1-.025-.089v-.222c-.007-.079-.066-.072-.119-.073h-.894a1.536 1.536 0 0 1-.321-.008z" transform="translate(-1155.342 -666.688)" style="fill:#f69b14"/>
        <path data-name="Path 11405" d="M1163.252 837.02v.125a.094.094 0 0 1 .024.072v.221a.084.084 0 0 0 .064.1c.025.008.059.015.055.056a.964.964 0 0 0-.129.123.057.057 0 0 0-.015.041V839.408a.046.046 0 0 1-.015.031v-2.389a.036.036 0 0 1 .016-.03z" transform="translate(-1153.521 -830.376)" style="fill:#f9bc58"/>
        <path data-name="Path 11406" d="M1193.97 1107.637v-.1a.028.028 0 0 1 .023-.024H1196.236a.413.413 0 0 0 .054 0 .085.085 0 0 1 .076.036v.161a.751.751 0 0 0-.256-.025h-1.969c-.058-.003-.124.008-.171-.048z" transform="translate(-1183.972 -1098.343)" style="fill:#f69913"/>
        <path data-name="Path 11407" d="M1193.95 1121.05a.443.443 0 0 0 .149.018h2.1a.446.446 0 0 0 .071 0c.041-.007.06.016.073.048a.028.028 0 0 0 .006.006v.107s-.005 0-.006-.006c-.014-.033-.033-.056-.073-.048a.237.237 0 0 1-.045 0h-2.206a.13.13 0 0 0-.068.018l-.001-.143z" transform="translate(-1183.953 -1111.756)" style="fill:#f5910d"/>
        <path data-name="Path 11408" d="M1194.159 1138.3V1138.354a.385.385 0 0 1-.178.036v-.072a.14.14 0 0 1 .066-.018h.112z" transform="translate(-1183.982 -1128.84)" style="fill:#f48909"/>
        <path data-name="Path 11409" d="M1165.178 880.546a.092.092 0 0 0-.019-.018c-.016-.008-.033-.013-.05-.02-.078-.031-.077-.012-.074-.106.028-.044.064-.017.1-.007.187.061.369.137.552.207.214.082.429.162.642.248a.2.2 0 0 1 .071.036v.07a.046.046 0 0 1-.018.038l-.042-.014-.075-.029-.3-.114-.2-.077-.382-.149c-.055-.023-.113-.038-.167-.063a.114.114 0 0 0-.038-.002z" transform="translate(-1155.306 -873.33)" style="fill:#f38102"/>
        <path data-name="Path 11410" d="M1193.98 1144.1a.171.171 0 0 0 .022-.014.082.082 0 0 1 .057-.021h.1v.16h-.131a.048.048 0 0 1-.046-.045c-.002-.023-.002-.049-.002-.08z" transform="translate(-1183.982 -1134.559)" style="fill:#f48505"/>
        <path data-name="Path 11411" d="m806.22 1217.02.018.018z" transform="translate(-799.84 -1206.83)" style="fill:#f5940f"/>
        <path data-name="Path 11412" d="m811.98 1220.86.018.018z" transform="translate(-805.546 -1210.635)" style="fill:#f5940f"/>
        <path data-name="Path 11413" d="m817.73 1224.7.018.018z" transform="translate(-811.243 -1214.439)" style="fill:#f5940f"/>
        <path data-name="Path 11414" d="m800.46 1213.18.018.018z" transform="translate(-794.134 -1203.026)" style="fill:#f5940f"/>
        <path data-name="Path 11415" d="m823.49 1228.55.018.018z" transform="translate(-816.949 -1218.253)" style="fill:#f5940f"/>
        <path data-name="Path 11416" d="m827.32 1228.568.018-.018z" transform="translate(-820.744 -1218.253)" style="fill:#f5940f"/>
        <path data-name="Path 11417" d="M1166.66 701.41v.107a.191.191 0 0 1-.137.028h-1a1.567 1.567 0 0 1-.222.009v-.107c.02-.071.079-.063.131-.064h1.128a.143.143 0 0 1 .1.027z" transform="translate(-1155.57 -696.003)" style="fill:#f48606"/>
        <path data-name="Path 11418" d="M1166.65 689.987h-1.239a.329.329 0 0 1-.045 0 .084.084 0 0 0-.076.036v-.125a.1.1 0 0 1 .1-.045h1.168a.128.128 0 0 1 .092.028z" transform="translate(-1155.56 -684.581)" style="fill:#f58d0a"/>
        <path data-name="Path 11419" d="M1166.61 681.508h-1.293a.124.124 0 0 0-.068.018v-.107a.127.127 0 0 1 .068-.018h1.254a.033.033 0 0 1 .033.035c.006.024.006.048.006.072z" transform="translate(-1155.52 -676.208)" style="fill:#f5940f"/>
        <path data-name="Path 11420" d="m1165.33 715.976.024-.013a.193.193 0 0 1 .1-.023h1.233v.09h-.037a.037.037 0 0 1-.051 0h-1.14a.315.315 0 0 0-.106.01c-.011 0-.023-.007-.024-.02s.001-.03.001-.044z" transform="translate(-1155.599 -710.426)" style="fill:#f38002"/>
        <path data-name="Path 11421" d="M1230.525 725.76h.051a.033.033 0 0 1-.014.031l-.055.029c-.209.1-.421.2-.627.3-.014.007-.025.007-.024 0a.045.045 0 0 1 .01-.022l.3-.3a.093.093 0 0 1 .071-.03h.242a.063.063 0 0 0 .046-.008z" transform="translate(-1219.523 -720.154)" style="fill:#f9bd5d"/>
        <path data-name="Path 11422" d="M1166.511 867.422a.192.192 0 0 1-.086-.016c-.068-.03-.136-.06-.206-.083a.885.885 0 0 1-.116-.042c-.034-.017-.071-.03-.107-.044h-.008a1.21 1.21 0 0 1-.223-.086.584.584 0 0 1-.093-.028.555.555 0 0 0-.081-.037c-.033-.013-.067-.023-.1-.034a.2.2 0 0 1-.034-.011 1.177 1.177 0 0 0-.215-.083.367.367 0 0 1-.049-.021c-.016-.008-.029 0-.043.005v-.125c.027-.043.063-.023.095-.011.4.152.792.307 1.189.457a.126.126 0 0 1 .078.056z" transform="translate(-1155.421 -859.866)" style="fill:#f48706"/>
        <path data-name="Path 11423" d="M1166.511 857.351c-.063-.024-.126-.053-.191-.073a1.208 1.208 0 0 1-.1-.038c-.172-.072-.351-.128-.521-.2-.109-.031-.209-.084-.317-.117-.045-.014-.088-.036-.132-.053l-.059-.021c-.016-.006-.029 0-.043.006v-.108c.036-.025.07-.005.1.007.406.153.809.316 1.216.465a.14.14 0 0 1 .044.03q.003.051.003.102z" transform="translate(-1155.421 -849.902)" style="fill:#f58f0c"/>
        <path data-name="Path 11424" d="M1166.5 849.8a.419.419 0 0 1-.052-.009c-.057-.017-.112-.039-.167-.061-.177-.07-.357-.132-.532-.206-.055-.023-.112-.04-.167-.063-.1-.042-.2-.074-.3-.116a.7.7 0 0 0-.144-.046v-.072a.066.066 0 0 1 .067 0c.059.027.121.048.182.072l.091.036c.1.04.206.076.307.118.057.023.118.042.175.066.1.04.194.073.29.113.071.029.143.057.217.081a.042.042 0 0 1 .032.046l.001.041z" transform="translate(-1155.411 -842.456)" style="fill:#f5940f"/>
    </g>
</svg>
