<svg xmlns="http://www.w3.org/2000/svg" width="41.32" height="38.186" viewBox="0 0 41.32 38.186">
    <path data-name="Path 1" d="M242.349 13.041c1.132.666 2.213 1.308 3.3 1.936a.508.508 0 0 1 .3.506q-.015 5.218 0 10.436c0 .292-.077.353-.359.352q-5.631-.015-11.263 0c-.275 0-.337-.076-.335-.341q.018-2.583 0-5.166c0-.245.069-.3.306-.3 1.653.01 3.307 0 4.96.012.243 0 .3-.063.3-.3a195.896 195.896 0 0 1 0-3.513c0-.172-.014-.287-.211-.362q-3.3-1.258-6.6-2.536a.388.388 0 0 0-.073-.012.6.6 0 0 0-.035.359v11.642a.519.519 0 0 1-.551.578c-1.883.006-3.766 0-5.649.006-.158 0-.2-.056-.186-.2a1.465 1.465 0 0 0 0-.172q0-12.641-.007-25.281c0-.3.063-.4.385-.395q8.06.017 16.119 0a3.125 3.125 0 0 1 3.078 1.95 1.213 1.213 0 0 1 .118.528q-.005 3.617 0 7.233a.536.536 0 0 1-.248.481c-1.098.838-2.198 1.682-3.349 2.559zm-9.7-.9a.925.925 0 0 0 .143-.04l6.574-3.2a.315.315 0 0 0 .189-.349c-.006-.735-.015-1.47 0-2.2.007-.257-.085-.29-.311-.289q-3.151.013-6.3 0c-.259 0-.319.064-.318.32.012 1.825.006 3.65.007 5.476.006.087.015.176.02.284z" transform="translate(-204.633 -.26)" style="fill-rule:evenodd;fill:#0c074a"/>
    <path data-name="Path 2" d="M7.4 13.61c.026-.128.136-.181.214-.255q2.476-2.369 4.954-4.737a.719.719 0 0 1 .544-.224c2.181.009 4.363.012 6.544 0 .295 0 .351.082.35.361q-.013 7.629 0 15.259a1.785 1.785 0 0 1-1.023 1.653 2.954 2.954 0 0 1-1.5.3H3.292a4.563 4.563 0 0 1-.823-.06 2.354 2.354 0 0 1-2.032-2.231 9 9 0 0 1-.052-.962q0-10.23-.007-20.46a1.344 1.344 0 0 1 .194-.713A2.873 2.873 0 0 1 3.2.012h16.533c.084 0 .2-.053.25.045.061.126-.075.178-.145.24q-3 2.66-6.007 5.318a.543.543 0 0 1-.41.118c-2.135 0-4.271 0-6.407-.006-.25 0-.323.049-.322.314q.014 6.941 0 13.881c0 .247.045.326.313.324q3.186-.019 6.372 0c.256 0 .325-.062.324-.322q-.017-2.979 0-5.959c0-.291-.1-.329-.352-.328a700.38 700.38 0 0 1-5.614 0 .575.575 0 0 1-.335-.027z" transform="translate(-.378 -.001)" style="fill-rule:evenodd;fill:#0c074a"/>
    <g data-name="Group 1">
        <path data-name="Path 3" d="M2.018 289.391h6.531a1 1 0 0 1 .791 1.136v7.987h-2.4v-4.19l-2.523 1.227v4.242l-2.4-1.305v-4.007l4.922-2.545v-.64H4.418v1.514l-2.4 1.253z" transform="translate(-1.861 -261.699)" style="fill:#0c074a"/>
        <path data-name="Path 4" d="M92.408 295.27v3.041l-2.318 1.436v-10.416l2.318 2.114v1.255l1.391.9 1.132-.7v-1.54h-2.182l-2.359-2.1h6.218a1.472 1.472 0 0 1 .845 1.436v3.419l-1.554.822 1.541.979v2.6l-2.1 1.253v-2.6z" transform="translate(-81.505 -261.574)" style="fill:#0c074a"/>
        <path data-name="Path 5" d="M177.6 289.253h5.332l2 2.088h-4.909v.979h1.8l1.868 2.075h-3.668v1.958h2.809l1.991 2.036H177.6v-9.136z" transform="translate(-160.637 -261.574)" style="fill:#0c074a"/>
        <path data-name="Path 6" d="M265.387 289.391h2.236v1.775l2.741 2.323v-4.1h2.236v9.11h-2.263v-2.088l-2.713-2.245v4.334h-2.236v-9.11z" transform="translate(-240.027 -261.699)" style="fill:#0c074a"/>
        <path data-name="Path 7" d="M353.462 289.391h6.531a1 1 0 0 1 .791 1.136v7.987h-2.4v-4.19l-2.523 1.227v4.242l-2.4-1.305v-4.007l4.922-2.545v-.64h-2.523v1.514l-2.4 1.253z" transform="translate(-319.674 -261.699)" style="fill:#0c074a"/>
    </g>
</svg>
