<svg xmlns="http://www.w3.org/2000/svg" width="18.322" height="16.032" viewBox="0 0 18.322 16.032"><path d="M1.145,17.136A1.144,1.144,0,0,0,2.29,18.282H8.016V12.556H1.145Zm9.161,1.145h5.726a1.144,1.144,0,0,0,1.145-1.145v-4.58H10.306ZM17.177,6.83H15.67A3.12,3.12,0,0,0,16.032,5.4,3.154,3.154,0,0,0,12.882,2.25c-1.489,0-2.451.762-3.686,2.444C7.962,3.012,7,2.25,5.511,2.25A3.154,3.154,0,0,0,2.362,5.4,3.076,3.076,0,0,0,2.723,6.83H1.145A1.144,1.144,0,0,0,0,7.976v2.863a.574.574,0,0,0,.573.573H17.749a.574.574,0,0,0,.573-.573V7.976A1.144,1.144,0,0,0,17.177,6.83Zm-11.669,0a1.431,1.431,0,1,1,0-2.863c.712,0,1.238.118,3.081,2.863H5.507Zm7.375,0H9.8c1.839-2.738,2.351-2.863,3.081-2.863a1.431,1.431,0,1,1,0,2.863Z" transform="translate(0 -2.25)" fill="#fff" opacity="0.7"/></svg>