<svg xmlns="http://www.w3.org/2000/svg" width="22.286" height="19.5" viewBox="0 0 22.286 19.5">
  <path id="Icon_awesome-gift" data-name="Icon awesome-gift" d="M1.393,20.357A1.391,1.391,0,0,0,2.786,21.75H9.75V14.786H1.393ZM12.536,21.75H19.5a1.391,1.391,0,0,0,1.393-1.393V14.786H12.536ZM20.893,7.821H19.06A3.8,3.8,0,0,0,19.5,6.08a3.836,3.836,0,0,0-3.83-3.83c-1.811,0-2.982.927-4.483,2.973C9.685,3.177,8.514,2.25,6.7,2.25a3.836,3.836,0,0,0-3.83,3.83,3.742,3.742,0,0,0,.44,1.741H1.393A1.391,1.391,0,0,0,0,9.214V12.7a.7.7,0,0,0,.7.7H21.589a.7.7,0,0,0,.7-.7V9.214A1.391,1.391,0,0,0,20.893,7.821ZM6.7,7.821a1.741,1.741,0,0,1,0-3.482c.866,0,1.506.144,3.748,3.482H6.7Zm8.971,0H11.922c2.237-3.33,2.86-3.482,3.748-3.482a1.741,1.741,0,1,1,0,3.482Z" transform="translate(0 -2.25)" fill="#00ddbd"/>
</svg>
