<svg xmlns="http://www.w3.org/2000/svg" width="20.098" height="17.865" viewBox="0 0 20.098 17.865">
  <path id="solid_trophy" data-name="solid trophy" d="M19.261,2.233H15.632V.837A.835.835,0,0,0,14.795,0H5.3a.835.835,0,0,0-.837.837v1.4H.837A.835.835,0,0,0,0,3.071V5.025A4.553,4.553,0,0,0,2.16,8.538,8.175,8.175,0,0,0,6,9.993a7.718,7.718,0,0,0,2.376,2.568v2.512H6.7a2.014,2.014,0,0,0-2.233,1.954v.419a.42.42,0,0,0,.419.419H15.213a.42.42,0,0,0,.419-.419v-.419A2.014,2.014,0,0,0,13.4,15.074H11.724V12.561A7.718,7.718,0,0,0,14.1,9.993a8.146,8.146,0,0,0,3.838-1.455A4.563,4.563,0,0,0,20.1,5.025V3.071A.835.835,0,0,0,19.261,2.233ZM3.465,6.727a2.567,2.567,0,0,1-1.232-1.7V4.466h2.24A12.532,12.532,0,0,0,4.92,7.474,5.623,5.623,0,0,1,3.465,6.727Zm14.4-1.7a2.681,2.681,0,0,1-1.232,1.7,5.645,5.645,0,0,1-1.459.747,12.532,12.532,0,0,0,.447-3.008h2.244Z" fill="#280659"/>
</svg>
