<svg xmlns="http://www.w3.org/2000/svg" width="21" height="10.5" viewBox="0 0 21 10.5">
    <path data-name="Icon awesome-language" d="M4.991 11.35c-.115-.4-.256-1.089-.256-1.089h-.017s-.141.692-.256 1.089L4.1 12.581h1.25zm15.222-4.6h-9.188v10.5h9.188a.786.786 0 0 0 .787-.788V7.537a.786.786 0 0 0-.788-.787zm-.788 3.938a.4.4 0 0 1-.394.394h-.374a5.879 5.879 0 0 1-1.4 2.294 10.173 10.173 0 0 0 .856.591.4.4 0 0 1 .135.532l-.259.456a.4.4 0 0 1-.548.141 11.416 11.416 0 0 1-1.162-.817 11.571 11.571 0 0 1-1.162.817.4.4 0 0 1-.548-.141l-.259-.455a.394.394 0 0 1 .138-.532 9.36 9.36 0 0 0 .856-.591 7.614 7.614 0 0 1-.689-.843.393.393 0 0 1 .121-.561l.213-.128.24-.141a.4.4 0 0 1 .525.112 6.257 6.257 0 0 0 .571.686 5.019 5.019 0 0 0 .984-1.417h-3.75a.4.4 0 0 1-.394-.394v-.525a.4.4 0 0 1 .394-.394h2.1v-.528a.4.4 0 0 1 .394-.394h.525a.4.4 0 0 1 .394.394v.525h2.1a.4.4 0 0 1 .394.394zM0 7.537v8.925a.786.786 0 0 0 .788.788h9.187V6.75H.788A.786.786 0 0 0 0 7.537zm1.933 7.091L3.819 9.08a.392.392 0 0 1 .374-.266H5.26a.4.4 0 0 1 .374.266l1.887 5.549a.4.4 0 0 1-.374.522H6.4a.394.394 0 0 1-.377-.282l-.308-1.047H3.734l-.3 1.043a.4.4 0 0 1-.377.285h-.75a.4.4 0 0 1-.374-.522z" transform="translate(0 -6.75)" style="fill:#ffffff"/>
</svg>
