<svg xmlns="http://www.w3.org/2000/svg" width="25.001" height="25.001" viewBox="0 0 25.001 25.001">
  <path id="Icon_material-language" data-name="Icon material-language" d="M15.488,3A12.5,12.5,0,1,0,28,15.5,12.494,12.494,0,0,0,15.488,3Zm8.663,7.5H20.463a19.562,19.562,0,0,0-1.725-4.45A10.037,10.037,0,0,1,24.151,10.5ZM15.5,5.55a17.609,17.609,0,0,1,2.388,4.95H13.113A17.609,17.609,0,0,1,15.5,5.55ZM5.825,18a9.778,9.778,0,0,1,0-5H10.05a20.645,20.645,0,0,0-.175,2.5A20.645,20.645,0,0,0,10.05,18ZM6.85,20.5h3.688a19.562,19.562,0,0,0,1.725,4.45A9.984,9.984,0,0,1,6.85,20.5Zm3.688-10H6.85a9.984,9.984,0,0,1,5.413-4.45A19.562,19.562,0,0,0,10.538,10.5ZM15.5,25.451a17.609,17.609,0,0,1-2.388-4.95h4.775A17.609,17.609,0,0,1,15.5,25.451ZM18.426,18h-5.85a18.392,18.392,0,0,1-.2-2.5,18.232,18.232,0,0,1,.2-2.5h5.85a18.232,18.232,0,0,1,.2,2.5A18.392,18.392,0,0,1,18.426,18Zm.313,6.95a19.562,19.562,0,0,0,1.725-4.45h3.688a10.037,10.037,0,0,1-5.413,4.45ZM20.951,18a20.645,20.645,0,0,0,.175-2.5,20.646,20.646,0,0,0-.175-2.5h4.225a9.778,9.778,0,0,1,0,5Z" transform="translate(-3 -3)" fill="#fff"/>
</svg>
