<svg xmlns="http://www.w3.org/2000/svg" width="19.88" height="19.88" viewBox="0 0 19.88 19.88">
  <path id="brand_linkedin" data-name="brand linkedin" d="M18.46,32H1.416A1.426,1.426,0,0,0,0,33.433V50.447A1.426,1.426,0,0,0,1.416,51.88H18.46a1.43,1.43,0,0,0,1.42-1.433V33.433A1.43,1.43,0,0,0,18.46,32ZM6.008,49.04H3.062V39.553H6.013V49.04ZM4.535,38.257a1.708,1.708,0,1,1,1.708-1.708A1.709,1.709,0,0,1,4.535,38.257ZM17.054,49.04H14.107V44.425c0-1.1-.022-2.516-1.531-2.516-1.535,0-1.771,1.2-1.771,2.436V49.04H7.859V39.553h2.827v1.3h.04a3.1,3.1,0,0,1,2.791-1.531c2.982,0,3.537,1.966,3.537,4.522Z" transform="translate(0 -32)" fill="#fff"/>
</svg>
