<svg xmlns="http://www.w3.org/2000/svg" width="23.775" height="23.776" viewBox="0 0 23.775 23.776"><path d="M15.167,8.609a7.055,7.055,0,0,1,.017,9.965l-.017.017-3.121,3.121a7.058,7.058,0,0,1-9.982-9.982l1.723-1.723a.742.742,0,0,1,1.267.493,8.557,8.557,0,0,0,.45,2.448.747.747,0,0,1-.176.771l-.608.608a3.343,3.343,0,1,0,4.7,4.758l3.121-3.12a3.343,3.343,0,0,0,0-4.729,3.479,3.479,0,0,0-.48-.4.745.745,0,0,1-.323-.585,1.85,1.85,0,0,1,.543-1.384l.978-.978a.746.746,0,0,1,.956-.08,7.081,7.081,0,0,1,.953.8Zm6.545-6.545a7.066,7.066,0,0,0-9.982,0L8.609,5.185,8.592,5.2a7.06,7.06,0,0,0,.97,10.763.746.746,0,0,0,.956-.08l.978-.978a1.85,1.85,0,0,0,.543-1.384.745.745,0,0,0-.323-.585,3.479,3.479,0,0,1-.48-.4,3.343,3.343,0,0,1,0-4.729l3.121-3.12a3.343,3.343,0,1,1,4.7,4.758l-.608.608a.747.747,0,0,0-.176.771,8.557,8.557,0,0,1,.45,2.448.742.742,0,0,0,1.267.493l1.723-1.723a7.066,7.066,0,0,0,0-9.982Z" transform="translate(0 0)" fill="#fff"/></svg>