<svg xmlns="http://www.w3.org/2000/svg" width="19.063" height="19" viewBox="0 0 19.063 19">
    <g data-name="Group 970">
        <g data-name="Group 969">
            <path data-name="Path 11699" d="M9.5 18.267H2.375a.792.792 0 0 1-.792-.792V3.225a.792.792 0 0 1 .792-.792H9.5A.792.792 0 0 0 9.5.85H2.375A2.378 2.378 0 0 0 0 3.225v14.25a2.378 2.378 0 0 0 2.375 2.375H9.5a.792.792 0 1 0 0-1.583z" transform="translate(0 -.85)" style="fill:#341671"/>
        </g>
    </g>
    <g data-name="Group 972">
        <g data-name="Group 971">
            <path data-name="Path 11700" d="m182.594 112.143-4.813-4.75a.792.792 0 1 0-1.111 1.127l3.44 3.395h-9.217a.792.792 0 0 0 0 1.583h9.217l-3.44 3.395a.792.792 0 1 0 1.111 1.127l4.813-4.75a.791.791 0 0 0 0-1.127z" transform="translate(-163.767 -103.207)" style="fill:#341671"/>
        </g>
    </g>
</svg>
