<svg xmlns="http://www.w3.org/2000/svg" width="16.864" height="22.486" viewBox="0 0 16.864 22.486">
  <path id="Icon_awesome-file-alt" data-name="Icon awesome-file-alt" d="M9.838,5.973V0H1.054A1.051,1.051,0,0,0,0,1.054V21.432a1.051,1.051,0,0,0,1.054,1.054H15.81a1.051,1.051,0,0,0,1.054-1.054V7.027H10.892A1.057,1.057,0,0,1,9.838,5.973Zm2.811,10.365a.529.529,0,0,1-.527.527H4.743a.529.529,0,0,1-.527-.527v-.351a.529.529,0,0,1,.527-.527h7.378a.529.529,0,0,1,.527.527Zm0-2.811a.529.529,0,0,1-.527.527H4.743a.529.529,0,0,1-.527-.527v-.351a.529.529,0,0,1,.527-.527h7.378a.529.529,0,0,1,.527.527Zm0-3.162v.351a.529.529,0,0,1-.527.527H4.743a.529.529,0,0,1-.527-.527v-.351a.529.529,0,0,1,.527-.527h7.378A.529.529,0,0,1,12.648,10.365Zm4.216-5.011v.268H11.243V0h.268a1.053,1.053,0,0,1,.747.307l4.3,4.3A1.051,1.051,0,0,1,16.864,5.354Z" fill="#fff"/>
</svg>
