<svg xmlns="http://www.w3.org/2000/svg" width="29.38" height="20.566" viewBox="0 0 29.38 20.566">
  <path id="Icon_awesome-money-check-alt" data-name="Icon awesome-money-check-alt" d="M27.911,2.25H1.469A1.469,1.469,0,0,0,0,3.719V21.347a1.469,1.469,0,0,0,1.469,1.469H27.911a1.469,1.469,0,0,0,1.469-1.469V3.719A1.469,1.469,0,0,0,27.911,2.25ZM8.079,15.833v.74a.367.367,0,0,1-.367.367H6.978a.367.367,0,0,1-.367-.367v-.748A2.629,2.629,0,0,1,5.17,15.3a.368.368,0,0,1-.026-.557l.539-.515a.377.377,0,0,1,.465-.034,1.105,1.105,0,0,0,.589.171h1.29a.577.577,0,0,0,.542-.605.6.6,0,0,0-.4-.584L6.1,12.56a2.078,2.078,0,0,1-1.45-1.992A2.044,2.044,0,0,1,6.61,8.5v-.74a.367.367,0,0,1,.367-.367h.734a.367.367,0,0,1,.367.367v.748a2.625,2.625,0,0,1,1.44.521.368.368,0,0,1,.026.557l-.539.515a.377.377,0,0,1-.465.034,1.1,1.1,0,0,0-.589-.171H6.662a.577.577,0,0,0-.542.605.6.6,0,0,0,.4.584l2.066.62a2.078,2.078,0,0,1,1.45,1.992A2.044,2.044,0,0,1,8.079,15.833ZM19.1,15.1a.367.367,0,0,1-.367.367H13.588a.367.367,0,0,1-.367-.367v-.734A.367.367,0,0,1,13.588,14H18.73a.367.367,0,0,1,.367.367Zm7.345,0a.367.367,0,0,1-.367.367H22.4a.367.367,0,0,1-.367-.367v-.734A.367.367,0,0,1,22.4,14h3.672a.367.367,0,0,1,.367.367Zm0-4.407a.367.367,0,0,1-.367.367H13.588a.367.367,0,0,1-.367-.367V9.962a.367.367,0,0,1,.367-.367H26.074a.367.367,0,0,1,.367.367Z" transform="translate(0 -2.25)" fill="#fff"/>
</svg>
