<svg id="Layer_2" data-name="Layer 2" xmlns="http://www.w3.org/2000/svg" width="120.22" height="89.382" viewBox="0 0 120.22 89.382">
  <g id="Objects" transform="translate(0)">
    <path id="Path_7653" data-name="Path 7653" d="M115.252,39.73H104.317a2.726,2.726,0,0,1-2.073-.955h0a5.959,5.959,0,0,1-1.368-3.869v-.051a4.626,4.626,0,0,1,4.637-4.572h4.924a5.128,5.128,0,0,0,4.966-5.275,5.128,5.128,0,0,0-4.966-5.275h-9.882a4.4,4.4,0,0,1-3.294-1.547,5.627,5.627,0,0,1-1.368-3.731V14.4a4.375,4.375,0,0,1,4.4-4.3h6.061a5.006,5.006,0,0,0,4.959-5.054A5.006,5.006,0,0,0,106.349,0H13.87A5.008,5.008,0,0,0,8.9,5.047,5.008,5.008,0,0,0,13.87,10.1h6.06a4.377,4.377,0,0,1,4.4,4.3v.056a5.627,5.627,0,0,1-1.368,3.731,4.407,4.407,0,0,1-3.3,1.547H9.784A5.128,5.128,0,0,0,4.818,25a5.128,5.128,0,0,0,4.966,5.275h9.91a4.626,4.626,0,0,1,4.637,4.572V34.9a5.968,5.968,0,0,1-1.368,3.869h0a2.727,2.727,0,0,1-2.073.955H4.966a5.071,5.071,0,0,0,0,10.139h14.7a4.878,4.878,0,0,1,4.663,5.066,5.286,5.286,0,0,1-1.368,3.584,3.373,3.373,0,0,1-2.476,1.081H13.87a5.178,5.178,0,0,0,0,10.347h5.813c3.3,0,5.163,3.568,4.519,6.506-.7,3.216-3.888,3.009-6.612,3.009a4.966,4.966,0,0,0-4.964,5.1,5.033,5.033,0,0,0,5.066,4.827h84.832a5.034,5.034,0,0,0,5.068-4.827,4.966,4.966,0,0,0-4.964-5.1c-2.724,0-5.908.207-6.612-3.009-.645-2.942,1.231-6.506,4.519-6.506h5.813a5.178,5.178,0,0,0,0-10.347H99.734a3.372,3.372,0,0,1-2.474-1.081,5.275,5.275,0,0,1-1.369-3.584,4.881,4.881,0,0,1,4.662-5.066h14.7a5.068,5.068,0,0,0,0-10.134Z" transform="translate(0)" fill="#918ef4"/>
    <rect id="Rectangle_1838" data-name="Rectangle 1838" width="9.916" height="32.227" transform="translate(60.49 54.205)" fill="#7e1012"/>
    <path id="Path_7654" data-name="Path 7654" d="M233.814,110.628V137.58H165.48V110.628A16.39,16.39,0,0,1,181.868,94.24h35.555a16.377,16.377,0,0,1,16.39,16.388Z" transform="translate(-136.382 -77.669)" fill="#c52228"/>
    <path id="Path_7655" data-name="Path 7655" d="M294.035,139.873H240.18V137.62h52.661A16.113,16.113,0,0,1,294.035,139.873Z" transform="translate(-197.946 -113.421)" fill="#df222a"/>
    <rect id="Rectangle_1839" data-name="Rectangle 1839" width="55.199" height="7.108" transform="translate(42.234 38.24)" fill="#b51f24"/>
    <path id="Path_7656" data-name="Path 7656" d="M278.769,115.249H225V113h51.335A16.421,16.421,0,0,1,278.769,115.249Z" transform="translate(-185.436 -93.13)" fill="#fff" opacity="0.06"/>
    <path id="Path_7657" data-name="Path 7657" d="M198.259,110.62v18.463H165.48V110.62a16.39,16.39,0,1,1,32.78,0Z" transform="translate(-136.382 -77.66)" fill="#dd282f"/>
    <path id="Path_7658" data-name="Path 7658" d="M179,147.16V123.04a14.019,14.019,0,1,1,28.039,0v24.12Z" transform="translate(-147.524 -89.85)" fill="#8b1a1c"/>
    <rect id="Rectangle_1840" data-name="Rectangle 1840" width="93.282" height="2.254" transform="translate(4.152 58.87)" fill="#c52228"/>
    <path id="Path_7659" data-name="Path 7659" d="M116.892,292.4v9.708H23.61v-2.254H48.557v1.041H81.335V292.4Z" transform="translate(-19.458 -240.984)" fill="#a61d21"/>
    <path id="Path_7660" data-name="Path 7660" d="M412.874,34.57H397.33V64.395h5.808V43.09h9.736Z" transform="translate(-327.463 -28.491)" fill="#a4a6a8"/>
    <path id="Path_7661" data-name="Path 7661" d="M420.073,34.57H405.36V64.395h4.976V43.09h9.736Z" transform="translate(-334.081 -28.491)" fill="#fff"/>
    <ellipse id="Ellipse_550" data-name="Ellipse 550" cx="4.839" cy="5.789" rx="4.839" ry="5.789" transform="translate(68.672 31.731)" fill="#ffcf31"/>
    <ellipse id="Ellipse_551" data-name="Ellipse 551" cx="2.947" cy="3.526" rx="2.947" ry="3.526" transform="translate(70.564 33.994)" fill="#fff575"/>
    <rect id="Rectangle_1841" data-name="Rectangle 1841" width="22.939" height="2.159" transform="translate(53.952 85.602)" fill="#7e1012"/>
    <circle id="Ellipse_552" data-name="Ellipse 552" cx="2.242" cy="2.242" r="2.242" transform="translate(23.384 10.27) rotate(-45)" fill="#fff"/>
    <circle id="Ellipse_553" data-name="Ellipse 553" cx="2.242" cy="2.242" r="2.242" transform="translate(42.635 73.727)" fill="#fff"/>
    <circle id="Ellipse_554" data-name="Ellipse 554" cx="1.655" cy="1.655" r="1.655" transform="matrix(0.221, -0.975, 0.975, 0.221, 57.167, 9.862)" fill="#fff"/>
    <path id="Path_7662" data-name="Path 7662" d="M436.114,407.65a1.12,1.12,0,1,1-.329-.793A1.122,1.122,0,0,1,436.114,407.65Z" transform="translate(-357.577 -335.045)" fill="#fff"/>
    <path id="Path_7663" data-name="Path 7663" d="M572.684,241.032a1.12,1.12,0,1,1-.328-.794A1.122,1.122,0,0,1,572.684,241.032Z" transform="translate(-470.133 -197.724)" fill="#fff"/>
    <circle id="Ellipse_555" data-name="Ellipse 555" cx="1.122" cy="1.122" r="1.122" transform="translate(85.649 3.837)" fill="#fff"/>
    <path id="Path_7664" data-name="Path 7664" d="M140.484,407.65a1.122,1.122,0,1,1-1.12-1.12A1.122,1.122,0,0,1,140.484,407.65Z" transform="translate(-113.931 -335.045)" fill="#fff"/>
  </g>
</svg>
