<svg xmlns="http://www.w3.org/2000/svg" width="29.602" height="29.587" viewBox="0 0 29.602 29.587">
  <g id="Group_2" data-name="Group 2" transform="translate(0 -0.001)">
    <path id="Vector" d="M0,8.188l2.442.349L3.871,7.109,7.109,3.871,8.537,2.442,8.188,0Z" transform="translate(15.829 16.068)" fill="#a5a3e5"/>
    <path id="Vector-2" data-name="Vector" d="M0,0H3.5V1.974H0Z" transform="translate(20.839 23.559) rotate(-45)" fill="#a5a3e5"/>
    <path id="Vector-3" data-name="Vector" d="M6.188,3.713,2.475,0,0,2.475,3.713,6.188a.552.552,0,0,0,.763,0L6.188,4.476A.542.542,0,0,0,6.188,3.713Z" transform="translate(23.003 23.242)" fill="#a5a3e5"/>
    <path id="Vector-4" data-name="Vector" d="M3.937,2.451,0,7.462l5.875,7.477L11.783,10.3,14.234,0Zm2.39,5.995H1.47V7.367H6.327ZM8.486,6.287H2.55V5.208H8.486Z" transform="translate(15.368 0.001)" fill="#a5a3e5"/>
    <path id="Vector-5" data-name="Vector" d="M0,0,4.97,4.97h5.713V6.049H6.049L7.129,7.129h4.634V8.208H8.208l10.57,10.57L20.757,16.8,9.3,2.213Z" transform="translate(0.763 0.239)" fill="#a5a3e5"/>
    <path id="Vector-6" data-name="Vector" d="M2.213,9.3,16.8,20.757l1.979-1.979L0,0Z" transform="translate(0 1.003)" fill="#a5a3e5"/>
    <path id="Vector-7" data-name="Vector" d="M.459,0,0,.584,4.72,5.3l1.245-.978Z" transform="translate(7.843 16.455)" fill="#a5a3e5"/>
    <path id="Vector-8" data-name="Vector" d="M6.095,8.537l2.442-.349L.349,0,0,2.442,1.428,3.871,4.666,7.109Z" transform="translate(4.998 16.068)" fill="#a5a3e5"/>
    <path id="Vector-9" data-name="Vector" d="M0,0H1.974V3.5H0Z" transform="translate(4.645 22.478) rotate(-45)" fill="#a5a3e5"/>
    <path id="Vector-10" data-name="Vector" d="M1.87,6.188a.54.54,0,0,0,.763,0L6.346,2.475,3.871,0,.158,3.713a.539.539,0,0,0,0,.763Z" transform="translate(0.015 23.242)" fill="#a5a3e5"/>
  </g>
</svg>
