<svg xmlns="http://www.w3.org/2000/svg" width="22.677" height="22.677" viewBox="0 0 22.677 22.677">
  <g id="layer1" transform="translate(-2 -2)">
    <path id="path1828" d="M12.859,2a4.859,4.859,0,1,0,4.859,4.859A4.872,4.872,0,0,0,12.859,2Z" transform="translate(-1.141)" fill="#fff"/>
    <path id="path1832" d="M9.289,16A7.291,7.291,0,0,0,2,23.289v1.62a.81.81,0,0,0,.81.81H12.957a7.251,7.251,0,0,1,1.47-9.7c-.093,0-.184-.014-.278-.014Z" transform="translate(0 -2.661)" fill="#fff"/>
    <path id="path1767" d="M21.658,16a.811.811,0,0,0-.8.821V17.7a4.032,4.032,0,0,0-1.42.6l-.622-.622a.784.784,0,0,0-.612-.259.818.818,0,0,0-.533,1.4l.625.625a4.029,4.029,0,0,0-.593,1.42h-.879a.81.81,0,1,0,0,1.62H17.7a4.031,4.031,0,0,0,.592,1.408l-.63.63a.81.81,0,1,0,1.145,1.145l.628-.628a4.031,4.031,0,0,0,1.417.595v.881a.81.81,0,1,0,1.62,0v-.879a4.028,4.028,0,0,0,1.416-.593l.633.633a.81.81,0,1,0,1.146-1.145l-.63-.63a4.03,4.03,0,0,0,.595-1.416h.883a.81.81,0,1,0,0-1.62h-.879a4.029,4.029,0,0,0-.6-1.428l.625-.625a.809.809,0,1,0-1.142-1.145L23.9,18.3a4.03,4.03,0,0,0-1.419-.595v-.879A.808.808,0,0,0,21.661,16Zm.011,3.239a2.43,2.43,0,1,1-2.43,2.43A2.417,2.417,0,0,1,21.669,19.24Z" transform="translate(-2.661 -2.661)" fill="#fff"/>
  </g>
</svg>
