<svg xmlns="http://www.w3.org/2000/svg" width="24.307" height="24.307" viewBox="0 0 24.307 24.307">
  <path id="Icon_awesome-pen-alt" data-name="Icon awesome-pen-alt" d="M23.639,3.521,20.785.667a2.28,2.28,0,0,0-3.224,0L14.877,3.352,20.954,9.43l2.685-2.685a2.28,2.28,0,0,0,0-3.224ZM11.922,2.546a1.9,1.9,0,0,0-2.685,0L3.6,8.186a.759.759,0,0,0,0,1.074l1.074,1.074a.76.76,0,0,0,1.074,0L10.581,5.5l1.074,1.074-7.2,7.195A15.526,15.526,0,0,0,.008,23.03v.011A1.14,1.14,0,0,0,1.264,24.3a15.525,15.525,0,0,0,9.273-4.453L19.88,10.5,15.95,6.575,11.922,2.546Z" transform="translate(0.001 0)" fill="#fff"/>
</svg>
