<svg  viewBox="0 0 24 24" fill="none" xmlns="http://www.w3.org/2000/svg">
  <path d="M17.9325 0H6.06758C5.20324 0 4.5 0.698719 4.5 1.55766V22.4423C4.5 23.3012 5.2032 24 6.06758 24H17.9325C18.7968 24 19.5 23.3012 19.5 22.4423V1.55766C19.5 0.698719 18.7969 0 17.9325 0ZM12 22.3891C11.382 22.3891 10.881 21.8913 10.881 21.2772C10.881 20.6631 11.382 20.1652 12 20.1652C12.6181 20.1652 13.1191 20.6631 13.1191 21.2772C13.119 21.8913 12.618 22.3891 12 22.3891ZM17.3787 17.7844C17.3787 18.0971 17.1236 18.3505 16.809 18.3505H7.19113C6.87649 18.3505 6.62143 18.0971 6.62143 17.7844V2.4998C6.62143 2.18714 6.87649 1.93369 7.19113 1.93369H16.809C17.1236 1.93369 17.3787 2.18714 17.3787 2.4998V17.7844Z" fill="white"/>
</svg>
