<?xml version="1.0" encoding="UTF-8"?>
<svg id="Layer_1" data-name="Layer 1" xmlns="http://www.w3.org/2000/svg" viewBox="0 0 592.8 327.2">
  <defs>
    <style>
      .cls-1 {
        fill: #2bd1c1;
      }

      .cls-1, .cls-2, .cls-3 {
        stroke-width: 0px;
      }

      .cls-2 {
        fill: #8437f1;
      }

      .cls-3 {
        fill: #ffc543;
      }
    </style>
  </defs>
  <path class="cls-3" d="m592.8,111.36c-9.12,26.68-17.89,52.34-26.66,77.98-15.15,44.25-30.37,88.48-45.35,132.78-1.35,3.99-3.22,5.07-7.23,5.07-145.15-.1-290.29-.09-435.44-.03-3.04,0-4.88-.55-5.99-3.81C48.35,253.53,24.46,183.75.59,113.96c-.18-.51-.26-1.06-.59-2.44,59.71,32.84,118.84,65.37,178.45,98.16C217.65,139.92,256.73,70.36,296.26,0c39.37,70.08,78.48,139.69,117.81,209.68,59.42-32.68,118.62-65.25,178.74-98.32Z"/>
  <path class="cls-1" d="m156.95,148.33c-9.1-4.59-18.06-9.09-27-13.61-11.37-5.75-22.7-11.58-34.12-17.21-2.4-1.18-3.12-2.47-2.73-5.16,4.34-30.15,8.55-60.31,12.78-90.47.13-.96.24-1.92.4-3.16.66.33,1.25.51,1.69.87,24.03,19.77,48.03,39.58,72.1,59.31,1.78,1.46,2.13,2.61,1.29,4.83-7.74,20.36-15.32,40.78-22.96,61.17-.41,1.1-.9,2.16-1.43,3.44Z"/>
  <path class="cls-1" d="m437.48,148.33c9.1-4.59,18.06-9.09,27-13.61,11.37-5.75,22.7-11.58,34.12-17.21,2.4-1.18,3.12-2.47,2.73-5.16-4.34-30.15-8.55-60.31-12.78-90.47-.13-.96-.24-1.92-.4-3.16-.66.33-1.25.51-1.69.87-24.03,19.77-48.03,39.58-72.1,59.31-1.78,1.46-2.13,2.61-1.29,4.83,7.74,20.36,15.32,40.78,22.96,61.17.41,1.1.9,2.16,1.43,3.44Z"/>
  <path class="cls-2" d="m296.26,297.41c-10.36-14.79-20.44-29.14-30.44-43.56-.49-.71-.65-2.09-.31-2.87,10.1-23.31,20.29-46.57,30.71-70.41,1.86,4.15,3.52,7.82,5.14,11.51,8.47,19.33,16.94,38.66,25.32,58.02.44,1.02.67,2.71.13,3.49-10.01,14.53-20.16,28.97-30.55,43.81Z"/>
</svg>