<?xml version="1.0" encoding="iso-8859-1"?>
<!-- Generator: Adobe Illustrator 27.8.1, SVG Export Plug-In . SVG Version: 6.00 Build 0)  -->
<svg version="1.1" id="Layer_1" xmlns="http://www.w3.org/2000/svg" xmlns:xlink="http://www.w3.org/1999/xlink" x="0px" y="0px"
	 viewBox="0 0 606.4 853.987" style="enable-background:new 0 0 606.4 853.987;" xml:space="preserve">
<g>
	<path style="fill:#FFC543;" d="M599.601,119.377c-9.124,26.685-17.886,52.335-26.664,77.98
		c-15.147,44.252-30.367,88.479-45.353,132.785c-1.348,3.986-3.221,5.068-7.229,5.066c-145.146-0.098-290.291-0.091-435.437-0.034
		c-3.04,0.001-4.877-0.55-5.986-3.807c-23.782-69.819-47.675-139.6-71.54-209.391c-0.176-0.513-0.26-1.058-0.592-2.438
		c59.711,32.845,118.84,65.368,178.455,98.16c39.192-69.761,78.27-139.32,117.801-209.685
		c39.375,70.083,78.485,139.693,117.808,209.684C480.282,185.012,539.478,152.449,599.601,119.377z"/>
	<path style="fill:#FFFFFF;" d="M394.887,517.892c0,2.802,0,4.897,0,6.992c-0.007,46.874-0.011,93.748-0.022,140.622
		c-0.002,7.506-1.776,9.359-9.174,9.376c-21.948,0.049-43.898-0.033-65.845,0.158c-3.882,0.034-4.677-1.339-4.675-4.932
		c0.056-100.97,0.01-201.939-0.022-302.909c-0.001-3.54-0.05-7.081-0.03-10.621c0.031-5.755,0.65-6.399,6.292-6.393
		c35.401,0.033,70.802,0.102,106.202,0.117c29.312,0.012,58.624-0.045,87.935-0.039c3.962,0.001,7.955-0.096,11.88,0.34
		c15.896,1.763,26.326,10.73,32.369,25.197c0.524,1.254,0.662,2.747,0.664,4.129c0.035,30.447-0.024,60.894,0.095,91.34
		c0.013,3.339-1.588,5.163-3.942,6.946c-13.419,10.166-26.799,20.384-40.617,30.908c5.02,2.979,9.695,5.78,14.396,8.538
		c8.664,5.084,17.312,10.194,26.031,15.182c2.852,1.632,4.147,3.642,4.138,7.121c-0.115,43.05-0.128,86.101,0.011,129.151
		c0.013,4.043-1.438,5.121-5.158,5.116c-46.021-0.067-92.041-0.036-138.062-0.052c-5.002-0.002-5.545-0.592-5.547-5.663
		c-0.01-20.392-0.006-40.784-0.002-61.176c0.001-5.334,0.302-5.621,5.881-5.608c19.258,0.045,38.516,0.104,57.774,0.14
		c5.406,0.01,5.782-0.422,5.77-5.775c-0.031-13.311-0.158-26.624,0.024-39.932c0.052-3.819-1.104-5.856-4.807-7.257
		c-25.928-9.81-51.775-19.833-77.652-29.777C397.773,518.738,396.708,518.464,394.887,517.892z M394.886,497.94
		c1.54-0.533,2.348-0.724,3.076-1.078c26.578-12.903,53.136-25.846,79.738-38.698c2.72-1.314,3.555-3.22,3.52-6.073
		c-0.1-8.206-0.222-16.422,0.077-24.62c0.153-4.177-1.365-5.423-5.375-5.404c-25.191,0.117-50.383,0.05-75.574,0.064
		c-5.118,0.003-5.546,0.457-5.541,5.587c0.02,21.938,0.051,43.875,0.077,65.813C394.888,494.785,394.886,496.04,394.886,497.94z"/>
	<path style="fill:#FFFFFF;" d="M291.539,352.381c-1.183,0.498-2.602,0.729-3.514,1.533c-24.22,21.348-48.413,42.728-72.529,64.195
		c-2.494,2.22-5.03,3.211-8.377,3.196c-25.49-0.113-50.981-0.081-76.472-0.091c-6.044-0.002-6.16,0.11-6.16,6.223
		c-0.002,56.225-0.002,112.449,0.002,168.674c0,6.067,0.036,6.094,6.23,6.095c25.066,0.002,50.132,0.001,75.197-0.002
		c5.551-0.001,5.962-0.46,5.96-6.078c-0.007-23.225-0.002-46.45,0.019-69.675c0.006-6.227-0.368-6.611-6.804-6.604
		c-22.8,0.024-45.6,0.043-68.4,0.05c-0.958,0-1.916-0.141-3.59-0.272c0.975-1.24,1.517-2.129,2.244-2.825
		c20.261-19.382,40.575-38.708,60.78-58.147c3.056-2.94,6.304-4.35,10.588-4.331c25.49,0.114,50.981,0.052,76.471,0.042
		c7.133-0.003,7.203,0.053,7.203,6.994c0.001,61.606,0,123.213,0,184.819c0,16.112-9.407,26.152-25.54,27.222
		c-2.117,0.14-4.246,0.163-6.369,0.163c-58.771,0.001-117.541-0.002-176.312-0.031c-2.826-0.001-5.692,0.012-8.473-0.417
		c-16.759-2.584-26.032-12.631-27.33-29.598c-0.378-4.935-0.598-9.896-0.602-14.845c-0.068-81.859,0.289-163.72-0.44-245.573
		c-0.148-16.635,15.092-30.687,27.471-32.432c2.937-0.414,5.914-0.765,8.873-0.766c68.4-0.037,136.801-0.025,205.201,0.003
		c1.124,0,2.248,0.294,3.371,0.45C290.673,351.028,291.106,351.705,291.539,352.381z"/>
	<path style="fill:#FFFFFF;" d="M421.48,830.706c0-32.753,0-64.963,0-97.451c-4.983,0-9.591,0-14.862,0c0,1.408,0,2.892,0,4.377
		c0,21.95-0.052,43.899,0.066,65.848c0.015,2.729-0.787,4.352-3.077,5.845c-10.434,6.799-20.743,13.788-31.109,20.691
		c-1.002,0.668-2.085,1.215-3.673,2.131c0-33.279,0-65.924,0-98.87c-4.953,0-9.559,0-14.804,0c0,1.373,0,2.862,0,4.351
		c0,28.747-0.038,57.494,0.059,86.24c0.009,2.834-0.733,4.576-3.232,6.155c-9.807,6.194-19.44,12.662-29.153,19.006
		c-1.135,0.742-2.361,1.345-3.912,2.22c0-48.44,0-96.355,0-144.674c1.639-0.081,3.14-0.221,4.642-0.221
		c39.931-0.012,79.863-0.015,119.794-0.005c9.32,0.002,15.072,4.977,15.426,14.326c0.461,12.159,0.291,24.343,0.323,36.517
		c0.04,15.152-0.154,30.307,0.113,45.455c0.076,4.307-1.112,6.891-4.943,9.084c-9.449,5.408-18.617,11.305-27.909,16.987
		C424.188,829.352,423.073,829.865,421.48,830.706z"/>
	<path style="fill:#2BD1C1;" d="M163.752,156.347c-9.1-4.587-18.055-9.091-27.001-13.613c-11.37-5.748-22.699-11.578-34.124-17.215
		c-2.396-1.182-3.12-2.466-2.732-5.163c4.34-30.146,8.545-60.312,12.784-90.472c0.134-0.956,0.241-1.915,0.395-3.158
		c0.66,0.334,1.248,0.511,1.685,0.871c24.031,19.771,48.034,39.576,72.099,59.305c1.777,1.457,2.13,2.611,1.286,4.831
		c-7.737,20.359-15.323,40.776-22.961,61.173C164.774,154.001,164.287,155.067,163.752,156.347z"/>
	<path style="fill:#2BD1C1;" d="M444.281,156.347c9.1-4.587,18.055-9.091,27.001-13.613c11.37-5.748,22.699-11.578,34.124-17.215
		c2.396-1.182,3.12-2.466,2.732-5.163c-4.34-30.146-8.545-60.312-12.784-90.472c-0.134-0.956-0.241-1.915-0.395-3.158
		c-0.66,0.334-1.248,0.511-1.685,0.871c-24.031,19.771-48.034,39.576-72.099,59.305c-1.777,1.457-2.13,2.611-1.286,4.831
		c7.737,20.359,15.323,40.776,22.961,61.173C443.26,154.001,443.746,155.067,444.281,156.347z"/>
	<path style="fill:#FFFFFF;" d="M237.219,786c6.301,4.198,12.171,7.889,17.749,11.978c1.409,1.033,2.627,3.318,2.67,5.059
		c0.25,10.047,0.199,20.104,0.031,30.155c-0.024,1.423-0.857,3.421-1.97,4.144c-8.518,5.533-17.199,10.817-26.592,16.652
		c0-4.79,0-8.933,0-13.076c0-6.796,0.058-13.594-0.052-20.389c-0.02-1.267-0.31-3.109-1.159-3.695
		c-12.307-8.497-24.73-16.825-37.877-25.7c0,7.235,0,13.659,0,20.083c0,6.513,0.069,13.028-0.061,19.539
		c-0.025,1.24-0.459,3.025-1.337,3.611c-9.631,6.423-19.388,12.658-29.61,19.267c0-48.809,0-97.058,0-146.052
		c1.901,1.748,3.422,3.112,4.905,4.517c8.011,7.59,16.081,15.119,23.943,22.861c1.217,1.199,1.937,3.348,2.068,5.119
		c0.356,4.782-1.234,10.402,0.784,14.172c2.015,3.767,7.453,5.714,11.413,8.426c6.45,4.417,6.179,3.867,13.002,0.324
		c6.841-3.552,9.572-8.269,8.365-15.824c-0.546-3.419-0.093-6.998-0.093-11.035c-8.586,0-16.751-0.104-24.911,0.056
		c-2.899,0.057-5.011-0.792-7.131-2.814c-9.194-8.772-18.563-17.36-28.443-26.549c1.73-0.222,2.744-0.465,3.757-0.466
		c25.627-0.022,51.254,0.049,76.88-0.078c4.805-0.024,8.05,2.585,9.937,6.119c2.126,3.981,3.941,8.648,4.083,13.075
		c0.488,15.276,0.13,30.578,0.248,45.87c0.019,2.483-0.796,3.837-2.957,4.966C249.105,779.319,243.466,782.549,237.219,786z"/>
	<path style="fill:#FFFFFF;" d="M81.011,736.461c0,1.929,0,3.599,0,5.268c0,29.16-0.044,58.321,0.065,87.48
		c0.011,3.023-0.812,4.874-3.454,6.505c-8.301,5.124-16.418,10.545-24.618,15.834c-1.02,0.658-2.107,1.213-3.557,2.04
		c0-49.241,0-97.975,0-147.244c1.9,0,3.555,0,5.211,0c25.337,0,50.673,0,76.01,0c10.305,0,17.302,6.036,17.548,16.307
		c0.4,16.694,0.172,33.404,0.087,50.106c-0.005,1.023-0.825,2.447-1.698,3c-18.38,11.628-36.823,23.158-55.768,35.03
		c-0.225-1.506-0.503-2.515-0.506-3.525c-0.032-10.333,0.072-20.668-0.084-30.999c-0.04-2.641,0.977-4.101,3.093-5.419
		c5.882-3.664,11.549-7.682,17.517-11.192c2.841-1.671,3.766-3.601,3.607-6.792c-0.267-5.346-0.073-10.716-0.073-16.398
		C103.314,736.461,92.507,736.461,81.011,736.461z"/>
	<path style="fill:#FFFFFF;" d="M553.171,778.828c-16.894,0-32.736,0-48.942,0c0,8.872,0,17.547,0,26.942c2.316,0,4.655,0,6.993,0
		c9.061,0,18.122-0.054,27.181,0.056c1.425,0.017,3.298,0.337,4.189,1.262c8.246,8.556,16.325,17.272,24.431,25.962
		c0.243,0.26,0.249,0.741,0.454,1.405c-32.076,0-63.967,0-96.169,0c0-42.58,0-84.98,0-127.897c1.425-0.07,2.915-0.205,4.406-0.206
		c21.094-0.014,42.189,0.036,63.282-0.064c2.786-0.013,4.691,0.81,6.564,2.908c7.706,8.628,15.604,17.083,24.122,26.353
		c-22.283,0-43.661,0-65.428,0c0,4.674,0,8.822,0,13.657c6.355,0,12.804,0.197,19.233-0.081c3.329-0.144,5.462,1.022,7.524,3.509
		c6.23,7.516,12.686,14.844,19.041,22.257C550.934,775.92,551.738,777.014,553.171,778.828z"/>
	<path style="fill:#FFFFFF;" d="M303.375,685.932c0,49.621,0,98.667,0,148.085c-10.728,0-21.375,0-32.544,0c0-1.448,0-2.82,0-4.191
		c0-39.226,0.031-78.452-0.064-117.678c-0.007-2.857,0.808-4.661,3.187-6.261c8.689-5.843,17.246-11.882,25.866-17.827
		C300.811,687.376,301.889,686.816,303.375,685.932z"/>
	<path style="fill:#8437F1;" d="M303.055,305.426c-10.359-14.786-20.442-29.142-30.442-43.555c-0.492-0.709-0.651-2.087-0.312-2.87
		c10.105-23.305,20.292-46.575,30.711-70.409c1.855,4.15,3.523,7.818,5.14,11.509c8.465,19.329,16.935,38.656,25.324,58.018
		c0.442,1.02,0.668,2.711,0.129,3.493C323.589,276.143,313.442,290.583,303.055,305.426z"/>
</g>
</svg>
