<!DOCTYPE svg PUBLIC "-//W3C//DTD SVG 1.1//EN" "http://www.w3.org/Graphics/SVG/1.1/DTD/svg11.dtd">
<!-- Uploaded to: SVG Repo, www.svgrepo.com, Transformed by: SVG Repo Mixer Tools -->
<svg fill="#ffffff" height="800px" width="800px" version="1.1" id="Capa_1" xmlns="http://www.w3.org/2000/svg" xmlns:xlink="http://www.w3.org/1999/xlink" viewBox="0 0 489.052 489.052" xml:space="preserve">
<g id="SVGRepo_bgCarrier" stroke-width="0"/>
<g id="SVGRepo_tracerCarrier" stroke-linecap="round" stroke-linejoin="round"/>
<g id="SVGRepo_iconCarrier"> <g> <path d="M439.106,368.2c-8-0.6-24.7,8.4-29.2,10.7c-16.2,8.2-38.7,21-53.6,31.2c-1,0.7-2.4,1.6-3.4,2.3c-6.7,4.3-13.7,7.2-21.5,8.8 c-43,9.2-105.7,10.2-105.7,10.2l-3.6,0.2c-2.8,0.1-5.2-1.8-5.6-4.4c-0.5-2.9,1.7-5.6,4.8-5.9l93.2-8.9 c10.2-1.1,18.4-10.7,17.3-21.5s-11.1-18.7-21.3-17.6l-82.9-1c-5.6-0.1-14.7-1.5-20.1-3.1c-53.5-15.6-83.6-1-99.6,5.8 c-3.6-5.9-10.3-9.8-17.9-9.3l-35.8,2.4c-11.9,0.8-20.9,10.7-20,22.2l5.7,79.4c0.8,11.5,11.1,20.1,23,19.3l35.8-2.4 c7.5-0.5,13.7-5.2,16.4-11.5l157.1,6.8c17.5,1.8,33.9-0.3,49.3-8.3l4.5-2.4l118.7-69.5c5.8-3.4,10-9.3,10.2-15.9 C455.006,377.9,450.406,369,439.106,368.2z M75.906,470.2c-6.7,0-12.2-5.3-12.2-11.7s5.5-11.7,12.2-11.7s12.2,5.3,12.2,11.7 S82.606,470.2,75.906,470.2z M350.806,395.6c0.2-2.2,0.2-4.4-0.1-6.6c-0.3-2.8-0.9-5.5-1.8-8.1c0.1-0.2,0.1-0.3,0.2-0.5 c12.5-6.8,37.1-18.7,50.4-24c6.7-2.7,13.3-2.5,19.4,1.6c-4.8,1.7-9.2,3.8-13.5,6c-14,7.1-38.8,20.5-51,29 C353.306,393.9,352.106,394.7,350.806,395.6z M349.606,364.2l-6,3.3c-0.6,0.3-1.1,0.7-1.6,1.1c-2.7-3.1-5.8-5.8-9.3-8 c8.2-4.3,26.6-10.3,34.9-13.6c6.6-2.6,13.1-2.5,19.2,1.5C377.006,352.7,358.306,359.3,349.606,364.2z M419.006,31h-66.3V0h-193.7 v31h-66.2v50.9c0,36.5,29.7,66.3,66.2,66.3h8.6c12.5,27.6,37.5,48.3,67.8,54.8v41.6h-23.8c-7.3,0-13.3,5.9-13.3,13.3v17.4h-20.3 v62.2h155.5v-62.2h-20.3v-17.4c0-7.3-5.9-13.3-13.3-13.3h-23.8V203c30.3-6.5,55.3-27.2,67.8-54.8h8.6c36.5,0,66.3-29.7,66.3-66.3 V31H419.006z M159.006,114.5c-18,0-32.7-14.7-32.7-32.7V64.5h32.7v43.7c0,2.1,0.1,4.2,0.2,6.3H159.006z M282.806,278.2v33.3h-53.8 v-33.3H282.806z M299.806,87l-19.9,16.8l6.2,25.3c1.2,4.8-4,8.5-8.2,5.9l-22.1-13.7l-22.1,13.7c-4.2,2.6-9.4-1.2-8.2-5.9l6.2-25.3 l-19.9-16.8c-3.7-3.2-1.8-9.3,3.1-9.6l26-1.9l9.8-24.1c1.8-4.5,8.3-4.5,10.1,0l9.8,24.1l26,1.9 C301.606,77.8,303.606,83.9,299.806,87z M385.406,81.8c0,18-14.7,32.7-32.7,32.7h-0.2c0.1-2.1,0.2-4.2,0.2-6.3V64.5h32.7V81.8z"/> </g> </g>
</svg>