<svg xmlns="http://www.w3.org/2000/svg" width="18.033" height="14.427" viewBox="0 0 18.033 14.427">
  <path id="Icon_awesome-crown" data-name="Icon awesome-crown" d="M14.878,12.623H3.156a.452.452,0,0,0-.451.451v.9a.452.452,0,0,0,.451.451H14.878a.452.452,0,0,0,.451-.451v-.9A.452.452,0,0,0,14.878,12.623Zm1.8-9.017a1.353,1.353,0,0,0-1.353,1.353,1.325,1.325,0,0,0,.124.558L13.412,6.74a.9.9,0,0,1-1.245-.327L9.87,2.4a1.353,1.353,0,1,0-1.708,0l-2.3,4.018a.9.9,0,0,1-1.245.327L2.584,5.517a1.352,1.352,0,1,0-1.231.795,1.381,1.381,0,0,0,.217-.023l2.037,5.433h10.82l2.037-5.433a1.381,1.381,0,0,0,.217.023,1.353,1.353,0,0,0,0-2.705Z" fill="#ffb133"/>
</svg>
