<svg xmlns="http://www.w3.org/2000/svg" width="25" height="25" viewBox="0 0 25 25"><g transform="translate(-1199 -609.521)"><g transform="translate(1199 609.521)" fill="#fff" stroke="#ae2d68" stroke-width="1"><circle cx="12.5" cy="12.5" r="12.5" stroke="none"/><circle cx="12.5" cy="12.5" r="12" fill="none"/></g><g transform="translate(1125.383 614.372)"><path d="M221.988,100.924,219.353,95h-1.145v5.6a.9.9,0,0,0-1.765.27v1.3a.9.9,0,0,1-.108.428l-.236.44a2,2,0,0,0,.11,2.074l.554.812a.707.707,0,0,1,.123.4v1.136h3.961V106.2c0-.272.039-.312.249-.755l.8-1.526A3.408,3.408,0,0,0,221.988,100.924Z" transform="translate(-130.944 -92.157)" fill="#fed2a4"/><path d="M315.213,103.918l-.8,1.526c-.21.443-.249.483-.249.755v1.252h-.617v-1.574c0-.272.039-.312.249-.755l.8-1.526a2.751,2.751,0,0,0,.087-2.676l-2.635-5.929h.617l2.635,5.929A3.408,3.408,0,0,1,315.213,103.918Z" transform="translate(-224.256 -92.153)" fill="#ffbd86"/><path d="M88.17,10.147H81.124a.239.239,0,0,1-.239-.239V.244A.239.239,0,0,1,81.124,0H88.17a.239.239,0,0,1,.239.239V9.907A.239.239,0,0,1,88.17,10.147Z" transform="translate(0 -0.005)" fill="#ae2d68"/><path d="M304.889.239V9.9a.24.24,0,0,1-.24.24h-.617a.24.24,0,0,0,.239-.24V.239a.24.24,0,0,0-.239-.24h.617a.24.24,0,0,1,.24.24Z" transform="translate(-216.48)" fill="#ae2d68"/><path d="M216.887,268.845v-1.136a.707.707,0,0,0-.123-.4l-.554-.812a2,2,0,0,1-.11-2.074l.236-.44a.9.9,0,0,0,.108-.428v-1.3a.9.9,0,0,1,1.806,0v2.026a1.194,1.194,0,0,0,.416.906l.281.242v3.413Z" transform="translate(-130.944 -253.547)" fill="#fed2a4"/><path d="M257.134,265.558a.27.27,0,0,1-.45.2l-.449-.4a1.572,1.572,0,0,1-.416-1.071v-2.026a.9.9,0,0,0-.594-.849.9.9,0,0,1,1.212.849v2.026a1.194,1.194,0,0,0,.416.906l.187.161A.27.27,0,0,1,257.134,265.558Z" transform="translate(-169.131 -253.55)" fill="#ffbd86"/></g></g></svg>