<svg xmlns="http://www.w3.org/2000/svg" width="20.299" height="20.301" viewBox="0 0 20.299 20.301">
  <path id="Icon_awesome-check-double" data-name="Icon awesome-check-double" d="M20.019,6.929l-1.57-1.57a.948.948,0,0,0-1.344,0l-9.5,9.5-4.416-4.42a.948.948,0,0,0-1.344,0L.276,12.008a.952.952,0,0,0,0,1.348l6.66,6.664a.948.948,0,0,0,1.344,0L20.015,8.277A.956.956,0,0,0,20.019,6.929Zm-12.857,4.2a.629.629,0,0,0,.9,0L16.3,2.877a.637.637,0,0,0,0-.9L14.513.186a.629.629,0,0,0-.9,0L7.61,6.192l-2.2-2.2a.629.629,0,0,0-.9,0l-1.8,1.8a.637.637,0,0,0,0,.9Z" transform="translate(0.004 0.002)" fill="#fff" opacity="0.7"/>
</svg>
