<svg xmlns="http://www.w3.org/2000/svg" width="20.323" height="29.61" viewBox="0 0 20.323 29.61"><g transform="translate(-80.288)"><path d="M98.837,13.736H85.754V8.383a4.7,4.7,0,0,1,9.391,0V9.4a.867.867,0,0,0,.867.867h1.954a.867.867,0,0,0,.867-.867V8.383a8.383,8.383,0,0,0-16.767,0v5.353h0a1.774,1.774,0,0,0-1.774,1.774V27.836a1.774,1.774,0,0,0,1.774,1.774H98.837a1.774,1.774,0,0,0,1.774-1.774V15.51a1.774,1.774,0,0,0-1.774-1.774Zm-7.52,8.3v2.6a.883.883,0,0,1-.825.891.867.867,0,0,1-.909-.866V22.033a2.6,2.6,0,1,1,1.734,0Z" fill="#fff"/><path d="M241.88,323.48a.874.874,0,1,0,.753.753A.874.874,0,0,0,241.88,323.48Z" transform="translate(-151.317 -304.766)" fill="#fff"/></g></svg>