<svg xmlns="http://www.w3.org/2000/svg" width="19.249" height="19.233" viewBox="0 0 19.249 19.233">
  <g id="Icon_ionic-ios-rocket" data-name="Icon ionic-ios-rocket" transform="translate(-3.366 -3.372)">
    <path id="Path_23122" data-name="Path 23122" d="M22.514,3.633a.2.2,0,0,0-.153-.157C19.845,2.861,14.03,5.053,10.88,8.2a13.617,13.617,0,0,0-1.531,1.809,5.7,5.7,0,0,0-2.771.347c-2.336,1.027-3.016,3.71-3.206,4.862a.414.414,0,0,0,.453.481l3.752-.412a8.34,8.34,0,0,0,.051.847.84.84,0,0,0,.245.513L9.325,18.1a.84.84,0,0,0,.513.245,8.324,8.324,0,0,0,.842.051l-.412,3.747a.414.414,0,0,0,.481.453c1.152-.185,3.839-.865,4.862-3.2a5.723,5.723,0,0,0,.352-2.762,13.638,13.638,0,0,0,1.813-1.531C20.941,11.96,23.12,6.274,22.514,3.633Zm-7.549,7.4a1.976,1.976,0,1,1,2.794,0A1.974,1.974,0,0,1,14.964,11.03Z" transform="translate(0 0)" fill="#ffb133"/>
    <path id="Path_23123" data-name="Path 23123" d="M10.052,25.587h0a1.755,1.755,0,0,1-.916.37A1.245,1.245,0,0,1,7.7,24.523a1.72,1.72,0,0,1,.365-.911l0,0a.155.155,0,0,0-.13-.264,2.126,2.126,0,0,0-1.244.606c-.833.833-.911,3.923-.911,3.923s3.095-.079,3.927-.911a2.112,2.112,0,0,0,.606-1.244A.158.158,0,0,0,10.052,25.587Z" transform="translate(-0.828 -6.832)" fill="#ffb133"/>
  </g>
</svg>
