<svg xmlns="http://www.w3.org/2000/svg" width="29.961" height="29.961" viewBox="0 0 29.961 29.961"><path d="M29.021,8.8l-5.61-5.61a3.21,3.21,0,0,0-2.27-.94H3.21A3.21,3.21,0,0,0,0,5.46V29a3.21,3.21,0,0,0,3.21,3.21H26.751A3.21,3.21,0,0,0,29.961,29V11.07a3.21,3.21,0,0,0-.94-2.27ZM14.98,27.931a4.28,4.28,0,1,1,4.28-4.28A4.28,4.28,0,0,1,14.98,27.931ZM21.4,7.565v6.722a.8.8,0,0,1-.8.8H5.083a.8.8,0,0,1-.8-.8V7.333a.8.8,0,0,1,.8-.8H20.365a.8.8,0,0,1,.567.235L21.166,7a.8.8,0,0,1,.235.567Z" transform="translate(0 -2.25)" fill="#fff"/></svg>