<svg xmlns="http://www.w3.org/2000/svg" width="50" height="50" viewBox="0 0 50 50"><circle cx="25" cy="25" r="25" fill="#6d1950"/><g transform="translate(7.511 7.507)"><g transform="translate(4.502 4.507)"><path d="M162.927,306.658l1.631,1.366-3.052,2.563-.72-.718a.909.909,0,0,0-.552-.276l-.214-.027Z" transform="translate(-151.988 -291.056)" fill="#fff"/><path d="M131.5,270.568l1.6,1.344-2.857,2.857-.027-.209a.918.918,0,0,0-.27-.546l-.728-.728Z" transform="translate(-122.78 -256.829)" fill="#fff"/><path d="M275.429,4.924l-.211,5.312a.406.406,0,0,1-.145.292l-8.3,6.962-1.716-2.046,5.366-5.366a.4.4,0,1,0-.568-.568l-5.315,5.315-1.748-2.083,6.614-7.883a.413.413,0,0,1,.292-.142l5.312-.212a.405.405,0,0,1,.3.118.4.4,0,0,1,.118.3Z" transform="translate(-249.455 -4.507)" fill="#fff"/><path d="M15.831,295.889a.406.406,0,0,1-.284.118.323.323,0,0,1-.051,0l-2.048-.257a.394.394,0,0,1-.236-.115l-2.126-2.123-3.347,3.347a1.891,1.891,0,0,1-2.675-2.675l3.347-3.347-2.123-2.126a.394.394,0,0,1-.115-.236l-.257-2.048a.4.4,0,0,1,.115-.335.409.409,0,0,1,.335-.115l2.048.257a.4.4,0,0,1,.236.115L11.3,289a.388.388,0,0,1,.115.233l.142,1.13,1.13.142a.387.387,0,0,1,.233.115l2.654,2.651a.4.4,0,0,1,.115.236l.257,2.048A.409.409,0,0,1,15.831,295.889Z" transform="translate(-4.51 -271.437)" fill="#fff"/><path d="M296.858,296.841a1.89,1.89,0,0,1-2.675,0l-3.347-3.347-2.126,2.123a.4.4,0,0,1-.236.115l-2.048.257a.323.323,0,0,1-.051,0,.4.4,0,0,1-.4-.45l.257-2.051a.4.4,0,0,1,.115-.236L289,290.6a.387.387,0,0,1,.233-.115l1.13-.142.142-1.13a.387.387,0,0,1,.115-.233l2.651-2.653a.4.4,0,0,1,.236-.115l2.051-.257a.4.4,0,0,1,.332.115.4.4,0,0,1,.115.335l-.257,2.048a.394.394,0,0,1-.115.236l-2.123,2.126,3.347,3.347A1.9,1.9,0,0,1,296.858,296.841Z" transform="translate(-271.439 -271.422)" fill="#fff"/><path d="M9.507,10.078a.4.4,0,1,1,.568-.568L23.013,22.449l.027-.214a.92.92,0,0,1,.273-.552l.723-.723L10.525,4.86a.413.413,0,0,0-.292-.142L4.921,4.507a.4.4,0,0,0-.3.118.4.4,0,0,0-.118.3l.212,5.312a.413.413,0,0,0,.142.292l16.1,13.509.728-.726a.918.918,0,0,1,.546-.27l.21-.026Z" transform="translate(-4.502 -4.507)" fill="#fff"/></g></g></svg>