<svg xmlns="http://www.w3.org/2000/svg" width="20.821" height="18.218" viewBox="0 0 20.821 18.218"><path d="M10.41,2.25C4.66,2.25,0,6.036,0,10.708a7.507,7.507,0,0,0,2.318,5.315,10.345,10.345,0,0,1-2.228,3.9.323.323,0,0,0-.061.354.318.318,0,0,0,.3.2,9.3,9.3,0,0,0,5.718-2.09,12.4,12.4,0,0,0,4.367.789c5.75,0,10.41-3.786,10.41-8.458S16.16,2.25,10.41,2.25Zm-5.2,11.061h-.5a.326.326,0,0,1-.325-.325v-.651a.326.326,0,0,1,.325-.325h.5c.244,0,.423-.142.423-.268a.215.215,0,0,0-.085-.155l-.891-.764a1.5,1.5,0,0,1-.541-1.143A1.653,1.653,0,0,1,5.848,8.11h.5a.326.326,0,0,1,.325.325v.651a.326.326,0,0,1-.325.325h-.5c-.244,0-.423.142-.423.268a.215.215,0,0,0,.085.155L6.4,10.6a1.5,1.5,0,0,1,.541,1.143A1.651,1.651,0,0,1,5.213,13.311Zm7.8-.325a.326.326,0,0,1-.325.325h-.651a.326.326,0,0,1-.325-.325V10.212L10.7,12.481a.325.325,0,0,1-.582,0L9.109,10.212v2.773a.326.326,0,0,1-.325.325H8.133a.326.326,0,0,1-.325-.325V8.756a.653.653,0,0,1,.651-.651h.651a.648.648,0,0,1,.582.358l.72,1.44.72-1.44a.652.652,0,0,1,.582-.358h.651a.653.653,0,0,1,.651.651Zm1.964.325h-.5a.326.326,0,0,1-.325-.325v-.651a.326.326,0,0,1,.325-.325h.5c.244,0,.423-.142.423-.268a.215.215,0,0,0-.085-.155l-.891-.764a1.5,1.5,0,0,1-.541-1.143,1.653,1.653,0,0,1,1.724-1.57h.5a.326.326,0,0,1,.325.325v.651a.326.326,0,0,1-.325.325h-.5c-.244,0-.423.142-.423.268a.215.215,0,0,0,.085.155l.891.764a1.5,1.5,0,0,1,.541,1.143A1.647,1.647,0,0,1,14.977,13.311Z" transform="translate(0 -2.25)" fill="#fff"/></svg>