<svg xmlns="http://www.w3.org/2000/svg" width="15.821" height="12.305" viewBox="0 0 15.821 12.305"><path d="M14.893,32c-1.505.085-4.5.4-6.344,1.527a.422.422,0,0,0-.2.362V43.88a.435.435,0,0,0,.639.371A16.753,16.753,0,0,1,15,42.962a.857.857,0,0,0,.825-.842V32.84A.861.861,0,0,0,14.893,32ZM7.271,33.524C5.425,32.394,2.433,32.083.928,32A.861.861,0,0,0,0,32.84v9.28a.856.856,0,0,0,.825.842,16.751,16.751,0,0,1,6.009,1.29.433.433,0,0,0,.638-.37v-10A.414.414,0,0,0,7.271,33.524Z" transform="translate(0 -31.996)" fill="#fff" opacity="0.7"/></svg>