<svg xmlns="http://www.w3.org/2000/svg" width="20.302" height="20.302" viewBox="0 0 20.302 20.302">
    <path data-name="Path 11697" d="M211.1 204.541a6.582 6.582 0 0 0-3.61-5.861 8.951 8.951 0 0 1-8.814 8.814 6.565 6.565 0 0 0 9.2 2.7l3.195.884-.884-3.195a6.539 6.539 0 0 0 .913-3.342zm0 0" transform="translate(-190.802 -190.802)" style="fill:#341671"/>
    <path data-name="Path 11698" d="M15.5 7.752a7.752 7.752 0 1 0-14.429 3.94L.028 15.475l3.783-1.046A7.753 7.753 0 0 0 15.5 7.752zm-8.941-1.8H5.373A2.379 2.379 0 1 1 9.357 7.7l-1.011.925v.928H7.157V8.1l1.4-1.279a1.177 1.177 0 0 0 .387-.878 1.19 1.19 0 0 0-2.379 0zm.595 4.8h1.19v1.19H7.157zm0 0" style="fill:#341671"/>
</svg>
