<svg xmlns="http://www.w3.org/2000/svg" width="24" height="24" viewBox="0 0 24 24"><path d="M14.254,19.027a.563.563,0,0,1,0,.8L12.16,21.916A7.125,7.125,0,0,1,2.083,11.84L4.178,9.746a.563.563,0,0,1,.8,0L6.829,11.6a.563.563,0,0,1,0,.8L4.735,14.492a3.375,3.375,0,0,0,4.773,4.773L11.6,17.171a.563.563,0,0,1,.8,0ZM11.6,6.829a.563.563,0,0,0,.8,0l2.094-2.094a3.375,3.375,0,0,1,4.773,4.773L17.171,11.6a.563.563,0,0,0,0,.8l1.856,1.856a.563.563,0,0,0,.8,0l2.094-2.094A7.125,7.125,0,1,0,11.84,2.083L9.746,4.178a.563.563,0,0,0,0,.8L11.6,6.829ZM22.61,23.67,23.67,22.61a1.125,1.125,0,0,0,0-1.591L2.981.329a1.125,1.125,0,0,0-1.591,0L.329,1.39a1.125,1.125,0,0,0,0,1.591L21.019,23.67a1.125,1.125,0,0,0,1.591,0Z" transform="translate(0 0)" fill="#fff"/></svg>