<svg xmlns="http://www.w3.org/2000/svg" width="25" height="17.5" viewBox="0 0 25 17.5">
  <path id="solid_users" data-name="solid users" d="M3.75,39.5A2.5,2.5,0,1,0,1.25,37,2.5,2.5,0,0,0,3.75,39.5Zm17.5,0a2.5,2.5,0,1,0-2.5-2.5A2.5,2.5,0,0,0,21.25,39.5Zm1.25,1.25H20a2.493,2.493,0,0,0-1.762.727,5.714,5.714,0,0,1,2.934,4.273H23.75A1.249,1.249,0,0,0,25,44.5V43.25A2.5,2.5,0,0,0,22.5,40.75Zm-10,0a4.375,4.375,0,1,0-4.375-4.375A4.373,4.373,0,0,0,12.5,40.75Zm3,1.25h-.324a6.04,6.04,0,0,1-5.352,0H9.5A4.5,4.5,0,0,0,5,46.5v1.125A1.876,1.876,0,0,0,6.875,49.5h11.25A1.876,1.876,0,0,0,20,47.625V46.5A4.5,4.5,0,0,0,15.5,42Zm-8.738-.523A2.493,2.493,0,0,0,5,40.75H2.5A2.5,2.5,0,0,0,0,43.25V44.5a1.249,1.249,0,0,0,1.25,1.25H3.824a5.728,5.728,0,0,1,2.938-4.273Z" transform="translate(0 -32)" fill="#fff"/>
</svg>
