<!DOCTYPE svg PUBLIC "-//W3C//DTD SVG 1.1//EN" "http://www.w3.org/Graphics/SVG/1.1/DTD/svg11.dtd">
<!-- Uploaded to: SVG Repo, www.svgrepo.com, Transformed by: SVG Repo Mixer Tools -->
<svg fill="#ffffff" width="800px" height="800px" viewBox="0 0 20 20" xmlns="http://www.w3.org/2000/svg">
<g id="SVGRepo_bgCarrier" stroke-width="0"/>
<g id="SVGRepo_tracerCarrier" stroke-linecap="round" stroke-linejoin="round"/>
<g id="SVGRepo_iconCarrier"> <g> <path class="secondary" d="M19.85,18.48,13.74,8.41a.84.84,0,0,0-1.45,0L6.14,18.54c-.33.55-.06,1.46.59,1.46H19.3C20,20,20.18,19,19.85,18.48Zm-6.11.32H12.25V17.34h1.49Zm0-3.06H12.27l-.13-5.17h1.71Z"/> <path d="M10,10l.16,0,1.27-2.09a1.85,1.85,0,0,1,2.87-.37A5,5,0,1,0,10,10ZM6.87,12A5.73,5.73,0,0,0,1,17.54,2.38,2.38,0,0,0,1,18H5.3l3.64-6Z"/> </g> </g>
</svg>