<svg id="warrior-helmet-2750" xmlns="http://www.w3.org/2000/svg" width="17.064" height="22.177" viewBox="0 0 17.064 22.177">
  <g id="Group_1746" data-name="Group 1746" transform="translate(0 0)">
    <path id="Path_11179" data-name="Path 11179" d="M39.168,1.351h0L39.341,0h-3.5l.173,1.351h0a8.535,8.535,0,0,0-6.954,8.386v8.392a7.172,7.172,0,0,1,4.9,4.048H35.7a21.583,21.583,0,0,0-.626-6.361,8.885,8.885,0,0,1-3.246-5.239,5.833,5.833,0,0,1,4.465.416l1.293,5.831,1.294-5.831a5.833,5.833,0,0,1,4.465-.416A8.887,8.887,0,0,1,40.1,15.816a21.578,21.578,0,0,0-.626,6.361H41.22a7.172,7.172,0,0,1,4.9-4.048V9.737A8.535,8.535,0,0,0,39.168,1.351Z" transform="translate(-29.058)" fill="#fff"/>
  </g>
</svg>
