<svg viewBox="0 0 24 24" fill="none" xmlns="http://www.w3.org/2000/svg">
  <path d="M21.5662 5.22601L21.2137 5.33776L19.3365 5.50501L18.8062 6.35176L18.4215 6.22951L16.9275 4.88251L16.7107 4.18201L16.4205 3.43501L15.4815 2.59276L14.3737 2.37601L14.3482 2.88301L15.4335 3.94201L15.9645 4.56751L15.3675 4.87951L14.8815 4.73626L14.1532 4.43251L14.178 3.84526L13.2225 3.45226L12.9052 4.83301L11.9422 5.05126L12.0375 5.82151L13.2922 6.06301L13.509 4.83226L14.5447 4.98526L15.0262 5.26726H15.7987L16.3275 6.32626L17.7292 7.74826L17.6265 8.30101L16.4962 8.15701L14.5432 9.14326L13.137 10.83L12.954 11.577H12.4492L11.5087 11.1435L10.5952 11.577L10.8225 12.5408L11.22 12.0825L11.919 12.0608L11.8702 12.9263L12.4492 13.0958L13.0275 13.7453L13.9717 13.4798L15.0502 13.65L16.3027 13.9868L16.9282 14.0603L17.9887 15.264L20.0355 16.4678L18.7117 18.9968L17.3145 19.6463L16.7842 21.0915L14.7622 22.4415L14.547 23.22C19.716 21.975 23.5612 17.3318 23.5612 11.7803C23.5597 9.35551 22.8247 7.09876 21.5662 5.22601Z" fill="white"/>
  <path d="M13.1362 17.9377L12.2782 16.347L13.0657 14.706L12.2782 14.4705L11.3939 13.5825L9.43493 13.143L8.78468 11.7825V12.5902H8.49818L6.80993 10.3012V8.42099L5.57243 6.40874L3.60743 6.75899H2.28368L1.61768 6.32249L2.46743 5.64899L1.61993 5.84474C0.59843 7.58924 0.00292969 9.61349 0.00292969 11.7817C0.00292969 18.2865 5.27618 23.562 11.7817 23.562C12.2827 23.562 12.7739 23.5177 13.2599 23.4592L13.1369 22.032C13.1369 22.032 13.6777 19.9125 13.6777 19.8405C13.6769 19.7677 13.1362 17.9377 13.1362 17.9377Z" fill="white"/>
  <path fill-rule="evenodd" clip-rule="evenodd" d="M4.38002 3.79875L6.47252 3.507L7.43702 2.97825L8.52227 3.291L10.2563 3.195L10.8503 2.26125L11.7165 2.40375L13.8203 2.2065L14.4 1.5675L15.2175 1.0215L16.374 1.1955L16.7955 1.13175C15.2723 0.41475 13.5773 0 11.781 0C8.12477 0 4.85552 1.6665 2.69702 4.28325H2.70302L4.38002 3.79875ZM12.279 1.1715L13.482 0.50925L14.2545 0.9555L13.1363 1.80675L12.0683 1.914L11.5875 1.602L12.279 1.1715ZM9.24677 1.4895L8.71577 1.26825C8.69952 1.40035 8.02853 1.8392 7.95125 1.88974C7.94649 1.89286 7.94398 1.8945 7.94402 1.8945L8.71577 2.346L10.3208 1.9245L9.94202 1.26825L9.24677 1.4895Z" fill="white"/>
</svg>
