<svg xmlns="http://www.w3.org/2000/svg" width="58" height="58.001" viewBox="0 0 58 58.001"><g transform="translate(-3 -2.999)"><path d="M55.32,26.32c0,2.983-3.133,5.322-4.209,7.916-1.115,2.689-.6,6.548-2.622,8.574s-5.885,1.506-8.574,2.621C37.321,46.507,34.982,49.64,32,49.64s-5.322-3.133-7.916-4.209c-2.689-1.115-6.548-.6-8.574-2.622S14,36.924,12.888,34.235c-1.076-2.594-4.209-4.933-4.209-7.916S11.812,21,12.888,18.4c1.115-2.689.6-6.548,2.622-8.574s5.885-1.506,8.574-2.621C26.678,6.132,29.017,3,32,3s5.322,3.133,7.916,4.209c2.689,1.115,6.548.6,8.574,2.622S50,15.715,51.111,18.4C52.187,21,55.32,23.337,55.32,26.32Z" fill="#ffcb29"/><circle cx="15" cy="15" r="15" transform="translate(17 11.32)" fill="#faa629"/><path d="M24.084,45.431c-2.689-1.115-6.548-.6-8.574-2.622-1.312-1.312-1.557-3.392-1.869-5.425L3,50.066l10.372.871L16.03,61l11.3-13.472a16.486,16.486,0,0,0-3.25-2.1Z" fill="#3d82c4"/><path d="M50.359,37.385c-.312,2.033-.557,4.113-1.869,5.425-2.026,2.026-5.885,1.506-8.574,2.621a16.457,16.457,0,0,0-3.25,2.1L47.97,61l2.658-10.063L61,50.066,50.359,37.384Z" fill="#3d82c4"/><path d="M32,17.76,34.781,23.4,41,24.3l-4.5,4.387,1.062,6.194L32,31.955,26.438,34.88,27.5,28.686,23,24.3l6.219-.9Z" fill="#ffcb29"/></g></svg>