<svg xmlns="http://www.w3.org/2000/svg" width="50.834" height="50.837" viewBox="0 0 50.834 50.837"><g transform="translate(-122.517 -124.991)"><path d="M124.414,160.084a24.551,24.551,0,0,1-.865-2.441c-.178-.579-.323-1.168-.454-1.759-.1-.438-.177-.881-.248-1.325-.048-.3-.081-.6-.14-.9-.011-.054-.008-.11-.014-.165-.01-.091-.023-.182-.033-.273-.008-.073-.016-.146-.021-.219a1.661,1.661,0,0,0-.039-.356.216.216,0,0,1-.007-.055c0-.294-.047-.586-.056-.88-.027-.855-.023-1.711,0-2.566a.985.985,0,0,1,.007-.165,4.127,4.127,0,0,0,.046-.6c0-.073.015-.146.024-.219a.575.575,0,0,0,.014-.081c0-.249.053-.493.071-.74.013-.183.04-.365.066-.547s.069-.361.089-.543c.028-.247.083-.489.131-.732.078-.405.169-.808.266-1.21s.2-.782.319-1.169c.1-.343.211-.684.328-1.023.2-.591.431-1.173.678-1.747.239-.558.494-1.109.776-1.645.347-.659.717-1.3,1.116-1.934s.837-1.253,1.3-1.851c.2-.262.412-.518.621-.774.151-.185.307-.366.461-.549.018-.021.035-.042.054-.063.5-.55,1.006-1.1,1.555-1.6.25-.229.5-.461.756-.684.291-.254.59-.5.887-.744.233-.193.478-.373.722-.553.436-.322.88-.633,1.338-.925s.92-.574,1.394-.838c.514-.287,1.039-.553,1.571-.8.548-.26,1.1-.5,1.672-.716.43-.161.86-.322,1.3-.463.743-.24,1.5-.443,2.257-.618.366-.085.736-.16,1.106-.22.29-.047.577-.105.87-.134.21-.02.417-.061.626-.09.064-.009.128-.008.192-.014.082-.008.164-.019.246-.029a1.075,1.075,0,0,1,.109-.016c.4-.011.786-.08,1.183-.072.11,0,.219-.017.329-.025.083-.006.165-.012.248-.013q.621,0,1.242,0a2.222,2.222,0,0,1,.412.028,1.774,1.774,0,0,0,.248.013,5,5,0,0,1,.8.05,1.089,1.089,0,0,0,.165.009,1.606,1.606,0,0,1,.383.039.272.272,0,0,0,.082.009,5.793,5.793,0,0,1,.685.071c.191.019.38.066.571.088.238.027.47.08.706.118.4.064.793.153,1.186.244a24.989,24.989,0,0,1,2.9.865c.242.087.479.187.718.281.159.133,0,.208-.062.287-.4.47-.839.9-1.271,1.332-.813.82-1.646,1.621-2.441,2.459a.162.162,0,0,1-.071.04c-.518-.083-1.018-.24-1.53-.348a20.24,20.24,0,0,0-12.919,1.645,20.422,20.422,0,0,0-4.423,2.934,20.243,20.243,0,0,0-6.775,12.591c-.07.519-.112,1.04-.155,1.562a13.38,13.38,0,0,0-.007,1.924,22.448,22.448,0,0,0,.319,2.841c.1.569.254,1.127.375,1.692-.007.132.092.246.069.382q-1.871,1.952-3.8,3.851C124.6,160.061,124.536,160.168,124.414,160.084Z" transform="translate(0 0)" fill="#fdd462"/><path d="M843.854,809.468c.073.247.11.5.165.753.06.278.108.558.156.838.031.181.049.364.075.546.03.209.062.417.091.626.008.055.008.11.014.165.011.1.023.2.034.3.007.064.015.128.018.192.01.174.016.348.042.522a4.051,4.051,0,0,1,.02.44,3.694,3.694,0,0,0,.036.6.825.825,0,0,1,.007.165c0,.386,0,.772,0,1.159,0,.091-.014.183-.02.274-.006.073-.013.146-.015.219-.005.184-.007.368-.015.552,0,.092-.016.182-.026.274,0,.028-.011.054-.012.082-.014.247-.027.494-.059.741-.035.273-.065.546-.1.819-.021.145-.04.291-.062.436-.057.381-.131.759-.207,1.137-.087.432-.183.862-.3,1.287q-.125.465-.263.927c-.092.308-.185.616-.291.919-.249.711-.522,1.413-.829,2.1q-.394.882-.852,1.731-.379.7-.805,1.381-.447.713-.938,1.4c-.274.38-.556.754-.856,1.115l-.742.888-.018.021c-.474.513-.943,1.032-1.455,1.508-.357.331-.717.659-1.087.976-.307.263-.625.513-.944.761-.66.516-1.352.984-2.057,1.434q-.639.408-1.309.764c-.251.134-.5.27-.756.4a24.135,24.135,0,0,1-2.4,1.054c-.764.29-1.543.537-2.332.752-.638.174-1.282.317-1.931.442-.316.06-.631.121-.949.16-.182.022-.362.058-.544.085-.063.01-.128.011-.192.018-.091.01-.182.022-.273.033-.073.008-.146.016-.219.021a1.652,1.652,0,0,0-.356.038.206.206,0,0,1-.055.007c-.313,0-.623.052-.934.059-.809.019-1.618.018-2.427,0a2.37,2.37,0,0,1-.329-.027,2.989,2.989,0,0,0-.33-.021,2.394,2.394,0,0,1-.466-.041.913.913,0,0,0-.165-.014,1.643,1.643,0,0,1-.383-.042.424.424,0,0,0-.082-.01c-.384-.035-.764-.095-1.145-.156-.344-.056-.687-.116-1.029-.186a1.593,1.593,0,0,1-.4-.1c-.034-.137.081-.194.152-.27,1.262-1.338,2.572-2.629,3.873-3.928a2.194,2.194,0,0,1,.371-.365c.154-.011.307.027.461.015a20.863,20.863,0,0,0,7.321-1.124,20.4,20.4,0,0,0,11.1-9.388,19.4,19.4,0,0,0,1.954-5.084,18.377,18.377,0,0,0,.523-4.231c0-.14,0-.28,0-.42,0-.161,0-.323,0-.483a4.682,4.682,0,0,0-.028-.809.71.71,0,0,1,0-.356c.181-.141.121.084.193.122q2.007-2.007,4.024-4.019C843.595,809.559,843.665,809.391,843.854,809.468Z" transform="translate(-671.16 -664.777)" fill="#fdd462"/><path d="M217.034,1271.17c-.076-.08-.152-.16-.228-.239-.287-.3-.557-.609-.826-.922-.2-.229-.389-.463-.578-.7-.287-.357-.559-.726-.828-1.1-.393-.542-.755-1.106-1.1-1.68a20.2,20.2,0,0,1-.978-1.815c-.066-.187.092-.263.188-.359q1.624-1.634,3.256-3.258a5.161,5.161,0,0,1,.369-.371c.066,0,.092.047.118.1a20.2,20.2,0,0,0,3.246,5.536c.3.361.613.708.926,1.055.051.073.147.12.141.228a.467.467,0,0,1-.131.174q-1.613,1.615-3.229,3.227C217.288,1271.138,217.2,1271.271,217.034,1271.17Z" transform="translate(-87.377 -1103.082)" fill="#fdd462"/><path d="M1264.52,216.487a3.136,3.136,0,0,1,.5.237c.276.146.549.3.82.453.255.146.509.293.76.447.643.394,1.263.821,1.869,1.27.31.23.607.476.908.717s.6.51.9.773c.192.172.381.345.566.525.032.032.061.069.09.1.024.158-.109.224-.195.31q-1.508,1.516-3.024,3.025a3.2,3.2,0,0,1-.33.332c-.138,0-.2-.112-.291-.191a20.768,20.768,0,0,0-4.145-3c-.695-.38-1.414-.7-2.141-1.014-.082-.035-.18-.052-.22-.15.016-.121.114-.185.19-.261.766-.769,1.521-1.548,2.306-2.3.406-.387.811-.773,1.212-1.165C1264.351,216.541,1264.41,216.458,1264.52,216.487Z" transform="translate(-1105.34 -88.86)" fill="#fdd462"/><path d="M601.665,1657.183a.176.176,0,0,1-.046.125l-.154.158-2.745,2.748a1.665,1.665,0,0,0-.289.33.757.757,0,0,1-.131.141q-.419.419-.837.839a.638.638,0,0,0-.159.188,1.647,1.647,0,0,1-.191-.024c-.5-.126-.995-.254-1.488-.4s-.964-.3-1.44-.471c-.389-.137-.771-.3-1.155-.45-.692-.278-1.355-.615-2.018-.954a.218.218,0,0,1-.108-.081c-.037-.1.039-.155.094-.21q1.781-1.786,3.568-3.566a.293.293,0,0,1,.092-.061c.173-.031.295.094.442.145a1.071,1.071,0,0,0,.153.052.576.576,0,0,1,.083.026,20.4,20.4,0,0,0,5.252,1.31c.264.029.529.062.795.075C601.482,1657.11,601.587,1657.1,601.665,1657.183Z" transform="translate(-454.91 -1486.495)" fill="#fee191"/><path d="M1660.6,601.3a.282.282,0,0,0-.1.031c-.07.059-.134.125-.2.19l-3.9,3.9q-.1.1-.2.188c-.01.009-.034.005-.05,0s-.011-.015-.012-.023c-.006-.064-.006-.129-.015-.192a.251.251,0,0,0-.041-.07.608.608,0,0,1-.122-.412,20.2,20.2,0,0,0-1.423-5.632.91.91,0,0,1-.06-.182.4.4,0,0,1,.133-.372q1.751-1.759,3.51-3.511a.281.281,0,0,1,.162-.1.811.811,0,0,1,.078.111c.156.312.327.616.456.941.017.042.039.082.061.124.194.4.361.8.527,1.21.243.6.459,1.2.655,1.81.162.506.3,1.018.433,1.533C1660.529,601,1660.562,601.152,1660.6,601.3Z" transform="translate(-1487.904 -456.611)" fill="#fee191"/><path d="M1544.034,424.289a.926.926,0,0,1-.2.226q-1.628,1.63-3.258,3.258c-.072.072-.14.147-.214.214a.279.279,0,0,0-.085.225c-.217-.126-.249-.37-.341-.569a20.092,20.092,0,0,0-2.767-4.361,1.423,1.423,0,0,1-.329-.468.36.36,0,0,1,.119-.179q1.63-1.632,3.263-3.261c.086-.086.175-.2.325-.1.5.551.964,1.128,1.407,1.723.334.448.659.9.961,1.373.269.416.528.836.77,1.268A6.8,6.8,0,0,1,1544.034,424.289Z" transform="translate(-1373.655 -285.781)" fill="#fdd462"/><path d="M428.516,1545.94a1.017,1.017,0,0,1-.2.224l-3.354,3.356a.822.822,0,0,0-.2.226.4.4,0,0,1-.178-.066c-.153-.083-.305-.167-.455-.256q-.473-.279-.942-.564c-.391-.24-.77-.5-1.143-.761-.395-.282-.786-.569-1.162-.875-.276-.227-.553-.451-.827-.68-.077-.064-.143-.14-.215-.21-.028-.111.053-.17.116-.233,1.1-1.079,2.129-2.228,3.24-3.3a.453.453,0,0,1,.2-.143c.131.01.209.111.3.186a21.133,21.133,0,0,0,4.575,2.9C428.363,1545.786,428.478,1545.818,428.516,1545.94Z" transform="translate(-288.768 -1376.906)" fill="#fdd462"/><path d="M1207.353,188.961a.684.684,0,0,0-.188.16c-.248.246-.494.494-.742.741a1.5,1.5,0,0,1-.269.234,1.036,1.036,0,0,0-.182.167q-1.161,1.16-2.323,2.32a.878.878,0,0,1-.227.2.213.213,0,0,1-.209,0c-.44-.149-.877-.311-1.324-.443a.244.244,0,0,1-.169-.128.329.329,0,0,1,.033-.1c.052-.064.113-.121.171-.179l2.979-2.981a1.455,1.455,0,0,0,.269-.311.648.648,0,0,1,.112-.121c.077-.078.154-.158.234-.234.053-.05.032-.1.008-.148a.367.367,0,0,1,.08.014c.143.061.287.123.429.187l.727.33c.167.076.334.152.5.23A.724.724,0,0,1,1207.353,188.961Z" transform="translate(-1048.172 -61.334)" fill="#fee191"/><path d="M375.77,1502.1a.754.754,0,0,1-.179.207q-.768.771-1.538,1.541a1.88,1.88,0,0,0-.309.349.9.9,0,0,1-.15.16l-1.188,1.19a.829.829,0,0,0-.18.207,3.385,3.385,0,0,1-.5-.432c-.17-.167-.339-.336-.509-.5-.072-.071-.147-.139-.213-.215s-.151-.1-.2-.189a.2.2,0,0,0,.178-.048c.058-.058.118-.115.176-.174q1.554-1.554,3.108-3.107a.859.859,0,0,1,.225-.2c.136-.032.193.083.268.153.313.294.6.62.923.9C375.737,1501.983,375.8,1502.022,375.77,1502.1Z" transform="translate(-241.154 -1336.329)" fill="#fee191"/><path d="M1501.694,375.348a.2.2,0,0,0-.178.048c-.058.058-.118.116-.176.174q-1.554,1.555-3.108,3.108a.832.832,0,0,1-.226.2c-.018.008-.041.016-.052,0-.373-.365-.751-.725-1.1-1.117a.094.094,0,0,1-.011-.1.2.2,0,0,1,.049-.126c.058-.059.115-.119.174-.177q1.56-1.561,3.119-3.122a.911.911,0,0,0,.2-.227c.042.036.085.07.123.109q.409.41.815.822a1.491,1.491,0,0,1,.236.269C1501.6,375.266,1501.674,375.281,1501.694,375.348Z" transform="translate(-1334.803 -241.859)" fill="#fee191"/><path d="M193,1210.8a.2.2,0,0,1-.049.126c-.057.059-.115.119-.173.177l-3.369,3.369c-.058.058-.116.118-.173.177a.211.211,0,0,0-.047.126c-.007-.006-.016-.01-.02-.018-.182-.394-.366-.787-.546-1.182-.052-.115-.094-.234-.141-.352a.314.314,0,0,0,.1-.032,1.415,1.415,0,0,0,.14-.133l2.549-2.551a.984.984,0,0,0,.2-.229.47.47,0,0,1,.089-.1l.778-.779a.23.23,0,0,1,.166-.086.4.4,0,0,1,.15.252c.114.336.221.675.342,1.009C193.018,1210.646,193.06,1210.724,193,1210.8Z" transform="translate(-64.066 -1053.142)" fill="#fee191"/><path d="M300.219,388.808c.008-.113-.061-.211-.065-.322-.106-.341-.157-.7-.253-1.04,0-.148-.062-.286-.075-.433s-.05-.306-.076-.459c-.011-.063-.024-.126-.029-.189a.721.721,0,0,0-.033-.217.077.077,0,0,1-.008-.026c0-.23-.07-.452-.071-.682a1.02,1.02,0,0,0-.033-.3.736.736,0,0,1-.019-.191c0-.11,0-.221-.005-.331a.571.571,0,0,0-.011-.164,1.378,1.378,0,0,1-.04-.437q0-.8,0-1.6a.241.241,0,0,1,.047-.181c.142.193.048.409.047.612,0,.131,0,.263-.012.333a11.018,11.018,0,0,1,.326-2.328,20.435,20.435,0,0,1,16.828-15.76c.763-.116,1.532-.168,2.3-.217.655-.041,1.3,0,1.953.021a19.9,19.9,0,0,1,2.789.338.179.179,0,0,1,.117.066c.022.068-.032.1-.069.135-1.416,1.39-2.807,2.8-4.213,4.2a2.138,2.138,0,0,0-.348.389.289.289,0,0,1-.225.142,4.271,4.271,0,0,1-.5.013h-9.625a2.466,2.466,0,0,0-.683.07,1.512,1.512,0,0,0-1.146,1.5q0,4.909,0,9.819a3.6,3.6,0,0,1-.014.5.575.575,0,0,1-.205.316q-3.154,3.154-6.311,6.3C300.48,388.769,300.407,388.988,300.219,388.808Z" transform="translate(-171.895 -232.971)" fill="#f7a219"/><path d="M325.586,305.59a.151.151,0,0,0-.1-.047,1.041,1.041,0,0,1-.326-.04c-.1-.041-.218-.008-.325-.052a.676.676,0,0,0-.19-.023,1.516,1.516,0,0,0-.3-.053.8.8,0,0,1-.27-.045.771.771,0,0,0-.165-.01,1,1,0,0,1-.3-.036.8.8,0,0,0-.218-.019,1.282,1.282,0,0,1-.408-.042.575.575,0,0,0-.191-.012c-.221,0-.441,0-.662,0a.76.76,0,0,1-.272-.031.406.406,0,0,0-.135-.02c-.156,0-.312,0-.469,0a.288.288,0,0,0-.109.014.823.823,0,0,1-.326.038c-.211,0-.423,0-.634,0a.616.616,0,0,0-.191.014.99.99,0,0,1-.326.04.965.965,0,0,0-.381.043.306.306,0,0,1-.109.011.787.787,0,0,0-.325.043.109.109,0,0,1-.054.009,5.309,5.309,0,0,0-.572.062c-.239.063-.485.088-.727.137-.224.045-.442.115-.67.143a1.517,1.517,0,0,0-.292.073c-.183.06-.371.1-.556.151-.239.063-.475.139-.71.215-.471.153-.933.33-1.393.515-.29.116-.574.243-.858.372-.2.091-.4.178-.6.279a2.742,2.742,0,0,0-.457.253.372.372,0,0,1-.073.038,9.33,9.33,0,0,0-.814.46c-.352.216-.706.427-1.043.664-.255.179-.512.354-.755.548-.1.08-.2.157-.3.238s-.191.142-.276.227c-.182.094-.3.273-.473.376a1.072,1.072,0,0,0-.179.171,1.1,1.1,0,0,1-.21.177.732.732,0,0,0-.145.126l-1.132,1.131a.542.542,0,0,0-.094.1,1.967,1.967,0,0,1-.3.354c-.044.047-.083.1-.123.148a.513.513,0,0,1-.046.068,4.146,4.146,0,0,0-.355.419c-.084.1-.163.2-.238.3-.155.216-.316.426-.476.638-.127.168-.241.346-.354.524-.227.355-.45.713-.675,1.069-.107.245-.262.463-.38.7-.1.206-.2.412-.308.617s-.193.416-.288.625-.174.424-.265.634c-.266.616-.45,1.261-.665,1.894-.026.078-.043.159-.064.238-.055.2-.122.4-.163.61-.044.224-.109.443-.146.669s-.092.447-.139.671a.873.873,0,0,0-.021.135.635.635,0,0,1-.042.27c0,.193-.084.376-.07.571a.323.323,0,0,1,0,.055,1.719,1.719,0,0,0-.053.3c.006.091,0,.184,0,.275,0,.008-.009.016-.016.022s-.028,0-.03-.022a1.183,1.183,0,0,1,0-.138c0-.239,0-.478,0-.717,0-.092,0-.184-.006-.275s.008-.184,0-.276a3.176,3.176,0,0,1,.048-.465,2.1,2.1,0,0,1,.047-.465.16.16,0,0,0,.007-.054c-.007-.2.058-.4.07-.6.007-.127.042-.253.06-.38.03-.218.076-.433.119-.649.092-.459.2-.914.328-1.364q.243-.875.566-1.727c.163-.43.342-.852.527-1.272q.229-.517.494-1.016c.237-.446.484-.887.758-1.312.149-.231.291-.468.448-.694.267-.384.536-.768.834-1.13.175-.213.348-.427.526-.637a19.525,19.525,0,0,1,1.376-1.467c.139-.134.287-.258.429-.388s.285-.26.431-.386c.25-.217.508-.424.768-.627.391-.3.792-.6,1.208-.868s.837-.532,1.269-.777c.528-.3,1.07-.572,1.621-.825a18.911,18.911,0,0,1,2.422-.91c.4-.122.808-.244,1.221-.332.332-.071.661-.15,1-.205.271-.045.545-.076.812-.142.212,0,.416-.073.629-.07a.4.4,0,0,0,.11-.007,2.35,2.35,0,0,1,.547-.05.615.615,0,0,0,.137-.009,1.849,1.849,0,0,1,.493-.039q1.02,0,2.042,0a1.3,1.3,0,0,1,.329.03.92.92,0,0,0,.192.017,2.341,2.341,0,0,1,.52.048.761.761,0,0,0,.165.011.962.962,0,0,1,.273.035.322.322,0,0,0,.081.014c.3.02.6.084.9.126.217.03.431.085.647.128.351.07.7.164,1.044.247a2.541,2.541,0,0,0,.4.106c.2.061.4.119.6.185.284.1.565.2.847.3.085.03.172.056.258.084a.276.276,0,0,0,.121.06c.611.252,1.221.509,1.806.817.455.24.907.485,1.342.759.319.2.636.4.946.616.28.192.553.394.822.6.29.224.579.452.856.692s.533.451.774.7a1.348,1.348,0,0,0,.126.1c.049.054.1.11.147.163.218.224.438.446.655.671.1.1.183.206.275.308a1.067,1.067,0,0,0,.082.073c.1.121.189.247.292.363.334.378.63.785.929,1.191a18.171,18.171,0,0,1,1.1,1.707c.239.413.47.829.676,1.26.134.281.255.568.382.852a.2.2,0,0,0,.035.041c.086.221.174.443.259.664q.33.859.584,1.743.16.554.286,1.116c.078.348.152.7.2,1.049.047.316.1.632.146.948,0,.018,0,.036.006.055q.035.355.07.71,0,.191,0,.381c.069.275-.024.559.05.834q0,.249,0,.5a.052.052,0,0,1-.075,0,.258.258,0,0,1-.044-.118,1.128,1.128,0,0,0-.044-.287,3.15,3.15,0,0,0-.056-.421c-.159-.9-.321-1.8-.562-2.692a23.3,23.3,0,0,0-1.252-3.376,20.845,20.845,0,0,0-2.374-3.789,21.791,21.791,0,0,0-1.653-1.837c-.4-.385-.794-.774-1.22-1.131a21.3,21.3,0,0,0-4.375-2.8,21.976,21.976,0,0,0-2.8-1.083c-.512-.133-1.019-.282-1.536-.389A.333.333,0,0,1,325.586,305.59Z" transform="translate(-173.584 -173.215)" fill="#f37e00"/><path d="M324.473,974.18c.05.027.1.049.147-.005s.117-.117.175-.176l6.24-6.239a.85.85,0,0,1,.226-.2c.106.114.081.257.083.392.01.66-.015,1.321.017,1.98a.256.256,0,0,1-.1.187c-1.966,1.931-3.9,3.895-5.855,5.837-.075.074-.137.181-.27.161a.131.131,0,0,0-.056-.114.431.431,0,0,0-.018-.079c-.192-.46-.333-.938-.482-1.413a.409.409,0,0,0-.061-.178A.321.321,0,0,1,324.473,974.18Z" transform="translate(-196.149 -818.342)" fill="#f9be5e"/><path d="M1002.727,981.58c0,.036,0,.073,0,.109.073.14-.022.3.055.442,0,.257,0,.515,0,.772a.35.35,0,0,1-.009.11,1.279,1.279,0,0,0-.042.409.978.978,0,0,1-.042.354.141.141,0,0,0-.008.054,4.175,4.175,0,0,1-.056.546c-.023.2-.059.4-.1.6a1.7,1.7,0,0,1-.066.378,8.9,8.9,0,0,1-.2.995,17.986,17.986,0,0,1-.6,2.059c-.11.321-.237.635-.363.951a22.231,22.231,0,0,1-.968,2.041c-.136.26-.289.512-.439.764-.2.331-.41.653-.63.97s-.46.664-.712.978a8.056,8.056,0,0,1-.652.782c-.123.185-.3.324-.436.5-.258.326-.569.6-.856.9a2.439,2.439,0,0,1-.328.293,3.057,3.057,0,0,0-.281.264,1.23,1.23,0,0,1-.251.214.243.243,0,0,0-.064.052,6.269,6.269,0,0,1-.479.413c-.053.05-.119.085-.177.131-.316.252-.64.491-.973.719-.136.094-.266.2-.406.284-.311.2-.62.393-.936.579-.444.26-.9.506-1.359.73-.3.144-.6.268-.9.406-.318.146-.646.264-.971.389-.291.111-.59.2-.886.3-.471.155-.951.271-1.431.395-.311.08-.627.133-.939.2-.16.037-.329.035-.488.075-.188.047-.383.033-.568.093a.416.416,0,0,1-.11.009,1.046,1.046,0,0,0-.3.038.569.569,0,0,1-.164.017,1.42,1.42,0,0,0-.409.043.571.571,0,0,1-.164.011l-.386.005a.593.593,0,0,0-.164.012,1.275,1.275,0,0,1-.41.037h-1.241c-.072-.076-.015-.135.027-.193a1.8,1.8,0,0,1,.19-.2q4.281-4.281,8.562-8.561a.784.784,0,0,1,.274-.226,9.993,9.993,0,0,1,.952.482c.066.027.12.086.2.08a3.924,3.924,0,0,0-.026-1.393,1.579,1.579,0,0,1,.037-.33,14.3,14.3,0,0,1,1.094-1.143c.056-.061.155-.1.107-.213.125-.115.254-.213.428-.087.1.311,0,.639.082.951a2.131,2.131,0,0,1,.016.29c0,.112,0,.224,0,.336s0,.254,0,.38c.007.107-.005.215.006.322a.176.176,0,0,0,.2.151,7.746,7.746,0,0,0,1.058-.02c.145-.1.05-.249.076-.374,0-.218,0-.435,0-.653a1.938,1.938,0,0,0-.017-.423.412.412,0,0,1,0-.1c.037-.7.005-1.39.016-2.084a3.414,3.414,0,0,1,.009-.356c.03-.167.162-.261.271-.37q3.389-3.392,6.781-6.78a1.826,1.826,0,0,0,.471-.626.162.162,0,0,1,.05.12c0,.108,0,.216,0,.323C1002.736,981.387,1002.66,981.5,1002.727,981.58Z" transform="translate(-834.555 -831.26)" fill="#f7a219"/><path d="M758.732,1165.26a.652.652,0,0,1-.061.09c-.056.061-.116.118-.175.177l-8.584,8.585c-.065.065-.131.129-.19.2-.021.025-.021.068-.03.1h-.027a1.271,1.271,0,0,1-.476-.051l-.385,0a.5.5,0,0,1-.164-.012,1.12,1.12,0,0,0-.38-.042.735.735,0,0,1-.244-.031.453.453,0,0,0-.135-.022,1.021,1.021,0,0,1-.353-.046.445.445,0,0,0-.136-.011.4.4,0,0,1-.136-.014,2.508,2.508,0,0,0-.378-.066,1.424,1.424,0,0,0-.347-.074,6.267,6.267,0,0,1-.7-.136,6.46,6.46,0,0,1-.666-.162c-.132-.036-.263-.077-.4-.114-.405-.113-.807-.241-1.2-.381-.242-.085-.479-.182-.718-.276-.023-.01-.04-.035-.059-.054-.023-.134.086-.2.159-.27q3.683-3.688,7.37-7.372a.577.577,0,0,1,.292-.2c.493-.039.985-.009,1.478-.018a1.289,1.289,0,0,0,.3-.02c.183-.118.062-.3.1-.451a5.484,5.484,0,0,0-.061-1.281.212.212,0,0,1,.064-.2c.212-.24.446-.459.673-.685.046-.045.105-.083.157,0a2.634,2.634,0,0,1,.041.766c0,.183.072.271.261.268s.4-.006.606,0,.292-.091.292-.3c0-.625,0-1.249,0-1.875a.863.863,0,0,1,.028-.3c.03-.081.072-.16.177-.074.042.26,0,.522.012.782a4.393,4.393,0,0,0,.019.71,4.2,4.2,0,0,0,.712.638c.271.232.554.448.823.684a.517.517,0,0,1,.057.061l.025.034a.5.5,0,0,1,.069.251c.006.12,0,.239,0,.359s0,.267,0,.4a.27.27,0,0,0,.053.191,4.2,4.2,0,0,0,1.034.037c.1,0,.136-.077.138-.17,0-.11-.009-.219,0-.33.015-.327-.018-.653,0-.978,0-1.567,0-3.135,0-4.7,0-.153-.03-.317.109-.437a.938.938,0,0,1,.694,0,.665.665,0,0,1,.077.423c.015.63-.029,1.26.026,1.889a1,1,0,0,1,.008.315,18.025,18.025,0,0,0,0,2.5,2.9,2.9,0,0,1,.013.451c0,.144,0,.289,0,.433,0,.119,0,.239,0,.358A.574.574,0,0,0,758.732,1165.26Z" transform="translate(-602.433 -1003.675)" fill="#f9be5e"/><path d="M1710.393,964.234a.149.149,0,0,1-.052-.121c0-.238,0-.475,0-.713a.18.18,0,0,1,.047.124C1710.391,963.761,1710.392,964,1710.393,964.234Z" transform="translate(-1542.167 -814.302)" fill="#f48506"/><path d="M1710.375,1010.132a.139.139,0,0,1-.054-.118c0-.108,0-.216,0-.324h.055Q1710.374,1009.912,1710.375,1010.132Z" transform="translate(-1542.147 -859.261)" fill="#f48506"/><path d="M347.58,1059.975c.081-.075.164-.147.242-.224l5.613-5.612.2-.193a.169.169,0,0,1,.126-.046.289.289,0,0,1,.053.279,5.657,5.657,0,0,0-.006,1.224c.086.283.051.615.332.819a3.678,3.678,0,0,0,.794.022c.917,0,1.833,0,2.75,0a.844.844,0,0,1,.4.071.446.446,0,0,1,.08.051.64.64,0,0,1,.069.062l.031.034a.514.514,0,0,1,.078.113c.023.093.11.2-.048.259a1.287,1.287,0,0,0-1.011-.321c-1,.017-2,.005-3,.006-.367,0-.384.018-.384.393,0,.661,0,1.323,0,1.984,0,.275.032.288.286.17.349-.163.678-.367,1.039-.5a.416.416,0,0,0,.336-.057c.336-.18.666-.372,1.007-.542.117-.082.151-.164-.031-.175-.311-.018-.623-.011-.934,0a.148.148,0,0,0-.161.177.727.727,0,0,1-.06.4.068.068,0,0,1-.087.005.952.952,0,0,1-.047-.591c.017-.165.149-.194.284-.2.358-.01.716-.008,1.073,0,.13,0,.266.013.3.176a.351.351,0,0,1-.176.423c-.331.178-.66.361-.994.533-.53.274-1.068.529-1.589.822a.39.39,0,0,0-.252.357c0,.661,0,1.321,0,1.982,0,.1.045.2.051.3a2.233,2.233,0,0,0-.054.723,3.173,3.173,0,0,0,.025.7c.089.144.254.173.384.255.09.056.214.073.244.2-.811.831-1.64,1.645-2.46,2.466-.087.087-.18.161-.313.086a1.345,1.345,0,0,0-.218-.246,1.676,1.676,0,0,1-.251-.291.425.425,0,0,0-.072-.083c-.2-.2-.368-.431-.549-.649-.281-.338-.536-.7-.8-1.048-.191-.256-.355-.533-.528-.8q-.17-.266-.332-.538c-.121-.2-.244-.409-.353-.621q-.334-.647-.653-1.3C347.853,1060.675,347.714,1060.326,347.58,1059.975Z" transform="translate(-218.592 -902.2)" fill="#f7a219"/><path d="M493.35,1328.872a.226.226,0,0,0,.2-.068c.05-.052.1-.1.156-.155l2.1-2.1c.058-.059.117-.116.177-.173a.212.212,0,0,1,.125-.049c.187-.027.319.1.468.174.229.114.226.119.232-.157,0-.114,0-.228,0-.343,0-.134,0-.267,0-.4a.456.456,0,0,1,.027-.127c.438-.526.949-.981,1.433-1.462.053-.053.133-.117.2,0a1.035,1.035,0,0,1,.032.357c0,.426,0,.852,0,1.278a.308.308,0,0,0,.181.33c.118.153-.018.237-.1.322-.411.421-.829.834-1.245,1.25q-1.188,1.189-2.377,2.377a.689.689,0,0,1-.28.217.347.347,0,0,1-.15-.113c-.271-.268-.541-.538-.812-.806a.909.909,0,0,0-.2-.18.221.221,0,0,0-.086-.1C493.4,1328.919,493.376,1328.894,493.35,1328.872Z" transform="translate(-360.17 -1164.477)" fill="#f9be5e"/><path d="M539.63,1170.179a.614.614,0,0,1,.16-.187q.525-.528,1.052-1.053,1.306-1.306,2.611-2.612a.984.984,0,0,0,.2-.225.236.236,0,0,1,.155-.165c.314-.06.633,0,.947-.038.1-.025.091-.107.091-.183,0-.191,0-.382,0-.573a.763.763,0,0,0-.03-.261.952.952,0,0,1-.022-.222.331.331,0,0,1,.055-.212c.14.083.14.083.075.289.158-.127.27-.275.411-.387.165-.132.234-.1.261.109a2.352,2.352,0,0,0,.051.675.234.234,0,0,1,.063.108,1.567,1.567,0,0,0-.049.548c0,.134,0,.268,0,.4,0,.1,0,.2,0,.3-.006.129,0,.231.171.121.316-.2.629-.4.954-.586a.271.271,0,0,0,.163-.261c0-.131-.006-.261,0-.392s0-.272,0-.408a1.315,1.315,0,0,0-.049-.506.894.894,0,0,1,.109-.352.15.15,0,0,1,.18,0c.542.319,1.059.678,1.568,1.01.021.059.047,0,.019.027-.01.009-.016,0-.023-.015a.963.963,0,0,1-.034-.325c0-.088,0-.176,0-.264s-.005-.187,0-.279,0-.2.079-.271c.17.054.123.2.131.319a5.02,5.02,0,0,0,.043.869c.016.15-.076.289-.043.441,0,.121,0,.242,0,.363,0,.147,0,.295,0,.441.011.078-.034.163.049.259a7.217,7.217,0,0,0,1.1-.693,4.47,4.47,0,0,0-.042-1.427c.023-.438,0-.876.017-1.313a.506.506,0,0,0-.271-.495,3.229,3.229,0,0,1-.46-.3c-.154-.131-.141-.2.046-.311a5.434,5.434,0,0,1,.512.356c.207.118.217.114.233-.115a3.647,3.647,0,0,0-.081-.62c.035-.684-.021-1.369.03-2.052a.988.988,0,0,1,.4-.445.318.318,0,0,1,.1-.023c.088,0,.173.007.221.1a1.107,1.107,0,0,1,.043.434q0,2.047,0,4.1a3.066,3.066,0,0,0,.031.521,1.354,1.354,0,0,1,.014.256c0,.131,0,.262,0,.393s0,.259,0,.388a2.51,2.51,0,0,0,.013.334c.065.158.207.131.33.132.55.005,1.1,0,1.65,0,.125,0,.26-.019.361.088-.069.074-.135.149-.207.22l-7.3,7.307a1.123,1.123,0,0,0-.22.244.407.407,0,0,1-.053,0c-.032-.029-.082-.019-.115-.047-.1-.04-.193-.079-.29-.121a.346.346,0,0,0-.149-.046l-.344-.174c-.337-.168-.675-.333-1.01-.5q-.624-.32-1.213-.7c-.146-.094-.3-.182-.442-.279q-.628-.42-1.224-.885c-.181-.14-.365-.275-.537-.427-.116-.1-.242-.194-.364-.291Z" transform="translate(-405.12 -1004.52)" fill="#f7a219"/><path d="M737.04,1662.505a.117.117,0,0,1,.115.047A.108.108,0,0,1,737.04,1662.505Z" transform="translate(-596.853 -1493.304)" fill="#f9be5e"/><path d="M560.538,561.828c0-.09,0-.181,0-.271a1.465,1.465,0,0,1-.055-.458c0-.675,0-1.35,0-2.025,0-.119,0-.239,0-.358q0-5.017,0-10.035c0-.074,0-.147,0-.221a.96.96,0,0,1,.13-.528,1.711,1.711,0,0,1,1.156-.9,1.646,1.646,0,0,1,.407-.051c.165,0,.331,0,.5,0h9.676c.092,0,.183,0,.275.007a.114.114,0,0,1,.019.128,4.123,4.123,0,0,1-.756.719c-.941.836-1.885,1.668-2.823,2.508a.913.913,0,0,1-.648.248c-1.186-.007-2.372,0-3.558,0-.124,0-.263-.036-.35.1a9.967,9.967,0,0,0-.025,1.4c.006,1,.011,2,0,3,0,.823-.006,1.646,0,2.47.01.505,0,1.01.005,1.516,0,.3.036.34.331.341q1.75.007,3.5,0c.292,0,.352-.057.352-.335,0-1.121.018-2.241.011-3.362a.29.29,0,0,0-.021-.107.257.257,0,0,0-.115-.14.763.763,0,0,0-.327-.029l-2.893,0a.969.969,0,0,1-.381-.035c-.111-.077-.07-.154.007-.224.461-.42.865-.9,1.345-1.3.33-.276.6-.616.925-.9a10.412,10.412,0,0,1,.966-.854.763.763,0,0,1,.3-.045c1.256,0,2.512-.012,3.768,0,.167,0,.363-.034.437.192a.729.729,0,0,1,.012.137c0,3.221.007,6.442,0,9.663a1.253,1.253,0,0,1-.973.979,2.083,2.083,0,0,1-.627.073h-8.819a2.742,2.742,0,0,1-.385-.021,1.516,1.516,0,0,1-1.309-.956.71.71,0,0,1-.04-.127,1.089,1.089,0,0,1-.007-.159C560.538,561.854,560.538,561.841,560.538,561.828Z" transform="translate(-425.369 -409.857)" fill="#fdd462"/><path d="M857.383,386.677c0-.033,0-.066,0-.1.016-.021.041-.041.047-.065a.321.321,0,0,1,.1-.163c.04-.038.078-.078.117-.117l4.207-4.207c.052-.052.1-.1.157-.154a.237.237,0,0,1,.125-.053c.374.068.742.161,1.11.257.237.062.472.128.708.192.14.094.043.181-.022.247q-1.909,1.928-3.834,3.838a.475.475,0,0,1-.355.12c-.257,0-.515,0-.771,0-.154,0-.245.063-.233.231a8.836,8.836,0,0,1-.025,1.017,1.661,1.661,0,0,1-.378.394c-1.082,1.088-2.172,2.167-3.249,3.26a.778.778,0,0,1-.7.284c-.236-.035-.494.094-.708-.1a.747.747,0,0,1,.306-.376c1.043-.908,2.064-1.84,3.111-2.743a.817.817,0,0,0,.26-.316c.034-.375.01-.751.012-1.126A1.875,1.875,0,0,1,857.383,386.677Z" transform="translate(-710.13 -249.444)" fill="#f9be5e"/><path d="M1452.1,771.725c-.01.255-.009.256-.184.43l-7.086,7.086a.655.655,0,0,1-.186.16.277.277,0,0,1-.075-.227c0-.731-.022-1.461.013-2.192a.409.409,0,0,1,.064-.142c.021-.028.04-.056.059-.085a1.15,1.15,0,0,0,.025-.382c.006-1.786-.01-3.571.008-5.357a.509.509,0,0,1,.184-.3q2.511-2.511,5.024-5.018c.08-.079.157-.266.327-.1.221.472.43.95.618,1.437.128.333.259.666.368,1.005.169.522.314,1.051.45,1.583.1.408.172.823.265,1.232,0,.175.07.34.07.516C1452.042,771.492,1452.1,771.6,1452.1,771.725Z" transform="translate(-1284.029 -622.126)" fill="#f9be5e"/><path d="M1381.092,577.62c-.051-.024-.1-.047-.149.008s-.117.117-.176.176l-4.917,4.916c-.071.071-.148.137-.222.205-.18-.048-.127-.2-.13-.316-.016-.656.014-1.312-.019-1.967a.5.5,0,0,0-.276-.288c-.536-.316-1.07-.635-1.609-.945a.913.913,0,0,1-.161-.1c-.142-.129-.141-.229.063-.283.127.033.207.147.326.2.073.042.14.094.216.132.1.058.2.123.3.188l.058.038a.71.71,0,0,0,.131.054.245.245,0,0,0,.256-.051c.2-.152.39-.306.588-.455.178-.134.133-.327.131-.508,0-.131-.006-.261,0-.39s0-.24,0-.36a1.642,1.642,0,0,0-.025-.355.453.453,0,0,1,0-.139,2.672,2.672,0,0,0,.022-.576c0-.972.006-1.942,0-2.914a.759.759,0,0,1,.254-.608c.448-.418.849-.886,1.317-1.284a3.378,3.378,0,0,0,.314.342q.223.223.446.448a.889.889,0,0,1,.193.231.142.142,0,0,0,.033.044,6.608,6.608,0,0,1,.451.515c.112.12.212.251.312.381q.233.3.46.613c.075.1.143.212.213.318.168.251.337.5.5.753.1.153.194.31.287.466.107.181.2.368.31.549.133.23.25.467.373.7.03.056.071.107.1.163A.794.794,0,0,1,1381.092,577.62Z" transform="translate(-1214.851 -434.146)" fill="#f7a219"/><path d="M1027.01,401.782c.044-.157.1-.212.241-.213.284,0,.568,0,.853,0,.2,0,.2,0,.337-.139q.654-.651,1.305-1.3l2.393-2.394c.052-.052.1-.106.157-.155s.039-.1.009-.147a.172.172,0,0,1,.054.006,8.894,8.894,0,0,0,.88.311c.192.064.375.143.565.211.172.062.341.134.511.2l.05.023c.318.162.656.282.971.455.113.062.229.116.344.172.42.206.82.447,1.221.685.205.121.4.266.609.371a.948.948,0,0,1,.206.137,4.782,4.782,0,0,0,.4.286q.323.231.639.472c.247.188.49.381.726.583a4.044,4.044,0,0,1-.755.8.232.232,0,0,1-.216.059,3.293,3.293,0,0,0-1.858-.384c-3.125.012-6.25,0-9.375.006A.5.5,0,0,1,1027.01,401.782Z" transform="translate(-878.486 -264.606)" fill="#f7a219"/><path d="M1433.517,534.26c.049-.04.1-.077.146-.121.162-.159.32-.322.483-.48.045-.044.1-.079.146-.119.207.18.416.357.619.541.155.142.3.294.453.44.045.044.1.084.145.125a.185.185,0,0,1-.047.126c-.052.053-.1.106-.154.157L1434.236,536c-.046.046-.09.092-.136.136a.242.242,0,0,0-.086.194c0,.073,0,.147,0,.22q0,1.583,0,3.166,0,.124,0,.248a.139.139,0,0,1-.047.1.307.307,0,0,1-.087-.252c0-1.465-.023-2.931.01-4.4a.726.726,0,0,0-.137-.663C1433.658,534.6,1433.463,534.485,1433.517,534.26Z" transform="translate(-1273.295 -396.802)" fill="#f9be5e"/><path d="M1708.484,996.546a.137.137,0,0,1-.054-.116v-.16a.133.133,0,0,1,.054.116Z" transform="translate(-1540.312 -846.227)" fill="#f48506"/><path d="M1285.617,1142.177a.129.129,0,0,1-.054-.092c0-.073,0-.147,0-.219q0-1.006,0-2.009a.371.371,0,0,1-.05-.076.707.707,0,0,1-.022-.232.344.344,0,0,1,.073-.234.389.389,0,0,1,.282-.089c1.22,0,2.44-.01,3.661,0a.59.59,0,0,1,.626.587.949.949,0,0,0-.017.3q0,2.261,0,4.521a.622.622,0,0,1-.024.3c0,.016,0,.034-.006.05a.248.248,0,0,1-.195.083q-.518.022-1.037,0a.3.3,0,0,1-.2-.083.43.43,0,0,1-.052-.232c0-.252,0-.5,0-.756a.519.519,0,0,1-.079-.373c-.007-.095,0-.191,0-.286s0-.187,0-.28,0-.214,0-.32c-.005-.064.006-.128-.008-.228-.392.23-.8.391-1.2.585a.35.35,0,0,0-.187.366c0,.431,0,.861.005,1.293a1.309,1.309,0,0,1-.077.68c0,.071,0,.141,0,.212a.134.134,0,0,1-.054.114l-.04,0a.4.4,0,0,1-.076-.017c-.363-.2-.722-.4-1.086-.592a.441.441,0,0,1-.181-.163.451.451,0,0,1-.056-.21c0-.193,0-.386,0-.579,0-.5,0-.992,0-1.488a.519.519,0,0,1,.057-.265l.052-.05a.462.462,0,0,1,.083-.074q.949-.53,1.927-1.005c.239-.117.46-.266.7-.383.066-.031.133-.068.139-.156a.159.159,0,0,0-.062-.159,9.237,9.237,0,0,0-1.143-.025c-.145,0-.184.08-.187.21a3.089,3.089,0,0,1-.022.6.288.288,0,0,1-.139.164c-.387.209-.784.4-1.166.613A.152.152,0,0,1,1285.617,1142.177Z" transform="translate(-1129.529 -985.067)" fill="#fdd462"/><path d="M1289.918,1339.9a5.207,5.207,0,0,1,.579.312.511.511,0,0,0,.073.039c.229.114.453.237.672.369.019.018.038.034.058.051v0a.907.907,0,0,1,.11.5c-.01.3,0,.6,0,.9,0,.046-.005.091-.008.136s-.04.049-.083.031c-.008,0-.014-.013-.02-.019a2.062,2.062,0,0,1-.019-.394c0-.116,0-.231,0-.346.051-.276-.074-.425-.322-.549a10.454,10.454,0,0,1-1.04-.588Q1289.917,1340.121,1289.918,1339.9Z" transform="translate(-1133.833 -1179.976)" fill="#f69a13"/><path d="M1395.52,1344.765v-.331c.02-.031.039-.074.072-.081a3.749,3.749,0,0,1,1.284-.026c.122.013.088.145.134.218v.718c-.117-.006-.109-.1-.129-.177-.005-.189-.118-.242-.288-.24-.246,0-.491,0-.736,0A.469.469,0,0,1,1395.52,1344.765Z" transform="translate(-1236.4 -1184.234)" fill="#f6950f"/><path d="M1342.216,1291.308c0,.13,0,.259,0,.388a1.342,1.342,0,0,0-.281.087.2.2,0,0,0-.107.077,1.957,1.957,0,0,1-1.079.523c-.1-.1-.034-.22-.05-.329.029-.088.11-.117.183-.154.359-.18.717-.363,1.078-.539C1342.038,1291.322,1342.117,1291.264,1342.216,1291.308Z" transform="translate(-1183.147 -1132.766)" fill="#f38103"/><path d="M1291.26,1383.192v.27a.14.14,0,0,1-.055.117c-.086-.052-.168-.112-.258-.156-.313-.15-.606-.335-.909-.5a.319.319,0,0,1-.161-.089.16.16,0,0,1-.056-.117c0-.062,0-.124,0-.186a.174.174,0,0,1,.2-.022A7.41,7.41,0,0,1,1291.26,1383.192Z" transform="translate(-1133.741 -1221.336)" fill="#f38102"/><path d="M1340.021,1311.552c.05-.019.1-.034.151-.056l.9-.445a.132.132,0,0,1,.053.012c.011.006.024.031.019.04a.242.242,0,0,1-.049.065q-.525.526-1.053,1.052a1.52,1.52,0,0,1-.128.1q0-.361,0-.723C1339.938,1311.563,1339.989,1311.578,1340.021,1311.552Z" transform="translate(-1182.388 -1151.956)" fill="#f9bd5d"/><path d="M1396.955,1369.146c0,.061-.01.126.055.166,0,.109,0,.216,0,.324a.138.138,0,0,1-.054.117.434.434,0,0,0-.42-.2,6.063,6.063,0,0,1-1.014-.021c0-.111,0-.22,0-.331.026-.037.049-.088.095-.094A2.846,2.846,0,0,1,1396.955,1369.146Z" transform="translate(-1236.4 -1208.285)" fill="#f48606"/><path d="M1396.965,1361.334c-.391,0-.781,0-1.172,0a.487.487,0,0,0-.262.056V1361h1.088c.064,0,.127,0,.191,0,.125,0,.15.031.155.167,0,.019,0,.036,0,.054Z" transform="translate(-1236.41 -1200.471)" fill="#f58d0a"/><path d="M1395.52,1384.076a.456.456,0,0,1,.181-.056l1.122,0a.378.378,0,0,1,.054.008.1.1,0,0,1,.07.075c0,.064.006.127.008.192h-1.171c-.055,0-.109,0-.164,0s-.091-.036-.1-.107C1395.52,1384.148,1395.521,1384.112,1395.52,1384.076Z" transform="translate(-1236.4 -1222.828)" fill="#f38001"/><path d="M1397.01,1340.141c-.013-.013-.032-.024-.036-.04a.162.162,0,0,0-.18-.128c-.346.005-.692,0-1.038,0a.464.464,0,0,0-.235.056c0-.093,0-.187,0-.28h1.429a.14.14,0,0,1,.059.117C1397.01,1339.958,1397.01,1340.049,1397.01,1340.141Z" transform="translate(-1236.4 -1179.831)" fill="#f69c14"/><path d="M1445.421,1163.836q0-1.964,0-3.928,0-.6,0-1.208l.031-.019.032.015a.049.049,0,0,1-.011.064q0,1.242,0,2.484l0,2.253c0,.082,0,.165,0,.247A.129.129,0,0,1,1445.421,1163.836Z" transform="translate(-1284.865 -1003.967)" fill="#fbbf49"/><path d="M1105.957,1142.141c-.015-.009-.03-.024-.045-.025s-.043.01-.045.019a.938.938,0,0,0-.019.162q0,1.062,0,2.122c0,.329.013.322-.312.32h-.744c-.056,0-.11,0-.166,0a.108.108,0,0,1-.1-.11q0-.1,0-.192c0-.284,0-.57,0-.854a.473.473,0,0,1-.086-.365c0-1.269-.014-2.537.011-3.806a.48.48,0,0,1,.059-.292.41.41,0,0,1,.307-.091c.265,0,.531-.008.8,0,.3.01.335.051.37.353a1.884,1.884,0,0,1,0,.235c0,.054,0,.11-.007.164a.666.666,0,0,0,.271.664c.4.319.787.65,1.168.988a.088.088,0,0,0,.1.027c.056-.6.016-1.21.028-1.814.018-.169-.046-.351.082-.5a4.073,4.073,0,0,1,1.2-.035c.165.006.185.152.192.287.012.213-.053.417-.052.63.007,1.48,0,2.961,0,4.44,0,.335-.014.351-.36.354-.293,0-.588.005-.882,0a.411.411,0,0,1-.1-.017.206.206,0,0,1-.084-.056.444.444,0,0,1-.052-.233c0-.148,0-.3,0-.443a.838.838,0,0,0-.4-.906c-.305-.211-.585-.464-.87-.706C1106.111,1142.363,1105.989,1142.288,1105.957,1142.141Z" transform="translate(-953.681 -984.872)" fill="#fdd462"/><path d="M931.2,1055.229c0,.239-.007.477-.007.716q0,1.872,0,3.745a2.315,2.315,0,0,1-.276.3l-.486.488c-.051.052-.072.1-.017.167a.26.26,0,0,1,.063.177c0,.358,0,.716,0,1.073a.054.054,0,0,1-.076-.016.252.252,0,0,1-.033-.08,2.162,2.162,0,0,1-.015-.307c0-.117,0-.234,0-.351a1.862,1.862,0,0,0-.016-.216,6.391,6.391,0,0,0-1.071-1.142.464.464,0,0,0-.342-.077c-.4,0-.791.008-1.187-.005-.141,0-.325,0-.249-.242a.214.214,0,0,1,.077-.047,14.87,14.87,0,0,1,1.537-.016c.249,0,.368.219.565.366a5.127,5.127,0,0,0,.02-.688c0-.11-.006-.219,0-.328.014-.158-.094-.188-.211-.186a16.369,16.369,0,0,0-1.955.037c-.118-.231.058-.243.2-.25.349-.017.7,0,1.048-.007a6.851,6.851,0,0,0,.778-.018,10.045,10.045,0,0,0-.917-1.025.432.432,0,0,0-.316-.07c-.212,0-.423.011-.634-.01-.14-.014-.263-.057-.186-.245a2.657,2.657,0,0,1,1.106-.038.3.3,0,0,1,.195.141c.017.023.034.046.053.067s.036.041.053.063.018.02.027.029.037.038.054.058c.079.086.163.166.249.246a.712.712,0,0,1,.057.056.652.652,0,0,1,.053.061.875.875,0,0,0,.988.351c.227-.065.1-.26.135-.4,0-.168-.01-.336,0-.5a1.77,1.77,0,0,0-.045-.547c-.206-.32-.54-.526-.76-.827a1.122,1.122,0,0,0-1.072-.445c-.732.032-1.467.011-2.2.007-.134,0-.279.029-.391-.082-.056-.184.069-.219.2-.233a3.634,3.634,0,0,1,.562,0,.562.562,0,0,1,.09.012.788.788,0,0,0,.127.013l.134-.013c.459-.036.468-.046.485-.51,0-.131,0-.262,0-.393a1.372,1.372,0,0,1,.013-.221.338.338,0,0,1,.025-.083,13.836,13.836,0,0,1,1.016-1.036c.09-.089.211-.183.3.02a7.223,7.223,0,0,1,.023.963c.007.39.018.408.4.408.945,0,1.891,0,2.836,0a.658.658,0,0,1,.425.072c-.025.187-.182.145-.291.148-.43.014-.861.005-1.291.006-.586,0-1.172,0-1.757,0-.167,0-.321.014-.323.236-.015.392-.015.392.375.459a1.829,1.829,0,0,1,.405.38c.1.1.173.232.315.287a2.648,2.648,0,0,0,.968-.029c.064-.095.036-.2.047-.3.007-.072.015-.144.087-.184A.363.363,0,0,0,931.2,1055.229Z" transform="translate(-780.35 -900.982)" fill="#f7a219"/><path d="M929.593,1381.284l-1.508,0H927.4c-.055,0-.109,0-.164-.009a.1.1,0,0,1-.069-.075c0-.046,0-.092-.006-.137a.313.313,0,0,1,.309-.139q1.924-.012,3.848,0a.448.448,0,0,1,.238.054.3.3,0,0,1,.019.3c-.193,0-.386.006-.578.006C930.529,1381.284,930.062,1381.284,929.593,1381.284Z" transform="translate(-781.507 -1219.811)" fill="#f38102"/><path d="M1155.692,1247.57c.182.154.363.31.545.464a3.729,3.729,0,0,0,.3.242c.169.113.3.271.471.38a.982.982,0,0,1,.144.129c.148.141.144.136.144.335,0,.111,0,.22,0,.331-.5-.486-1.076-.878-1.559-1.35.009.079.074.2-.091.246q0-.329,0-.657A.142.142,0,0,1,1155.692,1247.57Z" transform="translate(-1003.415 -1090.301)" fill="#f69a13"/><path d="M1155.574,1265.023c.015-.022.04-.043.044-.067.009-.062.009-.126.013-.19,0-.008.007-.022.012-.024s.039-.006.049,0a2.827,2.827,0,0,1,.4.328,1.015,1.015,0,0,0,.147.119.417.417,0,0,1,.066.047,3.537,3.537,0,0,0,.436.369c.115.1.239.194.359.29a.175.175,0,0,1,.073.137.125.125,0,0,0,.052.092v.5a11.4,11.4,0,0,0-1.525-1.4,1.759,1.759,0,0,0,0,.284c0,.1.013.208-.073.289a.134.134,0,0,1-.055-.119C1155.571,1265.461,1155.573,1265.243,1155.574,1265.023Z" transform="translate(-1003.348 -1106.978)" fill="#f5900d"/><path d="M1216.36,1365.819c0,.155,0,.309,0,.463a.1.1,0,0,1-.09.086c-.036,0-.073.005-.109.005h-1.008a.417.417,0,0,1-.107-.01.246.246,0,0,1-.063-.047c.161-.125.351-.07.529-.08a3.5,3.5,0,0,0,.575-.031,5.55,5.55,0,0,0-.712-.028.567.567,0,0,1-.394-.081c0-.147,0-.295,0-.442a.61.61,0,0,1,.441-.082,3.715,3.715,0,0,1,.835.034C1216.363,1365.642,1216.312,1365.754,1216.36,1365.819Z" transform="translate(-1061.05 -1204.903)" fill="#f48807"/><path d="M1107.6,1341.368a.332.332,0,0,1-.047-.063.222.222,0,0,1-.009-.081q0-.617,0-1.232a.6.6,0,0,1,.008-.082.1.1,0,0,1,.094-.083c.018,0,.036,0,.055,0h1.068c.018,0,.036,0,.054,0a.1.1,0,0,1,.093.084c0,.036.007.073.007.109,0,.119,0,.237,0,.356-.306-.042-.615-.021-.923-.035-.229-.01-.349.065-.323.308,0,.137,0,.275,0,.412a.771.771,0,0,1-.025.228A.377.377,0,0,1,1107.6,1341.368Z" transform="translate(-956.7 -1179.901)" fill="#f69813"/><path d="M1214.578,1339.859c-.063-.042-.05-.105-.052-.166-.077-.27-.269-.314-.523-.311a1.408,1.408,0,0,1-.8-.075.442.442,0,0,0-.051-.223c0-.1-.021-.2.108-.244a13.187,13.187,0,0,1,1.326.024C1214.58,1339.2,1214.578,1339.527,1214.578,1339.859Z" transform="translate(-1059.269 -1178.942)" fill="#f69913"/><path d="M1289.9,1355.23a.355.355,0,0,1,.161.026c.017.009.034.015.049.025.234.143.482.263.717.4.134.08.275.146.413.22a.172.172,0,0,1,.094.157c0,.028,0,.055,0,.082v.192c-.129.084-.231-.01-.329-.061-.373-.194-.752-.375-1.107-.6Z" transform="translate(-1133.817 -1194.865)" fill="#f5910d"/><path d="M1109.49,1365.817c0-.148,0-.294,0-.442a2.506,2.506,0,0,1,1.188-.052c.121.01.091.143.134.216v.441a2.638,2.638,0,0,0-.907-.083A.6.6,0,0,1,1109.49,1365.817Z" transform="translate(-958.594 -1204.624)" fill="#f48807"/><path d="M1159.116,1291.4c0,.035,0,.07,0,.1a.125.125,0,0,1-.053.113h0a.406.406,0,0,0-.059-.051c-.153-.117-.307-.231-.448-.362-.107-.1-.225-.186-.339-.278-.156-.126-.314-.249-.47-.377-.1-.081-.192-.169-.287-.253,0-.112,0-.221,0-.333.19-.011.287.141.413.239.334.258.652.536.976.807a.569.569,0,0,1,.212.334v0a.151.151,0,0,0,.043.034A.131.131,0,0,1,1159.116,1291.4Z" transform="translate(-1005.185 -1131.478)" fill="#f38103"/><path d="M1292.942,1193.021a.153.153,0,0,1-.069.141.471.471,0,0,1-.048.027c-.375.191-.74.4-1.12.587-.207.1-.414.2-.615.31-.338.186-.678.363-1.022.538-.02.017-.038.033-.058.049h-.051c0-.091,0-.181,0-.271a1.088,1.088,0,0,0,.32-.144c.1-.055.2-.118.308-.172.266-.138.534-.271.8-.406l.038,0c.437-.146.8-.431,1.223-.61C1292.748,1193.051,1292.828,1192.94,1292.942,1193.021Z" transform="translate(-1133.875 -1037.292)" fill="#f7a119"/><path d="M1289.9,1370.536a.377.377,0,0,1,.256.075.952.952,0,0,0,.215.11,1.2,1.2,0,0,1,.287.153,1.186,1.186,0,0,0,.354.193c.069.021.129.065.2.092a1.1,1.1,0,0,0,.128.04v.386a.3.3,0,0,1-.081-.016c-.177-.093-.36-.177-.534-.282-.219-.133-.455-.237-.687-.348a.41.41,0,0,0-.135-.018C1289.9,1370.793,1289.9,1370.664,1289.9,1370.536Z" transform="translate(-1133.817 -1209.729)" fill="#f48807"/><path d="M1110.833,1355.723c-.007-.006-.016-.011-.02-.019a.491.491,0,0,0-.069-.117c-.051-.047-.122-.029-.185-.029h-1.048c0-.1,0-.2.009-.3a.092.092,0,0,1,.069-.076,1.061,1.061,0,0,1,.108-.01c.309,0,.62,0,.931,0a.222.222,0,0,1,.185.095.108.108,0,0,0,.021.016Z" transform="translate(-958.613 -1194.806)" fill="#f5900d"/><path d="M1215,1355.23h.98c.063,0,.127,0,.19,0,.124,0,.152.033.156.168,0,.027,0,.054,0,.081v.136H1215C1215,1355.488,1215,1355.359,1215,1355.23Z" transform="translate(-1061.07 -1194.865)" fill="#f5900d"/><path d="M1215.982,1144.719l-1.381,0h0a.039.039,0,0,1-.012-.035c0-.013.006-.019.01-.019l1.018,0c.073,0,.146,0,.22-.008a.1.1,0,0,0,.085-.093c0-.064,0-.128,0-.192q0-2.492,0-4.982c0-.072-.006-.146-.011-.219a.089.089,0,0,0-.073-.07c-.064,0-.128-.009-.192-.009-.349,0-.7,0-1.046,0a.063.063,0,0,1,.025-.088,3.813,3.813,0,0,1,1.333,0,.266.266,0,0,1,.093.223,1.7,1.7,0,0,1-.018.372.346.346,0,0,0-.055.181c0,.055,0,.11,0,.164Z" transform="translate(-1060.669 -984.797)" fill="#fcc64f"/><path d="M1214.98,1384.02h1.014q.11,0,.219.007a.1.1,0,0,1,.086.117.1.1,0,0,1-.086.09c-.073,0-.146.006-.219.007h-1.015Z" transform="translate(-1061.05 -1222.828)" fill="#f38102"/><path d="M1109.49,1384.03l1.159,0a.1.1,0,0,1,.1.072.23.23,0,0,0,.022.05.316.316,0,0,0,.037.041c0,.019,0,.037,0,.056a6.662,6.662,0,0,1-1.322,0C1109.491,1384.178,1109.49,1384.1,1109.49,1384.03Z" transform="translate(-958.594 -1222.837)" fill="#f38102"/><path d="M1109.5,1391.71h1.322a.267.267,0,0,1-.062.047.212.212,0,0,1-.081.009l-1.178,0C1109.5,1391.746,1109.5,1391.728,1109.5,1391.71Z" transform="translate(-958.603 -1230.297)" fill="#f48807"/><path d="M1263.115,1149.839a.144.144,0,0,1-.055-.119c0-.074,0-.147,0-.22a.055.055,0,0,1,.076.011.3.3,0,0,0,.325.192.387.387,0,0,1,.31.072c0,.018,0,.036,0,.055Z" transform="translate(-1107.748 -995.041)" fill="#f48909"/><path d="M1078.783,1374.98v-.273a.2.2,0,0,1,0-.277h.049c0,.153,0,.307,0,.46A.1.1,0,0,1,1078.783,1374.98Z" transform="translate(-928.715 -1213.513)" fill="#f58d0b"/><path d="M1211.13,1345.71l.059.052Z" transform="translate(-1057.312 -1185.619)" fill="#f69913"/><path d="M567.383,1147.911c0-.13,0-.261,0-.392-.117-.152-.058-.33-.071-.5,0-.031,0-.061,0-.092a.6.6,0,0,1,0-.091c0-.106,0-.212,0-.318s0-.214,0-.321,0-.213,0-.32a2.374,2.374,0,0,0,0-.37c-.413.164-.8.36-1.193.556a.35.35,0,0,0-.2.36c0,.431,0,.863,0,1.294a3.473,3.473,0,0,1-.052.995.112.112,0,0,1-.149.026,6.889,6.889,0,0,1-1.252-.721c-.019-.019-.038-.04-.059-.058a.125.125,0,0,1-.052-.092c0-.045,0-.092,0-.137q0-1.034,0-2.068c0-.028,0-.055,0-.083a.167.167,0,0,1,.1-.178c.276-.144.55-.295.827-.437.31-.16.624-.313.934-.474.351-.181.693-.377,1.048-.55a.349.349,0,0,0,.07-.044.125.125,0,0,0,.052-.093c0-.055.006-.11,0-.165,0-.116-.031-.148-.149-.148h-1.24l-.055,0a.106.106,0,0,0-.095.085c0,.028-.007.055-.007.082,0,.184,0,.368,0,.552a.161.161,0,0,1,.022.189l-.03.028a.608.608,0,0,0-.1.038c-.413.24-.847.439-1.272.654a.092.092,0,0,1-.052.009c-.016,0-.039-.017-.041-.03a.949.949,0,0,1-.017-.162q0-1.2,0-2.4c0-.046,0-.092,0-.138a.109.109,0,0,1,.122-.117c.064,0,.128,0,.193,0h3.526a.671.671,0,0,1,.626.326.612.612,0,0,0,.052.063.2.2,0,0,1,.061.088,5.308,5.308,0,0,1,.029.963c0,.735.01,1.47,0,2.206.017.561.011,1.122,0,1.683,0,.309-.071.369-.379.375s-.607,0-.91,0A.4.4,0,0,1,567.383,1147.911Z" transform="translate(-429.125 -988.043)" fill="#fdd462"/><path d="M573.635,1080.869q0,.221,0,.441c-.074-.077-.073-.077-.126.023a1.3,1.3,0,0,1-.7.529c-.243,0-.486,0-.729.006-.058,0-.081.029-.1.109a.316.316,0,0,0,0,.053c0,.061-.031.072-.082.051a1.34,1.34,0,0,0-.913-.032,1.154,1.154,0,0,0-.557-.108c-1.025.005-2.05,0-3.076,0-.105,0-.223-.035-.311.061-.081.133-.229.02-.328.09a4.946,4.946,0,0,0-.805-.068.472.472,0,0,1-.05-.024.663.663,0,0,0-.367-.089c-1.128,0-2.256,0-3.384,0-.083,0-.165,0-.247,0a.132.132,0,0,1-.094-.051.937.937,0,0,1,.651-.042,1.459,1.459,0,0,1-.943-1.282.943.943,0,0,1,0-.265.067.067,0,0,1,.083-.02.227.227,0,0,1,.054.079,1.482,1.482,0,0,0,1.564,1.169c2.454.028,4.908.1,7.363.047a17.221,17.221,0,0,0,1.979-.1,1.23,1.23,0,0,0,.824-.454C573.412,1080.912,573.486,1080.8,573.635,1080.869Z" transform="translate(-426.327 -927.79)" fill="#f58e0b"/><path d="M565.851,1354.507v.442c-.108.078-.191,0-.276-.048-.267-.142-.534-.285-.8-.434s-.29-.131-.29.187a.3.3,0,0,1-.073.241.147.147,0,0,1-.054-.119c0-.109,0-.219,0-.327s0-.218,0-.327c.075-.455.076-.455.511-.213A4.223,4.223,0,0,1,565.851,1354.507Z" transform="translate(-429.139 -1193.425)" fill="#f5910d"/><path d="M565.861,1342.846a.313.313,0,0,1-.1-.031,1.527,1.527,0,0,0-.261-.15c-.147-.074-.277-.176-.428-.244a2.083,2.083,0,0,1-.406-.226.5.5,0,0,0-.125-.055.087.087,0,0,0-.1.065c-.006.063-.007.127-.018.191,0,.024-.03.044-.046.065,0-.2,0-.4,0-.595a.116.116,0,0,1,.114-.125.5.5,0,0,1,.2.083c.1.053.189.11.286.163l.8.431a.233.233,0,0,1,.039.037c.128.074.117.176.057.287C565.862,1342.775,565.861,1342.811,565.861,1342.846Z" transform="translate(-429.148 -1181.763)" fill="#f69a14"/><path d="M617.333,1190.71c-.115.057-.23.112-.343.172s-.225.12-.334.187c-.163.1-.341.175-.513.261-.042.021-.056.008-.083-.071v0c.07-.06,0-.158.058-.221,0-.147,0-.293,0-.441a2.186,2.186,0,0,1,1.13-.051A.1.1,0,0,1,617.333,1190.71Z" transform="translate(-479.352 -1034.871)" fill="#f5930f"/><path d="M566.25,1383.153c0-.092,0-.184,0-.277a.112.112,0,0,1,.128-.024,6.146,6.146,0,0,1,1.309.741c0,.091,0,.182-.008.273,0,.02-.045.045-.064.037a.569.569,0,0,1-.076-.03l-.626-.343a1.157,1.157,0,0,0-.113-.074c-.147-.077-.3-.148-.441-.225A.928.928,0,0,1,566.25,1383.153Z" transform="translate(-430.974 -1221.683)" fill="#f38102"/><path d="M561.363,1090.33c.016.021.042.041.046.065.009.053,0,.109.012.162a.22.22,0,0,0,.034.1.353.353,0,0,1,.078.2.18.18,0,0,0,.063.117l.385.387a.315.315,0,0,0,.141.077.406.406,0,0,1,.229.139.057.057,0,0,1,.007.048.054.054,0,0,1-.04.026l-.683,0a.976.976,0,0,1-.225-.51,1.462,1.462,0,0,1-.051-.318A.992.992,0,0,1,561.363,1090.33Z" transform="translate(-426.197 -937.583)" fill="#f48807"/><path d="M716.01,1140.384a.122.122,0,0,1,.093-.051c.211,0,.421,0,.632,0,.067,0,.093.047.1.107a.516.516,0,0,1,.042.464.151.151,0,0,1-.066.069c-.23.024-.486.162-.638-.149a.3.3,0,0,1,0-.048.337.337,0,0,0-.026-.18.573.573,0,0,1-.026-.1c-.019-.017-.035-.038-.055-.056h0a.714.714,0,0,0-.055-.055Z" transform="translate(-576.428 -986.146)" fill="#f48505"/><path d="M619.334,1186.655c-.01-.058-.034-.1-.1-.106s-.127,0-.19,0h-.923c0-.046,0-.091.007-.136a.1.1,0,0,1,.069-.076.656.656,0,0,1,.081-.008H619.4a.22.22,0,0,1,.081.01.116.116,0,0,1,.057.053.145.145,0,0,1-.038.174C619.447,1186.6,619.389,1186.624,619.334,1186.655Z" transform="translate(-481.353 -1030.817)" fill="#f69b14"/><path d="M560.583,1064.1c0,.166,0,.331,0,.5a.308.308,0,0,1-.045-.066.238.238,0,0,1-.01-.081q0-.49,0-.981a.167.167,0,0,1,.057-.145h0c.028.032.019.08.048.112,0,.036.007.072.01.107,0,.012,0,.025,0,.037,0,.085.019.176-.057.244Z" transform="translate(-425.416 -911.348)" fill="#f69a14"/><path d="M616.147,1209.33c0,.036,0,.072,0,.108a.123.123,0,0,1-.057.113c0-.073,0-.146.008-.219Z" transform="translate(-479.381 -1053.16)" fill="#f69b14"/><path d="M717.92,1144.08l.055.056Z" transform="translate(-578.283 -989.786)" fill="#f58e0b"/><path d="M716,1142.15l.055.055Z" transform="translate(-576.418 -987.912)" fill="#f58e0b"/><path d="M669.92,1166.242H671.1c.064,0,.128,0,.192,0a.11.11,0,0,0,.116-.122c0-.082,0-.165,0-.247q0-.809,0-1.617c.053-.051.079-.127.139-.169a1.151,1.151,0,0,0,.449-1.129c-.029-.474-.008-.95-.006-1.425a.508.508,0,0,1,.079-.366h0a.068.068,0,0,1,.091.032.788.788,0,0,1,.051.379q0,2.536,0,5.072a.579.579,0,0,1-.087.421.141.141,0,0,1-.052-.121c0-.228,0-.457,0-.686a.269.269,0,0,0-.017-.077.03.03,0,0,0-.025-.009.5.5,0,0,0-.088.06c-.139.132-.275.267-.414.4-.009.009-.033,0-.05,0s-.01-.016-.01-.024c0-.046,0-.091-.007-.136a.542.542,0,0,0-.007-.109.227.227,0,0,0-.046-.064c-.181.127-.387.065-.583.076s-.364-.006-.545.006c-.1.006-.21,0-.224.142,0,.125,0,.25-.005.375s0,.247,0,.37c0,.229-.051.478.246.582a.177.177,0,0,1-.1.1c-.022-.016-.041-.041-.065-.047a1.31,1.31,0,0,0-.136-.019.089.089,0,0,1-.069-.076c0-.073-.007-.147-.007-.22Q669.92,1166.918,669.92,1166.242Z" transform="translate(-531.663 -1006.374)" fill="#f9be5d"/><path d="M614.357,1306.27a.548.548,0,0,0-.057-.286.115.115,0,0,0,.051-.091c0-.09,0-.181,0-.272q0-.34,0-.68a.676.676,0,0,1,.154-.111,11.24,11.24,0,0,1,1.311-.638.124.124,0,0,1,.072.031c0,.183,0,.364,0,.547-.068.061-.14.12-.2.184q-.567.564-1.132,1.131C614.495,1306.148,614.424,1306.207,614.357,1306.27Z" transform="translate(-477.643 -1145.293)" fill="#f7a219"/><path d="M567.726,1372.459a.293.293,0,0,1-.1-.03,1.917,1.917,0,0,0-.309-.175c-.129-.068-.257-.136-.383-.211-.187-.112-.39-.2-.587-.292a.183.183,0,0,0-.054-.008c0-.109.009-.218.014-.327,0-.021.048-.046.065-.034a1.326,1.326,0,0,0,.3.134c.126.057.233.144.351.212a.7.7,0,0,0,.119.066,1.384,1.384,0,0,1,.364.187.412.412,0,0,0,.225.093C567.725,1372.2,567.726,1372.33,567.726,1372.459Z" transform="translate(-431.013 -1210.548)" fill="#f48706"/><path d="M745.149,1145.712q0-2.83,0-5.66c0-.083,0-.165,0-.247-.028-.149-.1-.349.031-.427.107-.067.242.1.334.2a10.735,10.735,0,0,1,1.11,1.068.5.5,0,0,1,.034.171c0,.1,0,.2,0,.3,0,.042,0,.085.006.127.01.233.223.276.366.373a.619.619,0,0,0,.952-.11,1.247,1.247,0,0,0,.031-.8.306.306,0,0,0-.234-.056c-.258,0-.515,0-.773,0a.508.508,0,0,1-.382-.127c-.4-.348-.79-.7-1.172-1.058-.087-.083-.194-.174-.008-.269a3.928,3.928,0,0,1,.74-.023c.879,0,1.758.007,2.636-.005a.845.845,0,0,1,.865.583c.026.129.078.26-.006.388q0,.9,0,1.8c0,.073,0,.145,0,.219a.312.312,0,0,1-.065.176,1.317,1.317,0,0,1-.655.337.189.189,0,0,0-.124.051.079.079,0,0,0,0,.119c.09.061.182.121.273.18.153.1.308.194.46.294a.231.231,0,0,1,.107.208q0,.656,0,1.313a.4.4,0,0,1-.057.207,3.244,3.244,0,0,1-1.1.661c-.058-.006-.107-.024-.11-.093s0-.144,0-.217q0-.379,0-.758a.2.2,0,0,0-.047-.15.148.148,0,0,1-.049-.062.5.5,0,0,0-.3-.429c-.473-.283-.927-.595-1.394-.887-.012-.035-.045.025-.019,0,.1.108.036.245.061.367,0,.086,0,.173,0,.259.008.122,0,.245,0,.366s0,.25-.012.375a.272.272,0,0,1-.064.126c0,.044-.006.088-.005.131a.175.175,0,0,1-.071.161.2.2,0,0,0-.032.041,2.294,2.294,0,0,1-.691.487,1.141,1.141,0,0,1-.527.281Z" transform="translate(-604.685 -985.018)" fill="#fdd462"/><path d="M922.418,1142.258l.052-.062h3.052c.193,0,.242-.03.388.189a1.171,1.171,0,0,0,.148.162q.366.372.735.743a1.037,1.037,0,0,1,.112.121.348.348,0,0,1,.031.1c-.11.113-.253.088-.387.088-.657,0-1.313.013-1.97,0-.294-.007-.544.011-.616.361a.885.885,0,0,0,.016.107.057.057,0,0,0,.036.036.629.629,0,0,0,.135.017c.23,0,.46,0,.69,0l.165,0a.211.211,0,0,1,.146.067.146.146,0,0,1,.019.02,4.206,4.206,0,0,0,.44.492c.087.094.163.2.248.294s.176.187.265.28a.054.054,0,0,1,.015.023.1.1,0,0,1,0,.051.058.058,0,0,1-.038.032c-.082.006-.165.01-.247.01h-1.6c-.073,0-.147,0-.22.008a.085.085,0,0,0-.068.077.691.691,0,0,0,0,.083c.115.131.061.292.076.441-.012.149.034.309-.076.442a1,1,0,0,0,.014.108.057.057,0,0,0,.035.037.93.93,0,0,0,.162.019h1.435a.207.207,0,0,1,.148.062l.138.135c.227.229.453.458.682.684a1.783,1.783,0,0,1,.309.385.493.493,0,0,1-.364.092q-1.843,0-3.686,0a.492.492,0,0,1-.364-.092.379.379,0,0,1-.052-.182c0-.073,0-.146,0-.22v-4.4c0-.11,0-.22,0-.33A.391.391,0,0,1,922.418,1142.258Z" transform="translate(-776.815 -987.956)" fill="#fdd462"/><path d="M931.555,1344.527c0,.129,0,.258,0,.386a.5.5,0,0,1-.365.088q-1.842,0-3.685,0a.5.5,0,0,1-.365-.088v-.386a.5.5,0,0,1,.365-.088q1.843,0,3.685,0A.5.5,0,0,1,931.555,1344.527Z" transform="translate(-781.487 -1184.383)" fill="#f69610"/><path d="M927.15,1361h4.415v.331a.436.436,0,0,1-.311.086c-1.315.005-2.629,0-3.944,0a.325.325,0,0,1-.16-.036Z" transform="translate(-781.497 -1200.469)" fill="#f58d0b"/><path d="M927.15,1372.54a.408.408,0,0,1,.209-.056c.064,0,.129,0,.193,0h4.013c0,.019,0,.037,0,.055,0,.092,0,.184,0,.276H927.5c-.046,0-.092,0-.137,0a.406.406,0,0,0-.209.056Q927.15,1372.7,927.15,1372.54Z" transform="translate(-781.497 -1211.622)" fill="#f48605"/><path d="M931.565,1339.995H927.15c0-.075,0-.15,0-.224h4.414C931.565,1339.844,931.565,1339.92,931.565,1339.995Z" transform="translate(-781.497 -1179.85)" fill="#f69b14"/><path d="M672.1,1371.857c-.08,0-.161-.007-.242-.011a.093.093,0,0,1-.082-.091c0-.153,0-.305,0-.458a.348.348,0,0,1,.253-.082,4.942,4.942,0,0,1,1.161.048c.1.1.031.229.05.343-.009.081.022.166-.027.242h-.841C672.282,1371.851,672.192,1371.855,672.1,1371.857Z" transform="translate(-533.466 -1210.38)" fill="#f48404"/><path d="M756.779,1137.085a.817.817,0,0,0-.379-.486.325.325,0,0,0-.208-.061c-.073,0-.147,0-.221,0H752.53c-.021.025-.041.025-.06,0,0-.018.006-.036.01-.053a.141.141,0,0,1,.115-.1.551.551,0,0,1,.109-.006q1.715,0,3.429,0a.516.516,0,0,1,.332.106c.029.022.061.04.091.059.018-.005.042-.014.051,0a2.243,2.243,0,0,0,.613.556h-.053A.3.3,0,0,1,756.779,1137.085Z" transform="translate(-611.839 -982.298)" fill="#f7a119"/><path d="M746.661,1340.7a2.165,2.165,0,0,1,.355-.249c.235-.154.477-.3.717-.444.046-.028.1-.049.146-.074.057.009.1.034.1.1,0,.132,0,.264,0,.4-.455.233-.88.519-1.31.794-.038.024-.075.053-.125.034a2.464,2.464,0,0,0,0-.3A.3.3,0,0,1,746.661,1340.7Z" transform="translate(-606.086 -1180.006)" fill="#f69913"/><path d="M746.72,1357.914a1.307,1.307,0,0,1,.322-.245,1.882,1.882,0,0,0,.183-.115c.2-.134.423-.245.619-.392a.439.439,0,0,1,.31-.076c0,.147,0,.294,0,.442a5.636,5.636,0,0,0-1.276.745c-.049.034-.078.108-.159.082Z" transform="translate(-606.255 -1196.665)" fill="#f5900c"/><path d="M796.641,1306.625c0-.129,0-.257,0-.387.034-.089.076-.191.193-.119a9.771,9.771,0,0,1,1.569,1.057c0,.093,0,.186,0,.278-.117.092-.21,0-.3-.05-.367-.228-.716-.484-1.084-.711A.427.427,0,0,0,796.641,1306.625Z" transform="translate(-654.74 -1147.143)" fill="#f48706"/><path d="M796.65,1319.512a.454.454,0,0,0,.05-.063c.051-.095.063-.1.137-.062.016.009.034.014.049.024l.939.607a2.932,2.932,0,0,0,.405.276.294.294,0,0,0,.18.048q0,.153,0,.3a.042.042,0,0,1-.058.033c-.264-.166-.531-.325-.79-.5s-.553-.36-.831-.537a.252.252,0,0,0-.08-.019C796.651,1319.586,796.65,1319.549,796.65,1319.512Z" transform="translate(-654.749 -1160.031)" fill="#f38102"/><path d="M671.79,1344.655c0-.129,0-.257,0-.386a.311.311,0,0,1,.226-.08,3.254,3.254,0,0,1,1.208.082c0,.073,0,.146,0,.22a.147.147,0,0,1-.018.195A2.91,2.91,0,0,1,671.79,1344.655Z" transform="translate(-533.479 -1184.125)" fill="#f69510"/><path d="M859.97,1369.108v-.5a4.753,4.753,0,0,1,1.181-.729.074.074,0,0,1,.112.038c.005.127,0,.254,0,.381a4.928,4.928,0,0,1-.943.63C860.219,1369,860.129,1369.137,859.97,1369.108Z" transform="translate(-716.248 -1207.142)" fill="#f48908"/><path d="M861.239,1353.323c-.12.062-.238.127-.354.2-.154.092-.313.178-.469.269a3.731,3.731,0,0,1-.446.253c0-.129,0-.258,0-.387a.753.753,0,0,1,.342-.305c.245-.143.486-.295.733-.434.158-.089.243-.054.22.14C861.255,1353.145,861.292,1353.238,861.239,1353.323Z" transform="translate(-716.248 -1192.572)" fill="#f5930f"/><path d="M798.382,1297.2a1.632,1.632,0,0,1-.144-.078c-.385-.257-.783-.493-1.162-.76-.1-.067-.2-.122-.3-.183-.029-.017-.057-.01-.093.027-.019.019-.039.037-.059.056q0-.193,0-.386a.21.21,0,0,1,.277,0c.448.3.908.575,1.352.878a.49.49,0,0,1,.133.171C798.382,1297.02,798.382,1297.112,798.382,1297.2Z" transform="translate(-654.72 -1137.17)" fill="#f58e0b"/><path d="M859.97,1384.812c.042-.034.088-.065.127-.1a.374.374,0,0,1,.2-.128.088.088,0,0,0,.049-.023,7.819,7.819,0,0,1,.687-.443.345.345,0,0,1,.2-.078.6.6,0,0,1,0,.386c-.2.119-.41.229-.609.353-.183.115-.373.223-.559.333a.065.065,0,0,1-.1-.056C859.972,1384.976,859.971,1384.894,859.97,1384.812Z" transform="translate(-716.248 -1222.846)" fill="#f38102"/><path d="M746.72,1372.156a.937.937,0,0,1,.389-.331c.121-.065.231-.146.348-.216.164-.1.322-.2.492-.292a.192.192,0,0,1,.2.01c0,.148,0,.295,0,.442a.451.451,0,0,0-.4.087c-.339.22-.68.436-1.034.631C746.72,1372.376,746.72,1372.266,746.72,1372.156Z" transform="translate(-606.255 -1210.466)" fill="#f48807"/><path d="M746.718,1383.606a.855.855,0,0,1,.106-.123,1.9,1.9,0,0,1,.228-.153c.222-.129.443-.258.655-.4.1-.067.2-.122.307-.182a.061.061,0,0,1,.069.029c.018.041.024.089.068.115a.171.171,0,0,1-.086.184c-.149.087-.293.181-.44.272l-.208.13-.6.377a.064.064,0,0,1-.1-.053.527.527,0,0,1,0-.054C746.717,1383.7,746.718,1383.652,746.718,1383.606Z" transform="translate(-606.252 -1221.585)" fill="#f38102"/><path d="M798.363,1286.889c-.266-.173-.524-.359-.8-.519a7.829,7.829,0,0,1-.681-.454.418.418,0,0,0-.281-.076c0-.092,0-.184,0-.276.068-.113.159-.075.237-.025.514.335,1.049.637,1.532,1.018a.182.182,0,0,1,0,.051C798.367,1286.7,798.365,1286.8,798.363,1286.889Z" transform="translate(-654.701 -1127.132)" fill="#f5930f"/><path d="M861.049,1345.246v-.828c0-.119,0-.237,0-.355a.055.055,0,0,0-.082-.038c-.008,0-.018.005-.025.01q-.5.3-1,.608c-.054.033-.106.072-.158.108a.786.786,0,0,0,0-.135.274.274,0,0,1,.111-.255.805.805,0,0,1,.251-.162c.282-.169.554-.355.852-.5a.5.5,0,0,1,.11.328c0,.265,0,.53,0,.8,0,.109,0,.219,0,.329A.124.124,0,0,1,861.049,1345.246Z" transform="translate(-716.058 -1183.667)" fill="#f69a14"/><path d="M895.194,1139.02c-.022-.016-.042-.041-.066-.045a1.2,1.2,0,0,0-.19-.009.148.148,0,0,1-.16-.12,1.173,1.173,0,0,0-.165-.309.352.352,0,0,0-.082-.069.176.176,0,0,1,.171-.109h.593c.069,0,.111.031.117.119,0,.018,0,.035.006.054,0,.163,0,.325,0,.489Z" transform="translate(-749.815 -984.231)" fill="#f48605"/><path d="M879.16,1249.787a.336.336,0,0,1,.061-.054q.257-.133.515-.262a.369.369,0,0,1,.079-.022.433.433,0,0,1,.115.3c.008.165,0,.33,0,.495,0,.063-.057.092-.117.059a4.249,4.249,0,0,1-.479-.317c-.044-.033-.087-.067-.129-.1A.139.139,0,0,1,879.16,1249.787Z" transform="translate(-734.887 -1092.127)" fill="#f69913"/><path d="M673.245,1340.083H671.81c0-.045,0-.09,0-.135a.1.1,0,0,1,.067-.077.679.679,0,0,1,.081-.008q.641,0,1.283,0C673.245,1339.937,673.245,1340.01,673.245,1340.083Z" transform="translate(-533.499 -1179.938)" fill="#f69c14"/><path d="M902.33,1161.24l.387,0a1.335,1.335,0,0,1-.332.334.622.622,0,0,0-.044-.259A.238.238,0,0,1,902.33,1161.24Z" transform="translate(-757.391 -1006.453)" fill="#f8b449"/><path d="M719.566,1363.172c0-.11,0-.22,0-.331a.273.273,0,0,1-.027-.316.055.055,0,0,1,.082-.015q0,.332,0,.663C719.6,1363.2,719.584,1363.2,719.566,1363.172Z" transform="translate(-579.818 -1201.925)" fill="#f69510"/><path d="M721.76,1385.94h.054c0,.035,0,.071,0,.106a.125.125,0,0,1-.054.114C721.76,1386.088,721.76,1386.014,721.76,1385.94Z" transform="translate(-582.012 -1224.692)" fill="#f58d0a"/><path d="M721.276,1355.461h-.055c-.014-.013-.019-.024-.014-.037s.009-.018.014-.018v-.166a.129.129,0,0,1,.055.114C721.276,1355.39,721.276,1355.425,721.276,1355.461Z" transform="translate(-581.474 -1194.875)" fill="#f69c14"/><path d="M803.51,593.158a.14.14,0,0,0,.119.055c.174,0,.348,0,.523,0,.532-.008.36.072.736-.3q1.646-1.639,3.287-3.285c.058-.058.117-.116.176-.174a.164.164,0,0,1,.125-.044.417.417,0,0,1,.09.336q0,5.088,0,10.176a1.228,1.228,0,0,1-.014.192.637.637,0,0,1-.176.332q-.414.435-.849.848c-.075.071-.166.2-.288.046-.005-2.518,0-5.035,0-7.552a.61.61,0,0,0-.025-.3.111.111,0,0,0-.107-.105c-.064,0-.128,0-.192,0-1.283,0-2.566,0-3.85,0a1.251,1.251,0,0,0-.376.061.16.16,0,0,1-.127-.013c-.176-.074-.4.06-.549-.127a.123.123,0,0,1,.1-.082A7.616,7.616,0,0,1,803.51,593.158Z" transform="translate(-659.955 -451.064)" fill="#f7a219"/><path d="M701.165,844.36a.252.252,0,0,1,.04.07.76.76,0,0,1,.009.137q0,1.735,0,3.469a.864.864,0,0,1-.009.137.22.22,0,0,1-.171.16c-.055.005-.11.006-.165.006h-3.69c-.064,0-.128,0-.192-.009a.145.145,0,0,1-.122-.13c0-.064-.007-.128-.007-.192q0-.8,0-1.6c.039-.048.052-.114.1-.159a3.819,3.819,0,0,1,.506-.484.294.294,0,0,1,.091.006c1.084.013,2.167,0,3.251,0a.365.365,0,0,0,.213-.037.229.229,0,0,0,.071-.187c0-.1,0-.208,0-.313,0-.125,0-.249,0-.374a3.172,3.172,0,0,1,0-.335A.224.224,0,0,1,701.165,844.36Z" transform="translate(-557.826 -698.685)" fill="#f7a219"/><path d="M696.834,676.439q0-1.1,0-2.2,0-1,0-2.007,0-.11,0-.22a.122.122,0,0,1,.051-.092.338.338,0,0,1,.074.262c0,.091,0,.181,0,.271,0,.074,0,.147,0,.221,0,.044,0,.089,0,.133,0,.06,0,.121,0,.181s0,.093.006.14c0,.237.156.253.335.253q1.016,0,2.031,0a1.8,1.8,0,0,1,.383.019c.078.024.136.061.089.157a.659.659,0,0,1-.137.171q-1.3,1.3-2.609,2.608a.553.553,0,0,1-.149.12A.067.067,0,0,1,696.834,676.439Z" transform="translate(-557.8 -531.203)" fill="#f7a219"/><path d="M575.41,1071.589c0,.02,0,.038,0,.057a.136.136,0,0,0-.047.029,1.925,1.925,0,0,1-1.739.671c-2.86-.024-5.719-.01-8.579-.011-.138,0-.276,0-.414-.007a1.387,1.387,0,0,1-1.309-1.069.327.327,0,0,1,0-.273l.007-.007a.477.477,0,0,1,.05.064c.026.048.049.1.073.148a1.338,1.338,0,0,0,1.006.731,2.4,2.4,0,0,0,.27.049c.11.01.22,0,.331,0h8.765c.064,0,.128,0,.193,0a1.6,1.6,0,0,0,.511-.09,1.675,1.675,0,0,0,.5-.284.285.285,0,0,0,.059-.057,1.338,1.338,0,0,0,.269-.5.058.058,0,0,1,.084.022A.571.571,0,0,1,575.41,1071.589Z" transform="translate(-428.1 -918.788)" fill="#f69a14"/><path d="M697.69,728.113c.068-.074.132-.152.2-.223l2.527-2.529a1.059,1.059,0,0,0,.2-.224.032.032,0,0,1,.05-.008l.491,0a.133.133,0,0,1,.117.057,5.52,5.52,0,0,1-.883.9c-.746.729-1.512,1.439-2.255,2.17a.06.06,0,0,0-.011.074.124.124,0,0,0,.091.055c.082,0,.165,0,.247,0h3.076q.124,0,.247,0a.132.132,0,0,1,.095.049c-.12.117-.274.087-.417.087-.971,0-1.941,0-2.912,0-.381,0-.4.024-.4.4,0,.32-.015.641.013.961.006.034.01.067.013.1s-.007.078-.028.1a3,3,0,0,1-.4.393c-.058,0-.083-.029-.082-.082C697.678,729.644,697.634,728.878,697.69,728.113Z" transform="translate(-558.606 -582.874)" fill="#f9be5e"/><path d="M698.741,554.489c0-.091,0-.182,0-.274a.123.123,0,0,1,.092-.053c.073,0,.147,0,.22,0h3.64a.458.458,0,0,1,.082,0,.537.537,0,0,0,.45-.162c.042-.036.08-.076.12-.114a1.79,1.79,0,0,1,.292-.251.615.615,0,0,0,.1-.091,3.946,3.946,0,0,1,.432-.384,1.857,1.857,0,0,0,.2-.189,1.26,1.26,0,0,1,.251-.213.185.185,0,0,0,.043-.034c.2-.215.441-.388.653-.59a1.626,1.626,0,0,1,.229-.2,1.237,1.237,0,0,0,.165-.145,2.736,2.736,0,0,1,.373-.326.932.932,0,0,0,.121-.112,2.717,2.717,0,0,1,.372-.326,1.194,1.194,0,0,0,.142-.13c.061-.055.124-.109.186-.163a.35.35,0,0,1,.043.068.256.256,0,0,1,.009.081q0,.629,0,1.259a.184.184,0,0,1-.049.151c-.084-.07-.077-.169-.081-.264s0-.184,0-.276c0-.06,0-.12,0-.179s0-.117,0-.175c0-.15-.068-.116-.15-.054-.175.134-.333.288-.5.435-.887.8-1.8,1.567-2.669,2.377a1.238,1.238,0,0,1-.909.363c-1.247-.009-2.494-.03-3.741.011A.176.176,0,0,1,698.741,554.489Z" transform="translate(-559.655 -413.498)" fill="#f69a14"/><path d="M712.289,842.2a.309.309,0,0,1-.046-.065.235.235,0,0,1-.008-.082q0-.606,0-1.211c0-.028,0-.055,0-.083a.1.1,0,0,1,.085-.094c.036,0,.073-.008.109-.008h3.442l.165,0a.121.121,0,0,1,.059.107c0,.057,0,.115-.005.173a.589.589,0,0,1-.42.084c-.979,0-1.957,0-2.935,0-.163,0-.346-.022-.37.218,0,.115,0,.23,0,.345,0,.13.005.259,0,.389A.322.322,0,0,1,712.289,842.2Z" transform="translate(-572.761 -695.081)" fill="#f69b14"/><path d="M982.83,741.11l-.053,0q0-1,0-2.01,0-3.8,0-7.6c0-.074,0-.147,0-.221a.136.136,0,0,1,.048.1c0,.092,0,.184,0,.275q0,3.58,0,7.16c0,.092,0,.183,0,.275a.124.124,0,0,0,.052.092,13.882,13.882,0,0,1,.015,1.79A.19.19,0,0,1,982.83,741.11Z" transform="translate(-835.523 -588.856)" fill="#fbbe48"/><path d="M712.728,730.7a.062.062,0,0,1-.027-.092.638.638,0,0,1,.089-.1l.7-.7a1.265,1.265,0,0,1,.188-.16,1.355,1.355,0,0,0,.185-.164l.822-.816a1.538,1.538,0,0,1,.29-.252.793.793,0,0,0,.141-.131c.2-.2.4-.4.608-.6.045-.044.1-.08.148-.12l.058.056a3.755,3.755,0,0,1-.589.573,1.658,1.658,0,0,0-.161.149l-.841.833a1.624,1.624,0,0,1-.268.235,1.033,1.033,0,0,0-.162.149c-.293.29-.585.582-.881.87C712.935,730.521,712.83,730.609,712.728,730.7Z" transform="translate(-573.203 -585.243)" fill="#f7a723"/><path d="M696.932,829.093q0,1.019,0,2.038c0,.083,0,.165,0,.248a.129.129,0,0,0,.053.092.216.216,0,0,1-.11.109q0-1.245,0-2.49A.333.333,0,0,0,696.932,829.093Z" transform="translate(-557.848 -683.854)" fill="#faba48"/><path d="M562.55,1063.481a.111.111,0,0,1-.047-.111A.108.108,0,0,1,562.55,1063.481Z" transform="translate(-427.334 -911.397)" fill="#f7a219"/><path d="M1023.909,559.085q0-3.407,0-6.813v-4q0-.584,0-1.168a.5.5,0,0,1,.213-.05c.064,0,.128,0,.192,0h9.735c.064,0,.13,0,.193,0a2.041,2.041,0,0,1,1.041.313l.21.132a1.22,1.22,0,0,1,.56.929q0,1.9,0,3.794c0,.32,0,.641,0,.962,0,.034,0,.069-.007.1a.248.248,0,0,1-.12.175c-.588.43-1.15.895-1.742,1.318a.219.219,0,0,1-.125.049.193.193,0,0,0-.12.059.067.067,0,0,0,0,.1c.068.046.134.1.206.136.3.162.583.342.873.517.164.1.336.185.5.287s.322.175.468.286a.17.17,0,0,1,.068.113.222.222,0,0,1,.022.106c0,2.165.05,4.33.028,6.5a.681.681,0,0,1-.013.136c-.063.138-.191.129-.308.129q-3.391.006-6.782,0c-.3,0-.371-.069-.375-.381q-.017-1.461,0-2.923c0-.347.1-.441.45-.445.827-.01,1.654,0,2.482,0,.483,0,.483,0,.486-.494,0-.092,0-.184,0-.275.025-.439,0-.88.013-1.319a.353.353,0,0,0-.253-.378q-1.814-.681-3.619-1.391c-.082-.032-.171-.086-.256,0a.734.734,0,0,0-.026.328q0,3.432,0,6.865a.754.754,0,0,1-.014.2.232.232,0,0,1-.229.2l-2.637,0h-.768c-.065,0-.129,0-.193,0-.125,0-.154-.035-.157-.17,0-.055,0-.11,0-.165q0-.6,0-1.209a.524.524,0,0,1-.085-.365c0-.576,0-1.151,0-1.727A1.219,1.219,0,0,1,1023.909,559.085Z" transform="translate(-875.388 -409.927)" fill="#fdd462"/><path d="M706.9,594.067c0,.094,0,.189.007.283a1.348,1.348,0,0,1-.292.289,4.007,4.007,0,0,0-.31.271,1.59,1.59,0,0,1-.271.232.26.26,0,0,0-.043.035c-.155.143-.306.288-.471.42s-.3.3-.475.415c-.214.227-.47.408-.692.626-.052.051-.112.094-.168.141-.028.023-.058.045-.085.069l-.771.7c-.041.037-.085.069-.127.1a.423.423,0,0,1-.207.056c-.09,0-.181,0-.272,0a.371.371,0,0,0-.134.012.938.938,0,0,1-.375.042h-.38a.154.154,0,0,0-.121.05.374.374,0,0,1-.05.009l-.686,0h-1.948c-.073,0-.146-.005-.218-.01a.09.09,0,0,1-.07-.074.788.788,0,0,1-.007-.081c0-.073,0-.147,0-.22.143-.12.314-.081.476-.08,1.164.007,2.327,0,3.491.006a.661.661,0,0,0,.56-.227c.825-.7,1.628-1.423,2.434-2.143.321-.287.656-.558.969-.855C706.722,594.075,706.791,593.993,706.9,594.067Z" transform="translate(-559.644 -455.56)" fill="#f38203"/><path d="M1448.345,876.231q0-.661,0-1.321v-5.173c0-.082,0-.165,0-.248a.139.139,0,0,1,.049.095c0,.073,0,.146,0,.219v1.755c0,.073,0,.146,0,.219a.129.129,0,0,0,.052.092q0,2.808,0,5.617c0,.082,0,.165,0,.247a.118.118,0,0,1-.055.09c-.117-.165-.064-.354-.078-.534.013-.113,0-.225,0-.338.012-.154,0-.308,0-.462C1448.311,876.4,1448.362,876.32,1448.345,876.231Z" transform="translate(-1287.677 -723.092)" fill="#f9b952"/><path d="M1200.428,1131.648v.552a.315.315,0,0,1-.046,0,.045.045,0,0,1-.063,0h0a.657.657,0,0,0-.737-.582q-1.762,0-3.525,0a.9.9,0,0,0-.273.017,1.479,1.479,0,0,1-.4.031c-.135,0-.226.048-.25.189a.168.168,0,0,1-.053.067h-.052c0-.072,0-.144-.006-.216-.037-.04-.074-.085-.135-.084a8.675,8.675,0,0,0-1.285.026,1.261,1.261,0,0,1-.58-.012.135.135,0,0,1,.025-.147.52.52,0,0,1,.391-.1q3.292,0,6.586,0C1200.205,1131.4,1200.4,1131.387,1200.428,1131.648Z" transform="translate(-1039.711 -977.466)" fill="#f48b09"/><path d="M1447.25,1159.5h.063l-.061.054C1447.251,1159.537,1447.251,1159.518,1447.25,1159.5Z" transform="translate(-1286.642 -1004.763)" fill="#f5910d"/><path d="M1380.03,765.452a1.375,1.375,0,0,1,.134-.135c.247-.187.5-.361.746-.556.313-.253.637-.489.958-.73.051-.038.1-.08.149-.12a.138.138,0,0,1,.057.116c0,.072,0,.145,0,.217a11.436,11.436,0,0,1-1.01.8,5.162,5.162,0,0,0-.757.633A.494.494,0,0,1,1380.03,765.452Z" transform="translate(-1221.355 -620.548)" fill="#f69a14"/><path d="M1397.634,788.908a1.17,1.17,0,0,1-.332-.22c-.025-.147.089-.212.178-.283.364-.3.761-.547,1.12-.849.073-.062.156-.1.247-.027v.442C1398.45,788.293,1398.044,788.6,1397.634,788.908Z" transform="translate(-1238.127 -643.447)" fill="#f58c09"/><path d="M1391.516,775.886a.24.24,0,0,0-.22.083,1.367,1.367,0,0,1-.339.273c-.13.084-.246.186-.372.274s-.232.173-.35.258a.934.934,0,0,0-.265.271.2.2,0,0,1-.118-.039c-.033-.026-.068-.048-.1-.071a.332.332,0,0,1,.128-.231,5.738,5.738,0,0,1,.676-.5.267.267,0,0,0,.064-.052,2.828,2.828,0,0,1,.362-.289c.069-.057.142-.113.212-.169a2.813,2.813,0,0,1,.271-.181.142.142,0,0,1,.053-.008Z" transform="translate(-1230.795 -631.805)" fill="#f5940f"/><path d="M1408.97,805.247a.169.169,0,0,1,.07-.14c.182-.132.372-.255.542-.4.11-.094.232-.171.338-.27a.448.448,0,0,1,.263-.127c0,.091,0,.181,0,.272a.207.207,0,0,1-.062.146.632.632,0,0,1-.1.094,4.348,4.348,0,0,0-.512.4,1.154,1.154,0,0,0-.218.161.082.082,0,0,1-.1,0c-.039-.025-.075-.051-.113-.076s-.08-.023-.11-.056Z" transform="translate(-1249.462 -659.787)" fill="#f38203"/><path d="M1408.97,836.92a.113.113,0,0,1,.11.056A.113.113,0,0,1,1408.97,836.92Z" transform="translate(-1249.462 -691.458)" fill="#f58c09"/><path d="M1430.42,559.635a.4.4,0,0,0-.031-.161,2.2,2.2,0,0,0-.257-.423c-.088-.117-.181-.23-.272-.345l.115-.116a.194.194,0,0,0,.048.125,3.236,3.236,0,0,1,.315.445.946.946,0,0,1,.131.357A.109.109,0,0,1,1430.42,559.635Z" transform="translate(-1269.752 -421.132)" fill="#f7a825"/><path d="M1286.854,1136.418a.134.134,0,0,1,.093-.051c.064,0,.128,0,.192,0h3.569c.037,0,.073,0,.11,0a.444.444,0,0,1,.236.057c.041.022.084.039.122.064a.337.337,0,0,1,.1.088.669.669,0,0,1,.156.455.448.448,0,0,1-.052,0,.415.415,0,0,0-.173-.328.805.805,0,0,0-.158-.108.389.389,0,0,0-.21-.057c-.046,0-.092,0-.138,0h-3.527c-.047,0-.092,0-.138,0a.322.322,0,0,0-.181.058A.12.12,0,0,1,1286.854,1136.418Z" transform="translate(-1130.825 -982.291)" fill="#f5910d"/><path d="M1340.03,1253.189a.112.112,0,0,1-.11.048q0-.676,0-1.35a1.093,1.093,0,0,1,.007-.165.127.127,0,0,1,.041-.067.425.425,0,0,1,.094-.058c.183-.084.361-.18.548-.257.21-.088.412-.2.618-.3.058-.028.118-.052.177-.077.021-.009.056.018.056.044,0,.083,0,.165,0,.248a4.963,4.963,0,0,1-1.135.591c-.2.085-.326.2-.283.43,0,.089,0,.178,0,.266a.454.454,0,0,1-.075.315c0,.072,0,.144,0,.216A.139.139,0,0,0,1340.03,1253.189Z" transform="translate(-1182.398 -1093.594)" fill="#f69b14"/><path d="M1341.831,1283.245c0-.11,0-.221,0-.332a4.906,4.906,0,0,1,1.492-.664v.276l-1.289.644A.477.477,0,0,1,1341.831,1283.245Z" transform="translate(-1184.253 -1123.984)" fill="#f48807"/><path d="M1343.3,1271.45a4.407,4.407,0,0,0-.643.3,5.532,5.532,0,0,1-.575.247c-.093.036-.183.079-.273.121,0-.092,0-.184,0-.276a.5.5,0,0,1,.248-.2c.315-.163.65-.283.964-.449.088-.046.183-.09.279-.01Z" transform="translate(-1184.234 -1113.183)" fill="#f58e0b"/><path d="M1343.232,1261.492a.366.366,0,0,0-.185.036c-.056.031-.115.057-.173.085a4.751,4.751,0,0,1-.521.238,2.933,2.933,0,0,0-.345.168l-.269.135c0-.054,0-.109,0-.163a.177.177,0,0,1,.111-.2,2.645,2.645,0,0,1,.322-.145,1.172,1.172,0,0,0,.2-.089l.682-.34a.4.4,0,0,1,.178-.061Q1343.232,1261.326,1343.232,1261.492Z" transform="translate(-1184.165 -1103.5)" fill="#f5940f"/><path d="M1342.286,1185.473a.206.206,0,0,0-.139.055.2.2,0,0,1-.139.056,6.561,6.561,0,0,0-.875-.029c-.125-.007-.26.02-.358-.093-.035-.17.013-.251.208-.24.433.026.869-.029,1.3.03Z" transform="translate(-1183.218 -1029.745)" fill="#f69b14"/><path d="M1264.98,1143.616v-.055a.5.5,0,0,1,.452-.127c.161,0,.177.125.209.237,0,.073,0,.147,0,.221l-.563-.005a.1.1,0,0,1-.091-.083C1264.983,1143.741,1264.983,1143.679,1264.98,1143.616Z" transform="translate(-1109.613 -989.157)" fill="#f38203"/><path d="M1265.642,1138.706c-.012-.012-.031-.023-.036-.039a.16.16,0,0,0-.176-.128,1.377,1.377,0,0,0-.45.057c0-.054,0-.108,0-.161a.106.106,0,0,1,.121-.112c.179,0,.359,0,.537,0,0,.056,0,.113,0,.17S1265.643,1138.634,1265.642,1138.706Z" transform="translate(-1109.613 -984.192)" fill="#f48909"/><path d="M1341.281,1184.367h-1.2c-.064,0-.127,0-.191,0s-.091.038-.1.108c0,.036,0,.072,0,.109a.528.528,0,0,1-.053.663l-.006,0c0-.221,0-.441,0-.661,0-.065.005-.129.009-.192a.094.094,0,0,1,.07-.074.414.414,0,0,1,.054-.009h1.3A.129.129,0,0,1,1341.281,1184.367Z" transform="translate(-1182.214 -1028.859)" fill="#f7a119"/><path d="M1291.71,1249.82l.058-.05Z" transform="translate(-1135.575 -1092.437)" fill="#f9be5e"/><path d="M1336.078,1365l-.058-.05Z" transform="translate(-1178.61 -1204.305)" fill="#f7a219"/><path d="M1156.684,903.352c0,.036,0,.073,0,.11a.28.28,0,0,1,.072.2c.011.292.011.292.448.366a.108.108,0,0,1,.054.06c.008.23-.007.46.007.689a.517.517,0,0,1-.188.463c-.18.146-.174.284.011.421a.331.331,0,0,1,.166.21c.008.054.042.139-.073.133-.055-.048-.112-.094-.167-.143a1.5,1.5,0,0,0-.252-.213.584.584,0,0,1-.1-.089,1.535,1.535,0,0,0-.233-.193,1.049,1.049,0,0,1-.144-.128,1.474,1.474,0,0,0-.231-.195.784.784,0,0,1-.125-.107,1.8,1.8,0,0,0-.272-.231.158.158,0,0,1-.073-.141c0-.166,0-.331,0-.5a.547.547,0,0,0,.2-.546c0-.217-.012-.434,0-.651a3.64,3.64,0,0,1,.024-.513c0-.054,0-.109,0-.164a.629.629,0,0,0,.024-.3c0-1.561.01-3.123-.005-4.685a.759.759,0,0,1,.391-.727.354.354,0,0,1,.294,0c1.156.448,2.32.876,3.469,1.343a.494.494,0,0,1,.125.115c0,.239,0,.478,0,.717,0,.036,0,.073,0,.11a.114.114,0,0,1-.1.111c-.073,0-.147.006-.221.006h-2.756c-.073,0-.147,0-.219.009a.144.144,0,0,0-.113.108c-.007.073-.01.147-.01.219q0,.814,0,1.627c0,.441,0,.882,0,1.323,0,.073.007.147.013.219a.1.1,0,0,0,.074.072.636.636,0,0,0,.082.01c.055,0,.11,0,.165,0h6.7c.073,0,.147,0,.221,0a.141.141,0,0,0,.095-.05.1.1,0,0,1,.05.085c0,.043,0,.086,0,.129-2.3-.05-4.593-.009-6.889-.022-.2,0-.427-.028-.422.283A.743.743,0,0,1,1156.684,903.352Z" transform="translate(-1003.359 -749.279)" fill="#f7a219"/><path d="M1030.943,1117.464q0,.359,0,.717c-.133-.031-.125-.106-.066-.2-.172.11.032.388-.206.471,0-.082-.009-.165-.014-.246a.089.089,0,0,0-.071-.073.423.423,0,0,0-.055-.007l-1.239,0,0-.013a.93.93,0,0,0-.48-.079c-.447-.015-.9.032-1.342-.026-.116,0-.234,0-.35-.006a.147.147,0,0,1-.14-.139c0-.1,0-.2,0-.3a.509.509,0,0,1,.365-.087c.467,0,.934-.012,1.4,0,.642.02,1.279-.056,1.919-.069C1030.753,1117.419,1030.855,1117.393,1030.943,1117.464Z" transform="translate(-878.446 -963.888)" fill="#f5920d"/><path d="M1159.092,1281.535a.572.572,0,0,1-.051-.062c-.02-.03-.027-.075-.053-.091-.148-.094-.24-.252-.4-.33a.474.474,0,0,1-.1-.093.688.688,0,0,0-.191-.154.127.127,0,0,1-.045-.032,4.07,4.07,0,0,0-.436-.372c-.1-.092-.216-.165-.325-.247,0-.073,0-.146,0-.221s.051-.09.113-.051a.39.39,0,0,1,.069.045,1.07,1.07,0,0,0,.257.2c.139.16.331.26.477.414a1.042,1.042,0,0,0,.128.1.909.909,0,0,1,.09.063,1.615,1.615,0,0,0,.235.189.328.328,0,0,1,.179.319.107.107,0,0,0,.05.092C1159.09,1281.387,1159.091,1281.46,1159.092,1281.535Z" transform="translate(-1005.214 -1121.667)" fill="#f48706"/><path d="M1198.6,1162.836a.088.088,0,0,0,.048-.09.157.157,0,0,0-.049-.092,1.99,1.99,0,0,1-.328-.287c-.059-.06-.062-.109-.009-.165.07-.072.141-.143.211-.214l.114-.117a.229.229,0,0,0,.068-.172c0-.137,0-.273,0-.41s0-.255,0-.383c.012-.022.028-.024.047-.008q0,.919,0,1.839c0,.027,0,.055-.007.082s-.036.052-.081.036C1198.61,1162.852,1198.6,1162.842,1198.6,1162.836Z" transform="translate(-1044.774 -1006.111)" fill="#f9bf5d"/><path d="M1155.671,1136.451a.134.134,0,0,0,.048-.094c0-.082,0-.165.005-.247a.205.205,0,0,1,.095-.16.035.035,0,0,1,.026-.007c.014.008.033.02.036.032.008.045,0,.092.016.136.005.024.03.043.046.065,0,.064,0,.128,0,.192a.4.4,0,0,1-.063.208.167.167,0,0,1-.155.095h-.055C1155.67,1136.6,1155.67,1136.524,1155.671,1136.451Z" transform="translate(-1003.446 -981.883)" fill="#f48605"/><path d="M1210.619,1142.408a.378.378,0,0,0-.047.009l-.008-.009a.607.607,0,0,1-.06-.448.234.234,0,0,1,.037-.085.061.061,0,0,1,.082-.015.469.469,0,0,0,0,.056Z" transform="translate(-1056.689 -987.621)" fill="#f7a219"/><path d="M1213.28,1337.856c0,.017,0,.036,0,.053a.073.073,0,0,1-.052-.059Z" transform="translate(-1059.351 -1177.985)" fill="#f69913"/><path d="M564.36,1080.73c.071.042.055.133.1.189a.7.7,0,0,1,.1.164.678.678,0,0,0,.131.176,2.409,2.409,0,0,0,.368.286.555.555,0,0,0,.357.127,1.456,1.456,0,0,0,.544.052h9.1c.055,0,.111,0,.165,0a1.117,1.117,0,0,0,.626-.177.332.332,0,0,0,.086-.068,4.355,4.355,0,0,0,.4-.419c.021-.029.043,0,.061.021a.326.326,0,0,0,.042.034c0,.074,0,.148,0,.221a.186.186,0,0,0-.146.066,1.229,1.229,0,0,0-.08.111,1.14,1.14,0,0,1-.485.393,1.792,1.792,0,0,1-.343.09.911.911,0,0,0-.135.022.668.668,0,0,1-.271.035h-.882a.706.706,0,0,0-.272.033.436.436,0,0,1-.135.021c-.064,0-.128,0-.193,0q-2.438,0-4.876,0a1.235,1.235,0,0,1-.408-.041.813.813,0,0,0-.246-.013h-1.984a2.409,2.409,0,0,1-.571-.062.324.324,0,0,1-.1-.038c-.091-.043-.18-.091-.272-.133a1.045,1.045,0,0,1-.245-.175,1.514,1.514,0,0,1-.425-.726A.921.921,0,0,1,564.36,1080.73Z" transform="translate(-429.139 -928.258)" fill="#f5940f"/><path d="M985.884,965.48q0,1.272,0,2.544a.3.3,0,0,0-.1.03,1.765,1.765,0,0,0-.16.151l-.78.779a.528.528,0,0,1-.169.139q0-.274,0-.548c0-.556,0-1.113,0-1.669a.477.477,0,0,1,.056-.263c.061-.054.125-.106.183-.164q.351-.347.7-.7C985.7,965.685,985.793,965.581,985.884,965.48Z" transform="translate(-837.363 -816.322)" fill="#f9be5e"/><path d="M979,1188.526c0-.11,0-.219,0-.329,0-.076.041-.112.123-.114s.165,0,.247,0h2.6a.143.143,0,0,1,.058.117c0,.147,0,.293,0,.439a.568.568,0,0,1-.393.084c-.439.012-.879-.024-1.317.026a.219.219,0,0,1-.113-.112.2.2,0,0,0-.2-.109c-.218,0-.436,0-.654,0Z" transform="translate(-831.854 -1032.522)" fill="#f69812"/><path d="M1030.953,1102.357a.294.294,0,0,0-.082,0,1.152,1.152,0,0,1-.433.05c-.11,0-.22,0-.33,0a.485.485,0,0,0-.162.015.923.923,0,0,1-.353.039h-2.613c0-.1,0-.2.009-.3a.09.09,0,0,1,.072-.074c.082,0,.164-.01.246-.01h3.086c.083,0,.165,0,.248,0a.123.123,0,0,0,.092-.053.33.33,0,0,1,.057-.052.292.292,0,0,0,.109-.112.143.143,0,0,1,.054.118C1030.953,1102.105,1030.953,1102.231,1030.953,1102.357Z" transform="translate(-878.456 -948.781)" fill="#f69a13"/><path d="M982.052,1271.6c0,.265,0,.53,0,.794a.05.05,0,0,1-.027.039.059.059,0,0,1-.049-.007.787.787,0,0,1-.081-.073c-.071-.071-.146-.139-.212-.214a.38.38,0,0,0-.358-.153.988.988,0,0,1-.137,0h-1.342a1.092,1.092,0,0,1-.018-.432.181.181,0,0,1,.078-.064,17.8,17.8,0,0,1,1.92-.021A.245.245,0,0,1,982.052,1271.6Z" transform="translate(-832.646 -1113.495)" fill="#f58c0a"/><path d="M982.325,1260.442a.464.464,0,0,0-.236-.056c-.21,0-.42,0-.63,0h-1.342c-.058-.365-.026-.411.326-.416.506-.008,1.012-.005,1.517,0,.138,0,.282,0,.366.14Z" transform="translate(-832.919 -1102.34)" fill="#f59410"/><path d="M1039.306,1218.008c0,.119,0,.237-.009.356a.09.09,0,0,1-.068.075.149.149,0,0,1-.026.007c-.247,0-.494,0-.74,0a.165.165,0,0,1-.1-.038,1.052,1.052,0,0,1-.326-.4c-.019-.018-.035-.039-.055-.056h0c-.058-.158.07-.172.161-.18a6.468,6.468,0,0,1,.953,0C1039.25,1217.777,1039.274,1217.894,1039.306,1218.008Z" transform="translate(-889.127 -1061.341)" fill="#f48505"/><path d="M1026.751,1208c-.013-.013-.032-.023-.036-.039a.161.161,0,0,0-.179-.128c-.318.006-.636,0-.954,0l-.054,0c-.067,0-.091.049-.1.107a.9.9,0,0,1-.275-.276c-.019-.018-.036-.038-.055-.055h0a.735.735,0,0,0-.055-.055h0c.01-.059.035-.1.1-.106s.145,0,.218,0h1.391C1026.751,1207.629,1026.751,1207.813,1026.751,1208Z" transform="translate(-876.572 -1051.331)" fill="#f58e0b"/><path d="M1044.21,1136.45c.021-.016.042-.041.066-.045a1.072,1.072,0,0,1,.164-.011h1.346c.046,0,.092,0,.138,0,.063,0,.089.03.1.1a.413.413,0,0,1,0,.055c-.061.042-.053.108-.056.17a.522.522,0,0,1-.365.083,9.793,9.793,0,0,0-1.068.027c-.027-.021-.065-.036-.081-.063a.654.654,0,0,0-.21-.23C1044.228,1136.525,1044.223,1136.481,1044.21,1136.45Z" transform="translate(-895.191 -982.321)" fill="#f48a08"/><path d="M1055.77,1148.026c.009-.059.036-.1.1-.106s.126,0,.19,0h1.141q0,.192,0,.385a5.055,5.055,0,0,1-1.158,0,.661.661,0,0,1-.209-.2C1055.816,1148.078,1055.792,1148.052,1055.77,1148.026Z" transform="translate(-906.419 -993.513)" fill="#f38303"/><path d="M981.272,1255.7a.5.5,0,0,0-.265-.056c-.411,0-.823,0-1.235,0-.164,0-.329,0-.493,0-.046,0-.091.005-.137.01a.093.093,0,0,0-.07.075.754.754,0,0,0-.007.082c0,.055,0,.11,0,.165-.018.024-.035.024-.053,0,0-.147,0-.295,0-.442a.816.816,0,0,0,.059-.057.134.134,0,0,1,.093-.05l.082,0h1.812c.045,0,.091.005.137.009a.1.1,0,0,1,.07.075C981.269,1255.571,981.27,1255.635,981.272,1255.7Z" transform="translate(-831.866 -1097.929)" fill="#f69a13"/><path d="M955.94,1113.614a.363.363,0,0,1,.2-.17.819.819,0,0,0,.412-.331c.031-.053.071-.1.107-.156.02-.028.036-.025.053.018a.149.149,0,0,0,.058.087,1.256,1.256,0,0,1-.069.449.125.125,0,0,1-.118.1c-.1.007-.2.009-.3.006a.47.47,0,0,0-.233.053l-.056-.052h-.055Z" transform="translate(-809.459 -959.542)" fill="#f48706"/><path d="M1065.35,1161.351h1.159a.141.141,0,0,1-.118.054h-.678c-.091,0-.181,0-.271,0A.127.127,0,0,1,1065.35,1161.351Z" transform="translate(-915.723 -1006.56)" fill="#f48a08"/><path d="M979,1274.616h.053v.441H979C979,1274.91,979,1274.763,979,1274.616Z" transform="translate(-831.856 -1116.569)" fill="#f59410"/><path d="M957.85,1136.4l.056.053Z" transform="translate(-811.314 -982.328)" fill="#f58e0b"/><path d="M1026.96,1213.179l.055.056Z" transform="translate(-878.437 -1056.899)" fill="#f69812"/><path d="M1025.05,1211.26l.055.055Z" transform="translate(-876.582 -1055.035)" fill="#f69812"/><path d="M1038.47,1224.71l.055.055Z" transform="translate(-889.616 -1068.098)" fill="#f58e0b"/><path d="M1339.94,1194.644a.153.153,0,0,0,.051-.121c0-.181,0-.362,0-.543h1l.109,0c.066,0,.09.049.1.107a5.347,5.347,0,0,0-.475.26c-.127.084-.274.14-.41.211-.088.046-.175.094-.259.147S1339.951,1194.738,1339.94,1194.644Z" transform="translate(-1182.417 -1038.251)" fill="#f5940f"/><path d="M1212.416,1136.567h-.056a.078.078,0,0,1,0-.111.469.469,0,0,1,.182-.056l1.126,0a.1.1,0,0,1,.054.008.137.137,0,0,1,.057.053.523.523,0,0,1,.014.108Z" transform="translate(-1058.483 -982.327)" fill="#f5910d"/><path d="M722.452,1157.621q0,1.158,0,2.316c0,.037,0,.074,0,.11a.185.185,0,0,1-.05.125c-.168.17-.337.339-.509.5-.023.022-.068.022-.1.032q0-1.6,0-3.2a.278.278,0,0,1,.041.035.162.162,0,0,0,.135.075C722.128,1157.619,722.29,1157.62,722.452,1157.621Z" transform="translate(-582.042 -1002.831)" fill="#f7a21a"/><path d="M616.354,1253.214c-.038.064-.1.054-.16.055,0-.359,0-.718,0-1.076,0-.138,0-.276,0-.414a.124.124,0,0,1,.066-.112c.057-.031.113-.062.171-.091.181-.09.361-.182.544-.268.224-.106.45-.208.676-.311.05-.023.085,0,.087.064,0,.01,0,.018,0,.027q0,.18,0,.359a.465.465,0,0,0-.338.047c-.268.141-.55.254-.824.384a.364.364,0,0,0-.254.428c0,.084,0,.166,0,.25,0,.1,0,.2,0,.3A1.257,1.257,0,0,0,616.354,1253.214Z" transform="translate(-479.477 -1093.622)" fill="#f69b15"/><path d="M618.23,1293.589a.108.108,0,0,1-.109-.12c0-.07,0-.141,0-.211a.483.483,0,0,1,.275-.214c.3-.12.581-.268.869-.407.267-.129.287-.116.343.179,0,.019,0,.037,0,.056a.306.306,0,0,1-.051.054Z" transform="translate(-481.353 -1133.997)" fill="#f38102"/><path d="M619.6,1281.575a.144.144,0,0,1-.055-.119c-.006-.086-.063-.1-.134-.06-.032.017-.065.032-.1.047-.089.044-.178.09-.268.133a5.642,5.642,0,0,1-.542.249,3.538,3.538,0,0,0-.391.191v-.331c.068-.134.2-.178.323-.241.267-.139.552-.242.821-.38s.286-.116.343.178C619.6,1281.355,619.6,1281.465,619.6,1281.575Z" transform="translate(-481.343 -1122.756)" fill="#f48807"/><path d="M618.052,1262.757c0-.054,0-.109,0-.163a.2.2,0,0,1,.136-.209c.2-.1.389-.2.586-.291.114-.054.234-.1.349-.15a1.245,1.245,0,0,0,.26-.148c.041-.032.075-.017.1.043a.175.175,0,0,0,.057.089c0,.111,0,.221,0,.331a.511.511,0,0,0-.416.038c-.265.127-.524.265-.79.39C618.246,1262.73,618.162,1262.8,618.052,1262.757Z" transform="translate(-481.284 -1104.103)" fill="#f59410"/><path d="M618.12,1273.992c.187-.094.374-.186.56-.281a7.446,7.446,0,0,1,.741-.343c.088-.032.085-.036.138.062a.449.449,0,0,0,.049.063v.331a.142.142,0,0,1-.055-.118c-.005-.087-.064-.1-.134-.06-.024.013-.049.023-.073.035-.041.021-.081.042-.122.061-.163.079-.324.16-.494.225s-.326.158-.488.239l-.121.061Z" transform="translate(-481.353 -1115.337)" fill="#f58f0c"/><path d="M668.01,1303.484l.051-.054a.122.122,0,0,1,0,.054h-.052Z" transform="translate(-529.808 -1144.555)" fill="#f48807"/><path d="M745.04,1141.495l.06,0a.125.125,0,0,0,.04.1c.1.092.2.183.3.275a2.455,2.455,0,0,0,.227.195,2.1,2.1,0,0,1,.222.2,2.686,2.686,0,0,0,.368.323.562.562,0,0,1,.105.122c0,.065,0,.129-.059.172l-.361-.339c-.067-.063-.137-.122-.208-.179a3.589,3.589,0,0,1-.342-.32c-.14-.147-.31-.258-.46-.392-.005,0-.017,0-.026,0a.032.032,0,0,0-.032.036c0,.12,0,.239,0,.359-.017,0-.035,0-.052,0v-.5a.484.484,0,0,0,.054-.052c.028-.036.055-.026.083,0,.013.01.028.024.043.024S745.026,1141.5,745.04,1141.495Z" transform="translate(-604.41 -987.257)" fill="#f7a41c"/><path d="M562.494,1071.24c0,.091,0,.182,0,.273h-.055c0-.062,0-.123,0-.185A.112.112,0,0,1,562.494,1071.24Z" transform="translate(-427.274 -919.041)" fill="#f5940f"/><path d="M673.217,1360.98v.056c0,.11,0,.22,0,.331H671.78c0-.128,0-.257,0-.386Z" transform="translate(-533.47 -1200.45)" fill="#f58d0a"/><path d="M796.5,1184.562c.007-.062-.008-.131.059-.172a.767.767,0,0,1,.069.044.263.263,0,0,0,.176.065c.147,0,.293,0,.44,0h.6c.037,0,.073,0,.11.007a.088.088,0,0,1,.077.067,6.388,6.388,0,0,1,.006.8.141.141,0,0,1-.076.109c-.164.1-.316.22-.489.3a.415.415,0,0,0-.068.045.1.1,0,0,1-.128,0c-.171-.105-.341-.213-.511-.32-.054-.034-.107-.071-.16-.107a.222.222,0,0,1-.1-.236c.044-.034.079,0,.115.016l.078.051c.035.021.069.045.1.069s.053.035.079.051a.77.77,0,0,1,.081.054l.082.054a.654.654,0,0,1,.081.055l.079.053a.744.744,0,0,1,.074.05.173.173,0,0,0,.073.035.152.152,0,0,0,.054-.012.658.658,0,0,0,.076-.056c.1-.078.211-.147.318-.219a.3.3,0,0,0,.124-.313c-.006-.157-.106-.2-.24-.2q-.356,0-.711,0a.734.734,0,0,1-.464-.132C796.5,1184.668,796.5,1184.616,796.5,1184.562Z" transform="translate(-654.603 -1028.938)" fill="#f69b14"/><path d="M798.369,1275.612a.488.488,0,0,1-.247-.107c-.134-.092-.271-.182-.406-.274-.3-.206-.622-.375-.913-.593-.015-.01-.034-.015-.048-.025a.146.146,0,0,0-.155,0c0-.119,0-.239,0-.358,0-.024.039-.048.059-.037s.048.027.071.042l.857.547q.278.177.554.357c.054.035.106.073.16.108a.15.15,0,0,1,.069.14C798.371,1275.483,798.37,1275.548,798.369,1275.612Z" transform="translate(-654.701 -1116.186)" fill="#f69a13"/><path d="M797.237,1205.38l-.11-.055c-.017-.021-.038-.036-.056-.055l-.11-.055c-.016-.021-.039-.035-.055-.055l-.11-.055c-.017-.021-.039-.035-.056-.055l-.11-.055v-.111a.125.125,0,0,1,.135-.073,6.982,6.982,0,0,0,1.124.05.34.34,0,0,1,.229.079c0,.045,0,.09,0,.135a.14.14,0,0,1-.066.114,4.983,4.983,0,0,1-.482.3c-.017.02-.039.034-.056.054h-.054c-.017-.02-.039-.034-.056-.054l-.11-.056C797.276,1205.414,797.254,1205.4,797.237,1205.38Z" transform="translate(-654.73 -1048.767)" fill="#f58d0b"/><path d="M798.09,1195.46c-.339,0-.677,0-1.015,0a.662.662,0,0,1-.344-.072c-.047-.026-.088,0-.13.015,0-.11,0-.221,0-.331.042-.012.084-.044.127-.008a.283.283,0,0,0,.2.063c.263,0,.526,0,.789,0h.108c.26,0,.26,0,.264.25C798.091,1195.406,798.09,1195.434,798.09,1195.46Z" transform="translate(-654.701 -1039.291)" fill="#f5940f"/><path d="M714.15,870.774v-.386a.388.388,0,0,1,.282-.087c1.071,0,2.143-.006,3.214,0a.308.308,0,0,1,.308.139c0,.11,0,.221,0,.33a.814.814,0,0,1-.451.087q-1.494,0-2.988,0A.5.5,0,0,1,714.15,870.774Z" transform="translate(-574.621 -723.877)" fill="#f48605"/><path d="M717.944,859.253a.385.385,0,0,0-.209-.055c-.036,0-.073,0-.11,0H714.14v-.331a.5.5,0,0,1,.364-.089q1.538,0,3.077,0a.491.491,0,0,1,.364.089Z" transform="translate(-574.612 -712.688)" fill="#f58d0b"/><path d="M717.945,850.692h-3.8c0-.073,0-.146,0-.219a.1.1,0,0,1,.1-.109c.082,0,.164,0,.247,0h3.456C717.945,850.472,717.945,850.582,717.945,850.692Z" transform="translate(-574.612 -704.512)" fill="#f69510"/><path d="M714.1,886.014q1.6,0,3.208,0a2.226,2.226,0,0,0,.518-.023c.023-.006.052.015.078.024,0,.073,0,.146,0,.219a.241.241,0,0,1-.159.028H714.37a.262.262,0,0,1-.16-.026l-.062.006a.19.19,0,0,1-.048-.01C714.1,886.158,714.1,886.086,714.1,886.014Z" transform="translate(-574.573 -739.116)" fill="#f38002"/><path d="M717.93,894.473h3.394l.3,0a.125.125,0,0,1-.091.053c-.055,0-.11,0-.164,0h-3.184c-.055,0-.11,0-.165,0A.131.131,0,0,1,717.93,894.473Z" transform="translate(-578.292 -747.354)" fill="#f69b14"/><path d="M698.75,567.481a1.3,1.3,0,0,1,.433-.057q1.78,0,3.56,0c.074,0,.147,0,.221,0a.253.253,0,0,0,.177-.061c.084-.07.176-.132.259-.2s.144-.142.216-.213a.478.478,0,0,1,.1-.093,1.556,1.556,0,0,0,.333-.287,1.428,1.428,0,0,1,.251-.213,1.191,1.191,0,0,0,.183-.166,1.945,1.945,0,0,1,.332-.288,1.217,1.217,0,0,0,.2-.188,1.145,1.145,0,0,1,.21-.177.963.963,0,0,0,.165-.144,2.439,2.439,0,0,1,.371-.326,1.42,1.42,0,0,0,.219-.209,1.315,1.315,0,0,1,.251-.213.94.94,0,0,0,.163-.147,1.355,1.355,0,0,1,.293-.248.837.837,0,0,0,.123-.11c.02-.016.05-.036.07-.031.047.01.032.057.033.09,0,.065,0,.129,0,.193a15.833,15.833,0,0,1-1.336,1.225c-.733.651-1.469,1.3-2.2,1.954a.924.924,0,0,1-.666.265c-.688-.01-1.376.008-2.064-.008-.387-.009-.767.072-1.152.057a1.925,1.925,0,0,1-.749-.126C698.75,567.665,698.75,567.573,698.75,567.481Z" transform="translate(-559.664 -426.49)" fill="#f59410"/><path d="M706.937,584.932a.189.189,0,0,0-.125.047l-.176.173a1.578,1.578,0,0,1-.29.249,1.068,1.068,0,0,0-.181.166,1.565,1.565,0,0,1-.249.213,1.394,1.394,0,0,0-.2.184,1.945,1.945,0,0,1-.31.268,1.454,1.454,0,0,0-.22.206,1.308,1.308,0,0,1-.271.23.73.73,0,0,0-.142.127,1.8,1.8,0,0,1-.311.267,1.236,1.236,0,0,0-.2.187,2.174,2.174,0,0,1-.289.25,1.775,1.775,0,0,0-.278.264.851.851,0,0,1-.289.2,1.329,1.329,0,0,1-1.076.286c-.824.009-1.647,0-2.47-.009a9.842,9.842,0,0,1-1.089-.056v-.165a.539.539,0,0,1,.4-.074c1.174,0,2.349-.006,3.523,0a.911.911,0,0,0,.659-.264c.724-.645,1.448-1.292,2.181-1.928.373-.324.741-.655,1.109-.984.084-.075.154-.2.3-.12Z" transform="translate(-559.684 -446.425)" fill="#f48807"/><path d="M698.76,577.337c.092,0,.184,0,.276,0a.382.382,0,0,1,.135.018.7.7,0,0,0,.271.036c.111,0,.221,0,.332,0a.487.487,0,0,0,.163-.017.863.863,0,0,1,.326-.037h2.429c.064,0,.129,0,.193,0a.451.451,0,0,0,.347-.141l.176-.175a.472.472,0,0,1,.1-.093,1.51,1.51,0,0,0,.333-.287,1.341,1.341,0,0,1,.252-.212.942.942,0,0,0,.163-.147,1.939,1.939,0,0,1,.352-.307,1,1,0,0,0,.16-.15,1.647,1.647,0,0,1,.332-.288.732.732,0,0,0,.141-.131,1.826,1.826,0,0,1,.291-.251,1.5,1.5,0,0,0,.221-.206,1.406,1.406,0,0,1,.272-.232.881.881,0,0,0,.163-.147,2.364,2.364,0,0,1,.352-.308,1.553,1.553,0,0,0,.239-.227.205.205,0,0,1,.147-.065c0,.055,0,.11,0,.165a8.09,8.09,0,0,1-.966.9c-.9.792-1.8,1.6-2.7,2.387a.54.54,0,0,1-.369.155c-1.351.005-2.7-.006-4.052.005a.2.2,0,0,1-.079-.024Q698.76,577.447,698.76,577.337Z" transform="translate(-559.674 -436.069)" fill="#f58e0b"/><path d="M698.75,583.142a.415.415,0,0,1,.21-.056c.064,0,.129,0,.193,0h3.586c.055,0,.111,0,.165,0a.315.315,0,0,0,.294-.117.216.216,0,0,1,.06-.056,1.923,1.923,0,0,0,.393-.342,1.126,1.126,0,0,1,.19-.158,1.311,1.311,0,0,0,.186-.162,1.831,1.831,0,0,1,.353-.306.653.653,0,0,0,.121-.112,1.8,1.8,0,0,1,.312-.269,1.239,1.239,0,0,0,.2-.188,1.806,1.806,0,0,1,.291-.251,1.489,1.489,0,0,0,.221-.206,1.452,1.452,0,0,1,.271-.231,1.145,1.145,0,0,0,.182-.167,1.243,1.243,0,0,1,.251-.213.741.741,0,0,0,.144-.127c.086-.083.166-.173.257-.25s.191-.141.287-.211v.166a.186.186,0,0,0-.126.047l-.2.193a1.144,1.144,0,0,1-.19.158,1.232,1.232,0,0,0-.185.163,1.8,1.8,0,0,1-.352.305.671.671,0,0,0-.121.112,1.779,1.779,0,0,1-.311.268,1.229,1.229,0,0,0-.2.188,1.8,1.8,0,0,1-.291.251,1.5,1.5,0,0,0-.221.206,1.315,1.315,0,0,1-.271.231.75.75,0,0,0-.143.128,1.726,1.726,0,0,1-.312.268,1.129,1.129,0,0,0-.181.169,1.519,1.519,0,0,1-.312.268.722.722,0,0,0-.141.13c-.053.051-.1.1-.157.155a.438.438,0,0,1-.324.128c-.064,0-.128,0-.193,0h-3.94C698.75,583.216,698.75,583.178,698.75,583.142Z" transform="translate(-559.664 -441.654)" fill="#f58d0a"/><path d="M698.77,700.861a1.167,1.167,0,0,1,.459-.054.243.243,0,0,1,.082.008,1.186,1.186,0,0,0,.461.046c.247,0,.495,0,.742,0a.615.615,0,0,1,.191.012,2.517,2.517,0,0,0,.709.04.154.154,0,0,0,.054-.007,2.3,2.3,0,0,1,.763-.038,1.755,1.755,0,0,0,.188,0c.118-.012.238-.005.357-.009a.594.594,0,0,0,.426-.155.247.247,0,0,1,.2-.065.815.815,0,0,1-.223.24.383.383,0,0,1-.254.091c-.073,0-.147,0-.22,0H698.77Z" transform="translate(-559.684 -559.097)" fill="#f48706"/><path d="M1167.659,676.9a.2.2,0,0,1-.1.184,1.18,1.18,0,0,1-.144.08c-.328.164-.652.337-.986.487-.72.323-1.414.7-2.126,1.035-.257.121-.516.238-.77.364-.017.008-.035.013-.052.019a.065.065,0,0,1-.071-.026.659.659,0,0,1-.043-.13,1.55,1.55,0,0,1,0-.192q0-1.486,0-2.973c0-.064,0-.128,0-.193a.143.143,0,0,1,.045-.1.292.292,0,0,1,.08.224c.008.112,0,.224,0,.337s-.008.254,0,.382a1.977,1.977,0,0,0,.014.327c.083.125.213.087.327.087h3a1.67,1.67,0,0,1,.411.024c.151.068.107.134-.016.164a1.826,1.826,0,0,1-.549.016.671.671,0,0,0-.584.238c-.2.224-.423.427-.647.653.583-.327,1.184-.576,1.767-.862a1.059,1.059,0,0,0,.253-.162.143.143,0,0,1,.189.012Z" transform="translate(-1010.915 -534.641)" fill="#f7a219"/><path d="M1168.4,840.218a.109.109,0,0,1-.106-.052,1.6,1.6,0,0,1-.019-.35c0-.1,0-.208,0-.311s0-.205,0-.308c.026-.2-.113-.262-.268-.32-1.279-.473-2.536-1-3.824-1.447a.092.092,0,0,1-.054-.057c.013-.118-.034-.24.031-.353l1.309.5c.359.138.717.28,1.076.418l1.052.4c.172.065.344.127.515.191.052.02.1.048.151.069a.211.211,0,0,1,.142.212C1168.4,839.282,1168.4,839.75,1168.4,840.218Z" transform="translate(-1011.654 -691.556)" fill="#f69a13"/><path d="M1165.075,672.123c0-.075,0-.151-.005-.227a.108.108,0,0,1,.109-.1c.055,0,.111,0,.165,0h3.664c.064,0,.128,0,.192.008a.148.148,0,0,1,.114.106.568.568,0,0,1,.008.082c0,.45,0,.9,0,1.35h-.053a.381.381,0,0,1-.077-.276c0-.113,0-.226,0-.34s0-.23,0-.344c-.021-.243-.2-.223-.368-.223-.918,0-1.837,0-2.756,0A4.748,4.748,0,0,1,1165.075,672.123Z" transform="translate(-1012.576 -531.077)" fill="#f69b14"/><path d="M1163.294,837.02c0,.128,0,.256-.007.384a.291.291,0,0,1,.076.221c.006.108,0,.217,0,.326s0,.237,0,.355a.258.258,0,0,0,.2.306c.077.025.183.046.17.172a2.952,2.952,0,0,0-.4.378.175.175,0,0,0-.046.126c0,.083,0,.165,0,.248v4.593c0,.082,0,.165,0,.247a.14.14,0,0,1-.047.1c0-.092,0-.183,0-.276v-6.839c0-.083,0-.166,0-.248A.11.11,0,0,1,1163.294,837.02Z" transform="translate(-1010.791 -691.555)" fill="#f9bc58"/><path d="M1193.97,1107.9c0-.1,0-.2.009-.3a.087.087,0,0,1,.07-.074c.073,0,.146-.01.22-.01h6.692a1.224,1.224,0,0,0,.165,0,.264.264,0,0,1,.236.111c0,.166,0,.331,0,.5a2.314,2.314,0,0,0-.788-.077q-3.032,0-6.067,0C1194.319,1108.041,1194.117,1108.073,1193.97,1107.9Z" transform="translate(-1040.645 -954.269)" fill="#f69913"/><path d="M1193.951,1121.05a1.371,1.371,0,0,0,.46.056h6.467a1.368,1.368,0,0,0,.219,0c.126-.021.183.048.226.148a.083.083,0,0,0,.02.019v.331c-.007-.006-.016-.011-.02-.019-.042-.1-.1-.171-.226-.147a.73.73,0,0,1-.138,0h-6.634c-.055,0-.11,0-.165,0a.406.406,0,0,0-.21.056C1193.951,1121.344,1193.951,1121.2,1193.951,1121.05Z" transform="translate(-1040.626 -967.419)" fill="#f5910d"/><path d="M1194.531,1138.3c0,.037,0,.073,0,.111,0,.019,0,.037,0,.056a1.192,1.192,0,0,1-.548.109v-.221a.431.431,0,0,1,.2-.055C1194.3,1138.3,1194.415,1138.3,1194.531,1138.3Z" transform="translate(-1040.654 -984.169)" fill="#f48909"/><path d="M1165.478,880.9a.288.288,0,0,0-.06-.054c-.049-.024-.1-.041-.153-.062-.24-.1-.237-.037-.227-.325.087-.136.2-.054.294-.022.576.189,1.136.422,1.7.637.661.251,1.323.5,1.979.765a.6.6,0,0,1,.22.11c0,.072,0,.144,0,.217a.141.141,0,0,1-.056.117c-.043-.014-.087-.026-.13-.042-.077-.028-.154-.059-.23-.088l-.924-.351-.614-.238c-.393-.153-.788-.3-1.177-.46-.168-.071-.347-.116-.513-.194A.358.358,0,0,0,1165.478,880.9Z" transform="translate(-1012.541 -733.668)" fill="#f38102"/><path d="M1193.98,1144.178a.531.531,0,0,0,.069-.044.251.251,0,0,1,.176-.066c.1,0,.2,0,.3,0,0,.164,0,.329,0,.493-.135,0-.27,0-.4,0a.147.147,0,0,1-.141-.138C1193.98,1144.341,1193.981,1144.26,1193.98,1144.178Z" transform="translate(-1040.654 -989.775)" fill="#f48505"/><path d="M806.22,1217.02l.055.055Z" transform="translate(-664.044 -1060.629)" fill="#f5940f"/><path d="M811.98,1220.86l.055.055Z" transform="translate(-669.638 -1064.359)" fill="#f5940f"/><path d="M817.73,1224.7l.055.054Z" transform="translate(-675.223 -1068.089)" fill="#f5940f"/><path d="M800.46,1213.179l.055.055Z" transform="translate(-658.45 -1056.899)" fill="#f5940f"/><path d="M823.49,1228.55l.055.054Z" transform="translate(-680.818 -1071.828)" fill="#f5940f"/><path d="M827.32,1228.6l.055-.055Z" transform="translate(-684.537 -1071.828)" fill="#f5940f"/><path d="M1169.491,701.471v.331a.59.59,0,0,1-.421.086c-1.028,0-2.057.006-3.085,0a4.808,4.808,0,0,1-.684.027q0-.165,0-.331c.06-.217.243-.2.4-.2.984,0,1.968,0,2.951,0,.175,0,.349,0,.524,0A.441.441,0,0,1,1169.491,701.471Z" transform="translate(-1012.799 -559.817)" fill="#f48606"/><path d="M1169.481,690.272h-3.819a1,1,0,0,1-.137,0,.258.258,0,0,0-.234.111c0-.128,0-.257,0-.386a.3.3,0,0,1,.308-.139c1.2-.007,2.4-.006,3.6,0a.394.394,0,0,1,.283.086Z" transform="translate(-1012.789 -548.619)" fill="#f58d0a"/><path d="M1169.442,681.733H1165.6c-.046,0-.092,0-.137,0a.377.377,0,0,0-.209.056c0-.111,0-.221,0-.331a.391.391,0,0,1,.21-.056c.055,0,.11,0,.165,0h3.465c.082,0,.165,0,.247,0a.1.1,0,0,1,.1.108C1169.441,681.586,1169.441,681.659,1169.442,681.733Z" transform="translate(-1012.751 -540.41)" fill="#f5940f"/><path d="M1165.33,716.051c.024-.013.049-.025.073-.039a.6.6,0,0,1,.317-.072c.716,0,1.432,0,2.149,0h1.651v.276l-.115.006a.114.114,0,0,1-.157,0c-.174,0-.347-.006-.522-.006l-2.993,0a.977.977,0,0,0-.326.03c-.033.012-.07-.021-.073-.061S1165.331,716.1,1165.33,716.051Z" transform="translate(-1012.828 -573.957)" fill="#f38002"/><path d="M1231.917,725.76h.156a.1.1,0,0,1-.042.1c-.055.032-.112.061-.17.089-.643.315-1.3.609-1.932.938-.043.023-.078.02-.073,0a.139.139,0,0,1,.03-.069c.3-.307.61-.611.914-.917a.287.287,0,0,1,.22-.093c.248,0,.5,0,.744,0A.2.2,0,0,0,1231.917,725.76Z" transform="translate(-1075.499 -583.495)" fill="#f9bd5d"/><path d="M1169.345,868.744a.592.592,0,0,1-.266-.048c-.208-.093-.418-.184-.633-.257a2.736,2.736,0,0,1-.358-.129c-.106-.053-.219-.092-.329-.137a.149.149,0,0,0-.025-.011,3.738,3.738,0,0,1-.687-.265,1.794,1.794,0,0,1-.287-.085,1.686,1.686,0,0,0-.249-.113c-.1-.039-.207-.071-.311-.106a.612.612,0,0,1-.1-.034,3.651,3.651,0,0,0-.664-.255,1.139,1.139,0,0,1-.15-.065c-.049-.024-.089,0-.132.016v-.386c.083-.131.2-.071.293-.034,1.222.468,2.439.946,3.664,1.408a.39.39,0,0,1,.239.172Z" transform="translate(-1012.653 -720.467)" fill="#f48706"/><path d="M1169.345,858.644c-.2-.075-.388-.162-.588-.224-.1-.033-.206-.075-.307-.117-.531-.222-1.081-.4-1.606-.631-.334-.1-.644-.259-.976-.361-.139-.043-.27-.11-.406-.165-.059-.024-.121-.04-.18-.065a.175.175,0,0,0-.131.019v-.332c.11-.078.214-.016.312.022,1.251.472,2.492.972,3.747,1.433a.43.43,0,0,1,.136.091Q1169.345,858.479,1169.345,858.644Z" transform="translate(-1012.653 -710.699)" fill="#f58f0c"/><path d="M1169.335,851.013a1.355,1.355,0,0,1-.161-.027c-.176-.052-.345-.122-.516-.189-.545-.216-1.1-.406-1.639-.635-.168-.071-.345-.122-.513-.194-.3-.128-.619-.227-.922-.358a2.147,2.147,0,0,0-.443-.143c0-.074,0-.147,0-.22a.2.2,0,0,1,.206-.011c.183.083.373.149.56.223l.281.112c.314.123.633.236.947.364.177.073.362.128.539.2.295.124.6.226.895.347.219.09.441.177.668.249a.13.13,0,0,1,.1.143C1169.334,850.922,1169.335,850.968,1169.335,851.013Z" transform="translate(-1012.643 -703.399)" fill="#f5940f"/></g></svg>