<svg id="Capa_1" enable-background="new 0 0 512 512" height="512" viewBox="0 0 512 512" width="512" xmlns="http://www.w3.org/2000/svg"><g><path d="m361 29.999v156.996h-180c-13.79 0-25 11.21-25 24.999v57.999h-73.86l-56.62 55.689c-9.384 9.253-25.52 2.649-25.52-10.69v-284.993c0-16.539 13.46-29.999 30-29.999h301c16.54 0 30 13.46 30 29.999z" fill="#ff641a"/><path d="m361 29.999v156.996c-.265 0-180.236-.006-180.5.01v-187.005h150.5c16.54 0 30 13.46 30 29.999z" fill="#f24022"/><path d="m482 181.996h-301c-16.542 0-30 13.458-30 29.999v209.995c0 16.542 13.458 29.999 30 29.999h248.859l56.622 55.692c9.441 9.287 25.519 2.591 25.519-10.694v-284.992c0-16.542-13.458-29.999-30-29.999z" fill="#8cf6f9"/><path d="m512 211.995v284.993c0 13.302-16.091 19.987-25.52 10.69l-56.62-55.689h-98.36v-269.993h150.5c16.54 0 30 13.459 30 29.999z" fill="#83ebff"/><path d="m226 270.993h210c8.284 0 15-6.716 15-15s-6.716-15-15-15h-210c-8.284 0-15 6.716-15 15 0 8.285 6.716 15 15 15z" fill="#6dddf7"/><path d="m451 255.994c0 8.28-6.72 15-15 15h-104.5v-29.999h104.5c8.28-.001 15 6.719 15 14.999z" fill="#5fd3f2"/><path d="m226 330.992h150c8.284 0 15-6.716 15-15s-6.716-15-15-15h-150c-8.284 0-15 6.716-15 15s6.716 15 15 15z" fill="#6dddf7"/><path d="m391 315.992c0 8.28-6.72 15-15 15h-44.5v-29.999h44.5c8.28 0 15 6.719 15 14.999z" fill="#5fd3f2"/><path d="m436 360.991h-210c-8.284 0-15 6.716-15 15s6.716 15 15 15h210c8.284 0 15-6.716 15-15s-6.716-15-15-15z" fill="#6dddf7"/><path d="m451 375.991c0 8.28-6.72 15-15 15h-104.5v-29.999h104.5c8.28-.001 15 6.719 15 14.999z" fill="#5fd3f2"/><circle cx="436" cy="315.992" fill="#5fd3f2" r="15"/><path d="m76 90.998h210c8.284 0 15-6.716 15-15s-6.716-15-15-15h-210c-8.284 0-15 6.716-15 15s6.716 15 15 15z" fill="#f24022"/><path d="m301 75.998c0 8.28-6.72 15-15 15h-105.5v-29.999h105.5c8.28 0 15 6.719 15 14.999z" fill="#d8190f"/><path d="m226 120.997h-150c-8.284 0-15 6.716-15 15s6.716 15 15 15h150c8.284 0 15-6.716 15-15s-6.716-15-15-15z" fill="#f24022"/><path d="m241 135.997c0 8.28-6.72 15-15 15h-45.5v-29.999h45.5c8.28-.001 15 6.719 15 14.999z" fill="#d8190f"/><circle cx="286" cy="135.997" fill="#d8190f" r="15"/><path d="m106 180.996h-30c-8.284 0-15 6.716-15 15s6.716 15 15 15h30c8.284 0 15-6.716 15-15 0-8.285-6.716-15-15-15z" fill="#f24022"/></g></svg>