<?xml version="1.0" encoding="utf-8"?>
<!-- Generator: Adobe Illustrator 16.0.0, SVG Export Plug-In . SVG Version: 6.00 Build 0)  -->
<!DOCTYPE svg PUBLIC "-//W3C//DTD SVG 1.1//EN" "http://www.w3.org/Graphics/SVG/1.1/DTD/svg11.dtd">
<svg version="1.1" id="Layer_1" xmlns="http://www.w3.org/2000/svg" xmlns:xlink="http://www.w3.org/1999/xlink" x="0px" y="0px"
	 width="512px" height="512px" viewBox="0 0 512 512" enable-background="new 0 0 512 512" xml:space="preserve">
<path fill="#04D481" d="M373.813,448.125c0,7.324-4.121,14.066-10.703,17.27c-0.039,0.02-0.074,0.035-0.109,0.055
	C330.668,481.172,294.367,490,256,490s-74.676-8.82-107.008-24.543c-6.609-3.215-10.805-9.922-10.805-17.277v-0.016
	c0-5.754-4.664-10.414-10.414-10.414h-15.996c-4.656,0-9.16-1.633-12.73-4.617l-0.059-0.047C45.211,388.141,11,320.566,11,245
	C11,109.867,120.403,0.285,255.469,0c134.379-0.285,244.57,108.848,245.523,243.223c0.543,76.285-33.781,144.566-87.984,189.863
	c-0.02,0.016-0.035,0.031-0.055,0.047c-3.605,3.012-8.18,4.617-12.879,4.617h-15.883
	C378.461,437.75,373.813,442.395,373.813,448.125z"/>
<path fill="#FDD78D" d="M423,299h-70c-11.047,0-20,8.953-20,20v20c0,11.047,8.953,20,20,20h10v20H149v-20h10
	c11.047,0,20-8.953,20-20v-20c0-11.047-8.953-20-20-20H89c-11.047,0-20,8.953-20,20v20c0,11.047,8.953,20,20,20h10v74.074
	c8.062,6.738,16.566,12.969,25.457,18.641c7.887,5.027,16.078,9.617,24.543,13.734V439h214v26.453
	c18.012-8.762,34.785-19.664,50-32.379V359h10c11.047,0,20-8.953,20-20v-20C443,307.953,434.047,299,423,299z M149,419v-20h214v20
	H149z"/>
<path fill="#FDE5BD" d="M280,399H148.129c-2.062,5.82-7.602,10-14.129,10c-8.285,0-15-6.715-15-15V214c0-8.285,6.715-15,15-15
	s15,6.715,15,15v85h10c11.047,0,20,8.953,20,20v20c0,11.047-8.953,20-20,20h-10v20h131c5.523,0,10,4.477,10,10S285.524,399,280,399z
	 M329,419h-99c-5.523,0-10,4.477-10,10s4.477,10,10,10h99c5.523,0,10-4.477,10-10S334.524,419,329,419z M423,299h-10v-85
	c0-8.285-6.715-15-15-15s-15,6.715-15,15v180c0,8.285,6.715,15,15,15s15-6.715,15-15v-35h10c11.047,0,20-8.953,20-20v-20
	C443,307.953,434.047,299,423,299z"/>
<path fill="#0680AE" d="M497,339H15c-8.285,0-15-6.715-15-15V44c0-8.285,6.715-15,15-15h482c8.285,0,15,6.715,15,15v280
	C512,332.285,505.285,339,497,339z"/>
<path fill="#3691BB" d="M497,339H45c-8.285,0-15-6.715-15-15V44c0-8.285,6.715-15,15-15h452c8.285,0,15,6.715,15,15v280
	C512,332.285,505.285,339,497,339z"/>
<path fill="#056099" d="M234,219H54c-5.523,0-10-4.477-10-10V69c0-5.523,4.477-10,10-10h180c5.523,0,10,4.477,10,10v140
	C244,214.523,239.524,219,234,219z M244,299v-40c0-5.523-4.477-10-10-10H54c-5.523,0-10,4.477-10,10v40c0,5.523,4.477,10,10,10h180
	C239.524,309,244,304.523,244,299z M480,209V69c0-5.523-4.477-10-10-10H290c-5.523,0-10,4.477-10,10v140c0,5.523,4.477,10,10,10h180
	C475.524,219,480,214.523,480,209z M480,299v-40c0-5.523-4.477-10-10-10H290c-5.523,0-10,4.477-10,10v40c0,5.523,4.477,10,10,10h180
	C475.524,309,480,304.523,480,299z"/>
<path fill="#0571B3" d="M114,79H84c-11.027,0-20,8.973-20,20v80c0,11.027,8.973,20,20,20h30c11.027,0,20-8.973,20-20V99
	C134,87.973,125.028,79,114,79z M114,99l0.004,30H84V99H114z M114,179H84v-30h30.008l0.004,30C114.012,179,114.008,179,114,179z
	 M199,79h-30c-11.027,0-20,8.973-20,20v80c0,11.027,8.973,20,20,20h30c11.027,0,20-8.973,20-20V99C219,87.973,210.028,79,199,79z
	 M199,99l0.004,30H169V99H199z M199,179h-30v-30h30.008l0.004,30C199.012,179,199.008,179,199,179z M350,79h-30
	c-11.027,0-20,8.973-20,20v80c0,11.027,8.973,20,20,20h30c11.027,0,20-8.973,20-20V99C370,87.973,361.028,79,350,79z M350,99
	l0.004,30H320V99H350z M350,179h-30v-30h30.008l0.004,30C350.012,179,350.008,179,350,179z M450,139c0,5.523-4.477,10-10,10h-40
	c-5.523,0-10-4.477-10-10s4.477-10,10-10h40C445.524,129,450,133.477,450,139z"/>
<path fill="#00F1A5" d="M210.75,289.5H77.25c-5.801,0-10.5-4.703-10.5-10.5c0-5.801,4.699-10.5,10.5-10.5h133.5
	c5.801,0,10.5,4.699,10.5,10.5C221.25,284.797,216.551,289.5,210.75,289.5z"/>
<path fill="#FD7A7A" d="M446.75,289.5h-133.5c-5.801,0-10.5-4.703-10.5-10.5c0-5.801,4.699-10.5,10.5-10.5h133.5
	c5.801,0,10.5,4.699,10.5,10.5C457.25,284.797,452.551,289.5,446.75,289.5z"/>
<path fill="#FDF385" d="M220,89.5v29c0,5.797-4.699,10.5-10.5,10.5s-10.5-4.703-10.5-10.5v-29c0-5.801,4.699-10.5,10.5-10.5
	S220,83.699,220,89.5z M209.5,149c-5.801,0-10.5,4.699-10.5,10.5v29c0,5.797,4.699,10.5,10.5,10.5s10.5-4.703,10.5-10.5v-29
	C220,153.699,215.301,149,209.5,149z M455,99v80c0,11.027-8.973,20-20,20h-30c-11.027,0-20-8.973-20-20V99c0-11.027,8.973-20,20-20
	h30C446.028,79,455,87.973,455,99z M435.012,179L435,99h-30v80h30H435.012z"/>
</svg>
