<?xml version="1.0" encoding="iso-8859-1"?>
<!-- Generator: Adobe Illustrator 24.0.1, SVG Export Plug-In . SVG Version: 6.00 Build 0)  -->
<svg version="1.1" id="Capa_1" xmlns="http://www.w3.org/2000/svg" xmlns:xlink="http://www.w3.org/1999/xlink" x="0px" y="0px"
	 viewBox="0 0 512 512" style="enable-background:new 0 0 512 512;" xml:space="preserve">
<g>
	<path style="fill:#C6DDEB;" d="M502.895,436.264c-2.235,20.604-18.739,36.747-39.384,38.375
		c-138.344,10.91-276.678,10.91-415.021,0c-20.645-1.628-37.149-17.771-39.384-38.375c-9.323-85.949-11.487-171.887-6.49-257.835
		c0.824-14.392,1.854-28.783,3.101-43.175c0.999-11.641,2.122-23.272,3.389-34.903c2.235-20.594,18.739-36.747,39.384-38.374
		c138.344-10.899,276.678-10.899,415.021,0c20.645,1.628,37.149,17.781,39.384,38.374c1.267,11.631,2.39,23.262,3.389,34.903
		c1.246,14.392,2.277,28.783,3.101,43.175C514.381,264.377,512.218,350.315,502.895,436.264L502.895,436.264z"/>
	<path style="fill:#E5E5E5;" d="M509.385,178.428H2.615c0.824-14.392,1.854-28.783,3.101-43.175h500.568
		C507.531,149.645,508.561,164.037,509.385,178.428L509.385,178.428z"/>
	<path style="fill:#DA4A54;" d="M508.339,161.948H3.66c1.401-20.532,3.214-41.063,5.439-61.585
		c2.235-20.604,18.739-36.757,39.394-38.385c138.334-10.899,276.678-10.899,415.011,0c20.655,1.628,37.159,17.781,39.384,38.385
		C505.115,120.885,506.927,141.416,508.339,161.948z"/>
	<g>
		<path style="fill:#F1D333;" d="M105.857,115.389c-12.109,0-21.925-9.816-21.925-21.925V51.11c0-12.109,9.816-21.925,21.925-21.925
			s21.925,9.816,21.925,21.925v42.353C127.782,105.573,117.966,115.389,105.857,115.389z"/>
		<path style="fill:#F1D333;" d="M406.143,115.389c-12.109,0-21.925-9.816-21.925-21.925V51.11c0-12.109,9.816-21.925,21.925-21.925
			c12.109,0,21.925,9.816,21.925,21.925v42.353C428.068,105.573,418.252,115.389,406.143,115.389z"/>
	</g>
	<g>
		<path style="fill:#E7A52E;" d="M113.777,113.913c-2.452,0.948-5.13,1.473-7.922,1.473c-12.105,0-21.923-9.818-21.923-21.923
			V51.102c0-12.105,9.818-21.923,21.923-21.923c2.792,0,5.47,0.525,7.922,1.473c-8.19,3.173-14.011,11.137-14.011,20.45v42.362
			C99.766,102.777,105.587,110.74,113.777,113.913z"/>
		<path style="fill:#E7A52E;" d="M414.059,113.913c-2.452,0.948-5.12,1.473-7.912,1.473c-12.115,0-21.933-9.818-21.933-21.923
			V51.102c0-12.105,9.818-21.923,21.933-21.923c2.792,0,5.46,0.525,7.912,1.473c-8.19,3.173-14.011,11.137-14.011,20.45v42.362
			C400.048,102.777,405.869,110.74,414.059,113.913z"/>
	</g>
	<g>
		<path style="fill:#4073C8;" d="M86.734,387.194c-4.267,0-7.726-3.459-7.726-7.727V246.936H56.755
			c-4.267,0-7.726-3.459-7.726-7.726s3.459-7.726,7.726-7.726h29.979c4.267,0,7.726,3.459,7.726,7.726v140.258
			C94.46,383.734,91.001,387.194,86.734,387.194L86.734,387.194z"/>
	</g>
	<g>
		<path style="fill:#4073C8;" d="M174.539,387.214c-26.497,0-28.338-0.614-29.377-0.96c-2.708-0.902-4.723-2.924-5.53-5.546
			c-1.474-4.794,0.492-7.369,8.77-18.208c7.158-9.373,20.483-26.82,42.796-58.702c7.114-10.165,11.698-19.381,13.629-27.401
			l0.576-4.506c-0.248-15.317-12.785-27.7-28.159-27.7c-13.43,0-25.052,9.545-27.634,22.696c-0.822,4.187-4.882,6.912-9.071,6.093
			c-4.187-0.822-6.915-4.883-6.093-9.071c4.003-20.379,22.001-35.171,42.797-35.171c24.05,0,43.616,19.566,43.616,43.616
			c0,0.327-0.021,0.655-0.062,0.98l-0.694,5.425c-0.033,0.257-0.078,0.513-0.137,0.765c-2.327,10.04-7.747,21.188-16.108,33.135
			c-22.353,31.939-35.777,49.533-43.037,59.038c13.716,0.124,36.923-0.012,58.16-0.28c4.273-0.071,7.769,3.362,7.823,7.629
			c0.053,4.267-3.362,7.769-7.629,7.823C199.43,387.118,185.046,387.214,174.539,387.214L174.539,387.214z"/>
	</g>
	<g>
		<path style="fill:#61A2F9;" d="M446.496,243.5H290.278c-4.267,0-7.726-3.459-7.726-7.726s3.459-7.726,7.726-7.726h156.218
			c4.267,0,7.727,3.459,7.727,7.726C454.223,240.04,450.763,243.5,446.496,243.5L446.496,243.5z"/>
		<path style="fill:#61A2F9;" d="M446.496,282.212H290.278c-4.267,0-7.726-3.459-7.726-7.726s3.459-7.727,7.726-7.727h156.218
			c4.267,0,7.727,3.459,7.727,7.727C454.223,278.752,450.763,282.212,446.496,282.212L446.496,282.212z"/>
		<path style="fill:#61A2F9;" d="M446.496,320.924H290.278c-4.267,0-7.726-3.459-7.726-7.727c0-4.267,3.459-7.726,7.726-7.726
			h156.218c4.267,0,7.727,3.459,7.727,7.726S450.763,320.924,446.496,320.924L446.496,320.924z"/>
		<path style="fill:#61A2F9;" d="M446.496,359.635H290.278c-4.267,0-7.726-3.459-7.726-7.727s3.459-7.726,7.726-7.726h156.218
			c4.267,0,7.727,3.459,7.727,7.726S450.763,359.635,446.496,359.635L446.496,359.635z"/>
		<path style="fill:#61A2F9;" d="M446.496,398.347H290.278c-4.267,0-7.726-3.459-7.726-7.726s3.459-7.727,7.726-7.727h156.218
			c4.267,0,7.727,3.459,7.727,7.727S450.763,398.347,446.496,398.347L446.496,398.347z"/>
	</g>
</g>
</svg>
