<?xml version="1.0" encoding="iso-8859-1"?>
<!-- Generator: Adobe Illustrator 16.0.0, SVG Export Plug-In . SVG Version: 6.00 Build 0)  -->
<!DOCTYPE svg PUBLIC "-//W3C//DTD SVG 1.1//EN" "http://www.w3.org/Graphics/SVG/1.1/DTD/svg11.dtd">
<svg version="1.1" id="Layer_1" xmlns="http://www.w3.org/2000/svg" xmlns:xlink="http://www.w3.org/1999/xlink" x="0px" y="0px"
	 width="191px" height="191.5px" viewBox="13.5 0 191 191.5" style="enable-background:new 13.5 0 191 191.5;" xml:space="preserve"
	>
<g>
	<path style="fill:#C7DDEB;" d="M189.198,19.3h-83.01c-6.883,0-12.514,5.149-12.514,11.441v29.367
		c0,6.293,5.631,11.441,12.514,11.441h7.286h2.517l-1.505,23.046l19.68-23.046h55.033c6.882,0,12.513-5.148,12.513-11.441V30.741
		C201.711,24.449,196.08,19.3,189.198,19.3z"/>
	<g>
		<g>
			<g>
				<g>
					<g>
						<path style="fill:#7EB9C7;" d="M50.292,141.764c12.319,0.665,22.445-9.968,21.835-22.925
							c-0.522-11.096-9.087-20.118-19.638-20.691c-12.327-0.669-22.463,9.974-21.845,22.934
							C31.173,132.176,39.741,141.195,50.292,141.764z"/>
						<path style="fill:#7EB9C7;" d="M81.667,188.856c4.321,0.005,7.543-4.156,6.702-8.612
							c-3.579-18.949-18.268-35.913-35.868-35.932c-17.597-0.019-32.321,16.915-35.939,35.855c-0.851,4.455,2.362,8.623,6.684,8.627
							L81.667,188.856z"/>
					</g>
				</g>
			</g>
			<g>
				<g>
					<path style="fill:none;stroke:#CCCBCB;stroke-width:3.7443;stroke-miterlimit:10;" d="M60.645,140.499
						c12.954,0.665,23.601-9.968,22.958-22.924c-0.55-11.096-9.556-20.12-20.651-20.692c-12.961-0.67-23.619,9.971-22.968,22.933
						C40.542,130.91,49.551,139.93,60.645,140.499z"/>
					<path style="fill:none;stroke:#CCCBCB;stroke-width:3.7443;stroke-miterlimit:10;" d="M93.639,187.593
						c4.543,0.004,7.932-4.156,7.046-8.611c-3.763-18.95-19.21-35.915-37.718-35.936c-18.503-0.019-33.985,16.915-37.789,35.855
						c-0.894,4.455,2.484,8.622,7.029,8.627L93.639,187.593z"/>
				</g>
			</g>
			<g>
				<g>
					<g id="XMLID_3_">
						<g>
							<path style="fill:#CCCBCB;" d="M146.366,158.67l-4.348-4.354c14.219-14.327,14.271-37.377,0.148-51.767l4.352-4.354
								C163.048,114.991,162.995,141.934,146.366,158.67z"/>
						</g>
					</g>
					<g id="XMLID_2_">
						<g>
							<path style="fill:#CCCBCB;" d="M137.682,149.981l-4.351-4.35c9.427-9.534,9.475-24.805,0.149-34.398l4.352-4.35
								C149.563,118.884,149.514,138.045,137.682,149.981z"/>
						</g>
					</g>
					<g id="XMLID_1_">
						<g>
							<path style="fill:#CCCBCB;" d="M128.997,141.296l-4.354-4.352c4.617-4.722,4.667-12.242,0.15-17.021l4.35-4.351
								C136.062,122.76,136.015,134.17,128.997,141.296z"/>
						</g>
					</g>
				</g>
			</g>
			<g>
				<path style="fill:#F5FAFC;" d="M112.445,145.888l-32.77-6.247c-2.857-0.544-4.994-6.012-4.994-10.229v-4.141
					c0-4.218,2.137-9.685,4.994-10.229l32.77-6.247c3.434-0.654,6.477,3.258,6.477,8.326v20.442
					C118.922,142.631,115.879,146.543,112.445,145.888z"/>
				<path style="fill:#F04F4C;stroke:#CCCBCB;stroke-width:3.2504;stroke-miterlimit:10;" d="M76.027,118.633
					c-5.471,0-9.906,4.236-9.906,9.461c0,5.228,4.435,9.463,9.906,9.463"/>
				<path style="fill:#FDC345;stroke:#CCCBCB;stroke-width:3.2504;stroke-miterlimit:10;" d="M92.148,141.103
					c0,0-7.735,7.967-1.455,16.215c0.516,0.679,0.014,1.656-0.839,1.656h-8.046c-1.004,0-1.818-0.813-1.818-1.817v-18.025"/>
				<path style="fill:#FDC345;" d="M110.064,144.61l-31.038-4.354c-2.706-0.379-4.731-4.188-4.731-7.126v-2.885
					c0-2.938,2.025-6.747,4.731-7.127l31.038-4.353c3.251-0.456,6.133,2.271,6.133,5.801v14.242
					C116.197,142.34,113.315,145.065,110.064,144.61z"/>
				<path style="fill:none;stroke:#CCCBCB;stroke-width:3.2504;stroke-miterlimit:10;" d="M112.445,145.888l-32.77-6.247
					c-2.857-0.544-4.994-6.012-4.994-10.229v-4.141c0-4.218,2.137-9.685,4.994-10.229l32.77-6.247
					c3.434-0.654,6.477,3.258,6.477,8.326v20.442C118.922,142.631,115.879,146.543,112.445,145.888z"/>
				
					<line style="fill:#FDC345;stroke:#3D4451;stroke-width:3.2504;stroke-miterlimit:10;" x1="112.415" y1="108.26" x2="112.415" y2="144.646"/>
			</g>
		</g>
	</g>
	<path style="fill:none;stroke:#CCCBCB;stroke-width:4.7383;stroke-miterlimit:10;" d="M179.518,7.021H91.713
		c-7.281,0-13.237,5.936-13.237,13.191v33.855c0,7.254,5.956,13.19,13.237,13.19h7.707h2.663l-1.593,26.569l20.817-26.569h58.211
		c7.281,0,13.238-5.936,13.238-13.19V20.211C192.756,12.956,186.799,7.021,179.518,7.021z"/>
	<g>
		<path style="fill:#3D4451;" d="M105.876,42.967h-5.49c-1.127,0-2.042-0.914-2.042-2.042v-5.489c0-1.128,0.915-2.042,2.042-2.042
			h5.49c1.127,0,2.041,0.913,2.041,2.042v5.489C107.917,42.054,107.003,42.967,105.876,42.967z"/>
		<path style="fill:#3D4451;" d="M128.4,42.967h-5.49c-1.127,0-2.042-0.914-2.042-2.042v-5.489c0-1.128,0.915-2.042,2.042-2.042
			h5.49c1.127,0,2.041,0.913,2.041,2.042v5.489C130.441,42.054,129.527,42.967,128.4,42.967z"/>
		<path style="fill:#3D4451;" d="M150.926,42.967h-5.492c-1.126,0-2.04-0.914-2.04-2.042v-5.489c0-1.128,0.914-2.042,2.04-2.042
			h5.492c1.127,0,2.04,0.913,2.04,2.042v5.489C152.966,42.054,152.053,42.967,150.926,42.967z"/>
		<path style="fill:#3D4451;" d="M173.45,42.967h-5.49c-1.128,0-2.042-0.914-2.042-2.042v-5.489c0-1.128,0.914-2.042,2.042-2.042
			h5.49c1.127,0,2.041,0.913,2.041,2.042v5.489C175.491,42.054,174.577,42.967,173.45,42.967z"/>
	</g>
</g>
</svg>
