<svg height="512pt" viewBox="0 -61 512 512" width="512pt" xmlns="http://www.w3.org/2000/svg"><path d="m100.050781 194.992188c-1.980469 0-3.957031-.757813-5.46875-2.265626-3.023437-3.023437-3.023437-7.921874 0-10.941406l157.917969-157.917968c1.449219-1.453126 3.417969-2.265626 5.46875-2.265626h.03125c2.0625.007813 4.035156.835938 5.480469 2.308594l153.980469 156.410156c2.996093 3.042969 2.960937 7.945313-.085938 10.941407-3.046875 2.996093-7.945312 2.957031-10.941406-.085938l-148.507813-150.855469-152.402343 152.40625c-1.511719 1.507813-3.492188 2.265626-5.472657 2.265626zm0 0" fill="#152c37"/><path d="m484.570312 389.449219h-457.140624c-15.148438 0-27.429688-12.28125-27.429688-27.429688v-184.042969c0-15.152343 12.28125-27.433593 27.429688-27.433593h457.140624c15.148438 0 27.429688 12.28125 27.429688 27.433593v184.042969c0 15.148438-12.28125 27.429688-27.429688 27.429688zm0 0" fill="#f1edf0"/><path d="m30.949219 362.019531v-184.042969c0-15.152343 12.28125-27.433593 27.429687-27.433593h-30.949218c-15.148438 0-27.429688 12.28125-27.429688 27.433593v184.042969c0 15.148438 12.28125 27.429688 27.429688 27.429688h30.949218c-15.148437 0-27.429687-12.28125-27.429687-27.429688zm0 0" fill="#c9c6ca"/><path d="m286.164062 30.164062c0 16.660157-13.503906 30.164063-30.164062 30.164063s-30.164062-13.503906-30.164062-30.164063c0-16.660156 13.503906-30.164062 30.164062-30.164062s30.164062 13.503906 30.164062 30.164062zm0 0" fill="#ff636f"/><path d="m256.785156 30.164062c0-11 5.890625-20.625 14.6875-25.894531-4.523437-2.707031-9.816406-4.269531-15.472656-4.269531-16.660156 0-30.164062 13.503906-30.164062 30.164062 0 16.660157 13.503906 30.164063 30.164062 30.164063 5.65625 0 10.949219-1.5625 15.472656-4.269531-8.796875-5.269532-14.6875-14.894532-14.6875-25.894532zm0 0" fill="#fe4455"/><g fill="#152c37"><path d="m75.792969 232.035156c7.53125 0 22.179687 2.476563 22.179687 11.554688 0 3.710937-2.578125 6.910156-6.398437 6.910156-4.226563 0-7.117188-3.609375-15.78125-3.609375-12.792969 0-19.394531 10.832031-19.394531 23.417969 0 12.273437 6.703124 22.796875 19.394531 22.796875 8.664062 0 12.171875-4.332031 16.402343-4.332031 4.640626 0 6.808594 4.640624 6.808594 7.015624 0 9.902344-15.578125 12.171876-23.210937 12.171876-20.941407 0-35.488281-16.609376-35.488281-37.964844 0-21.457032 14.441406-37.960938 35.488281-37.960938zm0 0"/><path d="m122.726562 240.699219c0-5.160157 3.300782-8.046875 7.734376-8.046875 4.4375 0 7.738281 2.886718 7.738281 8.046875v51.785156h18.363281c5.261719 0 7.53125 3.921875 7.425781 7.429687-.207031 3.402344-2.886719 6.808594-7.425781 6.808594h-25.789062c-5.054688 0-8.046876-3.300781-8.046876-8.460937zm0 0"/><path d="m180.285156 269.996094c0-21.457032 14.441406-37.960938 35.484375-37.960938 20.738281 0 35.488281 17.019532 35.488281 37.960938 0 21.355468-14.339843 37.964844-35.488281 37.964844-20.941406 0-35.484375-16.609376-35.484375-37.964844zm54.878906 0c0-12.480469-6.5-23.726563-19.394531-23.726563s-19.390625 11.246094-19.390625 23.726563c0 12.585937 6.289063 23.726562 19.390625 23.726562 13.101563 0 19.394531-11.140625 19.394531-23.726562zm0 0"/><path d="m317.582031 242.351562c0 4.019532-2.683593 7.632813-6.910156 7.632813-4.230469 0-7.53125-3.09375-13.722656-3.09375-4.433594 0-8.457031 2.371094-8.457031 6.703125 0 10.625 34.453124 3.816406 34.453124 30.433594 0 14.75-12.171874 23.933594-26.40625 23.933594-7.945312 0-25.070312-1.859376-25.070312-11.554688 0-4.023438 2.683594-7.324219 6.914062-7.324219 4.847657 0 10.625 4.023438 17.332032 4.023438 6.808594 0 10.519531-3.820313 10.519531-8.875 0-12.171875-34.453125-4.847657-34.453125-28.78125 0-14.441407 11.863281-23.417969 25.582031-23.417969 5.777344.003906 20.21875 2.167969 20.21875 10.320312zm0 0"/><path d="m346.050781 242.246094c0-5.15625 2.578125-8.976563 8.046875-8.976563h25.582032c4.953124 0 7.324218 3.507813 7.324218 7.121094 0 3.507813-2.476562 7.117187-7.324218 7.117187h-18.15625v15.0625h16.917968c5.054688 0 7.53125 3.507813 7.53125 7.117188 0 3.507812-2.578125 7.117188-7.53125 7.117188h-16.917968v15.679687h19.085937c4.949219 0 7.324219 3.507813 7.324219 7.121094 0 3.507812-2.476563 7.117187-7.324219 7.117187h-26.617187c-4.539063 0-7.941407-3.09375-7.941407-7.738281zm0 0"/><path d="m410.3125 241.214844c0-4.746094 3.300781-7.945313 7.945312-7.945313h17.125c23.105469 0 36.3125 14.859375 36.3125 37.757813 0 21.664062-14.03125 35.695312-35.285156 35.695312h-17.945312c-3.40625 0-8.152344-1.859375-8.152344-7.738281zm15.472656 51.269531h10.421875c13.308594 0 19.394531-9.796875 19.394531-22.179687 0-13.203126-6.191406-22.796876-20.425781-22.796876h-9.390625zm0 0"/></g></svg>