<?xml version="1.0" encoding="utf-8"?>
<!-- Generator: Adobe Illustrator 16.0.0, SVG Export Plug-In . SVG Version: 6.00 Build 0)  -->
<!DOCTYPE svg PUBLIC "-//W3C//DTD SVG 1.1//EN" "http://www.w3.org/Graphics/SVG/1.1/DTD/svg11.dtd">
<svg version="1.1" id="Layer_1" xmlns="http://www.w3.org/2000/svg" xmlns:xlink="http://www.w3.org/1999/xlink" x="0px" y="0px"
	 width="212px" height="219px" viewBox="0 0 212 219" enable-background="new 0 0 212 219" xml:space="preserve">
<g>
	<g>
		<path fill="#C6DDEA" stroke="#FFFFFF" stroke-width="1.6024" stroke-miterlimit="10" d="M68.371,81.186h-6.833
			c-3.364,0-6.089-2.727-6.089-6.09V55.184c0-3.362,2.725-6.089,6.089-6.089h6.832c3.363,0,6.09,2.727,6.09,6.089v19.914
			C74.46,78.459,71.734,81.186,68.371,81.186z"/>
		<path fill="#C6DDEA" stroke="#FFFFFF" stroke-width="1.6024" stroke-miterlimit="10" d="M159.949,81.186h-7.076
			c-3.394,0-6.146-2.752-6.146-6.147V55.242c0-3.395,2.753-6.146,6.146-6.146h7.076c3.395,0,6.148,2.752,6.148,6.146v19.797
			C166.098,78.434,163.344,81.186,159.949,81.186z"/>
		<path fill="none" stroke="#FCFDFF" stroke-width="3.8239" stroke-miterlimit="10" d="M68.226,81.186h-7.453
			c-3.443,0-6.235-2.791-6.235-6.233V55.329c0-3.442,2.792-6.233,6.235-6.233h7.453c3.443,0,6.235,2.791,6.235,6.233v19.624
			C74.46,78.395,71.669,81.186,68.226,81.186z"/>
		<path fill="none" stroke="#FCFDFF" stroke-width="3.8239" stroke-miterlimit="10" d="M161.418,82.009h-7.455
			c-3.442,0-6.234-2.791-6.234-6.233V56.152c0-3.444,2.792-6.234,6.234-6.234h7.455c3.443,0,6.234,2.791,6.234,6.234v19.622
			C167.652,79.218,164.861,82.009,161.418,82.009z"/>
		
			<line fill="none" stroke="#FCFDFF" stroke-width="1.7813" stroke-miterlimit="10" x1="66.427" y1="49.918" x2="66.427" y2="81.186"/>
		
			<line fill="none" stroke="#FCFDFF" stroke-width="1.7813" stroke-miterlimit="10" x1="155.119" y1="51.563" x2="155.119" y2="82.833"/>
	</g>
	<path fill="none" stroke="#FFFFFF" stroke-width="4.2654" stroke-miterlimit="10" d="M62.974,49.095
		c0,0-1.532-18.548,18.549-18.548c27.92,0,53.672,0,53.672,0s20.932,0.508,20.932,20.932"/>
</g>
<path fill="#FCC345" d="M131.142,11.023c-0.048-0.883-0.104-1.762-0.171-2.628H89.883c-0.068,0.866-0.123,1.745-0.17,2.628H78.066
	l0.367,2.695c0.398,2.933,4.125,28.011,14.934,29.417c2.88,9.056,7.189,15.714,12.198,18.368v18.644H93.2v5.556h12.365h9.736h12.308
	v-5.556h-12.308v-18.65c4.996-2.653,9.295-9.295,12.174-18.328c11.044-0.97,14.838-26.492,15.239-29.45l0.366-2.695L131.142,11.023
	L131.142,11.023z M83.342,15.75h6.226c-0.002,0.24-0.008,0.48-0.008,0.723c0,7.544,0.814,14.667,2.258,20.959
	C87.938,34.235,84.809,24.211,83.342,15.75z M128.973,37.708c1.483-6.361,2.32-13.582,2.32-21.234c0-0.243-0.008-0.482-0.01-0.723
	h6.523C136.294,24.469,133.021,34.85,128.973,37.708z"/>
<polygon fill="#FCC345" points="123.294,140.446 140.608,140.446 127.297,157.114 138.132,157.106 114.655,181.853 122.287,162.527 
	114.755,162.527 "/>
<g>
	<path fill="#EF514D" stroke="#FFFFFF" stroke-width="3.7324" stroke-miterlimit="10" d="M62.909,109.691l6.037,15.414
		c-18.744,3.384-38.123,23.311-38.123,23.311l1.27-23.311l-18.425-7.518c0,0,23.828-25.191,44.795-25.191"/>
	<path fill="#EF514D" stroke="#FFFFFF" stroke-width="3.7324" stroke-miterlimit="10" d="M160.76,109.691l-6.039,15.414
		c18.745,3.384,38.124,23.311,38.124,23.311l-1.271-23.311L210,117.588c0,0-23.827-25.191-44.794-25.191"/>
	<g>
		<path fill="#C6DDEA" d="M190.438,85.345c-4.924,11.095-9.844,22.19-14.761,33.284c-42.445-29.632-85.875-29.631-128.322,0
			c-4.92-11.094-9.84-22.19-14.761-33.284C83.839,48.686,139.193,48.678,190.438,85.345z"/>
	</g>
	<g>
		<path fill="#EF514D" stroke="#FFFFFF" stroke-width="3.4463" stroke-miterlimit="10" d="M181.264,87.763
			c-4.751,8.278-3.927,9.604-8.677,17.881c-43.62-23.991-79.671-23.654-123.016,0.817c-3.182-8.279-3.989-9.602-8.961-17.88
			C88.599,60.277,133.045,59.743,181.264,87.763z"/>
	</g>
	<g>
		<path fill="#C6DDEA" stroke="#FFFFFF" stroke-width="1.6024" stroke-miterlimit="10" d="M112.018,101.499
			c7.569,0.388,13.793-5.824,13.419-13.396c-0.322-6.483-5.584-11.759-12.068-12.095c-7.576-0.392-13.806,5.828-13.424,13.403
			C100.27,95.896,105.536,101.166,112.018,101.499z"/>
		<path fill="#C6DDEA" stroke="#FFFFFF" stroke-width="1.6024" stroke-miterlimit="10" d="M147.515,90.104l-0.916-0.916
			c-1.75-1.75-4.588-1.75-6.339,0l-16.816,16.819c-3.033-1.897-6.447-3.015-10.069-3.02c-3.413-0.002-6.649,0.983-9.552,2.68
			L87.344,89.188c-1.75-1.749-4.588-1.749-6.336,0l-0.916,0.917c-1.75,1.749-1.75,4.588,0,6.337l16.184,16.184
			c-2.42,3.323-4.167,7.239-4.986,11.316c-0.523,2.604,1.451,5.038,4.107,5.042l35.901,0.04c2.655,0.004,4.636-2.429,4.118-5.033
			c-0.77-3.883-2.381-7.619-4.613-10.84l16.712-16.709C149.263,94.69,149.263,91.853,147.515,90.104z"/>
	</g>
</g>
<path fill="none" stroke="#CCCBCB" stroke-width="3.3592" stroke-miterlimit="10" d="M60.218,138.029
	c0,0,14.086,48.649,47.96,63.211c0,0,45.612-23.827,51.986-63.211"/>
<path fill="none" stroke="#CCCBCB" stroke-width="4.4788" stroke-miterlimit="10" d="M49.229,138.765
	c0,0,17.184,58.985,58.501,76.642c0,0,55.641-28.892,63.415-76.642"/>
<path fill="#FCC345" d="M175.794,12.755l-8.021-2.668c-0.374-0.125-0.655-0.437-0.739-0.824L165.249,1l-2.669,8.022
	c-0.125,0.373-0.438,0.655-0.823,0.737l-8.264,1.786l8.023,2.668c0.373,0.125,0.654,0.438,0.739,0.824l1.784,8.264l2.669-8.023
	c0.125-0.373,0.438-0.655,0.824-0.737L175.794,12.755z"/>
<path fill="#FCC345" d="M53.122,22.571l-7.842-3.16c-0.366-0.148-0.627-0.478-0.687-0.868l-1.27-8.357l-3.161,7.841
	c-0.148,0.366-0.478,0.626-0.867,0.687l-8.36,1.27l7.843,3.161c0.366,0.147,0.626,0.478,0.686,0.868l1.271,8.358l3.161-7.842
	c0.148-0.366,0.478-0.626,0.869-0.687L53.122,22.571z"/>
<path fill="#FCC345" d="M206.69,52.729l-7.843-3.161c-0.367-0.147-0.627-0.477-0.687-0.868l-1.271-8.357l-3.162,7.841
	c-0.146,0.366-0.475,0.626-0.867,0.687l-8.358,1.271l7.845,3.16c0.365,0.148,0.625,0.477,0.683,0.867l1.272,8.358l3.16-7.842
	c0.147-0.366,0.477-0.626,0.866-0.686L206.69,52.729z"/>
<path fill="#FCC345" d="M26.138,66.221l-7.842-3.162c-0.366-0.148-0.627-0.476-0.686-0.867l-1.271-8.358l-3.16,7.841
	c-0.148,0.367-0.478,0.626-0.868,0.687l-8.358,1.271l7.842,3.16c0.366,0.149,0.626,0.477,0.686,0.868l1.271,8.358l3.159-7.842
	c0.148-0.366,0.478-0.626,0.869-0.686L26.138,66.221z"/>
<g>
	<path fill="#3D4451" d="M112.293,41.791v3.559h-2.395v-3.461c-2.22-0.01-4.285-0.514-6.198-1.508v-4.543
		c0.635,0.514,1.579,0.99,2.837,1.427s2.378,0.688,3.361,0.753V32.05c-2.557-0.951-4.305-1.981-5.239-3.092
		c-0.934-1.108-1.4-2.462-1.4-4.058c0-1.715,0.605-3.178,1.819-4.386c1.215-1.208,2.822-1.909,4.822-2.107v-3.049h2.394v2.986
		c2.307,0.109,4.028,0.481,5.165,1.114v4.428c-1.529-0.928-3.251-1.498-5.165-1.706v6.215c2.393,0.863,4.111,1.85,5.146,2.96
		c1.04,1.109,1.56,2.451,1.56,4.025c0,1.815-0.58,3.277-1.739,4.385C116.101,40.875,114.444,41.55,112.293,41.791z M109.897,27.443
		v-5.198c-1.521,0.274-2.278,1.066-2.278,2.378C107.619,25.749,108.377,26.688,109.897,27.443z M112.293,32.985v4.968
		c1.563-0.239,2.345-1.021,2.345-2.345C114.637,34.537,113.856,33.664,112.293,32.985z"/>
</g>
<g>
	<polyline fill="#FCC345" points="97.849,173.076 101.891,181.21 119.987,141.069 112.507,141.427 101.458,165.263 	"/>
	<polygon fill="#FCC345" points="99.974,162.003 90.628,141.464 82.135,141.44 96.348,170.051 	"/>
</g>
</svg>
