<?xml version="1.0" encoding="iso-8859-1"?>
<!-- Generator: Adobe Illustrator 24.0.1, SVG Export Plug-In . SVG Version: 6.00 Build 0)  -->
<svg version="1.1" id="Layer_1" xmlns="http://www.w3.org/2000/svg" xmlns:xlink="http://www.w3.org/1999/xlink" x="0px" y="0px"
	 viewBox="0 0 312.432 385.06" style="enable-background:new 0 0 312.432 385.06;" xml:space="preserve">
<g>
	<path style="fill:#7EB9C7;" d="M19.659,380.238c0,0,28.765-64.203,128.337-64.203s129.812,64.203,129.812,64.203"/>
	<g>
		<g>
			<g>
				<g>
					<g>
						<path style="fill:#CCCBCB;" d="M215.43,158.42c19.783-0.56,34.725-16.303,32.219-33.943
							c-2.146-15.107-16.911-26.423-33.855-25.949c-19.796,0.554-34.752,16.31-32.233,33.956
							C183.717,147.59,198.486,158.9,215.43,158.42z"/>
					</g>
				</g>
				<path style="fill:#CCCBCB;" d="M168.545,236.12l-24.205-7.259c-8.094-2.428-12.432-10.306-9.689-17.597l21.466-57.056
					c2.743-7.291,11.528-11.233,19.623-8.806h0c21.462,6.437,32.965,27.326,25.692,46.658l-13.263,35.254
					C185.425,234.605,176.64,238.547,168.545,236.12z"/>
				<polyline style="fill:none;stroke:#CCCBCB;stroke-width:31.781;stroke-linecap:round;stroke-miterlimit:10;" points="
					169.831,223.252 205.655,246.474 206.692,291.962 				"/>
				<polyline style="fill:none;stroke:#CCCBCB;stroke-width:31.781;stroke-linecap:round;stroke-miterlimit:10;" points="
					144.212,220.574 129.319,254.372 95.974,299.433 				"/>
				<polyline style="fill:none;stroke:#CCCBCB;stroke-width:26.21;stroke-linecap:round;stroke-miterlimit:10;" points="
					179.53,158.099 150.342,147.113 139.485,111.136 				"/>
			</g>
			<path style="fill:#CCCBCB;" d="M192.111,164.989h118.156v4.106c0,3.68-3.209,6.664-7.168,6.664h-11.367l-0.037,6.565
				c-1.362,3.797-5.184,6.359-9.489,6.359h-90.096"/>
			
				<line style="fill:none;stroke:#CCCBCB;stroke-width:9.3534;stroke-miterlimit:10;" x1="89.724" y1="210.611" x2="194.299" y2="27.7"/>
			<polygon style="fill:#F04F4C;stroke:#CCCBCB;stroke-width:9.8031;stroke-miterlimit:10;" points="196.361,25.189 109.14,10.956 
				172.524,65.21 			"/>
		</g>
		<path style="fill:none;stroke:#CCCBCB;stroke-width:4.7383;stroke-miterlimit:10;" d="M3.63,377.748
			c0,0,34.409-76.801,153.519-76.801s155.284,76.801,155.284,76.801"/>
	</g>
</g>
</svg>
