<svg xmlns="http://www.w3.org/2000/svg" width="24.108" height="23.497" viewBox="0 0 24.108 23.497">
  <path id="Icon_awesome-arrow-left" data-name="Icon awesome-arrow-left" d="M13.854,24.571,12.66,25.765a1.286,1.286,0,0,1-1.824,0L.376,15.311a1.286,1.286,0,0,1,0-1.824l10.46-10.46a1.286,1.286,0,0,1,1.824,0l1.195,1.195a1.293,1.293,0,0,1-.022,1.846L7.349,12.244H22.813A1.288,1.288,0,0,1,24.1,13.535v1.722a1.288,1.288,0,0,1-1.291,1.291H7.349l6.484,6.177A1.283,1.283,0,0,1,13.854,24.571Z" transform="translate(0.004 -2.647)" fill="#fff"/>
</svg>
