<svg id="money" xmlns="http://www.w3.org/2000/svg"  viewBox="0 0 49.995 49.995">
  <path id="Path_30997" data-name="Path 30997" d="M198.112,182a16.112,16.112,0,1,0,16.112,16.112A16.13,16.13,0,0,0,198.112,182Zm0,14.647a4.383,4.383,0,0,1,1.465,8.518v3.2h-2.929v-3.2a4.387,4.387,0,0,1-2.929-4.124h2.929a1.465,1.465,0,1,0,1.465-1.465,4.383,4.383,0,0,1-1.465-8.518v-3.2h2.929v3.2a4.387,4.387,0,0,1,2.929,4.124h-2.929a1.465,1.465,0,1,0-1.465,1.465Z" transform="translate(-164.228 -164.228)" fill="#fff"/>
  <path id="Path_30998" data-name="Path 30998" d="M16.307,17.772c9.034,0,16.112-3.861,16.112-8.788S25.341,0,16.307,0,0,4.056,0,8.983,7.273,17.772,16.307,17.772Z" transform="translate(0 0)" fill="#fff"/>
  <path id="Path_30999" data-name="Path 30999" d="M0,337.559v2.387c0,4.928,7.273,8.788,16.307,8.788.512,0,1.009-.047,1.514-.072a18.918,18.918,0,0,1-2.455-5.822C8.833,342.659,3.16,340.652,0,337.559Z" transform="translate(0 -304.597)" fill="#fff"/>
  <path id="Path_31000" data-name="Path 31000" d="M14.913,258.659c-.034-.461-.07-.921-.07-1.39a18.958,18.958,0,0,1,.541-4.429C8.842,252.663,3.163,250.655,0,247.559v2.387C0,254.612,6.568,258.279,14.913,258.659Z" transform="translate(0 -223.386)" fill="#fff"/>
  <path id="Path_31001" data-name="Path 31001" d="M16.307,168.734h0a19.106,19.106,0,0,1,4.114-6.134,32.693,32.693,0,0,1-4.119.275c-6.954,0-12.994-2.074-16.307-5.316v2.387C0,164.873,7.273,168.734,16.307,168.734Z" transform="translate(0 -142.174)" fill="#fff"/>
</svg>
