<svg xmlns="http://www.w3.org/2000/svg" width="25.028" height="17.869" viewBox="0 0 25.028 17.869">
  <path id="Path_14838" data-name="Path 14838" d="M26.509,15.292c-1.184-4.944-2.435-7.569-4.944-8.312a4.983,4.983,0,0,0-1.436-.223c-1.542,0-2.62.821-5.368.821s-3.826-.821-5.368-.821a4.927,4.927,0,0,0-1.436.223C5.45,7.723,4.2,10.354,3.015,15.292s-.966,8.513.43,9.178a1.63,1.63,0,0,0,.7.156c1.212,0,2.519-1.329,3.782-2.9,1.436-1.793,1.793-1.843,6.161-1.843h1.357c4.363,0,4.726.045,6.161,1.843,1.257,1.575,2.57,2.9,3.782,2.9a1.648,1.648,0,0,0,.7-.156C27.475,23.8,27.687,20.23,26.509,15.292Zm-18.495.821A2.212,2.212,0,1,1,10.2,13.9,2.205,2.205,0,0,1,8.014,16.113Zm9.658-1.089A1.123,1.123,0,1,1,18.795,13.9,1.123,1.123,0,0,1,17.672,15.024Zm2.452,2.452a1.12,1.12,0,1,1,1.123-1.117A1.122,1.122,0,0,1,20.124,17.476Zm0-4.9a1.123,1.123,0,1,1,1.123-1.123A1.123,1.123,0,0,1,20.124,12.572Zm2.452,2.452A1.123,1.123,0,1,1,23.7,13.9,1.123,1.123,0,0,1,22.576,15.024Z" transform="translate(-2.247 -6.757)" fill="#fff"/>
</svg>
