<svg xmlns="http://www.w3.org/2000/svg" width="23.273" height="19.346" viewBox="0 0 23.273 19.346">
  <path id="Icon_awesome-store" data-name="Icon awesome-store" d="M22.749,4.481,20.3.567A1.21,1.21,0,0,0,19.273,0H4.007A1.21,1.21,0,0,0,2.983.567L.531,4.481A3.371,3.371,0,0,0,2.753,9.635a3.927,3.927,0,0,0,.518.034A3.731,3.731,0,0,0,6.059,8.419a3.734,3.734,0,0,0,5.577,0,3.734,3.734,0,0,0,5.577,0A3.743,3.743,0,0,0,20,9.669a3.885,3.885,0,0,0,.518-.034A3.368,3.368,0,0,0,22.749,4.481Zm-2.739,6.4a4.794,4.794,0,0,1-1.115-.144V14.51H4.385V10.739a5.006,5.006,0,0,1-1.115.144,5.1,5.1,0,0,1-.68-.045,4.752,4.752,0,0,1-.62-.136v7.436A1.208,1.208,0,0,0,3.18,19.346H20.108a1.208,1.208,0,0,0,1.209-1.209V10.7a3.858,3.858,0,0,1-.62.136A5.255,5.255,0,0,1,20.01,10.882Z" transform="translate(-0.004)" fill="#fff"/>
</svg>
