<svg id="warrior-helmet-2750" xmlns="http://www.w3.org/2000/svg" width="27.7" height="36" viewBox="0 0 27.7 36">
  <g id="Group_1746" data-name="Group 1746" transform="translate(0 0)">
    <path id="Path_11179" data-name="Path 11179" d="M45.47,2.193h0L45.75,0H40.066l.28,2.193h0A13.855,13.855,0,0,0,29.058,15.806V29.429c3.336.623,6.2,3.091,7.958,6.571h2.829A35.036,35.036,0,0,0,38.83,25.675c-2.55-1.755-4.235-4.687-5.269-8.5a9.469,9.469,0,0,1,7.248.675l2.1,9.465,2.1-9.465a9.468,9.468,0,0,1,7.248-.675c-1.034,3.817-2.719,6.749-5.269,8.5A35.026,35.026,0,0,0,45.971,36H48.8c1.754-3.48,4.622-5.948,7.958-6.571V15.806A13.855,13.855,0,0,0,45.47,2.193Z" transform="translate(-29.058)" fill="#a5a3e5"/>
  </g>
</svg>
