<?xml version="1.0" encoding="UTF-8"?>
<svg id="Layer_1" data-name="Layer 1" xmlns="http://www.w3.org/2000/svg" viewBox="0 0 542.72 110.04">
  <defs>
    <style>
      .cls-1 {
        fill: #fff;
        stroke-width: 0px;
      }
    </style>
  </defs>
  <g>
    <path class="cls-1" d="m155.75,55.3V15.67h19.85c8.91,0,13.79,6,13.79,13.19s-4.87,13.13-13.79,13.13h-9.62v13.31h-10.22Zm23.23-26.44c0-2.73-2.2-4.28-4.93-4.28h-8.08v8.5h8.08c2.73,0,4.93-1.54,4.93-4.22Z"/>
    <path class="cls-1" d="m192.59,55.3V15.67h10.22v30.72h15.92v8.91h-26.14Z"/>
    <path class="cls-1" d="m249.69,55.3l-1.96-5.7h-15.63l-1.96,5.7h-11.59l14.91-39.63h12.89l14.91,39.63h-11.59Zm-9.75-29.53l-5.05,14.91h10.04l-4.99-14.91Z"/>
    <path class="cls-1" d="m269.77,55.3v-15.98l-15.03-23.65h11.53l8.62,14.62,8.5-14.62h11.59l-14.97,23.65v15.98h-10.22Z"/>
    <path class="cls-1" d="m292.29,35.52c0-12.6,9.63-20.5,21.45-20.5,8.85,0,14.2,4.69,16.93,9.63l-8.56,4.46c-1.49-2.61-4.52-5.05-8.38-5.05-6.48,0-11.05,4.93-11.05,11.47s4.58,11.47,11.05,11.47c2.91,0,5.88-1.19,7.31-2.38v-3.09h-8.91v-8.97h19.13v15.75c-4.22,4.69-10.04,7.72-17.53,7.72-11.82,0-21.45-7.9-21.45-20.5Z"/>
    <path class="cls-1" d="m358.18,55.3l-6.65-13.31h-5.23v13.31h-10.22V15.67h19.84c8.79,0,13.79,5.82,13.79,13.19,0,6.89-4.16,10.58-7.9,11.88l8.08,14.56h-11.71Zm1.13-26.5c0-2.73-2.2-4.22-4.93-4.22h-8.08v8.5h8.08c2.73,0,4.93-1.49,4.93-4.28Z"/>
    <path class="cls-1" d="m372.14,35.52c0-12.06,9.09-20.5,21.21-20.5s21.15,8.44,21.15,20.5-9.03,20.5-21.15,20.5-21.21-8.44-21.21-20.5Zm31.97,0c0-6.48-4.22-11.47-10.76-11.47s-10.81,4.99-10.81,11.47,4.28,11.47,10.81,11.47,10.76-5.05,10.76-11.47Z"/>
    <path class="cls-1" d="m418.48,39.26V15.67h10.4v23.23c0,4.69,2.85,8.08,8.38,8.08s8.32-3.39,8.32-8.08V15.67h10.34v23.53c0,9.86-5.94,16.81-18.66,16.81s-18.78-7.01-18.78-16.76Z"/>
    <path class="cls-1" d="m488.83,55.3l-16.76-22.94v22.94h-10.22V15.67h10.52l16.04,21.81V15.67h10.28v39.63h-9.86Z"/>
    <path class="cls-1" d="m504.64,55.3V15.67h16.64c12.48,0,21.45,7.49,21.45,19.79s-8.97,19.85-21.39,19.85h-16.7Zm27.63-19.85c0-6.12-3.68-10.87-10.93-10.87h-6.48v21.81h6.42c6.95,0,10.99-5.05,10.99-10.93Z"/>
  </g>
  <g>
    <path class="cls-1" d="m156.47,94.67v-18.36s3.91,0,3.91,0v14.92h7.77v3.44s-11.67,0-11.67,0Z"/>
    <path class="cls-1" d="m170.31,94.67v-18.36s12.99,0,12.99,0v3.44s-9.08,0-9.08,0v3.88h8.89v3.44s-8.89,0-8.89,0v4.16h9.08v3.44s-12.99,0-12.99,0Z"/>
    <path class="cls-1" d="m198.48,94.67l-1.13-3.11h-7.87l-1.16,3.11h-4.46l7.1-18.36h4.9l7.08,18.36h-4.46Zm-5.07-14.45l-2.86,7.9h5.73l-2.86-7.9Z"/>
    <path class="cls-1" d="m202.27,85.5c0-5.81,4.4-9.5,9.77-9.5,3.83,0,6.22,1.93,7.6,4.1l-3.25,1.76c-.83-1.29-2.4-2.4-4.35-2.4-3.33,0-5.75,2.56-5.75,6.03,0,3.47,2.42,6.03,5.75,6.03,1.62,0,3.17-.72,3.91-1.4v-2.2h-4.85v-3.41h8.75v7.05c-1.87,2.09-4.48,3.47-7.82,3.47-5.37,0-9.77-3.74-9.77-9.52Z"/>
    <path class="cls-1" d="m222.42,87.35v-11.04s3.96,0,3.96,0v10.9c0,2.56,1.49,4.32,4.33,4.32s4.29-1.76,4.29-4.32v-10.9s3.99,0,3.99,0v11.01c0,4.57-2.69,7.68-8.28,7.68s-8.29-3.14-8.29-7.65Z"/>
    <path class="cls-1" d="m242.05,94.67v-18.36s12.99,0,12.99,0v3.44s-9.08,0-9.08,0v3.88h8.89v3.44s-8.89,0-8.89,0v4.16h9.08v3.44s-12.99,0-12.99,0Z"/>
    <path class="cls-1" d="m263.16,85.5c0-5.53,4.04-9.5,9.58-9.5s9.61,3.96,9.61,9.5-4.04,9.5-9.6,9.5-9.58-3.96-9.58-9.5Zm15.17,0c0-3.44-2.2-6.03-5.59-6.03s-5.56,2.59-5.56,6.03c0,3.41,2.18,6.03,5.56,6.03s5.59-2.61,5.59-6.03Z"/>
    <path class="cls-1" d="m284.55,94.67v-18.36s12.99,0,12.99,0v3.44s-9.08,0-9.08,0v3.88h8.89v3.44s-8.89,0-8.89,0v7.6s-3.91,0-3.91,0Z"/>
    <path class="cls-1" d="m306.22,94.67v-18.36s3.91,0,3.91,0v14.92h7.77v3.44s-11.67,0-11.67,0Z"/>
    <path class="cls-1" d="m320.07,94.67v-18.36s12.99,0,12.99,0v3.44s-9.08,0-9.08,0v3.88h8.89v3.44s-8.89,0-8.89,0v4.16h9.08v3.44s-12.99,0-12.99,0Z"/>
    <path class="cls-1" d="m334.68,85.5c0-5.81,4.4-9.5,9.77-9.5,3.83,0,6.22,1.93,7.6,4.1l-3.25,1.76c-.83-1.29-2.4-2.4-4.35-2.4-3.33,0-5.75,2.56-5.75,6.03,0,3.47,2.42,6.03,5.75,6.03,1.62,0,3.17-.72,3.91-1.4v-2.2h-4.85v-3.41h8.75v7.05c-1.87,2.09-4.48,3.47-7.82,3.47-5.37,0-9.77-3.74-9.77-9.52Z"/>
    <path class="cls-1" d="m354.83,94.67v-18.36s12.99,0,12.99,0v3.44s-9.08,0-9.08,0v3.88h8.89v3.44s-8.89,0-8.89,0v4.16h9.08v3.44s-12.99,0-12.99,0Z"/>
    <path class="cls-1" d="m382.99,94.67l-8.76-11.97v11.97s-3.91,0-3.91,0v-18.36s4.02,0,4.02,0l8.51,11.53v-11.53s3.91,0,3.91,0v18.36s-3.77,0-3.77,0Z"/>
    <path class="cls-1" d="m389.85,94.67v-18.36s7.24,0,7.24,0c5.75,0,9.75,3.66,9.75,9.19s-3.99,9.17-9.74,9.17h-7.24Zm12.99-9.17c0-3.25-1.98-5.75-5.75-5.75h-3.33v11.48h3.33c3.63,0,5.75-2.61,5.75-5.73Z"/>
    <path class="cls-1" d="m407.82,92.08l2.12-2.97c1.29,1.35,3.3,2.48,5.84,2.48,2.15,0,3.19-.99,3.19-2.04,0-3.25-10.57-1.02-10.57-7.93,0-3.06,2.64-5.59,6.96-5.59,2.92,0,5.34.88,7.16,2.56l-2.17,2.86c-1.49-1.38-3.47-2.01-5.34-2.01-1.68,0-2.62.74-2.62,1.84,0,2.92,10.54.96,10.54,7.82,0,3.36-2.39,5.89-7.35,5.89-3.52,0-6.06-1.18-7.76-2.92Z"/>
  </g>
  <g>
    <polygon class="cls-1" points="46.04 33.91 110.04 8.28 110.04 0 48.74 0 46.04 33.91"/>
    <path class="cls-1" d="m12.8,69.82L43.72,0h-17.59C11.7,0,0,11.7,0,26.13v71.61l97.53-58.17-31.21,70.48h17.61c14.43,0,26.13-11.7,26.13-26.13V11.81L12.8,69.82Z"/>
    <polygon class="cls-1" points="64.28 75.47 0 101.21 0 110.04 61.53 110.04 64.28 75.47"/>
  </g>
</svg>