<?xml version="1.0" encoding="UTF-8"?>
<svg id="Layer_1" data-name="Layer 1" xmlns="http://www.w3.org/2000/svg" viewBox="0 0 117.65 117.74">
  <defs>
    <style>
      .cls-1 {
        fill: #fff;
        stroke-width: 0px;
      }
    </style>
  </defs>
  <rect class="cls-1" x="42.34" y="42.58" width="32.92" height="32.92" transform="translate(142.13 59.21) rotate(135)"/>
  <polygon class="cls-1" points="58.85 0 22.23 0 58.85 19.4 58.85 19.4 58.85 19.4 95.47 0 58.85 0"/>
  <polygon class="cls-1" points="0 58.84 0 95.46 19.4 58.84 19.4 58.84 19.4 58.84 0 22.21 0 58.84"/>
  <polygon class="cls-1" points="46.6 117.74 71 117.74 95.42 117.74 58.8 98.33 58.8 98.33 58.8 98.33 22.18 117.74 46.6 117.74 46.6 117.74"/>
  <polygon class="cls-1" points="98.25 58.9 98.25 58.9 117.65 95.52 117.65 67.44 117.65 67.44 117.65 50.23 117.65 22.28 98.25 58.9 98.25 58.9"/>
  <rect class="cls-1" x="86.54" y="71.89" width="11.3" height="40.67" transform="translate(-38.21 92.16) rotate(-44.98)"/>
  <polygon class="cls-1" points="102.55 7.11 73.76 35.9 81.75 43.89 110.52 15.12 102.55 7.11"/>
  <rect class="cls-1" x="19.81" y="5.18" width="11.3" height="40.67" transform="translate(-10.58 25.48) rotate(-45)"/>
  <polygon class="cls-1" points="15.1 110.63 43.89 81.84 35.9 73.85 7.13 102.62 15.1 110.63"/>
</svg>