<?xml version="1.0" encoding="UTF-8"?>
<svg id="Layer_1" data-name="Layer 1" xmlns="http://www.w3.org/2000/svg" viewBox="0 0 402.66 117.74">
  <defs>
    <style>
      .cls-1 {
        fill: #fff;
        stroke-width: 0px;
      }
    </style>
  </defs>
  <g>
    <rect class="cls-1" x="42.34" y="42.58" width="32.92" height="32.92" transform="translate(142.13 59.21) rotate(135)"/>
    <polygon class="cls-1" points="58.85 0 22.23 0 58.85 19.4 58.85 19.4 58.85 19.4 95.47 0 58.85 0"/>
    <polygon class="cls-1" points="0 58.84 0 95.46 19.4 58.84 19.4 58.84 19.4 58.84 0 22.21 0 58.84"/>
    <polygon class="cls-1" points="46.6 117.74 71 117.74 95.42 117.74 58.8 98.33 58.8 98.33 58.8 98.33 22.18 117.74 46.6 117.74 46.6 117.74"/>
    <polygon class="cls-1" points="98.25 58.9 98.25 58.9 117.65 95.52 117.65 67.44 117.65 67.44 117.65 50.23 117.65 22.28 98.25 58.9 98.25 58.9"/>
    <rect class="cls-1" x="86.54" y="71.89" width="11.3" height="40.67" transform="translate(-38.21 92.16) rotate(-44.98)"/>
    <polygon class="cls-1" points="102.55 7.11 73.76 35.9 81.75 43.89 110.52 15.12 102.55 7.11"/>
    <rect class="cls-1" x="19.81" y="5.18" width="11.3" height="40.67" transform="translate(-10.58 25.48) rotate(-45)"/>
    <polygon class="cls-1" points="15.1 110.63 43.89 81.84 35.9 73.85 7.13 102.62 15.1 110.63"/>
  </g>
  <g>
    <path class="cls-1" d="m147.69,114.89l-7.1-18.36h4.46l5.09,14.12,5.06-14.12h4.46l-7.07,18.36h-4.9Z"/>
    <path class="cls-1" d="m172.19,114.89l-1.13-3.11h-7.87l-1.16,3.11h-4.46l7.1-18.36h4.9l7.08,18.36h-4.46Zm-5.07-14.45l-2.86,7.9h5.73l-2.86-7.9Z"/>
    <path class="cls-1" d="m177.81,114.89v-18.36s3.91,0,3.91,0v14.92h7.76v3.44h-11.67Z"/>
    <path class="cls-1" d="m190.03,105.72c0-5.53,4.05-9.5,9.58-9.5s9.61,3.96,9.61,9.5c0,5.53-4.05,9.5-9.61,9.5s-9.58-3.96-9.58-9.5Zm15.17,0c0-3.44-2.2-6.03-5.59-6.03s-5.56,2.59-5.56,6.03c0,3.41,2.18,6.03,5.56,6.03s5.59-2.62,5.59-6.03Z"/>
    <path class="cls-1" d="m221.8,114.89l-3.61-6.52h-2.86v6.52s-3.91,0-3.91,0v-18.36s8.59,0,8.59,0c3.83,0,6.17,2.5,6.17,5.92,0,3.25-2.04,4.98-4.02,5.45l4.13,6.99h-4.49Zm.38-12.44c0-1.54-1.18-2.48-2.75-2.48h-4.1v4.96h4.1c1.57,0,2.75-.94,2.75-2.48Z"/>
    <path class="cls-1" d="m241.24,114.89l-1.13-3.11h-7.87l-1.16,3.11h-4.46l7.1-18.36h4.9l7.08,18.36h-4.46Zm-5.07-14.45l-2.86,7.9h5.73l-2.86-7.9Z"/>
    <path class="cls-1" d="m259.52,114.89l-8.75-11.97v11.97s-3.91,0-3.91,0v-18.36s4.02,0,4.02,0l8.51,11.53v-11.53s3.91,0,3.91,0v18.36s-3.77,0-3.77,0Z"/>
    <path class="cls-1" d="m270.61,114.89v-14.92h-5.37v-3.44h14.64v3.44h-5.34v14.92s-3.93,0-3.93,0Z"/>
  </g>
  <g>
    <polygon class="cls-1" points="177.26 29.29 167.29 22.23 167.29 79.16 183.27 79.16 184.46 70.26 177.26 70.26 177.26 29.29"/>
    <polygon class="cls-1" points="223.78 46.18 220.43 29.29 210.03 29.29 218.44 62.13 218.44 79.16 228.41 79.16 228.41 61.42 236.82 29.29 228.83 22.23 223.78 46.18"/>
    <path class="cls-1" d="m249.93,59.36h3.13s0,9.9,0,9.9c0,1.21-.57,1.78-1.78,1.78h-1.64c-1.21,0-1.78-.57-1.78-1.78v-30.06c0-1.21.57-1.78,1.78-1.78h1.42c1.21,0,1.78.57,1.78,1.78v4.32s9.83,4.15,9.83,4.15v-9.55c0-6.2-3.06-9.26-9.26-9.26h-6.27c-6.2,0-9.26,3.06-9.26,9.26v32.2c0,6.2,3.06,9.26,9.26,9.26h6.41c6.2,0,9.26-3.06,9.26-9.26v-19.31s-12.89,0-12.89,0v8.34Z"/>
    <path class="cls-1" d="m309.34,28.87h-6.41c-6.2,0-9.26,3.06-9.26,9.26v32.2c0,6.2,3.06,9.26,9.26,9.26h6.41c6.2,0,9.26-3.06,9.26-9.26v-32.2c0-6.2-3.06-9.26-9.26-9.26Zm-.71,40.39c0,1.21-.57,1.78-1.78,1.78h-1.42c-1.21,0-1.78-.57-1.78-1.78v-30.06c0-1.21.57-1.78,1.78-1.78h1.42c1.21,0,1.78.57,1.78,1.78v30.06Z"/>
    <path class="cls-1" d="m336.55,69.26c0,1.21-.57,1.78-1.78,1.78h-1.07c-1.21,0-1.78-.57-1.78-1.78V29.29s-9.97,0-9.97,0v41.03c0,6.2,3.06,9.26,9.26,9.26h6.06c6.2,0,9.26-3.06,9.26-9.26V20.72s-9.97,8.57-9.97,8.57v39.97Z"/>
    <polygon class="cls-1" points="365.97 54.08 360.2 29.29 350.01 29.29 350.01 87.42 358.63 79.16 358.42 52.09 364.69 79.16 374.38 79.16 374.38 29.29 365.76 29.29 365.97 54.08"/>
    <path class="cls-1" d="m155.25,29.29h-14.6s0,56.76,0,56.76l9.97-6.89v-4.85s0-12.47,0-12.47h3.96s0,0,0,0h.67c6.2,0,9.26-3.06,9.26-9.26v-14.03c0-6.2-3.06-9.26-9.26-9.26Zm-4.63,18.14v-9.59s2.14,0,2.14,0c1.21,0,1.78.57,1.78,1.78v7.81s0,4.09,0,4.09v2.31h-3.92v-.53s0-5.87,0-5.87Z"/>
    <polygon class="cls-1" points="192.22 29.29 185.67 79.16 194.72 79.16 195.43 71.89 196.35 63.2 198.56 41.4 200.84 63.2 201.7 71.89 203.23 86.06 212.38 79.16 205.83 29.29 192.22 29.29"/>
    <path class="cls-1" d="m290.39,52.88v-14.32c0-6.2-3.06-9.26-9.26-9.26h-14.89s0,49.87,0,49.87l9.97,6.89v-25.77s0-1.24,0-1.24h4.2v2.39c.04.19.07.39.07.63v17.1s9.97,0,9.97,0v-19.99s-6.12-.13-6.12-.13l6.05-6.17Zm-14.18-1.86v-.87s0-12.17,0-12.17h2.42c1.21,0,1.78.57,1.78,1.78v10.26s0,.09,0,.13h0v.87h-4.2Z"/>
    <path class="cls-1" d="m391.97,29.29h-14.03s0,8.55,0,8.55v5.51s0,35.81,0,35.81h14.03c7.19,0,10.69-3.49,10.69-10.69v-28.5c0-7.2-3.49-10.69-10.69-10.69Zm.71,38.54c0,1.92-.86,2.78-2.78,2.78h-2s0-32.77,0-32.77h2c1.92,0,2.78.85,2.78,2.78v27.21Z"/>
  </g>
</svg>