<?xml version="1.0" encoding="UTF-8"?>
<svg id="Layer_1" data-name="Layer 1" xmlns="http://www.w3.org/2000/svg" viewBox="0 0 426.15 105.71">
  <defs>
    <style>
      .cls-1 {
        fill: #fff;
        stroke-width: 0px;
      }
    </style>
  </defs>
  <g>
    <path class="cls-1" d="m185.37,16.12c2.04,1.33,3.06,3.67,3.06,7.04,0,.71-.06,1.53-.18,2.44l-.48,3.27c-.47,3.45-1.68,6.19-3.62,8.23-1.94,2.04-5.03,3.06-9.27,3.06h-4.46l-2.85,16.16h-8.26l7.43-42.19h10.46c3.41,0,6.13.66,8.17,1.99Zm-5.44,7.46c0-2.5-1.25-3.74-3.74-3.74h-2.2l-2.55,14.5h3.09c1.46,0,2.52-.49,3.18-1.49.65-.99,1.16-2.48,1.51-4.46l.54-3.09c.12-.67.18-1.25.18-1.72Z"/>
    <path class="cls-1" d="m192.76,14.13h8.26l-6.18,34.94h10.4l-1.25,7.25h-18.66l7.43-42.19Z"/>
    <path class="cls-1" d="m232.99,56.32h-7.96l.18-9.86h-7.72l-3.21,9.86h-8.56l15.69-42.19h10.81l.77,42.19Zm-7.67-15.86l.3-13.07c0-2.22.08-4.36.24-6.42h-.18c-.44,1.74-1.03,3.74-1.78,6l-4.4,13.49h5.82Z"/>
    <path class="cls-1" d="m236.91,14.13h8.44l1.07,14.08c.04.44.06,1.09.06,1.96,0,1.03-.06,2.24-.18,3.62h.18c.67-2.38,1.29-4.24,1.84-5.58l5.94-14.08h8.73l-13.67,27.03-2.61,15.15h-8.26l2.67-15.15-4.22-27.03Z"/>
    <path class="cls-1" d="m256.82,47.58c0-1.62.18-3.51.54-5.64l3.03-16.99c.67-3.56,2.1-6.43,4.28-8.59,2.18-2.16,5.35-3.24,9.51-3.24,3.21,0,5.85.73,7.93,2.2,2.08,1.47,3.12,3.82,3.12,7.07,0,1.03-.12,2.14-.36,3.33l-.3,1.6-8.62,1.54.59-3.74c.12-.79.18-1.46.18-2.02,0-2.53-1.03-3.8-3.09-3.8-1.35,0-2.4.49-3.15,1.46-.75.97-1.27,2.19-1.54,3.65l-3.33,19.07c-.24,1.23-.36,2.3-.36,3.21,0,1.58.3,2.68.89,3.3.59.61,1.39.92,2.38.92,1.58,0,2.76-.56,3.54-1.69s1.34-2.7,1.69-4.72l.89-4.99h-4.69l1.07-6.3h12.54l-4.04,23.11h-5.94l.65-6c-.75,2.26-1.85,3.99-3.3,5.2-1.45,1.21-3.38,1.81-5.79,1.81-5.55,0-8.32-3.25-8.32-9.74Z"/>
    <path class="cls-1" d="m312.84,22.75c0,.95-.08,1.84-.24,2.67l-.48,2.67c-.4,2.34-1.09,4.28-2.08,5.82-.99,1.54-2.48,2.71-4.46,3.51l2.55,18.89h-8.44l-1.6-17.17h-3.15l-3.03,17.17h-8.26l7.43-42.19h9.98c7.84,0,11.76,2.87,11.76,8.62Zm-16.93,11.11h2.32c1.66,0,2.9-.48,3.71-1.46.81-.97,1.38-2.39,1.69-4.25l.53-3.03c.12-.59.18-1.15.18-1.66,0-2.42-1.25-3.62-3.74-3.62h-2.2l-2.5,14.02Z"/>
    <path class="cls-1" d="m314.3,54.92c-2.12-1.6-3.18-4.19-3.18-7.75,0-1.19.12-2.46.36-3.8l3.27-18.18c.67-3.84,2.07-6.81,4.19-8.91,2.12-2.1,5.36-3.15,9.71-3.15,3.6,0,6.47.8,8.58,2.41,2.12,1.6,3.18,4.19,3.18,7.75,0,1.15-.12,2.42-.36,3.8l-3.27,18.18c-.71,3.88-2.12,6.86-4.22,8.94s-5.33,3.12-9.68,3.12c-3.6,0-6.47-.8-8.59-2.41Zm12.48-5.58c.69-1.01,1.22-2.47,1.57-4.37l3.45-19.49c.12-.71.18-1.37.18-1.96,0-2.61-1.27-3.92-3.8-3.92-1.58,0-2.73.52-3.45,1.54-.71,1.03-1.23,2.48-1.54,4.34l-3.45,19.49c-.12.71-.18,1.37-.18,1.96,0,2.61,1.25,3.92,3.74,3.92,1.62,0,2.78-.5,3.48-1.52Z"/>
    <path class="cls-1" d="m348.32,45.44c-.12.59-.18,1.11-.18,1.54,0,2.26,1.13,3.39,3.39,3.39,1.27,0,2.26-.4,2.97-1.19.71-.79,1.21-1.98,1.49-3.56l5.47-31.49h8.2l-5.7,32.2c-.63,3.8-2.04,6.59-4.22,8.35-2.18,1.76-5.11,2.64-8.79,2.64s-6.41-.77-8.29-2.32c-1.88-1.54-2.82-3.78-2.82-6.71,0-.83.1-1.8.3-2.91l5.47-31.25h8.26l-5.53,31.31Z"/>
    <path class="cls-1" d="m383.01,14.13l3.33,20.5c.04.32.16,1.15.36,2.5.2,1.35.32,2.61.36,3.8h.18c.32-2.65.77-5.76,1.37-9.33l3.03-17.47h7.25l-7.43,42.19h-7.96l-3.62-22.22c-.52-3.13-.81-5.35-.89-6.65h-.18c-.36,3.45-.73,6.18-1.13,8.2l-3.62,20.68h-7.31l7.43-42.19h8.85Z"/>
    <path class="cls-1" d="m413.61,14.13c3.96,0,7.04.9,9.24,2.7,2.2,1.8,3.3,4.55,3.3,8.23,0,1.15-.12,2.42-.36,3.8l-2.2,13.37c-.63,3.65-1.63,6.5-3,8.56-1.37,2.06-3.12,3.5-5.26,4.31-2.14.81-4.77,1.22-7.9,1.22h-11.11l7.43-42.19h9.86Zm-.98,34.61c1.01-1.05,1.79-3,2.35-5.85l2.32-13.61c.28-1.66.42-2.93.42-3.8,0-3.56-1.45-5.35-4.34-5.35h-2.44l-5.29,30.18h2.55c1.94,0,3.42-.52,4.43-1.57Z"/>
  </g>
  <g>
    <path class="cls-1" d="m162.28,77.17l-1.2,12.74c-.12,1.4-.26,2.53-.44,3.39h.15l.26-.96c.06-.21.15-.54.26-.99.12-.45.23-.84.35-1.17l3.77-13h3.89l-.82,13c-.04.66-.08,1.17-.12,1.52l-.12,1.61h.12c.25-1.3.51-2.44.76-3.39l3.33-12.74h3.77l-6.02,20.75h-4.73l.67-11.83c.04-.7.14-1.56.29-2.57l.12-1.02h-.15l-.15.58c-.2,1.05-.44,2.06-.73,3.01l-3.45,11.83h-4.82l1.28-20.75h3.71Z"/>
    <path class="cls-1" d="m175.23,97.91l3.65-20.75h4.06l-3.65,20.75h-4.06Z"/>
    <path class="cls-1" d="m186.51,77.17h4.06l-3.04,17.18h5.11l-.61,3.56h-9.17l3.65-20.75Z"/>
    <path class="cls-1" d="m202.9,77.17c1.95,0,3.46.44,4.54,1.33,1.08.89,1.62,2.24,1.62,4.05,0,.57-.06,1.19-.17,1.87l-1.08,6.57c-.31,1.79-.8,3.2-1.48,4.21-.67,1.01-1.53,1.72-2.59,2.12-1.05.4-2.35.6-3.89.6h-5.46l3.65-20.75h4.85Zm-.48,17.02c.5-.52.88-1.48,1.15-2.88l1.14-6.69c.14-.82.21-1.44.21-1.87,0-1.75-.71-2.63-2.13-2.63h-1.2l-2.6,14.84h1.26c.95,0,1.68-.26,2.18-.77Z"/>
    <path class="cls-1" d="m229.34,81.4c0,.47-.04.91-.12,1.31l-.23,1.31c-.19,1.15-.54,2.1-1.02,2.86-.49.76-1.22,1.33-2.19,1.72l1.26,9.29h-4.15l-.79-8.44h-1.55l-1.49,8.44h-4.06l3.65-20.75h4.91c3.86,0,5.79,1.41,5.79,4.24Zm-8.33,5.46h1.14c.82,0,1.43-.24,1.83-.72s.68-1.17.83-2.09l.26-1.49c.06-.29.09-.56.09-.82,0-1.19-.61-1.78-1.84-1.78h-1.08l-1.23,6.9Z"/>
    <path class="cls-1" d="m229.4,97.91l3.65-20.75h4.06l-3.65,20.75h-4.06Z"/>
    <path class="cls-1" d="m249.59,80.32h-5.41l-.94,5.38h4.97l-.55,3.13h-4.97l-1.61,9.09h-4.06l3.65-20.75h9.47l-.56,3.16Z"/>
    <path class="cls-1" d="m263.73,77.17l-.61,3.45h-3.94l-3.07,17.3h-4l3.04-17.3h-3.97l.64-3.45h11.92Z"/>
  </g>
  <g>
    <polygon class="cls-1" points="100.19 7.97 105.14 0 90.59 0 62.61 41.2 101.93 25.36 52.27 105.71 78.24 105.71 98.18 72.13 91.64 105.71 105.71 105.71 123.12 0 115.94 0 100.19 7.97"/>
    <polygon class="cls-1" points="20.41 79.07 54.5 0 42.58 0 28.93 19.98 32.75 0 17.41 0 0 105.71 10.18 105.71 38.21 89.64 29.54 105.71 42.44 105.71 61.56 60.48 20.41 79.07"/>
  </g>
</svg>